<?xml version="1.0" encoding="utf-8" standalone="no"?>
<!DOCTYPE svg PUBLIC "-//W3C//DTD SVG 1.1//EN"
  "http://www.w3.org/Graphics/SVG/1.1/DTD/svg11.dtd">
<svg xmlns:xlink="http://www.w3.org/1999/xlink" width="568.397812pt" height="351.806674pt" viewBox="0 0 568.397812 351.806674" xmlns="http://www.w3.org/2000/svg" version="1.1">
 <metadata>
  <rdf:RDF xmlns:dc="http://purl.org/dc/elements/1.1/" xmlns:cc="http://creativecommons.org/ns#" xmlns:rdf="http://www.w3.org/1999/02/22-rdf-syntax-ns#">
   <cc:Work>
    <dc:type rdf:resource="http://purl.org/dc/dcmitype/StillImage"/>
    <dc:date>2025-04-24T19:41:15.838146</dc:date>
    <dc:format>image/svg+xml</dc:format>
    <dc:creator>
     <cc:Agent>
      <dc:title>Matplotlib v3.10.0, https://matplotlib.org/</dc:title>
     </cc:Agent>
    </dc:creator>
   </cc:Work>
  </rdf:RDF>
 </metadata>
 <defs>
  <style type="text/css">*{stroke-linejoin: round; stroke-linecap: butt}</style>
 </defs>
 <g id="figure_1">
  <g id="patch_1">
   <path d="M 0 351.806674 
L 568.397812 351.806674 
L 568.397812 0 
L 0 0 
z
" style="fill: #ffffff"/>
  </g>
  <g id="axes_1">
   <g id="patch_2">
    <path d="M 48.982813 294.590247 
L 561.197812 294.590247 
L 561.197812 22.318125 
L 48.982813 22.318125 
z
" style="fill: #ffffff"/>
   </g>
   <g id="matplotlib.axis_1">
    <g id="xtick_1">
     <g id="line2d_1">
      <path d="M 48.982813 294.590247 
L 48.982813 22.318125 
" clip-path="url(#p6da7b46af2)" style="fill: none; stroke-dasharray: 1.85,0.8; stroke-dashoffset: 0; stroke: #b0b0b0; stroke-width: 0.5"/>
     </g>
     <g id="line2d_2">
      <defs>
       <path id="m2431e5f147" d="M 0 0 
L 0 3.5 
" style="stroke: #000000; stroke-width: 0.8"/>
      </defs>
      <g>
       <use xlink:href="#m2431e5f147" x="48.982813" y="294.590247" style="stroke: #000000; stroke-width: 0.8"/>
      </g>
     </g>
     <g id="text_1">
      <!-- 100 -->
      <g transform="translate(34.015351 320.460054) rotate(-45) scale(0.1 -0.1)">
       <defs>
        <path id="DejaVuSans-31" d="M 794 531 
L 1825 531 
L 1825 4091 
L 703 3866 
L 703 4441 
L 1819 4666 
L 2450 4666 
L 2450 531 
L 3481 531 
L 3481 0 
L 794 0 
L 794 531 
z
" transform="scale(0.015625)"/>
        <path id="DejaVuSans-30" d="M 2034 4250 
Q 1547 4250 1301 3770 
Q 1056 3291 1056 2328 
Q 1056 1369 1301 889 
Q 1547 409 2034 409 
Q 2525 409 2770 889 
Q 3016 1369 3016 2328 
Q 3016 3291 2770 3770 
Q 2525 4250 2034 4250 
z
M 2034 4750 
Q 2819 4750 3233 4129 
Q 3647 3509 3647 2328 
Q 3647 1150 3233 529 
Q 2819 -91 2034 -91 
Q 1250 -91 836 529 
Q 422 1150 422 2328 
Q 422 3509 836 4129 
Q 1250 4750 2034 4750 
z
" transform="scale(0.015625)"/>
       </defs>
       <use xlink:href="#DejaVuSans-31"/>
       <use xlink:href="#DejaVuSans-30" transform="translate(63.623047 0)"/>
       <use xlink:href="#DejaVuSans-30" transform="translate(127.246094 0)"/>
      </g>
     </g>
    </g>
    <g id="xtick_2">
     <g id="line2d_3">
      <path d="M 305.090312 294.590247 
L 305.090312 22.318125 
" clip-path="url(#p6da7b46af2)" style="fill: none; stroke-dasharray: 1.85,0.8; stroke-dashoffset: 0; stroke: #b0b0b0; stroke-width: 0.5"/>
     </g>
     <g id="line2d_4">
      <g>
       <use xlink:href="#m2431e5f147" x="305.090312" y="294.590247" style="stroke: #000000; stroke-width: 0.8"/>
      </g>
     </g>
     <g id="text_2">
      <!-- 1000 -->
      <g transform="translate(285.623884 324.959021) rotate(-45) scale(0.1 -0.1)">
       <use xlink:href="#DejaVuSans-31"/>
       <use xlink:href="#DejaVuSans-30" transform="translate(63.623047 0)"/>
       <use xlink:href="#DejaVuSans-30" transform="translate(127.246094 0)"/>
       <use xlink:href="#DejaVuSans-30" transform="translate(190.869141 0)"/>
      </g>
     </g>
    </g>
    <g id="xtick_3">
     <g id="line2d_5">
      <path d="M 561.197812 294.590247 
L 561.197812 22.318125 
" clip-path="url(#p6da7b46af2)" style="fill: none; stroke-dasharray: 1.85,0.8; stroke-dashoffset: 0; stroke: #b0b0b0; stroke-width: 0.5"/>
     </g>
     <g id="line2d_6">
      <g>
       <use xlink:href="#m2431e5f147" x="561.197812" y="294.590247" style="stroke: #000000; stroke-width: 0.8"/>
      </g>
     </g>
     <g id="text_3">
      <!-- 10000 -->
      <g transform="translate(537.232417 329.457988) rotate(-45) scale(0.1 -0.1)">
       <use xlink:href="#DejaVuSans-31"/>
       <use xlink:href="#DejaVuSans-30" transform="translate(63.623047 0)"/>
       <use xlink:href="#DejaVuSans-30" transform="translate(127.246094 0)"/>
       <use xlink:href="#DejaVuSans-30" transform="translate(190.869141 0)"/>
       <use xlink:href="#DejaVuSans-30" transform="translate(254.492188 0)"/>
      </g>
     </g>
    </g>
    <g id="xtick_4">
     <g id="line2d_7">
      <path d="M 126.078852 294.590247 
L 126.078852 22.318125 
" clip-path="url(#p6da7b46af2)" style="fill: none; stroke-dasharray: 1.85,0.8; stroke-dashoffset: 0; stroke: #b0b0b0; stroke-width: 0.5"/>
     </g>
     <g id="line2d_8">
      <defs>
       <path id="m680cef6f4b" d="M 0 0 
L 0 2 
" style="stroke: #000000; stroke-width: 0.6"/>
      </defs>
      <g>
       <use xlink:href="#m680cef6f4b" x="126.078852" y="294.590247" style="stroke: #000000; stroke-width: 0.6"/>
      </g>
     </g>
    </g>
    <g id="xtick_5">
     <g id="line2d_9">
      <path d="M 171.177144 294.590247 
L 171.177144 22.318125 
" clip-path="url(#p6da7b46af2)" style="fill: none; stroke-dasharray: 1.85,0.8; stroke-dashoffset: 0; stroke: #b0b0b0; stroke-width: 0.5"/>
     </g>
     <g id="line2d_10">
      <g>
       <use xlink:href="#m680cef6f4b" x="171.177144" y="294.590247" style="stroke: #000000; stroke-width: 0.6"/>
      </g>
     </g>
    </g>
    <g id="xtick_6">
     <g id="line2d_11">
      <path d="M 203.174892 294.590247 
L 203.174892 22.318125 
" clip-path="url(#p6da7b46af2)" style="fill: none; stroke-dasharray: 1.85,0.8; stroke-dashoffset: 0; stroke: #b0b0b0; stroke-width: 0.5"/>
     </g>
     <g id="line2d_12">
      <g>
       <use xlink:href="#m680cef6f4b" x="203.174892" y="294.590247" style="stroke: #000000; stroke-width: 0.6"/>
      </g>
     </g>
    </g>
    <g id="xtick_7">
     <g id="line2d_13">
      <path d="M 227.994273 294.590247 
L 227.994273 22.318125 
" clip-path="url(#p6da7b46af2)" style="fill: none; stroke-dasharray: 1.85,0.8; stroke-dashoffset: 0; stroke: #b0b0b0; stroke-width: 0.5"/>
     </g>
     <g id="line2d_14">
      <g>
       <use xlink:href="#m680cef6f4b" x="227.994273" y="294.590247" style="stroke: #000000; stroke-width: 0.6"/>
      </g>
     </g>
    </g>
    <g id="xtick_8">
     <g id="line2d_15">
      <path d="M 248.273184 294.590247 
L 248.273184 22.318125 
" clip-path="url(#p6da7b46af2)" style="fill: none; stroke-dasharray: 1.85,0.8; stroke-dashoffset: 0; stroke: #b0b0b0; stroke-width: 0.5"/>
     </g>
     <g id="line2d_16">
      <g>
       <use xlink:href="#m680cef6f4b" x="248.273184" y="294.590247" style="stroke: #000000; stroke-width: 0.6"/>
      </g>
     </g>
    </g>
    <g id="xtick_9">
     <g id="line2d_17">
      <path d="M 265.418759 294.590247 
L 265.418759 22.318125 
" clip-path="url(#p6da7b46af2)" style="fill: none; stroke-dasharray: 1.85,0.8; stroke-dashoffset: 0; stroke: #b0b0b0; stroke-width: 0.5"/>
     </g>
     <g id="line2d_18">
      <g>
       <use xlink:href="#m680cef6f4b" x="265.418759" y="294.590247" style="stroke: #000000; stroke-width: 0.6"/>
      </g>
     </g>
    </g>
    <g id="xtick_10">
     <g id="line2d_19">
      <path d="M 280.270931 294.590247 
L 280.270931 22.318125 
" clip-path="url(#p6da7b46af2)" style="fill: none; stroke-dasharray: 1.85,0.8; stroke-dashoffset: 0; stroke: #b0b0b0; stroke-width: 0.5"/>
     </g>
     <g id="line2d_20">
      <g>
       <use xlink:href="#m680cef6f4b" x="280.270931" y="294.590247" style="stroke: #000000; stroke-width: 0.6"/>
      </g>
     </g>
    </g>
    <g id="xtick_11">
     <g id="line2d_21">
      <path d="M 293.371476 294.590247 
L 293.371476 22.318125 
" clip-path="url(#p6da7b46af2)" style="fill: none; stroke-dasharray: 1.85,0.8; stroke-dashoffset: 0; stroke: #b0b0b0; stroke-width: 0.5"/>
     </g>
     <g id="line2d_22">
      <g>
       <use xlink:href="#m680cef6f4b" x="293.371476" y="294.590247" style="stroke: #000000; stroke-width: 0.6"/>
      </g>
     </g>
    </g>
    <g id="xtick_12">
     <g id="line2d_23">
      <path d="M 382.186352 294.590247 
L 382.186352 22.318125 
" clip-path="url(#p6da7b46af2)" style="fill: none; stroke-dasharray: 1.85,0.8; stroke-dashoffset: 0; stroke: #b0b0b0; stroke-width: 0.5"/>
     </g>
     <g id="line2d_24">
      <g>
       <use xlink:href="#m680cef6f4b" x="382.186352" y="294.590247" style="stroke: #000000; stroke-width: 0.6"/>
      </g>
     </g>
    </g>
    <g id="xtick_13">
     <g id="line2d_25">
      <path d="M 427.284644 294.590247 
L 427.284644 22.318125 
" clip-path="url(#p6da7b46af2)" style="fill: none; stroke-dasharray: 1.85,0.8; stroke-dashoffset: 0; stroke: #b0b0b0; stroke-width: 0.5"/>
     </g>
     <g id="line2d_26">
      <g>
       <use xlink:href="#m680cef6f4b" x="427.284644" y="294.590247" style="stroke: #000000; stroke-width: 0.6"/>
      </g>
     </g>
    </g>
    <g id="xtick_14">
     <g id="line2d_27">
      <path d="M 459.282392 294.590247 
L 459.282392 22.318125 
" clip-path="url(#p6da7b46af2)" style="fill: none; stroke-dasharray: 1.85,0.8; stroke-dashoffset: 0; stroke: #b0b0b0; stroke-width: 0.5"/>
     </g>
     <g id="line2d_28">
      <g>
       <use xlink:href="#m680cef6f4b" x="459.282392" y="294.590247" style="stroke: #000000; stroke-width: 0.6"/>
      </g>
     </g>
    </g>
    <g id="xtick_15">
     <g id="line2d_29">
      <path d="M 484.101773 294.590247 
L 484.101773 22.318125 
" clip-path="url(#p6da7b46af2)" style="fill: none; stroke-dasharray: 1.85,0.8; stroke-dashoffset: 0; stroke: #b0b0b0; stroke-width: 0.5"/>
     </g>
     <g id="line2d_30">
      <g>
       <use xlink:href="#m680cef6f4b" x="484.101773" y="294.590247" style="stroke: #000000; stroke-width: 0.6"/>
      </g>
     </g>
    </g>
    <g id="xtick_16">
     <g id="line2d_31">
      <path d="M 504.380684 294.590247 
L 504.380684 22.318125 
" clip-path="url(#p6da7b46af2)" style="fill: none; stroke-dasharray: 1.85,0.8; stroke-dashoffset: 0; stroke: #b0b0b0; stroke-width: 0.5"/>
     </g>
     <g id="line2d_32">
      <g>
       <use xlink:href="#m680cef6f4b" x="504.380684" y="294.590247" style="stroke: #000000; stroke-width: 0.6"/>
      </g>
     </g>
    </g>
    <g id="xtick_17">
     <g id="line2d_33">
      <path d="M 521.526259 294.590247 
L 521.526259 22.318125 
" clip-path="url(#p6da7b46af2)" style="fill: none; stroke-dasharray: 1.85,0.8; stroke-dashoffset: 0; stroke: #b0b0b0; stroke-width: 0.5"/>
     </g>
     <g id="line2d_34">
      <g>
       <use xlink:href="#m680cef6f4b" x="521.526259" y="294.590247" style="stroke: #000000; stroke-width: 0.6"/>
      </g>
     </g>
    </g>
    <g id="xtick_18">
     <g id="line2d_35">
      <path d="M 536.378431 294.590247 
L 536.378431 22.318125 
" clip-path="url(#p6da7b46af2)" style="fill: none; stroke-dasharray: 1.85,0.8; stroke-dashoffset: 0; stroke: #b0b0b0; stroke-width: 0.5"/>
     </g>
     <g id="line2d_36">
      <g>
       <use xlink:href="#m680cef6f4b" x="536.378431" y="294.590247" style="stroke: #000000; stroke-width: 0.6"/>
      </g>
     </g>
    </g>
    <g id="xtick_19">
     <g id="line2d_37">
      <path d="M 549.478976 294.590247 
L 549.478976 22.318125 
" clip-path="url(#p6da7b46af2)" style="fill: none; stroke-dasharray: 1.85,0.8; stroke-dashoffset: 0; stroke: #b0b0b0; stroke-width: 0.5"/>
     </g>
     <g id="line2d_38">
      <g>
       <use xlink:href="#m680cef6f4b" x="549.478976" y="294.590247" style="stroke: #000000; stroke-width: 0.6"/>
      </g>
     </g>
    </g>
    <g id="text_4">
     <!-- Frequency (Hz) -->
     <g transform="translate(267.385625 342.526987) scale(0.1 -0.1)">
      <defs>
       <path id="DejaVuSans-46" d="M 628 4666 
L 3309 4666 
L 3309 4134 
L 1259 4134 
L 1259 2759 
L 3109 2759 
L 3109 2228 
L 1259 2228 
L 1259 0 
L 628 0 
L 628 4666 
z
" transform="scale(0.015625)"/>
       <path id="DejaVuSans-72" d="M 2631 2963 
Q 2534 3019 2420 3045 
Q 2306 3072 2169 3072 
Q 1681 3072 1420 2755 
Q 1159 2438 1159 1844 
L 1159 0 
L 581 0 
L 581 3500 
L 1159 3500 
L 1159 2956 
Q 1341 3275 1631 3429 
Q 1922 3584 2338 3584 
Q 2397 3584 2469 3576 
Q 2541 3569 2628 3553 
L 2631 2963 
z
" transform="scale(0.015625)"/>
       <path id="DejaVuSans-65" d="M 3597 1894 
L 3597 1613 
L 953 1613 
Q 991 1019 1311 708 
Q 1631 397 2203 397 
Q 2534 397 2845 478 
Q 3156 559 3463 722 
L 3463 178 
Q 3153 47 2828 -22 
Q 2503 -91 2169 -91 
Q 1331 -91 842 396 
Q 353 884 353 1716 
Q 353 2575 817 3079 
Q 1281 3584 2069 3584 
Q 2775 3584 3186 3129 
Q 3597 2675 3597 1894 
z
M 3022 2063 
Q 3016 2534 2758 2815 
Q 2500 3097 2075 3097 
Q 1594 3097 1305 2825 
Q 1016 2553 972 2059 
L 3022 2063 
z
" transform="scale(0.015625)"/>
       <path id="DejaVuSans-71" d="M 947 1747 
Q 947 1113 1208 752 
Q 1469 391 1925 391 
Q 2381 391 2643 752 
Q 2906 1113 2906 1747 
Q 2906 2381 2643 2742 
Q 2381 3103 1925 3103 
Q 1469 3103 1208 2742 
Q 947 2381 947 1747 
z
M 2906 525 
Q 2725 213 2448 61 
Q 2172 -91 1784 -91 
Q 1150 -91 751 415 
Q 353 922 353 1747 
Q 353 2572 751 3078 
Q 1150 3584 1784 3584 
Q 2172 3584 2448 3432 
Q 2725 3281 2906 2969 
L 2906 3500 
L 3481 3500 
L 3481 -1331 
L 2906 -1331 
L 2906 525 
z
" transform="scale(0.015625)"/>
       <path id="DejaVuSans-75" d="M 544 1381 
L 544 3500 
L 1119 3500 
L 1119 1403 
Q 1119 906 1312 657 
Q 1506 409 1894 409 
Q 2359 409 2629 706 
Q 2900 1003 2900 1516 
L 2900 3500 
L 3475 3500 
L 3475 0 
L 2900 0 
L 2900 538 
Q 2691 219 2414 64 
Q 2138 -91 1772 -91 
Q 1169 -91 856 284 
Q 544 659 544 1381 
z
M 1991 3584 
L 1991 3584 
z
" transform="scale(0.015625)"/>
       <path id="DejaVuSans-6e" d="M 3513 2113 
L 3513 0 
L 2938 0 
L 2938 2094 
Q 2938 2591 2744 2837 
Q 2550 3084 2163 3084 
Q 1697 3084 1428 2787 
Q 1159 2491 1159 1978 
L 1159 0 
L 581 0 
L 581 3500 
L 1159 3500 
L 1159 2956 
Q 1366 3272 1645 3428 
Q 1925 3584 2291 3584 
Q 2894 3584 3203 3211 
Q 3513 2838 3513 2113 
z
" transform="scale(0.015625)"/>
       <path id="DejaVuSans-63" d="M 3122 3366 
L 3122 2828 
Q 2878 2963 2633 3030 
Q 2388 3097 2138 3097 
Q 1578 3097 1268 2742 
Q 959 2388 959 1747 
Q 959 1106 1268 751 
Q 1578 397 2138 397 
Q 2388 397 2633 464 
Q 2878 531 3122 666 
L 3122 134 
Q 2881 22 2623 -34 
Q 2366 -91 2075 -91 
Q 1284 -91 818 406 
Q 353 903 353 1747 
Q 353 2603 823 3093 
Q 1294 3584 2113 3584 
Q 2378 3584 2631 3529 
Q 2884 3475 3122 3366 
z
" transform="scale(0.015625)"/>
       <path id="DejaVuSans-79" d="M 2059 -325 
Q 1816 -950 1584 -1140 
Q 1353 -1331 966 -1331 
L 506 -1331 
L 506 -850 
L 844 -850 
Q 1081 -850 1212 -737 
Q 1344 -625 1503 -206 
L 1606 56 
L 191 3500 
L 800 3500 
L 1894 763 
L 2988 3500 
L 3597 3500 
L 2059 -325 
z
" transform="scale(0.015625)"/>
       <path id="DejaVuSans-20" transform="scale(0.015625)"/>
       <path id="DejaVuSans-28" d="M 1984 4856 
Q 1566 4138 1362 3434 
Q 1159 2731 1159 2009 
Q 1159 1288 1364 580 
Q 1569 -128 1984 -844 
L 1484 -844 
Q 1016 -109 783 600 
Q 550 1309 550 2009 
Q 550 2706 781 3412 
Q 1013 4119 1484 4856 
L 1984 4856 
z
" transform="scale(0.015625)"/>
       <path id="DejaVuSans-48" d="M 628 4666 
L 1259 4666 
L 1259 2753 
L 3553 2753 
L 3553 4666 
L 4184 4666 
L 4184 0 
L 3553 0 
L 3553 2222 
L 1259 2222 
L 1259 0 
L 628 0 
L 628 4666 
z
" transform="scale(0.015625)"/>
       <path id="DejaVuSans-7a" d="M 353 3500 
L 3084 3500 
L 3084 2975 
L 922 459 
L 3084 459 
L 3084 0 
L 275 0 
L 275 525 
L 2438 3041 
L 353 3041 
L 353 3500 
z
" transform="scale(0.015625)"/>
       <path id="DejaVuSans-29" d="M 513 4856 
L 1013 4856 
Q 1481 4119 1714 3412 
Q 1947 2706 1947 2009 
Q 1947 1309 1714 600 
Q 1481 -109 1013 -844 
L 513 -844 
Q 928 -128 1133 580 
Q 1338 1288 1338 2009 
Q 1338 2731 1133 3434 
Q 928 4138 513 4856 
z
" transform="scale(0.015625)"/>
      </defs>
      <use xlink:href="#DejaVuSans-46"/>
      <use xlink:href="#DejaVuSans-72" transform="translate(50.269531 0)"/>
      <use xlink:href="#DejaVuSans-65" transform="translate(89.132812 0)"/>
      <use xlink:href="#DejaVuSans-71" transform="translate(150.65625 0)"/>
      <use xlink:href="#DejaVuSans-75" transform="translate(214.132812 0)"/>
      <use xlink:href="#DejaVuSans-65" transform="translate(277.511719 0)"/>
      <use xlink:href="#DejaVuSans-6e" transform="translate(339.035156 0)"/>
      <use xlink:href="#DejaVuSans-63" transform="translate(402.414062 0)"/>
      <use xlink:href="#DejaVuSans-79" transform="translate(457.394531 0)"/>
      <use xlink:href="#DejaVuSans-20" transform="translate(516.574219 0)"/>
      <use xlink:href="#DejaVuSans-28" transform="translate(548.361328 0)"/>
      <use xlink:href="#DejaVuSans-48" transform="translate(587.375 0)"/>
      <use xlink:href="#DejaVuSans-7a" transform="translate(662.570312 0)"/>
      <use xlink:href="#DejaVuSans-29" transform="translate(715.060547 0)"/>
     </g>
    </g>
   </g>
   <g id="matplotlib.axis_2">
    <g id="ytick_1">
     <g id="line2d_39">
      <path d="M 48.982813 294.590247 
L 561.197812 294.590247 
" clip-path="url(#p6da7b46af2)" style="fill: none; stroke-dasharray: 1.85,0.8; stroke-dashoffset: 0; stroke: #b0b0b0; stroke-width: 0.5"/>
     </g>
     <g id="line2d_40">
      <defs>
       <path id="mf67c970c20" d="M 0 0 
L -3.5 0 
" style="stroke: #000000; stroke-width: 0.8"/>
      </defs>
      <g>
       <use xlink:href="#mf67c970c20" x="48.982813" y="294.590247" style="stroke: #000000; stroke-width: 0.8"/>
      </g>
     </g>
     <g id="text_5">
      <!-- −20 -->
      <g transform="translate(20.878125 298.389466) scale(0.1 -0.1)">
       <defs>
        <path id="DejaVuSans-2212" d="M 678 2272 
L 4684 2272 
L 4684 1741 
L 678 1741 
L 678 2272 
z
" transform="scale(0.015625)"/>
        <path id="DejaVuSans-32" d="M 1228 531 
L 3431 531 
L 3431 0 
L 469 0 
L 469 531 
Q 828 903 1448 1529 
Q 2069 2156 2228 2338 
Q 2531 2678 2651 2914 
Q 2772 3150 2772 3378 
Q 2772 3750 2511 3984 
Q 2250 4219 1831 4219 
Q 1534 4219 1204 4116 
Q 875 4013 500 3803 
L 500 4441 
Q 881 4594 1212 4672 
Q 1544 4750 1819 4750 
Q 2544 4750 2975 4387 
Q 3406 4025 3406 3419 
Q 3406 3131 3298 2873 
Q 3191 2616 2906 2266 
Q 2828 2175 2409 1742 
Q 1991 1309 1228 531 
z
" transform="scale(0.015625)"/>
       </defs>
       <use xlink:href="#DejaVuSans-2212"/>
       <use xlink:href="#DejaVuSans-32" transform="translate(83.789062 0)"/>
       <use xlink:href="#DejaVuSans-30" transform="translate(147.412109 0)"/>
      </g>
     </g>
    </g>
    <g id="ytick_2">
     <g id="line2d_41">
      <path d="M 48.982813 255.694229 
L 561.197812 255.694229 
" clip-path="url(#p6da7b46af2)" style="fill: none; stroke-dasharray: 1.85,0.8; stroke-dashoffset: 0; stroke: #b0b0b0; stroke-width: 0.5"/>
     </g>
     <g id="line2d_42">
      <g>
       <use xlink:href="#mf67c970c20" x="48.982813" y="255.694229" style="stroke: #000000; stroke-width: 0.8"/>
      </g>
     </g>
     <g id="text_6">
      <!-- −10 -->
      <g transform="translate(20.878125 259.493448) scale(0.1 -0.1)">
       <use xlink:href="#DejaVuSans-2212"/>
       <use xlink:href="#DejaVuSans-31" transform="translate(83.789062 0)"/>
       <use xlink:href="#DejaVuSans-30" transform="translate(147.412109 0)"/>
      </g>
     </g>
    </g>
    <g id="ytick_3">
     <g id="line2d_43">
      <path d="M 48.982813 216.798212 
L 561.197812 216.798212 
" clip-path="url(#p6da7b46af2)" style="fill: none; stroke-dasharray: 1.85,0.8; stroke-dashoffset: 0; stroke: #b0b0b0; stroke-width: 0.5"/>
     </g>
     <g id="line2d_44">
      <g>
       <use xlink:href="#mf67c970c20" x="48.982813" y="216.798212" style="stroke: #000000; stroke-width: 0.8"/>
      </g>
     </g>
     <g id="text_7">
      <!-- 0 -->
      <g transform="translate(35.620313 220.597431) scale(0.1 -0.1)">
       <use xlink:href="#DejaVuSans-30"/>
      </g>
     </g>
    </g>
    <g id="ytick_4">
     <g id="line2d_45">
      <path d="M 48.982813 177.902195 
L 561.197812 177.902195 
" clip-path="url(#p6da7b46af2)" style="fill: none; stroke-dasharray: 1.85,0.8; stroke-dashoffset: 0; stroke: #b0b0b0; stroke-width: 0.5"/>
     </g>
     <g id="line2d_46">
      <g>
       <use xlink:href="#mf67c970c20" x="48.982813" y="177.902195" style="stroke: #000000; stroke-width: 0.8"/>
      </g>
     </g>
     <g id="text_8">
      <!-- 10 -->
      <g transform="translate(29.257813 181.701413) scale(0.1 -0.1)">
       <use xlink:href="#DejaVuSans-31"/>
       <use xlink:href="#DejaVuSans-30" transform="translate(63.623047 0)"/>
      </g>
     </g>
    </g>
    <g id="ytick_5">
     <g id="line2d_47">
      <path d="M 48.982813 139.006177 
L 561.197812 139.006177 
" clip-path="url(#p6da7b46af2)" style="fill: none; stroke-dasharray: 1.85,0.8; stroke-dashoffset: 0; stroke: #b0b0b0; stroke-width: 0.5"/>
     </g>
     <g id="line2d_48">
      <g>
       <use xlink:href="#mf67c970c20" x="48.982813" y="139.006177" style="stroke: #000000; stroke-width: 0.8"/>
      </g>
     </g>
     <g id="text_9">
      <!-- 20 -->
      <g transform="translate(29.257813 142.805396) scale(0.1 -0.1)">
       <use xlink:href="#DejaVuSans-32"/>
       <use xlink:href="#DejaVuSans-30" transform="translate(63.623047 0)"/>
      </g>
     </g>
    </g>
    <g id="ytick_6">
     <g id="line2d_49">
      <path d="M 48.982813 100.11016 
L 561.197812 100.11016 
" clip-path="url(#p6da7b46af2)" style="fill: none; stroke-dasharray: 1.85,0.8; stroke-dashoffset: 0; stroke: #b0b0b0; stroke-width: 0.5"/>
     </g>
     <g id="line2d_50">
      <g>
       <use xlink:href="#mf67c970c20" x="48.982813" y="100.11016" style="stroke: #000000; stroke-width: 0.8"/>
      </g>
     </g>
     <g id="text_10">
      <!-- 30 -->
      <g transform="translate(29.257813 103.909379) scale(0.1 -0.1)">
       <defs>
        <path id="DejaVuSans-33" d="M 2597 2516 
Q 3050 2419 3304 2112 
Q 3559 1806 3559 1356 
Q 3559 666 3084 287 
Q 2609 -91 1734 -91 
Q 1441 -91 1130 -33 
Q 819 25 488 141 
L 488 750 
Q 750 597 1062 519 
Q 1375 441 1716 441 
Q 2309 441 2620 675 
Q 2931 909 2931 1356 
Q 2931 1769 2642 2001 
Q 2353 2234 1838 2234 
L 1294 2234 
L 1294 2753 
L 1863 2753 
Q 2328 2753 2575 2939 
Q 2822 3125 2822 3475 
Q 2822 3834 2567 4026 
Q 2313 4219 1838 4219 
Q 1578 4219 1281 4162 
Q 984 4106 628 3988 
L 628 4550 
Q 988 4650 1302 4700 
Q 1616 4750 1894 4750 
Q 2613 4750 3031 4423 
Q 3450 4097 3450 3541 
Q 3450 3153 3228 2886 
Q 3006 2619 2597 2516 
z
" transform="scale(0.015625)"/>
       </defs>
       <use xlink:href="#DejaVuSans-33"/>
       <use xlink:href="#DejaVuSans-30" transform="translate(63.623047 0)"/>
      </g>
     </g>
    </g>
    <g id="ytick_7">
     <g id="line2d_51">
      <path d="M 48.982813 61.214142 
L 561.197812 61.214142 
" clip-path="url(#p6da7b46af2)" style="fill: none; stroke-dasharray: 1.85,0.8; stroke-dashoffset: 0; stroke: #b0b0b0; stroke-width: 0.5"/>
     </g>
     <g id="line2d_52">
      <g>
       <use xlink:href="#mf67c970c20" x="48.982813" y="61.214142" style="stroke: #000000; stroke-width: 0.8"/>
      </g>
     </g>
     <g id="text_11">
      <!-- 40 -->
      <g transform="translate(29.257813 65.013361) scale(0.1 -0.1)">
       <defs>
        <path id="DejaVuSans-34" d="M 2419 4116 
L 825 1625 
L 2419 1625 
L 2419 4116 
z
M 2253 4666 
L 3047 4666 
L 3047 1625 
L 3713 1625 
L 3713 1100 
L 3047 1100 
L 3047 0 
L 2419 0 
L 2419 1100 
L 313 1100 
L 313 1709 
L 2253 4666 
z
" transform="scale(0.015625)"/>
       </defs>
       <use xlink:href="#DejaVuSans-34"/>
       <use xlink:href="#DejaVuSans-30" transform="translate(63.623047 0)"/>
      </g>
     </g>
    </g>
    <g id="ytick_8">
     <g id="line2d_53">
      <path d="M 48.982813 22.318125 
L 561.197812 22.318125 
" clip-path="url(#p6da7b46af2)" style="fill: none; stroke-dasharray: 1.85,0.8; stroke-dashoffset: 0; stroke: #b0b0b0; stroke-width: 0.5"/>
     </g>
     <g id="line2d_54">
      <g>
       <use xlink:href="#mf67c970c20" x="48.982813" y="22.318125" style="stroke: #000000; stroke-width: 0.8"/>
      </g>
     </g>
     <g id="text_12">
      <!-- 50 -->
      <g transform="translate(29.257813 26.117344) scale(0.1 -0.1)">
       <defs>
        <path id="DejaVuSans-35" d="M 691 4666 
L 3169 4666 
L 3169 4134 
L 1269 4134 
L 1269 2991 
Q 1406 3038 1543 3061 
Q 1681 3084 1819 3084 
Q 2600 3084 3056 2656 
Q 3513 2228 3513 1497 
Q 3513 744 3044 326 
Q 2575 -91 1722 -91 
Q 1428 -91 1123 -41 
Q 819 9 494 109 
L 494 744 
Q 775 591 1075 516 
Q 1375 441 1709 441 
Q 2250 441 2565 725 
Q 2881 1009 2881 1497 
Q 2881 1984 2565 2268 
Q 2250 2553 1709 2553 
Q 1456 2553 1204 2497 
Q 953 2441 691 2322 
L 691 4666 
z
" transform="scale(0.015625)"/>
       </defs>
       <use xlink:href="#DejaVuSans-35"/>
       <use xlink:href="#DejaVuSans-30" transform="translate(63.623047 0)"/>
      </g>
     </g>
    </g>
    <g id="text_13">
     <!-- SPL (dBA) -->
     <g transform="translate(14.798438 182.944811) rotate(-90) scale(0.1 -0.1)">
      <defs>
       <path id="DejaVuSans-53" d="M 3425 4513 
L 3425 3897 
Q 3066 4069 2747 4153 
Q 2428 4238 2131 4238 
Q 1616 4238 1336 4038 
Q 1056 3838 1056 3469 
Q 1056 3159 1242 3001 
Q 1428 2844 1947 2747 
L 2328 2669 
Q 3034 2534 3370 2195 
Q 3706 1856 3706 1288 
Q 3706 609 3251 259 
Q 2797 -91 1919 -91 
Q 1588 -91 1214 -16 
Q 841 59 441 206 
L 441 856 
Q 825 641 1194 531 
Q 1563 422 1919 422 
Q 2459 422 2753 634 
Q 3047 847 3047 1241 
Q 3047 1584 2836 1778 
Q 2625 1972 2144 2069 
L 1759 2144 
Q 1053 2284 737 2584 
Q 422 2884 422 3419 
Q 422 4038 858 4394 
Q 1294 4750 2059 4750 
Q 2388 4750 2728 4690 
Q 3069 4631 3425 4513 
z
" transform="scale(0.015625)"/>
       <path id="DejaVuSans-50" d="M 1259 4147 
L 1259 2394 
L 2053 2394 
Q 2494 2394 2734 2622 
Q 2975 2850 2975 3272 
Q 2975 3691 2734 3919 
Q 2494 4147 2053 4147 
L 1259 4147 
z
M 628 4666 
L 2053 4666 
Q 2838 4666 3239 4311 
Q 3641 3956 3641 3272 
Q 3641 2581 3239 2228 
Q 2838 1875 2053 1875 
L 1259 1875 
L 1259 0 
L 628 0 
L 628 4666 
z
" transform="scale(0.015625)"/>
       <path id="DejaVuSans-4c" d="M 628 4666 
L 1259 4666 
L 1259 531 
L 3531 531 
L 3531 0 
L 628 0 
L 628 4666 
z
" transform="scale(0.015625)"/>
       <path id="DejaVuSans-64" d="M 2906 2969 
L 2906 4863 
L 3481 4863 
L 3481 0 
L 2906 0 
L 2906 525 
Q 2725 213 2448 61 
Q 2172 -91 1784 -91 
Q 1150 -91 751 415 
Q 353 922 353 1747 
Q 353 2572 751 3078 
Q 1150 3584 1784 3584 
Q 2172 3584 2448 3432 
Q 2725 3281 2906 2969 
z
M 947 1747 
Q 947 1113 1208 752 
Q 1469 391 1925 391 
Q 2381 391 2643 752 
Q 2906 1113 2906 1747 
Q 2906 2381 2643 2742 
Q 2381 3103 1925 3103 
Q 1469 3103 1208 2742 
Q 947 2381 947 1747 
z
" transform="scale(0.015625)"/>
       <path id="DejaVuSans-42" d="M 1259 2228 
L 1259 519 
L 2272 519 
Q 2781 519 3026 730 
Q 3272 941 3272 1375 
Q 3272 1813 3026 2020 
Q 2781 2228 2272 2228 
L 1259 2228 
z
M 1259 4147 
L 1259 2741 
L 2194 2741 
Q 2656 2741 2882 2914 
Q 3109 3088 3109 3444 
Q 3109 3797 2882 3972 
Q 2656 4147 2194 4147 
L 1259 4147 
z
M 628 4666 
L 2241 4666 
Q 2963 4666 3353 4366 
Q 3744 4066 3744 3513 
Q 3744 3084 3544 2831 
Q 3344 2578 2956 2516 
Q 3422 2416 3680 2098 
Q 3938 1781 3938 1306 
Q 3938 681 3513 340 
Q 3088 0 2303 0 
L 628 0 
L 628 4666 
z
" transform="scale(0.015625)"/>
       <path id="DejaVuSans-41" d="M 2188 4044 
L 1331 1722 
L 3047 1722 
L 2188 4044 
z
M 1831 4666 
L 2547 4666 
L 4325 0 
L 3669 0 
L 3244 1197 
L 1141 1197 
L 716 0 
L 50 0 
L 1831 4666 
z
" transform="scale(0.015625)"/>
      </defs>
      <use xlink:href="#DejaVuSans-53"/>
      <use xlink:href="#DejaVuSans-50" transform="translate(63.476562 0)"/>
      <use xlink:href="#DejaVuSans-4c" transform="translate(123.779297 0)"/>
      <use xlink:href="#DejaVuSans-20" transform="translate(179.492188 0)"/>
      <use xlink:href="#DejaVuSans-28" transform="translate(211.279297 0)"/>
      <use xlink:href="#DejaVuSans-64" transform="translate(250.292969 0)"/>
      <use xlink:href="#DejaVuSans-42" transform="translate(313.769531 0)"/>
      <use xlink:href="#DejaVuSans-41" transform="translate(382.373047 0)"/>
      <use xlink:href="#DejaVuSans-29" transform="translate(450.78125 0)"/>
     </g>
    </g>
   </g>
   <g id="line2d_55">
    <path d="M 51.493242 168.632891 
L 57.198394 159.789661 
L 62.625131 155.956051 
L 67.79937 150.419984 
L 72.743565 142.675642 
L 77.477304 141.188643 
L 82.017775 154.938693 
L 86.38014 172.121093 
L 90.577849 170.284551 
L 94.622879 162.809828 
L 98.525949 169.007172 
L 102.296685 175.975775 
L 105.943768 171.111745 
L 109.475052 165.866849 
L 112.897663 170.459793 
L 116.218091 180.803148 
L 119.44226 182.447202 
L 122.575596 183.785662 
L 125.623077 183.463119 
L 128.589281 179.401945 
L 131.478432 171.249822 
L 134.294433 174.677972 
L 137.040895 177.673253 
L 139.721171 166.924539 
L 142.338376 154.596739 
L 144.89541 155.849821 
L 147.394977 153.651033 
L 149.839605 149.459245 
L 152.231656 134.704186 
L 154.573344 123.863479 
L 156.866746 131.121412 
L 159.113814 166.301448 
L 161.316383 171.382355 
L 163.47618 177.40874 
L 165.594836 177.491715 
L 167.673888 173.705044 
L 169.714791 167.869859 
L 171.718919 156.775801 
L 173.687573 157.944367 
L 175.621988 159.68121 
L 179.392725 139.635779 
L 181.231214 156.738006 
L 183.039808 164.721747 
L 184.819463 162.137819 
L 186.571091 161.876437 
L 188.295561 162.503775 
L 189.993702 172.362825 
L 191.666306 173.662959 
L 193.31413 170.651324 
L 194.937897 171.808674 
L 196.5383 165.482931 
L 198.116001 168.521565 
L 199.671636 173.708401 
L 201.205813 172.573615 
L 202.719116 162.788172 
L 204.212106 161.719167 
L 205.685321 157.405724 
L 207.139277 154.334301 
L 208.574472 154.865023 
L 209.991384 152.940195 
L 211.390472 153.128932 
L 212.77218 154.796869 
L 214.136935 159.66813 
L 215.485146 162.257614 
L 216.817211 168.408892 
L 218.133511 169.558366 
L 219.434416 162.88689 
L 221.99145 160.398606 
L 223.248255 163.715957 
L 224.491017 164.637892 
L 225.720047 166.692223 
L 226.935645 163.934829 
L 228.1381 155.723671 
L 229.327695 152.753045 
L 230.504702 155.744713 
L 231.669383 155.542276 
L 232.821996 156.182378 
L 233.962786 152.68374 
L 235.091994 150.947305 
L 236.209854 145.32176 
L 238.412422 148.295652 
L 239.497563 148.964536 
L 240.572219 150.031717 
L 241.636592 150.690769 
L 242.690875 155.447925 
L 243.735259 156.848516 
L 245.79506 152.698832 
L 246.810831 153.501503 
L 247.817408 155.014923 
L 248.814958 150.493776 
L 249.803641 150.522779 
L 250.783613 155.272266 
L 251.755026 155.991518 
L 252.718028 154.077045 
L 253.672764 152.719479 
L 254.619375 159.104189 
L 255.557997 158.252594 
L 256.488765 159.457102 
L 257.411808 167.983127 
L 258.327254 169.433166 
L 259.235227 163.556997 
L 260.135848 159.745001 
L 261.029235 169.380953 
L 261.915503 172.426678 
L 262.794765 178.252964 
L 263.667131 178.916636 
L 264.532708 179.894494 
L 265.391601 181.227087 
L 266.243912 184.373359 
L 267.089742 184.036727 
L 267.929188 186.372793 
L 268.762346 184.418116 
L 269.589309 183.757665 
L 270.41017 182.266353 
L 271.225016 180.340103 
L 272.033937 179.598525 
L 272.837017 178.680615 
L 273.634339 181.991577 
L 274.425987 179.69805 
L 275.212041 170.312668 
L 275.992578 167.254314 
L 276.767675 162.6822 
L 277.537409 160.921147 
L 278.301853 158.115261 
L 279.061078 165.695887 
L 279.815156 165.819029 
L 280.564156 162.277273 
L 281.308146 163.651805 
L 282.047192 168.460021 
L 282.78136 160.424717 
L 283.510714 156.284317 
L 284.235317 162.989877 
L 284.955229 164.920882 
L 285.670512 164.779129 
L 286.381224 164.389149 
L 287.087423 166.418878 
L 288.486512 170.961842 
L 289.179512 172.533698 
L 289.86822 176.554618 
L 290.55269 179.887947 
L 291.232974 176.292509 
L 291.909123 173.667939 
L 292.581186 174.529939 
L 293.249212 177.577319 
L 293.91325 173.968658 
L 294.573348 175.605097 
L 295.229551 180.384626 
L 295.881905 179.137565 
L 297.175246 171.50899 
L 297.81632 171.432497 
L 298.453721 172.52961 
L 299.087489 175.499991 
L 299.717667 177.789418 
L 300.344294 183.79053 
L 300.967411 185.342395 
L 301.587057 184.320208 
L 302.203269 180.598583 
L 302.816087 180.274556 
L 303.425546 180.51439 
L 304.031684 178.554708 
L 304.634537 173.473844 
L 305.23414 171.303552 
L 306.423735 178.583705 
L 307.013795 181.31994 
L 307.600741 182.955398 
L 308.184607 181.395584 
L 308.765423 184.853451 
L 309.343222 186.067739 
L 309.918035 184.964693 
L 310.489893 182.136887 
L 311.058825 181.627216 
L 311.624863 180.485732 
L 312.188034 179.613814 
L 312.748368 177.599116 
L 313.305893 181.965923 
L 313.860638 184.713011 
L 314.412629 185.612738 
L 314.961895 185.980305 
L 315.508462 180.758695 
L 316.052356 179.218535 
L 316.593603 175.623836 
L 317.132229 179.131713 
L 317.668259 179.426812 
L 318.201719 178.745685 
L 319.261022 184.707592 
L 319.786915 185.674668 
L 320.310333 185.578663 
L 320.831299 184.77706 
L 321.349836 186.067021 
L 321.865968 187.047482 
L 322.379715 191.41728 
L 322.8911 192.101222 
L 323.400145 191.534782 
L 323.90687 190.12866 
L 324.411298 188.081705 
L 324.913448 187.921201 
L 325.413341 189.018746 
L 325.910998 190.384266 
L 326.406438 186.84325 
L 326.899681 187.804007 
L 327.390746 188.237868 
L 327.879652 186.860366 
L 328.366419 191.821285 
L 328.851065 194.013171 
L 329.333609 191.243048 
L 329.814068 191.078881 
L 330.29246 191.064028 
L 330.768804 194.460123 
L 331.243116 194.375872 
L 332.185716 198.445261 
L 332.654037 197.074921 
L 333.120394 198.913298 
L 333.584804 194.797655 
L 334.047283 194.535765 
L 334.507847 195.144312 
L 334.966512 198.798129 
L 335.423294 199.041025 
L 335.878206 199.122202 
L 336.331266 201.298642 
L 336.782489 199.922057 
L 337.231887 197.565148 
L 337.679478 198.213656 
L 338.125274 197.63802 
L 338.569291 199.355707 
L 339.011543 201.574797 
L 339.452042 199.229324 
L 339.890805 197.793016 
L 340.327843 197.271061 
L 340.76317 195.260203 
L 341.196801 192.596624 
L 341.628747 194.575792 
L 342.059023 195.083968 
L 342.48764 196.003867 
L 342.914612 198.40718 
L 343.339952 198.117101 
L 343.76367 199.116648 
L 344.185781 200.92867 
L 344.606296 198.859151 
L 345.025227 199.586905 
L 345.442586 198.860847 
L 345.858385 200.492972 
L 346.272636 201.400376 
L 346.685349 200.809359 
L 347.096536 200.597861 
L 347.506209 200.014967 
L 347.914379 203.058512 
L 348.321056 200.251233 
L 348.726251 196.560332 
L 349.129976 196.77569 
L 349.933056 195.622821 
L 350.332432 195.898653 
L 350.730379 195.891775 
L 351.126907 195.261473 
L 351.522027 191.389768 
L 351.915748 189.06055 
L 352.30808 184.837328 
L 352.699034 183.918733 
L 353.088617 186.907743 
L 353.476841 187.05601 
L 353.863715 188.820968 
L 354.249248 194.2122 
L 354.633449 197.811995 
L 355.016327 197.589472 
L 355.397892 202.945311 
L 355.778153 205.100549 
L 356.157118 205.647743 
L 356.534795 200.168229 
L 356.911195 197.277197 
L 358.032812 184.774231 
L 358.404185 184.35267 
L 358.774322 186.112134 
L 359.510922 195.025768 
L 359.8774 197.910339 
L 360.242675 199.590953 
L 360.606754 200.015803 
L 360.969645 201.015698 
L 361.331356 200.362828 
L 361.691895 200.796336 
L 362.051269 202.389105 
L 362.409485 206.618014 
L 363.122475 200.47018 
L 363.477263 202.212797 
L 363.830924 206.320642 
L 364.534889 207.453296 
L 364.885207 205.486344 
L 365.234426 207.315856 
L 365.582552 207.524271 
L 365.929591 206.685032 
L 366.96426 201.011047 
L 367.307021 199.335243 
L 367.64873 201.62379 
L 367.989392 202.943076 
L 368.329014 202.046596 
L 368.667602 200.63874 
L 369.005162 198.370448 
L 369.341702 200.324492 
L 369.677225 200.899426 
L 370.01174 199.604034 
L 370.345252 202.827141 
L 370.677766 207.154659 
L 371.00929 208.541099 
L 371.339828 208.737366 
L 371.669387 209.942369 
L 371.997973 207.79398 
L 372.32559 204.661809 
L 372.652246 205.32479 
L 372.977945 209.859218 
L 373.302692 208.339589 
L 373.626495 208.542384 
L 373.949357 209.058935 
L 374.271286 207.299691 
L 374.592285 206.966908 
L 374.91236 205.975279 
L 375.231517 206.505069 
L 375.54976 207.555182 
L 375.867096 206.8846 
L 376.183529 206.976937 
L 376.499064 207.360887 
L 376.813707 208.272192 
L 377.127461 207.732779 
L 377.440334 205.41305 
L 377.752329 206.159009 
L 378.063451 206.388754 
L 378.373705 205.527566 
L 378.991629 210.564468 
L 379.60614 204.947259 
L 379.912126 203.218353 
L 380.217273 203.435594 
L 380.521586 204.600645 
L 380.825068 201.57461 
L 381.127724 201.539051 
L 381.429559 199.198204 
L 381.730577 201.261004 
L 382.33018 198.550028 
L 382.628773 199.434232 
L 382.926567 196.769782 
L 383.223566 195.300895 
L 383.815196 199.280412 
L 384.109835 199.886876 
L 384.403695 198.351585 
L 384.696781 195.276798 
L 385.280646 199.08881 
L 385.571434 198.25124 
L 385.861463 200.341615 
L 386.150737 200.758416 
L 386.439262 199.876739 
L 386.72704 200.469091 
L 387.014075 202.919143 
L 387.300371 203.077781 
L 387.585932 201.210031 
L 387.870762 203.367525 
L 388.154865 203.210453 
L 388.438244 203.444879 
L 388.720902 205.815594 
L 389.002844 205.567157 
L 389.284073 203.989578 
L 389.564593 204.85771 
L 390.123519 208.08937 
L 390.401933 206.838916 
L 390.679651 203.6443 
L 390.956677 202.818441 
L 391.233016 203.751308 
L 391.508669 204.121335 
L 391.783641 203.579541 
L 392.331554 204.337707 
L 392.604501 202.699006 
L 392.876781 204.17047 
L 393.148395 201.947571 
L 393.419348 202.511199 
L 393.689642 202.386903 
L 393.959281 202.910458 
L 394.496606 200.12209 
L 394.764299 201.021511 
L 395.297758 206.882977 
L 395.563531 205.211376 
L 395.828671 202.13095 
L 396.09318 206.039895 
L 396.357062 208.268597 
L 396.620319 208.551939 
L 396.882955 206.749348 
L 397.144971 210.269978 
L 397.406372 210.804327 
L 397.667161 210.38791 
L 397.927339 210.300774 
L 398.18691 210.987008 
L 398.445876 213.487237 
L 398.704241 212.410525 
L 399.219177 216.27985 
L 399.475754 214.678061 
L 399.731741 215.999083 
L 399.98714 218.226596 
L 400.496184 217.570015 
L 400.749836 214.155181 
L 401.00291 214.03418 
L 401.25541 214.297859 
L 401.507337 213.990285 
L 401.758696 212.247108 
L 402.009488 212.518076 
L 402.509381 215.78366 
L 402.758488 213.724656 
L 403.007038 214.215827 
L 403.255033 215.947328 
L 403.502477 213.533659 
L 403.749372 217.145702 
L 403.99572 216.80499 
L 404.486785 212.851481 
L 404.731507 215.97694 
L 405.219342 210.082143 
L 405.462459 211.948633 
L 405.705046 212.568835 
L 405.947105 215.600656 
L 406.188638 216.003941 
L 406.910107 223.128896 
L 407.149561 222.615737 
L 407.3885 224.155772 
L 407.626927 224.908246 
L 407.864843 222.315141 
L 408.102252 221.072161 
L 408.339156 222.515647 
L 408.575556 221.518975 
L 409.046853 222.507578 
L 409.281755 221.575562 
L 409.516162 221.402713 
L 409.750076 224.205186 
L 409.983499 221.078309 
L 410.216434 222.913099 
L 410.448881 222.958753 
L 410.680844 223.264968 
L 410.912324 222.274001 
L 411.373843 224.853053 
L 411.603887 224.957891 
L 411.833456 222.273258 
L 412.062552 220.997298 
L 412.291177 218.543893 
L 412.519333 218.178126 
L 412.747022 216.953659 
L 412.974246 216.744369 
L 413.427306 217.729934 
L 413.878528 214.411915 
L 414.103455 213.979846 
L 414.327927 216.944576 
L 414.551947 217.092441 
L 414.775517 216.710824 
L 414.998639 219.012635 
L 415.221314 218.202552 
L 415.665331 222.707136 
L 415.886676 221.584363 
L 416.107582 221.515754 
L 416.32805 225.090869 
L 416.548082 225.236774 
L 416.76768 225.627653 
L 416.986844 222.938927 
L 417.205578 223.861399 
L 417.423882 223.659657 
L 417.641759 222.76625 
L 417.85921 221.272908 
L 418.292841 223.84009 
L 418.509023 223.212247 
L 418.724787 223.857479 
L 418.940133 222.727483 
L 419.155063 225.049174 
L 419.369578 225.39067 
L 419.58368 224.739026 
L 419.797371 225.354553 
L 420.010652 223.951601 
L 420.435991 225.147308 
L 420.648052 224.918179 
L 421.070966 226.541804 
L 421.492277 224.637498 
L 421.702336 224.499579 
L 421.911999 223.343862 
L 422.121267 222.83703 
L 422.330142 225.551961 
L 422.538626 225.596262 
L 422.74672 223.98175 
L 422.954425 224.139005 
L 423.161743 227.27848 
L 423.368675 226.259292 
L 423.575223 224.122653 
L 423.781388 224.925531 
L 423.987172 224.700847 
L 424.397601 224.70593 
L 424.602249 220.960664 
L 424.806521 220.784741 
L 425.010418 222.994035 
L 425.213943 222.146444 
L 425.822291 223.658637 
L 426.024337 226.174896 
L 426.226016 225.52447 
L 426.42733 223.871945 
L 426.628281 224.964412 
L 426.828869 226.684633 
L 427.029096 226.166623 
L 427.228963 228.951117 
L 427.428472 227.63297 
L 427.627623 227.072671 
L 427.826419 229.010561 
L 428.02486 229.430581 
L 428.222947 229.151662 
L 428.618067 227.275645 
L 429.011788 230.470627 
L 429.208127 230.667871 
L 429.40412 228.1308 
L 429.599768 227.551883 
L 429.990036 229.277717 
L 430.184657 225.672832 
L 430.378938 226.642753 
L 430.572881 226.624898 
L 430.766486 226.206986 
L 430.959755 224.108353 
L 431.152688 224.648858 
L 431.345287 226.966708 
L 431.537554 227.36821 
L 431.729488 228.568331 
L 431.921092 226.722844 
L 432.303313 228.603814 
L 432.493932 228.212821 
L 432.684225 228.883311 
L 432.874192 226.337468 
L 433.063836 226.034898 
L 433.442156 228.762461 
L 434.007235 227.437941 
L 434.194958 227.203273 
L 434.382366 227.712502 
L 434.569457 226.73695 
L 434.9427 229.193595 
L 435.128852 228.610517 
L 435.314693 227.468111 
L 435.500225 228.038412 
L 435.685447 225.523959 
L 436.05497 227.021915 
L 436.239271 228.688546 
L 436.423268 228.918741 
L 436.606961 226.866514 
L 436.790351 226.83965 
L 437.156227 224.390633 
L 437.338714 226.35161 
L 437.520903 225.208486 
L 437.702793 224.867302 
L 437.884387 225.587655 
L 438.065685 225.236665 
L 438.246687 226.930563 
L 438.427396 230.051508 
L 438.607811 228.153288 
L 438.787934 228.587806 
L 438.967766 228.154227 
L 439.147308 227.314117 
L 439.326561 224.657399 
L 439.505525 224.166108 
L 439.862591 228.097323 
L 440.040695 227.585329 
L 440.218515 229.805234 
L 440.39605 229.453765 
L 440.573303 228.257851 
L 440.750274 225.44534 
L 440.926963 227.955704 
L 441.103373 228.815378 
L 441.279503 227.326833 
L 441.630928 228.632374 
L 441.981247 227.684694 
L 442.155993 230.856855 
L 442.330466 230.252646 
L 442.678591 228.134772 
L 442.852246 229.248948 
L 443.198745 227.862255 
L 443.544168 228.652329 
L 444.060299 227.803678 
L 444.231812 229.232488 
L 444.403061 229.445401 
L 444.574047 229.431439 
L 444.74477 228.542819 
L 444.915231 230.055543 
L 445.085432 229.012947 
L 445.255372 228.913215 
L 445.425054 230.948879 
L 445.763642 227.113103 
L 445.93255 226.008382 
L 446.101202 226.545166 
L 446.269599 229.387859 
L 446.437741 227.653128 
L 446.60563 227.798495 
L 446.940648 231.760691 
L 447.274661 231.37835 
L 447.441291 231.556071 
L 447.773806 229.556958 
L 448.270722 233.760627 
L 448.435868 232.320773 
L 448.765427 233.090267 
L 449.094012 229.001338 
L 449.257942 231.079377 
L 449.585078 229.847963 
L 449.748285 230.063966 
L 449.911254 231.481389 
L 450.073984 233.94551 
L 450.236477 233.547467 
L 450.398732 233.858119 
L 450.560751 234.500795 
L 450.722535 231.720145 
L 450.884083 233.495089 
L 451.045397 231.707767 
L 451.206478 231.928949 
L 451.52794 234.074817 
L 452.008399 232.318171 
L 452.168092 233.245998 
L 452.327556 233.476799 
L 452.486792 232.035743 
L 452.804581 235.543812 
L 452.963135 234.755993 
L 453.279568 235.62909 
L 453.437448 232.87842 
L 453.595104 233.426678 
L 453.909746 236.687768 
L 454.066734 234.799204 
L 454.380047 236.146101 
L 454.536374 234.420858 
L 454.69248 234.794243 
L 454.848368 234.30282 
L 455.004038 235.569256 
L 455.15949 235.676029 
L 455.314726 235.370777 
L 455.469745 236.435475 
L 455.624548 235.577525 
L 455.779136 236.347281 
L 455.933509 238.935201 
L 456.241615 234.790108 
L 456.395348 236.990043 
L 456.54887 236.426152 
L 456.702179 232.744237 
L 456.855278 232.802615 
L 457.008166 233.679929 
L 457.313313 237.230969 
L 457.617625 235.167977 
L 457.921107 237.165141 
L 458.072538 236.334279 
L 458.374783 237.351748 
L 458.525598 237.065205 
L 458.676209 238.318949 
L 458.826616 237.021728 
L 458.97682 236.758232 
L 459.276621 234.286284 
L 459.575616 237.714764 
L 460.022607 236.168465 
L 460.319606 240.080247 
L 460.467809 239.138976 
L 460.615814 237.247872 
L 460.911236 238.273198 
L 461.058652 237.309051 
L 461.205874 238.627629 
L 461.352902 236.629057 
L 461.499735 237.050673 
L 461.646374 235.616376 
L 461.792821 235.282786 
L 461.939075 237.545768 
L 462.085136 236.383493 
L 462.231007 236.646329 
L 462.522175 235.93156 
L 462.667473 234.016154 
L 462.812582 234.937368 
L 463.102234 238.818652 
L 463.246777 237.32624 
L 463.391133 238.398616 
L 463.535301 238.576654 
L 463.679283 237.499949 
L 463.823079 235.285861 
L 463.966689 238.194754 
L 464.110114 238.516953 
L 464.396411 235.914116 
L 464.681972 238.901511 
L 464.966802 235.940965 
L 465.108944 235.457078 
L 465.250905 235.761498 
L 465.392684 234.179294 
L 465.534283 235.360797 
L 465.675702 234.428421 
L 466.380113 239.457084 
L 466.520461 238.314338 
L 466.660633 235.627359 
L 466.800628 238.11915 
L 467.080091 235.84126 
L 467.219559 236.056287 
L 467.358853 237.557899 
L 467.497972 236.177932 
L 467.775691 239.962995 
L 467.91429 239.12761 
L 468.052717 239.314884 
L 468.190972 240.14461 
L 468.329055 239.102105 
L 468.466967 239.106795 
L 468.604709 237.795161 
L 468.74228 240.637284 
L 468.879681 239.43061 
L 469.153974 240.469491 
L 469.290868 240.038062 
L 469.427593 238.277492 
L 469.700541 241.290241 
L 469.836764 241.86234 
L 470.10871 241.105098 
L 470.379994 238.504599 
L 470.515388 239.232557 
L 470.650617 238.743036 
L 470.785682 240.171359 
L 471.055321 237.129123 
L 471.189896 236.820734 
L 471.324308 237.162249 
L 471.458558 239.75379 
L 471.592646 239.821218 
L 471.726573 239.42617 
L 471.860338 237.422885 
L 471.993943 238.012282 
L 472.127388 239.609553 
L 472.260673 239.50407 
L 472.393798 238.915986 
L 472.526764 241.869222 
L 472.79222 239.8745 
L 472.924711 240.997043 
L 473.057044 239.266646 
L 473.18922 239.877343 
L 473.321239 239.945087 
L 473.453102 239.756476 
L 473.584808 240.544817 
L 473.716359 240.45158 
L 473.978994 238.801285 
L 474.11008 238.696036 
L 474.241011 238.201162 
L 474.502412 238.491432 
L 474.7632 240.85253 
L 474.893365 240.65242 
L 475.023378 239.08806 
L 475.153239 239.655351 
L 475.282949 241.538813 
L 475.541916 238.179513 
L 475.671173 238.266797 
L 475.929238 237.931365 
L 476.186706 240.707791 
L 476.315217 240.844097 
L 476.44358 239.914388 
L 476.699861 236.637919 
L 476.827781 236.688393 
L 477.083179 241.650988 
L 477.465181 237.282491 
L 477.592224 238.139759 
L 477.719122 240.323669 
L 477.972484 238.905855 
L 478.09895 238.10313 
L 478.225271 238.503957 
L 478.351449 237.910287 
L 478.603377 239.626891 
L 478.854735 236.313252 
L 479.105527 239.259634 
L 479.230711 239.150999 
L 479.355755 240.089943 
L 479.480658 240.061842 
L 479.605421 240.247058 
L 479.730044 239.26901 
L 479.854527 241.100247 
L 479.978872 238.518512 
L 480.103077 238.85565 
L 480.227144 239.709654 
L 480.351073 239.632576 
L 480.474864 240.913602 
L 480.722033 238.246034 
L 480.845412 236.403409 
L 480.968654 239.990369 
L 481.09176 240.043041 
L 481.21473 239.962182 
L 481.460262 237.245457 
L 481.705253 241.97517 
L 481.949706 239.736811 
L 482.071732 239.904294 
L 482.193623 239.190728 
L 482.315381 240.263538 
L 482.437006 242.637532 
L 482.558499 240.572288 
L 482.801086 242.498089 
L 482.922181 240.597516 
L 483.163977 242.84527 
L 483.284678 243.070759 
L 483.525688 240.906006 
L 483.886227 244.920978 
L 484.125938 239.588823 
L 484.2456 238.551859 
L 484.484539 241.708532 
L 484.603817 240.014116 
L 484.722966 239.961792 
L 484.841988 239.719495 
L 485.079651 242.63015 
L 485.316807 237.077298 
L 485.435195 237.993785 
L 485.553458 240.138723 
L 485.671595 238.140227 
L 485.789607 239.403471 
L 485.907494 238.379804 
L 486.142893 240.934119 
L 486.260406 239.508943 
L 486.49506 240.975278 
L 486.72922 240.150901 
L 486.962889 240.530609 
L 487.079539 240.063805 
L 487.196067 241.084577 
L 487.428758 239.754773 
L 487.660962 242.70834 
L 487.892684 239.262883 
L 488.123923 242.736617 
L 488.239363 240.903013 
L 488.354682 242.204407 
L 488.469883 242.124544 
L 488.584964 243.647272 
L 488.81477 239.35893 
L 488.929496 239.079274 
L 489.044102 240.4864 
L 489.158592 239.001021 
L 489.272963 242.189842 
L 489.387217 241.844109 
L 489.501353 243.05215 
L 489.615373 242.853417 
L 489.729276 238.223905 
L 489.956732 241.999898 
L 490.070286 243.05012 
L 490.183724 241.667744 
L 490.410254 245.4491 
L 490.523346 242.529011 
L 490.636323 242.683113 
L 490.749186 243.255944 
L 490.974568 241.141743 
L 491.087088 239.505426 
L 491.199494 240.943657 
L 491.311787 240.218922 
L 491.423967 240.336769 
L 491.536033 241.011426 
L 491.647987 238.977149 
L 491.759828 239.900888 
L 491.983174 244.20162 
L 492.094679 242.845936 
L 492.206072 243.266476 
L 492.428524 240.71487 
L 492.650532 242.440818 
L 492.76137 242.640085 
L 492.872098 239.750758 
L 493.203622 242.049968 
L 493.31391 241.194146 
L 493.42409 241.228387 
L 493.53416 240.66566 
L 493.753975 241.864432 
L 493.863719 241.195644 
L 493.973355 242.093776 
L 494.082884 241.583294 
L 494.192305 242.015337 
L 494.301618 241.478225 
L 494.737799 243.484045 
L 494.846577 243.100605 
L 494.95525 241.703673 
L 495.063816 242.670243 
L 495.280631 241.120532 
L 495.38888 244.73636 
L 495.605063 239.198402 
L 495.712997 240.326425 
L 495.820827 243.767143 
L 496.036172 242.734768 
L 496.143689 242.876598 
L 496.358411 240.979477 
L 496.57272 242.851039 
L 496.679719 241.958371 
L 496.786616 242.524317 
L 497.000102 241.162939 
L 497.213179 242.290554 
L 497.319564 240.900047 
L 497.425848 241.467885 
L 497.638112 241.379415 
L 497.744092 242.014697 
L 497.849971 240.411195 
L 497.95575 240.602318 
L 498.272483 242.651718 
L 498.37786 242.987747 
L 498.588317 241.755184 
L 498.693396 241.815819 
L 498.798375 243.966765 
L 499.008038 241.778101 
L 499.217307 243.419896 
L 499.321793 242.523051 
L 499.426182 240.196727 
L 499.530473 240.229093 
L 499.738761 242.2688 
L 499.842759 241.309471 
L 499.94666 242.521431 
L 500.050465 241.787712 
L 500.154172 242.318821 
L 500.257783 241.638919 
L 500.361297 241.890889 
L 500.464715 241.029211 
L 500.568037 243.936099 
L 500.774393 242.511557 
L 500.980367 243.3643 
L 501.083212 243.168735 
L 501.185961 245.138495 
L 501.493641 243.482994 
L 501.596012 243.267854 
L 501.698288 244.51592 
L 501.800471 242.800444 
L 501.90256 243.368667 
L 502.004556 241.222823 
L 502.106458 241.341719 
L 502.309982 242.143364 
L 502.513135 244.32322 
L 502.614572 243.436667 
L 502.81717 243.955851 
L 502.918331 246.037566 
L 503.019399 245.389247 
L 503.221262 241.346155 
L 503.322056 243.724799 
L 503.52337 241.185582 
L 503.62389 244.247081 
L 503.72432 243.52062 
L 503.82466 245.528663 
L 504.025067 240.649147 
L 504.125135 240.792682 
L 504.325003 242.564817 
L 504.424802 242.686651 
L 504.524511 241.59148 
L 504.624132 244.265554 
L 504.922458 242.480643 
L 505.021723 243.942215 
L 505.120899 243.932347 
L 505.318987 240.812748 
L 505.516722 246.064378 
L 505.714106 243.363972 
L 505.812667 244.296794 
L 506.009528 242.688839 
L 506.20604 244.349122 
L 506.304166 243.874268 
L 506.402206 244.130212 
L 506.50016 243.371888 
L 506.598027 244.638793 
L 506.695808 243.978621 
L 506.891113 241.005948 
L 507.086075 244.254613 
L 507.474978 240.498438 
L 507.571992 242.842067 
L 507.765765 241.837563 
L 507.959202 243.809909 
L 508.055794 243.894804 
L 508.345069 240.128603 
L 508.537502 243.367514 
L 508.633593 242.728796 
L 508.729602 241.210626 
L 508.921371 244.19777 
L 509.017132 242.892749 
L 509.11281 243.641476 
L 509.208406 245.402284 
L 509.399353 242.585576 
L 509.494703 242.716697 
L 509.685158 246.179711 
L 509.780264 244.417688 
L 509.875289 245.215196 
L 509.970232 244.849472 
L 510.065094 245.426357 
L 510.254576 243.280023 
L 510.349197 243.714161 
L 510.538196 246.098754 
L 510.632575 242.468761 
L 510.726875 243.071635 
L 510.821094 242.576379 
L 511.009294 245.216245 
L 511.103275 245.092044 
L 511.197176 244.615303 
L 511.290998 245.732015 
L 511.384741 243.836689 
L 511.478405 244.780735 
L 511.57199 244.317344 
L 511.758925 241.926793 
L 511.852275 244.143225 
L 512.038739 242.293755 
L 512.131854 244.585997 
L 512.224892 243.677644 
L 512.410733 245.482325 
L 512.503538 245.036691 
L 512.596265 245.33989 
L 512.781487 242.792892 
L 512.966402 244.572371 
L 513.058744 244.527333 
L 513.335311 245.873951 
L 513.427347 244.483522 
L 513.519308 241.023365 
L 513.794734 244.373961 
L 513.886391 245.195177 
L 514.16091 243.249884 
L 514.434754 246.238313 
L 514.616942 244.617357 
L 514.707925 247.344439 
L 515.161724 243.000176 
L 515.252262 247.609599 
L 515.523435 243.581477 
L 515.61368 245.368564 
L 515.793949 243.00245 
L 515.883974 245.472776 
L 515.973926 245.105345 
L 516.153613 244.427329 
L 516.243348 243.583395 
L 516.33301 243.607018 
L 516.4226 243.81817 
L 516.512118 244.775575 
L 516.869471 242.719948 
L 517.047718 245.09998 
L 517.136735 245.197822 
L 517.22568 245.069841 
L 517.314554 246.222797 
L 517.403357 245.231188 
L 517.49209 246.378431 
L 517.580752 245.999926 
L 517.669343 246.0781 
L 517.757863 243.989178 
L 517.846313 244.538431 
L 517.934693 244.078847 
L 518.111243 245.738719 
L 518.287512 242.154688 
L 518.375542 242.872059 
L 518.463503 241.798737 
L 518.639215 244.957402 
L 518.726968 244.739873 
L 518.814651 245.301358 
L 518.902265 244.85656 
L 518.98981 245.734422 
L 519.164694 243.207966 
L 519.252033 242.852422 
L 519.426505 245.752011 
L 519.513639 245.016674 
L 519.600704 244.726857 
L 519.687702 244.767421 
L 519.948286 246.207622 
L 520.035012 243.296701 
L 520.12167 243.453594 
L 520.294785 246.533101 
L 520.381241 246.315777 
L 520.553953 243.914407 
L 520.726396 246.942991 
L 520.812518 246.216823 
L 520.984561 243.36329 
L 521.070483 245.080688 
L 521.242128 243.312657 
L 521.413509 244.826111 
L 521.499101 243.587048 
L 521.584626 245.360093 
L 521.670086 245.238527 
L 521.755481 246.416148 
L 521.926073 245.154346 
L 522.011271 244.102185 
L 522.096404 245.946576 
L 522.181471 245.787381 
L 522.351412 243.712385 
L 522.521093 245.760141 
L 522.605837 246.662761 
L 522.690516 246.475675 
L 522.859681 245.350474 
L 523.02859 244.716599 
L 523.112948 246.063192 
L 523.197242 244.298365 
L 523.365638 245.973837 
L 523.533781 245.445968 
L 523.701669 242.244167 
L 523.785518 242.081312 
L 523.953028 248.849052 
L 524.036688 244.80486 
L 524.120285 245.222623 
L 524.203819 245.063917 
L 524.287291 246.202298 
L 524.454047 242.97187 
L 524.869846 245.826877 
L 525.035731 244.858848 
L 525.201369 246.421049 
L 525.284096 245.55172 
L 525.366761 245.888608 
L 525.449365 245.385394 
L 525.614389 247.354493 
L 525.696809 247.203867 
L 525.861467 242.829278 
L 526.107997 244.188334 
L 526.190052 244.181904 
L 526.353981 246.026874 
L 526.435856 245.33855 
L 526.51767 242.83929 
L 526.681117 246.212198 
L 526.762751 245.245387 
L 526.844325 245.405921 
L 526.925839 243.368616 
L 527.007294 244.919237 
L 527.088688 244.325409 
L 527.170024 246.478064 
L 527.413674 243.565459 
L 527.575811 244.26179 
L 527.656791 245.592265 
L 527.818574 243.948937 
L 527.899378 244.421334 
L 527.980123 242.087189 
L 528.060809 242.488078 
L 528.222006 245.247312 
L 528.38297 244.215868 
L 528.543701 242.943573 
L 528.62398 243.936342 
L 529.024507 240.783604 
L 529.184314 244.395081 
L 529.264132 243.349994 
L 529.423596 244.676857 
L 529.582831 241.250583 
L 529.741839 243.850201 
L 529.90062 243.034592 
L 529.979926 241.551244 
L 530.059175 244.924326 
L 530.138368 242.654055 
L 530.296584 244.170084 
L 530.375608 243.78973 
L 530.454576 241.764422 
L 530.769887 244.884056 
L 530.848576 243.612198 
L 530.927208 244.134241 
L 531.005786 243.556142 
L 531.084307 244.112384 
L 531.241185 241.61758 
L 531.397841 244.650416 
L 531.554278 243.047184 
L 531.632413 243.561022 
L 531.78852 244.91882 
L 531.944408 241.543601 
L 532.25553 246.674651 
L 532.333175 246.474897 
L 532.410765 245.843165 
L 532.565784 242.830921 
L 532.643213 243.343986 
L 532.797908 242.968181 
L 532.875176 243.018738 
L 533.029549 244.954192 
L 533.106655 244.789115 
L 533.260708 243.24644 
L 533.414548 245.460973 
L 533.568175 242.202866 
L 533.644909 242.999653 
L 533.72159 242.538481 
L 533.798219 242.908843 
L 533.874794 244.318917 
L 533.951317 244.16392 
L 534.180571 242.670906 
L 534.409353 243.56424 
L 534.485509 245.436067 
L 534.637665 242.560086 
L 534.713665 242.689065 
L 534.789613 242.495771 
L 534.865509 244.953377 
L 535.017147 242.078213 
L 535.092888 245.198954 
L 535.168578 244.745996 
L 535.244216 243.219831 
L 535.319803 244.217439 
L 535.470823 242.779913 
L 535.546256 243.132244 
L 535.621638 242.762992 
L 535.696969 243.429327 
L 535.772249 242.300783 
L 535.922656 244.929567 
L 535.997783 244.255305 
L 536.147886 242.259066 
L 536.222861 242.078407 
L 536.297786 242.526658 
L 536.372661 241.832264 
L 536.447485 241.895371 
L 536.596982 244.390838 
L 536.746279 241.619696 
L 536.820852 242.791639 
L 536.895376 244.307463 
L 537.118647 240.625372 
L 537.192971 244.32558 
L 537.267245 244.166254 
L 537.34147 244.299141 
L 537.711854 241.61114 
L 537.859663 244.574572 
L 537.933493 244.143663 
L 538.007275 244.042684 
L 538.081008 244.565162 
L 538.228327 240.161471 
L 538.375452 246.149318 
L 538.522382 243.1642 
L 538.595774 242.78401 
L 538.669118 244.040565 
L 538.742414 243.492006 
L 538.815661 244.403506 
L 539.035114 241.287683 
L 539.181176 246.509401 
L 539.327046 240.826197 
L 539.39991 241.856632 
L 539.618214 246.151809 
L 539.690887 245.438512 
L 539.836091 243.041781 
L 539.908622 245.642129 
L 539.981105 243.369261 
L 540.053542 244.29382 
L 540.198273 245.876021 
L 540.270568 245.548797 
L 540.342817 245.143504 
L 540.415018 246.206132 
L 540.55928 243.905003 
L 540.631341 244.586075 
L 540.775323 242.698371 
L 540.919119 244.042652 
L 540.990947 243.990735 
L 541.134465 246.506613 
L 541.277797 242.534273 
L 541.349394 243.142291 
L 541.563909 247.543641 
L 541.70669 244.430856 
L 541.778012 244.740244 
L 541.920518 247.147711 
L 541.991703 245.03243 
L 542.062842 247.22571 
L 542.133935 245.533251 
L 542.204984 239.119631 
L 542.346944 245.62981 
L 542.488724 244.761234 
L 542.559546 231.812895 
L 542.630323 232.763312 
L 542.771742 245.631227 
L 542.842384 246.769529 
L 542.983534 241.402704 
L 543.124505 247.907704 
L 543.265297 245.808926 
L 543.335627 247.910986 
L 543.405912 245.491661 
L 543.476153 246.116461 
L 543.546349 247.912226 
L 543.686609 244.714287 
L 543.756673 244.691229 
L 543.826692 245.194671 
L 543.896668 246.725719 
L 543.966599 245.575157 
L 544.036487 247.245058 
L 544.10633 246.853839 
L 544.315599 243.908219 
L 544.385267 244.249278 
L 544.454892 244.242752 
L 544.663507 247.42169 
L 544.732958 245.099881 
L 544.802366 245.639072 
L 544.87173 246.387386 
L 544.941052 246.357378 
L 545.079565 245.605351 
L 545.148757 245.122211 
L 545.217906 245.920904 
L 545.287012 245.811591 
L 545.356075 246.194477 
L 545.425095 244.801509 
L 545.494072 246.207545 
L 545.563007 245.416188 
L 545.631899 244.328291 
L 545.700748 245.743803 
L 545.838319 242.251123 
L 546.181504 247.977414 
L 546.455291 245.516622 
L 546.591933 246.893993 
L 546.66019 244.171537 
L 546.728406 244.546499 
L 546.796581 248.150498 
L 546.864713 247.66444 
L 546.932804 245.031913 
L 547.000853 245.351841 
L 547.136826 246.406333 
L 547.272633 244.426922 
L 547.543751 248.051869 
L 547.611427 247.315268 
L 547.679062 247.829838 
L 547.746656 246.048519 
L 547.81421 246.796969 
L 547.881722 246.552126 
L 547.949193 247.752503 
L 548.016623 247.268129 
L 548.084012 247.852749 
L 548.218668 245.290835 
L 548.420348 247.91232 
L 548.487493 247.709317 
L 548.688686 246.817756 
L 548.755669 247.494428 
L 548.889515 245.690865 
L 548.956378 246.768046 
L 549.0232 245.70546 
L 549.156725 247.090559 
L 549.29009 244.348281 
L 549.356712 245.228966 
L 549.55634 246.03331 
L 549.622803 247.755809 
L 549.689227 247.242181 
L 549.755611 244.968045 
L 549.821955 245.07182 
L 549.954525 247.004199 
L 550.086937 245.449089 
L 550.153084 247.439665 
L 550.219191 247.269196 
L 550.28526 247.170369 
L 550.351289 247.518425 
L 550.48323 249.687151 
L 550.549141 249.622077 
L 550.680848 245.321661 
L 550.812398 247.558101 
L 550.878115 247.496898 
L 550.943794 246.13099 
L 551.009433 246.87233 
L 551.075034 246.463456 
L 551.140596 244.293625 
L 551.271604 247.459413 
L 551.402459 244.026319 
L 551.663706 248.383503 
L 551.728922 247.621463 
L 551.85924 250.542715 
L 551.989405 248.881221 
L 552.05443 246.25674 
L 552.119418 247.217245 
L 552.184367 247.415483 
L 552.249279 246.651888 
L 552.314153 247.450282 
L 552.443787 245.609318 
L 552.57327 249.184491 
L 552.702603 246.351562 
L 552.831785 247.840166 
L 553.025278 243.73606 
L 553.218435 251.537622 
L 553.34702 247.360597 
L 553.411257 248.224856 
L 553.539619 247.057129 
L 553.603745 247.548822 
L 553.667834 245.896413 
L 553.731886 246.377962 
L 553.795901 248.535929 
L 553.859879 248.338036 
L 553.987725 246.144316 
L 554.051593 247.061003 
L 554.115424 246.535385 
L 554.242977 248.127305 
L 554.370384 245.904444 
L 554.434032 246.277138 
L 554.561221 248.835312 
L 554.62476 248.103082 
L 554.688264 246.519412 
L 554.751731 247.56634 
L 554.815162 248.522344 
L 554.878556 248.298257 
L 554.941915 246.891962 
L 555.005237 248.894862 
L 555.068524 248.465426 
L 555.131775 248.422603 
L 555.194989 247.175822 
L 555.258168 247.258591 
L 555.321311 248.234586 
L 555.384418 248.095235 
L 555.447489 246.206442 
L 555.510524 247.238737 
L 555.573524 247.208866 
L 555.636488 249.999103 
L 555.699417 249.402767 
L 555.76231 248.500803 
L 555.825167 249.141158 
L 555.887989 249.309237 
L 556.013526 246.230803 
L 556.201567 249.321583 
L 556.264176 247.98451 
L 556.326751 249.71014 
L 556.38929 248.389362 
L 556.451794 248.484308 
L 556.514263 249.845737 
L 556.639096 246.663751 
L 556.70146 247.927495 
L 556.763789 246.902861 
L 557.012756 250.658861 
L 557.199117 246.95048 
L 557.261168 249.455738 
L 557.323184 247.986082 
L 557.447113 251.538722 
L 557.570903 246.18964 
L 557.632747 247.605888 
L 557.694557 250.010563 
L 557.756332 248.167636 
L 557.818073 248.042674 
L 558.00309 248.603634 
L 558.064694 247.207064 
L 558.187799 249.514041 
L 558.310769 247.525083 
L 558.372203 247.762268 
L 558.433603 250.322018 
L 558.494969 249.631378 
L 558.6176 250.031062 
L 558.678865 246.62202 
L 558.740096 248.972154 
L 558.923587 247.008756 
L 558.984683 247.973775 
L 559.045746 246.124211 
L 559.228734 249.980822 
L 559.289663 247.363682 
L 559.350559 250.333845 
L 559.411421 249.607826 
L 559.533046 248.311686 
L 559.593809 250.047421 
L 559.654538 249.419875 
L 559.715235 250.02507 
L 559.775898 247.911361 
L 559.836528 249.373762 
L 559.897125 251.550777 
L 560.018221 248.971148 
L 560.078719 249.146837 
L 560.139184 250.350716 
L 560.199617 249.494478 
L 560.320383 247.293881 
L 560.380718 247.667038 
L 560.501288 250.767796 
L 560.681899 248.111046 
L 560.742037 250.373016 
L 560.802143 249.945663 
L 560.862216 248.583306 
L 560.922258 249.311039 
L 560.982266 250.638481 
L 561.042243 250.324762 
L 561.102186 248.715954 
L 561.162098 251.213203 
L 561.162098 251.213203 
" clip-path="url(#p6da7b46af2)" style="fill: none; stroke: #2ca02c; stroke-linecap: square"/>
   </g>
   <g id="patch_3">
    <path d="M 48.982813 294.590247 
L 48.982813 22.318125 
" style="fill: none; stroke: #000000; stroke-width: 0.8; stroke-linejoin: miter; stroke-linecap: square"/>
   </g>
   <g id="patch_4">
    <path d="M 561.197812 294.590247 
L 561.197812 22.318125 
" style="fill: none; stroke: #000000; stroke-width: 0.8; stroke-linejoin: miter; stroke-linecap: square"/>
   </g>
   <g id="patch_5">
    <path d="M 48.982813 294.590247 
L 561.197812 294.590247 
" style="fill: none; stroke: #000000; stroke-width: 0.8; stroke-linejoin: miter; stroke-linecap: square"/>
   </g>
   <g id="patch_6">
    <path d="M 48.982813 22.318125 
L 561.197812 22.318125 
" style="fill: none; stroke: #000000; stroke-width: 0.8; stroke-linejoin: miter; stroke-linecap: square"/>
   </g>
   <g id="text_14">
    <!-- Toyota Tundra Blower Setting Off - Narrow Band SPL (dBA) -->
    <g transform="translate(130.606562 16.318125) scale(0.12 -0.12)">
     <defs>
      <path id="DejaVuSans-54" d="M -19 4666 
L 3928 4666 
L 3928 4134 
L 2272 4134 
L 2272 0 
L 1638 0 
L 1638 4134 
L -19 4134 
L -19 4666 
z
" transform="scale(0.015625)"/>
      <path id="DejaVuSans-6f" d="M 1959 3097 
Q 1497 3097 1228 2736 
Q 959 2375 959 1747 
Q 959 1119 1226 758 
Q 1494 397 1959 397 
Q 2419 397 2687 759 
Q 2956 1122 2956 1747 
Q 2956 2369 2687 2733 
Q 2419 3097 1959 3097 
z
M 1959 3584 
Q 2709 3584 3137 3096 
Q 3566 2609 3566 1747 
Q 3566 888 3137 398 
Q 2709 -91 1959 -91 
Q 1206 -91 779 398 
Q 353 888 353 1747 
Q 353 2609 779 3096 
Q 1206 3584 1959 3584 
z
" transform="scale(0.015625)"/>
      <path id="DejaVuSans-74" d="M 1172 4494 
L 1172 3500 
L 2356 3500 
L 2356 3053 
L 1172 3053 
L 1172 1153 
Q 1172 725 1289 603 
Q 1406 481 1766 481 
L 2356 481 
L 2356 0 
L 1766 0 
Q 1100 0 847 248 
Q 594 497 594 1153 
L 594 3053 
L 172 3053 
L 172 3500 
L 594 3500 
L 594 4494 
L 1172 4494 
z
" transform="scale(0.015625)"/>
      <path id="DejaVuSans-61" d="M 2194 1759 
Q 1497 1759 1228 1600 
Q 959 1441 959 1056 
Q 959 750 1161 570 
Q 1363 391 1709 391 
Q 2188 391 2477 730 
Q 2766 1069 2766 1631 
L 2766 1759 
L 2194 1759 
z
M 3341 1997 
L 3341 0 
L 2766 0 
L 2766 531 
Q 2569 213 2275 61 
Q 1981 -91 1556 -91 
Q 1019 -91 701 211 
Q 384 513 384 1019 
Q 384 1609 779 1909 
Q 1175 2209 1959 2209 
L 2766 2209 
L 2766 2266 
Q 2766 2663 2505 2880 
Q 2244 3097 1772 3097 
Q 1472 3097 1187 3025 
Q 903 2953 641 2809 
L 641 3341 
Q 956 3463 1253 3523 
Q 1550 3584 1831 3584 
Q 2591 3584 2966 3190 
Q 3341 2797 3341 1997 
z
" transform="scale(0.015625)"/>
      <path id="DejaVuSans-6c" d="M 603 4863 
L 1178 4863 
L 1178 0 
L 603 0 
L 603 4863 
z
" transform="scale(0.015625)"/>
      <path id="DejaVuSans-77" d="M 269 3500 
L 844 3500 
L 1563 769 
L 2278 3500 
L 2956 3500 
L 3675 769 
L 4391 3500 
L 4966 3500 
L 4050 0 
L 3372 0 
L 2619 2869 
L 1863 0 
L 1184 0 
L 269 3500 
z
" transform="scale(0.015625)"/>
      <path id="DejaVuSans-69" d="M 603 3500 
L 1178 3500 
L 1178 0 
L 603 0 
L 603 3500 
z
M 603 4863 
L 1178 4863 
L 1178 4134 
L 603 4134 
L 603 4863 
z
" transform="scale(0.015625)"/>
      <path id="DejaVuSans-67" d="M 2906 1791 
Q 2906 2416 2648 2759 
Q 2391 3103 1925 3103 
Q 1463 3103 1205 2759 
Q 947 2416 947 1791 
Q 947 1169 1205 825 
Q 1463 481 1925 481 
Q 2391 481 2648 825 
Q 2906 1169 2906 1791 
z
M 3481 434 
Q 3481 -459 3084 -895 
Q 2688 -1331 1869 -1331 
Q 1566 -1331 1297 -1286 
Q 1028 -1241 775 -1147 
L 775 -588 
Q 1028 -725 1275 -790 
Q 1522 -856 1778 -856 
Q 2344 -856 2625 -561 
Q 2906 -266 2906 331 
L 2906 616 
Q 2728 306 2450 153 
Q 2172 0 1784 0 
Q 1141 0 747 490 
Q 353 981 353 1791 
Q 353 2603 747 3093 
Q 1141 3584 1784 3584 
Q 2172 3584 2450 3431 
Q 2728 3278 2906 2969 
L 2906 3500 
L 3481 3500 
L 3481 434 
z
" transform="scale(0.015625)"/>
      <path id="DejaVuSans-4f" d="M 2522 4238 
Q 1834 4238 1429 3725 
Q 1025 3213 1025 2328 
Q 1025 1447 1429 934 
Q 1834 422 2522 422 
Q 3209 422 3611 934 
Q 4013 1447 4013 2328 
Q 4013 3213 3611 3725 
Q 3209 4238 2522 4238 
z
M 2522 4750 
Q 3503 4750 4090 4092 
Q 4678 3434 4678 2328 
Q 4678 1225 4090 567 
Q 3503 -91 2522 -91 
Q 1538 -91 948 565 
Q 359 1222 359 2328 
Q 359 3434 948 4092 
Q 1538 4750 2522 4750 
z
" transform="scale(0.015625)"/>
      <path id="DejaVuSans-66" d="M 2375 4863 
L 2375 4384 
L 1825 4384 
Q 1516 4384 1395 4259 
Q 1275 4134 1275 3809 
L 1275 3500 
L 2222 3500 
L 2222 3053 
L 1275 3053 
L 1275 0 
L 697 0 
L 697 3053 
L 147 3053 
L 147 3500 
L 697 3500 
L 697 3744 
Q 697 4328 969 4595 
Q 1241 4863 1831 4863 
L 2375 4863 
z
" transform="scale(0.015625)"/>
      <path id="DejaVuSans-2d" d="M 313 2009 
L 1997 2009 
L 1997 1497 
L 313 1497 
L 313 2009 
z
" transform="scale(0.015625)"/>
      <path id="DejaVuSans-4e" d="M 628 4666 
L 1478 4666 
L 3547 763 
L 3547 4666 
L 4159 4666 
L 4159 0 
L 3309 0 
L 1241 3903 
L 1241 0 
L 628 0 
L 628 4666 
z
" transform="scale(0.015625)"/>
     </defs>
     <use xlink:href="#DejaVuSans-54"/>
     <use xlink:href="#DejaVuSans-6f" transform="translate(44.083984 0)"/>
     <use xlink:href="#DejaVuSans-79" transform="translate(105.265625 0)"/>
     <use xlink:href="#DejaVuSans-6f" transform="translate(164.445312 0)"/>
     <use xlink:href="#DejaVuSans-74" transform="translate(225.626953 0)"/>
     <use xlink:href="#DejaVuSans-61" transform="translate(264.835938 0)"/>
     <use xlink:href="#DejaVuSans-20" transform="translate(326.115234 0)"/>
     <use xlink:href="#DejaVuSans-54" transform="translate(357.902344 0)"/>
     <use xlink:href="#DejaVuSans-75" transform="translate(403.861328 0)"/>
     <use xlink:href="#DejaVuSans-6e" transform="translate(467.240234 0)"/>
     <use xlink:href="#DejaVuSans-64" transform="translate(530.619141 0)"/>
     <use xlink:href="#DejaVuSans-72" transform="translate(594.095703 0)"/>
     <use xlink:href="#DejaVuSans-61" transform="translate(635.208984 0)"/>
     <use xlink:href="#DejaVuSans-20" transform="translate(696.488281 0)"/>
     <use xlink:href="#DejaVuSans-42" transform="translate(728.275391 0)"/>
     <use xlink:href="#DejaVuSans-6c" transform="translate(796.878906 0)"/>
     <use xlink:href="#DejaVuSans-6f" transform="translate(824.662109 0)"/>
     <use xlink:href="#DejaVuSans-77" transform="translate(885.84375 0)"/>
     <use xlink:href="#DejaVuSans-65" transform="translate(967.630859 0)"/>
     <use xlink:href="#DejaVuSans-72" transform="translate(1029.154297 0)"/>
     <use xlink:href="#DejaVuSans-20" transform="translate(1070.267578 0)"/>
     <use xlink:href="#DejaVuSans-53" transform="translate(1102.054688 0)"/>
     <use xlink:href="#DejaVuSans-65" transform="translate(1165.53125 0)"/>
     <use xlink:href="#DejaVuSans-74" transform="translate(1227.054688 0)"/>
     <use xlink:href="#DejaVuSans-74" transform="translate(1266.263672 0)"/>
     <use xlink:href="#DejaVuSans-69" transform="translate(1305.472656 0)"/>
     <use xlink:href="#DejaVuSans-6e" transform="translate(1333.255859 0)"/>
     <use xlink:href="#DejaVuSans-67" transform="translate(1396.634766 0)"/>
     <use xlink:href="#DejaVuSans-20" transform="translate(1460.111328 0)"/>
     <use xlink:href="#DejaVuSans-4f" transform="translate(1491.898438 0)"/>
     <use xlink:href="#DejaVuSans-66" transform="translate(1570.609375 0)"/>
     <use xlink:href="#DejaVuSans-66" transform="translate(1605.814453 0)"/>
     <use xlink:href="#DejaVuSans-20" transform="translate(1641.019531 0)"/>
     <use xlink:href="#DejaVuSans-2d" transform="translate(1672.806641 0)"/>
     <use xlink:href="#DejaVuSans-20" transform="translate(1708.890625 0)"/>
     <use xlink:href="#DejaVuSans-4e" transform="translate(1740.677734 0)"/>
     <use xlink:href="#DejaVuSans-61" transform="translate(1815.482422 0)"/>
     <use xlink:href="#DejaVuSans-72" transform="translate(1876.761719 0)"/>
     <use xlink:href="#DejaVuSans-72" transform="translate(1916.125 0)"/>
     <use xlink:href="#DejaVuSans-6f" transform="translate(1954.988281 0)"/>
     <use xlink:href="#DejaVuSans-77" transform="translate(2016.169922 0)"/>
     <use xlink:href="#DejaVuSans-20" transform="translate(2097.957031 0)"/>
     <use xlink:href="#DejaVuSans-42" transform="translate(2129.744141 0)"/>
     <use xlink:href="#DejaVuSans-61" transform="translate(2198.347656 0)"/>
     <use xlink:href="#DejaVuSans-6e" transform="translate(2259.626953 0)"/>
     <use xlink:href="#DejaVuSans-64" transform="translate(2323.005859 0)"/>
     <use xlink:href="#DejaVuSans-20" transform="translate(2386.482422 0)"/>
     <use xlink:href="#DejaVuSans-53" transform="translate(2418.269531 0)"/>
     <use xlink:href="#DejaVuSans-50" transform="translate(2481.746094 0)"/>
     <use xlink:href="#DejaVuSans-4c" transform="translate(2542.048828 0)"/>
     <use xlink:href="#DejaVuSans-20" transform="translate(2597.761719 0)"/>
     <use xlink:href="#DejaVuSans-28" transform="translate(2629.548828 0)"/>
     <use xlink:href="#DejaVuSans-64" transform="translate(2668.5625 0)"/>
     <use xlink:href="#DejaVuSans-42" transform="translate(2732.039062 0)"/>
     <use xlink:href="#DejaVuSans-41" transform="translate(2800.642578 0)"/>
     <use xlink:href="#DejaVuSans-29" transform="translate(2869.050781 0)"/>
    </g>
   </g>
  </g>
 </g>
 <defs>
  <clipPath id="p6da7b46af2">
   <rect x="48.982813" y="22.318125" width="512.215" height="272.272122"/>
  </clipPath>
 </defs>
</svg>
