<?xml version="1.0" encoding="utf-8" standalone="no"?>
<!DOCTYPE svg PUBLIC "-//W3C//DTD SVG 1.1//EN"
  "http://www.w3.org/Graphics/SVG/1.1/DTD/svg11.dtd">
<svg xmlns:xlink="http://www.w3.org/1999/xlink" width="568.397812pt" height="351.806674pt" viewBox="0 0 568.397812 351.806674" xmlns="http://www.w3.org/2000/svg" version="1.1">
 <metadata>
  <rdf:RDF xmlns:dc="http://purl.org/dc/elements/1.1/" xmlns:cc="http://creativecommons.org/ns#" xmlns:rdf="http://www.w3.org/1999/02/22-rdf-syntax-ns#">
   <cc:Work>
    <dc:type rdf:resource="http://purl.org/dc/dcmitype/StillImage"/>
    <dc:date>2025-04-24T18:27:09.455843</dc:date>
    <dc:format>image/svg+xml</dc:format>
    <dc:creator>
     <cc:Agent>
      <dc:title>Matplotlib v3.10.0, https://matplotlib.org/</dc:title>
     </cc:Agent>
    </dc:creator>
   </cc:Work>
  </rdf:RDF>
 </metadata>
 <defs>
  <style type="text/css">*{stroke-linejoin: round; stroke-linecap: butt}</style>
 </defs>
 <g id="figure_1">
  <g id="patch_1">
   <path d="M 0 351.806674 
L 568.397812 351.806674 
L 568.397812 0 
L 0 0 
z
" style="fill: #ffffff"/>
  </g>
  <g id="axes_1">
   <g id="patch_2">
    <path d="M 48.982813 294.590247 
L 561.197812 294.590247 
L 561.197812 22.318125 
L 48.982813 22.318125 
z
" style="fill: #ffffff"/>
   </g>
   <g id="matplotlib.axis_1">
    <g id="xtick_1">
     <g id="line2d_1">
      <path d="M 48.982813 294.590247 
L 48.982813 22.318125 
" clip-path="url(#pf4aaafbbf0)" style="fill: none; stroke-dasharray: 1.85,0.8; stroke-dashoffset: 0; stroke: #b0b0b0; stroke-width: 0.5"/>
     </g>
     <g id="line2d_2">
      <defs>
       <path id="mea28ec77e5" d="M 0 0 
L 0 3.5 
" style="stroke: #000000; stroke-width: 0.8"/>
      </defs>
      <g>
       <use xlink:href="#mea28ec77e5" x="48.982813" y="294.590247" style="stroke: #000000; stroke-width: 0.8"/>
      </g>
     </g>
     <g id="text_1">
      <!-- 100 -->
      <g transform="translate(34.015351 320.460054) rotate(-45) scale(0.1 -0.1)">
       <defs>
        <path id="DejaVuSans-31" d="M 794 531 
L 1825 531 
L 1825 4091 
L 703 3866 
L 703 4441 
L 1819 4666 
L 2450 4666 
L 2450 531 
L 3481 531 
L 3481 0 
L 794 0 
L 794 531 
z
" transform="scale(0.015625)"/>
        <path id="DejaVuSans-30" d="M 2034 4250 
Q 1547 4250 1301 3770 
Q 1056 3291 1056 2328 
Q 1056 1369 1301 889 
Q 1547 409 2034 409 
Q 2525 409 2770 889 
Q 3016 1369 3016 2328 
Q 3016 3291 2770 3770 
Q 2525 4250 2034 4250 
z
M 2034 4750 
Q 2819 4750 3233 4129 
Q 3647 3509 3647 2328 
Q 3647 1150 3233 529 
Q 2819 -91 2034 -91 
Q 1250 -91 836 529 
Q 422 1150 422 2328 
Q 422 3509 836 4129 
Q 1250 4750 2034 4750 
z
" transform="scale(0.015625)"/>
       </defs>
       <use xlink:href="#DejaVuSans-31"/>
       <use xlink:href="#DejaVuSans-30" transform="translate(63.623047 0)"/>
       <use xlink:href="#DejaVuSans-30" transform="translate(127.246094 0)"/>
      </g>
     </g>
    </g>
    <g id="xtick_2">
     <g id="line2d_3">
      <path d="M 305.090312 294.590247 
L 305.090312 22.318125 
" clip-path="url(#pf4aaafbbf0)" style="fill: none; stroke-dasharray: 1.85,0.8; stroke-dashoffset: 0; stroke: #b0b0b0; stroke-width: 0.5"/>
     </g>
     <g id="line2d_4">
      <g>
       <use xlink:href="#mea28ec77e5" x="305.090312" y="294.590247" style="stroke: #000000; stroke-width: 0.8"/>
      </g>
     </g>
     <g id="text_2">
      <!-- 1000 -->
      <g transform="translate(285.623884 324.959021) rotate(-45) scale(0.1 -0.1)">
       <use xlink:href="#DejaVuSans-31"/>
       <use xlink:href="#DejaVuSans-30" transform="translate(63.623047 0)"/>
       <use xlink:href="#DejaVuSans-30" transform="translate(127.246094 0)"/>
       <use xlink:href="#DejaVuSans-30" transform="translate(190.869141 0)"/>
      </g>
     </g>
    </g>
    <g id="xtick_3">
     <g id="line2d_5">
      <path d="M 561.197812 294.590247 
L 561.197812 22.318125 
" clip-path="url(#pf4aaafbbf0)" style="fill: none; stroke-dasharray: 1.85,0.8; stroke-dashoffset: 0; stroke: #b0b0b0; stroke-width: 0.5"/>
     </g>
     <g id="line2d_6">
      <g>
       <use xlink:href="#mea28ec77e5" x="561.197812" y="294.590247" style="stroke: #000000; stroke-width: 0.8"/>
      </g>
     </g>
     <g id="text_3">
      <!-- 10000 -->
      <g transform="translate(537.232417 329.457988) rotate(-45) scale(0.1 -0.1)">
       <use xlink:href="#DejaVuSans-31"/>
       <use xlink:href="#DejaVuSans-30" transform="translate(63.623047 0)"/>
       <use xlink:href="#DejaVuSans-30" transform="translate(127.246094 0)"/>
       <use xlink:href="#DejaVuSans-30" transform="translate(190.869141 0)"/>
       <use xlink:href="#DejaVuSans-30" transform="translate(254.492188 0)"/>
      </g>
     </g>
    </g>
    <g id="xtick_4">
     <g id="line2d_7">
      <path d="M 126.078852 294.590247 
L 126.078852 22.318125 
" clip-path="url(#pf4aaafbbf0)" style="fill: none; stroke-dasharray: 1.85,0.8; stroke-dashoffset: 0; stroke: #b0b0b0; stroke-width: 0.5"/>
     </g>
     <g id="line2d_8">
      <defs>
       <path id="md2c6d0899a" d="M 0 0 
L 0 2 
" style="stroke: #000000; stroke-width: 0.6"/>
      </defs>
      <g>
       <use xlink:href="#md2c6d0899a" x="126.078852" y="294.590247" style="stroke: #000000; stroke-width: 0.6"/>
      </g>
     </g>
    </g>
    <g id="xtick_5">
     <g id="line2d_9">
      <path d="M 171.177144 294.590247 
L 171.177144 22.318125 
" clip-path="url(#pf4aaafbbf0)" style="fill: none; stroke-dasharray: 1.85,0.8; stroke-dashoffset: 0; stroke: #b0b0b0; stroke-width: 0.5"/>
     </g>
     <g id="line2d_10">
      <g>
       <use xlink:href="#md2c6d0899a" x="171.177144" y="294.590247" style="stroke: #000000; stroke-width: 0.6"/>
      </g>
     </g>
    </g>
    <g id="xtick_6">
     <g id="line2d_11">
      <path d="M 203.174892 294.590247 
L 203.174892 22.318125 
" clip-path="url(#pf4aaafbbf0)" style="fill: none; stroke-dasharray: 1.85,0.8; stroke-dashoffset: 0; stroke: #b0b0b0; stroke-width: 0.5"/>
     </g>
     <g id="line2d_12">
      <g>
       <use xlink:href="#md2c6d0899a" x="203.174892" y="294.590247" style="stroke: #000000; stroke-width: 0.6"/>
      </g>
     </g>
    </g>
    <g id="xtick_7">
     <g id="line2d_13">
      <path d="M 227.994273 294.590247 
L 227.994273 22.318125 
" clip-path="url(#pf4aaafbbf0)" style="fill: none; stroke-dasharray: 1.85,0.8; stroke-dashoffset: 0; stroke: #b0b0b0; stroke-width: 0.5"/>
     </g>
     <g id="line2d_14">
      <g>
       <use xlink:href="#md2c6d0899a" x="227.994273" y="294.590247" style="stroke: #000000; stroke-width: 0.6"/>
      </g>
     </g>
    </g>
    <g id="xtick_8">
     <g id="line2d_15">
      <path d="M 248.273184 294.590247 
L 248.273184 22.318125 
" clip-path="url(#pf4aaafbbf0)" style="fill: none; stroke-dasharray: 1.85,0.8; stroke-dashoffset: 0; stroke: #b0b0b0; stroke-width: 0.5"/>
     </g>
     <g id="line2d_16">
      <g>
       <use xlink:href="#md2c6d0899a" x="248.273184" y="294.590247" style="stroke: #000000; stroke-width: 0.6"/>
      </g>
     </g>
    </g>
    <g id="xtick_9">
     <g id="line2d_17">
      <path d="M 265.418759 294.590247 
L 265.418759 22.318125 
" clip-path="url(#pf4aaafbbf0)" style="fill: none; stroke-dasharray: 1.85,0.8; stroke-dashoffset: 0; stroke: #b0b0b0; stroke-width: 0.5"/>
     </g>
     <g id="line2d_18">
      <g>
       <use xlink:href="#md2c6d0899a" x="265.418759" y="294.590247" style="stroke: #000000; stroke-width: 0.6"/>
      </g>
     </g>
    </g>
    <g id="xtick_10">
     <g id="line2d_19">
      <path d="M 280.270931 294.590247 
L 280.270931 22.318125 
" clip-path="url(#pf4aaafbbf0)" style="fill: none; stroke-dasharray: 1.85,0.8; stroke-dashoffset: 0; stroke: #b0b0b0; stroke-width: 0.5"/>
     </g>
     <g id="line2d_20">
      <g>
       <use xlink:href="#md2c6d0899a" x="280.270931" y="294.590247" style="stroke: #000000; stroke-width: 0.6"/>
      </g>
     </g>
    </g>
    <g id="xtick_11">
     <g id="line2d_21">
      <path d="M 293.371476 294.590247 
L 293.371476 22.318125 
" clip-path="url(#pf4aaafbbf0)" style="fill: none; stroke-dasharray: 1.85,0.8; stroke-dashoffset: 0; stroke: #b0b0b0; stroke-width: 0.5"/>
     </g>
     <g id="line2d_22">
      <g>
       <use xlink:href="#md2c6d0899a" x="293.371476" y="294.590247" style="stroke: #000000; stroke-width: 0.6"/>
      </g>
     </g>
    </g>
    <g id="xtick_12">
     <g id="line2d_23">
      <path d="M 382.186352 294.590247 
L 382.186352 22.318125 
" clip-path="url(#pf4aaafbbf0)" style="fill: none; stroke-dasharray: 1.85,0.8; stroke-dashoffset: 0; stroke: #b0b0b0; stroke-width: 0.5"/>
     </g>
     <g id="line2d_24">
      <g>
       <use xlink:href="#md2c6d0899a" x="382.186352" y="294.590247" style="stroke: #000000; stroke-width: 0.6"/>
      </g>
     </g>
    </g>
    <g id="xtick_13">
     <g id="line2d_25">
      <path d="M 427.284644 294.590247 
L 427.284644 22.318125 
" clip-path="url(#pf4aaafbbf0)" style="fill: none; stroke-dasharray: 1.85,0.8; stroke-dashoffset: 0; stroke: #b0b0b0; stroke-width: 0.5"/>
     </g>
     <g id="line2d_26">
      <g>
       <use xlink:href="#md2c6d0899a" x="427.284644" y="294.590247" style="stroke: #000000; stroke-width: 0.6"/>
      </g>
     </g>
    </g>
    <g id="xtick_14">
     <g id="line2d_27">
      <path d="M 459.282392 294.590247 
L 459.282392 22.318125 
" clip-path="url(#pf4aaafbbf0)" style="fill: none; stroke-dasharray: 1.85,0.8; stroke-dashoffset: 0; stroke: #b0b0b0; stroke-width: 0.5"/>
     </g>
     <g id="line2d_28">
      <g>
       <use xlink:href="#md2c6d0899a" x="459.282392" y="294.590247" style="stroke: #000000; stroke-width: 0.6"/>
      </g>
     </g>
    </g>
    <g id="xtick_15">
     <g id="line2d_29">
      <path d="M 484.101773 294.590247 
L 484.101773 22.318125 
" clip-path="url(#pf4aaafbbf0)" style="fill: none; stroke-dasharray: 1.85,0.8; stroke-dashoffset: 0; stroke: #b0b0b0; stroke-width: 0.5"/>
     </g>
     <g id="line2d_30">
      <g>
       <use xlink:href="#md2c6d0899a" x="484.101773" y="294.590247" style="stroke: #000000; stroke-width: 0.6"/>
      </g>
     </g>
    </g>
    <g id="xtick_16">
     <g id="line2d_31">
      <path d="M 504.380684 294.590247 
L 504.380684 22.318125 
" clip-path="url(#pf4aaafbbf0)" style="fill: none; stroke-dasharray: 1.85,0.8; stroke-dashoffset: 0; stroke: #b0b0b0; stroke-width: 0.5"/>
     </g>
     <g id="line2d_32">
      <g>
       <use xlink:href="#md2c6d0899a" x="504.380684" y="294.590247" style="stroke: #000000; stroke-width: 0.6"/>
      </g>
     </g>
    </g>
    <g id="xtick_17">
     <g id="line2d_33">
      <path d="M 521.526259 294.590247 
L 521.526259 22.318125 
" clip-path="url(#pf4aaafbbf0)" style="fill: none; stroke-dasharray: 1.85,0.8; stroke-dashoffset: 0; stroke: #b0b0b0; stroke-width: 0.5"/>
     </g>
     <g id="line2d_34">
      <g>
       <use xlink:href="#md2c6d0899a" x="521.526259" y="294.590247" style="stroke: #000000; stroke-width: 0.6"/>
      </g>
     </g>
    </g>
    <g id="xtick_18">
     <g id="line2d_35">
      <path d="M 536.378431 294.590247 
L 536.378431 22.318125 
" clip-path="url(#pf4aaafbbf0)" style="fill: none; stroke-dasharray: 1.85,0.8; stroke-dashoffset: 0; stroke: #b0b0b0; stroke-width: 0.5"/>
     </g>
     <g id="line2d_36">
      <g>
       <use xlink:href="#md2c6d0899a" x="536.378431" y="294.590247" style="stroke: #000000; stroke-width: 0.6"/>
      </g>
     </g>
    </g>
    <g id="xtick_19">
     <g id="line2d_37">
      <path d="M 549.478976 294.590247 
L 549.478976 22.318125 
" clip-path="url(#pf4aaafbbf0)" style="fill: none; stroke-dasharray: 1.85,0.8; stroke-dashoffset: 0; stroke: #b0b0b0; stroke-width: 0.5"/>
     </g>
     <g id="line2d_38">
      <g>
       <use xlink:href="#md2c6d0899a" x="549.478976" y="294.590247" style="stroke: #000000; stroke-width: 0.6"/>
      </g>
     </g>
    </g>
    <g id="text_4">
     <!-- Frequency (Hz) -->
     <g transform="translate(267.385625 342.526987) scale(0.1 -0.1)">
      <defs>
       <path id="DejaVuSans-46" d="M 628 4666 
L 3309 4666 
L 3309 4134 
L 1259 4134 
L 1259 2759 
L 3109 2759 
L 3109 2228 
L 1259 2228 
L 1259 0 
L 628 0 
L 628 4666 
z
" transform="scale(0.015625)"/>
       <path id="DejaVuSans-72" d="M 2631 2963 
Q 2534 3019 2420 3045 
Q 2306 3072 2169 3072 
Q 1681 3072 1420 2755 
Q 1159 2438 1159 1844 
L 1159 0 
L 581 0 
L 581 3500 
L 1159 3500 
L 1159 2956 
Q 1341 3275 1631 3429 
Q 1922 3584 2338 3584 
Q 2397 3584 2469 3576 
Q 2541 3569 2628 3553 
L 2631 2963 
z
" transform="scale(0.015625)"/>
       <path id="DejaVuSans-65" d="M 3597 1894 
L 3597 1613 
L 953 1613 
Q 991 1019 1311 708 
Q 1631 397 2203 397 
Q 2534 397 2845 478 
Q 3156 559 3463 722 
L 3463 178 
Q 3153 47 2828 -22 
Q 2503 -91 2169 -91 
Q 1331 -91 842 396 
Q 353 884 353 1716 
Q 353 2575 817 3079 
Q 1281 3584 2069 3584 
Q 2775 3584 3186 3129 
Q 3597 2675 3597 1894 
z
M 3022 2063 
Q 3016 2534 2758 2815 
Q 2500 3097 2075 3097 
Q 1594 3097 1305 2825 
Q 1016 2553 972 2059 
L 3022 2063 
z
" transform="scale(0.015625)"/>
       <path id="DejaVuSans-71" d="M 947 1747 
Q 947 1113 1208 752 
Q 1469 391 1925 391 
Q 2381 391 2643 752 
Q 2906 1113 2906 1747 
Q 2906 2381 2643 2742 
Q 2381 3103 1925 3103 
Q 1469 3103 1208 2742 
Q 947 2381 947 1747 
z
M 2906 525 
Q 2725 213 2448 61 
Q 2172 -91 1784 -91 
Q 1150 -91 751 415 
Q 353 922 353 1747 
Q 353 2572 751 3078 
Q 1150 3584 1784 3584 
Q 2172 3584 2448 3432 
Q 2725 3281 2906 2969 
L 2906 3500 
L 3481 3500 
L 3481 -1331 
L 2906 -1331 
L 2906 525 
z
" transform="scale(0.015625)"/>
       <path id="DejaVuSans-75" d="M 544 1381 
L 544 3500 
L 1119 3500 
L 1119 1403 
Q 1119 906 1312 657 
Q 1506 409 1894 409 
Q 2359 409 2629 706 
Q 2900 1003 2900 1516 
L 2900 3500 
L 3475 3500 
L 3475 0 
L 2900 0 
L 2900 538 
Q 2691 219 2414 64 
Q 2138 -91 1772 -91 
Q 1169 -91 856 284 
Q 544 659 544 1381 
z
M 1991 3584 
L 1991 3584 
z
" transform="scale(0.015625)"/>
       <path id="DejaVuSans-6e" d="M 3513 2113 
L 3513 0 
L 2938 0 
L 2938 2094 
Q 2938 2591 2744 2837 
Q 2550 3084 2163 3084 
Q 1697 3084 1428 2787 
Q 1159 2491 1159 1978 
L 1159 0 
L 581 0 
L 581 3500 
L 1159 3500 
L 1159 2956 
Q 1366 3272 1645 3428 
Q 1925 3584 2291 3584 
Q 2894 3584 3203 3211 
Q 3513 2838 3513 2113 
z
" transform="scale(0.015625)"/>
       <path id="DejaVuSans-63" d="M 3122 3366 
L 3122 2828 
Q 2878 2963 2633 3030 
Q 2388 3097 2138 3097 
Q 1578 3097 1268 2742 
Q 959 2388 959 1747 
Q 959 1106 1268 751 
Q 1578 397 2138 397 
Q 2388 397 2633 464 
Q 2878 531 3122 666 
L 3122 134 
Q 2881 22 2623 -34 
Q 2366 -91 2075 -91 
Q 1284 -91 818 406 
Q 353 903 353 1747 
Q 353 2603 823 3093 
Q 1294 3584 2113 3584 
Q 2378 3584 2631 3529 
Q 2884 3475 3122 3366 
z
" transform="scale(0.015625)"/>
       <path id="DejaVuSans-79" d="M 2059 -325 
Q 1816 -950 1584 -1140 
Q 1353 -1331 966 -1331 
L 506 -1331 
L 506 -850 
L 844 -850 
Q 1081 -850 1212 -737 
Q 1344 -625 1503 -206 
L 1606 56 
L 191 3500 
L 800 3500 
L 1894 763 
L 2988 3500 
L 3597 3500 
L 2059 -325 
z
" transform="scale(0.015625)"/>
       <path id="DejaVuSans-20" transform="scale(0.015625)"/>
       <path id="DejaVuSans-28" d="M 1984 4856 
Q 1566 4138 1362 3434 
Q 1159 2731 1159 2009 
Q 1159 1288 1364 580 
Q 1569 -128 1984 -844 
L 1484 -844 
Q 1016 -109 783 600 
Q 550 1309 550 2009 
Q 550 2706 781 3412 
Q 1013 4119 1484 4856 
L 1984 4856 
z
" transform="scale(0.015625)"/>
       <path id="DejaVuSans-48" d="M 628 4666 
L 1259 4666 
L 1259 2753 
L 3553 2753 
L 3553 4666 
L 4184 4666 
L 4184 0 
L 3553 0 
L 3553 2222 
L 1259 2222 
L 1259 0 
L 628 0 
L 628 4666 
z
" transform="scale(0.015625)"/>
       <path id="DejaVuSans-7a" d="M 353 3500 
L 3084 3500 
L 3084 2975 
L 922 459 
L 3084 459 
L 3084 0 
L 275 0 
L 275 525 
L 2438 3041 
L 353 3041 
L 353 3500 
z
" transform="scale(0.015625)"/>
       <path id="DejaVuSans-29" d="M 513 4856 
L 1013 4856 
Q 1481 4119 1714 3412 
Q 1947 2706 1947 2009 
Q 1947 1309 1714 600 
Q 1481 -109 1013 -844 
L 513 -844 
Q 928 -128 1133 580 
Q 1338 1288 1338 2009 
Q 1338 2731 1133 3434 
Q 928 4138 513 4856 
z
" transform="scale(0.015625)"/>
      </defs>
      <use xlink:href="#DejaVuSans-46"/>
      <use xlink:href="#DejaVuSans-72" transform="translate(50.269531 0)"/>
      <use xlink:href="#DejaVuSans-65" transform="translate(89.132812 0)"/>
      <use xlink:href="#DejaVuSans-71" transform="translate(150.65625 0)"/>
      <use xlink:href="#DejaVuSans-75" transform="translate(214.132812 0)"/>
      <use xlink:href="#DejaVuSans-65" transform="translate(277.511719 0)"/>
      <use xlink:href="#DejaVuSans-6e" transform="translate(339.035156 0)"/>
      <use xlink:href="#DejaVuSans-63" transform="translate(402.414062 0)"/>
      <use xlink:href="#DejaVuSans-79" transform="translate(457.394531 0)"/>
      <use xlink:href="#DejaVuSans-20" transform="translate(516.574219 0)"/>
      <use xlink:href="#DejaVuSans-28" transform="translate(548.361328 0)"/>
      <use xlink:href="#DejaVuSans-48" transform="translate(587.375 0)"/>
      <use xlink:href="#DejaVuSans-7a" transform="translate(662.570312 0)"/>
      <use xlink:href="#DejaVuSans-29" transform="translate(715.060547 0)"/>
     </g>
    </g>
   </g>
   <g id="matplotlib.axis_2">
    <g id="ytick_1">
     <g id="line2d_39">
      <path d="M 48.982813 294.590247 
L 561.197812 294.590247 
" clip-path="url(#pf4aaafbbf0)" style="fill: none; stroke-dasharray: 1.85,0.8; stroke-dashoffset: 0; stroke: #b0b0b0; stroke-width: 0.5"/>
     </g>
     <g id="line2d_40">
      <defs>
       <path id="mcc2d31dab0" d="M 0 0 
L -3.5 0 
" style="stroke: #000000; stroke-width: 0.8"/>
      </defs>
      <g>
       <use xlink:href="#mcc2d31dab0" x="48.982813" y="294.590247" style="stroke: #000000; stroke-width: 0.8"/>
      </g>
     </g>
     <g id="text_5">
      <!-- −20 -->
      <g transform="translate(20.878125 298.389466) scale(0.1 -0.1)">
       <defs>
        <path id="DejaVuSans-2212" d="M 678 2272 
L 4684 2272 
L 4684 1741 
L 678 1741 
L 678 2272 
z
" transform="scale(0.015625)"/>
        <path id="DejaVuSans-32" d="M 1228 531 
L 3431 531 
L 3431 0 
L 469 0 
L 469 531 
Q 828 903 1448 1529 
Q 2069 2156 2228 2338 
Q 2531 2678 2651 2914 
Q 2772 3150 2772 3378 
Q 2772 3750 2511 3984 
Q 2250 4219 1831 4219 
Q 1534 4219 1204 4116 
Q 875 4013 500 3803 
L 500 4441 
Q 881 4594 1212 4672 
Q 1544 4750 1819 4750 
Q 2544 4750 2975 4387 
Q 3406 4025 3406 3419 
Q 3406 3131 3298 2873 
Q 3191 2616 2906 2266 
Q 2828 2175 2409 1742 
Q 1991 1309 1228 531 
z
" transform="scale(0.015625)"/>
       </defs>
       <use xlink:href="#DejaVuSans-2212"/>
       <use xlink:href="#DejaVuSans-32" transform="translate(83.789062 0)"/>
       <use xlink:href="#DejaVuSans-30" transform="translate(147.412109 0)"/>
      </g>
     </g>
    </g>
    <g id="ytick_2">
     <g id="line2d_41">
      <path d="M 48.982813 255.694229 
L 561.197812 255.694229 
" clip-path="url(#pf4aaafbbf0)" style="fill: none; stroke-dasharray: 1.85,0.8; stroke-dashoffset: 0; stroke: #b0b0b0; stroke-width: 0.5"/>
     </g>
     <g id="line2d_42">
      <g>
       <use xlink:href="#mcc2d31dab0" x="48.982813" y="255.694229" style="stroke: #000000; stroke-width: 0.8"/>
      </g>
     </g>
     <g id="text_6">
      <!-- −10 -->
      <g transform="translate(20.878125 259.493448) scale(0.1 -0.1)">
       <use xlink:href="#DejaVuSans-2212"/>
       <use xlink:href="#DejaVuSans-31" transform="translate(83.789062 0)"/>
       <use xlink:href="#DejaVuSans-30" transform="translate(147.412109 0)"/>
      </g>
     </g>
    </g>
    <g id="ytick_3">
     <g id="line2d_43">
      <path d="M 48.982813 216.798212 
L 561.197812 216.798212 
" clip-path="url(#pf4aaafbbf0)" style="fill: none; stroke-dasharray: 1.85,0.8; stroke-dashoffset: 0; stroke: #b0b0b0; stroke-width: 0.5"/>
     </g>
     <g id="line2d_44">
      <g>
       <use xlink:href="#mcc2d31dab0" x="48.982813" y="216.798212" style="stroke: #000000; stroke-width: 0.8"/>
      </g>
     </g>
     <g id="text_7">
      <!-- 0 -->
      <g transform="translate(35.620313 220.597431) scale(0.1 -0.1)">
       <use xlink:href="#DejaVuSans-30"/>
      </g>
     </g>
    </g>
    <g id="ytick_4">
     <g id="line2d_45">
      <path d="M 48.982813 177.902195 
L 561.197812 177.902195 
" clip-path="url(#pf4aaafbbf0)" style="fill: none; stroke-dasharray: 1.85,0.8; stroke-dashoffset: 0; stroke: #b0b0b0; stroke-width: 0.5"/>
     </g>
     <g id="line2d_46">
      <g>
       <use xlink:href="#mcc2d31dab0" x="48.982813" y="177.902195" style="stroke: #000000; stroke-width: 0.8"/>
      </g>
     </g>
     <g id="text_8">
      <!-- 10 -->
      <g transform="translate(29.257813 181.701413) scale(0.1 -0.1)">
       <use xlink:href="#DejaVuSans-31"/>
       <use xlink:href="#DejaVuSans-30" transform="translate(63.623047 0)"/>
      </g>
     </g>
    </g>
    <g id="ytick_5">
     <g id="line2d_47">
      <path d="M 48.982813 139.006177 
L 561.197812 139.006177 
" clip-path="url(#pf4aaafbbf0)" style="fill: none; stroke-dasharray: 1.85,0.8; stroke-dashoffset: 0; stroke: #b0b0b0; stroke-width: 0.5"/>
     </g>
     <g id="line2d_48">
      <g>
       <use xlink:href="#mcc2d31dab0" x="48.982813" y="139.006177" style="stroke: #000000; stroke-width: 0.8"/>
      </g>
     </g>
     <g id="text_9">
      <!-- 20 -->
      <g transform="translate(29.257813 142.805396) scale(0.1 -0.1)">
       <use xlink:href="#DejaVuSans-32"/>
       <use xlink:href="#DejaVuSans-30" transform="translate(63.623047 0)"/>
      </g>
     </g>
    </g>
    <g id="ytick_6">
     <g id="line2d_49">
      <path d="M 48.982813 100.11016 
L 561.197812 100.11016 
" clip-path="url(#pf4aaafbbf0)" style="fill: none; stroke-dasharray: 1.85,0.8; stroke-dashoffset: 0; stroke: #b0b0b0; stroke-width: 0.5"/>
     </g>
     <g id="line2d_50">
      <g>
       <use xlink:href="#mcc2d31dab0" x="48.982813" y="100.11016" style="stroke: #000000; stroke-width: 0.8"/>
      </g>
     </g>
     <g id="text_10">
      <!-- 30 -->
      <g transform="translate(29.257813 103.909379) scale(0.1 -0.1)">
       <defs>
        <path id="DejaVuSans-33" d="M 2597 2516 
Q 3050 2419 3304 2112 
Q 3559 1806 3559 1356 
Q 3559 666 3084 287 
Q 2609 -91 1734 -91 
Q 1441 -91 1130 -33 
Q 819 25 488 141 
L 488 750 
Q 750 597 1062 519 
Q 1375 441 1716 441 
Q 2309 441 2620 675 
Q 2931 909 2931 1356 
Q 2931 1769 2642 2001 
Q 2353 2234 1838 2234 
L 1294 2234 
L 1294 2753 
L 1863 2753 
Q 2328 2753 2575 2939 
Q 2822 3125 2822 3475 
Q 2822 3834 2567 4026 
Q 2313 4219 1838 4219 
Q 1578 4219 1281 4162 
Q 984 4106 628 3988 
L 628 4550 
Q 988 4650 1302 4700 
Q 1616 4750 1894 4750 
Q 2613 4750 3031 4423 
Q 3450 4097 3450 3541 
Q 3450 3153 3228 2886 
Q 3006 2619 2597 2516 
z
" transform="scale(0.015625)"/>
       </defs>
       <use xlink:href="#DejaVuSans-33"/>
       <use xlink:href="#DejaVuSans-30" transform="translate(63.623047 0)"/>
      </g>
     </g>
    </g>
    <g id="ytick_7">
     <g id="line2d_51">
      <path d="M 48.982813 61.214142 
L 561.197812 61.214142 
" clip-path="url(#pf4aaafbbf0)" style="fill: none; stroke-dasharray: 1.85,0.8; stroke-dashoffset: 0; stroke: #b0b0b0; stroke-width: 0.5"/>
     </g>
     <g id="line2d_52">
      <g>
       <use xlink:href="#mcc2d31dab0" x="48.982813" y="61.214142" style="stroke: #000000; stroke-width: 0.8"/>
      </g>
     </g>
     <g id="text_11">
      <!-- 40 -->
      <g transform="translate(29.257813 65.013361) scale(0.1 -0.1)">
       <defs>
        <path id="DejaVuSans-34" d="M 2419 4116 
L 825 1625 
L 2419 1625 
L 2419 4116 
z
M 2253 4666 
L 3047 4666 
L 3047 1625 
L 3713 1625 
L 3713 1100 
L 3047 1100 
L 3047 0 
L 2419 0 
L 2419 1100 
L 313 1100 
L 313 1709 
L 2253 4666 
z
" transform="scale(0.015625)"/>
       </defs>
       <use xlink:href="#DejaVuSans-34"/>
       <use xlink:href="#DejaVuSans-30" transform="translate(63.623047 0)"/>
      </g>
     </g>
    </g>
    <g id="ytick_8">
     <g id="line2d_53">
      <path d="M 48.982813 22.318125 
L 561.197812 22.318125 
" clip-path="url(#pf4aaafbbf0)" style="fill: none; stroke-dasharray: 1.85,0.8; stroke-dashoffset: 0; stroke: #b0b0b0; stroke-width: 0.5"/>
     </g>
     <g id="line2d_54">
      <g>
       <use xlink:href="#mcc2d31dab0" x="48.982813" y="22.318125" style="stroke: #000000; stroke-width: 0.8"/>
      </g>
     </g>
     <g id="text_12">
      <!-- 50 -->
      <g transform="translate(29.257813 26.117344) scale(0.1 -0.1)">
       <defs>
        <path id="DejaVuSans-35" d="M 691 4666 
L 3169 4666 
L 3169 4134 
L 1269 4134 
L 1269 2991 
Q 1406 3038 1543 3061 
Q 1681 3084 1819 3084 
Q 2600 3084 3056 2656 
Q 3513 2228 3513 1497 
Q 3513 744 3044 326 
Q 2575 -91 1722 -91 
Q 1428 -91 1123 -41 
Q 819 9 494 109 
L 494 744 
Q 775 591 1075 516 
Q 1375 441 1709 441 
Q 2250 441 2565 725 
Q 2881 1009 2881 1497 
Q 2881 1984 2565 2268 
Q 2250 2553 1709 2553 
Q 1456 2553 1204 2497 
Q 953 2441 691 2322 
L 691 4666 
z
" transform="scale(0.015625)"/>
       </defs>
       <use xlink:href="#DejaVuSans-35"/>
       <use xlink:href="#DejaVuSans-30" transform="translate(63.623047 0)"/>
      </g>
     </g>
    </g>
    <g id="text_13">
     <!-- SPL (dBA) -->
     <g transform="translate(14.798438 182.944811) rotate(-90) scale(0.1 -0.1)">
      <defs>
       <path id="DejaVuSans-53" d="M 3425 4513 
L 3425 3897 
Q 3066 4069 2747 4153 
Q 2428 4238 2131 4238 
Q 1616 4238 1336 4038 
Q 1056 3838 1056 3469 
Q 1056 3159 1242 3001 
Q 1428 2844 1947 2747 
L 2328 2669 
Q 3034 2534 3370 2195 
Q 3706 1856 3706 1288 
Q 3706 609 3251 259 
Q 2797 -91 1919 -91 
Q 1588 -91 1214 -16 
Q 841 59 441 206 
L 441 856 
Q 825 641 1194 531 
Q 1563 422 1919 422 
Q 2459 422 2753 634 
Q 3047 847 3047 1241 
Q 3047 1584 2836 1778 
Q 2625 1972 2144 2069 
L 1759 2144 
Q 1053 2284 737 2584 
Q 422 2884 422 3419 
Q 422 4038 858 4394 
Q 1294 4750 2059 4750 
Q 2388 4750 2728 4690 
Q 3069 4631 3425 4513 
z
" transform="scale(0.015625)"/>
       <path id="DejaVuSans-50" d="M 1259 4147 
L 1259 2394 
L 2053 2394 
Q 2494 2394 2734 2622 
Q 2975 2850 2975 3272 
Q 2975 3691 2734 3919 
Q 2494 4147 2053 4147 
L 1259 4147 
z
M 628 4666 
L 2053 4666 
Q 2838 4666 3239 4311 
Q 3641 3956 3641 3272 
Q 3641 2581 3239 2228 
Q 2838 1875 2053 1875 
L 1259 1875 
L 1259 0 
L 628 0 
L 628 4666 
z
" transform="scale(0.015625)"/>
       <path id="DejaVuSans-4c" d="M 628 4666 
L 1259 4666 
L 1259 531 
L 3531 531 
L 3531 0 
L 628 0 
L 628 4666 
z
" transform="scale(0.015625)"/>
       <path id="DejaVuSans-64" d="M 2906 2969 
L 2906 4863 
L 3481 4863 
L 3481 0 
L 2906 0 
L 2906 525 
Q 2725 213 2448 61 
Q 2172 -91 1784 -91 
Q 1150 -91 751 415 
Q 353 922 353 1747 
Q 353 2572 751 3078 
Q 1150 3584 1784 3584 
Q 2172 3584 2448 3432 
Q 2725 3281 2906 2969 
z
M 947 1747 
Q 947 1113 1208 752 
Q 1469 391 1925 391 
Q 2381 391 2643 752 
Q 2906 1113 2906 1747 
Q 2906 2381 2643 2742 
Q 2381 3103 1925 3103 
Q 1469 3103 1208 2742 
Q 947 2381 947 1747 
z
" transform="scale(0.015625)"/>
       <path id="DejaVuSans-42" d="M 1259 2228 
L 1259 519 
L 2272 519 
Q 2781 519 3026 730 
Q 3272 941 3272 1375 
Q 3272 1813 3026 2020 
Q 2781 2228 2272 2228 
L 1259 2228 
z
M 1259 4147 
L 1259 2741 
L 2194 2741 
Q 2656 2741 2882 2914 
Q 3109 3088 3109 3444 
Q 3109 3797 2882 3972 
Q 2656 4147 2194 4147 
L 1259 4147 
z
M 628 4666 
L 2241 4666 
Q 2963 4666 3353 4366 
Q 3744 4066 3744 3513 
Q 3744 3084 3544 2831 
Q 3344 2578 2956 2516 
Q 3422 2416 3680 2098 
Q 3938 1781 3938 1306 
Q 3938 681 3513 340 
Q 3088 0 2303 0 
L 628 0 
L 628 4666 
z
" transform="scale(0.015625)"/>
       <path id="DejaVuSans-41" d="M 2188 4044 
L 1331 1722 
L 3047 1722 
L 2188 4044 
z
M 1831 4666 
L 2547 4666 
L 4325 0 
L 3669 0 
L 3244 1197 
L 1141 1197 
L 716 0 
L 50 0 
L 1831 4666 
z
" transform="scale(0.015625)"/>
      </defs>
      <use xlink:href="#DejaVuSans-53"/>
      <use xlink:href="#DejaVuSans-50" transform="translate(63.476562 0)"/>
      <use xlink:href="#DejaVuSans-4c" transform="translate(123.779297 0)"/>
      <use xlink:href="#DejaVuSans-20" transform="translate(179.492188 0)"/>
      <use xlink:href="#DejaVuSans-28" transform="translate(211.279297 0)"/>
      <use xlink:href="#DejaVuSans-64" transform="translate(250.292969 0)"/>
      <use xlink:href="#DejaVuSans-42" transform="translate(313.769531 0)"/>
      <use xlink:href="#DejaVuSans-41" transform="translate(382.373047 0)"/>
      <use xlink:href="#DejaVuSans-29" transform="translate(450.78125 0)"/>
     </g>
    </g>
   </g>
   <g id="line2d_55">
    <path d="M 51.493242 138.717913 
L 57.198394 132.753814 
L 62.625131 127.389521 
L 67.79937 124.561324 
L 72.743565 128.830165 
L 77.477304 129.687771 
L 82.017775 128.589959 
L 86.38014 117.505697 
L 90.577849 119.114992 
L 94.622879 131.653383 
L 98.525949 129.189946 
L 102.296685 129.960444 
L 105.943768 130.277843 
L 109.475052 137.47052 
L 112.897663 144.694702 
L 116.218091 149.432965 
L 119.44226 151.504494 
L 122.575596 153.849715 
L 125.623077 149.694492 
L 128.589281 148.383535 
L 131.478432 152.66483 
L 134.294433 154.229013 
L 137.040895 150.711813 
L 139.721171 145.86077 
L 142.338376 139.212792 
L 144.89541 138.01327 
L 147.394977 137.863828 
L 152.231656 143.262232 
L 154.573344 142.936274 
L 156.866746 143.001504 
L 159.113814 145.159039 
L 161.316383 145.674783 
L 163.47618 147.771181 
L 165.594836 150.06173 
L 167.673888 144.959052 
L 169.714791 137.131079 
L 171.718919 133.976204 
L 173.687573 132.520732 
L 175.621988 131.97017 
L 177.523335 133.018154 
L 179.392725 133.834407 
L 181.231214 131.965591 
L 183.039808 130.383145 
L 184.819463 129.040206 
L 186.571091 128.589587 
L 188.295561 125.963771 
L 189.993702 122.889196 
L 191.666306 123.330968 
L 193.31413 126.462095 
L 194.937897 127.697961 
L 196.5383 128.21416 
L 198.116001 128.949458 
L 199.671636 128.863732 
L 201.205813 130.102646 
L 202.719116 129.490758 
L 204.212106 129.68494 
L 205.685321 130.542862 
L 207.139277 130.518709 
L 208.574472 126.58024 
L 209.991384 127.041757 
L 211.390472 124.974991 
L 212.77218 126.021261 
L 214.136935 126.90232 
L 215.485146 127.285294 
L 216.817211 131.005069 
L 218.133511 133.634093 
L 220.720281 129.889742 
L 221.99145 132.206147 
L 223.248255 133.859868 
L 224.491017 133.249459 
L 225.720047 132.411549 
L 226.935645 131.378496 
L 228.1381 128.819 
L 229.327695 126.841074 
L 230.504702 128.524685 
L 231.669383 128.825212 
L 232.821996 125.623936 
L 233.962786 125.963293 
L 235.091994 121.915034 
L 236.209854 118.429672 
L 237.31659 118.344926 
L 239.497563 111.567109 
L 240.572219 110.261822 
L 241.636592 109.929882 
L 242.690875 109.740877 
L 244.769928 111.403065 
L 245.79506 114.819491 
L 246.810831 113.041714 
L 247.817408 112.537069 
L 248.814958 113.196012 
L 249.803641 113.321667 
L 250.783613 110.97493 
L 251.755026 111.33926 
L 252.718028 111.072006 
L 253.672764 112.449584 
L 254.619375 116.628143 
L 255.557997 118.488309 
L 256.488765 120.731807 
L 257.411808 122.556169 
L 258.327254 122.724086 
L 259.235227 125.315261 
L 260.135848 128.410575 
L 261.029235 128.891817 
L 261.915503 131.189012 
L 262.794765 137.174775 
L 263.667131 144.693057 
L 264.532708 148.166756 
L 265.391601 148.577245 
L 267.089742 145.274341 
L 267.929188 144.154745 
L 268.762346 139.755652 
L 269.589309 137.916083 
L 270.41017 134.747909 
L 271.225016 130.41894 
L 272.033937 127.758497 
L 272.837017 127.36762 
L 273.634339 123.843112 
L 274.425987 119.018011 
L 275.212041 116.206336 
L 275.992578 115.172045 
L 276.767675 114.734563 
L 277.537409 115.370768 
L 279.061078 120.237443 
L 279.815156 126.654777 
L 280.564156 131.820796 
L 281.308146 136.063148 
L 282.047192 136.004674 
L 282.78136 133.714689 
L 283.510714 129.248718 
L 284.235317 121.448541 
L 284.955229 118.567786 
L 286.381224 122.481503 
L 287.087423 122.152697 
L 287.789168 125.49543 
L 288.486512 131.377384 
L 289.86822 137.456777 
L 290.55269 139.502822 
L 291.232974 140.782565 
L 291.909123 142.377882 
L 292.581186 141.889685 
L 293.249212 144.567875 
L 293.91325 146.486358 
L 294.573348 146.407475 
L 295.229551 144.972078 
L 295.881905 144.247386 
L 296.530455 145.083735 
L 297.175246 144.916265 
L 297.81632 137.949047 
L 298.453721 137.106166 
L 299.087489 136.81467 
L 299.717667 135.848535 
L 300.344294 137.704039 
L 301.587057 146.768869 
L 302.203269 146.886308 
L 302.816087 147.51554 
L 303.425546 146.540022 
L 304.031684 147.054461 
L 304.634537 147.253513 
L 305.23414 149.25305 
L 305.830528 150.765232 
L 306.423735 151.195296 
L 307.013795 154.748465 
L 307.600741 157.255041 
L 308.184607 157.660118 
L 308.765423 156.679063 
L 309.343222 153.278424 
L 309.918035 151.997981 
L 310.489893 152.828427 
L 311.058825 152.315134 
L 311.624863 151.579344 
L 312.188034 152.636618 
L 312.748368 154.622064 
L 313.860638 152.803274 
L 314.412629 153.396839 
L 314.961895 156.51029 
L 315.508462 158.505008 
L 316.052356 157.187111 
L 316.593603 157.377352 
L 317.132229 157.053019 
L 317.668259 156.948387 
L 318.201719 157.660224 
L 318.732632 159.677327 
L 319.261022 159.374378 
L 319.786915 157.986212 
L 320.310333 157.813912 
L 320.831299 158.928443 
L 321.349836 157.300612 
L 322.8911 151.126835 
L 323.400145 149.800647 
L 323.90687 147.896574 
L 324.411298 147.37472 
L 324.913448 148.434112 
L 325.413341 147.279893 
L 325.910998 147.271687 
L 326.406438 149.652702 
L 327.390746 153.083464 
L 327.879652 155.356708 
L 328.366419 159.363442 
L 328.851065 161.072126 
L 329.333609 160.555191 
L 329.814068 160.965806 
L 330.29246 161.617607 
L 330.768804 159.922012 
L 331.243116 159.130273 
L 331.715414 160.669854 
L 332.185716 157.574975 
L 332.654037 155.325356 
L 333.120394 157.896265 
L 333.584804 159.784771 
L 334.047283 163.730901 
L 334.966512 167.246426 
L 335.423294 169.474746 
L 335.878206 166.283033 
L 336.331266 168.076807 
L 336.782489 168.85685 
L 337.231887 171.231665 
L 337.679478 172.28121 
L 338.125274 172.200705 
L 338.569291 171.92424 
L 339.011543 171.161732 
L 339.452042 172.958724 
L 339.890805 172.728866 
L 340.327843 169.13362 
L 340.76317 167.174155 
L 341.196801 167.375315 
L 341.628747 168.062718 
L 342.059023 167.268352 
L 342.48764 168.863572 
L 342.914612 169.645932 
L 343.339952 169.994494 
L 343.76367 169.516627 
L 344.185781 171.503498 
L 344.606296 171.150251 
L 345.025227 171.294969 
L 345.442586 172.46466 
L 345.858385 171.995747 
L 347.096536 165.050522 
L 347.506209 162.052773 
L 347.914379 162.499997 
L 348.321056 161.926022 
L 348.726251 157.980267 
L 349.129976 156.269848 
L 349.532241 155.899727 
L 349.933056 156.604631 
L 350.730379 162.599227 
L 351.522027 167.648662 
L 351.915748 166.125754 
L 352.30808 162.571439 
L 352.699034 160.569256 
L 353.088617 159.181511 
L 353.476841 158.467293 
L 353.863715 160.988382 
L 354.249248 165.018821 
L 355.016327 168.415351 
L 355.397892 170.718552 
L 355.778153 171.389165 
L 356.157118 169.796708 
L 356.534795 169.754722 
L 356.911195 168.721569 
L 357.286326 168.354472 
L 357.660195 169.581196 
L 358.032812 166.958275 
L 358.404185 166.079831 
L 358.774322 166.390254 
L 359.143232 167.773831 
L 359.8774 171.878211 
L 360.969645 174.117616 
L 362.409485 172.067203 
L 362.766551 170.680702 
L 363.122475 170.11136 
L 363.477263 170.435649 
L 363.830924 171.994595 
L 364.183463 172.48889 
L 364.534889 173.933077 
L 364.885207 175.960957 
L 365.234426 177.03624 
L 365.582552 174.329262 
L 365.929591 175.98385 
L 366.275551 176.657822 
L 366.620439 176.408866 
L 366.96426 179.33199 
L 367.307021 179.861151 
L 367.64873 179.89565 
L 367.989392 182.858176 
L 368.329014 181.432438 
L 368.667602 179.352409 
L 369.005162 179.834628 
L 369.341702 180.666173 
L 369.677225 180.918538 
L 370.01174 180.239177 
L 370.345252 182.492077 
L 370.677766 183.948953 
L 371.00929 184.431842 
L 371.339828 185.738112 
L 371.669387 184.212899 
L 371.997973 186.233626 
L 372.32559 186.462416 
L 372.977945 182.778511 
L 373.302692 182.378711 
L 373.949357 180.620703 
L 374.271286 180.464458 
L 375.231517 170.529426 
L 375.54976 175.318481 
L 375.867096 175.605196 
L 376.183529 176.835344 
L 376.499064 173.71188 
L 376.813707 171.810735 
L 377.127461 171.316935 
L 377.440334 174.001502 
L 378.373705 173.468173 
L 378.683096 173.745908 
L 378.991629 172.116844 
L 379.299309 171.879775 
L 379.60614 172.417902 
L 379.912126 172.02901 
L 380.217273 171.169811 
L 380.521586 171.605476 
L 381.127724 173.3911 
L 381.429559 174.031733 
L 381.730577 174.321552 
L 382.030782 175.144437 
L 382.33018 173.382251 
L 382.628773 174.157403 
L 382.926567 173.693581 
L 383.223566 173.713535 
L 383.519775 175.56315 
L 384.109835 169.386684 
L 384.403695 167.869406 
L 384.989097 168.322975 
L 385.280646 167.293055 
L 385.861463 164.629369 
L 386.439262 166.710163 
L 386.72704 167.232662 
L 387.300371 172.755228 
L 387.585932 173.717937 
L 387.870762 174.106576 
L 388.154865 171.97289 
L 389.284073 158.809757 
L 389.564593 158.495505 
L 389.844407 159.685724 
L 390.123519 159.013892 
L 390.401933 160.473859 
L 390.679651 159.885063 
L 390.956677 158.94187 
L 391.233016 159.651576 
L 391.508669 160.052198 
L 391.783641 156.701163 
L 392.057935 155.600035 
L 392.331554 155.460785 
L 392.604501 156.298877 
L 392.876781 153.723397 
L 393.148395 154.922807 
L 393.419348 155.171638 
L 393.689642 154.609334 
L 393.959281 154.525166 
L 394.764299 146.831906 
L 395.828671 156.527392 
L 396.09318 157.037121 
L 396.620319 160.637775 
L 396.882955 161.836751 
L 397.144971 162.196725 
L 397.406372 163.69929 
L 397.667161 161.316441 
L 397.927339 161.507805 
L 398.18691 164.278939 
L 398.445876 164.774005 
L 398.704241 164.705571 
L 398.962007 165.24352 
L 399.475754 168.502394 
L 399.731741 168.777925 
L 400.496184 165.325068 
L 400.749836 165.775883 
L 401.00291 167.327772 
L 401.25541 167.17018 
L 401.507337 168.544544 
L 401.758696 169.254441 
L 402.009488 170.392938 
L 402.259715 170.237202 
L 402.509381 172.287287 
L 402.758488 171.082517 
L 403.007038 171.231678 
L 404.241524 175.013268 
L 405.219342 184.147232 
L 406.429648 189.55469 
L 406.910107 182.669138 
L 407.149561 178.371311 
L 407.3885 184.030547 
L 407.626927 185.765091 
L 407.864843 186.193199 
L 408.102252 185.820183 
L 408.339156 186.804828 
L 408.575556 187.116809 
L 409.046853 186.120016 
L 409.516162 184.261485 
L 409.750076 185.532268 
L 410.448881 193.587619 
L 410.680844 194.655064 
L 410.912324 198.179016 
L 411.143323 198.661412 
L 411.833456 206.080659 
L 412.519333 198.707507 
L 413.201007 195.354041 
L 413.427306 197.159608 
L 413.653146 195.096711 
L 413.878528 194.756595 
L 414.103455 193.676121 
L 414.327927 193.782997 
L 414.551947 192.326351 
L 414.775517 192.742969 
L 414.998639 194.511038 
L 415.221314 194.277728 
L 415.443544 194.635646 
L 415.665331 194.483485 
L 415.886676 193.487366 
L 416.107582 196.568915 
L 416.32805 192.420257 
L 416.548082 191.41277 
L 416.76768 192.382764 
L 417.85921 208.501692 
L 418.076237 205.427758 
L 418.292841 205.132478 
L 418.509023 205.92362 
L 418.940133 202.072282 
L 419.155063 201.333261 
L 419.369578 202.053238 
L 419.58368 201.743778 
L 419.797371 202.402931 
L 420.010652 202.169691 
L 420.223525 199.955657 
L 420.435991 200.389052 
L 420.648052 199.499379 
L 420.85971 196.756963 
L 421.070966 195.860237 
L 421.281821 197.425199 
L 421.492277 197.647836 
L 421.702336 195.821098 
L 421.911999 195.60677 
L 422.121267 197.139283 
L 422.330142 197.593756 
L 422.538626 199.978045 
L 422.74672 196.803325 
L 422.954425 197.398821 
L 423.161743 200.511264 
L 423.781388 204.225907 
L 423.987172 204.001608 
L 424.192576 207.302293 
L 424.397601 205.942445 
L 424.602249 205.634999 
L 424.806521 205.803936 
L 425.010418 204.585581 
L 425.213943 204.712499 
L 425.619878 200.955426 
L 425.822291 203.128218 
L 426.42733 203.126739 
L 426.628281 202.563266 
L 426.828869 201.520033 
L 427.029096 203.161196 
L 427.228963 200.687166 
L 427.428472 200.629453 
L 427.627623 200.89466 
L 427.826419 201.403 
L 428.02486 201.006091 
L 428.222947 202.015583 
L 428.420682 201.586122 
L 428.618067 199.640872 
L 429.208127 203.521403 
L 429.40412 200.687968 
L 429.599768 201.867314 
L 429.795073 202.094231 
L 429.990036 201.725529 
L 430.184657 200.283383 
L 430.572881 203.534036 
L 430.766486 202.813229 
L 430.959755 201.57251 
L 431.152688 203.055831 
L 431.537554 200.608088 
L 431.729488 201.913556 
L 431.921092 202.113886 
L 432.112367 204.39875 
L 432.303313 204.745522 
L 432.684225 209.730426 
L 432.874192 210.329303 
L 433.063836 209.844676 
L 433.253157 210.654274 
L 433.630835 207.999021 
L 433.819194 207.786855 
L 434.007235 205.946017 
L 434.194958 207.448986 
L 434.382366 207.665704 
L 434.569457 205.358563 
L 434.756235 206.178928 
L 434.9427 208.725231 
L 435.314693 210.82074 
L 435.685447 215.657187 
L 435.870362 215.6816 
L 436.239271 216.068531 
L 436.423268 215.955706 
L 436.973439 210.929427 
L 437.156227 210.987155 
L 437.338714 210.559807 
L 437.520903 209.212694 
L 437.702793 209.788622 
L 438.065685 208.955484 
L 438.607811 213.246285 
L 438.787934 211.704515 
L 439.326561 215.079395 
L 439.505525 215.056233 
L 439.684201 215.485376 
L 440.040695 219.183773 
L 440.218515 219.001492 
L 440.39605 218.572811 
L 440.573303 222.09904 
L 440.750274 220.159068 
L 440.926963 220.224071 
L 441.103373 220.042347 
L 441.455354 215.618493 
L 441.630928 216.963717 
L 441.806225 219.613014 
L 441.981247 218.735214 
L 442.155993 219.274492 
L 442.330466 221.38421 
L 442.504665 220.459174 
L 443.025631 223.633971 
L 443.371591 221.311656 
L 443.544168 222.876772 
L 443.716478 220.550494 
L 443.888522 219.806733 
L 444.060299 220.390517 
L 444.231812 218.482134 
L 444.403061 217.947766 
L 444.574047 218.387358 
L 444.74477 218.140021 
L 444.915231 220.261386 
L 445.085432 220.058217 
L 445.425054 219.225678 
L 445.763642 220.516432 
L 446.101202 221.425995 
L 446.269599 215.887615 
L 446.60563 220.642978 
L 446.940648 223.716664 
L 447.10778 223.324699 
L 447.274661 222.640869 
L 447.441291 221.026798 
L 447.607673 224.965379 
L 447.773806 225.963335 
L 448.10533 223.834024 
L 448.270722 225.352692 
L 448.435868 225.034834 
L 448.60077 223.97585 
L 448.765427 224.353412 
L 449.094012 222.753377 
L 449.42163 222.845001 
L 449.748285 222.455485 
L 449.911254 223.572743 
L 450.073984 225.654291 
L 450.236477 226.25402 
L 450.560751 222.602985 
L 450.722535 224.653863 
L 450.884083 224.924297 
L 451.206478 226.028578 
L 451.367325 228.011274 
L 451.688324 226.826274 
L 451.848477 229.124353 
L 452.008399 229.080653 
L 452.168092 228.425541 
L 452.486792 229.418083 
L 452.6458 228.957489 
L 452.963135 231.308374 
L 453.279568 228.63014 
L 453.437448 229.382372 
L 453.595104 229.55705 
L 453.752536 231.370442 
L 453.909746 230.817309 
L 454.066734 229.706474 
L 454.223501 230.283826 
L 454.380047 230.228963 
L 454.536374 229.201864 
L 454.69248 229.814223 
L 454.848368 229.155398 
L 455.004038 227.947687 
L 455.314726 229.135967 
L 455.469745 229.763723 
L 455.624548 229.392833 
L 455.779136 228.109058 
L 455.933509 229.576885 
L 456.087669 228.519713 
L 456.395348 230.628665 
L 456.54887 230.267162 
L 456.702179 229.524795 
L 456.855278 229.875888 
L 457.008166 228.517848 
L 457.313313 229.756916 
L 457.465573 228.795715 
L 457.921107 231.202421 
L 458.072538 230.355475 
L 458.374783 231.646491 
L 458.525598 229.596497 
L 458.97682 233.119537 
L 459.126822 231.065657 
L 459.276621 230.84653 
L 459.426219 230.094687 
L 459.575616 232.891518 
L 459.87381 228.32055 
L 460.022607 230.638354 
L 460.171206 230.583333 
L 460.319606 231.559814 
L 460.615814 231.087902 
L 460.911236 233.325672 
L 461.205874 231.421605 
L 461.352902 232.198179 
L 461.499735 235.222731 
L 461.646374 234.539789 
L 461.792821 233.274184 
L 461.939075 233.781602 
L 462.085136 233.590837 
L 462.231007 233.78928 
L 462.376686 233.246356 
L 462.522175 230.964566 
L 462.812582 234.202431 
L 462.957502 232.258984 
L 463.102234 233.895964 
L 463.246777 233.215231 
L 463.391133 233.784848 
L 463.535301 235.410211 
L 463.679283 233.042333 
L 463.823079 233.189151 
L 463.966689 232.845451 
L 464.110114 232.121452 
L 464.396411 228.559863 
L 464.539283 229.897034 
L 464.681972 233.707236 
L 464.966802 230.92842 
L 465.250905 231.579181 
L 465.392684 231.846015 
L 465.675702 233.93252 
L 465.816942 233.347656 
L 465.958002 233.324798 
L 466.098884 233.479798 
L 466.380113 231.641886 
L 466.660633 233.277581 
L 466.800628 232.830836 
L 466.940447 231.463308 
L 467.080091 232.655466 
L 467.219559 231.674639 
L 467.358853 233.963654 
L 467.497972 234.147521 
L 467.636918 231.538921 
L 467.775691 231.915495 
L 468.052717 235.281978 
L 468.329055 236.617809 
L 468.466967 236.424355 
L 468.604709 236.292938 
L 468.74228 234.466661 
L 468.879681 234.629204 
L 469.153974 237.509021 
L 469.290868 235.887585 
L 469.427593 236.127133 
L 469.564151 237.394911 
L 469.700541 235.693182 
L 469.836764 236.110288 
L 469.97282 234.520403 
L 470.10871 234.278473 
L 470.379994 236.00644 
L 470.515388 235.358743 
L 470.785682 236.434109 
L 470.920583 235.636056 
L 471.055321 235.933891 
L 471.324308 235.0913 
L 471.458558 237.333174 
L 471.726573 235.339824 
L 471.993943 238.805947 
L 472.127388 234.792421 
L 472.260673 235.064078 
L 472.393798 236.49576 
L 472.526764 235.215008 
L 472.659571 237.866902 
L 472.79222 235.644344 
L 472.924711 237.185934 
L 473.057044 237.148007 
L 473.18922 232.178798 
L 473.321239 232.680066 
L 473.453102 234.897025 
L 473.716359 232.488776 
L 473.847754 235.391121 
L 474.11008 234.065531 
L 474.241011 233.631906 
L 474.502412 235.18608 
L 474.632883 234.512508 
L 474.7632 227.927924 
L 475.023378 232.669766 
L 475.282949 233.366087 
L 475.541916 230.900874 
L 475.800281 231.523692 
L 476.058047 230.079794 
L 476.186706 232.01548 
L 476.315217 231.56157 
L 476.44358 231.997135 
L 476.571794 233.894692 
L 476.699861 231.31515 
L 476.827781 233.326478 
L 476.955553 233.505128 
L 477.083179 233.417604 
L 477.337993 233.995692 
L 477.719122 231.695902 
L 477.845875 232.10088 
L 477.972484 231.797133 
L 478.225271 230.053467 
L 478.351449 230.097345 
L 478.477484 228.221949 
L 478.603377 228.341818 
L 478.729127 228.219579 
L 479.605421 235.365763 
L 479.730044 234.721922 
L 479.854527 235.911133 
L 480.103077 233.338534 
L 480.227144 234.992528 
L 480.351073 235.123711 
L 480.474864 235.444737 
L 480.722033 230.457274 
L 480.845412 232.62251 
L 480.968654 232.294434 
L 481.21473 234.432308 
L 481.337563 234.334871 
L 481.460262 233.844639 
L 481.582825 233.836132 
L 481.705253 233.297488 
L 481.949706 234.084733 
L 482.193623 231.461319 
L 482.437006 234.476646 
L 482.558499 234.105533 
L 482.679858 233.188141 
L 482.801086 233.165589 
L 482.922181 234.610494 
L 483.043145 234.699692 
L 483.163977 237.637996 
L 483.525688 232.289037 
L 483.766177 234.912976 
L 484.006147 233.819586 
L 484.2456 228.092825 
L 484.603817 235.981984 
L 484.722966 235.555126 
L 485.079651 232.852103 
L 485.198292 231.988827 
L 485.435195 235.112819 
L 485.553458 231.372222 
L 485.907494 234.107862 
L 486.142893 232.800118 
L 486.260406 232.291791 
L 486.377795 232.644057 
L 486.49506 231.602692 
L 486.612202 233.714871 
L 486.72922 232.023605 
L 486.962889 237.204393 
L 487.312473 233.24028 
L 487.776883 236.266565 
L 487.892684 235.502813 
L 488.008363 236.013686 
L 488.123923 238.859956 
L 488.469883 234.685805 
L 488.584964 234.838098 
L 488.699927 236.894046 
L 488.929496 235.774333 
L 489.044102 236.002517 
L 489.158592 236.717922 
L 489.387217 233.795807 
L 489.501353 235.50943 
L 489.729276 234.151651 
L 489.956732 236.317614 
L 490.183724 237.410614 
L 490.297046 237.032434 
L 490.410254 234.79074 
L 490.636323 238.76069 
L 490.749186 238.667937 
L 490.974568 228.631761 
L 491.199494 236.978978 
L 491.311787 235.940811 
L 491.536033 233.451344 
L 491.759828 235.603636 
L 491.871557 234.582611 
L 492.094679 236.381317 
L 492.206072 235.443919 
L 492.428524 237.3215 
L 492.539584 236.526657 
L 492.76137 239.387437 
L 492.872098 237.215418 
L 493.093224 238.863515 
L 493.203622 238.351 
L 493.42409 239.406501 
L 493.644122 236.386969 
L 493.753975 236.774196 
L 493.863719 237.644784 
L 493.973355 239.716428 
L 494.082884 238.396255 
L 494.192305 235.715034 
L 494.301618 237.65477 
L 494.410823 236.807911 
L 494.519922 237.216302 
L 494.628914 235.544461 
L 494.95525 236.090799 
L 495.172276 237.786184 
L 495.280631 236.978748 
L 495.38888 237.218861 
L 495.605063 239.580766 
L 495.712997 237.721438 
L 495.820827 238.701096 
L 496.036172 236.773417 
L 496.143689 236.509791 
L 496.251102 236.670179 
L 496.358411 235.844196 
L 496.57272 237.494555 
L 496.679719 237.341609 
L 496.89341 233.174086 
L 497.000102 233.205152 
L 497.106692 235.875278 
L 497.213179 234.599011 
L 497.319564 231.701178 
L 497.532031 236.157823 
L 497.638112 236.828616 
L 497.744092 235.750447 
L 497.95575 236.657697 
L 498.167005 238.791665 
L 498.272483 238.47415 
L 498.37786 238.864749 
L 498.483138 240.175443 
L 498.588317 237.989801 
L 498.693396 238.664215 
L 498.798375 238.282579 
L 499.008038 236.684364 
L 499.112722 236.952197 
L 499.321793 240.034452 
L 499.426182 239.63613 
L 499.530473 239.714285 
L 499.634666 239.249063 
L 499.842759 237.728879 
L 499.94666 239.255636 
L 500.154172 238.228407 
L 500.257783 238.82941 
L 500.361297 241.104847 
L 500.464715 241.023424 
L 500.568037 240.945688 
L 500.671263 241.560908 
L 500.877428 237.959668 
L 500.980367 240.439856 
L 501.083212 239.898988 
L 501.288615 237.917077 
L 501.391175 239.28789 
L 501.493641 239.065826 
L 501.596012 235.545746 
L 501.90256 239.175692 
L 502.004556 238.375327 
L 502.208267 240.678941 
L 502.411605 240.91069 
L 502.614572 242.951443 
L 502.715917 240.923261 
L 502.81717 240.955292 
L 502.918331 239.529294 
L 503.019399 240.313376 
L 503.120376 240.130374 
L 503.221262 239.667302 
L 503.322056 239.748902 
L 503.62389 243.677729 
L 503.72432 240.696334 
L 503.82466 240.773403 
L 504.025067 241.063565 
L 504.225114 239.652559 
L 504.325003 242.433029 
L 504.424802 241.548841 
L 504.524511 241.847905 
L 504.624132 242.638786 
L 505.021723 241.666179 
L 505.120899 241.582953 
L 505.219987 240.404329 
L 505.417898 243.503593 
L 505.615458 242.202037 
L 505.714106 241.60227 
L 505.812667 241.759731 
L 505.911141 242.325475 
L 506.009528 241.960076 
L 506.107827 244.077763 
L 506.304166 241.063603 
L 506.402206 240.929817 
L 506.50016 240.603331 
L 506.695808 242.488356 
L 506.891113 243.314329 
L 506.988637 243.244034 
L 507.183429 241.318766 
L 507.280697 242.45082 
L 507.474978 241.481908 
L 507.571992 242.359161 
L 507.765765 240.830949 
L 507.862526 242.766176 
L 507.959202 242.632242 
L 508.055794 244.207793 
L 508.248728 241.228645 
L 508.537502 242.812113 
L 508.729602 241.78036 
L 508.825528 241.885468 
L 509.017132 240.137993 
L 509.11281 241.486395 
L 509.30392 240.404046 
L 509.494703 241.824955 
L 509.589971 241.995937 
L 509.780264 241.019568 
L 509.875289 244.858084 
L 509.970232 242.03186 
L 510.065094 242.552392 
L 510.159876 242.429071 
L 510.254576 242.095593 
L 510.443737 243.802591 
L 510.538196 242.838742 
L 510.632575 244.822698 
L 510.726875 242.907143 
L 510.821094 243.191815 
L 510.915234 243.575135 
L 511.009294 242.606035 
L 511.103275 242.969636 
L 511.197176 241.764187 
L 511.290998 243.368938 
L 511.384741 241.515398 
L 511.478405 242.659868 
L 511.665497 240.981275 
L 511.852275 244.35736 
L 511.945546 243.343582 
L 512.038739 244.246837 
L 512.224892 242.366828 
L 512.317851 242.776155 
L 512.410733 242.566104 
L 512.503538 242.6286 
L 512.596265 244.344701 
L 512.781487 243.02332 
L 512.873983 244.314133 
L 512.966402 243.285147 
L 513.058744 243.606303 
L 513.243198 242.52337 
L 513.427347 245.305881 
L 513.519308 244.56419 
L 513.611192 242.757905 
L 513.703001 243.012755 
L 513.794734 242.871887 
L 513.977973 239.957917 
L 514.16091 244.273977 
L 514.252266 244.040114 
L 514.343548 242.904212 
L 514.434754 243.036731 
L 514.707925 244.286784 
L 514.798833 244.15964 
L 514.889667 243.353444 
L 515.071112 243.767033 
L 515.161724 243.759002 
L 515.252262 244.013573 
L 515.433118 242.637346 
L 515.61368 243.885335 
L 515.703851 242.627535 
L 515.793949 243.849056 
L 515.883974 242.331378 
L 516.063806 244.589987 
L 516.153613 243.150046 
L 516.243348 243.333853 
L 516.33301 242.471822 
L 516.512118 243.781035 
L 516.690938 242.539413 
L 516.780241 242.951966 
L 516.869471 242.173742 
L 517.047718 242.619569 
L 517.136735 242.340595 
L 517.22568 242.369325 
L 517.314554 244.194047 
L 517.580752 242.65267 
L 517.669343 242.822955 
L 517.757863 243.677084 
L 517.846313 242.670815 
L 517.934693 244.598374 
L 518.023003 244.315419 
L 518.199412 243.784228 
L 518.287512 243.891734 
L 518.375542 244.398615 
L 518.551394 243.025167 
L 518.814651 244.636365 
L 518.902265 244.616602 
L 518.98981 243.105339 
L 519.252033 246.403994 
L 519.426505 243.360746 
L 519.600704 245.229409 
L 519.774631 241.32141 
L 519.861492 244.112144 
L 520.035012 242.141116 
L 520.12167 243.676398 
L 520.294785 242.592666 
L 520.381241 243.834592 
L 520.46763 243.079703 
L 520.553953 244.87939 
L 520.726396 243.76889 
L 520.812518 243.850599 
L 520.898573 244.090933 
L 521.070483 241.601171 
L 521.242128 245.444054 
L 521.327852 243.43933 
L 521.413509 243.71465 
L 521.584626 244.113406 
L 521.670086 244.735205 
L 521.755481 246.320355 
L 521.926073 243.338781 
L 522.011271 245.161 
L 522.096404 244.925536 
L 522.181471 243.229341 
L 522.266474 243.515877 
L 522.351412 243.524867 
L 522.436285 243.127517 
L 522.521093 243.398818 
L 522.605837 242.745146 
L 522.775131 245.099478 
L 522.944167 242.086139 
L 523.112948 244.618302 
L 523.197242 242.633464 
L 523.281472 242.910867 
L 523.365638 242.907578 
L 523.449741 243.017 
L 523.533781 243.979771 
L 523.617757 243.646003 
L 523.701669 244.178937 
L 523.785518 243.181909 
L 523.869305 243.447331 
L 524.036688 242.206995 
L 524.120285 242.917595 
L 524.203819 242.771678 
L 524.287291 243.084996 
L 524.3707 242.544144 
L 524.454047 242.658022 
L 524.537331 242.725168 
L 524.620553 243.093288 
L 524.78681 244.723773 
L 524.952819 243.130923 
L 525.035731 243.36262 
L 525.201369 245.687653 
L 525.284096 241.812868 
L 525.366761 242.117768 
L 525.449365 241.400474 
L 525.531908 241.694404 
L 525.614389 243.653478 
L 525.696809 243.139922 
L 525.779168 241.656553 
L 525.943704 243.975862 
L 526.107997 242.489069 
L 526.272047 243.964838 
L 526.353981 243.111364 
L 526.51767 244.460484 
L 526.681117 241.935632 
L 526.762751 242.288781 
L 526.925839 245.713707 
L 527.007294 245.249021 
L 527.170024 242.503202 
L 527.2513 243.991792 
L 527.332516 243.167815 
L 527.413674 243.366544 
L 527.494772 243.648547 
L 527.575811 242.846189 
L 527.656791 244.12951 
L 527.818574 239.887368 
L 527.980123 241.677404 
L 528.060809 241.622509 
L 528.141437 242.830868 
L 528.222006 242.757702 
L 528.38297 241.518355 
L 528.463365 242.219285 
L 528.62398 240.994924 
L 528.704201 242.321273 
L 528.864469 241.008363 
L 528.944517 241.256327 
L 529.024507 240.537921 
L 529.104439 240.935579 
L 529.184314 239.829179 
L 529.343892 242.093799 
L 529.423596 241.574394 
L 529.503242 241.693393 
L 529.582831 241.35246 
L 529.662364 241.531683 
L 529.741839 241.071108 
L 529.90062 241.406724 
L 529.979926 240.243634 
L 530.138368 241.825255 
L 530.296584 240.530736 
L 530.533487 243.732078 
L 530.612343 242.708083 
L 530.691143 243.154087 
L 530.769887 243.030299 
L 530.848576 241.405689 
L 530.927208 242.177009 
L 531.005786 241.99507 
L 531.162774 240.99349 
L 531.241185 241.293467 
L 531.319541 242.10469 
L 531.476087 241.235172 
L 531.632413 242.922466 
L 531.78852 241.739794 
L 532.02227 240.091474 
L 532.177831 242.771054 
L 532.25553 241.89654 
L 532.333175 243.541492 
L 532.488302 241.079599 
L 532.643213 242.056046 
L 532.720587 240.564224 
L 532.952389 243.02028 
L 533.029549 243.378969 
L 533.106655 243.038985 
L 533.183709 243.461928 
L 533.260708 242.777599 
L 533.337655 240.770412 
L 533.414548 241.049857 
L 533.491388 242.998039 
L 533.568175 241.877326 
L 533.644909 242.838518 
L 533.72159 242.619019 
L 533.798219 241.351902 
L 533.951317 244.708966 
L 534.104205 239.711023 
L 534.256884 241.848851 
L 534.409353 243.942869 
L 534.485509 242.799683 
L 534.561613 243.863511 
L 534.637665 243.639349 
L 534.713665 241.483237 
L 534.789613 241.911315 
L 534.941354 240.315891 
L 535.092888 241.469631 
L 535.244216 240.443679 
L 535.395339 243.291825 
L 535.546256 241.365673 
L 535.621638 241.627318 
L 535.772249 239.948332 
L 535.922656 241.12703 
L 535.997783 240.202192 
L 536.147886 242.093657 
L 536.222861 239.713727 
L 536.297786 240.191745 
L 536.447485 242.518462 
L 536.522259 242.009074 
L 536.596982 242.623644 
L 536.746279 241.612722 
L 536.820852 239.969162 
L 536.895376 241.926758 
L 537.044273 240.576947 
L 537.118647 241.001831 
L 537.192971 239.195787 
L 537.267245 239.490431 
L 537.489772 243.363349 
L 537.563848 242.553405 
L 537.637876 243.484042 
L 537.785783 242.433736 
L 537.859663 242.769482 
L 537.933493 241.375608 
L 538.007275 241.494439 
L 538.081008 241.55309 
L 538.228327 232.55872 
L 538.448941 243.381745 
L 538.522382 245.253075 
L 538.669118 240.964037 
L 538.962011 242.911099 
L 539.035114 242.655983 
L 539.108169 241.498149 
L 539.181176 243.689413 
L 539.327046 241.426615 
L 539.39991 242.493259 
L 539.472726 240.033527 
L 539.545494 241.178729 
L 539.690887 242.56615 
L 539.763513 242.523043 
L 539.836091 242.187547 
L 539.908622 240.686142 
L 539.981105 242.904216 
L 540.053542 242.895045 
L 540.125931 243.172448 
L 540.198273 244.632298 
L 540.342817 240.5103 
L 540.55928 242.489313 
L 540.631341 242.605576 
L 540.703355 241.432035 
L 540.847244 243.976021 
L 540.919119 243.42953 
L 540.990947 241.315564 
L 541.062729 242.222488 
L 541.206154 241.233247 
L 541.277797 242.497061 
L 541.420945 235.034143 
L 541.635323 242.754451 
L 541.70669 240.184352 
L 541.920518 245.422331 
L 542.062842 244.171708 
L 542.133935 246.054854 
L 542.204984 244.260549 
L 542.275987 244.569075 
L 542.488724 242.64316 
L 542.559546 217.844102 
L 542.630323 219.87295 
L 542.701055 243.772857 
L 542.771742 241.783555 
L 542.842384 244.998446 
L 542.912981 243.621086 
L 542.983534 240.767116 
L 543.194923 246.222033 
L 543.546349 242.739939 
L 543.756673 246.887143 
L 543.966599 243.78808 
L 544.036487 244.16969 
L 544.17613 242.969629 
L 544.245886 244.723788 
L 544.385267 242.480925 
L 544.454892 242.887537 
L 544.524474 244.967814 
L 544.594012 244.08985 
L 544.663507 245.173784 
L 544.732958 244.84666 
L 544.802366 244.71216 
L 544.941052 246.298859 
L 545.079565 244.134848 
L 545.148757 246.456772 
L 545.217906 245.504557 
L 545.287012 244.122532 
L 545.356075 244.696498 
L 545.425095 244.427333 
L 545.494072 243.440708 
L 545.563007 244.034566 
L 545.700748 245.524057 
L 545.838319 242.991905 
L 545.97572 245.463498 
L 546.112952 244.620043 
L 546.181504 246.052228 
L 546.250014 244.681998 
L 546.318482 245.329719 
L 546.386908 245.350614 
L 546.591933 242.509673 
L 546.728406 245.045255 
L 546.796581 243.145728 
L 547.000853 246.115537 
L 547.06886 247.378759 
L 547.136826 247.126466 
L 547.272633 244.631655 
L 547.408274 243.684835 
L 547.679062 248.465395 
L 547.746656 248.194906 
L 547.881722 244.22956 
L 547.949193 244.418068 
L 548.016623 246.828814 
L 548.151361 244.04994 
L 548.218668 244.965388 
L 548.285935 244.25819 
L 548.420348 245.490697 
L 548.487493 244.523554 
L 548.688686 246.690064 
L 548.755669 246.511199 
L 548.822612 246.875688 
L 548.889515 246.79452 
L 548.956378 246.350809 
L 549.0232 244.635426 
L 549.156725 246.644986 
L 549.223427 244.885185 
L 549.29009 245.660314 
L 549.356712 246.23843 
L 549.423295 244.409173 
L 549.489837 247.277488 
L 549.55634 245.815582 
L 549.622803 244.080847 
L 549.689227 244.795038 
L 549.88826 246.774387 
L 550.02075 246.424326 
L 550.153084 247.306687 
L 550.28526 244.067369 
L 550.351289 244.175176 
L 550.417279 245.372778 
L 550.48323 244.637511 
L 550.549141 245.618312 
L 550.615014 244.757941 
L 550.812398 246.387945 
L 550.878115 246.248962 
L 550.943794 245.588674 
L 551.009433 245.824495 
L 551.140596 247.063337 
L 551.206119 246.950808 
L 551.271604 244.156464 
L 551.337051 244.873243 
L 551.402459 247.143917 
L 551.467828 246.461245 
L 551.533159 245.248782 
L 551.598452 246.056471 
L 551.663706 245.808843 
L 551.728922 242.972619 
L 551.924341 248.076811 
L 552.05443 245.24472 
L 552.249279 248.353558 
L 552.314153 249.070939 
L 552.443787 245.734341 
L 552.57327 246.904834 
L 552.637955 246.856369 
L 552.767213 247.840696 
L 552.831785 247.360788 
L 552.960818 248.245183 
L 553.089701 245.826756 
L 553.218435 247.218087 
L 553.282746 247.515214 
L 553.34702 246.838192 
L 553.475456 248.278952 
L 553.539619 248.151791 
L 553.603745 248.076742 
L 553.667834 248.144704 
L 553.859879 245.935343 
L 553.987725 246.997928 
L 554.051593 245.987531 
L 554.115424 246.988349 
L 554.179219 246.341067 
L 554.242977 247.205383 
L 554.306699 246.322097 
L 554.497645 247.429703 
L 554.561221 247.916001 
L 554.688264 246.765865 
L 554.878556 250.577765 
L 555.068524 246.488933 
L 555.131775 246.872869 
L 555.194989 246.805089 
L 555.258168 246.823846 
L 555.384418 248.19999 
L 555.447489 247.421584 
L 555.573524 250.515261 
L 555.699417 247.377813 
L 555.76231 248.130723 
L 555.825167 247.885509 
L 555.887989 247.448474 
L 555.950775 247.630588 
L 556.138922 247.257927 
L 556.201567 248.262144 
L 556.264176 251.530532 
L 556.326751 249.944839 
L 556.514263 246.790902 
L 556.576697 247.547314 
L 556.639096 247.131759 
L 556.70146 247.439961 
L 556.763789 246.447346 
L 556.826083 247.577288 
L 556.888342 247.427336 
L 556.950567 247.384159 
L 557.012756 248.041054 
L 557.074911 250.02343 
L 557.137031 247.585105 
L 557.199117 247.998315 
L 557.261168 247.32333 
L 557.385165 248.294158 
L 557.447113 248.090781 
L 557.509025 246.619614 
L 557.570903 247.190886 
L 557.694557 248.204851 
L 557.756332 246.491513 
L 557.818073 246.778297 
L 557.879779 249.349721 
L 557.941451 247.434986 
L 558.00309 247.680316 
L 558.064694 246.671158 
L 558.126264 246.765268 
L 558.310769 248.743139 
L 558.433603 247.240952 
L 558.6176 248.746654 
L 558.678865 247.64101 
L 558.801293 250.242201 
L 558.862457 249.733952 
L 558.984683 247.77961 
L 559.045746 248.92449 
L 559.106775 249.931653 
L 559.167771 247.892229 
L 559.228734 248.935596 
L 559.411421 246.800277 
L 559.654538 249.110301 
L 559.715235 248.989105 
L 559.775898 246.918633 
L 559.836528 250.564307 
L 559.897125 248.875253 
L 559.957689 248.22071 
L 560.018221 248.346602 
L 560.078719 248.757258 
L 560.139184 250.332377 
L 560.199617 249.100629 
L 560.441019 239.097307 
L 560.561524 248.605261 
L 560.621728 248.540655 
L 560.681899 247.059025 
L 560.742037 247.952311 
L 560.802143 247.789633 
L 560.922258 249.31184 
L 561.102186 246.902319 
L 561.162098 247.875474 
L 561.162098 247.875474 
" clip-path="url(#pf4aaafbbf0)" style="fill: none; stroke: #2ca02c; stroke-linecap: square"/>
   </g>
   <g id="patch_3">
    <path d="M 48.982813 294.590247 
L 48.982813 22.318125 
" style="fill: none; stroke: #000000; stroke-width: 0.8; stroke-linejoin: miter; stroke-linecap: square"/>
   </g>
   <g id="patch_4">
    <path d="M 561.197812 294.590247 
L 561.197812 22.318125 
" style="fill: none; stroke: #000000; stroke-width: 0.8; stroke-linejoin: miter; stroke-linecap: square"/>
   </g>
   <g id="patch_5">
    <path d="M 48.982813 294.590247 
L 561.197812 294.590247 
" style="fill: none; stroke: #000000; stroke-width: 0.8; stroke-linejoin: miter; stroke-linecap: square"/>
   </g>
   <g id="patch_6">
    <path d="M 48.982813 22.318125 
L 561.197812 22.318125 
" style="fill: none; stroke: #000000; stroke-width: 0.8; stroke-linejoin: miter; stroke-linecap: square"/>
   </g>
   <g id="text_14">
    <!-- Toyota Tundra Blower Setting 3 - Narrow Band SPL (dBA) -->
    <g transform="translate(135.736562 16.318125) scale(0.12 -0.12)">
     <defs>
      <path id="DejaVuSans-54" d="M -19 4666 
L 3928 4666 
L 3928 4134 
L 2272 4134 
L 2272 0 
L 1638 0 
L 1638 4134 
L -19 4134 
L -19 4666 
z
" transform="scale(0.015625)"/>
      <path id="DejaVuSans-6f" d="M 1959 3097 
Q 1497 3097 1228 2736 
Q 959 2375 959 1747 
Q 959 1119 1226 758 
Q 1494 397 1959 397 
Q 2419 397 2687 759 
Q 2956 1122 2956 1747 
Q 2956 2369 2687 2733 
Q 2419 3097 1959 3097 
z
M 1959 3584 
Q 2709 3584 3137 3096 
Q 3566 2609 3566 1747 
Q 3566 888 3137 398 
Q 2709 -91 1959 -91 
Q 1206 -91 779 398 
Q 353 888 353 1747 
Q 353 2609 779 3096 
Q 1206 3584 1959 3584 
z
" transform="scale(0.015625)"/>
      <path id="DejaVuSans-74" d="M 1172 4494 
L 1172 3500 
L 2356 3500 
L 2356 3053 
L 1172 3053 
L 1172 1153 
Q 1172 725 1289 603 
Q 1406 481 1766 481 
L 2356 481 
L 2356 0 
L 1766 0 
Q 1100 0 847 248 
Q 594 497 594 1153 
L 594 3053 
L 172 3053 
L 172 3500 
L 594 3500 
L 594 4494 
L 1172 4494 
z
" transform="scale(0.015625)"/>
      <path id="DejaVuSans-61" d="M 2194 1759 
Q 1497 1759 1228 1600 
Q 959 1441 959 1056 
Q 959 750 1161 570 
Q 1363 391 1709 391 
Q 2188 391 2477 730 
Q 2766 1069 2766 1631 
L 2766 1759 
L 2194 1759 
z
M 3341 1997 
L 3341 0 
L 2766 0 
L 2766 531 
Q 2569 213 2275 61 
Q 1981 -91 1556 -91 
Q 1019 -91 701 211 
Q 384 513 384 1019 
Q 384 1609 779 1909 
Q 1175 2209 1959 2209 
L 2766 2209 
L 2766 2266 
Q 2766 2663 2505 2880 
Q 2244 3097 1772 3097 
Q 1472 3097 1187 3025 
Q 903 2953 641 2809 
L 641 3341 
Q 956 3463 1253 3523 
Q 1550 3584 1831 3584 
Q 2591 3584 2966 3190 
Q 3341 2797 3341 1997 
z
" transform="scale(0.015625)"/>
      <path id="DejaVuSans-6c" d="M 603 4863 
L 1178 4863 
L 1178 0 
L 603 0 
L 603 4863 
z
" transform="scale(0.015625)"/>
      <path id="DejaVuSans-77" d="M 269 3500 
L 844 3500 
L 1563 769 
L 2278 3500 
L 2956 3500 
L 3675 769 
L 4391 3500 
L 4966 3500 
L 4050 0 
L 3372 0 
L 2619 2869 
L 1863 0 
L 1184 0 
L 269 3500 
z
" transform="scale(0.015625)"/>
      <path id="DejaVuSans-69" d="M 603 3500 
L 1178 3500 
L 1178 0 
L 603 0 
L 603 3500 
z
M 603 4863 
L 1178 4863 
L 1178 4134 
L 603 4134 
L 603 4863 
z
" transform="scale(0.015625)"/>
      <path id="DejaVuSans-67" d="M 2906 1791 
Q 2906 2416 2648 2759 
Q 2391 3103 1925 3103 
Q 1463 3103 1205 2759 
Q 947 2416 947 1791 
Q 947 1169 1205 825 
Q 1463 481 1925 481 
Q 2391 481 2648 825 
Q 2906 1169 2906 1791 
z
M 3481 434 
Q 3481 -459 3084 -895 
Q 2688 -1331 1869 -1331 
Q 1566 -1331 1297 -1286 
Q 1028 -1241 775 -1147 
L 775 -588 
Q 1028 -725 1275 -790 
Q 1522 -856 1778 -856 
Q 2344 -856 2625 -561 
Q 2906 -266 2906 331 
L 2906 616 
Q 2728 306 2450 153 
Q 2172 0 1784 0 
Q 1141 0 747 490 
Q 353 981 353 1791 
Q 353 2603 747 3093 
Q 1141 3584 1784 3584 
Q 2172 3584 2450 3431 
Q 2728 3278 2906 2969 
L 2906 3500 
L 3481 3500 
L 3481 434 
z
" transform="scale(0.015625)"/>
      <path id="DejaVuSans-2d" d="M 313 2009 
L 1997 2009 
L 1997 1497 
L 313 1497 
L 313 2009 
z
" transform="scale(0.015625)"/>
      <path id="DejaVuSans-4e" d="M 628 4666 
L 1478 4666 
L 3547 763 
L 3547 4666 
L 4159 4666 
L 4159 0 
L 3309 0 
L 1241 3903 
L 1241 0 
L 628 0 
L 628 4666 
z
" transform="scale(0.015625)"/>
     </defs>
     <use xlink:href="#DejaVuSans-54"/>
     <use xlink:href="#DejaVuSans-6f" transform="translate(44.083984 0)"/>
     <use xlink:href="#DejaVuSans-79" transform="translate(105.265625 0)"/>
     <use xlink:href="#DejaVuSans-6f" transform="translate(164.445312 0)"/>
     <use xlink:href="#DejaVuSans-74" transform="translate(225.626953 0)"/>
     <use xlink:href="#DejaVuSans-61" transform="translate(264.835938 0)"/>
     <use xlink:href="#DejaVuSans-20" transform="translate(326.115234 0)"/>
     <use xlink:href="#DejaVuSans-54" transform="translate(357.902344 0)"/>
     <use xlink:href="#DejaVuSans-75" transform="translate(403.861328 0)"/>
     <use xlink:href="#DejaVuSans-6e" transform="translate(467.240234 0)"/>
     <use xlink:href="#DejaVuSans-64" transform="translate(530.619141 0)"/>
     <use xlink:href="#DejaVuSans-72" transform="translate(594.095703 0)"/>
     <use xlink:href="#DejaVuSans-61" transform="translate(635.208984 0)"/>
     <use xlink:href="#DejaVuSans-20" transform="translate(696.488281 0)"/>
     <use xlink:href="#DejaVuSans-42" transform="translate(728.275391 0)"/>
     <use xlink:href="#DejaVuSans-6c" transform="translate(796.878906 0)"/>
     <use xlink:href="#DejaVuSans-6f" transform="translate(824.662109 0)"/>
     <use xlink:href="#DejaVuSans-77" transform="translate(885.84375 0)"/>
     <use xlink:href="#DejaVuSans-65" transform="translate(967.630859 0)"/>
     <use xlink:href="#DejaVuSans-72" transform="translate(1029.154297 0)"/>
     <use xlink:href="#DejaVuSans-20" transform="translate(1070.267578 0)"/>
     <use xlink:href="#DejaVuSans-53" transform="translate(1102.054688 0)"/>
     <use xlink:href="#DejaVuSans-65" transform="translate(1165.53125 0)"/>
     <use xlink:href="#DejaVuSans-74" transform="translate(1227.054688 0)"/>
     <use xlink:href="#DejaVuSans-74" transform="translate(1266.263672 0)"/>
     <use xlink:href="#DejaVuSans-69" transform="translate(1305.472656 0)"/>
     <use xlink:href="#DejaVuSans-6e" transform="translate(1333.255859 0)"/>
     <use xlink:href="#DejaVuSans-67" transform="translate(1396.634766 0)"/>
     <use xlink:href="#DejaVuSans-20" transform="translate(1460.111328 0)"/>
     <use xlink:href="#DejaVuSans-33" transform="translate(1491.898438 0)"/>
     <use xlink:href="#DejaVuSans-20" transform="translate(1555.521484 0)"/>
     <use xlink:href="#DejaVuSans-2d" transform="translate(1587.308594 0)"/>
     <use xlink:href="#DejaVuSans-20" transform="translate(1623.392578 0)"/>
     <use xlink:href="#DejaVuSans-4e" transform="translate(1655.179688 0)"/>
     <use xlink:href="#DejaVuSans-61" transform="translate(1729.984375 0)"/>
     <use xlink:href="#DejaVuSans-72" transform="translate(1791.263672 0)"/>
     <use xlink:href="#DejaVuSans-72" transform="translate(1830.626953 0)"/>
     <use xlink:href="#DejaVuSans-6f" transform="translate(1869.490234 0)"/>
     <use xlink:href="#DejaVuSans-77" transform="translate(1930.671875 0)"/>
     <use xlink:href="#DejaVuSans-20" transform="translate(2012.458984 0)"/>
     <use xlink:href="#DejaVuSans-42" transform="translate(2044.246094 0)"/>
     <use xlink:href="#DejaVuSans-61" transform="translate(2112.849609 0)"/>
     <use xlink:href="#DejaVuSans-6e" transform="translate(2174.128906 0)"/>
     <use xlink:href="#DejaVuSans-64" transform="translate(2237.507812 0)"/>
     <use xlink:href="#DejaVuSans-20" transform="translate(2300.984375 0)"/>
     <use xlink:href="#DejaVuSans-53" transform="translate(2332.771484 0)"/>
     <use xlink:href="#DejaVuSans-50" transform="translate(2396.248047 0)"/>
     <use xlink:href="#DejaVuSans-4c" transform="translate(2456.550781 0)"/>
     <use xlink:href="#DejaVuSans-20" transform="translate(2512.263672 0)"/>
     <use xlink:href="#DejaVuSans-28" transform="translate(2544.050781 0)"/>
     <use xlink:href="#DejaVuSans-64" transform="translate(2583.064453 0)"/>
     <use xlink:href="#DejaVuSans-42" transform="translate(2646.541016 0)"/>
     <use xlink:href="#DejaVuSans-41" transform="translate(2715.144531 0)"/>
     <use xlink:href="#DejaVuSans-29" transform="translate(2783.552734 0)"/>
    </g>
   </g>
  </g>
 </g>
 <defs>
  <clipPath id="pf4aaafbbf0">
   <rect x="48.982813" y="22.318125" width="512.215" height="272.272122"/>
  </clipPath>
 </defs>
</svg>
