<?xml version="1.0" encoding="utf-8" standalone="no"?>
<!DOCTYPE svg PUBLIC "-//W3C//DTD SVG 1.1//EN"
  "http://www.w3.org/Graphics/SVG/1.1/DTD/svg11.dtd">
<svg xmlns:xlink="http://www.w3.org/1999/xlink" width="568.397812pt" height="351.806674pt" viewBox="0 0 568.397812 351.806674" xmlns="http://www.w3.org/2000/svg" version="1.1">
 <metadata>
  <rdf:RDF xmlns:dc="http://purl.org/dc/elements/1.1/" xmlns:cc="http://creativecommons.org/ns#" xmlns:rdf="http://www.w3.org/1999/02/22-rdf-syntax-ns#">
   <cc:Work>
    <dc:type rdf:resource="http://purl.org/dc/dcmitype/StillImage"/>
    <dc:date>2025-04-24T21:37:21.702219</dc:date>
    <dc:format>image/svg+xml</dc:format>
    <dc:creator>
     <cc:Agent>
      <dc:title>Matplotlib v3.10.0, https://matplotlib.org/</dc:title>
     </cc:Agent>
    </dc:creator>
   </cc:Work>
  </rdf:RDF>
 </metadata>
 <defs>
  <style type="text/css">*{stroke-linejoin: round; stroke-linecap: butt}</style>
 </defs>
 <g id="figure_1">
  <g id="patch_1">
   <path d="M 0 351.806674 
L 568.397812 351.806674 
L 568.397812 0 
L 0 0 
z
" style="fill: #ffffff"/>
  </g>
  <g id="axes_1">
   <g id="patch_2">
    <path d="M 48.982813 294.590247 
L 561.197812 294.590247 
L 561.197812 22.318125 
L 48.982813 22.318125 
z
" style="fill: #ffffff"/>
   </g>
   <g id="matplotlib.axis_1">
    <g id="xtick_1">
     <g id="line2d_1">
      <path d="M 48.982813 294.590247 
L 48.982813 22.318125 
" clip-path="url(#pbc2ff517fd)" style="fill: none; stroke-dasharray: 1.85,0.8; stroke-dashoffset: 0; stroke: #b0b0b0; stroke-width: 0.5"/>
     </g>
     <g id="line2d_2">
      <defs>
       <path id="m9769dea75e" d="M 0 0 
L 0 3.5 
" style="stroke: #000000; stroke-width: 0.8"/>
      </defs>
      <g>
       <use xlink:href="#m9769dea75e" x="48.982813" y="294.590247" style="stroke: #000000; stroke-width: 0.8"/>
      </g>
     </g>
     <g id="text_1">
      <!-- 100 -->
      <g transform="translate(34.015351 320.460054) rotate(-45) scale(0.1 -0.1)">
       <defs>
        <path id="DejaVuSans-31" d="M 794 531 
L 1825 531 
L 1825 4091 
L 703 3866 
L 703 4441 
L 1819 4666 
L 2450 4666 
L 2450 531 
L 3481 531 
L 3481 0 
L 794 0 
L 794 531 
z
" transform="scale(0.015625)"/>
        <path id="DejaVuSans-30" d="M 2034 4250 
Q 1547 4250 1301 3770 
Q 1056 3291 1056 2328 
Q 1056 1369 1301 889 
Q 1547 409 2034 409 
Q 2525 409 2770 889 
Q 3016 1369 3016 2328 
Q 3016 3291 2770 3770 
Q 2525 4250 2034 4250 
z
M 2034 4750 
Q 2819 4750 3233 4129 
Q 3647 3509 3647 2328 
Q 3647 1150 3233 529 
Q 2819 -91 2034 -91 
Q 1250 -91 836 529 
Q 422 1150 422 2328 
Q 422 3509 836 4129 
Q 1250 4750 2034 4750 
z
" transform="scale(0.015625)"/>
       </defs>
       <use xlink:href="#DejaVuSans-31"/>
       <use xlink:href="#DejaVuSans-30" transform="translate(63.623047 0)"/>
       <use xlink:href="#DejaVuSans-30" transform="translate(127.246094 0)"/>
      </g>
     </g>
    </g>
    <g id="xtick_2">
     <g id="line2d_3">
      <path d="M 305.090312 294.590247 
L 305.090312 22.318125 
" clip-path="url(#pbc2ff517fd)" style="fill: none; stroke-dasharray: 1.85,0.8; stroke-dashoffset: 0; stroke: #b0b0b0; stroke-width: 0.5"/>
     </g>
     <g id="line2d_4">
      <g>
       <use xlink:href="#m9769dea75e" x="305.090312" y="294.590247" style="stroke: #000000; stroke-width: 0.8"/>
      </g>
     </g>
     <g id="text_2">
      <!-- 1000 -->
      <g transform="translate(285.623884 324.959021) rotate(-45) scale(0.1 -0.1)">
       <use xlink:href="#DejaVuSans-31"/>
       <use xlink:href="#DejaVuSans-30" transform="translate(63.623047 0)"/>
       <use xlink:href="#DejaVuSans-30" transform="translate(127.246094 0)"/>
       <use xlink:href="#DejaVuSans-30" transform="translate(190.869141 0)"/>
      </g>
     </g>
    </g>
    <g id="xtick_3">
     <g id="line2d_5">
      <path d="M 561.197812 294.590247 
L 561.197812 22.318125 
" clip-path="url(#pbc2ff517fd)" style="fill: none; stroke-dasharray: 1.85,0.8; stroke-dashoffset: 0; stroke: #b0b0b0; stroke-width: 0.5"/>
     </g>
     <g id="line2d_6">
      <g>
       <use xlink:href="#m9769dea75e" x="561.197812" y="294.590247" style="stroke: #000000; stroke-width: 0.8"/>
      </g>
     </g>
     <g id="text_3">
      <!-- 10000 -->
      <g transform="translate(537.232417 329.457988) rotate(-45) scale(0.1 -0.1)">
       <use xlink:href="#DejaVuSans-31"/>
       <use xlink:href="#DejaVuSans-30" transform="translate(63.623047 0)"/>
       <use xlink:href="#DejaVuSans-30" transform="translate(127.246094 0)"/>
       <use xlink:href="#DejaVuSans-30" transform="translate(190.869141 0)"/>
       <use xlink:href="#DejaVuSans-30" transform="translate(254.492188 0)"/>
      </g>
     </g>
    </g>
    <g id="xtick_4">
     <g id="line2d_7">
      <path d="M 126.078852 294.590247 
L 126.078852 22.318125 
" clip-path="url(#pbc2ff517fd)" style="fill: none; stroke-dasharray: 1.85,0.8; stroke-dashoffset: 0; stroke: #b0b0b0; stroke-width: 0.5"/>
     </g>
     <g id="line2d_8">
      <defs>
       <path id="m00119061dc" d="M 0 0 
L 0 2 
" style="stroke: #000000; stroke-width: 0.6"/>
      </defs>
      <g>
       <use xlink:href="#m00119061dc" x="126.078852" y="294.590247" style="stroke: #000000; stroke-width: 0.6"/>
      </g>
     </g>
    </g>
    <g id="xtick_5">
     <g id="line2d_9">
      <path d="M 171.177144 294.590247 
L 171.177144 22.318125 
" clip-path="url(#pbc2ff517fd)" style="fill: none; stroke-dasharray: 1.85,0.8; stroke-dashoffset: 0; stroke: #b0b0b0; stroke-width: 0.5"/>
     </g>
     <g id="line2d_10">
      <g>
       <use xlink:href="#m00119061dc" x="171.177144" y="294.590247" style="stroke: #000000; stroke-width: 0.6"/>
      </g>
     </g>
    </g>
    <g id="xtick_6">
     <g id="line2d_11">
      <path d="M 203.174892 294.590247 
L 203.174892 22.318125 
" clip-path="url(#pbc2ff517fd)" style="fill: none; stroke-dasharray: 1.85,0.8; stroke-dashoffset: 0; stroke: #b0b0b0; stroke-width: 0.5"/>
     </g>
     <g id="line2d_12">
      <g>
       <use xlink:href="#m00119061dc" x="203.174892" y="294.590247" style="stroke: #000000; stroke-width: 0.6"/>
      </g>
     </g>
    </g>
    <g id="xtick_7">
     <g id="line2d_13">
      <path d="M 227.994273 294.590247 
L 227.994273 22.318125 
" clip-path="url(#pbc2ff517fd)" style="fill: none; stroke-dasharray: 1.85,0.8; stroke-dashoffset: 0; stroke: #b0b0b0; stroke-width: 0.5"/>
     </g>
     <g id="line2d_14">
      <g>
       <use xlink:href="#m00119061dc" x="227.994273" y="294.590247" style="stroke: #000000; stroke-width: 0.6"/>
      </g>
     </g>
    </g>
    <g id="xtick_8">
     <g id="line2d_15">
      <path d="M 248.273184 294.590247 
L 248.273184 22.318125 
" clip-path="url(#pbc2ff517fd)" style="fill: none; stroke-dasharray: 1.85,0.8; stroke-dashoffset: 0; stroke: #b0b0b0; stroke-width: 0.5"/>
     </g>
     <g id="line2d_16">
      <g>
       <use xlink:href="#m00119061dc" x="248.273184" y="294.590247" style="stroke: #000000; stroke-width: 0.6"/>
      </g>
     </g>
    </g>
    <g id="xtick_9">
     <g id="line2d_17">
      <path d="M 265.418759 294.590247 
L 265.418759 22.318125 
" clip-path="url(#pbc2ff517fd)" style="fill: none; stroke-dasharray: 1.85,0.8; stroke-dashoffset: 0; stroke: #b0b0b0; stroke-width: 0.5"/>
     </g>
     <g id="line2d_18">
      <g>
       <use xlink:href="#m00119061dc" x="265.418759" y="294.590247" style="stroke: #000000; stroke-width: 0.6"/>
      </g>
     </g>
    </g>
    <g id="xtick_10">
     <g id="line2d_19">
      <path d="M 280.270931 294.590247 
L 280.270931 22.318125 
" clip-path="url(#pbc2ff517fd)" style="fill: none; stroke-dasharray: 1.85,0.8; stroke-dashoffset: 0; stroke: #b0b0b0; stroke-width: 0.5"/>
     </g>
     <g id="line2d_20">
      <g>
       <use xlink:href="#m00119061dc" x="280.270931" y="294.590247" style="stroke: #000000; stroke-width: 0.6"/>
      </g>
     </g>
    </g>
    <g id="xtick_11">
     <g id="line2d_21">
      <path d="M 293.371476 294.590247 
L 293.371476 22.318125 
" clip-path="url(#pbc2ff517fd)" style="fill: none; stroke-dasharray: 1.85,0.8; stroke-dashoffset: 0; stroke: #b0b0b0; stroke-width: 0.5"/>
     </g>
     <g id="line2d_22">
      <g>
       <use xlink:href="#m00119061dc" x="293.371476" y="294.590247" style="stroke: #000000; stroke-width: 0.6"/>
      </g>
     </g>
    </g>
    <g id="xtick_12">
     <g id="line2d_23">
      <path d="M 382.186352 294.590247 
L 382.186352 22.318125 
" clip-path="url(#pbc2ff517fd)" style="fill: none; stroke-dasharray: 1.85,0.8; stroke-dashoffset: 0; stroke: #b0b0b0; stroke-width: 0.5"/>
     </g>
     <g id="line2d_24">
      <g>
       <use xlink:href="#m00119061dc" x="382.186352" y="294.590247" style="stroke: #000000; stroke-width: 0.6"/>
      </g>
     </g>
    </g>
    <g id="xtick_13">
     <g id="line2d_25">
      <path d="M 427.284644 294.590247 
L 427.284644 22.318125 
" clip-path="url(#pbc2ff517fd)" style="fill: none; stroke-dasharray: 1.85,0.8; stroke-dashoffset: 0; stroke: #b0b0b0; stroke-width: 0.5"/>
     </g>
     <g id="line2d_26">
      <g>
       <use xlink:href="#m00119061dc" x="427.284644" y="294.590247" style="stroke: #000000; stroke-width: 0.6"/>
      </g>
     </g>
    </g>
    <g id="xtick_14">
     <g id="line2d_27">
      <path d="M 459.282392 294.590247 
L 459.282392 22.318125 
" clip-path="url(#pbc2ff517fd)" style="fill: none; stroke-dasharray: 1.85,0.8; stroke-dashoffset: 0; stroke: #b0b0b0; stroke-width: 0.5"/>
     </g>
     <g id="line2d_28">
      <g>
       <use xlink:href="#m00119061dc" x="459.282392" y="294.590247" style="stroke: #000000; stroke-width: 0.6"/>
      </g>
     </g>
    </g>
    <g id="xtick_15">
     <g id="line2d_29">
      <path d="M 484.101773 294.590247 
L 484.101773 22.318125 
" clip-path="url(#pbc2ff517fd)" style="fill: none; stroke-dasharray: 1.85,0.8; stroke-dashoffset: 0; stroke: #b0b0b0; stroke-width: 0.5"/>
     </g>
     <g id="line2d_30">
      <g>
       <use xlink:href="#m00119061dc" x="484.101773" y="294.590247" style="stroke: #000000; stroke-width: 0.6"/>
      </g>
     </g>
    </g>
    <g id="xtick_16">
     <g id="line2d_31">
      <path d="M 504.380684 294.590247 
L 504.380684 22.318125 
" clip-path="url(#pbc2ff517fd)" style="fill: none; stroke-dasharray: 1.85,0.8; stroke-dashoffset: 0; stroke: #b0b0b0; stroke-width: 0.5"/>
     </g>
     <g id="line2d_32">
      <g>
       <use xlink:href="#m00119061dc" x="504.380684" y="294.590247" style="stroke: #000000; stroke-width: 0.6"/>
      </g>
     </g>
    </g>
    <g id="xtick_17">
     <g id="line2d_33">
      <path d="M 521.526259 294.590247 
L 521.526259 22.318125 
" clip-path="url(#pbc2ff517fd)" style="fill: none; stroke-dasharray: 1.85,0.8; stroke-dashoffset: 0; stroke: #b0b0b0; stroke-width: 0.5"/>
     </g>
     <g id="line2d_34">
      <g>
       <use xlink:href="#m00119061dc" x="521.526259" y="294.590247" style="stroke: #000000; stroke-width: 0.6"/>
      </g>
     </g>
    </g>
    <g id="xtick_18">
     <g id="line2d_35">
      <path d="M 536.378431 294.590247 
L 536.378431 22.318125 
" clip-path="url(#pbc2ff517fd)" style="fill: none; stroke-dasharray: 1.85,0.8; stroke-dashoffset: 0; stroke: #b0b0b0; stroke-width: 0.5"/>
     </g>
     <g id="line2d_36">
      <g>
       <use xlink:href="#m00119061dc" x="536.378431" y="294.590247" style="stroke: #000000; stroke-width: 0.6"/>
      </g>
     </g>
    </g>
    <g id="xtick_19">
     <g id="line2d_37">
      <path d="M 549.478976 294.590247 
L 549.478976 22.318125 
" clip-path="url(#pbc2ff517fd)" style="fill: none; stroke-dasharray: 1.85,0.8; stroke-dashoffset: 0; stroke: #b0b0b0; stroke-width: 0.5"/>
     </g>
     <g id="line2d_38">
      <g>
       <use xlink:href="#m00119061dc" x="549.478976" y="294.590247" style="stroke: #000000; stroke-width: 0.6"/>
      </g>
     </g>
    </g>
    <g id="text_4">
     <!-- Frequency (Hz) -->
     <g transform="translate(267.385625 342.526987) scale(0.1 -0.1)">
      <defs>
       <path id="DejaVuSans-46" d="M 628 4666 
L 3309 4666 
L 3309 4134 
L 1259 4134 
L 1259 2759 
L 3109 2759 
L 3109 2228 
L 1259 2228 
L 1259 0 
L 628 0 
L 628 4666 
z
" transform="scale(0.015625)"/>
       <path id="DejaVuSans-72" d="M 2631 2963 
Q 2534 3019 2420 3045 
Q 2306 3072 2169 3072 
Q 1681 3072 1420 2755 
Q 1159 2438 1159 1844 
L 1159 0 
L 581 0 
L 581 3500 
L 1159 3500 
L 1159 2956 
Q 1341 3275 1631 3429 
Q 1922 3584 2338 3584 
Q 2397 3584 2469 3576 
Q 2541 3569 2628 3553 
L 2631 2963 
z
" transform="scale(0.015625)"/>
       <path id="DejaVuSans-65" d="M 3597 1894 
L 3597 1613 
L 953 1613 
Q 991 1019 1311 708 
Q 1631 397 2203 397 
Q 2534 397 2845 478 
Q 3156 559 3463 722 
L 3463 178 
Q 3153 47 2828 -22 
Q 2503 -91 2169 -91 
Q 1331 -91 842 396 
Q 353 884 353 1716 
Q 353 2575 817 3079 
Q 1281 3584 2069 3584 
Q 2775 3584 3186 3129 
Q 3597 2675 3597 1894 
z
M 3022 2063 
Q 3016 2534 2758 2815 
Q 2500 3097 2075 3097 
Q 1594 3097 1305 2825 
Q 1016 2553 972 2059 
L 3022 2063 
z
" transform="scale(0.015625)"/>
       <path id="DejaVuSans-71" d="M 947 1747 
Q 947 1113 1208 752 
Q 1469 391 1925 391 
Q 2381 391 2643 752 
Q 2906 1113 2906 1747 
Q 2906 2381 2643 2742 
Q 2381 3103 1925 3103 
Q 1469 3103 1208 2742 
Q 947 2381 947 1747 
z
M 2906 525 
Q 2725 213 2448 61 
Q 2172 -91 1784 -91 
Q 1150 -91 751 415 
Q 353 922 353 1747 
Q 353 2572 751 3078 
Q 1150 3584 1784 3584 
Q 2172 3584 2448 3432 
Q 2725 3281 2906 2969 
L 2906 3500 
L 3481 3500 
L 3481 -1331 
L 2906 -1331 
L 2906 525 
z
" transform="scale(0.015625)"/>
       <path id="DejaVuSans-75" d="M 544 1381 
L 544 3500 
L 1119 3500 
L 1119 1403 
Q 1119 906 1312 657 
Q 1506 409 1894 409 
Q 2359 409 2629 706 
Q 2900 1003 2900 1516 
L 2900 3500 
L 3475 3500 
L 3475 0 
L 2900 0 
L 2900 538 
Q 2691 219 2414 64 
Q 2138 -91 1772 -91 
Q 1169 -91 856 284 
Q 544 659 544 1381 
z
M 1991 3584 
L 1991 3584 
z
" transform="scale(0.015625)"/>
       <path id="DejaVuSans-6e" d="M 3513 2113 
L 3513 0 
L 2938 0 
L 2938 2094 
Q 2938 2591 2744 2837 
Q 2550 3084 2163 3084 
Q 1697 3084 1428 2787 
Q 1159 2491 1159 1978 
L 1159 0 
L 581 0 
L 581 3500 
L 1159 3500 
L 1159 2956 
Q 1366 3272 1645 3428 
Q 1925 3584 2291 3584 
Q 2894 3584 3203 3211 
Q 3513 2838 3513 2113 
z
" transform="scale(0.015625)"/>
       <path id="DejaVuSans-63" d="M 3122 3366 
L 3122 2828 
Q 2878 2963 2633 3030 
Q 2388 3097 2138 3097 
Q 1578 3097 1268 2742 
Q 959 2388 959 1747 
Q 959 1106 1268 751 
Q 1578 397 2138 397 
Q 2388 397 2633 464 
Q 2878 531 3122 666 
L 3122 134 
Q 2881 22 2623 -34 
Q 2366 -91 2075 -91 
Q 1284 -91 818 406 
Q 353 903 353 1747 
Q 353 2603 823 3093 
Q 1294 3584 2113 3584 
Q 2378 3584 2631 3529 
Q 2884 3475 3122 3366 
z
" transform="scale(0.015625)"/>
       <path id="DejaVuSans-79" d="M 2059 -325 
Q 1816 -950 1584 -1140 
Q 1353 -1331 966 -1331 
L 506 -1331 
L 506 -850 
L 844 -850 
Q 1081 -850 1212 -737 
Q 1344 -625 1503 -206 
L 1606 56 
L 191 3500 
L 800 3500 
L 1894 763 
L 2988 3500 
L 3597 3500 
L 2059 -325 
z
" transform="scale(0.015625)"/>
       <path id="DejaVuSans-20" transform="scale(0.015625)"/>
       <path id="DejaVuSans-28" d="M 1984 4856 
Q 1566 4138 1362 3434 
Q 1159 2731 1159 2009 
Q 1159 1288 1364 580 
Q 1569 -128 1984 -844 
L 1484 -844 
Q 1016 -109 783 600 
Q 550 1309 550 2009 
Q 550 2706 781 3412 
Q 1013 4119 1484 4856 
L 1984 4856 
z
" transform="scale(0.015625)"/>
       <path id="DejaVuSans-48" d="M 628 4666 
L 1259 4666 
L 1259 2753 
L 3553 2753 
L 3553 4666 
L 4184 4666 
L 4184 0 
L 3553 0 
L 3553 2222 
L 1259 2222 
L 1259 0 
L 628 0 
L 628 4666 
z
" transform="scale(0.015625)"/>
       <path id="DejaVuSans-7a" d="M 353 3500 
L 3084 3500 
L 3084 2975 
L 922 459 
L 3084 459 
L 3084 0 
L 275 0 
L 275 525 
L 2438 3041 
L 353 3041 
L 353 3500 
z
" transform="scale(0.015625)"/>
       <path id="DejaVuSans-29" d="M 513 4856 
L 1013 4856 
Q 1481 4119 1714 3412 
Q 1947 2706 1947 2009 
Q 1947 1309 1714 600 
Q 1481 -109 1013 -844 
L 513 -844 
Q 928 -128 1133 580 
Q 1338 1288 1338 2009 
Q 1338 2731 1133 3434 
Q 928 4138 513 4856 
z
" transform="scale(0.015625)"/>
      </defs>
      <use xlink:href="#DejaVuSans-46"/>
      <use xlink:href="#DejaVuSans-72" transform="translate(50.269531 0)"/>
      <use xlink:href="#DejaVuSans-65" transform="translate(89.132812 0)"/>
      <use xlink:href="#DejaVuSans-71" transform="translate(150.65625 0)"/>
      <use xlink:href="#DejaVuSans-75" transform="translate(214.132812 0)"/>
      <use xlink:href="#DejaVuSans-65" transform="translate(277.511719 0)"/>
      <use xlink:href="#DejaVuSans-6e" transform="translate(339.035156 0)"/>
      <use xlink:href="#DejaVuSans-63" transform="translate(402.414062 0)"/>
      <use xlink:href="#DejaVuSans-79" transform="translate(457.394531 0)"/>
      <use xlink:href="#DejaVuSans-20" transform="translate(516.574219 0)"/>
      <use xlink:href="#DejaVuSans-28" transform="translate(548.361328 0)"/>
      <use xlink:href="#DejaVuSans-48" transform="translate(587.375 0)"/>
      <use xlink:href="#DejaVuSans-7a" transform="translate(662.570312 0)"/>
      <use xlink:href="#DejaVuSans-29" transform="translate(715.060547 0)"/>
     </g>
    </g>
   </g>
   <g id="matplotlib.axis_2">
    <g id="ytick_1">
     <g id="line2d_39">
      <path d="M 48.982813 294.590247 
L 561.197812 294.590247 
" clip-path="url(#pbc2ff517fd)" style="fill: none; stroke-dasharray: 1.85,0.8; stroke-dashoffset: 0; stroke: #b0b0b0; stroke-width: 0.5"/>
     </g>
     <g id="line2d_40">
      <defs>
       <path id="m6b01f46362" d="M 0 0 
L -3.5 0 
" style="stroke: #000000; stroke-width: 0.8"/>
      </defs>
      <g>
       <use xlink:href="#m6b01f46362" x="48.982813" y="294.590247" style="stroke: #000000; stroke-width: 0.8"/>
      </g>
     </g>
     <g id="text_5">
      <!-- −20 -->
      <g transform="translate(20.878125 298.389466) scale(0.1 -0.1)">
       <defs>
        <path id="DejaVuSans-2212" d="M 678 2272 
L 4684 2272 
L 4684 1741 
L 678 1741 
L 678 2272 
z
" transform="scale(0.015625)"/>
        <path id="DejaVuSans-32" d="M 1228 531 
L 3431 531 
L 3431 0 
L 469 0 
L 469 531 
Q 828 903 1448 1529 
Q 2069 2156 2228 2338 
Q 2531 2678 2651 2914 
Q 2772 3150 2772 3378 
Q 2772 3750 2511 3984 
Q 2250 4219 1831 4219 
Q 1534 4219 1204 4116 
Q 875 4013 500 3803 
L 500 4441 
Q 881 4594 1212 4672 
Q 1544 4750 1819 4750 
Q 2544 4750 2975 4387 
Q 3406 4025 3406 3419 
Q 3406 3131 3298 2873 
Q 3191 2616 2906 2266 
Q 2828 2175 2409 1742 
Q 1991 1309 1228 531 
z
" transform="scale(0.015625)"/>
       </defs>
       <use xlink:href="#DejaVuSans-2212"/>
       <use xlink:href="#DejaVuSans-32" transform="translate(83.789062 0)"/>
       <use xlink:href="#DejaVuSans-30" transform="translate(147.412109 0)"/>
      </g>
     </g>
    </g>
    <g id="ytick_2">
     <g id="line2d_41">
      <path d="M 48.982813 255.694229 
L 561.197812 255.694229 
" clip-path="url(#pbc2ff517fd)" style="fill: none; stroke-dasharray: 1.85,0.8; stroke-dashoffset: 0; stroke: #b0b0b0; stroke-width: 0.5"/>
     </g>
     <g id="line2d_42">
      <g>
       <use xlink:href="#m6b01f46362" x="48.982813" y="255.694229" style="stroke: #000000; stroke-width: 0.8"/>
      </g>
     </g>
     <g id="text_6">
      <!-- −10 -->
      <g transform="translate(20.878125 259.493448) scale(0.1 -0.1)">
       <use xlink:href="#DejaVuSans-2212"/>
       <use xlink:href="#DejaVuSans-31" transform="translate(83.789062 0)"/>
       <use xlink:href="#DejaVuSans-30" transform="translate(147.412109 0)"/>
      </g>
     </g>
    </g>
    <g id="ytick_3">
     <g id="line2d_43">
      <path d="M 48.982813 216.798212 
L 561.197812 216.798212 
" clip-path="url(#pbc2ff517fd)" style="fill: none; stroke-dasharray: 1.85,0.8; stroke-dashoffset: 0; stroke: #b0b0b0; stroke-width: 0.5"/>
     </g>
     <g id="line2d_44">
      <g>
       <use xlink:href="#m6b01f46362" x="48.982813" y="216.798212" style="stroke: #000000; stroke-width: 0.8"/>
      </g>
     </g>
     <g id="text_7">
      <!-- 0 -->
      <g transform="translate(35.620313 220.597431) scale(0.1 -0.1)">
       <use xlink:href="#DejaVuSans-30"/>
      </g>
     </g>
    </g>
    <g id="ytick_4">
     <g id="line2d_45">
      <path d="M 48.982813 177.902195 
L 561.197812 177.902195 
" clip-path="url(#pbc2ff517fd)" style="fill: none; stroke-dasharray: 1.85,0.8; stroke-dashoffset: 0; stroke: #b0b0b0; stroke-width: 0.5"/>
     </g>
     <g id="line2d_46">
      <g>
       <use xlink:href="#m6b01f46362" x="48.982813" y="177.902195" style="stroke: #000000; stroke-width: 0.8"/>
      </g>
     </g>
     <g id="text_8">
      <!-- 10 -->
      <g transform="translate(29.257813 181.701413) scale(0.1 -0.1)">
       <use xlink:href="#DejaVuSans-31"/>
       <use xlink:href="#DejaVuSans-30" transform="translate(63.623047 0)"/>
      </g>
     </g>
    </g>
    <g id="ytick_5">
     <g id="line2d_47">
      <path d="M 48.982813 139.006177 
L 561.197812 139.006177 
" clip-path="url(#pbc2ff517fd)" style="fill: none; stroke-dasharray: 1.85,0.8; stroke-dashoffset: 0; stroke: #b0b0b0; stroke-width: 0.5"/>
     </g>
     <g id="line2d_48">
      <g>
       <use xlink:href="#m6b01f46362" x="48.982813" y="139.006177" style="stroke: #000000; stroke-width: 0.8"/>
      </g>
     </g>
     <g id="text_9">
      <!-- 20 -->
      <g transform="translate(29.257813 142.805396) scale(0.1 -0.1)">
       <use xlink:href="#DejaVuSans-32"/>
       <use xlink:href="#DejaVuSans-30" transform="translate(63.623047 0)"/>
      </g>
     </g>
    </g>
    <g id="ytick_6">
     <g id="line2d_49">
      <path d="M 48.982813 100.11016 
L 561.197812 100.11016 
" clip-path="url(#pbc2ff517fd)" style="fill: none; stroke-dasharray: 1.85,0.8; stroke-dashoffset: 0; stroke: #b0b0b0; stroke-width: 0.5"/>
     </g>
     <g id="line2d_50">
      <g>
       <use xlink:href="#m6b01f46362" x="48.982813" y="100.11016" style="stroke: #000000; stroke-width: 0.8"/>
      </g>
     </g>
     <g id="text_10">
      <!-- 30 -->
      <g transform="translate(29.257813 103.909379) scale(0.1 -0.1)">
       <defs>
        <path id="DejaVuSans-33" d="M 2597 2516 
Q 3050 2419 3304 2112 
Q 3559 1806 3559 1356 
Q 3559 666 3084 287 
Q 2609 -91 1734 -91 
Q 1441 -91 1130 -33 
Q 819 25 488 141 
L 488 750 
Q 750 597 1062 519 
Q 1375 441 1716 441 
Q 2309 441 2620 675 
Q 2931 909 2931 1356 
Q 2931 1769 2642 2001 
Q 2353 2234 1838 2234 
L 1294 2234 
L 1294 2753 
L 1863 2753 
Q 2328 2753 2575 2939 
Q 2822 3125 2822 3475 
Q 2822 3834 2567 4026 
Q 2313 4219 1838 4219 
Q 1578 4219 1281 4162 
Q 984 4106 628 3988 
L 628 4550 
Q 988 4650 1302 4700 
Q 1616 4750 1894 4750 
Q 2613 4750 3031 4423 
Q 3450 4097 3450 3541 
Q 3450 3153 3228 2886 
Q 3006 2619 2597 2516 
z
" transform="scale(0.015625)"/>
       </defs>
       <use xlink:href="#DejaVuSans-33"/>
       <use xlink:href="#DejaVuSans-30" transform="translate(63.623047 0)"/>
      </g>
     </g>
    </g>
    <g id="ytick_7">
     <g id="line2d_51">
      <path d="M 48.982813 61.214142 
L 561.197812 61.214142 
" clip-path="url(#pbc2ff517fd)" style="fill: none; stroke-dasharray: 1.85,0.8; stroke-dashoffset: 0; stroke: #b0b0b0; stroke-width: 0.5"/>
     </g>
     <g id="line2d_52">
      <g>
       <use xlink:href="#m6b01f46362" x="48.982813" y="61.214142" style="stroke: #000000; stroke-width: 0.8"/>
      </g>
     </g>
     <g id="text_11">
      <!-- 40 -->
      <g transform="translate(29.257813 65.013361) scale(0.1 -0.1)">
       <defs>
        <path id="DejaVuSans-34" d="M 2419 4116 
L 825 1625 
L 2419 1625 
L 2419 4116 
z
M 2253 4666 
L 3047 4666 
L 3047 1625 
L 3713 1625 
L 3713 1100 
L 3047 1100 
L 3047 0 
L 2419 0 
L 2419 1100 
L 313 1100 
L 313 1709 
L 2253 4666 
z
" transform="scale(0.015625)"/>
       </defs>
       <use xlink:href="#DejaVuSans-34"/>
       <use xlink:href="#DejaVuSans-30" transform="translate(63.623047 0)"/>
      </g>
     </g>
    </g>
    <g id="ytick_8">
     <g id="line2d_53">
      <path d="M 48.982813 22.318125 
L 561.197812 22.318125 
" clip-path="url(#pbc2ff517fd)" style="fill: none; stroke-dasharray: 1.85,0.8; stroke-dashoffset: 0; stroke: #b0b0b0; stroke-width: 0.5"/>
     </g>
     <g id="line2d_54">
      <g>
       <use xlink:href="#m6b01f46362" x="48.982813" y="22.318125" style="stroke: #000000; stroke-width: 0.8"/>
      </g>
     </g>
     <g id="text_12">
      <!-- 50 -->
      <g transform="translate(29.257813 26.117344) scale(0.1 -0.1)">
       <defs>
        <path id="DejaVuSans-35" d="M 691 4666 
L 3169 4666 
L 3169 4134 
L 1269 4134 
L 1269 2991 
Q 1406 3038 1543 3061 
Q 1681 3084 1819 3084 
Q 2600 3084 3056 2656 
Q 3513 2228 3513 1497 
Q 3513 744 3044 326 
Q 2575 -91 1722 -91 
Q 1428 -91 1123 -41 
Q 819 9 494 109 
L 494 744 
Q 775 591 1075 516 
Q 1375 441 1709 441 
Q 2250 441 2565 725 
Q 2881 1009 2881 1497 
Q 2881 1984 2565 2268 
Q 2250 2553 1709 2553 
Q 1456 2553 1204 2497 
Q 953 2441 691 2322 
L 691 4666 
z
" transform="scale(0.015625)"/>
       </defs>
       <use xlink:href="#DejaVuSans-35"/>
       <use xlink:href="#DejaVuSans-30" transform="translate(63.623047 0)"/>
      </g>
     </g>
    </g>
    <g id="text_13">
     <!-- SPL (dBA) -->
     <g transform="translate(14.798438 182.944811) rotate(-90) scale(0.1 -0.1)">
      <defs>
       <path id="DejaVuSans-53" d="M 3425 4513 
L 3425 3897 
Q 3066 4069 2747 4153 
Q 2428 4238 2131 4238 
Q 1616 4238 1336 4038 
Q 1056 3838 1056 3469 
Q 1056 3159 1242 3001 
Q 1428 2844 1947 2747 
L 2328 2669 
Q 3034 2534 3370 2195 
Q 3706 1856 3706 1288 
Q 3706 609 3251 259 
Q 2797 -91 1919 -91 
Q 1588 -91 1214 -16 
Q 841 59 441 206 
L 441 856 
Q 825 641 1194 531 
Q 1563 422 1919 422 
Q 2459 422 2753 634 
Q 3047 847 3047 1241 
Q 3047 1584 2836 1778 
Q 2625 1972 2144 2069 
L 1759 2144 
Q 1053 2284 737 2584 
Q 422 2884 422 3419 
Q 422 4038 858 4394 
Q 1294 4750 2059 4750 
Q 2388 4750 2728 4690 
Q 3069 4631 3425 4513 
z
" transform="scale(0.015625)"/>
       <path id="DejaVuSans-50" d="M 1259 4147 
L 1259 2394 
L 2053 2394 
Q 2494 2394 2734 2622 
Q 2975 2850 2975 3272 
Q 2975 3691 2734 3919 
Q 2494 4147 2053 4147 
L 1259 4147 
z
M 628 4666 
L 2053 4666 
Q 2838 4666 3239 4311 
Q 3641 3956 3641 3272 
Q 3641 2581 3239 2228 
Q 2838 1875 2053 1875 
L 1259 1875 
L 1259 0 
L 628 0 
L 628 4666 
z
" transform="scale(0.015625)"/>
       <path id="DejaVuSans-4c" d="M 628 4666 
L 1259 4666 
L 1259 531 
L 3531 531 
L 3531 0 
L 628 0 
L 628 4666 
z
" transform="scale(0.015625)"/>
       <path id="DejaVuSans-64" d="M 2906 2969 
L 2906 4863 
L 3481 4863 
L 3481 0 
L 2906 0 
L 2906 525 
Q 2725 213 2448 61 
Q 2172 -91 1784 -91 
Q 1150 -91 751 415 
Q 353 922 353 1747 
Q 353 2572 751 3078 
Q 1150 3584 1784 3584 
Q 2172 3584 2448 3432 
Q 2725 3281 2906 2969 
z
M 947 1747 
Q 947 1113 1208 752 
Q 1469 391 1925 391 
Q 2381 391 2643 752 
Q 2906 1113 2906 1747 
Q 2906 2381 2643 2742 
Q 2381 3103 1925 3103 
Q 1469 3103 1208 2742 
Q 947 2381 947 1747 
z
" transform="scale(0.015625)"/>
       <path id="DejaVuSans-42" d="M 1259 2228 
L 1259 519 
L 2272 519 
Q 2781 519 3026 730 
Q 3272 941 3272 1375 
Q 3272 1813 3026 2020 
Q 2781 2228 2272 2228 
L 1259 2228 
z
M 1259 4147 
L 1259 2741 
L 2194 2741 
Q 2656 2741 2882 2914 
Q 3109 3088 3109 3444 
Q 3109 3797 2882 3972 
Q 2656 4147 2194 4147 
L 1259 4147 
z
M 628 4666 
L 2241 4666 
Q 2963 4666 3353 4366 
Q 3744 4066 3744 3513 
Q 3744 3084 3544 2831 
Q 3344 2578 2956 2516 
Q 3422 2416 3680 2098 
Q 3938 1781 3938 1306 
Q 3938 681 3513 340 
Q 3088 0 2303 0 
L 628 0 
L 628 4666 
z
" transform="scale(0.015625)"/>
       <path id="DejaVuSans-41" d="M 2188 4044 
L 1331 1722 
L 3047 1722 
L 2188 4044 
z
M 1831 4666 
L 2547 4666 
L 4325 0 
L 3669 0 
L 3244 1197 
L 1141 1197 
L 716 0 
L 50 0 
L 1831 4666 
z
" transform="scale(0.015625)"/>
      </defs>
      <use xlink:href="#DejaVuSans-53"/>
      <use xlink:href="#DejaVuSans-50" transform="translate(63.476562 0)"/>
      <use xlink:href="#DejaVuSans-4c" transform="translate(123.779297 0)"/>
      <use xlink:href="#DejaVuSans-20" transform="translate(179.492188 0)"/>
      <use xlink:href="#DejaVuSans-28" transform="translate(211.279297 0)"/>
      <use xlink:href="#DejaVuSans-64" transform="translate(250.292969 0)"/>
      <use xlink:href="#DejaVuSans-42" transform="translate(313.769531 0)"/>
      <use xlink:href="#DejaVuSans-41" transform="translate(382.373047 0)"/>
      <use xlink:href="#DejaVuSans-29" transform="translate(450.78125 0)"/>
     </g>
    </g>
   </g>
   <g id="line2d_55">
    <path d="M 51.493242 90.243491 
L 57.198394 84.800921 
L 62.625131 83.359346 
L 72.743565 88.674909 
L 77.477304 88.282618 
L 82.017775 88.956675 
L 86.38014 84.468311 
L 90.577849 83.80623 
L 94.622879 84.239959 
L 98.525949 79.198835 
L 102.296685 75.345861 
L 105.943768 79.879036 
L 109.475052 88.923677 
L 112.897663 90.463167 
L 116.218091 90.305464 
L 119.44226 93.978202 
L 122.575596 97.731697 
L 125.623077 100.084177 
L 128.589281 99.662543 
L 131.478432 96.824999 
L 134.294433 97.124051 
L 137.040895 93.936347 
L 139.721171 86.321423 
L 142.338376 80.769188 
L 144.89541 80.897522 
L 147.394977 81.468461 
L 149.839605 82.914939 
L 152.231656 84.993092 
L 154.573344 86.430038 
L 156.866746 83.884218 
L 159.113814 84.198572 
L 161.316383 88.411101 
L 163.47618 92.221172 
L 165.594836 92.315306 
L 167.673888 93.301185 
L 169.714791 89.071401 
L 171.718919 86.18823 
L 173.687573 85.140396 
L 175.621988 79.728976 
L 177.523335 75.530066 
L 179.392725 71.704005 
L 181.231214 69.838974 
L 183.039808 69.312135 
L 184.819463 69.76963 
L 188.295561 68.25573 
L 189.993702 70.374527 
L 191.666306 70.515007 
L 193.31413 69.525284 
L 194.937897 68.120332 
L 196.5383 68.204564 
L 198.116001 68.899783 
L 199.671636 67.282262 
L 201.205813 69.739971 
L 202.719116 72.388285 
L 204.212106 72.955519 
L 205.685321 72.359842 
L 207.139277 72.985279 
L 208.574472 70.052537 
L 209.991384 69.128749 
L 212.77218 72.729897 
L 214.136935 71.043333 
L 215.485146 69.132512 
L 216.817211 73.210687 
L 218.133511 75.175118 
L 219.434416 76.134711 
L 220.720281 76.67309 
L 221.99145 78.316115 
L 223.248255 77.499415 
L 224.491017 76.915136 
L 225.720047 77.631526 
L 228.1381 76.023114 
L 230.504702 74.057441 
L 231.669383 73.468747 
L 232.821996 70.632537 
L 233.962786 71.226211 
L 235.091994 67.769872 
L 236.209854 61.589814 
L 237.31659 61.276848 
L 238.412422 61.499773 
L 239.497563 60.029022 
L 240.572219 58.000429 
L 241.636592 58.526554 
L 243.735259 62.389051 
L 244.769928 65.463302 
L 245.79506 67.436351 
L 246.810831 68.124029 
L 247.817408 69.269967 
L 248.814958 67.295417 
L 249.803641 65.002346 
L 250.783613 65.400929 
L 252.718028 74.744864 
L 253.672764 77.37349 
L 254.619375 80.335954 
L 255.557997 83.667761 
L 256.488765 86.001786 
L 258.327254 85.961141 
L 259.235227 87.738133 
L 260.135848 88.743907 
L 261.029235 88.595392 
L 261.915503 87.322857 
L 263.667131 81.933715 
L 264.532708 79.577849 
L 265.391601 72.827138 
L 266.243912 71.583972 
L 267.089742 69.201097 
L 267.929188 68.903495 
L 268.762346 70.629058 
L 269.589309 68.088634 
L 270.41017 66.491354 
L 271.225016 69.834441 
L 272.033937 68.291453 
L 272.837017 66.515081 
L 273.634339 66.911599 
L 274.425987 64.428357 
L 275.212041 61.259538 
L 275.992578 59.672057 
L 276.767675 59.583969 
L 277.537409 60.468203 
L 278.301853 59.047384 
L 279.061078 62.039778 
L 279.815156 65.548348 
L 280.564156 67.935811 
L 281.308146 69.250992 
L 282.047192 71.122317 
L 282.78136 74.365917 
L 283.510714 73.582189 
L 284.235317 72.060522 
L 284.955229 72.02014 
L 285.670512 75.647567 
L 286.381224 78.169818 
L 287.087423 80.129895 
L 287.789168 83.382728 
L 288.486512 85.296265 
L 289.179512 86.777836 
L 289.86822 89.436018 
L 290.55269 87.001254 
L 291.232974 86.970194 
L 291.909123 86.249206 
L 292.581186 85.71629 
L 293.249212 88.47785 
L 293.91325 85.645701 
L 294.573348 86.350277 
L 295.229551 87.889294 
L 295.881905 86.750352 
L 296.530455 84.77173 
L 297.175246 86.176935 
L 297.81632 85.610843 
L 298.453721 83.826421 
L 299.087489 84.4221 
L 299.717667 85.251398 
L 300.344294 87.520098 
L 300.967411 88.180147 
L 301.587057 89.720971 
L 302.203269 90.288347 
L 302.816087 88.61611 
L 303.425546 87.312842 
L 304.031684 87.071808 
L 304.634537 86.426541 
L 305.23414 87.497905 
L 305.830528 88.974983 
L 306.423735 89.274968 
L 307.013795 88.85427 
L 307.600741 89.79804 
L 308.184607 89.831224 
L 308.765423 88.009455 
L 309.918035 91.707268 
L 310.489893 92.00574 
L 311.058825 92.683214 
L 311.624863 94.263818 
L 312.188034 97.709019 
L 312.748368 97.199648 
L 313.305893 94.390634 
L 313.860638 96.289874 
L 314.412629 96.123053 
L 314.961895 96.639366 
L 315.508462 98.745855 
L 316.052356 93.698795 
L 316.593603 90.946863 
L 317.132229 90.941303 
L 317.668259 92.126688 
L 318.201719 94.915767 
L 318.732632 93.205414 
L 319.261022 94.072605 
L 319.786915 92.9172 
L 320.831299 87.96066 
L 321.349836 87.32167 
L 321.865968 82.812523 
L 322.8911 79.742635 
L 323.400145 79.314035 
L 323.90687 79.967336 
L 324.913448 79.381293 
L 325.413341 79.569418 
L 325.910998 81.39491 
L 326.899681 88.500149 
L 327.879652 92.94151 
L 328.366419 93.426765 
L 328.851065 91.400518 
L 329.333609 92.71266 
L 329.814068 93.634953 
L 330.29246 95.231336 
L 330.768804 95.427245 
L 331.243116 95.9192 
L 331.715414 92.512947 
L 332.185716 92.435601 
L 332.654037 94.926333 
L 333.120394 95.545541 
L 333.584804 96.398996 
L 334.507847 99.614872 
L 334.966512 99.464612 
L 336.782489 111.650455 
L 337.231887 111.240186 
L 337.679478 112.081794 
L 338.569291 109.895933 
L 339.011543 108.905164 
L 339.452042 107.150677 
L 339.890805 104.554509 
L 340.327843 106.152975 
L 341.196801 103.605722 
L 341.628747 103.971207 
L 342.059023 103.433861 
L 342.914612 100.183783 
L 343.339952 99.942316 
L 343.76367 100.068309 
L 344.606296 104.27508 
L 345.025227 103.956982 
L 345.442586 104.874521 
L 345.858385 104.296135 
L 346.272636 106.500885 
L 346.685349 102.926135 
L 347.096536 103.355947 
L 347.506209 104.21599 
L 347.914379 103.523973 
L 348.726251 99.804528 
L 349.129976 99.083605 
L 349.532241 97.184478 
L 349.933056 96.67821 
L 350.730379 97.216663 
L 351.126907 94.469239 
L 352.30808 88.577756 
L 353.088617 89.695538 
L 353.476841 88.19599 
L 354.633449 91.092086 
L 355.016327 94.257103 
L 355.397892 95.137877 
L 355.778153 92.731219 
L 356.157118 91.651093 
L 356.534795 91.057514 
L 356.911195 91.247152 
L 357.286326 94.424338 
L 358.032812 92.235409 
L 358.404185 95.546038 
L 358.774322 95.08168 
L 359.143232 93.732193 
L 359.510922 95.23224 
L 359.8774 94.719225 
L 360.606754 93.003041 
L 361.331356 90.568084 
L 361.691895 90.445833 
L 362.051269 92.053839 
L 362.409485 91.300455 
L 362.766551 91.493856 
L 363.122475 94.786368 
L 363.477263 96.74667 
L 363.830924 100.066104 
L 364.183463 100.382348 
L 364.534889 100.35464 
L 365.234426 102.248802 
L 365.582552 101.958286 
L 365.929591 100.973432 
L 366.275551 99.285662 
L 366.620439 98.566826 
L 366.96426 99.239139 
L 367.307021 99.00882 
L 367.989392 95.254582 
L 368.329014 95.855917 
L 368.667602 92.962604 
L 369.005162 91.050385 
L 369.341702 91.308707 
L 369.677225 91.417518 
L 370.345252 89.635627 
L 370.677766 89.998657 
L 371.00929 91.377189 
L 371.339828 91.840369 
L 371.997973 86.310698 
L 372.32559 86.095382 
L 372.652246 85.513115 
L 373.302692 81.5572 
L 373.626495 80.673045 
L 373.949357 80.167241 
L 374.271286 79.901718 
L 374.592285 78.124862 
L 375.231517 80.592744 
L 375.54976 78.443372 
L 375.867096 77.779286 
L 376.183529 77.492461 
L 376.499064 78.828589 
L 376.813707 80.649886 
L 377.127461 81.553585 
L 377.440334 80.969373 
L 377.752329 81.59286 
L 378.063451 82.745833 
L 378.373705 85.174136 
L 378.991629 85.801587 
L 379.299309 85.649969 
L 379.60614 86.758498 
L 379.912126 86.763043 
L 380.217273 87.167922 
L 380.521586 89.010091 
L 380.825068 87.858879 
L 381.127724 84.396401 
L 381.429559 86.814645 
L 381.730577 86.064388 
L 382.33018 86.000582 
L 382.628773 85.164155 
L 382.926567 83.344013 
L 383.223566 84.207129 
L 383.519775 84.644406 
L 384.109835 83.761349 
L 384.403695 82.865428 
L 384.696781 82.452116 
L 384.989097 79.161171 
L 385.280646 77.518203 
L 385.571434 77.12437 
L 385.861463 75.897818 
L 386.150737 76.699817 
L 386.439262 78.554249 
L 386.72704 78.025766 
L 387.014075 78.53989 
L 387.300371 77.188514 
L 387.585932 72.884691 
L 387.870762 72.598613 
L 388.154865 69.10653 
L 388.438244 68.756485 
L 388.720902 65.818181 
L 389.284073 64.281902 
L 389.564593 67.041361 
L 389.844407 66.323679 
L 390.401933 72.906956 
L 390.679651 72.745735 
L 390.956677 75.489018 
L 391.233016 75.81023 
L 391.508669 75.509106 
L 391.783641 75.992417 
L 392.057935 77.326728 
L 392.331554 76.73791 
L 392.604501 74.257024 
L 392.876781 74.85651 
L 393.148395 76.077118 
L 393.419348 74.91323 
L 393.689642 75.203064 
L 393.959281 73.119081 
L 394.228268 73.676995 
L 395.828671 92.587493 
L 396.09318 94.044425 
L 396.357062 93.621671 
L 396.620319 93.915177 
L 396.882955 92.786145 
L 397.144971 92.839093 
L 397.667161 91.250416 
L 397.927339 91.439349 
L 398.18691 90.877572 
L 398.445876 89.945006 
L 398.704241 88.096601 
L 398.962007 87.296609 
L 399.219177 87.37713 
L 400.241953 91.877221 
L 400.496184 92.780514 
L 400.749836 95.319823 
L 401.00291 94.953334 
L 401.25541 97.833587 
L 401.507337 98.07127 
L 401.758696 96.33416 
L 402.009488 96.717895 
L 402.509381 100.747273 
L 402.758488 96.143956 
L 403.007038 95.802332 
L 403.255033 96.461858 
L 403.502477 96.750082 
L 403.749372 98.000507 
L 403.99572 96.883753 
L 404.731507 102.206447 
L 404.975692 102.605 
L 405.219342 104.161955 
L 405.462459 104.285195 
L 405.705046 103.536153 
L 405.947105 104.263564 
L 406.188638 103.775022 
L 406.429648 102.845254 
L 406.910107 103.917671 
L 407.149561 105.443324 
L 407.3885 104.591768 
L 408.102252 107.816503 
L 408.575556 106.086634 
L 408.811454 106.366257 
L 409.046853 100.239235 
L 409.281755 100.400453 
L 409.516162 102.319269 
L 409.750076 102.794546 
L 409.983499 102.279689 
L 410.216434 103.526671 
L 410.448881 106.034928 
L 410.680844 107.32135 
L 410.912324 110.779898 
L 411.143323 111.802743 
L 411.373843 114.126061 
L 411.603887 112.897018 
L 411.833456 113.989756 
L 412.062552 114.144679 
L 412.747022 119.109902 
L 412.974246 120.993164 
L 413.201007 121.660996 
L 413.427306 118.633018 
L 413.653146 120.77191 
L 413.878528 120.473517 
L 414.551947 116.72112 
L 414.775517 118.16741 
L 414.998639 118.286455 
L 415.221314 117.693034 
L 415.443544 119.746775 
L 415.665331 117.939682 
L 416.107582 121.825542 
L 416.32805 121.996571 
L 416.548082 119.675356 
L 416.76768 118.990063 
L 416.986844 118.692602 
L 417.205578 115.655704 
L 417.423882 114.480824 
L 417.641759 114.804429 
L 418.076237 112.259793 
L 418.292841 112.367087 
L 418.509023 114.654932 
L 418.724787 115.043976 
L 418.940133 114.86736 
L 419.155063 114.299805 
L 419.369578 113.381789 
L 419.58368 113.670052 
L 419.797371 112.277957 
L 420.010652 113.977647 
L 420.223525 113.875308 
L 420.435991 112.149975 
L 420.648052 111.473281 
L 420.85971 112.694684 
L 421.070966 115.645214 
L 421.281821 115.982093 
L 421.492277 114.298151 
L 421.702336 117.58046 
L 421.911999 118.751643 
L 422.121267 118.153946 
L 422.330142 120.628149 
L 422.538626 120.676308 
L 422.74672 121.957096 
L 422.954425 124.01369 
L 423.161743 124.025272 
L 423.368675 123.754108 
L 423.575223 126.333822 
L 423.987172 122.653789 
L 424.192576 126.316603 
L 424.397601 126.441852 
L 424.602249 125.134767 
L 424.806521 126.569206 
L 425.010418 127.152381 
L 425.213943 123.87545 
L 425.417095 124.572673 
L 425.619878 124.450052 
L 425.822291 122.105939 
L 426.226016 121.321265 
L 426.42733 122.335568 
L 426.628281 122.649504 
L 427.029096 114.75641 
L 427.228963 114.078688 
L 427.428472 114.030231 
L 428.222947 109.55276 
L 428.420682 108.750811 
L 428.618067 106.505191 
L 428.815101 105.840489 
L 429.208127 108.116128 
L 429.40412 108.632973 
L 429.599768 106.845589 
L 429.795073 108.050393 
L 429.990036 106.178967 
L 430.184657 103.07043 
L 430.378938 104.836331 
L 430.572881 104.858154 
L 430.766486 103.707915 
L 430.959755 105.402585 
L 431.152688 105.078443 
L 431.345287 106.038827 
L 431.729488 105.061399 
L 431.921092 105.81345 
L 432.112367 104.592507 
L 432.493932 101.508877 
L 432.684225 100.031471 
L 433.063836 102.13904 
L 433.253157 100.444547 
L 433.442156 100.173394 
L 433.630835 99.367073 
L 433.819194 100.270433 
L 434.382366 105.595324 
L 434.569457 106.015046 
L 434.9427 112.573739 
L 435.500225 114.62153 
L 435.685447 117.707575 
L 435.870362 117.450015 
L 436.05497 113.796849 
L 436.239271 113.321609 
L 436.423268 113.480286 
L 436.790351 110.388646 
L 436.973439 111.38854 
L 437.156227 113.497485 
L 437.338714 110.513992 
L 437.520903 111.872291 
L 437.884387 117.858667 
L 438.607811 128.899567 
L 438.967766 131.165591 
L 439.147308 133.995963 
L 439.326561 133.338765 
L 439.505525 129.882111 
L 439.684201 128.679645 
L 439.862591 128.516047 
L 440.39605 122.020048 
L 440.926963 115.691055 
L 441.455354 119.614483 
L 441.806225 126.373084 
L 441.981247 127.536205 
L 442.155993 127.279619 
L 442.330466 125.747406 
L 442.504665 128.962668 
L 442.678591 127.726803 
L 442.852246 128.061585 
L 443.198745 127.523334 
L 443.371591 130.187397 
L 443.544168 129.280352 
L 443.888522 125.909168 
L 444.060299 124.930313 
L 444.231812 125.163058 
L 444.403061 124.295289 
L 444.574047 125.376638 
L 445.085432 120.062492 
L 445.255372 120.76518 
L 445.594476 126.523273 
L 446.101202 133.354467 
L 446.437741 138.055604 
L 446.60563 138.293201 
L 446.773265 134.762681 
L 446.940648 134.438091 
L 447.10778 133.519388 
L 447.274661 130.646856 
L 447.441291 130.397639 
L 447.607673 130.494308 
L 448.929841 143.52609 
L 449.42163 137.136218 
L 449.748285 132.498145 
L 449.911254 132.026707 
L 450.073984 133.241115 
L 450.236477 132.905418 
L 450.398732 133.246246 
L 450.560751 132.414448 
L 450.722535 133.266558 
L 450.884083 133.229321 
L 451.206478 129.661879 
L 451.367325 130.035193 
L 451.52794 129.64614 
L 451.848477 134.775929 
L 452.008399 134.20499 
L 452.168092 135.877489 
L 452.486792 140.927804 
L 452.6458 142.610388 
L 452.804581 143.030482 
L 452.963135 144.080422 
L 453.121464 142.767516 
L 453.437448 144.586724 
L 453.595104 141.398538 
L 453.752536 142.992634 
L 454.066734 139.616845 
L 454.223501 138.204082 
L 454.380047 138.739221 
L 454.536374 137.528016 
L 454.848368 137.284479 
L 455.004038 140.267872 
L 455.15949 138.483613 
L 455.314726 139.366771 
L 455.469745 139.322765 
L 455.624548 137.639099 
L 455.779136 138.242143 
L 455.933509 137.540226 
L 456.241615 140.137097 
L 456.395348 138.432918 
L 456.702179 142.763786 
L 456.855278 140.485644 
L 457.160844 144.925281 
L 457.313313 145.819688 
L 457.465573 144.089303 
L 457.617625 144.619033 
L 457.76947 148.416924 
L 457.921107 148.447102 
L 458.072538 145.92555 
L 458.223763 146.004458 
L 458.374783 148.430909 
L 458.525598 148.536765 
L 458.676209 148.159046 
L 458.826616 146.880402 
L 459.276621 151.238662 
L 459.426219 150.417763 
L 459.575616 150.890339 
L 459.724813 154.237961 
L 459.87381 153.835443 
L 460.022607 155.178859 
L 460.171206 154.736814 
L 460.319606 156.574854 
L 461.058652 150.654602 
L 461.352902 155.401186 
L 461.499735 153.603861 
L 461.646374 155.144099 
L 461.792821 158.449799 
L 461.939075 158.778809 
L 462.085136 157.50561 
L 462.231007 157.575614 
L 462.667473 153.829175 
L 463.102234 148.495121 
L 463.246777 144.195541 
L 463.391133 143.948288 
L 463.535301 141.441455 
L 463.823079 142.303095 
L 463.966689 143.336835 
L 464.253355 149.556913 
L 464.396411 147.500368 
L 464.539283 148.251629 
L 464.681972 150.22063 
L 464.824478 149.196592 
L 465.108944 131.720042 
L 465.392684 149.762812 
L 465.534283 149.151361 
L 465.816942 152.409089 
L 465.958002 151.273291 
L 466.098884 151.378139 
L 466.239587 152.032738 
L 466.380113 151.004196 
L 466.520461 148.30676 
L 466.660633 148.914332 
L 466.800628 145.922278 
L 466.940447 148.018721 
L 467.219559 144.701596 
L 467.358853 145.544002 
L 467.497972 147.116671 
L 467.636918 147.087157 
L 467.775691 147.444438 
L 467.91429 144.594251 
L 468.190972 147.368028 
L 468.329055 146.346088 
L 468.604709 142.112864 
L 468.74228 142.286347 
L 469.153974 137.969795 
L 469.290868 138.555995 
L 469.427593 141.54846 
L 469.564151 140.10258 
L 469.700541 140.525546 
L 469.97282 145.075826 
L 470.10871 144.026667 
L 470.379994 149.933039 
L 470.515388 150.198418 
L 470.650617 148.7857 
L 470.920583 153.028756 
L 471.055321 156.529033 
L 471.324308 153.649143 
L 471.458558 156.129578 
L 471.592646 156.206384 
L 471.860338 157.959181 
L 471.993943 158.285061 
L 472.393798 156.091289 
L 472.526764 156.43158 
L 472.79222 154.945583 
L 472.924711 152.941357 
L 473.057044 152.641933 
L 473.18922 153.642745 
L 473.716359 148.684969 
L 473.847754 145.785378 
L 473.978994 146.461167 
L 474.11008 145.797519 
L 474.241011 143.818968 
L 474.632883 145.941717 
L 474.7632 145.879202 
L 474.893365 146.296874 
L 475.023378 148.69696 
L 475.153239 147.817995 
L 475.412508 144.768361 
L 476.058047 140.655217 
L 476.186706 139.430928 
L 476.44358 140.27278 
L 476.699861 136.117004 
L 476.955553 132.855451 
L 477.083179 132.541564 
L 477.465181 126.7499 
L 477.592224 126.296466 
L 477.719122 125.150512 
L 477.845875 122.190637 
L 477.972484 122.247861 
L 478.09895 122.78097 
L 478.477484 129.053161 
L 478.603377 128.93515 
L 478.729127 127.379651 
L 478.854735 128.827573 
L 478.980202 128.91676 
L 479.230711 131.747313 
L 479.480658 126.72164 
L 479.605421 126.934005 
L 479.730044 126.371387 
L 479.854527 123.963474 
L 480.103077 130.259517 
L 480.227144 128.654122 
L 480.351073 128.84715 
L 480.598517 133.739494 
L 480.722033 135.529233 
L 480.845412 139.330024 
L 481.09176 135.825946 
L 481.21473 137.554659 
L 481.337563 136.735818 
L 481.460262 137.315408 
L 481.582825 140.273602 
L 481.705253 137.374316 
L 481.827547 138.477379 
L 482.071732 137.43199 
L 482.193623 137.797624 
L 482.315381 140.99017 
L 482.558499 137.365132 
L 482.801086 141.763511 
L 482.922181 141.791033 
L 483.405248 149.133216 
L 483.525688 149.40754 
L 483.766177 150.071392 
L 484.006147 147.874915 
L 484.125938 147.795533 
L 484.365134 149.717337 
L 484.484539 147.522821 
L 484.603817 147.905111 
L 484.722966 145.430362 
L 485.079651 148.056669 
L 485.198292 151.368321 
L 485.435195 146.620432 
L 485.789607 151.981506 
L 485.907494 151.755564 
L 486.142893 154.846976 
L 486.260406 155.869596 
L 486.49506 152.340038 
L 486.612202 149.757522 
L 486.72922 150.418442 
L 486.846116 148.825916 
L 486.962889 148.823049 
L 487.079539 150.154155 
L 487.312473 148.645507 
L 487.544921 152.27749 
L 487.660962 153.921782 
L 487.892684 153.539379 
L 488.123923 158.514864 
L 488.239363 159.03466 
L 488.354682 157.463482 
L 488.469883 153.769494 
L 488.699927 155.889718 
L 488.929496 151.600267 
L 489.044102 152.131735 
L 489.158592 152.065373 
L 489.501353 156.942455 
L 489.615373 159.812236 
L 489.956732 149.502387 
L 490.070286 149.616557 
L 490.183724 149.183614 
L 490.297046 146.633764 
L 490.410254 146.982902 
L 490.523346 145.507081 
L 490.861934 151.395312 
L 491.199494 154.343071 
L 491.311787 153.42417 
L 491.423967 153.499555 
L 491.536033 154.129279 
L 491.759828 157.877658 
L 491.871557 157.44753 
L 491.983174 156.462154 
L 492.206072 158.055201 
L 492.539584 152.556312 
L 492.650532 152.898311 
L 492.76137 152.583545 
L 492.982716 148.155809 
L 493.093224 148.999297 
L 493.203622 150.35069 
L 493.31391 147.086274 
L 493.42409 147.223815 
L 493.53416 146.504637 
L 493.753975 150.200825 
L 493.973355 146.587219 
L 494.082884 149.740209 
L 494.192305 148.011921 
L 494.301618 148.827079 
L 494.410823 147.851552 
L 494.519922 147.950401 
L 494.846577 149.313937 
L 494.95525 151.13924 
L 495.172276 146.62103 
L 495.280631 147.043074 
L 495.497024 150.247207 
L 495.712997 145.607921 
L 496.036172 150.704582 
L 496.143689 151.29647 
L 496.251102 150.806372 
L 496.358411 152.024395 
L 496.57272 149.021487 
L 497.106692 156.219486 
L 497.213179 155.880605 
L 497.425848 157.820793 
L 497.638112 154.309482 
L 497.849971 155.161666 
L 498.167005 151.449791 
L 498.272483 150.483245 
L 498.37786 151.238526 
L 498.588317 147.754794 
L 498.693396 148.801839 
L 498.798375 149.874441 
L 498.903256 149.177604 
L 499.217307 151.824629 
L 499.321793 151.358612 
L 499.426182 155.02287 
L 499.530473 153.485443 
L 499.738761 160.60185 
L 500.050465 166.424095 
L 500.154172 165.293773 
L 500.257783 166.569474 
L 500.568037 162.459281 
L 500.774393 163.907544 
L 501.083212 160.753729 
L 501.288615 164.196347 
L 501.391175 163.514189 
L 501.698288 170.682749 
L 501.800471 169.777971 
L 501.90256 170.020004 
L 502.004556 172.997096 
L 502.614572 163.51718 
L 503.019399 167.021392 
L 503.322056 172.528933 
L 503.422758 171.829603 
L 503.52337 170.157794 
L 503.62389 172.528542 
L 503.72432 172.447845 
L 503.82466 171.581449 
L 504.125135 176.740136 
L 504.225114 175.662122 
L 504.524511 172.765751 
L 504.624132 172.317836 
L 504.823105 170.507585 
L 504.922458 170.52485 
L 505.219987 166.597363 
L 505.417898 162.578558 
L 505.516722 162.837546 
L 505.714106 167.728503 
L 505.812667 168.210198 
L 505.911141 169.915918 
L 506.107827 175.348772 
L 506.20604 174.124525 
L 506.402206 178.321807 
L 506.50016 177.322195 
L 506.598027 179.82905 
L 506.793503 178.227124 
L 506.891113 178.122103 
L 506.988637 177.173182 
L 507.086075 177.985022 
L 507.37788 173.686672 
L 507.571992 176.619664 
L 507.765765 174.424436 
L 507.862526 174.687138 
L 507.959202 173.666414 
L 508.055794 170.614396 
L 508.248728 172.683999 
L 508.345069 172.466262 
L 508.441327 171.94421 
L 508.537502 172.551612 
L 508.729602 176.70185 
L 508.825528 176.955246 
L 509.017132 181.646271 
L 509.208406 179.348881 
L 509.30392 179.542545 
L 509.399353 180.757431 
L 509.589971 178.958465 
L 509.685158 180.865402 
L 509.780264 180.131272 
L 509.875289 182.52629 
L 509.970232 182.417525 
L 510.065094 179.781288 
L 510.443737 183.566974 
L 510.538196 180.696485 
L 510.726875 182.92246 
L 510.915234 181.99279 
L 511.103275 177.248922 
L 511.290998 179.534774 
L 511.384741 178.330766 
L 511.478405 179.461171 
L 511.57199 182.02778 
L 511.758925 179.561051 
L 511.945546 181.929466 
L 512.131854 185.532106 
L 512.224892 186.040245 
L 512.410733 183.208755 
L 512.596265 179.227283 
L 512.781487 182.639711 
L 512.966402 179.984364 
L 513.058744 180.744508 
L 513.151009 182.925954 
L 513.243198 182.897017 
L 513.335311 183.389152 
L 513.427347 181.572407 
L 513.519308 181.800296 
L 513.611192 182.157576 
L 513.703001 184.455034 
L 513.886391 182.829525 
L 513.977973 183.804227 
L 514.069479 182.988295 
L 514.16091 183.956098 
L 514.434754 181.967712 
L 514.616942 179.664521 
L 514.798833 178.089858 
L 514.980427 176.076081 
L 515.161724 178.047872 
L 515.252262 175.670096 
L 515.523435 179.77016 
L 515.61368 179.258244 
L 515.973926 171.77158 
L 516.063806 173.102593 
L 516.153613 172.892898 
L 516.33301 174.000086 
L 516.4226 173.283439 
L 516.690938 180.1491 
L 516.780241 180.04658 
L 517.136735 173.883106 
L 517.314554 176.865196 
L 517.403357 175.932138 
L 517.580752 177.402637 
L 517.669343 177.949353 
L 517.846313 181.426562 
L 518.111243 184.932738 
L 518.199412 184.248619 
L 518.375542 188.019689 
L 518.551394 186.724877 
L 518.639215 189.113577 
L 518.726968 188.558761 
L 518.814651 187.303522 
L 518.902265 187.690285 
L 519.077286 181.918435 
L 519.339303 184.51125 
L 519.513639 183.099652 
L 519.600704 183.934645 
L 519.687702 183.349477 
L 519.861492 183.783581 
L 520.12167 180.978558 
L 520.208261 181.121271 
L 520.294785 180.429308 
L 520.381241 181.258632 
L 520.46763 179.014606 
L 520.553953 179.614755 
L 520.640208 179.359046 
L 520.726396 178.740264 
L 520.898573 175.560413 
L 520.984561 175.61602 
L 521.156339 172.886196 
L 521.327852 177.294704 
L 521.413509 176.857165 
L 521.584626 179.107005 
L 521.670086 178.396029 
L 521.926073 182.072097 
L 522.011271 181.473105 
L 522.096404 182.378154 
L 522.181471 182.263323 
L 522.351412 183.863464 
L 522.521093 182.305614 
L 522.605837 181.783371 
L 522.690516 183.06486 
L 522.944167 177.022138 
L 523.197242 173.59152 
L 523.281472 174.487801 
L 523.365638 175.904769 
L 523.533781 170.901478 
L 523.617757 170.115073 
L 523.701669 170.331021 
L 523.785518 170.316331 
L 523.869305 172.985901 
L 523.953028 172.319613 
L 524.120285 174.433427 
L 524.203819 173.615574 
L 524.454047 179.031671 
L 524.620553 173.669895 
L 524.703713 174.996026 
L 524.869846 174.10923 
L 525.035731 175.993267 
L 525.284096 171.303984 
L 525.366761 173.346073 
L 525.449365 171.500826 
L 525.531908 173.888552 
L 525.614389 172.333033 
L 525.779168 176.365628 
L 525.861467 178.480691 
L 525.943704 178.154403 
L 526.435856 186.96639 
L 526.51767 186.496569 
L 527.088688 175.311093 
L 527.170024 176.423509 
L 527.2513 176.400879 
L 527.494772 179.94819 
L 527.575811 179.196606 
L 527.656791 178.976362 
L 527.737712 181.581663 
L 528.060809 177.008892 
L 528.222006 176.671357 
L 528.302517 175.472584 
L 528.463365 180.339981 
L 528.543701 180.221757 
L 528.62398 178.181648 
L 528.704201 181.208068 
L 528.944517 177.605259 
L 529.024507 178.155473 
L 529.104439 176.895884 
L 529.184314 177.367822 
L 529.343892 176.017875 
L 529.503242 177.728091 
L 529.741839 170.438449 
L 529.90062 173.283944 
L 529.979926 172.166105 
L 530.138368 173.839127 
L 530.217504 173.241483 
L 530.296584 177.018191 
L 530.375608 175.675468 
L 530.454576 176.30598 
L 530.612343 171.421229 
L 530.848576 175.811064 
L 530.927208 175.060014 
L 531.005786 175.414042 
L 531.084307 174.634894 
L 531.241185 175.213828 
L 531.397841 170.50132 
L 531.476087 172.849322 
L 531.554278 170.256714 
L 531.710494 175.901633 
L 531.78852 175.691758 
L 531.944408 179.778133 
L 532.177831 174.058894 
L 532.333175 171.044185 
L 532.410765 169.87533 
L 532.565784 174.425869 
L 532.720587 172.253066 
L 532.952389 176.530856 
L 533.029549 176.016349 
L 533.183709 179.593784 
L 533.337655 176.799887 
L 533.414548 179.549478 
L 533.491388 178.445645 
L 533.644909 178.905768 
L 533.72159 178.117337 
L 533.874794 179.809817 
L 533.951317 178.278625 
L 534.104205 179.887058 
L 534.180571 179.676164 
L 534.333144 180.812698 
L 534.409353 180.804469 
L 534.561613 178.113298 
L 534.637665 178.537929 
L 534.789613 173.229183 
L 535.017147 175.804619 
L 535.092888 175.560626 
L 535.168578 175.606003 
L 535.395339 175.909679 
L 535.621638 179.167891 
L 535.772249 174.663635 
L 535.847478 179.962439 
L 535.922656 178.859543 
L 535.997783 179.192637 
L 536.147886 183.295629 
L 536.372661 179.606622 
L 536.447485 180.425735 
L 536.596982 178.19695 
L 536.895376 170.65638 
L 536.969849 171.327467 
L 537.044273 170.952123 
L 537.192971 173.236247 
L 537.34147 169.053248 
L 537.563848 171.244181 
L 537.637876 171.325804 
L 537.933493 178.349384 
L 538.081008 178.017546 
L 538.375452 174.636252 
L 538.448941 175.179434 
L 538.522382 177.665278 
L 538.595774 176.406435 
L 538.669118 176.410216 
L 538.742414 176.16016 
L 538.815661 176.274284 
L 538.962011 181.27724 
L 539.035114 181.161391 
L 539.181176 183.60318 
L 539.327046 183.144017 
L 539.545494 180.170186 
L 539.618214 179.972227 
L 539.763513 177.643949 
L 539.836091 178.975641 
L 539.908622 178.528455 
L 539.981105 178.874522 
L 540.125931 180.63358 
L 540.198273 180.329915 
L 540.342817 178.054491 
L 540.415018 178.686442 
L 540.55928 173.753231 
L 540.631341 173.957006 
L 540.847244 178.014759 
L 541.062729 173.33987 
L 541.134465 172.721549 
L 541.206154 173.115158 
L 541.420945 170.455603 
L 541.563909 173.450991 
L 541.635323 171.700253 
L 542.133935 180.632733 
L 542.204984 179.141918 
L 542.275987 181.600359 
L 542.346944 181.503992 
L 542.417857 181.554439 
L 542.488724 183.485588 
L 542.630323 180.461413 
L 542.842384 184.034804 
L 543.054042 178.839317 
L 543.194923 177.315466 
L 543.265297 177.94254 
L 543.476153 181.924563 
L 543.546349 181.282349 
L 543.686609 184.882367 
L 543.756673 183.49849 
L 543.826692 184.067787 
L 543.966599 190.183319 
L 544.036487 190.08027 
L 544.10633 187.80704 
L 544.17613 190.533748 
L 544.245886 190.048699 
L 544.315599 185.002854 
L 544.385267 185.253875 
L 544.454892 185.2294 
L 544.663507 182.670409 
L 544.87173 186.234769 
L 544.941052 184.543983 
L 545.01033 185.043183 
L 545.079565 186.130606 
L 545.148757 183.913213 
L 545.287012 188.201288 
L 545.356075 187.834694 
L 545.425095 189.183662 
L 545.494072 188.787221 
L 545.563007 188.463636 
L 545.631899 189.370097 
L 545.769555 188.536019 
L 545.838319 188.909965 
L 545.907041 188.739552 
L 545.97572 188.588548 
L 546.044357 188.666017 
L 546.181504 183.054846 
L 546.250014 184.829249 
L 546.318482 184.073536 
L 546.455291 184.495737 
L 546.523633 185.270089 
L 546.728406 179.593102 
L 546.796581 179.78524 
L 546.864713 179.532165 
L 547.000853 176.662026 
L 547.06886 179.242384 
L 547.136826 178.508967 
L 547.20475 178.615867 
L 547.408274 184.12982 
L 547.476033 184.117407 
L 547.543751 184.694469 
L 547.611427 184.139388 
L 547.746656 182.356617 
L 547.881722 184.763776 
L 547.949193 183.688028 
L 548.084012 187.890439 
L 548.353162 183.227539 
L 548.420348 182.442217 
L 548.621662 185.78831 
L 548.688686 185.432485 
L 548.755669 184.30045 
L 548.822612 185.40264 
L 548.889515 185.127513 
L 548.956378 184.727335 
L 549.0232 184.854908 
L 549.223427 188.084751 
L 549.423295 190.481128 
L 549.689227 193.736061 
L 549.755611 193.087332 
L 549.821955 195.236745 
L 549.88826 194.257938 
L 549.954525 194.967839 
L 550.02075 194.418974 
L 550.086937 194.432279 
L 550.153084 195.442889 
L 550.549141 190.745911 
L 550.680848 186.614023 
L 550.746643 187.740715 
L 550.878115 185.256176 
L 550.943794 185.361867 
L 551.009433 186.402038 
L 551.206119 183.93031 
L 551.337051 187.678365 
L 551.402459 186.738791 
L 551.467828 186.603717 
L 551.533159 184.661867 
L 551.663706 186.815997 
L 551.728922 185.208299 
L 551.85924 188.738223 
L 552.05443 184.19879 
L 552.184367 188.034096 
L 552.378989 192.493026 
L 552.443787 190.371734 
L 552.508547 191.591943 
L 552.57327 191.505695 
L 552.637955 191.802506 
L 552.702603 190.929335 
L 552.831785 192.677686 
L 552.960818 190.78955 
L 553.089701 191.212827 
L 553.282746 193.140557 
L 553.475456 188.293288 
L 553.539619 189.040658 
L 554.051593 180.533834 
L 554.115424 181.572342 
L 554.179219 181.21988 
L 554.306699 179.913744 
L 554.370384 180.062569 
L 554.434032 181.921876 
L 554.497645 180.569133 
L 554.561221 180.598636 
L 554.688264 187.095294 
L 554.751731 186.526284 
L 554.878556 190.858049 
L 555.005237 188.39623 
L 555.068524 190.250426 
L 555.194989 185.9819 
L 555.258168 186.084133 
L 555.321311 188.023862 
L 555.384418 188.008022 
L 555.510524 187.211883 
L 555.573524 187.97663 
L 555.636488 187.79527 
L 555.699417 187.001948 
L 555.887989 182.022705 
L 555.950775 182.997831 
L 556.013526 185.889805 
L 556.076242 185.361083 
L 556.138922 183.512283 
L 556.201567 183.553509 
L 556.326751 184.78229 
L 556.38929 186.497058 
L 556.451794 184.862111 
L 556.514263 185.602496 
L 556.70146 191.858466 
L 556.888342 186.68341 
L 557.012756 187.376301 
L 557.074911 184.602406 
L 557.137031 185.392015 
L 557.323184 188.450029 
L 557.385165 188.364283 
L 557.509025 192.916423 
L 557.632747 191.797707 
L 557.694557 192.902423 
L 557.756332 192.313278 
L 557.879779 188.042025 
L 557.941451 190.052827 
L 558.00309 190.01657 
L 558.187799 187.79451 
L 558.310769 191.652537 
L 558.433603 189.879385 
L 558.556301 192.833725 
L 558.6176 192.023078 
L 558.801293 195.721362 
L 558.923587 193.370106 
L 558.984683 193.820585 
L 559.045746 193.691208 
L 559.167771 192.250375 
L 559.228734 192.772022 
L 559.350559 194.381084 
L 559.533046 193.477566 
L 559.593809 193.371443 
L 559.715235 195.997883 
L 559.775898 193.911472 
L 559.836528 194.788736 
L 559.897125 196.578254 
L 559.957689 193.374334 
L 560.018221 193.65436 
L 560.139184 196.914481 
L 560.199617 196.057266 
L 560.260016 194.405019 
L 560.380718 198.345165 
L 560.441019 196.731119 
L 560.561524 195.479136 
L 560.621728 198.019722 
L 560.681899 197.033434 
L 560.742037 196.413664 
L 560.862216 199.590205 
L 560.922258 196.819039 
L 560.982266 198.520008 
L 561.042243 199.344841 
L 561.162098 196.158776 
L 561.162098 196.158776 
" clip-path="url(#pbc2ff517fd)" style="fill: none; stroke: #2ca02c; stroke-linecap: square"/>
   </g>
   <g id="patch_3">
    <path d="M 48.982813 294.590247 
L 48.982813 22.318125 
" style="fill: none; stroke: #000000; stroke-width: 0.8; stroke-linejoin: miter; stroke-linecap: square"/>
   </g>
   <g id="patch_4">
    <path d="M 561.197812 294.590247 
L 561.197812 22.318125 
" style="fill: none; stroke: #000000; stroke-width: 0.8; stroke-linejoin: miter; stroke-linecap: square"/>
   </g>
   <g id="patch_5">
    <path d="M 48.982813 294.590247 
L 561.197812 294.590247 
" style="fill: none; stroke: #000000; stroke-width: 0.8; stroke-linejoin: miter; stroke-linecap: square"/>
   </g>
   <g id="patch_6">
    <path d="M 48.982813 22.318125 
L 561.197812 22.318125 
" style="fill: none; stroke: #000000; stroke-width: 0.8; stroke-linejoin: miter; stroke-linecap: square"/>
   </g>
   <g id="text_14">
    <!-- Toyota Tundra Blower Setting 7 - Narrow Band SPL (dBA) -->
    <g transform="translate(135.736562 16.318125) scale(0.12 -0.12)">
     <defs>
      <path id="DejaVuSans-54" d="M -19 4666 
L 3928 4666 
L 3928 4134 
L 2272 4134 
L 2272 0 
L 1638 0 
L 1638 4134 
L -19 4134 
L -19 4666 
z
" transform="scale(0.015625)"/>
      <path id="DejaVuSans-6f" d="M 1959 3097 
Q 1497 3097 1228 2736 
Q 959 2375 959 1747 
Q 959 1119 1226 758 
Q 1494 397 1959 397 
Q 2419 397 2687 759 
Q 2956 1122 2956 1747 
Q 2956 2369 2687 2733 
Q 2419 3097 1959 3097 
z
M 1959 3584 
Q 2709 3584 3137 3096 
Q 3566 2609 3566 1747 
Q 3566 888 3137 398 
Q 2709 -91 1959 -91 
Q 1206 -91 779 398 
Q 353 888 353 1747 
Q 353 2609 779 3096 
Q 1206 3584 1959 3584 
z
" transform="scale(0.015625)"/>
      <path id="DejaVuSans-74" d="M 1172 4494 
L 1172 3500 
L 2356 3500 
L 2356 3053 
L 1172 3053 
L 1172 1153 
Q 1172 725 1289 603 
Q 1406 481 1766 481 
L 2356 481 
L 2356 0 
L 1766 0 
Q 1100 0 847 248 
Q 594 497 594 1153 
L 594 3053 
L 172 3053 
L 172 3500 
L 594 3500 
L 594 4494 
L 1172 4494 
z
" transform="scale(0.015625)"/>
      <path id="DejaVuSans-61" d="M 2194 1759 
Q 1497 1759 1228 1600 
Q 959 1441 959 1056 
Q 959 750 1161 570 
Q 1363 391 1709 391 
Q 2188 391 2477 730 
Q 2766 1069 2766 1631 
L 2766 1759 
L 2194 1759 
z
M 3341 1997 
L 3341 0 
L 2766 0 
L 2766 531 
Q 2569 213 2275 61 
Q 1981 -91 1556 -91 
Q 1019 -91 701 211 
Q 384 513 384 1019 
Q 384 1609 779 1909 
Q 1175 2209 1959 2209 
L 2766 2209 
L 2766 2266 
Q 2766 2663 2505 2880 
Q 2244 3097 1772 3097 
Q 1472 3097 1187 3025 
Q 903 2953 641 2809 
L 641 3341 
Q 956 3463 1253 3523 
Q 1550 3584 1831 3584 
Q 2591 3584 2966 3190 
Q 3341 2797 3341 1997 
z
" transform="scale(0.015625)"/>
      <path id="DejaVuSans-6c" d="M 603 4863 
L 1178 4863 
L 1178 0 
L 603 0 
L 603 4863 
z
" transform="scale(0.015625)"/>
      <path id="DejaVuSans-77" d="M 269 3500 
L 844 3500 
L 1563 769 
L 2278 3500 
L 2956 3500 
L 3675 769 
L 4391 3500 
L 4966 3500 
L 4050 0 
L 3372 0 
L 2619 2869 
L 1863 0 
L 1184 0 
L 269 3500 
z
" transform="scale(0.015625)"/>
      <path id="DejaVuSans-69" d="M 603 3500 
L 1178 3500 
L 1178 0 
L 603 0 
L 603 3500 
z
M 603 4863 
L 1178 4863 
L 1178 4134 
L 603 4134 
L 603 4863 
z
" transform="scale(0.015625)"/>
      <path id="DejaVuSans-67" d="M 2906 1791 
Q 2906 2416 2648 2759 
Q 2391 3103 1925 3103 
Q 1463 3103 1205 2759 
Q 947 2416 947 1791 
Q 947 1169 1205 825 
Q 1463 481 1925 481 
Q 2391 481 2648 825 
Q 2906 1169 2906 1791 
z
M 3481 434 
Q 3481 -459 3084 -895 
Q 2688 -1331 1869 -1331 
Q 1566 -1331 1297 -1286 
Q 1028 -1241 775 -1147 
L 775 -588 
Q 1028 -725 1275 -790 
Q 1522 -856 1778 -856 
Q 2344 -856 2625 -561 
Q 2906 -266 2906 331 
L 2906 616 
Q 2728 306 2450 153 
Q 2172 0 1784 0 
Q 1141 0 747 490 
Q 353 981 353 1791 
Q 353 2603 747 3093 
Q 1141 3584 1784 3584 
Q 2172 3584 2450 3431 
Q 2728 3278 2906 2969 
L 2906 3500 
L 3481 3500 
L 3481 434 
z
" transform="scale(0.015625)"/>
      <path id="DejaVuSans-37" d="M 525 4666 
L 3525 4666 
L 3525 4397 
L 1831 0 
L 1172 0 
L 2766 4134 
L 525 4134 
L 525 4666 
z
" transform="scale(0.015625)"/>
      <path id="DejaVuSans-2d" d="M 313 2009 
L 1997 2009 
L 1997 1497 
L 313 1497 
L 313 2009 
z
" transform="scale(0.015625)"/>
      <path id="DejaVuSans-4e" d="M 628 4666 
L 1478 4666 
L 3547 763 
L 3547 4666 
L 4159 4666 
L 4159 0 
L 3309 0 
L 1241 3903 
L 1241 0 
L 628 0 
L 628 4666 
z
" transform="scale(0.015625)"/>
     </defs>
     <use xlink:href="#DejaVuSans-54"/>
     <use xlink:href="#DejaVuSans-6f" transform="translate(44.083984 0)"/>
     <use xlink:href="#DejaVuSans-79" transform="translate(105.265625 0)"/>
     <use xlink:href="#DejaVuSans-6f" transform="translate(164.445312 0)"/>
     <use xlink:href="#DejaVuSans-74" transform="translate(225.626953 0)"/>
     <use xlink:href="#DejaVuSans-61" transform="translate(264.835938 0)"/>
     <use xlink:href="#DejaVuSans-20" transform="translate(326.115234 0)"/>
     <use xlink:href="#DejaVuSans-54" transform="translate(357.902344 0)"/>
     <use xlink:href="#DejaVuSans-75" transform="translate(403.861328 0)"/>
     <use xlink:href="#DejaVuSans-6e" transform="translate(467.240234 0)"/>
     <use xlink:href="#DejaVuSans-64" transform="translate(530.619141 0)"/>
     <use xlink:href="#DejaVuSans-72" transform="translate(594.095703 0)"/>
     <use xlink:href="#DejaVuSans-61" transform="translate(635.208984 0)"/>
     <use xlink:href="#DejaVuSans-20" transform="translate(696.488281 0)"/>
     <use xlink:href="#DejaVuSans-42" transform="translate(728.275391 0)"/>
     <use xlink:href="#DejaVuSans-6c" transform="translate(796.878906 0)"/>
     <use xlink:href="#DejaVuSans-6f" transform="translate(824.662109 0)"/>
     <use xlink:href="#DejaVuSans-77" transform="translate(885.84375 0)"/>
     <use xlink:href="#DejaVuSans-65" transform="translate(967.630859 0)"/>
     <use xlink:href="#DejaVuSans-72" transform="translate(1029.154297 0)"/>
     <use xlink:href="#DejaVuSans-20" transform="translate(1070.267578 0)"/>
     <use xlink:href="#DejaVuSans-53" transform="translate(1102.054688 0)"/>
     <use xlink:href="#DejaVuSans-65" transform="translate(1165.53125 0)"/>
     <use xlink:href="#DejaVuSans-74" transform="translate(1227.054688 0)"/>
     <use xlink:href="#DejaVuSans-74" transform="translate(1266.263672 0)"/>
     <use xlink:href="#DejaVuSans-69" transform="translate(1305.472656 0)"/>
     <use xlink:href="#DejaVuSans-6e" transform="translate(1333.255859 0)"/>
     <use xlink:href="#DejaVuSans-67" transform="translate(1396.634766 0)"/>
     <use xlink:href="#DejaVuSans-20" transform="translate(1460.111328 0)"/>
     <use xlink:href="#DejaVuSans-37" transform="translate(1491.898438 0)"/>
     <use xlink:href="#DejaVuSans-20" transform="translate(1555.521484 0)"/>
     <use xlink:href="#DejaVuSans-2d" transform="translate(1587.308594 0)"/>
     <use xlink:href="#DejaVuSans-20" transform="translate(1623.392578 0)"/>
     <use xlink:href="#DejaVuSans-4e" transform="translate(1655.179688 0)"/>
     <use xlink:href="#DejaVuSans-61" transform="translate(1729.984375 0)"/>
     <use xlink:href="#DejaVuSans-72" transform="translate(1791.263672 0)"/>
     <use xlink:href="#DejaVuSans-72" transform="translate(1830.626953 0)"/>
     <use xlink:href="#DejaVuSans-6f" transform="translate(1869.490234 0)"/>
     <use xlink:href="#DejaVuSans-77" transform="translate(1930.671875 0)"/>
     <use xlink:href="#DejaVuSans-20" transform="translate(2012.458984 0)"/>
     <use xlink:href="#DejaVuSans-42" transform="translate(2044.246094 0)"/>
     <use xlink:href="#DejaVuSans-61" transform="translate(2112.849609 0)"/>
     <use xlink:href="#DejaVuSans-6e" transform="translate(2174.128906 0)"/>
     <use xlink:href="#DejaVuSans-64" transform="translate(2237.507812 0)"/>
     <use xlink:href="#DejaVuSans-20" transform="translate(2300.984375 0)"/>
     <use xlink:href="#DejaVuSans-53" transform="translate(2332.771484 0)"/>
     <use xlink:href="#DejaVuSans-50" transform="translate(2396.248047 0)"/>
     <use xlink:href="#DejaVuSans-4c" transform="translate(2456.550781 0)"/>
     <use xlink:href="#DejaVuSans-20" transform="translate(2512.263672 0)"/>
     <use xlink:href="#DejaVuSans-28" transform="translate(2544.050781 0)"/>
     <use xlink:href="#DejaVuSans-64" transform="translate(2583.064453 0)"/>
     <use xlink:href="#DejaVuSans-42" transform="translate(2646.541016 0)"/>
     <use xlink:href="#DejaVuSans-41" transform="translate(2715.144531 0)"/>
     <use xlink:href="#DejaVuSans-29" transform="translate(2783.552734 0)"/>
    </g>
   </g>
  </g>
 </g>
 <defs>
  <clipPath id="pbc2ff517fd">
   <rect x="48.982813" y="22.318125" width="512.215" height="272.272122"/>
  </clipPath>
 </defs>
</svg>
