<?xml version="1.0" encoding="utf-8" standalone="no"?>
<!DOCTYPE svg PUBLIC "-//W3C//DTD SVG 1.1//EN"
  "http://www.w3.org/Graphics/SVG/1.1/DTD/svg11.dtd">
<svg xmlns:xlink="http://www.w3.org/1999/xlink" width="568.397812pt" height="351.806674pt" viewBox="0 0 568.397812 351.806674" xmlns="http://www.w3.org/2000/svg" version="1.1">
 <metadata>
  <rdf:RDF xmlns:dc="http://purl.org/dc/elements/1.1/" xmlns:cc="http://creativecommons.org/ns#" xmlns:rdf="http://www.w3.org/1999/02/22-rdf-syntax-ns#">
   <cc:Work>
    <dc:type rdf:resource="http://purl.org/dc/dcmitype/StillImage"/>
    <dc:date>2025-04-24T18:27:09.740724</dc:date>
    <dc:format>image/svg+xml</dc:format>
    <dc:creator>
     <cc:Agent>
      <dc:title>Matplotlib v3.10.0, https://matplotlib.org/</dc:title>
     </cc:Agent>
    </dc:creator>
   </cc:Work>
  </rdf:RDF>
 </metadata>
 <defs>
  <style type="text/css">*{stroke-linejoin: round; stroke-linecap: butt}</style>
 </defs>
 <g id="figure_1">
  <g id="patch_1">
   <path d="M 0 351.806674 
L 568.397812 351.806674 
L 568.397812 0 
L 0 0 
z
" style="fill: #ffffff"/>
  </g>
  <g id="axes_1">
   <g id="patch_2">
    <path d="M 48.982813 294.590247 
L 561.197812 294.590247 
L 561.197812 22.318125 
L 48.982813 22.318125 
z
" style="fill: #ffffff"/>
   </g>
   <g id="matplotlib.axis_1">
    <g id="xtick_1">
     <g id="line2d_1">
      <path d="M 48.982813 294.590247 
L 48.982813 22.318125 
" clip-path="url(#pd5f350a47f)" style="fill: none; stroke-dasharray: 1.85,0.8; stroke-dashoffset: 0; stroke: #b0b0b0; stroke-width: 0.5"/>
     </g>
     <g id="line2d_2">
      <defs>
       <path id="m5072d9dd7e" d="M 0 0 
L 0 3.5 
" style="stroke: #000000; stroke-width: 0.8"/>
      </defs>
      <g>
       <use xlink:href="#m5072d9dd7e" x="48.982813" y="294.590247" style="stroke: #000000; stroke-width: 0.8"/>
      </g>
     </g>
     <g id="text_1">
      <!-- 100 -->
      <g transform="translate(34.015351 320.460054) rotate(-45) scale(0.1 -0.1)">
       <defs>
        <path id="DejaVuSans-31" d="M 794 531 
L 1825 531 
L 1825 4091 
L 703 3866 
L 703 4441 
L 1819 4666 
L 2450 4666 
L 2450 531 
L 3481 531 
L 3481 0 
L 794 0 
L 794 531 
z
" transform="scale(0.015625)"/>
        <path id="DejaVuSans-30" d="M 2034 4250 
Q 1547 4250 1301 3770 
Q 1056 3291 1056 2328 
Q 1056 1369 1301 889 
Q 1547 409 2034 409 
Q 2525 409 2770 889 
Q 3016 1369 3016 2328 
Q 3016 3291 2770 3770 
Q 2525 4250 2034 4250 
z
M 2034 4750 
Q 2819 4750 3233 4129 
Q 3647 3509 3647 2328 
Q 3647 1150 3233 529 
Q 2819 -91 2034 -91 
Q 1250 -91 836 529 
Q 422 1150 422 2328 
Q 422 3509 836 4129 
Q 1250 4750 2034 4750 
z
" transform="scale(0.015625)"/>
       </defs>
       <use xlink:href="#DejaVuSans-31"/>
       <use xlink:href="#DejaVuSans-30" transform="translate(63.623047 0)"/>
       <use xlink:href="#DejaVuSans-30" transform="translate(127.246094 0)"/>
      </g>
     </g>
    </g>
    <g id="xtick_2">
     <g id="line2d_3">
      <path d="M 305.090312 294.590247 
L 305.090312 22.318125 
" clip-path="url(#pd5f350a47f)" style="fill: none; stroke-dasharray: 1.85,0.8; stroke-dashoffset: 0; stroke: #b0b0b0; stroke-width: 0.5"/>
     </g>
     <g id="line2d_4">
      <g>
       <use xlink:href="#m5072d9dd7e" x="305.090312" y="294.590247" style="stroke: #000000; stroke-width: 0.8"/>
      </g>
     </g>
     <g id="text_2">
      <!-- 1000 -->
      <g transform="translate(285.623884 324.959021) rotate(-45) scale(0.1 -0.1)">
       <use xlink:href="#DejaVuSans-31"/>
       <use xlink:href="#DejaVuSans-30" transform="translate(63.623047 0)"/>
       <use xlink:href="#DejaVuSans-30" transform="translate(127.246094 0)"/>
       <use xlink:href="#DejaVuSans-30" transform="translate(190.869141 0)"/>
      </g>
     </g>
    </g>
    <g id="xtick_3">
     <g id="line2d_5">
      <path d="M 561.197812 294.590247 
L 561.197812 22.318125 
" clip-path="url(#pd5f350a47f)" style="fill: none; stroke-dasharray: 1.85,0.8; stroke-dashoffset: 0; stroke: #b0b0b0; stroke-width: 0.5"/>
     </g>
     <g id="line2d_6">
      <g>
       <use xlink:href="#m5072d9dd7e" x="561.197812" y="294.590247" style="stroke: #000000; stroke-width: 0.8"/>
      </g>
     </g>
     <g id="text_3">
      <!-- 10000 -->
      <g transform="translate(537.232417 329.457988) rotate(-45) scale(0.1 -0.1)">
       <use xlink:href="#DejaVuSans-31"/>
       <use xlink:href="#DejaVuSans-30" transform="translate(63.623047 0)"/>
       <use xlink:href="#DejaVuSans-30" transform="translate(127.246094 0)"/>
       <use xlink:href="#DejaVuSans-30" transform="translate(190.869141 0)"/>
       <use xlink:href="#DejaVuSans-30" transform="translate(254.492188 0)"/>
      </g>
     </g>
    </g>
    <g id="xtick_4">
     <g id="line2d_7">
      <path d="M 126.078852 294.590247 
L 126.078852 22.318125 
" clip-path="url(#pd5f350a47f)" style="fill: none; stroke-dasharray: 1.85,0.8; stroke-dashoffset: 0; stroke: #b0b0b0; stroke-width: 0.5"/>
     </g>
     <g id="line2d_8">
      <defs>
       <path id="ma65ce5bf5b" d="M 0 0 
L 0 2 
" style="stroke: #000000; stroke-width: 0.6"/>
      </defs>
      <g>
       <use xlink:href="#ma65ce5bf5b" x="126.078852" y="294.590247" style="stroke: #000000; stroke-width: 0.6"/>
      </g>
     </g>
    </g>
    <g id="xtick_5">
     <g id="line2d_9">
      <path d="M 171.177144 294.590247 
L 171.177144 22.318125 
" clip-path="url(#pd5f350a47f)" style="fill: none; stroke-dasharray: 1.85,0.8; stroke-dashoffset: 0; stroke: #b0b0b0; stroke-width: 0.5"/>
     </g>
     <g id="line2d_10">
      <g>
       <use xlink:href="#ma65ce5bf5b" x="171.177144" y="294.590247" style="stroke: #000000; stroke-width: 0.6"/>
      </g>
     </g>
    </g>
    <g id="xtick_6">
     <g id="line2d_11">
      <path d="M 203.174892 294.590247 
L 203.174892 22.318125 
" clip-path="url(#pd5f350a47f)" style="fill: none; stroke-dasharray: 1.85,0.8; stroke-dashoffset: 0; stroke: #b0b0b0; stroke-width: 0.5"/>
     </g>
     <g id="line2d_12">
      <g>
       <use xlink:href="#ma65ce5bf5b" x="203.174892" y="294.590247" style="stroke: #000000; stroke-width: 0.6"/>
      </g>
     </g>
    </g>
    <g id="xtick_7">
     <g id="line2d_13">
      <path d="M 227.994273 294.590247 
L 227.994273 22.318125 
" clip-path="url(#pd5f350a47f)" style="fill: none; stroke-dasharray: 1.85,0.8; stroke-dashoffset: 0; stroke: #b0b0b0; stroke-width: 0.5"/>
     </g>
     <g id="line2d_14">
      <g>
       <use xlink:href="#ma65ce5bf5b" x="227.994273" y="294.590247" style="stroke: #000000; stroke-width: 0.6"/>
      </g>
     </g>
    </g>
    <g id="xtick_8">
     <g id="line2d_15">
      <path d="M 248.273184 294.590247 
L 248.273184 22.318125 
" clip-path="url(#pd5f350a47f)" style="fill: none; stroke-dasharray: 1.85,0.8; stroke-dashoffset: 0; stroke: #b0b0b0; stroke-width: 0.5"/>
     </g>
     <g id="line2d_16">
      <g>
       <use xlink:href="#ma65ce5bf5b" x="248.273184" y="294.590247" style="stroke: #000000; stroke-width: 0.6"/>
      </g>
     </g>
    </g>
    <g id="xtick_9">
     <g id="line2d_17">
      <path d="M 265.418759 294.590247 
L 265.418759 22.318125 
" clip-path="url(#pd5f350a47f)" style="fill: none; stroke-dasharray: 1.85,0.8; stroke-dashoffset: 0; stroke: #b0b0b0; stroke-width: 0.5"/>
     </g>
     <g id="line2d_18">
      <g>
       <use xlink:href="#ma65ce5bf5b" x="265.418759" y="294.590247" style="stroke: #000000; stroke-width: 0.6"/>
      </g>
     </g>
    </g>
    <g id="xtick_10">
     <g id="line2d_19">
      <path d="M 280.270931 294.590247 
L 280.270931 22.318125 
" clip-path="url(#pd5f350a47f)" style="fill: none; stroke-dasharray: 1.85,0.8; stroke-dashoffset: 0; stroke: #b0b0b0; stroke-width: 0.5"/>
     </g>
     <g id="line2d_20">
      <g>
       <use xlink:href="#ma65ce5bf5b" x="280.270931" y="294.590247" style="stroke: #000000; stroke-width: 0.6"/>
      </g>
     </g>
    </g>
    <g id="xtick_11">
     <g id="line2d_21">
      <path d="M 293.371476 294.590247 
L 293.371476 22.318125 
" clip-path="url(#pd5f350a47f)" style="fill: none; stroke-dasharray: 1.85,0.8; stroke-dashoffset: 0; stroke: #b0b0b0; stroke-width: 0.5"/>
     </g>
     <g id="line2d_22">
      <g>
       <use xlink:href="#ma65ce5bf5b" x="293.371476" y="294.590247" style="stroke: #000000; stroke-width: 0.6"/>
      </g>
     </g>
    </g>
    <g id="xtick_12">
     <g id="line2d_23">
      <path d="M 382.186352 294.590247 
L 382.186352 22.318125 
" clip-path="url(#pd5f350a47f)" style="fill: none; stroke-dasharray: 1.85,0.8; stroke-dashoffset: 0; stroke: #b0b0b0; stroke-width: 0.5"/>
     </g>
     <g id="line2d_24">
      <g>
       <use xlink:href="#ma65ce5bf5b" x="382.186352" y="294.590247" style="stroke: #000000; stroke-width: 0.6"/>
      </g>
     </g>
    </g>
    <g id="xtick_13">
     <g id="line2d_25">
      <path d="M 427.284644 294.590247 
L 427.284644 22.318125 
" clip-path="url(#pd5f350a47f)" style="fill: none; stroke-dasharray: 1.85,0.8; stroke-dashoffset: 0; stroke: #b0b0b0; stroke-width: 0.5"/>
     </g>
     <g id="line2d_26">
      <g>
       <use xlink:href="#ma65ce5bf5b" x="427.284644" y="294.590247" style="stroke: #000000; stroke-width: 0.6"/>
      </g>
     </g>
    </g>
    <g id="xtick_14">
     <g id="line2d_27">
      <path d="M 459.282392 294.590247 
L 459.282392 22.318125 
" clip-path="url(#pd5f350a47f)" style="fill: none; stroke-dasharray: 1.85,0.8; stroke-dashoffset: 0; stroke: #b0b0b0; stroke-width: 0.5"/>
     </g>
     <g id="line2d_28">
      <g>
       <use xlink:href="#ma65ce5bf5b" x="459.282392" y="294.590247" style="stroke: #000000; stroke-width: 0.6"/>
      </g>
     </g>
    </g>
    <g id="xtick_15">
     <g id="line2d_29">
      <path d="M 484.101773 294.590247 
L 484.101773 22.318125 
" clip-path="url(#pd5f350a47f)" style="fill: none; stroke-dasharray: 1.85,0.8; stroke-dashoffset: 0; stroke: #b0b0b0; stroke-width: 0.5"/>
     </g>
     <g id="line2d_30">
      <g>
       <use xlink:href="#ma65ce5bf5b" x="484.101773" y="294.590247" style="stroke: #000000; stroke-width: 0.6"/>
      </g>
     </g>
    </g>
    <g id="xtick_16">
     <g id="line2d_31">
      <path d="M 504.380684 294.590247 
L 504.380684 22.318125 
" clip-path="url(#pd5f350a47f)" style="fill: none; stroke-dasharray: 1.85,0.8; stroke-dashoffset: 0; stroke: #b0b0b0; stroke-width: 0.5"/>
     </g>
     <g id="line2d_32">
      <g>
       <use xlink:href="#ma65ce5bf5b" x="504.380684" y="294.590247" style="stroke: #000000; stroke-width: 0.6"/>
      </g>
     </g>
    </g>
    <g id="xtick_17">
     <g id="line2d_33">
      <path d="M 521.526259 294.590247 
L 521.526259 22.318125 
" clip-path="url(#pd5f350a47f)" style="fill: none; stroke-dasharray: 1.85,0.8; stroke-dashoffset: 0; stroke: #b0b0b0; stroke-width: 0.5"/>
     </g>
     <g id="line2d_34">
      <g>
       <use xlink:href="#ma65ce5bf5b" x="521.526259" y="294.590247" style="stroke: #000000; stroke-width: 0.6"/>
      </g>
     </g>
    </g>
    <g id="xtick_18">
     <g id="line2d_35">
      <path d="M 536.378431 294.590247 
L 536.378431 22.318125 
" clip-path="url(#pd5f350a47f)" style="fill: none; stroke-dasharray: 1.85,0.8; stroke-dashoffset: 0; stroke: #b0b0b0; stroke-width: 0.5"/>
     </g>
     <g id="line2d_36">
      <g>
       <use xlink:href="#ma65ce5bf5b" x="536.378431" y="294.590247" style="stroke: #000000; stroke-width: 0.6"/>
      </g>
     </g>
    </g>
    <g id="xtick_19">
     <g id="line2d_37">
      <path d="M 549.478976 294.590247 
L 549.478976 22.318125 
" clip-path="url(#pd5f350a47f)" style="fill: none; stroke-dasharray: 1.85,0.8; stroke-dashoffset: 0; stroke: #b0b0b0; stroke-width: 0.5"/>
     </g>
     <g id="line2d_38">
      <g>
       <use xlink:href="#ma65ce5bf5b" x="549.478976" y="294.590247" style="stroke: #000000; stroke-width: 0.6"/>
      </g>
     </g>
    </g>
    <g id="text_4">
     <!-- Frequency (Hz) -->
     <g transform="translate(267.385625 342.526987) scale(0.1 -0.1)">
      <defs>
       <path id="DejaVuSans-46" d="M 628 4666 
L 3309 4666 
L 3309 4134 
L 1259 4134 
L 1259 2759 
L 3109 2759 
L 3109 2228 
L 1259 2228 
L 1259 0 
L 628 0 
L 628 4666 
z
" transform="scale(0.015625)"/>
       <path id="DejaVuSans-72" d="M 2631 2963 
Q 2534 3019 2420 3045 
Q 2306 3072 2169 3072 
Q 1681 3072 1420 2755 
Q 1159 2438 1159 1844 
L 1159 0 
L 581 0 
L 581 3500 
L 1159 3500 
L 1159 2956 
Q 1341 3275 1631 3429 
Q 1922 3584 2338 3584 
Q 2397 3584 2469 3576 
Q 2541 3569 2628 3553 
L 2631 2963 
z
" transform="scale(0.015625)"/>
       <path id="DejaVuSans-65" d="M 3597 1894 
L 3597 1613 
L 953 1613 
Q 991 1019 1311 708 
Q 1631 397 2203 397 
Q 2534 397 2845 478 
Q 3156 559 3463 722 
L 3463 178 
Q 3153 47 2828 -22 
Q 2503 -91 2169 -91 
Q 1331 -91 842 396 
Q 353 884 353 1716 
Q 353 2575 817 3079 
Q 1281 3584 2069 3584 
Q 2775 3584 3186 3129 
Q 3597 2675 3597 1894 
z
M 3022 2063 
Q 3016 2534 2758 2815 
Q 2500 3097 2075 3097 
Q 1594 3097 1305 2825 
Q 1016 2553 972 2059 
L 3022 2063 
z
" transform="scale(0.015625)"/>
       <path id="DejaVuSans-71" d="M 947 1747 
Q 947 1113 1208 752 
Q 1469 391 1925 391 
Q 2381 391 2643 752 
Q 2906 1113 2906 1747 
Q 2906 2381 2643 2742 
Q 2381 3103 1925 3103 
Q 1469 3103 1208 2742 
Q 947 2381 947 1747 
z
M 2906 525 
Q 2725 213 2448 61 
Q 2172 -91 1784 -91 
Q 1150 -91 751 415 
Q 353 922 353 1747 
Q 353 2572 751 3078 
Q 1150 3584 1784 3584 
Q 2172 3584 2448 3432 
Q 2725 3281 2906 2969 
L 2906 3500 
L 3481 3500 
L 3481 -1331 
L 2906 -1331 
L 2906 525 
z
" transform="scale(0.015625)"/>
       <path id="DejaVuSans-75" d="M 544 1381 
L 544 3500 
L 1119 3500 
L 1119 1403 
Q 1119 906 1312 657 
Q 1506 409 1894 409 
Q 2359 409 2629 706 
Q 2900 1003 2900 1516 
L 2900 3500 
L 3475 3500 
L 3475 0 
L 2900 0 
L 2900 538 
Q 2691 219 2414 64 
Q 2138 -91 1772 -91 
Q 1169 -91 856 284 
Q 544 659 544 1381 
z
M 1991 3584 
L 1991 3584 
z
" transform="scale(0.015625)"/>
       <path id="DejaVuSans-6e" d="M 3513 2113 
L 3513 0 
L 2938 0 
L 2938 2094 
Q 2938 2591 2744 2837 
Q 2550 3084 2163 3084 
Q 1697 3084 1428 2787 
Q 1159 2491 1159 1978 
L 1159 0 
L 581 0 
L 581 3500 
L 1159 3500 
L 1159 2956 
Q 1366 3272 1645 3428 
Q 1925 3584 2291 3584 
Q 2894 3584 3203 3211 
Q 3513 2838 3513 2113 
z
" transform="scale(0.015625)"/>
       <path id="DejaVuSans-63" d="M 3122 3366 
L 3122 2828 
Q 2878 2963 2633 3030 
Q 2388 3097 2138 3097 
Q 1578 3097 1268 2742 
Q 959 2388 959 1747 
Q 959 1106 1268 751 
Q 1578 397 2138 397 
Q 2388 397 2633 464 
Q 2878 531 3122 666 
L 3122 134 
Q 2881 22 2623 -34 
Q 2366 -91 2075 -91 
Q 1284 -91 818 406 
Q 353 903 353 1747 
Q 353 2603 823 3093 
Q 1294 3584 2113 3584 
Q 2378 3584 2631 3529 
Q 2884 3475 3122 3366 
z
" transform="scale(0.015625)"/>
       <path id="DejaVuSans-79" d="M 2059 -325 
Q 1816 -950 1584 -1140 
Q 1353 -1331 966 -1331 
L 506 -1331 
L 506 -850 
L 844 -850 
Q 1081 -850 1212 -737 
Q 1344 -625 1503 -206 
L 1606 56 
L 191 3500 
L 800 3500 
L 1894 763 
L 2988 3500 
L 3597 3500 
L 2059 -325 
z
" transform="scale(0.015625)"/>
       <path id="DejaVuSans-20" transform="scale(0.015625)"/>
       <path id="DejaVuSans-28" d="M 1984 4856 
Q 1566 4138 1362 3434 
Q 1159 2731 1159 2009 
Q 1159 1288 1364 580 
Q 1569 -128 1984 -844 
L 1484 -844 
Q 1016 -109 783 600 
Q 550 1309 550 2009 
Q 550 2706 781 3412 
Q 1013 4119 1484 4856 
L 1984 4856 
z
" transform="scale(0.015625)"/>
       <path id="DejaVuSans-48" d="M 628 4666 
L 1259 4666 
L 1259 2753 
L 3553 2753 
L 3553 4666 
L 4184 4666 
L 4184 0 
L 3553 0 
L 3553 2222 
L 1259 2222 
L 1259 0 
L 628 0 
L 628 4666 
z
" transform="scale(0.015625)"/>
       <path id="DejaVuSans-7a" d="M 353 3500 
L 3084 3500 
L 3084 2975 
L 922 459 
L 3084 459 
L 3084 0 
L 275 0 
L 275 525 
L 2438 3041 
L 353 3041 
L 353 3500 
z
" transform="scale(0.015625)"/>
       <path id="DejaVuSans-29" d="M 513 4856 
L 1013 4856 
Q 1481 4119 1714 3412 
Q 1947 2706 1947 2009 
Q 1947 1309 1714 600 
Q 1481 -109 1013 -844 
L 513 -844 
Q 928 -128 1133 580 
Q 1338 1288 1338 2009 
Q 1338 2731 1133 3434 
Q 928 4138 513 4856 
z
" transform="scale(0.015625)"/>
      </defs>
      <use xlink:href="#DejaVuSans-46"/>
      <use xlink:href="#DejaVuSans-72" transform="translate(50.269531 0)"/>
      <use xlink:href="#DejaVuSans-65" transform="translate(89.132812 0)"/>
      <use xlink:href="#DejaVuSans-71" transform="translate(150.65625 0)"/>
      <use xlink:href="#DejaVuSans-75" transform="translate(214.132812 0)"/>
      <use xlink:href="#DejaVuSans-65" transform="translate(277.511719 0)"/>
      <use xlink:href="#DejaVuSans-6e" transform="translate(339.035156 0)"/>
      <use xlink:href="#DejaVuSans-63" transform="translate(402.414062 0)"/>
      <use xlink:href="#DejaVuSans-79" transform="translate(457.394531 0)"/>
      <use xlink:href="#DejaVuSans-20" transform="translate(516.574219 0)"/>
      <use xlink:href="#DejaVuSans-28" transform="translate(548.361328 0)"/>
      <use xlink:href="#DejaVuSans-48" transform="translate(587.375 0)"/>
      <use xlink:href="#DejaVuSans-7a" transform="translate(662.570312 0)"/>
      <use xlink:href="#DejaVuSans-29" transform="translate(715.060547 0)"/>
     </g>
    </g>
   </g>
   <g id="matplotlib.axis_2">
    <g id="ytick_1">
     <g id="line2d_39">
      <path d="M 48.982813 294.590247 
L 561.197812 294.590247 
" clip-path="url(#pd5f350a47f)" style="fill: none; stroke-dasharray: 1.85,0.8; stroke-dashoffset: 0; stroke: #b0b0b0; stroke-width: 0.5"/>
     </g>
     <g id="line2d_40">
      <defs>
       <path id="m175c296904" d="M 0 0 
L -3.5 0 
" style="stroke: #000000; stroke-width: 0.8"/>
      </defs>
      <g>
       <use xlink:href="#m175c296904" x="48.982813" y="294.590247" style="stroke: #000000; stroke-width: 0.8"/>
      </g>
     </g>
     <g id="text_5">
      <!-- −20 -->
      <g transform="translate(20.878125 298.389466) scale(0.1 -0.1)">
       <defs>
        <path id="DejaVuSans-2212" d="M 678 2272 
L 4684 2272 
L 4684 1741 
L 678 1741 
L 678 2272 
z
" transform="scale(0.015625)"/>
        <path id="DejaVuSans-32" d="M 1228 531 
L 3431 531 
L 3431 0 
L 469 0 
L 469 531 
Q 828 903 1448 1529 
Q 2069 2156 2228 2338 
Q 2531 2678 2651 2914 
Q 2772 3150 2772 3378 
Q 2772 3750 2511 3984 
Q 2250 4219 1831 4219 
Q 1534 4219 1204 4116 
Q 875 4013 500 3803 
L 500 4441 
Q 881 4594 1212 4672 
Q 1544 4750 1819 4750 
Q 2544 4750 2975 4387 
Q 3406 4025 3406 3419 
Q 3406 3131 3298 2873 
Q 3191 2616 2906 2266 
Q 2828 2175 2409 1742 
Q 1991 1309 1228 531 
z
" transform="scale(0.015625)"/>
       </defs>
       <use xlink:href="#DejaVuSans-2212"/>
       <use xlink:href="#DejaVuSans-32" transform="translate(83.789062 0)"/>
       <use xlink:href="#DejaVuSans-30" transform="translate(147.412109 0)"/>
      </g>
     </g>
    </g>
    <g id="ytick_2">
     <g id="line2d_41">
      <path d="M 48.982813 255.694229 
L 561.197812 255.694229 
" clip-path="url(#pd5f350a47f)" style="fill: none; stroke-dasharray: 1.85,0.8; stroke-dashoffset: 0; stroke: #b0b0b0; stroke-width: 0.5"/>
     </g>
     <g id="line2d_42">
      <g>
       <use xlink:href="#m175c296904" x="48.982813" y="255.694229" style="stroke: #000000; stroke-width: 0.8"/>
      </g>
     </g>
     <g id="text_6">
      <!-- −10 -->
      <g transform="translate(20.878125 259.493448) scale(0.1 -0.1)">
       <use xlink:href="#DejaVuSans-2212"/>
       <use xlink:href="#DejaVuSans-31" transform="translate(83.789062 0)"/>
       <use xlink:href="#DejaVuSans-30" transform="translate(147.412109 0)"/>
      </g>
     </g>
    </g>
    <g id="ytick_3">
     <g id="line2d_43">
      <path d="M 48.982813 216.798212 
L 561.197812 216.798212 
" clip-path="url(#pd5f350a47f)" style="fill: none; stroke-dasharray: 1.85,0.8; stroke-dashoffset: 0; stroke: #b0b0b0; stroke-width: 0.5"/>
     </g>
     <g id="line2d_44">
      <g>
       <use xlink:href="#m175c296904" x="48.982813" y="216.798212" style="stroke: #000000; stroke-width: 0.8"/>
      </g>
     </g>
     <g id="text_7">
      <!-- 0 -->
      <g transform="translate(35.620313 220.597431) scale(0.1 -0.1)">
       <use xlink:href="#DejaVuSans-30"/>
      </g>
     </g>
    </g>
    <g id="ytick_4">
     <g id="line2d_45">
      <path d="M 48.982813 177.902195 
L 561.197812 177.902195 
" clip-path="url(#pd5f350a47f)" style="fill: none; stroke-dasharray: 1.85,0.8; stroke-dashoffset: 0; stroke: #b0b0b0; stroke-width: 0.5"/>
     </g>
     <g id="line2d_46">
      <g>
       <use xlink:href="#m175c296904" x="48.982813" y="177.902195" style="stroke: #000000; stroke-width: 0.8"/>
      </g>
     </g>
     <g id="text_8">
      <!-- 10 -->
      <g transform="translate(29.257813 181.701413) scale(0.1 -0.1)">
       <use xlink:href="#DejaVuSans-31"/>
       <use xlink:href="#DejaVuSans-30" transform="translate(63.623047 0)"/>
      </g>
     </g>
    </g>
    <g id="ytick_5">
     <g id="line2d_47">
      <path d="M 48.982813 139.006177 
L 561.197812 139.006177 
" clip-path="url(#pd5f350a47f)" style="fill: none; stroke-dasharray: 1.85,0.8; stroke-dashoffset: 0; stroke: #b0b0b0; stroke-width: 0.5"/>
     </g>
     <g id="line2d_48">
      <g>
       <use xlink:href="#m175c296904" x="48.982813" y="139.006177" style="stroke: #000000; stroke-width: 0.8"/>
      </g>
     </g>
     <g id="text_9">
      <!-- 20 -->
      <g transform="translate(29.257813 142.805396) scale(0.1 -0.1)">
       <use xlink:href="#DejaVuSans-32"/>
       <use xlink:href="#DejaVuSans-30" transform="translate(63.623047 0)"/>
      </g>
     </g>
    </g>
    <g id="ytick_6">
     <g id="line2d_49">
      <path d="M 48.982813 100.11016 
L 561.197812 100.11016 
" clip-path="url(#pd5f350a47f)" style="fill: none; stroke-dasharray: 1.85,0.8; stroke-dashoffset: 0; stroke: #b0b0b0; stroke-width: 0.5"/>
     </g>
     <g id="line2d_50">
      <g>
       <use xlink:href="#m175c296904" x="48.982813" y="100.11016" style="stroke: #000000; stroke-width: 0.8"/>
      </g>
     </g>
     <g id="text_10">
      <!-- 30 -->
      <g transform="translate(29.257813 103.909379) scale(0.1 -0.1)">
       <defs>
        <path id="DejaVuSans-33" d="M 2597 2516 
Q 3050 2419 3304 2112 
Q 3559 1806 3559 1356 
Q 3559 666 3084 287 
Q 2609 -91 1734 -91 
Q 1441 -91 1130 -33 
Q 819 25 488 141 
L 488 750 
Q 750 597 1062 519 
Q 1375 441 1716 441 
Q 2309 441 2620 675 
Q 2931 909 2931 1356 
Q 2931 1769 2642 2001 
Q 2353 2234 1838 2234 
L 1294 2234 
L 1294 2753 
L 1863 2753 
Q 2328 2753 2575 2939 
Q 2822 3125 2822 3475 
Q 2822 3834 2567 4026 
Q 2313 4219 1838 4219 
Q 1578 4219 1281 4162 
Q 984 4106 628 3988 
L 628 4550 
Q 988 4650 1302 4700 
Q 1616 4750 1894 4750 
Q 2613 4750 3031 4423 
Q 3450 4097 3450 3541 
Q 3450 3153 3228 2886 
Q 3006 2619 2597 2516 
z
" transform="scale(0.015625)"/>
       </defs>
       <use xlink:href="#DejaVuSans-33"/>
       <use xlink:href="#DejaVuSans-30" transform="translate(63.623047 0)"/>
      </g>
     </g>
    </g>
    <g id="ytick_7">
     <g id="line2d_51">
      <path d="M 48.982813 61.214142 
L 561.197812 61.214142 
" clip-path="url(#pd5f350a47f)" style="fill: none; stroke-dasharray: 1.85,0.8; stroke-dashoffset: 0; stroke: #b0b0b0; stroke-width: 0.5"/>
     </g>
     <g id="line2d_52">
      <g>
       <use xlink:href="#m175c296904" x="48.982813" y="61.214142" style="stroke: #000000; stroke-width: 0.8"/>
      </g>
     </g>
     <g id="text_11">
      <!-- 40 -->
      <g transform="translate(29.257813 65.013361) scale(0.1 -0.1)">
       <defs>
        <path id="DejaVuSans-34" d="M 2419 4116 
L 825 1625 
L 2419 1625 
L 2419 4116 
z
M 2253 4666 
L 3047 4666 
L 3047 1625 
L 3713 1625 
L 3713 1100 
L 3047 1100 
L 3047 0 
L 2419 0 
L 2419 1100 
L 313 1100 
L 313 1709 
L 2253 4666 
z
" transform="scale(0.015625)"/>
       </defs>
       <use xlink:href="#DejaVuSans-34"/>
       <use xlink:href="#DejaVuSans-30" transform="translate(63.623047 0)"/>
      </g>
     </g>
    </g>
    <g id="ytick_8">
     <g id="line2d_53">
      <path d="M 48.982813 22.318125 
L 561.197812 22.318125 
" clip-path="url(#pd5f350a47f)" style="fill: none; stroke-dasharray: 1.85,0.8; stroke-dashoffset: 0; stroke: #b0b0b0; stroke-width: 0.5"/>
     </g>
     <g id="line2d_54">
      <g>
       <use xlink:href="#m175c296904" x="48.982813" y="22.318125" style="stroke: #000000; stroke-width: 0.8"/>
      </g>
     </g>
     <g id="text_12">
      <!-- 50 -->
      <g transform="translate(29.257813 26.117344) scale(0.1 -0.1)">
       <defs>
        <path id="DejaVuSans-35" d="M 691 4666 
L 3169 4666 
L 3169 4134 
L 1269 4134 
L 1269 2991 
Q 1406 3038 1543 3061 
Q 1681 3084 1819 3084 
Q 2600 3084 3056 2656 
Q 3513 2228 3513 1497 
Q 3513 744 3044 326 
Q 2575 -91 1722 -91 
Q 1428 -91 1123 -41 
Q 819 9 494 109 
L 494 744 
Q 775 591 1075 516 
Q 1375 441 1709 441 
Q 2250 441 2565 725 
Q 2881 1009 2881 1497 
Q 2881 1984 2565 2268 
Q 2250 2553 1709 2553 
Q 1456 2553 1204 2497 
Q 953 2441 691 2322 
L 691 4666 
z
" transform="scale(0.015625)"/>
       </defs>
       <use xlink:href="#DejaVuSans-35"/>
       <use xlink:href="#DejaVuSans-30" transform="translate(63.623047 0)"/>
      </g>
     </g>
    </g>
    <g id="text_13">
     <!-- SPL (dBA) -->
     <g transform="translate(14.798438 182.944811) rotate(-90) scale(0.1 -0.1)">
      <defs>
       <path id="DejaVuSans-53" d="M 3425 4513 
L 3425 3897 
Q 3066 4069 2747 4153 
Q 2428 4238 2131 4238 
Q 1616 4238 1336 4038 
Q 1056 3838 1056 3469 
Q 1056 3159 1242 3001 
Q 1428 2844 1947 2747 
L 2328 2669 
Q 3034 2534 3370 2195 
Q 3706 1856 3706 1288 
Q 3706 609 3251 259 
Q 2797 -91 1919 -91 
Q 1588 -91 1214 -16 
Q 841 59 441 206 
L 441 856 
Q 825 641 1194 531 
Q 1563 422 1919 422 
Q 2459 422 2753 634 
Q 3047 847 3047 1241 
Q 3047 1584 2836 1778 
Q 2625 1972 2144 2069 
L 1759 2144 
Q 1053 2284 737 2584 
Q 422 2884 422 3419 
Q 422 4038 858 4394 
Q 1294 4750 2059 4750 
Q 2388 4750 2728 4690 
Q 3069 4631 3425 4513 
z
" transform="scale(0.015625)"/>
       <path id="DejaVuSans-50" d="M 1259 4147 
L 1259 2394 
L 2053 2394 
Q 2494 2394 2734 2622 
Q 2975 2850 2975 3272 
Q 2975 3691 2734 3919 
Q 2494 4147 2053 4147 
L 1259 4147 
z
M 628 4666 
L 2053 4666 
Q 2838 4666 3239 4311 
Q 3641 3956 3641 3272 
Q 3641 2581 3239 2228 
Q 2838 1875 2053 1875 
L 1259 1875 
L 1259 0 
L 628 0 
L 628 4666 
z
" transform="scale(0.015625)"/>
       <path id="DejaVuSans-4c" d="M 628 4666 
L 1259 4666 
L 1259 531 
L 3531 531 
L 3531 0 
L 628 0 
L 628 4666 
z
" transform="scale(0.015625)"/>
       <path id="DejaVuSans-64" d="M 2906 2969 
L 2906 4863 
L 3481 4863 
L 3481 0 
L 2906 0 
L 2906 525 
Q 2725 213 2448 61 
Q 2172 -91 1784 -91 
Q 1150 -91 751 415 
Q 353 922 353 1747 
Q 353 2572 751 3078 
Q 1150 3584 1784 3584 
Q 2172 3584 2448 3432 
Q 2725 3281 2906 2969 
z
M 947 1747 
Q 947 1113 1208 752 
Q 1469 391 1925 391 
Q 2381 391 2643 752 
Q 2906 1113 2906 1747 
Q 2906 2381 2643 2742 
Q 2381 3103 1925 3103 
Q 1469 3103 1208 2742 
Q 947 2381 947 1747 
z
" transform="scale(0.015625)"/>
       <path id="DejaVuSans-42" d="M 1259 2228 
L 1259 519 
L 2272 519 
Q 2781 519 3026 730 
Q 3272 941 3272 1375 
Q 3272 1813 3026 2020 
Q 2781 2228 2272 2228 
L 1259 2228 
z
M 1259 4147 
L 1259 2741 
L 2194 2741 
Q 2656 2741 2882 2914 
Q 3109 3088 3109 3444 
Q 3109 3797 2882 3972 
Q 2656 4147 2194 4147 
L 1259 4147 
z
M 628 4666 
L 2241 4666 
Q 2963 4666 3353 4366 
Q 3744 4066 3744 3513 
Q 3744 3084 3544 2831 
Q 3344 2578 2956 2516 
Q 3422 2416 3680 2098 
Q 3938 1781 3938 1306 
Q 3938 681 3513 340 
Q 3088 0 2303 0 
L 628 0 
L 628 4666 
z
" transform="scale(0.015625)"/>
       <path id="DejaVuSans-41" d="M 2188 4044 
L 1331 1722 
L 3047 1722 
L 2188 4044 
z
M 1831 4666 
L 2547 4666 
L 4325 0 
L 3669 0 
L 3244 1197 
L 1141 1197 
L 716 0 
L 50 0 
L 1831 4666 
z
" transform="scale(0.015625)"/>
      </defs>
      <use xlink:href="#DejaVuSans-53"/>
      <use xlink:href="#DejaVuSans-50" transform="translate(63.476562 0)"/>
      <use xlink:href="#DejaVuSans-4c" transform="translate(123.779297 0)"/>
      <use xlink:href="#DejaVuSans-20" transform="translate(179.492188 0)"/>
      <use xlink:href="#DejaVuSans-28" transform="translate(211.279297 0)"/>
      <use xlink:href="#DejaVuSans-64" transform="translate(250.292969 0)"/>
      <use xlink:href="#DejaVuSans-42" transform="translate(313.769531 0)"/>
      <use xlink:href="#DejaVuSans-41" transform="translate(382.373047 0)"/>
      <use xlink:href="#DejaVuSans-29" transform="translate(450.78125 0)"/>
     </g>
    </g>
   </g>
   <g id="line2d_55">
    <path d="M 51.493242 125.043159 
L 57.198394 124.526318 
L 62.625131 121.295413 
L 67.79937 120.009222 
L 72.743565 119.540178 
L 77.477304 121.579231 
L 82.017775 119.697501 
L 86.38014 112.992942 
L 90.577849 110.35119 
L 94.622879 117.894279 
L 98.525949 116.780132 
L 102.296685 111.544156 
L 105.943768 114.456051 
L 109.475052 121.669456 
L 112.897663 126.56493 
L 116.218091 129.607961 
L 119.44226 133.840448 
L 122.575596 139.523118 
L 125.623077 139.896908 
L 128.589281 135.390293 
L 131.478432 131.487819 
L 134.294433 138.037943 
L 137.040895 136.541095 
L 139.721171 131.706152 
L 142.338376 126.727411 
L 144.89541 125.183672 
L 147.394977 126.070447 
L 149.839605 130.363229 
L 152.231656 131.072255 
L 154.573344 132.176943 
L 156.866746 132.088367 
L 159.113814 132.971389 
L 161.316383 137.184117 
L 163.47618 140.457224 
L 165.594836 142.310454 
L 167.673888 139.092124 
L 169.714791 129.058401 
L 171.718919 124.575807 
L 173.687573 127.405777 
L 175.621988 123.747887 
L 177.523335 122.788183 
L 179.392725 120.445146 
L 181.231214 119.036804 
L 183.039808 118.733329 
L 186.571091 113.57075 
L 188.295561 117.501441 
L 189.993702 117.0396 
L 191.666306 113.855466 
L 193.31413 111.338593 
L 194.937897 114.83744 
L 196.5383 115.363554 
L 198.116001 116.426091 
L 199.671636 117.892566 
L 201.205813 117.237659 
L 202.719116 117.269412 
L 204.212106 119.068988 
L 205.685321 118.660424 
L 207.139277 117.704587 
L 208.574472 116.370346 
L 209.991384 113.440955 
L 211.390472 114.971651 
L 212.77218 115.231451 
L 214.136935 113.246974 
L 215.485146 114.675812 
L 216.817211 117.796651 
L 218.133511 120.466535 
L 219.434416 119.582636 
L 220.720281 121.225533 
L 221.99145 119.455258 
L 224.491017 121.247548 
L 225.720047 122.502991 
L 226.935645 119.608853 
L 228.1381 118.886377 
L 229.327695 117.66431 
L 230.504702 116.132632 
L 231.669383 116.003549 
L 232.821996 112.557231 
L 233.962786 111.598546 
L 235.091994 110.126666 
L 236.209854 107.431913 
L 237.31659 105.379755 
L 238.412422 102.142467 
L 239.497563 99.93802 
L 240.572219 96.928318 
L 241.636592 97.599836 
L 242.690875 99.140144 
L 243.735259 101.922477 
L 244.769928 102.950217 
L 246.810831 100.583397 
L 247.817408 101.041106 
L 248.814958 100.627464 
L 249.803641 99.999474 
L 250.783613 98.751432 
L 252.718028 97.178858 
L 253.672764 100.002069 
L 254.619375 104.593902 
L 256.488765 105.804593 
L 257.411808 107.554321 
L 258.327254 110.4848 
L 259.235227 110.879856 
L 260.135848 112.486452 
L 261.029235 114.928427 
L 261.915503 118.834116 
L 262.794765 124.042919 
L 263.667131 130.733316 
L 264.532708 135.471628 
L 265.391601 133.584627 
L 266.243912 131.16218 
L 267.929188 124.813747 
L 268.762346 123.60359 
L 270.41017 117.665202 
L 272.837017 110.167782 
L 273.634339 107.319189 
L 275.212041 103.090105 
L 276.767675 101.009228 
L 277.537409 101.316248 
L 278.301853 103.770772 
L 279.061078 108.649148 
L 279.815156 112.027132 
L 280.564156 116.574156 
L 281.308146 120.041984 
L 282.047192 120.503242 
L 282.78136 117.379233 
L 283.510714 115.215207 
L 284.235317 109.820838 
L 284.955229 108.397823 
L 285.670512 108.858298 
L 286.381224 107.474225 
L 287.789168 114.774245 
L 288.486512 118.45379 
L 289.86822 123.424751 
L 290.55269 126.443908 
L 291.232974 123.890251 
L 291.909123 127.369862 
L 292.581186 129.314505 
L 293.249212 129.879191 
L 293.91325 127.708562 
L 294.573348 128.031572 
L 295.229551 126.77773 
L 295.881905 130.395429 
L 296.530455 130.914904 
L 297.175246 126.951844 
L 297.81632 125.621927 
L 298.453721 122.908669 
L 299.087489 123.403805 
L 299.717667 124.68448 
L 300.344294 127.587726 
L 300.967411 128.344797 
L 301.587057 131.571965 
L 302.203269 133.250056 
L 302.816087 133.308634 
L 303.425546 132.288782 
L 304.031684 134.300578 
L 304.634537 133.625426 
L 305.23414 135.128879 
L 305.830528 135.707448 
L 306.423735 138.459219 
L 307.013795 139.947044 
L 307.600741 139.88807 
L 308.184607 140.894756 
L 308.765423 139.107363 
L 309.343222 138.644937 
L 309.918035 137.928739 
L 310.489893 135.704914 
L 311.058825 135.728391 
L 311.624863 136.3265 
L 312.188034 137.278195 
L 312.748368 137.940029 
L 313.305893 139.755144 
L 313.860638 140.640999 
L 314.412629 139.977223 
L 314.961895 140.61961 
L 315.508462 137.501594 
L 316.052356 143.406225 
L 316.593603 140.62579 
L 317.132229 139.695158 
L 317.668259 140.662372 
L 318.201719 142.778296 
L 318.732632 142.601474 
L 319.261022 142.659375 
L 319.786915 139.873029 
L 320.310333 140.272659 
L 320.831299 139.871911 
L 321.349836 138.491303 
L 322.379715 134.245934 
L 322.8911 134.431182 
L 323.400145 132.682299 
L 323.90687 131.760896 
L 324.411298 129.056777 
L 324.913448 127.66861 
L 325.413341 127.346248 
L 325.910998 129.418664 
L 326.406438 133.37645 
L 327.390746 136.40514 
L 328.366419 141.145239 
L 328.851065 140.656198 
L 329.333609 142.909126 
L 329.814068 146.388552 
L 330.29246 145.654814 
L 330.768804 145.502426 
L 331.243116 143.781877 
L 331.715414 143.299768 
L 332.185716 143.876261 
L 332.654037 144.212962 
L 333.120394 143.895605 
L 333.584804 143.402309 
L 334.047283 145.83123 
L 334.507847 147.242462 
L 334.966512 149.556471 
L 335.423294 149.700991 
L 335.878206 148.38906 
L 336.782489 154.884942 
L 337.231887 153.274723 
L 338.125274 155.37071 
L 338.569291 154.003083 
L 339.011543 153.123331 
L 339.452042 152.917093 
L 339.890805 150.400218 
L 340.327843 152.363956 
L 340.76317 152.738486 
L 341.196801 151.677761 
L 341.628747 147.585183 
L 342.059023 147.974449 
L 342.48764 148.09362 
L 342.914612 146.24179 
L 344.185781 150.661433 
L 344.606296 151.361719 
L 345.025227 151.751023 
L 345.442586 151.951456 
L 346.272636 150.151271 
L 346.685349 148.894518 
L 347.506209 143.448166 
L 347.914379 143.584568 
L 348.321056 141.68028 
L 348.726251 137.77785 
L 349.129976 137.395046 
L 349.532241 136.350465 
L 349.933056 136.502014 
L 350.332432 141.194481 
L 351.126907 147.467315 
L 351.522027 147.129434 
L 351.915748 146.429212 
L 352.30808 144.533248 
L 353.476841 140.856662 
L 354.249248 143.722781 
L 354.633449 143.362351 
L 355.016327 143.536315 
L 355.397892 145.033031 
L 355.778153 148.087284 
L 356.911195 144.775944 
L 357.286326 144.150788 
L 357.660195 144.661237 
L 358.032812 145.362456 
L 358.404185 145.563006 
L 358.774322 147.538156 
L 359.143232 147.708905 
L 359.510922 148.483047 
L 359.8774 151.325151 
L 360.242675 150.21638 
L 360.606754 150.060955 
L 360.969645 150.629552 
L 361.331356 151.495821 
L 361.691895 151.123792 
L 362.051269 147.941803 
L 362.409485 146.031869 
L 362.766551 145.785407 
L 363.122475 146.07282 
L 363.477263 147.419184 
L 364.183463 154.585127 
L 364.534889 155.895388 
L 364.885207 155.456746 
L 365.234426 155.469266 
L 365.582552 154.378406 
L 365.929591 155.064303 
L 366.275551 154.520135 
L 366.620439 155.950265 
L 367.307021 161.482401 
L 367.64873 161.89728 
L 367.989392 161.53739 
L 368.329014 159.220023 
L 368.667602 158.726823 
L 369.341702 155.476528 
L 369.677225 155.434723 
L 370.345252 156.982295 
L 370.677766 160.69043 
L 371.00929 159.791336 
L 371.339828 157.905791 
L 371.669387 158.532453 
L 371.997973 158.355247 
L 372.32559 157.574963 
L 372.652246 158.033686 
L 372.977945 157.750803 
L 373.302692 157.281238 
L 373.626495 151.908546 
L 374.271286 147.875601 
L 374.592285 148.277346 
L 374.91236 149.498659 
L 375.231517 147.33761 
L 375.54976 146.935268 
L 375.867096 146.148745 
L 376.183529 147.499878 
L 376.499064 146.492116 
L 376.813707 146.654269 
L 377.127461 148.232071 
L 377.440334 147.831857 
L 377.752329 147.220111 
L 378.063451 147.97128 
L 378.373705 147.220899 
L 378.683096 145.321682 
L 378.991629 145.828589 
L 379.299309 145.681082 
L 379.60614 146.04317 
L 379.912126 147.920169 
L 380.217273 148.675128 
L 380.521586 147.509187 
L 381.429559 152.785935 
L 382.030782 154.429826 
L 382.628773 153.772961 
L 382.926567 151.811043 
L 383.223566 150.970349 
L 383.815196 148.003295 
L 384.109835 147.634242 
L 384.403695 144.989925 
L 384.696781 144.381511 
L 384.989097 142.384473 
L 385.280646 141.296209 
L 385.571434 139.329464 
L 385.861463 138.864321 
L 386.72704 143.199194 
L 387.585932 150.768867 
L 387.870762 151.685337 
L 388.154865 149.624864 
L 388.720902 141.796106 
L 389.002844 137.203913 
L 389.564593 134.847345 
L 389.844407 131.572348 
L 390.123519 131.297422 
L 390.401933 133.522004 
L 390.956677 136.580219 
L 391.233016 135.608819 
L 391.508669 135.25023 
L 391.783641 134.578283 
L 392.331554 132.736122 
L 392.604501 133.796804 
L 393.148395 132.25378 
L 393.419348 131.412667 
L 393.689642 131.806711 
L 393.959281 130.065149 
L 394.228268 129.747001 
L 394.496606 128.963584 
L 394.764299 126.667538 
L 395.031348 127.52331 
L 395.563531 136.489807 
L 396.357062 142.871847 
L 396.620319 143.215965 
L 396.882955 145.487767 
L 397.144971 144.518197 
L 397.406372 146.088301 
L 397.667161 146.030007 
L 397.927339 147.590561 
L 398.18691 147.657916 
L 398.445876 148.035501 
L 398.704241 148.143662 
L 399.219177 152.001354 
L 399.475754 151.276919 
L 399.731741 151.392646 
L 399.98714 150.734802 
L 400.241953 152.845864 
L 400.496184 153.84378 
L 400.749836 155.598883 
L 401.00291 155.485456 
L 401.25541 156.634704 
L 402.009488 163.821818 
L 402.259715 163.556578 
L 402.509381 163.695394 
L 402.758488 164.750401 
L 403.007038 166.782935 
L 403.255033 166.493313 
L 403.502477 161.679683 
L 403.749372 160.247281 
L 403.99572 162.070195 
L 404.241524 162.912479 
L 404.486785 163.311821 
L 404.731507 164.173707 
L 404.975692 166.070391 
L 405.219342 165.392113 
L 405.462459 167.521671 
L 405.705046 167.309573 
L 405.947105 170.480925 
L 406.188638 170.680341 
L 406.429648 170.540742 
L 406.670137 168.263054 
L 406.910107 167.606515 
L 407.149561 164.651791 
L 407.3885 166.762575 
L 407.626927 167.371802 
L 408.102252 171.005083 
L 408.339156 169.258974 
L 408.575556 168.609683 
L 409.046853 164.714059 
L 409.281755 164.925726 
L 409.750076 160.225165 
L 410.448881 168.164307 
L 410.912324 169.694731 
L 411.373843 176.667481 
L 411.603887 177.941847 
L 411.833456 181.454104 
L 412.062552 181.278739 
L 412.291177 180.925991 
L 412.747022 181.081943 
L 413.653146 173.141908 
L 413.878528 169.953262 
L 414.103455 168.623694 
L 414.327927 166.024033 
L 414.551947 165.78001 
L 414.775517 167.070684 
L 414.998639 169.42131 
L 415.443544 167.53322 
L 415.665331 167.399189 
L 416.107582 170.185073 
L 416.32805 171.369662 
L 416.548082 170.904106 
L 417.205578 179.334136 
L 417.85921 190.129742 
L 418.292841 183.684327 
L 418.509023 182.040489 
L 418.940133 174.447451 
L 419.155063 172.46177 
L 419.369578 171.745847 
L 419.58368 171.780741 
L 420.010652 168.102171 
L 420.435991 168.263221 
L 420.85971 163.569291 
L 421.070966 162.326813 
L 421.281821 163.112179 
L 421.702336 161.198975 
L 422.121267 165.286669 
L 422.330142 165.594162 
L 422.538626 166.371326 
L 422.954425 171.127661 
L 423.368675 175.791686 
L 423.575223 175.687656 
L 423.781388 176.432758 
L 423.987172 181.186375 
L 424.192576 182.132322 
L 424.397601 182.013969 
L 425.010418 174.993573 
L 425.213943 173.756613 
L 425.417095 171.686018 
L 425.619878 171.388906 
L 426.024337 172.458644 
L 426.42733 177.380352 
L 426.628281 177.572237 
L 427.228963 179.310592 
L 427.428472 176.989328 
L 427.627623 176.05634 
L 428.222947 171.296687 
L 428.420682 170.796567 
L 428.618067 171.714718 
L 428.815101 173.742663 
L 429.011788 172.765748 
L 429.40412 175.244185 
L 429.599768 175.640247 
L 429.795073 177.029069 
L 430.184657 176.427195 
L 430.378938 174.250047 
L 430.572881 175.508113 
L 430.766486 174.580916 
L 430.959755 172.074393 
L 431.152688 173.936401 
L 431.345287 173.754164 
L 431.729488 172.270061 
L 432.112367 175.155666 
L 432.303313 175.710695 
L 432.493932 178.715955 
L 433.063836 181.227709 
L 433.253157 180.194678 
L 433.630835 181.539718 
L 433.819194 181.595047 
L 434.007235 182.507183 
L 434.382366 179.741242 
L 434.569457 179.767765 
L 434.9427 178.85202 
L 435.500225 185.515835 
L 435.685447 184.987876 
L 435.870362 186.076981 
L 436.05497 185.190088 
L 436.239271 183.295894 
L 436.423268 182.792514 
L 436.606961 182.953945 
L 436.790351 185.854668 
L 437.156227 183.262614 
L 437.520903 185.101301 
L 437.702793 184.989031 
L 437.884387 187.072313 
L 438.065685 187.104698 
L 438.246687 187.8924 
L 438.427396 189.246451 
L 438.787934 188.233663 
L 439.505525 192.475434 
L 439.862591 194.099598 
L 440.040695 194.405692 
L 440.218515 196.693972 
L 440.39605 197.420192 
L 440.573303 194.136592 
L 440.750274 193.454914 
L 441.103373 194.5312 
L 441.279503 194.97523 
L 441.455354 194.859723 
L 441.630928 195.854366 
L 441.806225 198.993869 
L 442.155993 199.138553 
L 442.330466 198.218388 
L 442.852246 201.07002 
L 443.371591 204.420679 
L 443.888522 198.623254 
L 444.231812 199.534212 
L 444.403061 197.776272 
L 444.574047 199.896199 
L 444.74477 199.703764 
L 444.915231 201.031907 
L 445.085432 200.816034 
L 445.255372 200.951864 
L 445.425054 201.841025 
L 445.594476 199.302409 
L 445.763642 199.361856 
L 446.101202 197.390217 
L 446.269599 199.877758 
L 446.437741 199.884491 
L 446.773265 201.08871 
L 446.940648 200.976952 
L 447.274661 206.278649 
L 447.441291 206.888827 
L 447.607673 206.836525 
L 448.10533 212.286058 
L 448.270722 211.914764 
L 448.435868 209.946333 
L 448.60077 209.763576 
L 448.765427 207.54253 
L 449.42163 193.285101 
L 449.585078 195.153673 
L 449.911254 193.710781 
L 450.073984 193.859543 
L 450.398732 198.351197 
L 450.560751 198.811373 
L 450.722535 202.453261 
L 450.884083 203.499585 
L 451.045397 205.417494 
L 451.367325 211.474916 
L 451.52794 214.373175 
L 451.688324 214.514996 
L 451.848477 215.813584 
L 452.008399 214.74306 
L 452.168092 215.62287 
L 452.327556 217.753932 
L 452.6458 215.706541 
L 452.804581 217.06592 
L 452.963135 217.037966 
L 453.279568 214.558969 
L 453.437448 214.605226 
L 453.752536 220.17674 
L 453.909746 217.968554 
L 454.223501 220.711434 
L 454.380047 221.211349 
L 454.69248 217.798605 
L 454.848368 216.31706 
L 455.004038 216.996431 
L 455.15949 216.46958 
L 455.469745 216.34562 
L 455.624548 217.100905 
L 455.779136 216.821939 
L 456.241615 219.304728 
L 456.395348 222.04876 
L 456.702179 220.477091 
L 457.008166 216.831388 
L 457.160844 217.15011 
L 457.313313 216.979886 
L 457.465573 215.687598 
L 457.617625 215.782794 
L 457.76947 214.597992 
L 458.223763 216.813091 
L 458.374783 217.914182 
L 458.525598 217.308961 
L 458.826616 218.948694 
L 458.97682 218.90088 
L 459.126822 218.614641 
L 459.276621 217.272244 
L 459.426219 217.719164 
L 459.575616 217.269905 
L 459.724813 217.728697 
L 460.022607 216.032078 
L 460.171206 220.839238 
L 460.319606 220.379967 
L 460.615814 224.127471 
L 460.763623 226.786049 
L 461.058652 225.267731 
L 461.205874 226.118954 
L 461.352902 226.213412 
L 461.499735 225.379316 
L 461.646374 226.065619 
L 461.792821 225.846215 
L 461.939075 225.923078 
L 462.085136 225.534943 
L 462.231007 224.653885 
L 462.522175 224.994016 
L 462.667473 224.793131 
L 462.812582 223.804441 
L 462.957502 221.949396 
L 463.102234 222.192794 
L 463.246777 219.021856 
L 463.391133 218.619968 
L 463.535301 220.954775 
L 463.679283 220.021638 
L 463.966689 216.14692 
L 464.110114 217.132514 
L 464.253355 218.92057 
L 464.396411 217.572077 
L 464.681972 220.141258 
L 464.824478 218.538315 
L 465.108944 220.004165 
L 465.250905 217.993794 
L 465.392684 219.403634 
L 465.534283 219.619205 
L 465.675702 220.924319 
L 465.816942 221.067094 
L 466.239587 217.092523 
L 466.380113 219.357139 
L 466.660633 216.255349 
L 466.800628 216.105505 
L 467.219559 219.645369 
L 467.358853 219.655322 
L 467.497972 220.840132 
L 467.775691 224.487499 
L 468.052717 224.047085 
L 468.190972 224.490857 
L 468.466967 227.25614 
L 468.74228 224.695977 
L 468.879681 225.8311 
L 469.016912 225.665005 
L 469.290868 223.388882 
L 469.427593 226.151511 
L 469.564151 226.450241 
L 469.700541 225.842466 
L 469.836764 227.46489 
L 470.10871 227.668445 
L 470.379994 228.329409 
L 470.515388 230.458012 
L 470.785682 226.45926 
L 470.920583 227.580336 
L 471.055321 227.751815 
L 471.189896 228.668366 
L 471.592646 223.788334 
L 471.726573 223.028546 
L 471.860338 225.208676 
L 472.127388 222.629493 
L 472.260673 224.288085 
L 472.393798 223.73689 
L 472.526764 224.281175 
L 472.79222 225.768404 
L 472.924711 226.45469 
L 473.18922 224.643823 
L 473.453102 224.519451 
L 473.584808 222.834297 
L 473.716359 224.178055 
L 473.847754 223.151097 
L 473.978994 224.273413 
L 474.241011 220.572456 
L 474.371788 223.257985 
L 474.632883 220.359881 
L 474.7632 219.889684 
L 474.893365 217.941494 
L 475.023378 217.667296 
L 475.153239 218.003179 
L 475.282949 216.552474 
L 475.412508 216.973279 
L 475.541916 215.530343 
L 475.671173 215.718904 
L 476.058047 217.322204 
L 476.315217 219.934104 
L 476.571794 218.584846 
L 476.699861 218.840038 
L 476.955553 222.377125 
L 477.210659 220.400798 
L 477.337993 220.442149 
L 477.465181 219.668624 
L 477.719122 216.482767 
L 477.845875 218.00606 
L 478.09895 213.64477 
L 478.351449 210.357122 
L 478.603377 198.533657 
L 478.729127 211.315187 
L 478.980202 212.743563 
L 479.605421 220.107466 
L 479.730044 219.878482 
L 479.978872 218.223064 
L 480.103077 218.088424 
L 480.227144 220.501392 
L 480.474864 217.000973 
L 480.845412 215.21459 
L 480.968654 214.515659 
L 481.337563 219.592328 
L 481.460262 220.883058 
L 481.582825 220.920461 
L 481.705253 221.601351 
L 481.949706 217.057457 
L 482.193623 223.645289 
L 482.315381 222.985803 
L 482.558499 225.574509 
L 482.679858 225.894815 
L 482.801086 224.605777 
L 482.922181 224.580922 
L 483.043145 226.72644 
L 483.284678 224.007459 
L 483.405248 224.315989 
L 483.525688 223.309884 
L 483.645997 223.857234 
L 483.886227 219.96485 
L 484.125938 222.062379 
L 484.365134 220.189157 
L 484.484539 220.900625 
L 484.603817 223.247093 
L 484.722966 222.954726 
L 484.960883 221.043386 
L 485.079651 221.350936 
L 485.198292 220.225773 
L 485.553458 221.577236 
L 485.671595 220.49268 
L 485.789607 222.493268 
L 485.907494 221.806825 
L 486.025255 221.784024 
L 486.260406 223.301626 
L 486.49506 224.261403 
L 486.72922 220.610572 
L 486.846116 223.430971 
L 486.962889 223.230971 
L 487.196067 225.778173 
L 487.312473 225.423655 
L 487.544921 229.482665 
L 487.660962 229.57473 
L 487.776883 227.166099 
L 487.892684 227.298838 
L 488.123923 229.752842 
L 488.354682 227.805471 
L 488.469883 227.877337 
L 488.584964 227.481978 
L 488.81477 223.894356 
L 488.929496 225.280787 
L 489.044102 225.298162 
L 489.272963 223.186551 
L 489.387217 222.355769 
L 489.501353 222.960517 
L 489.615373 221.649553 
L 489.956732 226.733616 
L 490.070286 226.182111 
L 490.183724 227.09061 
L 490.297046 226.563489 
L 490.410254 225.232117 
L 490.523346 226.990456 
L 490.636323 225.630348 
L 490.861934 225.887214 
L 490.974568 226.162125 
L 491.087088 227.213261 
L 491.199494 227.215502 
L 491.423967 223.934991 
L 491.647987 223.76909 
L 491.759828 223.923703 
L 491.871557 223.80445 
L 491.983174 222.611588 
L 492.317354 226.233795 
L 492.428524 226.471643 
L 492.650532 224.84345 
L 492.872098 228.179734 
L 493.093224 225.349172 
L 493.31391 224.687287 
L 493.42409 226.378272 
L 493.53416 226.179897 
L 493.644122 225.061776 
L 493.753975 225.543488 
L 493.863719 227.211985 
L 494.082884 224.209944 
L 494.192305 227.701929 
L 494.410823 224.284459 
L 494.519922 224.247568 
L 494.628914 224.679352 
L 494.737799 223.961048 
L 495.063816 227.874727 
L 495.172276 226.33312 
L 495.38888 228.904822 
L 495.497024 228.608147 
L 495.928552 225.004332 
L 496.036172 225.899732 
L 496.143689 225.542246 
L 496.251102 226.412552 
L 496.358411 224.828723 
L 496.465617 226.296918 
L 496.679719 224.323998 
L 496.786616 224.527076 
L 497.106692 221.833279 
L 497.213179 222.688739 
L 497.319564 222.548038 
L 497.425848 219.787283 
L 497.638112 222.661477 
L 497.744092 222.783199 
L 497.849971 222.557729 
L 498.167005 226.004486 
L 498.272483 226.167769 
L 498.37786 230.463373 
L 498.483138 228.38788 
L 498.588317 228.396693 
L 498.693396 233.204937 
L 498.798375 232.937166 
L 499.008038 232.290814 
L 499.112722 233.28531 
L 499.426182 227.842838 
L 499.530473 227.741811 
L 499.634666 229.993067 
L 499.94666 227.413109 
L 500.050465 228.692862 
L 500.257783 226.577215 
L 500.464715 228.294795 
L 500.568037 228.256232 
L 500.671263 229.090009 
L 500.774393 229.013445 
L 500.877428 227.328192 
L 500.980367 228.10603 
L 501.083212 227.328499 
L 501.288615 229.366702 
L 501.596012 226.538696 
L 502.004556 233.246012 
L 502.106458 230.263452 
L 502.309982 233.569157 
L 502.411605 232.882957 
L 502.513135 231.31407 
L 502.614572 233.737502 
L 502.918331 228.80749 
L 503.120376 228.41578 
L 503.322056 229.184822 
L 503.52337 233.271534 
L 503.62389 233.087323 
L 503.924908 236.214246 
L 504.025067 233.793915 
L 504.125135 234.391689 
L 504.225114 236.35038 
L 504.424802 235.993444 
L 504.524511 237.676802 
L 504.723663 235.760741 
L 505.021723 237.898661 
L 505.219987 236.514669 
L 505.417898 235.497225 
L 505.516722 236.281201 
L 505.615458 235.068985 
L 505.812667 236.624807 
L 506.009528 235.432367 
L 506.20604 236.570689 
L 506.402206 236.032295 
L 506.598027 234.277096 
L 506.793503 239.304571 
L 506.891113 238.718158 
L 507.183429 236.067601 
L 507.280697 238.816485 
L 507.571992 236.361932 
L 507.668921 236.783882 
L 507.765765 237.797328 
L 507.862526 237.08861 
L 508.152303 237.980789 
L 508.248728 238.925962 
L 508.345069 234.348445 
L 508.441327 235.037264 
L 508.537502 237.568071 
L 508.729602 236.652647 
L 508.825528 236.74781 
L 509.11281 234.229923 
L 509.208406 236.265703 
L 509.399353 233.809934 
L 509.494703 235.09062 
L 509.685158 232.496189 
L 509.780264 232.636531 
L 509.875289 234.471284 
L 509.970232 234.159329 
L 510.159876 235.783581 
L 510.443737 232.596248 
L 510.726875 237.217737 
L 510.821094 237.266548 
L 511.009294 239.53957 
L 511.103275 238.84257 
L 511.197176 239.539459 
L 511.290998 237.416665 
L 511.384741 239.447444 
L 511.57199 237.072416 
L 511.758925 242.140873 
L 511.852275 240.029692 
L 512.038739 241.157812 
L 512.131854 238.540781 
L 512.317851 240.811618 
L 512.410733 239.022844 
L 512.503538 242.021266 
L 512.596265 241.511243 
L 512.781487 243.244549 
L 512.873983 241.066646 
L 513.058744 243.408369 
L 513.151009 240.735884 
L 513.243198 241.243831 
L 513.335311 242.310033 
L 513.427347 239.581251 
L 513.519308 240.04933 
L 513.703001 239.263011 
L 513.794734 238.866581 
L 514.069479 240.780807 
L 514.252266 239.212947 
L 514.343548 241.746639 
L 514.434754 241.224877 
L 514.525885 241.187571 
L 514.707925 237.236819 
L 514.889667 239.079103 
L 514.980427 240.420693 
L 515.071112 239.558627 
L 515.161724 240.03288 
L 515.252262 239.943665 
L 515.433118 242.294952 
L 515.703851 239.490175 
L 515.793949 242.278108 
L 515.883974 242.078278 
L 515.973926 240.729364 
L 516.153613 243.240289 
L 516.33301 241.993246 
L 516.4226 242.407792 
L 516.601564 240.662571 
L 516.690938 240.70545 
L 516.869471 241.326661 
L 516.95863 240.969984 
L 517.047718 239.871814 
L 517.22568 242.072634 
L 517.403357 240.40082 
L 517.49209 240.935564 
L 517.669343 242.395126 
L 517.846313 238.746849 
L 518.111243 240.043078 
L 518.287512 237.451837 
L 518.551394 240.047754 
L 518.726968 240.921077 
L 518.814651 241.283174 
L 518.902265 240.018027 
L 518.98981 240.523378 
L 519.077286 238.095809 
L 519.252033 241.211232 
L 519.339303 240.0006 
L 519.426505 241.797064 
L 519.600704 239.069676 
L 519.687702 238.668163 
L 519.861492 239.696337 
L 520.035012 238.322142 
L 520.12167 239.997698 
L 520.208261 239.965593 
L 520.381241 237.147293 
L 520.553953 237.687104 
L 520.640208 238.9727 
L 520.726396 238.290117 
L 520.812518 238.429397 
L 520.898573 237.823478 
L 521.242128 238.821 
L 521.327852 238.493258 
L 521.413509 239.436629 
L 521.499101 239.129074 
L 521.584626 237.729741 
L 521.670086 238.635446 
L 521.755481 240.738283 
L 521.840809 240.431494 
L 521.926073 238.905024 
L 522.011271 239.273894 
L 522.266474 240.683251 
L 522.436285 240.578498 
L 522.521093 241.309853 
L 522.605837 239.156778 
L 522.690516 239.547085 
L 522.775131 238.242289 
L 522.859681 239.24576 
L 522.944167 239.157009 
L 523.02859 239.924154 
L 523.197242 238.886241 
L 523.365638 239.553971 
L 523.449741 238.67221 
L 523.533781 239.9063 
L 523.701669 238.73987 
L 523.785518 238.980599 
L 524.036688 237.154745 
L 524.287291 239.614199 
L 524.454047 235.918762 
L 524.703713 239.087954 
L 524.78681 239.623272 
L 524.869846 237.456244 
L 525.035731 240.00023 
L 525.118581 239.402065 
L 525.201369 239.000619 
L 525.366761 240.128454 
L 525.449365 239.26418 
L 525.531908 241.21123 
L 525.614389 239.559474 
L 525.696809 239.688208 
L 525.779168 239.444972 
L 526.025881 234.998071 
L 526.190052 237.586863 
L 526.272047 238.11189 
L 526.353981 237.005343 
L 526.435856 237.827075 
L 526.51767 236.837934 
L 526.599423 237.578279 
L 526.681117 239.413377 
L 526.844325 237.665831 
L 526.925839 237.858684 
L 527.007294 237.679175 
L 527.088688 236.583833 
L 527.2513 238.596937 
L 527.413674 235.308184 
L 527.494772 235.958221 
L 527.575811 233.705633 
L 527.818574 238.227092 
L 527.899378 238.292313 
L 527.980123 237.12622 
L 528.060809 238.216377 
L 528.141437 237.839867 
L 528.302517 237.128937 
L 528.38297 234.740425 
L 528.463365 235.461919 
L 528.543701 234.597927 
L 528.704201 236.573644 
L 528.784364 236.30406 
L 528.944517 237.445572 
L 529.104439 236.384278 
L 529.184314 233.829425 
L 529.264132 234.56168 
L 529.662364 240.477496 
L 529.90062 235.771741 
L 530.059175 238.684498 
L 530.138368 237.858289 
L 530.217504 237.972733 
L 530.375608 238.436456 
L 530.533487 237.686358 
L 530.612343 237.786462 
L 530.848576 234.723758 
L 531.005786 236.004694 
L 531.084307 238.372705 
L 531.162774 238.063858 
L 531.241185 236.444966 
L 531.397841 238.413467 
L 531.476087 237.597573 
L 531.554278 235.571676 
L 531.632413 236.999217 
L 531.710494 236.172626 
L 531.78852 233.880464 
L 531.866491 235.212257 
L 532.100078 233.038167 
L 532.177831 233.78635 
L 532.25553 233.273993 
L 532.333175 233.591719 
L 532.565784 236.368025 
L 532.643213 234.255982 
L 532.720587 235.930098 
L 532.797908 234.30382 
L 532.952389 236.052253 
L 533.029549 238.05237 
L 533.106655 236.748679 
L 533.337655 239.855492 
L 533.491388 233.356148 
L 533.72159 238.707223 
L 533.874794 235.320059 
L 534.104205 240.693186 
L 534.333144 236.403034 
L 534.409353 239.08781 
L 534.485509 238.569259 
L 534.637665 238.083477 
L 534.865509 239.876852 
L 534.941354 239.491658 
L 535.017147 238.303039 
L 535.092888 240.130531 
L 535.168578 239.372986 
L 535.319803 240.732192 
L 535.470823 237.328236 
L 535.621638 240.667384 
L 535.696969 240.436038 
L 535.772249 239.836751 
L 535.922656 237.190422 
L 535.997783 238.279231 
L 536.07286 237.24501 
L 536.222861 238.784922 
L 536.297786 238.560139 
L 536.596982 233.277138 
L 536.671656 237.02311 
L 536.746279 236.624806 
L 536.820852 236.962783 
L 536.895376 235.572922 
L 536.969849 238.082842 
L 537.044273 234.240261 
L 537.118647 234.387501 
L 537.192971 237.167924 
L 537.267245 235.761672 
L 537.34147 235.844913 
L 537.563848 237.715145 
L 537.637876 237.469866 
L 537.785783 235.544582 
L 537.933493 237.711273 
L 538.081008 235.720142 
L 538.228327 238.436775 
L 538.301914 237.341039 
L 538.522382 239.586454 
L 538.669118 237.927927 
L 538.742414 239.763717 
L 538.815661 238.894729 
L 538.962011 240.401606 
L 539.035114 239.787301 
L 539.108169 236.959015 
L 539.181176 237.459173 
L 539.254135 236.785174 
L 539.327046 236.837628 
L 539.39991 236.642325 
L 539.545494 234.583034 
L 539.618214 235.683486 
L 539.836091 238.720375 
L 540.053542 236.572719 
L 540.198273 242.362229 
L 540.270568 240.181543 
L 540.415018 235.573707 
L 540.487172 237.980751 
L 540.55928 236.813077 
L 540.631341 238.763898 
L 540.703355 238.58371 
L 540.919119 233.42085 
L 541.062729 234.897703 
L 541.134465 237.457369 
L 541.206154 236.801952 
L 541.49245 232.497535 
L 541.563909 233.864363 
L 541.635323 238.48156 
L 541.70669 236.488915 
L 541.849288 237.332071 
L 541.920518 236.417094 
L 541.991703 236.838665 
L 542.062842 238.132335 
L 542.133935 237.678406 
L 542.204984 236.375583 
L 542.275987 236.460414 
L 542.346944 236.759741 
L 542.488724 235.339829 
L 542.559546 216.708311 
L 542.630323 218.561925 
L 542.701055 239.915722 
L 542.771742 239.421341 
L 542.842384 239.866638 
L 542.912981 239.16543 
L 542.983534 235.252524 
L 543.124505 239.881009 
L 543.194923 239.357597 
L 543.265297 241.241187 
L 543.335627 239.304912 
L 543.405912 239.481343 
L 543.476153 239.881414 
L 543.546349 241.849232 
L 543.756673 236.500132 
L 543.826692 238.665543 
L 543.896668 240.558685 
L 543.966599 240.434951 
L 544.036487 240.608207 
L 544.10633 239.392607 
L 544.454892 242.376471 
L 544.524474 242.041741 
L 544.663507 242.950539 
L 544.732958 239.514156 
L 544.802366 240.598719 
L 544.941052 242.282009 
L 545.01033 240.712691 
L 545.079565 241.541763 
L 545.148757 240.72169 
L 545.217906 242.175256 
L 545.287012 241.310439 
L 545.425095 243.428935 
L 545.494072 242.902367 
L 545.563007 242.287878 
L 545.700748 243.937795 
L 545.838319 241.48449 
L 545.907041 241.92138 
L 545.97572 240.587933 
L 546.044357 241.081571 
L 546.112952 243.770083 
L 546.181504 242.372607 
L 546.250014 242.836101 
L 546.318482 244.980588 
L 546.386908 244.183158 
L 546.455291 242.07574 
L 546.523633 242.342472 
L 546.728406 243.849517 
L 546.932804 246.909797 
L 547.136826 242.913965 
L 547.20475 242.529351 
L 547.272633 242.542779 
L 547.340474 242.743755 
L 547.543751 244.187818 
L 547.611427 243.403974 
L 547.679062 243.503177 
L 547.81421 247.38801 
L 547.881722 247.218248 
L 548.016623 243.424643 
L 548.218668 247.545357 
L 548.285935 247.19032 
L 548.487493 241.419072 
L 548.688686 244.166121 
L 548.822612 242.550007 
L 548.889515 244.747368 
L 548.956378 244.391173 
L 549.0232 242.696946 
L 549.156725 245.375 
L 549.423295 241.855789 
L 549.489837 242.589172 
L 549.755611 245.296196 
L 549.88826 242.481142 
L 550.02075 244.919458 
L 550.086937 243.198363 
L 550.153084 243.650007 
L 550.351289 246.837111 
L 550.417279 246.160807 
L 550.615014 242.851211 
L 550.680848 243.268605 
L 550.812398 246.131282 
L 550.943794 244.52437 
L 551.009433 245.092612 
L 551.075034 244.647121 
L 551.140596 244.827691 
L 551.206119 244.74344 
L 551.402459 241.575998 
L 551.467828 244.070276 
L 551.533159 243.015508 
L 551.663706 244.111149 
L 551.7941 245.993406 
L 551.924341 244.638956 
L 552.05443 245.326448 
L 552.119418 244.526138 
L 552.184367 245.382929 
L 552.249279 244.087108 
L 552.314153 245.076349 
L 552.378989 242.931429 
L 552.443787 244.485631 
L 552.57327 242.160823 
L 552.767213 245.716242 
L 552.831785 245.461037 
L 552.89632 244.54639 
L 552.960818 246.809197 
L 553.025278 246.180534 
L 553.089701 243.91807 
L 553.154086 244.870427 
L 553.218435 245.812338 
L 553.282746 245.249089 
L 553.34702 244.42746 
L 553.539619 247.077098 
L 553.603745 246.448224 
L 553.667834 245.457339 
L 553.795901 246.496257 
L 553.859879 244.711951 
L 553.92382 244.957583 
L 554.051593 243.493705 
L 554.115424 242.715108 
L 554.179219 244.847654 
L 554.242977 243.187942 
L 554.306699 244.034217 
L 554.370384 245.421628 
L 554.561221 243.572634 
L 554.878556 247.229974 
L 554.941915 247.176132 
L 555.005237 245.463238 
L 555.068524 246.415365 
L 555.131775 246.625525 
L 555.258168 245.751825 
L 555.384418 244.285966 
L 555.447489 244.995449 
L 555.510524 244.587161 
L 555.573524 244.968798 
L 555.636488 244.02567 
L 555.699417 246.660827 
L 555.76231 245.494845 
L 556.076242 246.968174 
L 556.138922 247.931408 
L 556.201567 247.62754 
L 556.264176 247.102174 
L 556.326751 244.050315 
L 556.38929 245.722324 
L 556.514263 247.314283 
L 556.70146 244.856814 
L 556.763789 244.573884 
L 556.888342 243.384227 
L 557.012756 248.013131 
L 557.261168 243.621989 
L 557.323184 246.706986 
L 557.385165 245.286831 
L 557.509025 244.053208 
L 557.570903 247.322821 
L 557.632747 246.050635 
L 557.694557 245.78103 
L 557.818073 246.949315 
L 557.879779 245.215094 
L 557.941451 245.856912 
L 558.126264 247.54546 
L 558.187799 247.083309 
L 558.249301 248.605755 
L 558.310769 247.949084 
L 558.433603 244.02851 
L 558.6176 247.603741 
L 558.801293 245.69425 
L 558.923587 244.606126 
L 559.045746 247.483813 
L 559.106775 246.00463 
L 559.167771 246.685363 
L 559.228734 246.67051 
L 559.289663 246.596665 
L 559.533046 243.974192 
L 559.654538 243.910802 
L 559.715235 242.85914 
L 559.775898 242.877123 
L 559.957689 244.839923 
L 560.139184 245.663801 
L 560.199617 245.606241 
L 560.260016 245.390548 
L 560.441019 243.968302 
L 560.561524 246.096484 
L 560.681899 243.715244 
L 560.862216 246.048619 
L 560.922258 246.175872 
L 560.982266 246.058362 
L 561.042243 245.708322 
L 561.102186 246.093935 
L 561.162098 247.367285 
L 561.162098 247.367285 
" clip-path="url(#pd5f350a47f)" style="fill: none; stroke: #2ca02c; stroke-linecap: square"/>
   </g>
   <g id="patch_3">
    <path d="M 48.982813 294.590247 
L 48.982813 22.318125 
" style="fill: none; stroke: #000000; stroke-width: 0.8; stroke-linejoin: miter; stroke-linecap: square"/>
   </g>
   <g id="patch_4">
    <path d="M 561.197812 294.590247 
L 561.197812 22.318125 
" style="fill: none; stroke: #000000; stroke-width: 0.8; stroke-linejoin: miter; stroke-linecap: square"/>
   </g>
   <g id="patch_5">
    <path d="M 48.982813 294.590247 
L 561.197812 294.590247 
" style="fill: none; stroke: #000000; stroke-width: 0.8; stroke-linejoin: miter; stroke-linecap: square"/>
   </g>
   <g id="patch_6">
    <path d="M 48.982813 22.318125 
L 561.197812 22.318125 
" style="fill: none; stroke: #000000; stroke-width: 0.8; stroke-linejoin: miter; stroke-linecap: square"/>
   </g>
   <g id="text_14">
    <!-- Toyota Tundra Blower Setting 4 - Narrow Band SPL (dBA) -->
    <g transform="translate(135.736562 16.318125) scale(0.12 -0.12)">
     <defs>
      <path id="DejaVuSans-54" d="M -19 4666 
L 3928 4666 
L 3928 4134 
L 2272 4134 
L 2272 0 
L 1638 0 
L 1638 4134 
L -19 4134 
L -19 4666 
z
" transform="scale(0.015625)"/>
      <path id="DejaVuSans-6f" d="M 1959 3097 
Q 1497 3097 1228 2736 
Q 959 2375 959 1747 
Q 959 1119 1226 758 
Q 1494 397 1959 397 
Q 2419 397 2687 759 
Q 2956 1122 2956 1747 
Q 2956 2369 2687 2733 
Q 2419 3097 1959 3097 
z
M 1959 3584 
Q 2709 3584 3137 3096 
Q 3566 2609 3566 1747 
Q 3566 888 3137 398 
Q 2709 -91 1959 -91 
Q 1206 -91 779 398 
Q 353 888 353 1747 
Q 353 2609 779 3096 
Q 1206 3584 1959 3584 
z
" transform="scale(0.015625)"/>
      <path id="DejaVuSans-74" d="M 1172 4494 
L 1172 3500 
L 2356 3500 
L 2356 3053 
L 1172 3053 
L 1172 1153 
Q 1172 725 1289 603 
Q 1406 481 1766 481 
L 2356 481 
L 2356 0 
L 1766 0 
Q 1100 0 847 248 
Q 594 497 594 1153 
L 594 3053 
L 172 3053 
L 172 3500 
L 594 3500 
L 594 4494 
L 1172 4494 
z
" transform="scale(0.015625)"/>
      <path id="DejaVuSans-61" d="M 2194 1759 
Q 1497 1759 1228 1600 
Q 959 1441 959 1056 
Q 959 750 1161 570 
Q 1363 391 1709 391 
Q 2188 391 2477 730 
Q 2766 1069 2766 1631 
L 2766 1759 
L 2194 1759 
z
M 3341 1997 
L 3341 0 
L 2766 0 
L 2766 531 
Q 2569 213 2275 61 
Q 1981 -91 1556 -91 
Q 1019 -91 701 211 
Q 384 513 384 1019 
Q 384 1609 779 1909 
Q 1175 2209 1959 2209 
L 2766 2209 
L 2766 2266 
Q 2766 2663 2505 2880 
Q 2244 3097 1772 3097 
Q 1472 3097 1187 3025 
Q 903 2953 641 2809 
L 641 3341 
Q 956 3463 1253 3523 
Q 1550 3584 1831 3584 
Q 2591 3584 2966 3190 
Q 3341 2797 3341 1997 
z
" transform="scale(0.015625)"/>
      <path id="DejaVuSans-6c" d="M 603 4863 
L 1178 4863 
L 1178 0 
L 603 0 
L 603 4863 
z
" transform="scale(0.015625)"/>
      <path id="DejaVuSans-77" d="M 269 3500 
L 844 3500 
L 1563 769 
L 2278 3500 
L 2956 3500 
L 3675 769 
L 4391 3500 
L 4966 3500 
L 4050 0 
L 3372 0 
L 2619 2869 
L 1863 0 
L 1184 0 
L 269 3500 
z
" transform="scale(0.015625)"/>
      <path id="DejaVuSans-69" d="M 603 3500 
L 1178 3500 
L 1178 0 
L 603 0 
L 603 3500 
z
M 603 4863 
L 1178 4863 
L 1178 4134 
L 603 4134 
L 603 4863 
z
" transform="scale(0.015625)"/>
      <path id="DejaVuSans-67" d="M 2906 1791 
Q 2906 2416 2648 2759 
Q 2391 3103 1925 3103 
Q 1463 3103 1205 2759 
Q 947 2416 947 1791 
Q 947 1169 1205 825 
Q 1463 481 1925 481 
Q 2391 481 2648 825 
Q 2906 1169 2906 1791 
z
M 3481 434 
Q 3481 -459 3084 -895 
Q 2688 -1331 1869 -1331 
Q 1566 -1331 1297 -1286 
Q 1028 -1241 775 -1147 
L 775 -588 
Q 1028 -725 1275 -790 
Q 1522 -856 1778 -856 
Q 2344 -856 2625 -561 
Q 2906 -266 2906 331 
L 2906 616 
Q 2728 306 2450 153 
Q 2172 0 1784 0 
Q 1141 0 747 490 
Q 353 981 353 1791 
Q 353 2603 747 3093 
Q 1141 3584 1784 3584 
Q 2172 3584 2450 3431 
Q 2728 3278 2906 2969 
L 2906 3500 
L 3481 3500 
L 3481 434 
z
" transform="scale(0.015625)"/>
      <path id="DejaVuSans-2d" d="M 313 2009 
L 1997 2009 
L 1997 1497 
L 313 1497 
L 313 2009 
z
" transform="scale(0.015625)"/>
      <path id="DejaVuSans-4e" d="M 628 4666 
L 1478 4666 
L 3547 763 
L 3547 4666 
L 4159 4666 
L 4159 0 
L 3309 0 
L 1241 3903 
L 1241 0 
L 628 0 
L 628 4666 
z
" transform="scale(0.015625)"/>
     </defs>
     <use xlink:href="#DejaVuSans-54"/>
     <use xlink:href="#DejaVuSans-6f" transform="translate(44.083984 0)"/>
     <use xlink:href="#DejaVuSans-79" transform="translate(105.265625 0)"/>
     <use xlink:href="#DejaVuSans-6f" transform="translate(164.445312 0)"/>
     <use xlink:href="#DejaVuSans-74" transform="translate(225.626953 0)"/>
     <use xlink:href="#DejaVuSans-61" transform="translate(264.835938 0)"/>
     <use xlink:href="#DejaVuSans-20" transform="translate(326.115234 0)"/>
     <use xlink:href="#DejaVuSans-54" transform="translate(357.902344 0)"/>
     <use xlink:href="#DejaVuSans-75" transform="translate(403.861328 0)"/>
     <use xlink:href="#DejaVuSans-6e" transform="translate(467.240234 0)"/>
     <use xlink:href="#DejaVuSans-64" transform="translate(530.619141 0)"/>
     <use xlink:href="#DejaVuSans-72" transform="translate(594.095703 0)"/>
     <use xlink:href="#DejaVuSans-61" transform="translate(635.208984 0)"/>
     <use xlink:href="#DejaVuSans-20" transform="translate(696.488281 0)"/>
     <use xlink:href="#DejaVuSans-42" transform="translate(728.275391 0)"/>
     <use xlink:href="#DejaVuSans-6c" transform="translate(796.878906 0)"/>
     <use xlink:href="#DejaVuSans-6f" transform="translate(824.662109 0)"/>
     <use xlink:href="#DejaVuSans-77" transform="translate(885.84375 0)"/>
     <use xlink:href="#DejaVuSans-65" transform="translate(967.630859 0)"/>
     <use xlink:href="#DejaVuSans-72" transform="translate(1029.154297 0)"/>
     <use xlink:href="#DejaVuSans-20" transform="translate(1070.267578 0)"/>
     <use xlink:href="#DejaVuSans-53" transform="translate(1102.054688 0)"/>
     <use xlink:href="#DejaVuSans-65" transform="translate(1165.53125 0)"/>
     <use xlink:href="#DejaVuSans-74" transform="translate(1227.054688 0)"/>
     <use xlink:href="#DejaVuSans-74" transform="translate(1266.263672 0)"/>
     <use xlink:href="#DejaVuSans-69" transform="translate(1305.472656 0)"/>
     <use xlink:href="#DejaVuSans-6e" transform="translate(1333.255859 0)"/>
     <use xlink:href="#DejaVuSans-67" transform="translate(1396.634766 0)"/>
     <use xlink:href="#DejaVuSans-20" transform="translate(1460.111328 0)"/>
     <use xlink:href="#DejaVuSans-34" transform="translate(1491.898438 0)"/>
     <use xlink:href="#DejaVuSans-20" transform="translate(1555.521484 0)"/>
     <use xlink:href="#DejaVuSans-2d" transform="translate(1587.308594 0)"/>
     <use xlink:href="#DejaVuSans-20" transform="translate(1623.392578 0)"/>
     <use xlink:href="#DejaVuSans-4e" transform="translate(1655.179688 0)"/>
     <use xlink:href="#DejaVuSans-61" transform="translate(1729.984375 0)"/>
     <use xlink:href="#DejaVuSans-72" transform="translate(1791.263672 0)"/>
     <use xlink:href="#DejaVuSans-72" transform="translate(1830.626953 0)"/>
     <use xlink:href="#DejaVuSans-6f" transform="translate(1869.490234 0)"/>
     <use xlink:href="#DejaVuSans-77" transform="translate(1930.671875 0)"/>
     <use xlink:href="#DejaVuSans-20" transform="translate(2012.458984 0)"/>
     <use xlink:href="#DejaVuSans-42" transform="translate(2044.246094 0)"/>
     <use xlink:href="#DejaVuSans-61" transform="translate(2112.849609 0)"/>
     <use xlink:href="#DejaVuSans-6e" transform="translate(2174.128906 0)"/>
     <use xlink:href="#DejaVuSans-64" transform="translate(2237.507812 0)"/>
     <use xlink:href="#DejaVuSans-20" transform="translate(2300.984375 0)"/>
     <use xlink:href="#DejaVuSans-53" transform="translate(2332.771484 0)"/>
     <use xlink:href="#DejaVuSans-50" transform="translate(2396.248047 0)"/>
     <use xlink:href="#DejaVuSans-4c" transform="translate(2456.550781 0)"/>
     <use xlink:href="#DejaVuSans-20" transform="translate(2512.263672 0)"/>
     <use xlink:href="#DejaVuSans-28" transform="translate(2544.050781 0)"/>
     <use xlink:href="#DejaVuSans-64" transform="translate(2583.064453 0)"/>
     <use xlink:href="#DejaVuSans-42" transform="translate(2646.541016 0)"/>
     <use xlink:href="#DejaVuSans-41" transform="translate(2715.144531 0)"/>
     <use xlink:href="#DejaVuSans-29" transform="translate(2783.552734 0)"/>
    </g>
   </g>
  </g>
 </g>
 <defs>
  <clipPath id="pd5f350a47f">
   <rect x="48.982813" y="22.318125" width="512.215" height="272.272122"/>
  </clipPath>
 </defs>
</svg>
