<?xml version="1.0" encoding="utf-8" standalone="no"?>
<!DOCTYPE svg PUBLIC "-//W3C//DTD SVG 1.1//EN"
  "http://www.w3.org/Graphics/SVG/1.1/DTD/svg11.dtd">
<svg xmlns:xlink="http://www.w3.org/1999/xlink" width="568.397812pt" height="351.806674pt" viewBox="0 0 568.397812 351.806674" xmlns="http://www.w3.org/2000/svg" version="1.1">
 <metadata>
  <rdf:RDF xmlns:dc="http://purl.org/dc/elements/1.1/" xmlns:cc="http://creativecommons.org/ns#" xmlns:rdf="http://www.w3.org/1999/02/22-rdf-syntax-ns#">
   <cc:Work>
    <dc:type rdf:resource="http://purl.org/dc/dcmitype/StillImage"/>
    <dc:date>2025-04-24T19:41:16.417527</dc:date>
    <dc:format>image/svg+xml</dc:format>
    <dc:creator>
     <cc:Agent>
      <dc:title>Matplotlib v3.10.0, https://matplotlib.org/</dc:title>
     </cc:Agent>
    </dc:creator>
   </cc:Work>
  </rdf:RDF>
 </metadata>
 <defs>
  <style type="text/css">*{stroke-linejoin: round; stroke-linecap: butt}</style>
 </defs>
 <g id="figure_1">
  <g id="patch_1">
   <path d="M 0 351.806674 
L 568.397812 351.806674 
L 568.397812 0 
L 0 0 
z
" style="fill: #ffffff"/>
  </g>
  <g id="axes_1">
   <g id="patch_2">
    <path d="M 48.982813 294.590247 
L 561.197812 294.590247 
L 561.197812 22.318125 
L 48.982813 22.318125 
z
" style="fill: #ffffff"/>
   </g>
   <g id="matplotlib.axis_1">
    <g id="xtick_1">
     <g id="line2d_1">
      <path d="M 48.982813 294.590247 
L 48.982813 22.318125 
" clip-path="url(#p67264b33f2)" style="fill: none; stroke-dasharray: 1.85,0.8; stroke-dashoffset: 0; stroke: #b0b0b0; stroke-width: 0.5"/>
     </g>
     <g id="line2d_2">
      <defs>
       <path id="mf43639e94c" d="M 0 0 
L 0 3.5 
" style="stroke: #000000; stroke-width: 0.8"/>
      </defs>
      <g>
       <use xlink:href="#mf43639e94c" x="48.982813" y="294.590247" style="stroke: #000000; stroke-width: 0.8"/>
      </g>
     </g>
     <g id="text_1">
      <!-- 100 -->
      <g transform="translate(34.015351 320.460054) rotate(-45) scale(0.1 -0.1)">
       <defs>
        <path id="DejaVuSans-31" d="M 794 531 
L 1825 531 
L 1825 4091 
L 703 3866 
L 703 4441 
L 1819 4666 
L 2450 4666 
L 2450 531 
L 3481 531 
L 3481 0 
L 794 0 
L 794 531 
z
" transform="scale(0.015625)"/>
        <path id="DejaVuSans-30" d="M 2034 4250 
Q 1547 4250 1301 3770 
Q 1056 3291 1056 2328 
Q 1056 1369 1301 889 
Q 1547 409 2034 409 
Q 2525 409 2770 889 
Q 3016 1369 3016 2328 
Q 3016 3291 2770 3770 
Q 2525 4250 2034 4250 
z
M 2034 4750 
Q 2819 4750 3233 4129 
Q 3647 3509 3647 2328 
Q 3647 1150 3233 529 
Q 2819 -91 2034 -91 
Q 1250 -91 836 529 
Q 422 1150 422 2328 
Q 422 3509 836 4129 
Q 1250 4750 2034 4750 
z
" transform="scale(0.015625)"/>
       </defs>
       <use xlink:href="#DejaVuSans-31"/>
       <use xlink:href="#DejaVuSans-30" transform="translate(63.623047 0)"/>
       <use xlink:href="#DejaVuSans-30" transform="translate(127.246094 0)"/>
      </g>
     </g>
    </g>
    <g id="xtick_2">
     <g id="line2d_3">
      <path d="M 305.090312 294.590247 
L 305.090312 22.318125 
" clip-path="url(#p67264b33f2)" style="fill: none; stroke-dasharray: 1.85,0.8; stroke-dashoffset: 0; stroke: #b0b0b0; stroke-width: 0.5"/>
     </g>
     <g id="line2d_4">
      <g>
       <use xlink:href="#mf43639e94c" x="305.090312" y="294.590247" style="stroke: #000000; stroke-width: 0.8"/>
      </g>
     </g>
     <g id="text_2">
      <!-- 1000 -->
      <g transform="translate(285.623884 324.959021) rotate(-45) scale(0.1 -0.1)">
       <use xlink:href="#DejaVuSans-31"/>
       <use xlink:href="#DejaVuSans-30" transform="translate(63.623047 0)"/>
       <use xlink:href="#DejaVuSans-30" transform="translate(127.246094 0)"/>
       <use xlink:href="#DejaVuSans-30" transform="translate(190.869141 0)"/>
      </g>
     </g>
    </g>
    <g id="xtick_3">
     <g id="line2d_5">
      <path d="M 561.197812 294.590247 
L 561.197812 22.318125 
" clip-path="url(#p67264b33f2)" style="fill: none; stroke-dasharray: 1.85,0.8; stroke-dashoffset: 0; stroke: #b0b0b0; stroke-width: 0.5"/>
     </g>
     <g id="line2d_6">
      <g>
       <use xlink:href="#mf43639e94c" x="561.197812" y="294.590247" style="stroke: #000000; stroke-width: 0.8"/>
      </g>
     </g>
     <g id="text_3">
      <!-- 10000 -->
      <g transform="translate(537.232417 329.457988) rotate(-45) scale(0.1 -0.1)">
       <use xlink:href="#DejaVuSans-31"/>
       <use xlink:href="#DejaVuSans-30" transform="translate(63.623047 0)"/>
       <use xlink:href="#DejaVuSans-30" transform="translate(127.246094 0)"/>
       <use xlink:href="#DejaVuSans-30" transform="translate(190.869141 0)"/>
       <use xlink:href="#DejaVuSans-30" transform="translate(254.492188 0)"/>
      </g>
     </g>
    </g>
    <g id="xtick_4">
     <g id="line2d_7">
      <path d="M 126.078852 294.590247 
L 126.078852 22.318125 
" clip-path="url(#p67264b33f2)" style="fill: none; stroke-dasharray: 1.85,0.8; stroke-dashoffset: 0; stroke: #b0b0b0; stroke-width: 0.5"/>
     </g>
     <g id="line2d_8">
      <defs>
       <path id="m006c002acc" d="M 0 0 
L 0 2 
" style="stroke: #000000; stroke-width: 0.6"/>
      </defs>
      <g>
       <use xlink:href="#m006c002acc" x="126.078852" y="294.590247" style="stroke: #000000; stroke-width: 0.6"/>
      </g>
     </g>
    </g>
    <g id="xtick_5">
     <g id="line2d_9">
      <path d="M 171.177144 294.590247 
L 171.177144 22.318125 
" clip-path="url(#p67264b33f2)" style="fill: none; stroke-dasharray: 1.85,0.8; stroke-dashoffset: 0; stroke: #b0b0b0; stroke-width: 0.5"/>
     </g>
     <g id="line2d_10">
      <g>
       <use xlink:href="#m006c002acc" x="171.177144" y="294.590247" style="stroke: #000000; stroke-width: 0.6"/>
      </g>
     </g>
    </g>
    <g id="xtick_6">
     <g id="line2d_11">
      <path d="M 203.174892 294.590247 
L 203.174892 22.318125 
" clip-path="url(#p67264b33f2)" style="fill: none; stroke-dasharray: 1.85,0.8; stroke-dashoffset: 0; stroke: #b0b0b0; stroke-width: 0.5"/>
     </g>
     <g id="line2d_12">
      <g>
       <use xlink:href="#m006c002acc" x="203.174892" y="294.590247" style="stroke: #000000; stroke-width: 0.6"/>
      </g>
     </g>
    </g>
    <g id="xtick_7">
     <g id="line2d_13">
      <path d="M 227.994273 294.590247 
L 227.994273 22.318125 
" clip-path="url(#p67264b33f2)" style="fill: none; stroke-dasharray: 1.85,0.8; stroke-dashoffset: 0; stroke: #b0b0b0; stroke-width: 0.5"/>
     </g>
     <g id="line2d_14">
      <g>
       <use xlink:href="#m006c002acc" x="227.994273" y="294.590247" style="stroke: #000000; stroke-width: 0.6"/>
      </g>
     </g>
    </g>
    <g id="xtick_8">
     <g id="line2d_15">
      <path d="M 248.273184 294.590247 
L 248.273184 22.318125 
" clip-path="url(#p67264b33f2)" style="fill: none; stroke-dasharray: 1.85,0.8; stroke-dashoffset: 0; stroke: #b0b0b0; stroke-width: 0.5"/>
     </g>
     <g id="line2d_16">
      <g>
       <use xlink:href="#m006c002acc" x="248.273184" y="294.590247" style="stroke: #000000; stroke-width: 0.6"/>
      </g>
     </g>
    </g>
    <g id="xtick_9">
     <g id="line2d_17">
      <path d="M 265.418759 294.590247 
L 265.418759 22.318125 
" clip-path="url(#p67264b33f2)" style="fill: none; stroke-dasharray: 1.85,0.8; stroke-dashoffset: 0; stroke: #b0b0b0; stroke-width: 0.5"/>
     </g>
     <g id="line2d_18">
      <g>
       <use xlink:href="#m006c002acc" x="265.418759" y="294.590247" style="stroke: #000000; stroke-width: 0.6"/>
      </g>
     </g>
    </g>
    <g id="xtick_10">
     <g id="line2d_19">
      <path d="M 280.270931 294.590247 
L 280.270931 22.318125 
" clip-path="url(#p67264b33f2)" style="fill: none; stroke-dasharray: 1.85,0.8; stroke-dashoffset: 0; stroke: #b0b0b0; stroke-width: 0.5"/>
     </g>
     <g id="line2d_20">
      <g>
       <use xlink:href="#m006c002acc" x="280.270931" y="294.590247" style="stroke: #000000; stroke-width: 0.6"/>
      </g>
     </g>
    </g>
    <g id="xtick_11">
     <g id="line2d_21">
      <path d="M 293.371476 294.590247 
L 293.371476 22.318125 
" clip-path="url(#p67264b33f2)" style="fill: none; stroke-dasharray: 1.85,0.8; stroke-dashoffset: 0; stroke: #b0b0b0; stroke-width: 0.5"/>
     </g>
     <g id="line2d_22">
      <g>
       <use xlink:href="#m006c002acc" x="293.371476" y="294.590247" style="stroke: #000000; stroke-width: 0.6"/>
      </g>
     </g>
    </g>
    <g id="xtick_12">
     <g id="line2d_23">
      <path d="M 382.186352 294.590247 
L 382.186352 22.318125 
" clip-path="url(#p67264b33f2)" style="fill: none; stroke-dasharray: 1.85,0.8; stroke-dashoffset: 0; stroke: #b0b0b0; stroke-width: 0.5"/>
     </g>
     <g id="line2d_24">
      <g>
       <use xlink:href="#m006c002acc" x="382.186352" y="294.590247" style="stroke: #000000; stroke-width: 0.6"/>
      </g>
     </g>
    </g>
    <g id="xtick_13">
     <g id="line2d_25">
      <path d="M 427.284644 294.590247 
L 427.284644 22.318125 
" clip-path="url(#p67264b33f2)" style="fill: none; stroke-dasharray: 1.85,0.8; stroke-dashoffset: 0; stroke: #b0b0b0; stroke-width: 0.5"/>
     </g>
     <g id="line2d_26">
      <g>
       <use xlink:href="#m006c002acc" x="427.284644" y="294.590247" style="stroke: #000000; stroke-width: 0.6"/>
      </g>
     </g>
    </g>
    <g id="xtick_14">
     <g id="line2d_27">
      <path d="M 459.282392 294.590247 
L 459.282392 22.318125 
" clip-path="url(#p67264b33f2)" style="fill: none; stroke-dasharray: 1.85,0.8; stroke-dashoffset: 0; stroke: #b0b0b0; stroke-width: 0.5"/>
     </g>
     <g id="line2d_28">
      <g>
       <use xlink:href="#m006c002acc" x="459.282392" y="294.590247" style="stroke: #000000; stroke-width: 0.6"/>
      </g>
     </g>
    </g>
    <g id="xtick_15">
     <g id="line2d_29">
      <path d="M 484.101773 294.590247 
L 484.101773 22.318125 
" clip-path="url(#p67264b33f2)" style="fill: none; stroke-dasharray: 1.85,0.8; stroke-dashoffset: 0; stroke: #b0b0b0; stroke-width: 0.5"/>
     </g>
     <g id="line2d_30">
      <g>
       <use xlink:href="#m006c002acc" x="484.101773" y="294.590247" style="stroke: #000000; stroke-width: 0.6"/>
      </g>
     </g>
    </g>
    <g id="xtick_16">
     <g id="line2d_31">
      <path d="M 504.380684 294.590247 
L 504.380684 22.318125 
" clip-path="url(#p67264b33f2)" style="fill: none; stroke-dasharray: 1.85,0.8; stroke-dashoffset: 0; stroke: #b0b0b0; stroke-width: 0.5"/>
     </g>
     <g id="line2d_32">
      <g>
       <use xlink:href="#m006c002acc" x="504.380684" y="294.590247" style="stroke: #000000; stroke-width: 0.6"/>
      </g>
     </g>
    </g>
    <g id="xtick_17">
     <g id="line2d_33">
      <path d="M 521.526259 294.590247 
L 521.526259 22.318125 
" clip-path="url(#p67264b33f2)" style="fill: none; stroke-dasharray: 1.85,0.8; stroke-dashoffset: 0; stroke: #b0b0b0; stroke-width: 0.5"/>
     </g>
     <g id="line2d_34">
      <g>
       <use xlink:href="#m006c002acc" x="521.526259" y="294.590247" style="stroke: #000000; stroke-width: 0.6"/>
      </g>
     </g>
    </g>
    <g id="xtick_18">
     <g id="line2d_35">
      <path d="M 536.378431 294.590247 
L 536.378431 22.318125 
" clip-path="url(#p67264b33f2)" style="fill: none; stroke-dasharray: 1.85,0.8; stroke-dashoffset: 0; stroke: #b0b0b0; stroke-width: 0.5"/>
     </g>
     <g id="line2d_36">
      <g>
       <use xlink:href="#m006c002acc" x="536.378431" y="294.590247" style="stroke: #000000; stroke-width: 0.6"/>
      </g>
     </g>
    </g>
    <g id="xtick_19">
     <g id="line2d_37">
      <path d="M 549.478976 294.590247 
L 549.478976 22.318125 
" clip-path="url(#p67264b33f2)" style="fill: none; stroke-dasharray: 1.85,0.8; stroke-dashoffset: 0; stroke: #b0b0b0; stroke-width: 0.5"/>
     </g>
     <g id="line2d_38">
      <g>
       <use xlink:href="#m006c002acc" x="549.478976" y="294.590247" style="stroke: #000000; stroke-width: 0.6"/>
      </g>
     </g>
    </g>
    <g id="text_4">
     <!-- Frequency (Hz) -->
     <g transform="translate(267.385625 342.526987) scale(0.1 -0.1)">
      <defs>
       <path id="DejaVuSans-46" d="M 628 4666 
L 3309 4666 
L 3309 4134 
L 1259 4134 
L 1259 2759 
L 3109 2759 
L 3109 2228 
L 1259 2228 
L 1259 0 
L 628 0 
L 628 4666 
z
" transform="scale(0.015625)"/>
       <path id="DejaVuSans-72" d="M 2631 2963 
Q 2534 3019 2420 3045 
Q 2306 3072 2169 3072 
Q 1681 3072 1420 2755 
Q 1159 2438 1159 1844 
L 1159 0 
L 581 0 
L 581 3500 
L 1159 3500 
L 1159 2956 
Q 1341 3275 1631 3429 
Q 1922 3584 2338 3584 
Q 2397 3584 2469 3576 
Q 2541 3569 2628 3553 
L 2631 2963 
z
" transform="scale(0.015625)"/>
       <path id="DejaVuSans-65" d="M 3597 1894 
L 3597 1613 
L 953 1613 
Q 991 1019 1311 708 
Q 1631 397 2203 397 
Q 2534 397 2845 478 
Q 3156 559 3463 722 
L 3463 178 
Q 3153 47 2828 -22 
Q 2503 -91 2169 -91 
Q 1331 -91 842 396 
Q 353 884 353 1716 
Q 353 2575 817 3079 
Q 1281 3584 2069 3584 
Q 2775 3584 3186 3129 
Q 3597 2675 3597 1894 
z
M 3022 2063 
Q 3016 2534 2758 2815 
Q 2500 3097 2075 3097 
Q 1594 3097 1305 2825 
Q 1016 2553 972 2059 
L 3022 2063 
z
" transform="scale(0.015625)"/>
       <path id="DejaVuSans-71" d="M 947 1747 
Q 947 1113 1208 752 
Q 1469 391 1925 391 
Q 2381 391 2643 752 
Q 2906 1113 2906 1747 
Q 2906 2381 2643 2742 
Q 2381 3103 1925 3103 
Q 1469 3103 1208 2742 
Q 947 2381 947 1747 
z
M 2906 525 
Q 2725 213 2448 61 
Q 2172 -91 1784 -91 
Q 1150 -91 751 415 
Q 353 922 353 1747 
Q 353 2572 751 3078 
Q 1150 3584 1784 3584 
Q 2172 3584 2448 3432 
Q 2725 3281 2906 2969 
L 2906 3500 
L 3481 3500 
L 3481 -1331 
L 2906 -1331 
L 2906 525 
z
" transform="scale(0.015625)"/>
       <path id="DejaVuSans-75" d="M 544 1381 
L 544 3500 
L 1119 3500 
L 1119 1403 
Q 1119 906 1312 657 
Q 1506 409 1894 409 
Q 2359 409 2629 706 
Q 2900 1003 2900 1516 
L 2900 3500 
L 3475 3500 
L 3475 0 
L 2900 0 
L 2900 538 
Q 2691 219 2414 64 
Q 2138 -91 1772 -91 
Q 1169 -91 856 284 
Q 544 659 544 1381 
z
M 1991 3584 
L 1991 3584 
z
" transform="scale(0.015625)"/>
       <path id="DejaVuSans-6e" d="M 3513 2113 
L 3513 0 
L 2938 0 
L 2938 2094 
Q 2938 2591 2744 2837 
Q 2550 3084 2163 3084 
Q 1697 3084 1428 2787 
Q 1159 2491 1159 1978 
L 1159 0 
L 581 0 
L 581 3500 
L 1159 3500 
L 1159 2956 
Q 1366 3272 1645 3428 
Q 1925 3584 2291 3584 
Q 2894 3584 3203 3211 
Q 3513 2838 3513 2113 
z
" transform="scale(0.015625)"/>
       <path id="DejaVuSans-63" d="M 3122 3366 
L 3122 2828 
Q 2878 2963 2633 3030 
Q 2388 3097 2138 3097 
Q 1578 3097 1268 2742 
Q 959 2388 959 1747 
Q 959 1106 1268 751 
Q 1578 397 2138 397 
Q 2388 397 2633 464 
Q 2878 531 3122 666 
L 3122 134 
Q 2881 22 2623 -34 
Q 2366 -91 2075 -91 
Q 1284 -91 818 406 
Q 353 903 353 1747 
Q 353 2603 823 3093 
Q 1294 3584 2113 3584 
Q 2378 3584 2631 3529 
Q 2884 3475 3122 3366 
z
" transform="scale(0.015625)"/>
       <path id="DejaVuSans-79" d="M 2059 -325 
Q 1816 -950 1584 -1140 
Q 1353 -1331 966 -1331 
L 506 -1331 
L 506 -850 
L 844 -850 
Q 1081 -850 1212 -737 
Q 1344 -625 1503 -206 
L 1606 56 
L 191 3500 
L 800 3500 
L 1894 763 
L 2988 3500 
L 3597 3500 
L 2059 -325 
z
" transform="scale(0.015625)"/>
       <path id="DejaVuSans-20" transform="scale(0.015625)"/>
       <path id="DejaVuSans-28" d="M 1984 4856 
Q 1566 4138 1362 3434 
Q 1159 2731 1159 2009 
Q 1159 1288 1364 580 
Q 1569 -128 1984 -844 
L 1484 -844 
Q 1016 -109 783 600 
Q 550 1309 550 2009 
Q 550 2706 781 3412 
Q 1013 4119 1484 4856 
L 1984 4856 
z
" transform="scale(0.015625)"/>
       <path id="DejaVuSans-48" d="M 628 4666 
L 1259 4666 
L 1259 2753 
L 3553 2753 
L 3553 4666 
L 4184 4666 
L 4184 0 
L 3553 0 
L 3553 2222 
L 1259 2222 
L 1259 0 
L 628 0 
L 628 4666 
z
" transform="scale(0.015625)"/>
       <path id="DejaVuSans-7a" d="M 353 3500 
L 3084 3500 
L 3084 2975 
L 922 459 
L 3084 459 
L 3084 0 
L 275 0 
L 275 525 
L 2438 3041 
L 353 3041 
L 353 3500 
z
" transform="scale(0.015625)"/>
       <path id="DejaVuSans-29" d="M 513 4856 
L 1013 4856 
Q 1481 4119 1714 3412 
Q 1947 2706 1947 2009 
Q 1947 1309 1714 600 
Q 1481 -109 1013 -844 
L 513 -844 
Q 928 -128 1133 580 
Q 1338 1288 1338 2009 
Q 1338 2731 1133 3434 
Q 928 4138 513 4856 
z
" transform="scale(0.015625)"/>
      </defs>
      <use xlink:href="#DejaVuSans-46"/>
      <use xlink:href="#DejaVuSans-72" transform="translate(50.269531 0)"/>
      <use xlink:href="#DejaVuSans-65" transform="translate(89.132812 0)"/>
      <use xlink:href="#DejaVuSans-71" transform="translate(150.65625 0)"/>
      <use xlink:href="#DejaVuSans-75" transform="translate(214.132812 0)"/>
      <use xlink:href="#DejaVuSans-65" transform="translate(277.511719 0)"/>
      <use xlink:href="#DejaVuSans-6e" transform="translate(339.035156 0)"/>
      <use xlink:href="#DejaVuSans-63" transform="translate(402.414062 0)"/>
      <use xlink:href="#DejaVuSans-79" transform="translate(457.394531 0)"/>
      <use xlink:href="#DejaVuSans-20" transform="translate(516.574219 0)"/>
      <use xlink:href="#DejaVuSans-28" transform="translate(548.361328 0)"/>
      <use xlink:href="#DejaVuSans-48" transform="translate(587.375 0)"/>
      <use xlink:href="#DejaVuSans-7a" transform="translate(662.570312 0)"/>
      <use xlink:href="#DejaVuSans-29" transform="translate(715.060547 0)"/>
     </g>
    </g>
   </g>
   <g id="matplotlib.axis_2">
    <g id="ytick_1">
     <g id="line2d_39">
      <path d="M 48.982813 294.590247 
L 561.197812 294.590247 
" clip-path="url(#p67264b33f2)" style="fill: none; stroke-dasharray: 1.85,0.8; stroke-dashoffset: 0; stroke: #b0b0b0; stroke-width: 0.5"/>
     </g>
     <g id="line2d_40">
      <defs>
       <path id="m2f1e1392fa" d="M 0 0 
L -3.5 0 
" style="stroke: #000000; stroke-width: 0.8"/>
      </defs>
      <g>
       <use xlink:href="#m2f1e1392fa" x="48.982813" y="294.590247" style="stroke: #000000; stroke-width: 0.8"/>
      </g>
     </g>
     <g id="text_5">
      <!-- −20 -->
      <g transform="translate(20.878125 298.389466) scale(0.1 -0.1)">
       <defs>
        <path id="DejaVuSans-2212" d="M 678 2272 
L 4684 2272 
L 4684 1741 
L 678 1741 
L 678 2272 
z
" transform="scale(0.015625)"/>
        <path id="DejaVuSans-32" d="M 1228 531 
L 3431 531 
L 3431 0 
L 469 0 
L 469 531 
Q 828 903 1448 1529 
Q 2069 2156 2228 2338 
Q 2531 2678 2651 2914 
Q 2772 3150 2772 3378 
Q 2772 3750 2511 3984 
Q 2250 4219 1831 4219 
Q 1534 4219 1204 4116 
Q 875 4013 500 3803 
L 500 4441 
Q 881 4594 1212 4672 
Q 1544 4750 1819 4750 
Q 2544 4750 2975 4387 
Q 3406 4025 3406 3419 
Q 3406 3131 3298 2873 
Q 3191 2616 2906 2266 
Q 2828 2175 2409 1742 
Q 1991 1309 1228 531 
z
" transform="scale(0.015625)"/>
       </defs>
       <use xlink:href="#DejaVuSans-2212"/>
       <use xlink:href="#DejaVuSans-32" transform="translate(83.789062 0)"/>
       <use xlink:href="#DejaVuSans-30" transform="translate(147.412109 0)"/>
      </g>
     </g>
    </g>
    <g id="ytick_2">
     <g id="line2d_41">
      <path d="M 48.982813 255.694229 
L 561.197812 255.694229 
" clip-path="url(#p67264b33f2)" style="fill: none; stroke-dasharray: 1.85,0.8; stroke-dashoffset: 0; stroke: #b0b0b0; stroke-width: 0.5"/>
     </g>
     <g id="line2d_42">
      <g>
       <use xlink:href="#m2f1e1392fa" x="48.982813" y="255.694229" style="stroke: #000000; stroke-width: 0.8"/>
      </g>
     </g>
     <g id="text_6">
      <!-- −10 -->
      <g transform="translate(20.878125 259.493448) scale(0.1 -0.1)">
       <use xlink:href="#DejaVuSans-2212"/>
       <use xlink:href="#DejaVuSans-31" transform="translate(83.789062 0)"/>
       <use xlink:href="#DejaVuSans-30" transform="translate(147.412109 0)"/>
      </g>
     </g>
    </g>
    <g id="ytick_3">
     <g id="line2d_43">
      <path d="M 48.982813 216.798212 
L 561.197812 216.798212 
" clip-path="url(#p67264b33f2)" style="fill: none; stroke-dasharray: 1.85,0.8; stroke-dashoffset: 0; stroke: #b0b0b0; stroke-width: 0.5"/>
     </g>
     <g id="line2d_44">
      <g>
       <use xlink:href="#m2f1e1392fa" x="48.982813" y="216.798212" style="stroke: #000000; stroke-width: 0.8"/>
      </g>
     </g>
     <g id="text_7">
      <!-- 0 -->
      <g transform="translate(35.620313 220.597431) scale(0.1 -0.1)">
       <use xlink:href="#DejaVuSans-30"/>
      </g>
     </g>
    </g>
    <g id="ytick_4">
     <g id="line2d_45">
      <path d="M 48.982813 177.902195 
L 561.197812 177.902195 
" clip-path="url(#p67264b33f2)" style="fill: none; stroke-dasharray: 1.85,0.8; stroke-dashoffset: 0; stroke: #b0b0b0; stroke-width: 0.5"/>
     </g>
     <g id="line2d_46">
      <g>
       <use xlink:href="#m2f1e1392fa" x="48.982813" y="177.902195" style="stroke: #000000; stroke-width: 0.8"/>
      </g>
     </g>
     <g id="text_8">
      <!-- 10 -->
      <g transform="translate(29.257813 181.701413) scale(0.1 -0.1)">
       <use xlink:href="#DejaVuSans-31"/>
       <use xlink:href="#DejaVuSans-30" transform="translate(63.623047 0)"/>
      </g>
     </g>
    </g>
    <g id="ytick_5">
     <g id="line2d_47">
      <path d="M 48.982813 139.006177 
L 561.197812 139.006177 
" clip-path="url(#p67264b33f2)" style="fill: none; stroke-dasharray: 1.85,0.8; stroke-dashoffset: 0; stroke: #b0b0b0; stroke-width: 0.5"/>
     </g>
     <g id="line2d_48">
      <g>
       <use xlink:href="#m2f1e1392fa" x="48.982813" y="139.006177" style="stroke: #000000; stroke-width: 0.8"/>
      </g>
     </g>
     <g id="text_9">
      <!-- 20 -->
      <g transform="translate(29.257813 142.805396) scale(0.1 -0.1)">
       <use xlink:href="#DejaVuSans-32"/>
       <use xlink:href="#DejaVuSans-30" transform="translate(63.623047 0)"/>
      </g>
     </g>
    </g>
    <g id="ytick_6">
     <g id="line2d_49">
      <path d="M 48.982813 100.11016 
L 561.197812 100.11016 
" clip-path="url(#p67264b33f2)" style="fill: none; stroke-dasharray: 1.85,0.8; stroke-dashoffset: 0; stroke: #b0b0b0; stroke-width: 0.5"/>
     </g>
     <g id="line2d_50">
      <g>
       <use xlink:href="#m2f1e1392fa" x="48.982813" y="100.11016" style="stroke: #000000; stroke-width: 0.8"/>
      </g>
     </g>
     <g id="text_10">
      <!-- 30 -->
      <g transform="translate(29.257813 103.909379) scale(0.1 -0.1)">
       <defs>
        <path id="DejaVuSans-33" d="M 2597 2516 
Q 3050 2419 3304 2112 
Q 3559 1806 3559 1356 
Q 3559 666 3084 287 
Q 2609 -91 1734 -91 
Q 1441 -91 1130 -33 
Q 819 25 488 141 
L 488 750 
Q 750 597 1062 519 
Q 1375 441 1716 441 
Q 2309 441 2620 675 
Q 2931 909 2931 1356 
Q 2931 1769 2642 2001 
Q 2353 2234 1838 2234 
L 1294 2234 
L 1294 2753 
L 1863 2753 
Q 2328 2753 2575 2939 
Q 2822 3125 2822 3475 
Q 2822 3834 2567 4026 
Q 2313 4219 1838 4219 
Q 1578 4219 1281 4162 
Q 984 4106 628 3988 
L 628 4550 
Q 988 4650 1302 4700 
Q 1616 4750 1894 4750 
Q 2613 4750 3031 4423 
Q 3450 4097 3450 3541 
Q 3450 3153 3228 2886 
Q 3006 2619 2597 2516 
z
" transform="scale(0.015625)"/>
       </defs>
       <use xlink:href="#DejaVuSans-33"/>
       <use xlink:href="#DejaVuSans-30" transform="translate(63.623047 0)"/>
      </g>
     </g>
    </g>
    <g id="ytick_7">
     <g id="line2d_51">
      <path d="M 48.982813 61.214142 
L 561.197812 61.214142 
" clip-path="url(#p67264b33f2)" style="fill: none; stroke-dasharray: 1.85,0.8; stroke-dashoffset: 0; stroke: #b0b0b0; stroke-width: 0.5"/>
     </g>
     <g id="line2d_52">
      <g>
       <use xlink:href="#m2f1e1392fa" x="48.982813" y="61.214142" style="stroke: #000000; stroke-width: 0.8"/>
      </g>
     </g>
     <g id="text_11">
      <!-- 40 -->
      <g transform="translate(29.257813 65.013361) scale(0.1 -0.1)">
       <defs>
        <path id="DejaVuSans-34" d="M 2419 4116 
L 825 1625 
L 2419 1625 
L 2419 4116 
z
M 2253 4666 
L 3047 4666 
L 3047 1625 
L 3713 1625 
L 3713 1100 
L 3047 1100 
L 3047 0 
L 2419 0 
L 2419 1100 
L 313 1100 
L 313 1709 
L 2253 4666 
z
" transform="scale(0.015625)"/>
       </defs>
       <use xlink:href="#DejaVuSans-34"/>
       <use xlink:href="#DejaVuSans-30" transform="translate(63.623047 0)"/>
      </g>
     </g>
    </g>
    <g id="ytick_8">
     <g id="line2d_53">
      <path d="M 48.982813 22.318125 
L 561.197812 22.318125 
" clip-path="url(#p67264b33f2)" style="fill: none; stroke-dasharray: 1.85,0.8; stroke-dashoffset: 0; stroke: #b0b0b0; stroke-width: 0.5"/>
     </g>
     <g id="line2d_54">
      <g>
       <use xlink:href="#m2f1e1392fa" x="48.982813" y="22.318125" style="stroke: #000000; stroke-width: 0.8"/>
      </g>
     </g>
     <g id="text_12">
      <!-- 50 -->
      <g transform="translate(29.257813 26.117344) scale(0.1 -0.1)">
       <defs>
        <path id="DejaVuSans-35" d="M 691 4666 
L 3169 4666 
L 3169 4134 
L 1269 4134 
L 1269 2991 
Q 1406 3038 1543 3061 
Q 1681 3084 1819 3084 
Q 2600 3084 3056 2656 
Q 3513 2228 3513 1497 
Q 3513 744 3044 326 
Q 2575 -91 1722 -91 
Q 1428 -91 1123 -41 
Q 819 9 494 109 
L 494 744 
Q 775 591 1075 516 
Q 1375 441 1709 441 
Q 2250 441 2565 725 
Q 2881 1009 2881 1497 
Q 2881 1984 2565 2268 
Q 2250 2553 1709 2553 
Q 1456 2553 1204 2497 
Q 953 2441 691 2322 
L 691 4666 
z
" transform="scale(0.015625)"/>
       </defs>
       <use xlink:href="#DejaVuSans-35"/>
       <use xlink:href="#DejaVuSans-30" transform="translate(63.623047 0)"/>
      </g>
     </g>
    </g>
    <g id="text_13">
     <!-- SPL (dBA) -->
     <g transform="translate(14.798438 182.944811) rotate(-90) scale(0.1 -0.1)">
      <defs>
       <path id="DejaVuSans-53" d="M 3425 4513 
L 3425 3897 
Q 3066 4069 2747 4153 
Q 2428 4238 2131 4238 
Q 1616 4238 1336 4038 
Q 1056 3838 1056 3469 
Q 1056 3159 1242 3001 
Q 1428 2844 1947 2747 
L 2328 2669 
Q 3034 2534 3370 2195 
Q 3706 1856 3706 1288 
Q 3706 609 3251 259 
Q 2797 -91 1919 -91 
Q 1588 -91 1214 -16 
Q 841 59 441 206 
L 441 856 
Q 825 641 1194 531 
Q 1563 422 1919 422 
Q 2459 422 2753 634 
Q 3047 847 3047 1241 
Q 3047 1584 2836 1778 
Q 2625 1972 2144 2069 
L 1759 2144 
Q 1053 2284 737 2584 
Q 422 2884 422 3419 
Q 422 4038 858 4394 
Q 1294 4750 2059 4750 
Q 2388 4750 2728 4690 
Q 3069 4631 3425 4513 
z
" transform="scale(0.015625)"/>
       <path id="DejaVuSans-50" d="M 1259 4147 
L 1259 2394 
L 2053 2394 
Q 2494 2394 2734 2622 
Q 2975 2850 2975 3272 
Q 2975 3691 2734 3919 
Q 2494 4147 2053 4147 
L 1259 4147 
z
M 628 4666 
L 2053 4666 
Q 2838 4666 3239 4311 
Q 3641 3956 3641 3272 
Q 3641 2581 3239 2228 
Q 2838 1875 2053 1875 
L 1259 1875 
L 1259 0 
L 628 0 
L 628 4666 
z
" transform="scale(0.015625)"/>
       <path id="DejaVuSans-4c" d="M 628 4666 
L 1259 4666 
L 1259 531 
L 3531 531 
L 3531 0 
L 628 0 
L 628 4666 
z
" transform="scale(0.015625)"/>
       <path id="DejaVuSans-64" d="M 2906 2969 
L 2906 4863 
L 3481 4863 
L 3481 0 
L 2906 0 
L 2906 525 
Q 2725 213 2448 61 
Q 2172 -91 1784 -91 
Q 1150 -91 751 415 
Q 353 922 353 1747 
Q 353 2572 751 3078 
Q 1150 3584 1784 3584 
Q 2172 3584 2448 3432 
Q 2725 3281 2906 2969 
z
M 947 1747 
Q 947 1113 1208 752 
Q 1469 391 1925 391 
Q 2381 391 2643 752 
Q 2906 1113 2906 1747 
Q 2906 2381 2643 2742 
Q 2381 3103 1925 3103 
Q 1469 3103 1208 2742 
Q 947 2381 947 1747 
z
" transform="scale(0.015625)"/>
       <path id="DejaVuSans-42" d="M 1259 2228 
L 1259 519 
L 2272 519 
Q 2781 519 3026 730 
Q 3272 941 3272 1375 
Q 3272 1813 3026 2020 
Q 2781 2228 2272 2228 
L 1259 2228 
z
M 1259 4147 
L 1259 2741 
L 2194 2741 
Q 2656 2741 2882 2914 
Q 3109 3088 3109 3444 
Q 3109 3797 2882 3972 
Q 2656 4147 2194 4147 
L 1259 4147 
z
M 628 4666 
L 2241 4666 
Q 2963 4666 3353 4366 
Q 3744 4066 3744 3513 
Q 3744 3084 3544 2831 
Q 3344 2578 2956 2516 
Q 3422 2416 3680 2098 
Q 3938 1781 3938 1306 
Q 3938 681 3513 340 
Q 3088 0 2303 0 
L 628 0 
L 628 4666 
z
" transform="scale(0.015625)"/>
       <path id="DejaVuSans-41" d="M 2188 4044 
L 1331 1722 
L 3047 1722 
L 2188 4044 
z
M 1831 4666 
L 2547 4666 
L 4325 0 
L 3669 0 
L 3244 1197 
L 1141 1197 
L 716 0 
L 50 0 
L 1831 4666 
z
" transform="scale(0.015625)"/>
      </defs>
      <use xlink:href="#DejaVuSans-53"/>
      <use xlink:href="#DejaVuSans-50" transform="translate(63.476562 0)"/>
      <use xlink:href="#DejaVuSans-4c" transform="translate(123.779297 0)"/>
      <use xlink:href="#DejaVuSans-20" transform="translate(179.492188 0)"/>
      <use xlink:href="#DejaVuSans-28" transform="translate(211.279297 0)"/>
      <use xlink:href="#DejaVuSans-64" transform="translate(250.292969 0)"/>
      <use xlink:href="#DejaVuSans-42" transform="translate(313.769531 0)"/>
      <use xlink:href="#DejaVuSans-41" transform="translate(382.373047 0)"/>
      <use xlink:href="#DejaVuSans-29" transform="translate(450.78125 0)"/>
     </g>
    </g>
   </g>
   <g id="line2d_55">
    <path d="M 51.493242 151.632799 
L 57.198394 138.739619 
L 62.625131 133.825602 
L 67.79937 133.860662 
L 72.743565 135.377668 
L 77.477304 134.552383 
L 82.017775 127.153097 
L 86.38014 138.187009 
L 90.577849 140.920154 
L 94.622879 144.679671 
L 98.525949 142.357057 
L 102.296685 140.863744 
L 105.943768 147.404677 
L 109.475052 154.473342 
L 112.897663 153.89664 
L 116.218091 156.15368 
L 119.44226 159.167251 
L 122.575596 166.952403 
L 125.623077 164.951665 
L 128.589281 161.389954 
L 131.478432 163.969401 
L 134.294433 168.51619 
L 137.040895 163.054632 
L 139.721171 156.878468 
L 142.338376 148.969733 
L 144.89541 146.612017 
L 147.394977 146.384767 
L 149.839605 146.471389 
L 152.231656 150.946206 
L 154.573344 144.020224 
L 156.866746 127.745164 
L 159.113814 126.012681 
L 161.316383 145.289183 
L 163.47618 160.016724 
L 165.594836 156.783545 
L 167.673888 157.025833 
L 169.714791 149.54239 
L 171.718919 137.737192 
L 173.687573 144.317439 
L 175.621988 146.611047 
L 177.523335 141.198835 
L 179.392725 139.211186 
L 181.231214 140.169745 
L 183.039808 138.565486 
L 184.819463 135.03171 
L 188.295561 135.502156 
L 189.993702 129.884465 
L 191.666306 130.607234 
L 193.31413 139.036828 
L 194.937897 138.123758 
L 196.5383 136.900508 
L 198.116001 136.916148 
L 199.671636 137.230152 
L 201.205813 138.355972 
L 202.719116 138.377798 
L 204.212106 140.770507 
L 205.685321 138.712683 
L 207.139277 135.879288 
L 208.574472 135.678777 
L 209.991384 131.505604 
L 211.390472 132.570057 
L 212.77218 133.071549 
L 214.136935 133.442016 
L 215.485146 133.374695 
L 216.817211 137.776022 
L 219.434416 143.273235 
L 220.720281 143.726242 
L 221.99145 141.980716 
L 223.248255 142.088535 
L 224.491017 143.999486 
L 225.720047 141.428389 
L 226.935645 137.894657 
L 228.1381 132.038 
L 229.327695 132.897476 
L 230.504702 134.445799 
L 231.669383 136.254126 
L 232.821996 136.703183 
L 233.962786 135.339116 
L 235.091994 134.958222 
L 236.209854 127.849771 
L 237.31659 123.250608 
L 238.412422 117.502745 
L 239.497563 118.765637 
L 240.572219 117.239644 
L 241.636592 117.654763 
L 242.690875 117.846581 
L 243.735259 117.326883 
L 244.769928 120.301564 
L 245.79506 122.823218 
L 246.810831 128.392334 
L 247.817408 128.031111 
L 249.803641 124.895632 
L 250.783613 124.331931 
L 251.755026 124.256269 
L 252.718028 122.582317 
L 253.672764 123.97286 
L 254.619375 125.865442 
L 255.557997 127.441791 
L 256.488765 127.983444 
L 259.235227 137.180666 
L 260.135848 138.80272 
L 261.029235 139.133687 
L 261.915503 140.186267 
L 262.794765 143.717793 
L 263.667131 136.375514 
L 265.391601 160.876356 
L 266.243912 162.213707 
L 267.089742 158.035315 
L 268.762346 153.853618 
L 269.589309 149.834578 
L 270.41017 145.128953 
L 271.225016 142.345742 
L 272.033937 138.413446 
L 272.837017 131.036168 
L 273.634339 130.217395 
L 274.425987 130.00218 
L 275.212041 129.498618 
L 275.992578 127.475369 
L 276.767675 126.645103 
L 277.537409 127.194776 
L 279.061078 133.922329 
L 279.815156 139.671819 
L 280.564156 146.26237 
L 281.308146 147.041292 
L 282.047192 146.245649 
L 282.78136 139.824865 
L 283.510714 127.410512 
L 284.235317 121.887409 
L 284.955229 124.228677 
L 285.670512 125.431303 
L 286.381224 129.172096 
L 287.789168 135.553757 
L 288.486512 141.918322 
L 289.179512 145.914415 
L 289.86822 147.2796 
L 290.55269 150.68899 
L 291.232974 151.10043 
L 291.909123 151.37849 
L 292.581186 154.615408 
L 293.249212 151.985307 
L 293.91325 152.461062 
L 294.573348 153.845054 
L 295.229551 152.634507 
L 295.881905 153.917383 
L 296.530455 155.857473 
L 297.81632 152.28421 
L 298.453721 151.596648 
L 299.087489 151.709923 
L 299.717667 150.920178 
L 300.344294 149.417532 
L 300.967411 149.436372 
L 301.587057 151.184882 
L 302.203269 153.411403 
L 303.425546 155.952407 
L 304.031684 159.909093 
L 304.634537 161.998196 
L 305.23414 162.273207 
L 305.830528 162.733105 
L 306.423735 164.051562 
L 307.013795 165.883916 
L 307.600741 170.832975 
L 308.184607 171.288084 
L 308.765423 171.105623 
L 309.343222 167.345915 
L 309.918035 167.230521 
L 310.489893 165.984499 
L 311.058825 163.044717 
L 311.624863 162.545376 
L 312.188034 161.472676 
L 312.748368 164.012247 
L 313.305893 165.40452 
L 313.860638 165.320853 
L 314.412629 170.681906 
L 314.961895 173.546022 
L 315.508462 171.57505 
L 316.052356 171.785343 
L 316.593603 171.681055 
L 317.668259 169.279992 
L 318.201719 168.77867 
L 318.732632 171.016944 
L 319.261022 171.14592 
L 319.786915 171.827398 
L 320.310333 171.966834 
L 320.831299 172.314352 
L 321.865968 171.887643 
L 322.379715 171.362676 
L 322.8911 169.595352 
L 323.400145 165.135958 
L 323.90687 165.541184 
L 324.411298 166.099126 
L 325.413341 161.722684 
L 325.910998 162.723352 
L 326.899681 167.21955 
L 327.390746 166.083174 
L 327.879652 170.292884 
L 328.366419 173.07109 
L 328.851065 174.010143 
L 329.333609 177.99599 
L 329.814068 179.346602 
L 330.29246 177.057016 
L 330.768804 175.790824 
L 331.243116 176.390264 
L 332.185716 172.712022 
L 333.120394 172.086851 
L 333.584804 172.105601 
L 334.047283 173.904781 
L 334.507847 176.606952 
L 334.966512 178.565684 
L 335.423294 182.377629 
L 335.878206 181.696537 
L 336.331266 185.453688 
L 336.782489 184.940804 
L 337.231887 184.935486 
L 337.679478 184.676881 
L 338.125274 188.410663 
L 338.569291 190.433085 
L 339.011543 188.531134 
L 339.452042 185.390985 
L 339.890805 181.148582 
L 340.327843 178.506685 
L 340.76317 176.741475 
L 341.196801 176.680779 
L 341.628747 177.105377 
L 342.059023 177.312615 
L 342.914612 184.721639 
L 343.76367 189.882524 
L 344.185781 190.308116 
L 344.606296 186.861605 
L 345.025227 186.854683 
L 345.442586 185.284305 
L 345.858385 188.169352 
L 346.272636 187.880338 
L 346.685349 184.629227 
L 347.096536 184.613702 
L 347.506209 182.913357 
L 348.321056 175.611501 
L 348.726251 171.361247 
L 349.129976 170.826266 
L 349.532241 168.364423 
L 349.933056 169.208473 
L 350.332432 171.216069 
L 350.730379 176.98786 
L 351.126907 179.832897 
L 351.522027 180.770696 
L 351.915748 177.613273 
L 352.30808 176.777128 
L 353.088617 169.736365 
L 353.476841 169.748006 
L 353.863715 173.531865 
L 354.249248 175.158041 
L 355.016327 180.757252 
L 355.397892 182.732599 
L 355.778153 185.474933 
L 356.157118 186.122339 
L 356.534795 183.673685 
L 356.911195 179.897438 
L 357.286326 178.687771 
L 357.660195 177.955419 
L 358.032812 174.352649 
L 358.404185 174.998746 
L 359.8774 185.575825 
L 360.242675 183.799921 
L 360.606754 183.391874 
L 360.969645 164.106357 
L 361.331356 173.51537 
L 361.691895 186.862207 
L 362.051269 186.799745 
L 362.409485 184.287374 
L 362.766551 187.36977 
L 363.122475 185.722619 
L 363.477263 185.107713 
L 363.830924 184.807293 
L 364.183463 183.940593 
L 364.885207 185.3407 
L 365.582552 188.488482 
L 365.929591 186.470601 
L 366.275551 186.422718 
L 366.620439 187.151829 
L 366.96426 187.118195 
L 367.64873 194.102346 
L 367.989392 191.92173 
L 368.329014 190.823543 
L 368.667602 193.944351 
L 369.005162 194.172401 
L 369.341702 194.145914 
L 369.677225 194.004846 
L 370.01174 190.823588 
L 370.345252 195.438286 
L 371.00929 198.792851 
L 371.339828 201.550662 
L 371.669387 201.676518 
L 372.32559 197.565226 
L 372.652246 200.600301 
L 372.977945 202.093959 
L 373.302692 199.275802 
L 373.626495 199.50088 
L 374.271286 195.103764 
L 374.91236 193.054707 
L 375.231517 192.931284 
L 375.54976 193.728064 
L 375.867096 192.670276 
L 376.183529 192.17617 
L 376.499064 191.357649 
L 376.813707 189.23293 
L 377.127461 190.500626 
L 378.063451 188.867386 
L 378.373705 188.932599 
L 378.683096 190.195792 
L 379.60614 183.396516 
L 379.912126 186.698316 
L 380.217273 184.394049 
L 380.521586 184.77039 
L 380.825068 183.220311 
L 381.429559 186.390935 
L 381.730577 185.338126 
L 382.030782 183.644096 
L 382.33018 188.908106 
L 382.628773 190.31163 
L 382.926567 186.664628 
L 383.223566 186.464926 
L 383.519775 185.272969 
L 383.815196 185.007363 
L 384.109835 181.575136 
L 384.403695 181.371851 
L 384.696781 180.918847 
L 385.280646 175.795502 
L 385.571434 176.262225 
L 385.861463 176.505222 
L 386.150737 177.250647 
L 386.439262 179.159075 
L 386.72704 182.638387 
L 387.014075 182.039006 
L 387.300371 182.705 
L 387.585932 186.018204 
L 387.870762 185.05169 
L 388.154865 183.220634 
L 388.438244 183.017052 
L 388.720902 182.548996 
L 389.002844 181.590963 
L 389.564593 176.96687 
L 389.844407 176.112309 
L 390.123519 174.662748 
L 390.401933 177.084019 
L 390.679651 175.70221 
L 390.956677 176.498937 
L 391.233016 178.773126 
L 391.508669 175.971249 
L 391.783641 176.153567 
L 392.057935 175.835362 
L 392.331554 175.039068 
L 392.604501 173.764457 
L 392.876781 174.206954 
L 393.148395 175.783301 
L 393.689642 173.422381 
L 393.959281 170.00081 
L 394.228268 168.556513 
L 394.496606 169.452008 
L 394.764299 167.926243 
L 395.031348 165.391049 
L 395.297758 166.894165 
L 395.563531 167.0803 
L 395.828671 169.072244 
L 396.09318 168.885104 
L 396.620319 171.6593 
L 396.882955 171.890123 
L 397.144971 173.410369 
L 397.406372 172.75818 
L 398.18691 179.811737 
L 398.445876 180.344341 
L 398.704241 179.965058 
L 398.962007 184.313731 
L 399.219177 183.483798 
L 399.475754 183.592555 
L 399.731741 182.176919 
L 400.241953 184.235546 
L 400.496184 187.441506 
L 400.749836 187.430073 
L 401.00291 188.188204 
L 401.507337 192.324169 
L 401.758696 194.336635 
L 402.009488 193.216456 
L 402.259715 194.426048 
L 402.509381 193.568251 
L 402.758488 197.216611 
L 403.007038 197.889095 
L 403.255033 200.825299 
L 403.502477 201.937469 
L 403.749372 201.750806 
L 403.99572 200.444372 
L 404.241524 197.872333 
L 404.731507 201.086525 
L 404.975692 201.236848 
L 405.462459 200.016517 
L 405.705046 200.050871 
L 405.947105 202.541532 
L 406.188638 202.322438 
L 406.429648 203.809933 
L 406.670137 203.092337 
L 406.910107 203.915796 
L 407.149561 202.927448 
L 407.3885 203.9487 
L 407.626927 206.315035 
L 407.864843 206.482474 
L 408.102252 204.713173 
L 408.339156 204.195864 
L 409.046853 200.47687 
L 409.281755 199.010189 
L 409.516162 199.465273 
L 409.750076 202.512803 
L 409.983499 203.163029 
L 410.216434 201.773301 
L 410.680844 208.510226 
L 410.912324 208.886016 
L 411.373843 216.277396 
L 411.603887 216.680169 
L 412.062552 211.263531 
L 412.291177 212.023933 
L 412.519333 210.143745 
L 412.747022 209.599258 
L 412.974246 208.344653 
L 413.201007 209.359656 
L 413.427306 206.899902 
L 413.653146 206.509596 
L 413.878528 205.288481 
L 414.103455 208.015469 
L 414.327927 209.14727 
L 414.551947 211.130347 
L 414.998639 207.355549 
L 415.443544 210.64583 
L 415.665331 209.539461 
L 415.886676 211.241539 
L 416.107582 211.460515 
L 416.32805 212.358503 
L 416.548082 210.33974 
L 416.76768 209.553073 
L 416.986844 209.842622 
L 417.205578 211.772182 
L 417.423882 215.660026 
L 417.641759 215.253293 
L 417.85921 208.47914 
L 418.292841 215.507085 
L 418.724787 219.33523 
L 419.155063 214.947046 
L 419.369578 215.304656 
L 419.58368 214.130904 
L 419.797371 214.575206 
L 420.010652 217.565626 
L 420.223525 217.085432 
L 420.435991 216.12768 
L 420.648052 215.867718 
L 420.85971 215.3405 
L 421.492277 208.77468 
L 421.911999 212.741263 
L 422.121267 212.684368 
L 422.330142 210.886482 
L 422.954425 208.24482 
L 423.161743 208.884923 
L 423.575223 211.524416 
L 423.987172 215.886597 
L 424.192576 216.846169 
L 424.397601 215.972934 
L 424.602249 216.338289 
L 424.806521 214.307602 
L 425.010418 214.260919 
L 425.213943 216.725569 
L 425.417095 216.915607 
L 425.619878 216.126063 
L 425.822291 214.088202 
L 426.024337 213.791124 
L 426.42733 215.657196 
L 426.628281 214.666132 
L 426.828869 211.531915 
L 427.228963 216.73329 
L 427.627623 213.218874 
L 427.826419 213.176291 
L 428.02486 211.42521 
L 428.222947 212.118069 
L 428.420682 214.928525 
L 428.618067 215.744979 
L 428.815101 215.591907 
L 429.208127 218.779735 
L 429.40412 219.019859 
L 429.599768 215.794738 
L 429.795073 217.587292 
L 429.990036 215.301122 
L 430.378938 217.624544 
L 430.572881 216.970568 
L 430.766486 214.771724 
L 430.959755 218.087708 
L 431.345287 217.186915 
L 431.537554 217.45111 
L 431.729488 219.46855 
L 431.921092 219.960584 
L 432.112367 218.777001 
L 432.303313 219.922569 
L 432.493932 221.763931 
L 432.684225 221.972142 
L 432.874192 221.991788 
L 433.063836 223.345635 
L 433.253157 220.775153 
L 433.442156 223.601749 
L 433.630835 223.540127 
L 433.819194 223.024058 
L 434.194958 220.202896 
L 434.382366 220.48603 
L 434.569457 217.801418 
L 434.756235 219.61819 
L 434.9427 220.216075 
L 435.128852 218.644746 
L 435.500225 223.707391 
L 435.685447 224.260294 
L 435.870362 225.847202 
L 436.05497 225.524259 
L 436.423268 226.58659 
L 436.606961 223.618463 
L 436.790351 223.32648 
L 437.156227 224.323891 
L 437.338714 220.969875 
L 437.520903 219.968391 
L 437.702793 220.927458 
L 437.884387 223.158611 
L 438.065685 220.037135 
L 438.246687 220.349885 
L 438.427396 221.472377 
L 438.607811 220.637185 
L 438.787934 221.103785 
L 439.147308 223.94769 
L 439.326561 223.17007 
L 439.505525 223.367783 
L 439.684201 223.3277 
L 439.862591 224.37942 
L 440.218515 222.687936 
L 440.39605 223.77047 
L 440.750274 226.977088 
L 441.103373 221.375127 
L 441.279503 221.483468 
L 441.455354 224.0588 
L 441.630928 223.346339 
L 441.806225 223.994514 
L 441.981247 227.736387 
L 442.155993 225.729586 
L 442.330466 227.735051 
L 442.504665 227.337584 
L 442.678591 227.616225 
L 442.852246 227.518196 
L 443.198745 225.963094 
L 443.371591 227.325922 
L 443.544168 229.759959 
L 443.716478 229.48846 
L 443.888522 227.871445 
L 444.060299 227.778929 
L 444.403061 225.265814 
L 444.574047 226.43913 
L 444.74477 223.78572 
L 444.915231 224.980056 
L 445.085432 228.407332 
L 445.425054 228.388078 
L 445.594476 229.474687 
L 445.763642 229.068557 
L 445.93255 224.819292 
L 446.101202 227.6011 
L 446.269599 226.616661 
L 446.437741 227.159538 
L 446.60563 225.830221 
L 446.773265 226.379877 
L 446.940648 229.088605 
L 447.10778 228.422652 
L 447.274661 232.272674 
L 447.441291 230.673407 
L 447.607673 230.179923 
L 447.939691 232.20948 
L 448.270722 229.84384 
L 448.435868 230.890302 
L 448.60077 228.949639 
L 448.765427 228.773431 
L 448.929841 228.968652 
L 449.094012 230.169385 
L 449.257942 229.553207 
L 449.42163 229.886149 
L 449.748285 228.701482 
L 449.911254 229.392218 
L 450.073984 229.153929 
L 450.236477 232.120084 
L 450.398732 232.468069 
L 450.560751 231.100034 
L 450.722535 230.854604 
L 450.884083 232.805614 
L 451.045397 232.567253 
L 451.206478 231.219236 
L 451.367325 233.187509 
L 451.52794 232.657465 
L 451.848477 233.232037 
L 452.008399 232.067859 
L 452.168092 231.92675 
L 452.327556 232.009237 
L 452.6458 232.749337 
L 452.804581 234.289617 
L 452.963135 234.361042 
L 453.121464 234.260459 
L 453.279568 231.895551 
L 453.437448 232.684725 
L 453.595104 232.534816 
L 453.752536 230.206311 
L 454.066734 235.564261 
L 454.223501 234.813107 
L 454.380047 230.994763 
L 454.536374 230.272462 
L 454.69248 234.514379 
L 454.848368 235.505589 
L 455.004038 234.529554 
L 455.314726 231.496072 
L 455.469745 234.297991 
L 455.624548 233.835967 
L 455.779136 234.761284 
L 455.933509 234.382356 
L 456.087669 233.328626 
L 456.241615 235.049972 
L 456.395348 233.873215 
L 456.54887 234.06931 
L 456.702179 233.857714 
L 456.855278 234.003724 
L 457.008166 232.30697 
L 457.313313 236.602238 
L 457.465573 233.128218 
L 457.617625 233.689882 
L 457.921107 237.240039 
L 458.072538 236.738276 
L 458.223763 232.743063 
L 458.374783 232.418702 
L 458.525598 234.473155 
L 458.676209 234.525467 
L 458.826616 233.887689 
L 458.97682 233.757941 
L 459.126822 232.759345 
L 459.276621 233.857117 
L 459.575616 233.830534 
L 459.724813 234.371941 
L 459.87381 234.15258 
L 460.022607 235.792422 
L 460.171206 236.107096 
L 460.467809 233.202133 
L 460.615814 234.294439 
L 460.763623 234.010654 
L 460.911236 234.96102 
L 461.058652 234.529157 
L 461.205874 235.168914 
L 461.352902 234.797646 
L 461.499735 236.478147 
L 461.939075 234.880746 
L 462.085136 235.193691 
L 462.376686 233.086941 
L 462.667473 236.608978 
L 462.812582 236.287122 
L 462.957502 235.544425 
L 463.102234 237.921359 
L 463.391133 234.71701 
L 463.535301 236.425642 
L 463.679283 239.740492 
L 463.966689 238.898177 
L 464.110114 239.06648 
L 464.253355 238.578531 
L 464.396411 235.300255 
L 464.539283 235.816277 
L 464.681972 235.051467 
L 464.824478 236.224502 
L 464.966802 234.106232 
L 465.108944 233.84378 
L 465.250905 234.122502 
L 465.392684 233.609498 
L 465.816942 234.710673 
L 465.958002 234.11443 
L 466.098884 234.102298 
L 466.239587 235.809271 
L 466.380113 236.156182 
L 466.520461 234.88488 
L 466.660633 236.278642 
L 466.800628 234.504551 
L 466.940447 235.875699 
L 467.219559 235.182943 
L 467.358853 235.671026 
L 467.497972 232.243433 
L 467.775691 237.61345 
L 467.91429 238.396649 
L 468.052717 236.648648 
L 468.329055 237.4713 
L 468.466967 236.730992 
L 468.604709 236.624978 
L 468.74228 237.603609 
L 468.879681 237.083204 
L 469.016912 237.968266 
L 469.153974 237.431156 
L 469.290868 238.468713 
L 469.564151 237.207331 
L 469.700541 235.821115 
L 469.97282 237.628919 
L 470.10871 234.537805 
L 470.379994 238.718585 
L 470.650617 235.435222 
L 470.785682 237.93194 
L 471.055321 236.528464 
L 471.189896 238.826579 
L 471.324308 237.568358 
L 471.458558 237.535974 
L 471.592646 238.237894 
L 471.726573 239.710819 
L 471.860338 239.325457 
L 472.260673 237.167081 
L 472.393798 238.833313 
L 472.526764 237.441401 
L 472.659571 237.657813 
L 472.924711 241.570904 
L 473.18922 238.315263 
L 473.453102 238.5032 
L 473.584808 236.61106 
L 473.847754 238.019998 
L 473.978994 238.833483 
L 474.11008 238.580122 
L 474.241011 241.489571 
L 474.371788 240.962807 
L 474.502412 236.597792 
L 474.632883 238.407271 
L 474.7632 238.668899 
L 475.153239 237.921751 
L 475.282949 239.346073 
L 475.412508 238.340569 
L 475.541916 235.886177 
L 475.671173 237.150855 
L 475.800281 236.781651 
L 475.929238 236.883055 
L 476.058047 236.151303 
L 476.186706 236.998258 
L 476.315217 236.871406 
L 476.44358 236.380416 
L 476.571794 234.861783 
L 476.699861 239.53708 
L 476.955553 236.649077 
L 477.083179 236.086839 
L 477.337993 239.913748 
L 477.465181 239.685716 
L 477.972484 236.177447 
L 478.225271 241.59022 
L 478.603377 234.621382 
L 478.729127 235.457739 
L 478.854735 237.428272 
L 478.980202 236.368164 
L 479.230711 236.733857 
L 479.355755 238.91207 
L 479.480658 236.81192 
L 479.605421 239.017224 
L 479.730044 236.766549 
L 479.854527 237.44793 
L 479.978872 240.216264 
L 480.227144 237.096207 
L 480.351073 238.115724 
L 480.474864 237.753301 
L 480.598517 238.447297 
L 480.722033 237.16425 
L 480.845412 239.713748 
L 480.968654 239.904548 
L 481.09176 238.273739 
L 481.21473 239.879952 
L 481.460262 235.971438 
L 481.582825 239.77072 
L 481.705253 239.067553 
L 481.827547 239.696855 
L 482.071732 238.47231 
L 482.193623 238.411722 
L 482.315381 239.398296 
L 482.437006 241.546223 
L 482.679858 240.753774 
L 482.922181 236.950035 
L 483.284678 239.6781 
L 483.405248 237.367279 
L 483.645997 240.082591 
L 483.886227 238.279795 
L 484.125938 239.38896 
L 484.2456 239.088298 
L 484.365134 239.219368 
L 484.484539 236.583102 
L 484.722966 237.493338 
L 484.841988 240.592664 
L 485.079651 237.829961 
L 485.198292 239.185443 
L 485.316807 236.631009 
L 485.671595 240.757054 
L 485.907494 236.014739 
L 486.025255 235.162512 
L 486.142893 235.92742 
L 486.377795 241.470263 
L 486.49506 240.686301 
L 486.72922 236.24091 
L 486.846116 235.962439 
L 486.962889 236.268936 
L 487.079539 238.660639 
L 487.196067 235.85941 
L 487.312473 236.391915 
L 487.428758 239.369882 
L 487.660962 238.251553 
L 487.776883 238.258488 
L 487.892684 237.80345 
L 488.008363 240.025044 
L 488.123923 237.635552 
L 488.239363 237.613386 
L 488.354682 237.879528 
L 488.469883 240.477562 
L 488.699927 238.557913 
L 488.81477 241.082798 
L 488.929496 240.079656 
L 489.272963 234.138339 
L 489.615373 241.208575 
L 489.843062 238.75434 
L 489.956732 240.111364 
L 490.070286 239.142774 
L 490.183724 240.700715 
L 490.297046 240.561123 
L 490.410254 240.009648 
L 490.523346 240.938949 
L 490.636323 243.2549 
L 490.974568 239.412177 
L 491.087088 240.565548 
L 491.199494 240.459028 
L 491.423967 241.285521 
L 491.536033 239.01291 
L 491.647987 239.918094 
L 491.759828 238.274147 
L 491.871557 240.74092 
L 491.983174 239.598474 
L 492.094679 242.172899 
L 492.206072 241.713389 
L 492.317354 241.858523 
L 492.428524 238.719411 
L 492.539584 239.156362 
L 492.76137 240.595042 
L 492.872098 240.218471 
L 493.093224 242.105689 
L 493.203622 241.47554 
L 493.31391 239.951729 
L 493.42409 240.170077 
L 493.53416 240.895139 
L 493.644122 240.221942 
L 493.753975 242.351997 
L 493.863719 242.271551 
L 493.973355 243.781828 
L 494.082884 241.092434 
L 494.301618 243.314681 
L 494.410823 242.677215 
L 494.519922 241.231934 
L 494.628914 241.299484 
L 494.737799 240.5272 
L 494.846577 243.451786 
L 495.063816 241.020531 
L 495.280631 237.365834 
L 495.38888 243.02555 
L 495.497024 242.752851 
L 495.605063 241.055539 
L 495.712997 241.565457 
L 495.928552 239.511344 
L 496.036172 240.963568 
L 496.143689 240.582935 
L 496.358411 241.384074 
L 496.465617 240.699918 
L 496.57272 241.464816 
L 496.679719 241.067937 
L 496.89341 238.001428 
L 497.000102 240.332505 
L 497.106692 239.160155 
L 497.213179 239.512352 
L 497.319564 240.662112 
L 497.425848 239.887524 
L 497.638112 240.88544 
L 497.744092 240.835697 
L 497.849971 239.811664 
L 498.061428 243.699786 
L 498.37786 239.16447 
L 498.483138 239.747734 
L 498.588317 242.348481 
L 498.798375 240.042741 
L 498.903256 240.362728 
L 499.008038 240.096549 
L 499.217307 242.071659 
L 499.426182 243.651557 
L 499.634666 241.959516 
L 499.738761 242.83091 
L 499.94666 238.006899 
L 500.154172 240.517617 
L 500.257783 240.628117 
L 500.361297 239.886826 
L 500.568037 242.537857 
L 500.774393 240.105243 
L 500.877428 240.580532 
L 501.083212 243.016204 
L 501.185961 243.757018 
L 501.391175 239.615177 
L 501.596012 241.93006 
L 501.698288 241.910015 
L 501.90256 239.827748 
L 502.208267 243.068577 
L 502.513135 241.194642 
L 502.614572 244.304492 
L 502.715917 243.678168 
L 502.81717 241.925615 
L 502.918331 242.191528 
L 503.019399 243.820579 
L 503.120376 242.737734 
L 503.221262 243.340187 
L 503.422758 242.007311 
L 503.52337 242.500404 
L 503.62389 242.335485 
L 503.82466 243.45314 
L 503.924908 239.922767 
L 504.225114 245.007292 
L 504.325003 242.632297 
L 504.424802 244.740804 
L 504.524511 243.042068 
L 504.624132 243.328409 
L 504.723663 242.166842 
L 504.823105 243.302889 
L 504.922458 240.797966 
L 505.021723 242.410081 
L 505.120899 241.91947 
L 505.219987 242.107601 
L 505.318987 241.573356 
L 505.417898 241.919226 
L 505.516722 244.795224 
L 505.615458 243.920712 
L 505.714106 244.647369 
L 505.911141 241.651341 
L 506.107827 243.756618 
L 506.20604 243.253744 
L 506.402206 244.433076 
L 506.50016 244.294699 
L 506.598027 242.803908 
L 506.695808 244.299856 
L 506.891113 241.611442 
L 506.988637 243.29374 
L 507.086075 242.99353 
L 507.183429 245.411732 
L 507.280697 242.124747 
L 507.474978 243.715154 
L 507.571992 242.887174 
L 507.765765 244.273729 
L 507.862526 243.542451 
L 507.959202 244.320232 
L 508.055794 243.16767 
L 508.152303 244.04583 
L 508.248728 242.467736 
L 508.441327 244.917958 
L 508.537502 244.834543 
L 508.729602 243.409893 
L 508.825528 244.048293 
L 508.921371 243.594353 
L 509.017132 243.807163 
L 509.11281 242.993072 
L 509.208406 243.87469 
L 509.399353 242.877253 
L 509.494703 240.965882 
L 509.589971 242.695385 
L 509.685158 242.264854 
L 509.780264 242.564288 
L 509.875289 245.196651 
L 510.159876 241.560651 
L 510.349197 244.458864 
L 510.538196 241.722893 
L 510.726875 245.801851 
L 510.821094 245.598009 
L 511.103275 241.485574 
L 511.197176 242.144387 
L 511.290998 241.526045 
L 511.478405 245.341596 
L 511.57199 244.819927 
L 511.758925 241.922728 
L 511.852275 242.110228 
L 512.038739 243.081337 
L 512.131854 247.489934 
L 512.317851 242.373935 
L 512.410733 242.778818 
L 512.503538 241.727064 
L 512.688914 244.653901 
L 512.781487 240.139239 
L 512.966402 245.497587 
L 513.058744 245.355126 
L 513.151009 247.524616 
L 513.427347 241.904471 
L 513.611192 243.403995 
L 513.794734 245.238908 
L 513.977973 243.430522 
L 514.069479 243.832289 
L 514.16091 242.099281 
L 514.252266 244.930996 
L 514.343548 244.202448 
L 514.434754 244.864704 
L 514.525885 246.444196 
L 514.707925 243.649298 
L 514.798833 244.898171 
L 514.889667 244.957096 
L 515.071112 242.992566 
L 515.161724 243.742413 
L 515.342727 248.35821 
L 515.433118 246.245628 
L 515.523435 246.700171 
L 515.61368 246.407706 
L 515.703851 247.195814 
L 515.973926 242.689595 
L 516.063806 243.143079 
L 516.243348 246.109683 
L 516.4226 242.715168 
L 516.601564 244.749037 
L 516.690938 242.81044 
L 516.95863 247.590187 
L 517.047718 245.382194 
L 517.22568 246.897246 
L 517.314554 243.831443 
L 517.403357 244.136347 
L 517.49209 244.284157 
L 517.580752 243.320453 
L 517.669343 245.684574 
L 517.757863 245.195153 
L 517.846313 245.205859 
L 517.934693 246.529997 
L 518.023003 243.739334 
L 518.199412 246.854703 
L 518.551394 242.898066 
L 518.639215 243.535893 
L 518.726968 244.516893 
L 518.902265 242.475443 
L 518.98981 244.442922 
L 519.077286 243.789104 
L 519.164694 246.157365 
L 519.252033 246.114717 
L 519.426505 243.358549 
L 519.600704 246.940188 
L 519.774631 242.908472 
L 519.861492 241.950385 
L 520.035012 245.374955 
L 520.12167 244.752363 
L 520.294785 242.990911 
L 520.381241 245.495432 
L 520.46763 243.430969 
L 520.553953 243.80185 
L 520.640208 244.771046 
L 520.726396 247.157573 
L 520.812518 245.646938 
L 520.898573 241.361693 
L 520.984561 242.133604 
L 521.156339 245.748569 
L 521.413509 243.211861 
L 521.499101 243.633073 
L 521.584626 245.460188 
L 521.670086 245.321111 
L 521.755481 244.088447 
L 521.840809 244.627433 
L 521.926073 243.948998 
L 522.011271 244.171863 
L 522.096404 244.749294 
L 522.181471 246.35347 
L 522.266474 244.925484 
L 522.436285 249.10445 
L 522.605837 245.254814 
L 522.690516 245.282167 
L 522.775131 243.845875 
L 522.859681 244.861575 
L 522.944167 243.641004 
L 523.02859 243.693334 
L 523.197242 246.416382 
L 523.365638 242.064503 
L 523.701669 246.088514 
L 523.869305 243.778893 
L 523.953028 245.438676 
L 524.036688 243.473477 
L 524.203819 244.330552 
L 524.287291 244.123839 
L 524.3707 241.836979 
L 524.537331 245.039399 
L 524.703713 241.549905 
L 524.78681 241.668763 
L 524.869846 243.696577 
L 524.952819 243.219443 
L 525.201369 246.295968 
L 525.284096 245.123358 
L 525.366761 246.068082 
L 525.449365 245.219063 
L 525.531908 246.189527 
L 525.614389 242.528726 
L 525.696809 242.841714 
L 525.861467 246.283217 
L 525.943704 244.014529 
L 526.025881 244.232016 
L 526.190052 244.952333 
L 526.272047 242.432257 
L 526.353981 242.62579 
L 526.51767 245.382079 
L 526.599423 245.067614 
L 526.681117 243.408624 
L 527.007294 247.535562 
L 527.088688 247.251661 
L 527.2513 245.792428 
L 527.332516 245.726154 
L 527.575811 243.431982 
L 527.656791 244.617192 
L 527.737712 243.616703 
L 527.980123 245.047211 
L 528.060809 244.910207 
L 528.222006 245.92821 
L 528.543701 241.487022 
L 528.62398 243.130004 
L 528.704201 242.527014 
L 528.784364 239.917803 
L 529.024507 243.816657 
L 529.104439 244.142411 
L 529.184314 240.211515 
L 529.503242 245.384613 
L 529.741839 242.969883 
L 529.90062 247.005922 
L 530.059175 244.325654 
L 530.138368 246.446619 
L 530.217504 246.414527 
L 530.533487 241.70306 
L 530.612343 243.164964 
L 530.769887 241.844802 
L 530.927208 244.429038 
L 531.005786 245.766654 
L 531.162774 244.090496 
L 531.241185 245.255062 
L 531.397841 242.772917 
L 531.476087 244.203922 
L 531.710494 240.668792 
L 531.78852 244.292788 
L 531.866491 244.080308 
L 532.100078 242.913601 
L 532.177831 244.629086 
L 532.25553 243.204181 
L 532.410765 248.035457 
L 532.565784 243.004106 
L 532.720587 246.500977 
L 532.875176 242.488916 
L 533.029549 243.320209 
L 533.106655 245.438232 
L 533.183709 243.777553 
L 533.260708 243.88158 
L 533.337655 244.842102 
L 533.568175 243.596654 
L 533.644909 245.294743 
L 533.72159 244.929333 
L 533.874794 245.653595 
L 534.104205 241.957385 
L 534.256884 245.088357 
L 534.333144 243.92513 
L 534.409353 245.050173 
L 534.561613 239.754668 
L 534.789613 244.192131 
L 534.865509 243.815031 
L 535.017147 245.365879 
L 535.092888 243.255966 
L 535.168578 245.845198 
L 535.319803 242.525085 
L 535.395339 242.705856 
L 535.470823 245.045062 
L 535.546256 244.857508 
L 535.696969 242.063194 
L 535.772249 244.75947 
L 535.847478 244.156539 
L 535.997783 241.089718 
L 536.07286 241.736073 
L 536.147886 243.632943 
L 536.222861 241.565913 
L 536.297786 242.048828 
L 536.372661 241.577386 
L 536.447485 243.135026 
L 536.522259 241.961208 
L 536.746279 243.749553 
L 536.895376 242.04846 
L 536.969849 243.66726 
L 537.192971 239.70371 
L 537.34147 243.027168 
L 537.489772 239.275012 
L 537.563848 244.692106 
L 537.637876 243.486446 
L 537.859663 241.656687 
L 537.933493 242.740998 
L 538.007275 240.913216 
L 538.081008 242.246691 
L 538.154692 240.668306 
L 538.228327 241.552175 
L 538.301914 245.498899 
L 538.375452 244.50409 
L 538.522382 242.589686 
L 538.595774 244.075867 
L 538.669118 243.885957 
L 538.815661 240.927517 
L 538.88886 244.55152 
L 538.962011 243.012201 
L 539.035114 241.890926 
L 539.181176 243.231346 
L 539.254135 240.963159 
L 539.327046 241.393588 
L 539.545494 248.438939 
L 539.690887 242.844058 
L 539.763513 243.754063 
L 539.836091 243.535282 
L 539.981105 240.63293 
L 540.053542 244.218918 
L 540.125931 243.938101 
L 540.198273 241.332228 
L 540.342817 244.214699 
L 540.415018 244.518379 
L 540.487172 248.445717 
L 540.55928 247.878675 
L 540.703355 243.513341 
L 540.775323 244.263002 
L 540.847244 243.879485 
L 540.919119 242.494252 
L 540.990947 243.190123 
L 541.062729 243.136786 
L 541.134465 242.137906 
L 541.277797 244.072194 
L 541.49245 242.385408 
L 541.563909 244.624184 
L 541.635323 244.026125 
L 541.70669 242.885813 
L 541.778012 243.343161 
L 541.849288 246.087055 
L 541.991703 243.718141 
L 542.062842 245.223934 
L 542.133935 245.000134 
L 542.204984 243.142829 
L 542.275987 243.92491 
L 542.346944 244.89573 
L 542.417857 244.364183 
L 542.488724 242.819316 
L 542.559546 217.849622 
L 542.630323 219.751548 
L 542.771742 246.923321 
L 542.842384 247.186969 
L 542.983534 240.332196 
L 543.054042 246.785028 
L 543.124505 244.131492 
L 543.194923 246.31604 
L 543.265297 244.583188 
L 543.335627 245.338583 
L 543.405912 246.557509 
L 543.686609 243.134105 
L 543.826692 246.676361 
L 543.896668 246.262693 
L 543.966599 245.981679 
L 544.10633 243.874346 
L 544.17613 245.86285 
L 544.245886 245.839135 
L 544.385267 244.785093 
L 544.594012 249.902381 
L 544.663507 247.228085 
L 544.732958 248.98135 
L 544.87173 245.380679 
L 545.01033 246.443319 
L 545.079565 248.518573 
L 545.148757 247.907329 
L 545.287012 244.877087 
L 545.356075 245.686911 
L 545.494072 243.946021 
L 545.563007 246.503966 
L 545.631899 246.453072 
L 545.700748 245.735554 
L 545.769555 246.402628 
L 545.838319 244.780823 
L 545.907041 246.609988 
L 545.97572 245.186955 
L 546.044357 245.615038 
L 546.181504 247.59288 
L 546.250014 247.402657 
L 546.318482 244.36444 
L 546.386908 244.448514 
L 546.523633 248.481404 
L 546.66019 245.730972 
L 546.728406 247.641844 
L 546.796581 247.497107 
L 547.000853 244.76905 
L 547.136826 246.955919 
L 547.20475 246.762063 
L 547.272633 247.046452 
L 547.408274 245.261843 
L 547.543751 245.828596 
L 547.679062 244.923765 
L 547.746656 245.432846 
L 547.81421 243.979089 
L 547.881722 244.170504 
L 547.949193 243.593776 
L 548.151361 246.305827 
L 548.218668 246.647859 
L 548.420348 242.945415 
L 548.487493 246.049488 
L 548.554598 245.009585 
L 548.621662 244.320893 
L 548.755669 247.657496 
L 548.822612 245.621225 
L 548.889515 246.714662 
L 549.0232 248.153077 
L 549.089983 248.087674 
L 549.356712 245.065128 
L 549.423295 245.66702 
L 549.489837 245.089466 
L 549.55634 246.443601 
L 549.622803 245.618056 
L 549.689227 245.062651 
L 549.821955 247.17203 
L 549.954525 244.101066 
L 550.153084 246.775383 
L 550.28526 245.799133 
L 550.417279 247.114927 
L 550.48323 244.114869 
L 550.549141 244.823491 
L 550.680848 247.109657 
L 550.746643 245.847515 
L 550.878115 247.556783 
L 551.009433 243.937027 
L 551.075034 246.242997 
L 551.140596 245.823207 
L 551.337051 247.310744 
L 551.402459 245.270929 
L 551.467828 246.073744 
L 551.598452 250.801225 
L 551.728922 245.200905 
L 551.7941 249.135546 
L 551.85924 248.841193 
L 551.924341 243.579253 
L 551.989405 244.869268 
L 552.184367 249.047089 
L 552.249279 249.640514 
L 552.314153 248.265464 
L 552.378989 250.336577 
L 552.508547 246.053162 
L 552.57327 246.607163 
L 552.702603 249.469187 
L 552.767213 248.833455 
L 552.831785 249.085072 
L 552.960818 246.854242 
L 553.025278 249.681685 
L 553.089701 247.993412 
L 553.154086 246.91838 
L 553.218435 247.321088 
L 553.282746 249.067947 
L 553.411257 246.856556 
L 553.475456 248.250286 
L 553.603745 243.934367 
L 553.795901 249.727392 
L 553.859879 248.192001 
L 553.92382 247.924758 
L 553.987725 249.934744 
L 554.051593 249.39194 
L 554.242977 244.987571 
L 554.306699 246.687964 
L 554.370384 251.386305 
L 554.434032 247.896282 
L 554.688264 244.258301 
L 554.815162 248.859487 
L 554.878556 248.517051 
L 554.941915 245.524288 
L 555.005237 247.577128 
L 555.068524 246.556087 
L 555.131775 246.787846 
L 555.194989 249.531688 
L 555.258168 248.134693 
L 555.321311 248.11633 
L 555.384418 248.251566 
L 555.510524 246.757286 
L 555.573524 248.301868 
L 555.636488 247.076799 
L 555.699417 250.696845 
L 555.76231 248.667846 
L 555.825167 245.427266 
L 555.950775 248.673527 
L 556.013526 248.196079 
L 556.138922 249.637473 
L 556.201567 249.065872 
L 556.326751 245.099752 
L 556.514263 249.317603 
L 556.576697 247.262459 
L 556.639096 248.320138 
L 556.70146 248.022277 
L 556.826083 248.821871 
L 556.888342 246.779616 
L 556.950567 247.631534 
L 557.074911 246.448268 
L 557.137031 246.895156 
L 557.261168 249.313592 
L 557.323184 247.863077 
L 557.385165 248.921551 
L 557.447113 248.649981 
L 557.509025 251.870125 
L 557.632747 246.803467 
L 557.756332 248.198854 
L 557.818073 246.4673 
L 557.941451 249.211678 
L 558.064694 247.247838 
L 558.126264 251.407582 
L 558.187799 248.763523 
L 558.310769 250.534841 
L 558.433603 248.836085 
L 558.494969 248.687228 
L 558.678865 244.66333 
L 558.740096 246.733805 
L 558.862457 251.397018 
L 558.984683 249.532113 
L 559.045746 250.4187 
L 559.167771 246.343534 
L 559.350559 251.328265 
L 559.411421 252.679044 
L 559.47225 249.217618 
L 559.533046 250.092026 
L 559.593809 249.931686 
L 559.654538 249.024508 
L 559.715235 249.271199 
L 559.775898 249.946996 
L 559.836528 249.349312 
L 560.018221 246.355982 
L 560.078719 247.061792 
L 560.199617 249.778563 
L 560.260016 249.159491 
L 560.320383 247.073512 
L 560.380718 247.751583 
L 560.561524 248.638055 
L 560.621728 248.473917 
L 560.681899 250.542728 
L 560.742037 249.69924 
L 560.862216 246.199664 
L 560.922258 247.514911 
L 561.042243 250.141694 
L 561.162098 247.552131 
L 561.162098 247.552131 
" clip-path="url(#p67264b33f2)" style="fill: none; stroke: #2ca02c; stroke-linecap: square"/>
   </g>
   <g id="patch_3">
    <path d="M 48.982813 294.590247 
L 48.982813 22.318125 
" style="fill: none; stroke: #000000; stroke-width: 0.8; stroke-linejoin: miter; stroke-linecap: square"/>
   </g>
   <g id="patch_4">
    <path d="M 561.197812 294.590247 
L 561.197812 22.318125 
" style="fill: none; stroke: #000000; stroke-width: 0.8; stroke-linejoin: miter; stroke-linecap: square"/>
   </g>
   <g id="patch_5">
    <path d="M 48.982813 294.590247 
L 561.197812 294.590247 
" style="fill: none; stroke: #000000; stroke-width: 0.8; stroke-linejoin: miter; stroke-linecap: square"/>
   </g>
   <g id="patch_6">
    <path d="M 48.982813 22.318125 
L 561.197812 22.318125 
" style="fill: none; stroke: #000000; stroke-width: 0.8; stroke-linejoin: miter; stroke-linecap: square"/>
   </g>
   <g id="text_14">
    <!-- Toyota Tundra Blower Setting 2 - Narrow Band SPL (dBA) -->
    <g transform="translate(135.736562 16.318125) scale(0.12 -0.12)">
     <defs>
      <path id="DejaVuSans-54" d="M -19 4666 
L 3928 4666 
L 3928 4134 
L 2272 4134 
L 2272 0 
L 1638 0 
L 1638 4134 
L -19 4134 
L -19 4666 
z
" transform="scale(0.015625)"/>
      <path id="DejaVuSans-6f" d="M 1959 3097 
Q 1497 3097 1228 2736 
Q 959 2375 959 1747 
Q 959 1119 1226 758 
Q 1494 397 1959 397 
Q 2419 397 2687 759 
Q 2956 1122 2956 1747 
Q 2956 2369 2687 2733 
Q 2419 3097 1959 3097 
z
M 1959 3584 
Q 2709 3584 3137 3096 
Q 3566 2609 3566 1747 
Q 3566 888 3137 398 
Q 2709 -91 1959 -91 
Q 1206 -91 779 398 
Q 353 888 353 1747 
Q 353 2609 779 3096 
Q 1206 3584 1959 3584 
z
" transform="scale(0.015625)"/>
      <path id="DejaVuSans-74" d="M 1172 4494 
L 1172 3500 
L 2356 3500 
L 2356 3053 
L 1172 3053 
L 1172 1153 
Q 1172 725 1289 603 
Q 1406 481 1766 481 
L 2356 481 
L 2356 0 
L 1766 0 
Q 1100 0 847 248 
Q 594 497 594 1153 
L 594 3053 
L 172 3053 
L 172 3500 
L 594 3500 
L 594 4494 
L 1172 4494 
z
" transform="scale(0.015625)"/>
      <path id="DejaVuSans-61" d="M 2194 1759 
Q 1497 1759 1228 1600 
Q 959 1441 959 1056 
Q 959 750 1161 570 
Q 1363 391 1709 391 
Q 2188 391 2477 730 
Q 2766 1069 2766 1631 
L 2766 1759 
L 2194 1759 
z
M 3341 1997 
L 3341 0 
L 2766 0 
L 2766 531 
Q 2569 213 2275 61 
Q 1981 -91 1556 -91 
Q 1019 -91 701 211 
Q 384 513 384 1019 
Q 384 1609 779 1909 
Q 1175 2209 1959 2209 
L 2766 2209 
L 2766 2266 
Q 2766 2663 2505 2880 
Q 2244 3097 1772 3097 
Q 1472 3097 1187 3025 
Q 903 2953 641 2809 
L 641 3341 
Q 956 3463 1253 3523 
Q 1550 3584 1831 3584 
Q 2591 3584 2966 3190 
Q 3341 2797 3341 1997 
z
" transform="scale(0.015625)"/>
      <path id="DejaVuSans-6c" d="M 603 4863 
L 1178 4863 
L 1178 0 
L 603 0 
L 603 4863 
z
" transform="scale(0.015625)"/>
      <path id="DejaVuSans-77" d="M 269 3500 
L 844 3500 
L 1563 769 
L 2278 3500 
L 2956 3500 
L 3675 769 
L 4391 3500 
L 4966 3500 
L 4050 0 
L 3372 0 
L 2619 2869 
L 1863 0 
L 1184 0 
L 269 3500 
z
" transform="scale(0.015625)"/>
      <path id="DejaVuSans-69" d="M 603 3500 
L 1178 3500 
L 1178 0 
L 603 0 
L 603 3500 
z
M 603 4863 
L 1178 4863 
L 1178 4134 
L 603 4134 
L 603 4863 
z
" transform="scale(0.015625)"/>
      <path id="DejaVuSans-67" d="M 2906 1791 
Q 2906 2416 2648 2759 
Q 2391 3103 1925 3103 
Q 1463 3103 1205 2759 
Q 947 2416 947 1791 
Q 947 1169 1205 825 
Q 1463 481 1925 481 
Q 2391 481 2648 825 
Q 2906 1169 2906 1791 
z
M 3481 434 
Q 3481 -459 3084 -895 
Q 2688 -1331 1869 -1331 
Q 1566 -1331 1297 -1286 
Q 1028 -1241 775 -1147 
L 775 -588 
Q 1028 -725 1275 -790 
Q 1522 -856 1778 -856 
Q 2344 -856 2625 -561 
Q 2906 -266 2906 331 
L 2906 616 
Q 2728 306 2450 153 
Q 2172 0 1784 0 
Q 1141 0 747 490 
Q 353 981 353 1791 
Q 353 2603 747 3093 
Q 1141 3584 1784 3584 
Q 2172 3584 2450 3431 
Q 2728 3278 2906 2969 
L 2906 3500 
L 3481 3500 
L 3481 434 
z
" transform="scale(0.015625)"/>
      <path id="DejaVuSans-2d" d="M 313 2009 
L 1997 2009 
L 1997 1497 
L 313 1497 
L 313 2009 
z
" transform="scale(0.015625)"/>
      <path id="DejaVuSans-4e" d="M 628 4666 
L 1478 4666 
L 3547 763 
L 3547 4666 
L 4159 4666 
L 4159 0 
L 3309 0 
L 1241 3903 
L 1241 0 
L 628 0 
L 628 4666 
z
" transform="scale(0.015625)"/>
     </defs>
     <use xlink:href="#DejaVuSans-54"/>
     <use xlink:href="#DejaVuSans-6f" transform="translate(44.083984 0)"/>
     <use xlink:href="#DejaVuSans-79" transform="translate(105.265625 0)"/>
     <use xlink:href="#DejaVuSans-6f" transform="translate(164.445312 0)"/>
     <use xlink:href="#DejaVuSans-74" transform="translate(225.626953 0)"/>
     <use xlink:href="#DejaVuSans-61" transform="translate(264.835938 0)"/>
     <use xlink:href="#DejaVuSans-20" transform="translate(326.115234 0)"/>
     <use xlink:href="#DejaVuSans-54" transform="translate(357.902344 0)"/>
     <use xlink:href="#DejaVuSans-75" transform="translate(403.861328 0)"/>
     <use xlink:href="#DejaVuSans-6e" transform="translate(467.240234 0)"/>
     <use xlink:href="#DejaVuSans-64" transform="translate(530.619141 0)"/>
     <use xlink:href="#DejaVuSans-72" transform="translate(594.095703 0)"/>
     <use xlink:href="#DejaVuSans-61" transform="translate(635.208984 0)"/>
     <use xlink:href="#DejaVuSans-20" transform="translate(696.488281 0)"/>
     <use xlink:href="#DejaVuSans-42" transform="translate(728.275391 0)"/>
     <use xlink:href="#DejaVuSans-6c" transform="translate(796.878906 0)"/>
     <use xlink:href="#DejaVuSans-6f" transform="translate(824.662109 0)"/>
     <use xlink:href="#DejaVuSans-77" transform="translate(885.84375 0)"/>
     <use xlink:href="#DejaVuSans-65" transform="translate(967.630859 0)"/>
     <use xlink:href="#DejaVuSans-72" transform="translate(1029.154297 0)"/>
     <use xlink:href="#DejaVuSans-20" transform="translate(1070.267578 0)"/>
     <use xlink:href="#DejaVuSans-53" transform="translate(1102.054688 0)"/>
     <use xlink:href="#DejaVuSans-65" transform="translate(1165.53125 0)"/>
     <use xlink:href="#DejaVuSans-74" transform="translate(1227.054688 0)"/>
     <use xlink:href="#DejaVuSans-74" transform="translate(1266.263672 0)"/>
     <use xlink:href="#DejaVuSans-69" transform="translate(1305.472656 0)"/>
     <use xlink:href="#DejaVuSans-6e" transform="translate(1333.255859 0)"/>
     <use xlink:href="#DejaVuSans-67" transform="translate(1396.634766 0)"/>
     <use xlink:href="#DejaVuSans-20" transform="translate(1460.111328 0)"/>
     <use xlink:href="#DejaVuSans-32" transform="translate(1491.898438 0)"/>
     <use xlink:href="#DejaVuSans-20" transform="translate(1555.521484 0)"/>
     <use xlink:href="#DejaVuSans-2d" transform="translate(1587.308594 0)"/>
     <use xlink:href="#DejaVuSans-20" transform="translate(1623.392578 0)"/>
     <use xlink:href="#DejaVuSans-4e" transform="translate(1655.179688 0)"/>
     <use xlink:href="#DejaVuSans-61" transform="translate(1729.984375 0)"/>
     <use xlink:href="#DejaVuSans-72" transform="translate(1791.263672 0)"/>
     <use xlink:href="#DejaVuSans-72" transform="translate(1830.626953 0)"/>
     <use xlink:href="#DejaVuSans-6f" transform="translate(1869.490234 0)"/>
     <use xlink:href="#DejaVuSans-77" transform="translate(1930.671875 0)"/>
     <use xlink:href="#DejaVuSans-20" transform="translate(2012.458984 0)"/>
     <use xlink:href="#DejaVuSans-42" transform="translate(2044.246094 0)"/>
     <use xlink:href="#DejaVuSans-61" transform="translate(2112.849609 0)"/>
     <use xlink:href="#DejaVuSans-6e" transform="translate(2174.128906 0)"/>
     <use xlink:href="#DejaVuSans-64" transform="translate(2237.507812 0)"/>
     <use xlink:href="#DejaVuSans-20" transform="translate(2300.984375 0)"/>
     <use xlink:href="#DejaVuSans-53" transform="translate(2332.771484 0)"/>
     <use xlink:href="#DejaVuSans-50" transform="translate(2396.248047 0)"/>
     <use xlink:href="#DejaVuSans-4c" transform="translate(2456.550781 0)"/>
     <use xlink:href="#DejaVuSans-20" transform="translate(2512.263672 0)"/>
     <use xlink:href="#DejaVuSans-28" transform="translate(2544.050781 0)"/>
     <use xlink:href="#DejaVuSans-64" transform="translate(2583.064453 0)"/>
     <use xlink:href="#DejaVuSans-42" transform="translate(2646.541016 0)"/>
     <use xlink:href="#DejaVuSans-41" transform="translate(2715.144531 0)"/>
     <use xlink:href="#DejaVuSans-29" transform="translate(2783.552734 0)"/>
    </g>
   </g>
  </g>
 </g>
 <defs>
  <clipPath id="p67264b33f2">
   <rect x="48.982813" y="22.318125" width="512.215" height="272.272122"/>
  </clipPath>
 </defs>
</svg>
