<?xml version="1.0" encoding="utf-8" standalone="no"?>
<!DOCTYPE svg PUBLIC "-//W3C//DTD SVG 1.1//EN"
  "http://www.w3.org/Graphics/SVG/1.1/DTD/svg11.dtd">
<svg xmlns:xlink="http://www.w3.org/1999/xlink" width="568.397812pt" height="351.806674pt" viewBox="0 0 568.397812 351.806674" xmlns="http://www.w3.org/2000/svg" version="1.1">
 <metadata>
  <rdf:RDF xmlns:dc="http://purl.org/dc/elements/1.1/" xmlns:cc="http://creativecommons.org/ns#" xmlns:rdf="http://www.w3.org/1999/02/22-rdf-syntax-ns#">
   <cc:Work>
    <dc:type rdf:resource="http://purl.org/dc/dcmitype/StillImage"/>
    <dc:date>2025-04-24T19:41:16.131165</dc:date>
    <dc:format>image/svg+xml</dc:format>
    <dc:creator>
     <cc:Agent>
      <dc:title>Matplotlib v3.10.0, https://matplotlib.org/</dc:title>
     </cc:Agent>
    </dc:creator>
   </cc:Work>
  </rdf:RDF>
 </metadata>
 <defs>
  <style type="text/css">*{stroke-linejoin: round; stroke-linecap: butt}</style>
 </defs>
 <g id="figure_1">
  <g id="patch_1">
   <path d="M 0 351.806674 
L 568.397812 351.806674 
L 568.397812 0 
L 0 0 
z
" style="fill: #ffffff"/>
  </g>
  <g id="axes_1">
   <g id="patch_2">
    <path d="M 48.982813 294.590247 
L 561.197812 294.590247 
L 561.197812 22.318125 
L 48.982813 22.318125 
z
" style="fill: #ffffff"/>
   </g>
   <g id="matplotlib.axis_1">
    <g id="xtick_1">
     <g id="line2d_1">
      <path d="M 48.982813 294.590247 
L 48.982813 22.318125 
" clip-path="url(#p1a8da14661)" style="fill: none; stroke-dasharray: 1.85,0.8; stroke-dashoffset: 0; stroke: #b0b0b0; stroke-width: 0.5"/>
     </g>
     <g id="line2d_2">
      <defs>
       <path id="m1dd5f576de" d="M 0 0 
L 0 3.5 
" style="stroke: #000000; stroke-width: 0.8"/>
      </defs>
      <g>
       <use xlink:href="#m1dd5f576de" x="48.982813" y="294.590247" style="stroke: #000000; stroke-width: 0.8"/>
      </g>
     </g>
     <g id="text_1">
      <!-- 100 -->
      <g transform="translate(34.015351 320.460054) rotate(-45) scale(0.1 -0.1)">
       <defs>
        <path id="DejaVuSans-31" d="M 794 531 
L 1825 531 
L 1825 4091 
L 703 3866 
L 703 4441 
L 1819 4666 
L 2450 4666 
L 2450 531 
L 3481 531 
L 3481 0 
L 794 0 
L 794 531 
z
" transform="scale(0.015625)"/>
        <path id="DejaVuSans-30" d="M 2034 4250 
Q 1547 4250 1301 3770 
Q 1056 3291 1056 2328 
Q 1056 1369 1301 889 
Q 1547 409 2034 409 
Q 2525 409 2770 889 
Q 3016 1369 3016 2328 
Q 3016 3291 2770 3770 
Q 2525 4250 2034 4250 
z
M 2034 4750 
Q 2819 4750 3233 4129 
Q 3647 3509 3647 2328 
Q 3647 1150 3233 529 
Q 2819 -91 2034 -91 
Q 1250 -91 836 529 
Q 422 1150 422 2328 
Q 422 3509 836 4129 
Q 1250 4750 2034 4750 
z
" transform="scale(0.015625)"/>
       </defs>
       <use xlink:href="#DejaVuSans-31"/>
       <use xlink:href="#DejaVuSans-30" transform="translate(63.623047 0)"/>
       <use xlink:href="#DejaVuSans-30" transform="translate(127.246094 0)"/>
      </g>
     </g>
    </g>
    <g id="xtick_2">
     <g id="line2d_3">
      <path d="M 305.090312 294.590247 
L 305.090312 22.318125 
" clip-path="url(#p1a8da14661)" style="fill: none; stroke-dasharray: 1.85,0.8; stroke-dashoffset: 0; stroke: #b0b0b0; stroke-width: 0.5"/>
     </g>
     <g id="line2d_4">
      <g>
       <use xlink:href="#m1dd5f576de" x="305.090312" y="294.590247" style="stroke: #000000; stroke-width: 0.8"/>
      </g>
     </g>
     <g id="text_2">
      <!-- 1000 -->
      <g transform="translate(285.623884 324.959021) rotate(-45) scale(0.1 -0.1)">
       <use xlink:href="#DejaVuSans-31"/>
       <use xlink:href="#DejaVuSans-30" transform="translate(63.623047 0)"/>
       <use xlink:href="#DejaVuSans-30" transform="translate(127.246094 0)"/>
       <use xlink:href="#DejaVuSans-30" transform="translate(190.869141 0)"/>
      </g>
     </g>
    </g>
    <g id="xtick_3">
     <g id="line2d_5">
      <path d="M 561.197812 294.590247 
L 561.197812 22.318125 
" clip-path="url(#p1a8da14661)" style="fill: none; stroke-dasharray: 1.85,0.8; stroke-dashoffset: 0; stroke: #b0b0b0; stroke-width: 0.5"/>
     </g>
     <g id="line2d_6">
      <g>
       <use xlink:href="#m1dd5f576de" x="561.197812" y="294.590247" style="stroke: #000000; stroke-width: 0.8"/>
      </g>
     </g>
     <g id="text_3">
      <!-- 10000 -->
      <g transform="translate(537.232417 329.457988) rotate(-45) scale(0.1 -0.1)">
       <use xlink:href="#DejaVuSans-31"/>
       <use xlink:href="#DejaVuSans-30" transform="translate(63.623047 0)"/>
       <use xlink:href="#DejaVuSans-30" transform="translate(127.246094 0)"/>
       <use xlink:href="#DejaVuSans-30" transform="translate(190.869141 0)"/>
       <use xlink:href="#DejaVuSans-30" transform="translate(254.492188 0)"/>
      </g>
     </g>
    </g>
    <g id="xtick_4">
     <g id="line2d_7">
      <path d="M 126.078852 294.590247 
L 126.078852 22.318125 
" clip-path="url(#p1a8da14661)" style="fill: none; stroke-dasharray: 1.85,0.8; stroke-dashoffset: 0; stroke: #b0b0b0; stroke-width: 0.5"/>
     </g>
     <g id="line2d_8">
      <defs>
       <path id="m51d29213f5" d="M 0 0 
L 0 2 
" style="stroke: #000000; stroke-width: 0.6"/>
      </defs>
      <g>
       <use xlink:href="#m51d29213f5" x="126.078852" y="294.590247" style="stroke: #000000; stroke-width: 0.6"/>
      </g>
     </g>
    </g>
    <g id="xtick_5">
     <g id="line2d_9">
      <path d="M 171.177144 294.590247 
L 171.177144 22.318125 
" clip-path="url(#p1a8da14661)" style="fill: none; stroke-dasharray: 1.85,0.8; stroke-dashoffset: 0; stroke: #b0b0b0; stroke-width: 0.5"/>
     </g>
     <g id="line2d_10">
      <g>
       <use xlink:href="#m51d29213f5" x="171.177144" y="294.590247" style="stroke: #000000; stroke-width: 0.6"/>
      </g>
     </g>
    </g>
    <g id="xtick_6">
     <g id="line2d_11">
      <path d="M 203.174892 294.590247 
L 203.174892 22.318125 
" clip-path="url(#p1a8da14661)" style="fill: none; stroke-dasharray: 1.85,0.8; stroke-dashoffset: 0; stroke: #b0b0b0; stroke-width: 0.5"/>
     </g>
     <g id="line2d_12">
      <g>
       <use xlink:href="#m51d29213f5" x="203.174892" y="294.590247" style="stroke: #000000; stroke-width: 0.6"/>
      </g>
     </g>
    </g>
    <g id="xtick_7">
     <g id="line2d_13">
      <path d="M 227.994273 294.590247 
L 227.994273 22.318125 
" clip-path="url(#p1a8da14661)" style="fill: none; stroke-dasharray: 1.85,0.8; stroke-dashoffset: 0; stroke: #b0b0b0; stroke-width: 0.5"/>
     </g>
     <g id="line2d_14">
      <g>
       <use xlink:href="#m51d29213f5" x="227.994273" y="294.590247" style="stroke: #000000; stroke-width: 0.6"/>
      </g>
     </g>
    </g>
    <g id="xtick_8">
     <g id="line2d_15">
      <path d="M 248.273184 294.590247 
L 248.273184 22.318125 
" clip-path="url(#p1a8da14661)" style="fill: none; stroke-dasharray: 1.85,0.8; stroke-dashoffset: 0; stroke: #b0b0b0; stroke-width: 0.5"/>
     </g>
     <g id="line2d_16">
      <g>
       <use xlink:href="#m51d29213f5" x="248.273184" y="294.590247" style="stroke: #000000; stroke-width: 0.6"/>
      </g>
     </g>
    </g>
    <g id="xtick_9">
     <g id="line2d_17">
      <path d="M 265.418759 294.590247 
L 265.418759 22.318125 
" clip-path="url(#p1a8da14661)" style="fill: none; stroke-dasharray: 1.85,0.8; stroke-dashoffset: 0; stroke: #b0b0b0; stroke-width: 0.5"/>
     </g>
     <g id="line2d_18">
      <g>
       <use xlink:href="#m51d29213f5" x="265.418759" y="294.590247" style="stroke: #000000; stroke-width: 0.6"/>
      </g>
     </g>
    </g>
    <g id="xtick_10">
     <g id="line2d_19">
      <path d="M 280.270931 294.590247 
L 280.270931 22.318125 
" clip-path="url(#p1a8da14661)" style="fill: none; stroke-dasharray: 1.85,0.8; stroke-dashoffset: 0; stroke: #b0b0b0; stroke-width: 0.5"/>
     </g>
     <g id="line2d_20">
      <g>
       <use xlink:href="#m51d29213f5" x="280.270931" y="294.590247" style="stroke: #000000; stroke-width: 0.6"/>
      </g>
     </g>
    </g>
    <g id="xtick_11">
     <g id="line2d_21">
      <path d="M 293.371476 294.590247 
L 293.371476 22.318125 
" clip-path="url(#p1a8da14661)" style="fill: none; stroke-dasharray: 1.85,0.8; stroke-dashoffset: 0; stroke: #b0b0b0; stroke-width: 0.5"/>
     </g>
     <g id="line2d_22">
      <g>
       <use xlink:href="#m51d29213f5" x="293.371476" y="294.590247" style="stroke: #000000; stroke-width: 0.6"/>
      </g>
     </g>
    </g>
    <g id="xtick_12">
     <g id="line2d_23">
      <path d="M 382.186352 294.590247 
L 382.186352 22.318125 
" clip-path="url(#p1a8da14661)" style="fill: none; stroke-dasharray: 1.85,0.8; stroke-dashoffset: 0; stroke: #b0b0b0; stroke-width: 0.5"/>
     </g>
     <g id="line2d_24">
      <g>
       <use xlink:href="#m51d29213f5" x="382.186352" y="294.590247" style="stroke: #000000; stroke-width: 0.6"/>
      </g>
     </g>
    </g>
    <g id="xtick_13">
     <g id="line2d_25">
      <path d="M 427.284644 294.590247 
L 427.284644 22.318125 
" clip-path="url(#p1a8da14661)" style="fill: none; stroke-dasharray: 1.85,0.8; stroke-dashoffset: 0; stroke: #b0b0b0; stroke-width: 0.5"/>
     </g>
     <g id="line2d_26">
      <g>
       <use xlink:href="#m51d29213f5" x="427.284644" y="294.590247" style="stroke: #000000; stroke-width: 0.6"/>
      </g>
     </g>
    </g>
    <g id="xtick_14">
     <g id="line2d_27">
      <path d="M 459.282392 294.590247 
L 459.282392 22.318125 
" clip-path="url(#p1a8da14661)" style="fill: none; stroke-dasharray: 1.85,0.8; stroke-dashoffset: 0; stroke: #b0b0b0; stroke-width: 0.5"/>
     </g>
     <g id="line2d_28">
      <g>
       <use xlink:href="#m51d29213f5" x="459.282392" y="294.590247" style="stroke: #000000; stroke-width: 0.6"/>
      </g>
     </g>
    </g>
    <g id="xtick_15">
     <g id="line2d_29">
      <path d="M 484.101773 294.590247 
L 484.101773 22.318125 
" clip-path="url(#p1a8da14661)" style="fill: none; stroke-dasharray: 1.85,0.8; stroke-dashoffset: 0; stroke: #b0b0b0; stroke-width: 0.5"/>
     </g>
     <g id="line2d_30">
      <g>
       <use xlink:href="#m51d29213f5" x="484.101773" y="294.590247" style="stroke: #000000; stroke-width: 0.6"/>
      </g>
     </g>
    </g>
    <g id="xtick_16">
     <g id="line2d_31">
      <path d="M 504.380684 294.590247 
L 504.380684 22.318125 
" clip-path="url(#p1a8da14661)" style="fill: none; stroke-dasharray: 1.85,0.8; stroke-dashoffset: 0; stroke: #b0b0b0; stroke-width: 0.5"/>
     </g>
     <g id="line2d_32">
      <g>
       <use xlink:href="#m51d29213f5" x="504.380684" y="294.590247" style="stroke: #000000; stroke-width: 0.6"/>
      </g>
     </g>
    </g>
    <g id="xtick_17">
     <g id="line2d_33">
      <path d="M 521.526259 294.590247 
L 521.526259 22.318125 
" clip-path="url(#p1a8da14661)" style="fill: none; stroke-dasharray: 1.85,0.8; stroke-dashoffset: 0; stroke: #b0b0b0; stroke-width: 0.5"/>
     </g>
     <g id="line2d_34">
      <g>
       <use xlink:href="#m51d29213f5" x="521.526259" y="294.590247" style="stroke: #000000; stroke-width: 0.6"/>
      </g>
     </g>
    </g>
    <g id="xtick_18">
     <g id="line2d_35">
      <path d="M 536.378431 294.590247 
L 536.378431 22.318125 
" clip-path="url(#p1a8da14661)" style="fill: none; stroke-dasharray: 1.85,0.8; stroke-dashoffset: 0; stroke: #b0b0b0; stroke-width: 0.5"/>
     </g>
     <g id="line2d_36">
      <g>
       <use xlink:href="#m51d29213f5" x="536.378431" y="294.590247" style="stroke: #000000; stroke-width: 0.6"/>
      </g>
     </g>
    </g>
    <g id="xtick_19">
     <g id="line2d_37">
      <path d="M 549.478976 294.590247 
L 549.478976 22.318125 
" clip-path="url(#p1a8da14661)" style="fill: none; stroke-dasharray: 1.85,0.8; stroke-dashoffset: 0; stroke: #b0b0b0; stroke-width: 0.5"/>
     </g>
     <g id="line2d_38">
      <g>
       <use xlink:href="#m51d29213f5" x="549.478976" y="294.590247" style="stroke: #000000; stroke-width: 0.6"/>
      </g>
     </g>
    </g>
    <g id="text_4">
     <!-- Frequency (Hz) -->
     <g transform="translate(267.385625 342.526987) scale(0.1 -0.1)">
      <defs>
       <path id="DejaVuSans-46" d="M 628 4666 
L 3309 4666 
L 3309 4134 
L 1259 4134 
L 1259 2759 
L 3109 2759 
L 3109 2228 
L 1259 2228 
L 1259 0 
L 628 0 
L 628 4666 
z
" transform="scale(0.015625)"/>
       <path id="DejaVuSans-72" d="M 2631 2963 
Q 2534 3019 2420 3045 
Q 2306 3072 2169 3072 
Q 1681 3072 1420 2755 
Q 1159 2438 1159 1844 
L 1159 0 
L 581 0 
L 581 3500 
L 1159 3500 
L 1159 2956 
Q 1341 3275 1631 3429 
Q 1922 3584 2338 3584 
Q 2397 3584 2469 3576 
Q 2541 3569 2628 3553 
L 2631 2963 
z
" transform="scale(0.015625)"/>
       <path id="DejaVuSans-65" d="M 3597 1894 
L 3597 1613 
L 953 1613 
Q 991 1019 1311 708 
Q 1631 397 2203 397 
Q 2534 397 2845 478 
Q 3156 559 3463 722 
L 3463 178 
Q 3153 47 2828 -22 
Q 2503 -91 2169 -91 
Q 1331 -91 842 396 
Q 353 884 353 1716 
Q 353 2575 817 3079 
Q 1281 3584 2069 3584 
Q 2775 3584 3186 3129 
Q 3597 2675 3597 1894 
z
M 3022 2063 
Q 3016 2534 2758 2815 
Q 2500 3097 2075 3097 
Q 1594 3097 1305 2825 
Q 1016 2553 972 2059 
L 3022 2063 
z
" transform="scale(0.015625)"/>
       <path id="DejaVuSans-71" d="M 947 1747 
Q 947 1113 1208 752 
Q 1469 391 1925 391 
Q 2381 391 2643 752 
Q 2906 1113 2906 1747 
Q 2906 2381 2643 2742 
Q 2381 3103 1925 3103 
Q 1469 3103 1208 2742 
Q 947 2381 947 1747 
z
M 2906 525 
Q 2725 213 2448 61 
Q 2172 -91 1784 -91 
Q 1150 -91 751 415 
Q 353 922 353 1747 
Q 353 2572 751 3078 
Q 1150 3584 1784 3584 
Q 2172 3584 2448 3432 
Q 2725 3281 2906 2969 
L 2906 3500 
L 3481 3500 
L 3481 -1331 
L 2906 -1331 
L 2906 525 
z
" transform="scale(0.015625)"/>
       <path id="DejaVuSans-75" d="M 544 1381 
L 544 3500 
L 1119 3500 
L 1119 1403 
Q 1119 906 1312 657 
Q 1506 409 1894 409 
Q 2359 409 2629 706 
Q 2900 1003 2900 1516 
L 2900 3500 
L 3475 3500 
L 3475 0 
L 2900 0 
L 2900 538 
Q 2691 219 2414 64 
Q 2138 -91 1772 -91 
Q 1169 -91 856 284 
Q 544 659 544 1381 
z
M 1991 3584 
L 1991 3584 
z
" transform="scale(0.015625)"/>
       <path id="DejaVuSans-6e" d="M 3513 2113 
L 3513 0 
L 2938 0 
L 2938 2094 
Q 2938 2591 2744 2837 
Q 2550 3084 2163 3084 
Q 1697 3084 1428 2787 
Q 1159 2491 1159 1978 
L 1159 0 
L 581 0 
L 581 3500 
L 1159 3500 
L 1159 2956 
Q 1366 3272 1645 3428 
Q 1925 3584 2291 3584 
Q 2894 3584 3203 3211 
Q 3513 2838 3513 2113 
z
" transform="scale(0.015625)"/>
       <path id="DejaVuSans-63" d="M 3122 3366 
L 3122 2828 
Q 2878 2963 2633 3030 
Q 2388 3097 2138 3097 
Q 1578 3097 1268 2742 
Q 959 2388 959 1747 
Q 959 1106 1268 751 
Q 1578 397 2138 397 
Q 2388 397 2633 464 
Q 2878 531 3122 666 
L 3122 134 
Q 2881 22 2623 -34 
Q 2366 -91 2075 -91 
Q 1284 -91 818 406 
Q 353 903 353 1747 
Q 353 2603 823 3093 
Q 1294 3584 2113 3584 
Q 2378 3584 2631 3529 
Q 2884 3475 3122 3366 
z
" transform="scale(0.015625)"/>
       <path id="DejaVuSans-79" d="M 2059 -325 
Q 1816 -950 1584 -1140 
Q 1353 -1331 966 -1331 
L 506 -1331 
L 506 -850 
L 844 -850 
Q 1081 -850 1212 -737 
Q 1344 -625 1503 -206 
L 1606 56 
L 191 3500 
L 800 3500 
L 1894 763 
L 2988 3500 
L 3597 3500 
L 2059 -325 
z
" transform="scale(0.015625)"/>
       <path id="DejaVuSans-20" transform="scale(0.015625)"/>
       <path id="DejaVuSans-28" d="M 1984 4856 
Q 1566 4138 1362 3434 
Q 1159 2731 1159 2009 
Q 1159 1288 1364 580 
Q 1569 -128 1984 -844 
L 1484 -844 
Q 1016 -109 783 600 
Q 550 1309 550 2009 
Q 550 2706 781 3412 
Q 1013 4119 1484 4856 
L 1984 4856 
z
" transform="scale(0.015625)"/>
       <path id="DejaVuSans-48" d="M 628 4666 
L 1259 4666 
L 1259 2753 
L 3553 2753 
L 3553 4666 
L 4184 4666 
L 4184 0 
L 3553 0 
L 3553 2222 
L 1259 2222 
L 1259 0 
L 628 0 
L 628 4666 
z
" transform="scale(0.015625)"/>
       <path id="DejaVuSans-7a" d="M 353 3500 
L 3084 3500 
L 3084 2975 
L 922 459 
L 3084 459 
L 3084 0 
L 275 0 
L 275 525 
L 2438 3041 
L 353 3041 
L 353 3500 
z
" transform="scale(0.015625)"/>
       <path id="DejaVuSans-29" d="M 513 4856 
L 1013 4856 
Q 1481 4119 1714 3412 
Q 1947 2706 1947 2009 
Q 1947 1309 1714 600 
Q 1481 -109 1013 -844 
L 513 -844 
Q 928 -128 1133 580 
Q 1338 1288 1338 2009 
Q 1338 2731 1133 3434 
Q 928 4138 513 4856 
z
" transform="scale(0.015625)"/>
      </defs>
      <use xlink:href="#DejaVuSans-46"/>
      <use xlink:href="#DejaVuSans-72" transform="translate(50.269531 0)"/>
      <use xlink:href="#DejaVuSans-65" transform="translate(89.132812 0)"/>
      <use xlink:href="#DejaVuSans-71" transform="translate(150.65625 0)"/>
      <use xlink:href="#DejaVuSans-75" transform="translate(214.132812 0)"/>
      <use xlink:href="#DejaVuSans-65" transform="translate(277.511719 0)"/>
      <use xlink:href="#DejaVuSans-6e" transform="translate(339.035156 0)"/>
      <use xlink:href="#DejaVuSans-63" transform="translate(402.414062 0)"/>
      <use xlink:href="#DejaVuSans-79" transform="translate(457.394531 0)"/>
      <use xlink:href="#DejaVuSans-20" transform="translate(516.574219 0)"/>
      <use xlink:href="#DejaVuSans-28" transform="translate(548.361328 0)"/>
      <use xlink:href="#DejaVuSans-48" transform="translate(587.375 0)"/>
      <use xlink:href="#DejaVuSans-7a" transform="translate(662.570312 0)"/>
      <use xlink:href="#DejaVuSans-29" transform="translate(715.060547 0)"/>
     </g>
    </g>
   </g>
   <g id="matplotlib.axis_2">
    <g id="ytick_1">
     <g id="line2d_39">
      <path d="M 48.982813 294.590247 
L 561.197812 294.590247 
" clip-path="url(#p1a8da14661)" style="fill: none; stroke-dasharray: 1.85,0.8; stroke-dashoffset: 0; stroke: #b0b0b0; stroke-width: 0.5"/>
     </g>
     <g id="line2d_40">
      <defs>
       <path id="m8f11bbad91" d="M 0 0 
L -3.5 0 
" style="stroke: #000000; stroke-width: 0.8"/>
      </defs>
      <g>
       <use xlink:href="#m8f11bbad91" x="48.982813" y="294.590247" style="stroke: #000000; stroke-width: 0.8"/>
      </g>
     </g>
     <g id="text_5">
      <!-- −20 -->
      <g transform="translate(20.878125 298.389466) scale(0.1 -0.1)">
       <defs>
        <path id="DejaVuSans-2212" d="M 678 2272 
L 4684 2272 
L 4684 1741 
L 678 1741 
L 678 2272 
z
" transform="scale(0.015625)"/>
        <path id="DejaVuSans-32" d="M 1228 531 
L 3431 531 
L 3431 0 
L 469 0 
L 469 531 
Q 828 903 1448 1529 
Q 2069 2156 2228 2338 
Q 2531 2678 2651 2914 
Q 2772 3150 2772 3378 
Q 2772 3750 2511 3984 
Q 2250 4219 1831 4219 
Q 1534 4219 1204 4116 
Q 875 4013 500 3803 
L 500 4441 
Q 881 4594 1212 4672 
Q 1544 4750 1819 4750 
Q 2544 4750 2975 4387 
Q 3406 4025 3406 3419 
Q 3406 3131 3298 2873 
Q 3191 2616 2906 2266 
Q 2828 2175 2409 1742 
Q 1991 1309 1228 531 
z
" transform="scale(0.015625)"/>
       </defs>
       <use xlink:href="#DejaVuSans-2212"/>
       <use xlink:href="#DejaVuSans-32" transform="translate(83.789062 0)"/>
       <use xlink:href="#DejaVuSans-30" transform="translate(147.412109 0)"/>
      </g>
     </g>
    </g>
    <g id="ytick_2">
     <g id="line2d_41">
      <path d="M 48.982813 255.694229 
L 561.197812 255.694229 
" clip-path="url(#p1a8da14661)" style="fill: none; stroke-dasharray: 1.85,0.8; stroke-dashoffset: 0; stroke: #b0b0b0; stroke-width: 0.5"/>
     </g>
     <g id="line2d_42">
      <g>
       <use xlink:href="#m8f11bbad91" x="48.982813" y="255.694229" style="stroke: #000000; stroke-width: 0.8"/>
      </g>
     </g>
     <g id="text_6">
      <!-- −10 -->
      <g transform="translate(20.878125 259.493448) scale(0.1 -0.1)">
       <use xlink:href="#DejaVuSans-2212"/>
       <use xlink:href="#DejaVuSans-31" transform="translate(83.789062 0)"/>
       <use xlink:href="#DejaVuSans-30" transform="translate(147.412109 0)"/>
      </g>
     </g>
    </g>
    <g id="ytick_3">
     <g id="line2d_43">
      <path d="M 48.982813 216.798212 
L 561.197812 216.798212 
" clip-path="url(#p1a8da14661)" style="fill: none; stroke-dasharray: 1.85,0.8; stroke-dashoffset: 0; stroke: #b0b0b0; stroke-width: 0.5"/>
     </g>
     <g id="line2d_44">
      <g>
       <use xlink:href="#m8f11bbad91" x="48.982813" y="216.798212" style="stroke: #000000; stroke-width: 0.8"/>
      </g>
     </g>
     <g id="text_7">
      <!-- 0 -->
      <g transform="translate(35.620313 220.597431) scale(0.1 -0.1)">
       <use xlink:href="#DejaVuSans-30"/>
      </g>
     </g>
    </g>
    <g id="ytick_4">
     <g id="line2d_45">
      <path d="M 48.982813 177.902195 
L 561.197812 177.902195 
" clip-path="url(#p1a8da14661)" style="fill: none; stroke-dasharray: 1.85,0.8; stroke-dashoffset: 0; stroke: #b0b0b0; stroke-width: 0.5"/>
     </g>
     <g id="line2d_46">
      <g>
       <use xlink:href="#m8f11bbad91" x="48.982813" y="177.902195" style="stroke: #000000; stroke-width: 0.8"/>
      </g>
     </g>
     <g id="text_8">
      <!-- 10 -->
      <g transform="translate(29.257813 181.701413) scale(0.1 -0.1)">
       <use xlink:href="#DejaVuSans-31"/>
       <use xlink:href="#DejaVuSans-30" transform="translate(63.623047 0)"/>
      </g>
     </g>
    </g>
    <g id="ytick_5">
     <g id="line2d_47">
      <path d="M 48.982813 139.006177 
L 561.197812 139.006177 
" clip-path="url(#p1a8da14661)" style="fill: none; stroke-dasharray: 1.85,0.8; stroke-dashoffset: 0; stroke: #b0b0b0; stroke-width: 0.5"/>
     </g>
     <g id="line2d_48">
      <g>
       <use xlink:href="#m8f11bbad91" x="48.982813" y="139.006177" style="stroke: #000000; stroke-width: 0.8"/>
      </g>
     </g>
     <g id="text_9">
      <!-- 20 -->
      <g transform="translate(29.257813 142.805396) scale(0.1 -0.1)">
       <use xlink:href="#DejaVuSans-32"/>
       <use xlink:href="#DejaVuSans-30" transform="translate(63.623047 0)"/>
      </g>
     </g>
    </g>
    <g id="ytick_6">
     <g id="line2d_49">
      <path d="M 48.982813 100.11016 
L 561.197812 100.11016 
" clip-path="url(#p1a8da14661)" style="fill: none; stroke-dasharray: 1.85,0.8; stroke-dashoffset: 0; stroke: #b0b0b0; stroke-width: 0.5"/>
     </g>
     <g id="line2d_50">
      <g>
       <use xlink:href="#m8f11bbad91" x="48.982813" y="100.11016" style="stroke: #000000; stroke-width: 0.8"/>
      </g>
     </g>
     <g id="text_10">
      <!-- 30 -->
      <g transform="translate(29.257813 103.909379) scale(0.1 -0.1)">
       <defs>
        <path id="DejaVuSans-33" d="M 2597 2516 
Q 3050 2419 3304 2112 
Q 3559 1806 3559 1356 
Q 3559 666 3084 287 
Q 2609 -91 1734 -91 
Q 1441 -91 1130 -33 
Q 819 25 488 141 
L 488 750 
Q 750 597 1062 519 
Q 1375 441 1716 441 
Q 2309 441 2620 675 
Q 2931 909 2931 1356 
Q 2931 1769 2642 2001 
Q 2353 2234 1838 2234 
L 1294 2234 
L 1294 2753 
L 1863 2753 
Q 2328 2753 2575 2939 
Q 2822 3125 2822 3475 
Q 2822 3834 2567 4026 
Q 2313 4219 1838 4219 
Q 1578 4219 1281 4162 
Q 984 4106 628 3988 
L 628 4550 
Q 988 4650 1302 4700 
Q 1616 4750 1894 4750 
Q 2613 4750 3031 4423 
Q 3450 4097 3450 3541 
Q 3450 3153 3228 2886 
Q 3006 2619 2597 2516 
z
" transform="scale(0.015625)"/>
       </defs>
       <use xlink:href="#DejaVuSans-33"/>
       <use xlink:href="#DejaVuSans-30" transform="translate(63.623047 0)"/>
      </g>
     </g>
    </g>
    <g id="ytick_7">
     <g id="line2d_51">
      <path d="M 48.982813 61.214142 
L 561.197812 61.214142 
" clip-path="url(#p1a8da14661)" style="fill: none; stroke-dasharray: 1.85,0.8; stroke-dashoffset: 0; stroke: #b0b0b0; stroke-width: 0.5"/>
     </g>
     <g id="line2d_52">
      <g>
       <use xlink:href="#m8f11bbad91" x="48.982813" y="61.214142" style="stroke: #000000; stroke-width: 0.8"/>
      </g>
     </g>
     <g id="text_11">
      <!-- 40 -->
      <g transform="translate(29.257813 65.013361) scale(0.1 -0.1)">
       <defs>
        <path id="DejaVuSans-34" d="M 2419 4116 
L 825 1625 
L 2419 1625 
L 2419 4116 
z
M 2253 4666 
L 3047 4666 
L 3047 1625 
L 3713 1625 
L 3713 1100 
L 3047 1100 
L 3047 0 
L 2419 0 
L 2419 1100 
L 313 1100 
L 313 1709 
L 2253 4666 
z
" transform="scale(0.015625)"/>
       </defs>
       <use xlink:href="#DejaVuSans-34"/>
       <use xlink:href="#DejaVuSans-30" transform="translate(63.623047 0)"/>
      </g>
     </g>
    </g>
    <g id="ytick_8">
     <g id="line2d_53">
      <path d="M 48.982813 22.318125 
L 561.197812 22.318125 
" clip-path="url(#p1a8da14661)" style="fill: none; stroke-dasharray: 1.85,0.8; stroke-dashoffset: 0; stroke: #b0b0b0; stroke-width: 0.5"/>
     </g>
     <g id="line2d_54">
      <g>
       <use xlink:href="#m8f11bbad91" x="48.982813" y="22.318125" style="stroke: #000000; stroke-width: 0.8"/>
      </g>
     </g>
     <g id="text_12">
      <!-- 50 -->
      <g transform="translate(29.257813 26.117344) scale(0.1 -0.1)">
       <defs>
        <path id="DejaVuSans-35" d="M 691 4666 
L 3169 4666 
L 3169 4134 
L 1269 4134 
L 1269 2991 
Q 1406 3038 1543 3061 
Q 1681 3084 1819 3084 
Q 2600 3084 3056 2656 
Q 3513 2228 3513 1497 
Q 3513 744 3044 326 
Q 2575 -91 1722 -91 
Q 1428 -91 1123 -41 
Q 819 9 494 109 
L 494 744 
Q 775 591 1075 516 
Q 1375 441 1709 441 
Q 2250 441 2565 725 
Q 2881 1009 2881 1497 
Q 2881 1984 2565 2268 
Q 2250 2553 1709 2553 
Q 1456 2553 1204 2497 
Q 953 2441 691 2322 
L 691 4666 
z
" transform="scale(0.015625)"/>
       </defs>
       <use xlink:href="#DejaVuSans-35"/>
       <use xlink:href="#DejaVuSans-30" transform="translate(63.623047 0)"/>
      </g>
     </g>
    </g>
    <g id="text_13">
     <!-- SPL (dBA) -->
     <g transform="translate(14.798438 182.944811) rotate(-90) scale(0.1 -0.1)">
      <defs>
       <path id="DejaVuSans-53" d="M 3425 4513 
L 3425 3897 
Q 3066 4069 2747 4153 
Q 2428 4238 2131 4238 
Q 1616 4238 1336 4038 
Q 1056 3838 1056 3469 
Q 1056 3159 1242 3001 
Q 1428 2844 1947 2747 
L 2328 2669 
Q 3034 2534 3370 2195 
Q 3706 1856 3706 1288 
Q 3706 609 3251 259 
Q 2797 -91 1919 -91 
Q 1588 -91 1214 -16 
Q 841 59 441 206 
L 441 856 
Q 825 641 1194 531 
Q 1563 422 1919 422 
Q 2459 422 2753 634 
Q 3047 847 3047 1241 
Q 3047 1584 2836 1778 
Q 2625 1972 2144 2069 
L 1759 2144 
Q 1053 2284 737 2584 
Q 422 2884 422 3419 
Q 422 4038 858 4394 
Q 1294 4750 2059 4750 
Q 2388 4750 2728 4690 
Q 3069 4631 3425 4513 
z
" transform="scale(0.015625)"/>
       <path id="DejaVuSans-50" d="M 1259 4147 
L 1259 2394 
L 2053 2394 
Q 2494 2394 2734 2622 
Q 2975 2850 2975 3272 
Q 2975 3691 2734 3919 
Q 2494 4147 2053 4147 
L 1259 4147 
z
M 628 4666 
L 2053 4666 
Q 2838 4666 3239 4311 
Q 3641 3956 3641 3272 
Q 3641 2581 3239 2228 
Q 2838 1875 2053 1875 
L 1259 1875 
L 1259 0 
L 628 0 
L 628 4666 
z
" transform="scale(0.015625)"/>
       <path id="DejaVuSans-4c" d="M 628 4666 
L 1259 4666 
L 1259 531 
L 3531 531 
L 3531 0 
L 628 0 
L 628 4666 
z
" transform="scale(0.015625)"/>
       <path id="DejaVuSans-64" d="M 2906 2969 
L 2906 4863 
L 3481 4863 
L 3481 0 
L 2906 0 
L 2906 525 
Q 2725 213 2448 61 
Q 2172 -91 1784 -91 
Q 1150 -91 751 415 
Q 353 922 353 1747 
Q 353 2572 751 3078 
Q 1150 3584 1784 3584 
Q 2172 3584 2448 3432 
Q 2725 3281 2906 2969 
z
M 947 1747 
Q 947 1113 1208 752 
Q 1469 391 1925 391 
Q 2381 391 2643 752 
Q 2906 1113 2906 1747 
Q 2906 2381 2643 2742 
Q 2381 3103 1925 3103 
Q 1469 3103 1208 2742 
Q 947 2381 947 1747 
z
" transform="scale(0.015625)"/>
       <path id="DejaVuSans-42" d="M 1259 2228 
L 1259 519 
L 2272 519 
Q 2781 519 3026 730 
Q 3272 941 3272 1375 
Q 3272 1813 3026 2020 
Q 2781 2228 2272 2228 
L 1259 2228 
z
M 1259 4147 
L 1259 2741 
L 2194 2741 
Q 2656 2741 2882 2914 
Q 3109 3088 3109 3444 
Q 3109 3797 2882 3972 
Q 2656 4147 2194 4147 
L 1259 4147 
z
M 628 4666 
L 2241 4666 
Q 2963 4666 3353 4366 
Q 3744 4066 3744 3513 
Q 3744 3084 3544 2831 
Q 3344 2578 2956 2516 
Q 3422 2416 3680 2098 
Q 3938 1781 3938 1306 
Q 3938 681 3513 340 
Q 3088 0 2303 0 
L 628 0 
L 628 4666 
z
" transform="scale(0.015625)"/>
       <path id="DejaVuSans-41" d="M 2188 4044 
L 1331 1722 
L 3047 1722 
L 2188 4044 
z
M 1831 4666 
L 2547 4666 
L 4325 0 
L 3669 0 
L 3244 1197 
L 1141 1197 
L 716 0 
L 50 0 
L 1831 4666 
z
" transform="scale(0.015625)"/>
      </defs>
      <use xlink:href="#DejaVuSans-53"/>
      <use xlink:href="#DejaVuSans-50" transform="translate(63.476562 0)"/>
      <use xlink:href="#DejaVuSans-4c" transform="translate(123.779297 0)"/>
      <use xlink:href="#DejaVuSans-20" transform="translate(179.492188 0)"/>
      <use xlink:href="#DejaVuSans-28" transform="translate(211.279297 0)"/>
      <use xlink:href="#DejaVuSans-64" transform="translate(250.292969 0)"/>
      <use xlink:href="#DejaVuSans-42" transform="translate(313.769531 0)"/>
      <use xlink:href="#DejaVuSans-41" transform="translate(382.373047 0)"/>
      <use xlink:href="#DejaVuSans-29" transform="translate(450.78125 0)"/>
     </g>
    </g>
   </g>
   <g id="line2d_55">
    <path d="M 51.493242 162.580807 
L 57.198394 156.672332 
L 62.625131 149.427872 
L 67.79937 144.08229 
L 72.743565 141.471565 
L 77.477304 140.19611 
L 82.017775 142.77734 
L 86.38014 148.923356 
L 90.577849 145.983264 
L 94.622879 151.191219 
L 98.525949 154.547212 
L 102.296685 157.027288 
L 105.943768 165.418539 
L 109.475052 165.866997 
L 112.897663 164.667029 
L 116.218091 169.66096 
L 119.44226 168.943189 
L 122.575596 169.904564 
L 125.623077 173.256863 
L 128.589281 170.766847 
L 131.478432 168.90289 
L 134.294433 170.501555 
L 137.040895 167.190243 
L 139.721171 157.479364 
L 142.338376 153.320759 
L 144.89541 151.173796 
L 147.394977 146.55626 
L 149.839605 149.064652 
L 152.231656 149.611828 
L 154.573344 129.830708 
L 156.866746 118.667666 
L 159.113814 134.05819 
L 161.316383 155.178659 
L 163.47618 163.141117 
L 165.594836 161.349922 
L 167.673888 157.607823 
L 169.714791 145.131185 
L 171.718919 141.399272 
L 173.687573 147.308947 
L 175.621988 148.421746 
L 177.523335 146.584191 
L 179.392725 151.705143 
L 181.231214 154.061501 
L 183.039808 148.597816 
L 184.819463 147.000088 
L 186.571091 148.020622 
L 188.295561 144.865427 
L 189.993702 146.638995 
L 191.666306 147.657537 
L 194.937897 153.13148 
L 196.5383 151.041326 
L 198.116001 151.975239 
L 199.671636 152.193034 
L 201.205813 155.983192 
L 202.719116 157.520302 
L 204.212106 157.059016 
L 205.685321 156.247641 
L 207.139277 148.087351 
L 208.574472 147.170364 
L 209.991384 144.596389 
L 211.390472 145.981159 
L 212.77218 143.765698 
L 214.136935 146.173997 
L 216.817211 152.564712 
L 218.133511 154.170117 
L 219.434416 154.117779 
L 220.720281 152.64723 
L 221.99145 152.53112 
L 223.248255 154.957231 
L 224.491017 156.162208 
L 226.935645 151.122368 
L 228.1381 146.692171 
L 229.327695 144.902265 
L 230.504702 147.024121 
L 231.669383 150.683004 
L 232.821996 151.493207 
L 233.962786 148.898862 
L 235.091994 147.201272 
L 236.209854 141.519255 
L 237.31659 138.1342 
L 238.412422 138.337066 
L 239.497563 137.285673 
L 240.572219 135.710919 
L 241.636592 135.631234 
L 242.690875 138.328302 
L 243.735259 139.351543 
L 244.769928 139.001516 
L 246.810831 137.331666 
L 247.817408 132.541193 
L 248.814958 136.873344 
L 249.803641 140.25171 
L 250.783613 140.112726 
L 251.755026 137.105055 
L 252.718028 137.559501 
L 253.672764 140.362592 
L 254.619375 145.596018 
L 255.557997 145.521177 
L 257.411808 149.399621 
L 258.327254 154.468176 
L 259.235227 153.79382 
L 260.135848 152.897423 
L 261.029235 152.235184 
L 261.915503 155.799755 
L 262.794765 165.132831 
L 263.667131 169.485616 
L 264.532708 171.329132 
L 265.391601 170.962133 
L 266.243912 175.230247 
L 267.089742 173.937508 
L 267.929188 170.249756 
L 268.762346 174.12313 
L 269.589309 166.240926 
L 270.41017 161.957941 
L 271.225016 160.769654 
L 272.837017 155.302499 
L 273.634339 153.350187 
L 274.425987 150.658357 
L 275.992578 146.59935 
L 276.767675 142.995989 
L 277.537409 144.600176 
L 278.301853 144.335981 
L 279.061078 151.569491 
L 279.815156 154.226398 
L 280.564156 153.553417 
L 281.308146 156.165201 
L 282.047192 156.628891 
L 282.78136 149.606349 
L 283.510714 147.900121 
L 284.235317 146.621422 
L 284.955229 144.58208 
L 285.670512 145.548401 
L 286.381224 146.124859 
L 287.087423 149.292514 
L 287.789168 154.839142 
L 288.486512 161.650116 
L 289.179512 164.669476 
L 289.86822 166.436554 
L 290.55269 166.990821 
L 291.232974 164.234336 
L 291.909123 163.056226 
L 292.581186 166.844362 
L 293.249212 166.434866 
L 293.91325 165.76655 
L 295.229551 170.032307 
L 295.881905 171.556533 
L 296.530455 166.107888 
L 297.175246 162.702336 
L 298.453721 165.657489 
L 299.087489 161.154475 
L 299.717667 162.288877 
L 300.344294 163.999921 
L 300.967411 168.325982 
L 301.587057 168.632301 
L 302.203269 168.529219 
L 302.816087 169.153228 
L 303.425546 169.517226 
L 304.031684 172.422366 
L 305.23414 162.450962 
L 305.830528 163.946793 
L 307.013795 171.101813 
L 307.600741 171.889061 
L 308.184607 172.447053 
L 308.765423 174.748386 
L 309.343222 172.629041 
L 309.918035 173.284966 
L 310.489893 173.446385 
L 311.058825 171.312373 
L 312.188034 169.098252 
L 312.748368 171.373357 
L 313.305893 171.731027 
L 313.860638 171.464708 
L 314.961895 174.342982 
L 315.508462 174.724491 
L 316.052356 175.483183 
L 316.593603 176.611402 
L 317.132229 173.49118 
L 317.668259 173.659859 
L 318.201719 176.227883 
L 318.732632 177.825349 
L 319.261022 178.908413 
L 319.786915 178.564406 
L 320.310333 178.414152 
L 320.831299 181.031887 
L 321.349836 179.8023 
L 321.865968 180.777121 
L 322.379715 180.938958 
L 322.8911 179.845025 
L 323.400145 182.386804 
L 323.90687 180.63378 
L 324.411298 179.658399 
L 324.913448 180.160722 
L 325.413341 178.830144 
L 325.910998 179.492331 
L 326.406438 177.896917 
L 326.899681 177.662026 
L 327.390746 180.327145 
L 327.879652 179.964359 
L 328.851065 185.322046 
L 329.814068 185.829735 
L 330.29246 184.499197 
L 330.768804 185.526727 
L 331.243116 187.499184 
L 331.715414 184.992833 
L 332.185716 186.307942 
L 332.654037 186.142243 
L 333.120394 185.103893 
L 334.047283 187.684154 
L 334.507847 188.011556 
L 334.966512 190.764728 
L 335.423294 192.273837 
L 335.878206 193.055411 
L 336.331266 194.9962 
L 336.782489 194.449395 
L 337.231887 192.865439 
L 337.679478 195.348416 
L 338.125274 197.168409 
L 338.569291 197.182524 
L 339.011543 192.652618 
L 339.452042 192.336047 
L 339.890805 191.87128 
L 340.327843 190.973189 
L 340.76317 186.901379 
L 341.196801 185.856711 
L 341.628747 189.84893 
L 342.059023 189.777162 
L 342.48764 188.432983 
L 343.76367 192.152802 
L 344.185781 191.388208 
L 344.606296 189.899792 
L 345.025227 190.001305 
L 345.442586 191.001222 
L 346.272636 196.523418 
L 346.685349 195.538015 
L 347.096536 195.630155 
L 347.506209 193.586198 
L 347.914379 192.693314 
L 348.321056 193.201952 
L 349.129976 186.464916 
L 349.532241 185.540725 
L 349.933056 185.248094 
L 350.332432 188.50986 
L 350.730379 192.72266 
L 351.126907 193.0923 
L 351.915748 187.54886 
L 352.30808 181.645214 
L 352.699034 179.010795 
L 353.088617 179.660291 
L 353.476841 179.854377 
L 353.863715 183.27783 
L 354.633449 192.738441 
L 355.397892 196.022034 
L 355.778153 195.626323 
L 356.157118 193.563186 
L 356.534795 193.276999 
L 357.660195 184.209401 
L 358.032812 180.010188 
L 358.404185 180.27445 
L 358.774322 180.343878 
L 359.143232 186.466783 
L 359.510922 189.848378 
L 359.8774 190.642233 
L 360.242675 195.212895 
L 360.606754 197.630679 
L 360.969645 196.436948 
L 361.331356 197.290097 
L 361.691895 194.728506 
L 362.051269 195.630763 
L 362.409485 199.056122 
L 362.766551 198.734638 
L 363.122475 195.208452 
L 363.477263 195.810765 
L 363.830924 198.402945 
L 364.534889 196.572963 
L 364.885207 200.602055 
L 365.234426 200.236839 
L 365.582552 199.505021 
L 365.929591 199.8271 
L 366.275551 199.929465 
L 366.96426 194.317961 
L 367.64873 198.916004 
L 367.989392 197.293612 
L 368.329014 197.224268 
L 368.667602 190.461477 
L 369.005162 190.550112 
L 369.341702 197.330639 
L 369.677225 199.903703 
L 370.01174 198.647005 
L 370.345252 199.729929 
L 370.677766 203.57071 
L 371.00929 205.600486 
L 371.339828 204.29147 
L 371.669387 203.940033 
L 371.997973 205.85289 
L 372.32559 206.254095 
L 372.652246 204.382063 
L 372.977945 204.165385 
L 373.302692 205.231696 
L 373.626495 203.34318 
L 373.949357 202.516096 
L 374.271286 202.572592 
L 374.592285 203.134165 
L 374.91236 202.165442 
L 375.231517 204.028902 
L 375.54976 200.932516 
L 375.867096 199.324221 
L 376.183529 202.444303 
L 376.499064 204.294955 
L 377.440334 197.625865 
L 377.752329 199.492511 
L 378.063451 200.53616 
L 378.683096 197.730888 
L 378.991629 197.320557 
L 379.299309 196.469358 
L 379.60614 194.453476 
L 379.912126 196.661861 
L 380.217273 194.885662 
L 380.521586 194.639834 
L 380.825068 194.846653 
L 381.127724 194.615801 
L 381.429559 195.084047 
L 381.730577 193.795617 
L 382.030782 194.424306 
L 382.33018 191.031553 
L 382.628773 190.35997 
L 382.926567 190.596428 
L 383.223566 189.672945 
L 383.519775 189.734059 
L 383.815196 191.851852 
L 384.109835 192.477904 
L 384.403695 191.999111 
L 384.696781 192.26063 
L 384.989097 192.225721 
L 385.280646 191.279991 
L 385.571434 188.985007 
L 385.861463 189.826466 
L 386.150737 189.318257 
L 386.72704 194.15232 
L 387.014075 192.883667 
L 387.300371 192.902179 
L 387.585932 193.903407 
L 387.870762 195.791896 
L 388.154865 195.992441 
L 388.720902 200.909553 
L 389.002844 201.166368 
L 389.284073 198.90896 
L 389.564593 198.306442 
L 389.844407 197.281723 
L 390.123519 198.575167 
L 390.401933 199.318896 
L 390.679651 199.24814 
L 390.956677 197.749189 
L 391.233016 197.339183 
L 391.783641 197.889956 
L 392.057935 199.257458 
L 392.604501 195.093018 
L 392.876781 194.209211 
L 393.148395 194.906307 
L 393.419348 195.127035 
L 393.959281 191.342787 
L 394.228268 193.048701 
L 394.496606 193.792082 
L 394.764299 194.012884 
L 395.031348 195.099679 
L 395.297758 196.99573 
L 395.563531 197.385731 
L 395.828671 198.300104 
L 396.357062 201.294039 
L 396.882955 199.555611 
L 397.144971 202.788834 
L 397.406372 202.870784 
L 397.927339 208.40212 
L 398.18691 209.030635 
L 398.445876 207.550425 
L 398.704241 207.27245 
L 398.962007 203.78717 
L 399.475754 209.59026 
L 399.98714 207.800266 
L 400.241953 207.959051 
L 400.749836 212.525679 
L 401.00291 207.269991 
L 401.25541 207.203622 
L 401.507337 209.67618 
L 401.758696 207.494104 
L 402.009488 209.532503 
L 402.259715 209.17797 
L 402.509381 210.093449 
L 402.758488 211.787837 
L 403.255033 208.199136 
L 403.502477 210.034259 
L 403.749372 210.721239 
L 403.99572 210.356485 
L 404.241524 211.012706 
L 404.486785 210.891397 
L 404.731507 212.255451 
L 404.975692 214.722996 
L 405.219342 212.623714 
L 405.462459 212.267848 
L 405.705046 212.514233 
L 405.947105 211.336314 
L 406.188638 214.220874 
L 406.429648 215.34431 
L 406.670137 214.785417 
L 406.910107 214.957088 
L 407.149561 217.476865 
L 407.3885 217.944642 
L 407.864843 219.739801 
L 408.102252 221.922031 
L 408.339156 220.5017 
L 408.811454 215.129872 
L 409.046853 216.581362 
L 409.281755 216.019274 
L 409.516162 216.255739 
L 409.750076 216.060056 
L 409.983499 216.429733 
L 410.216434 216.432844 
L 410.448881 218.615654 
L 410.680844 219.34661 
L 410.912324 221.133877 
L 411.373843 220.274658 
L 411.603887 222.536711 
L 411.833456 221.388459 
L 412.062552 221.291111 
L 412.291177 219.370262 
L 412.519333 218.766234 
L 413.201007 212.27974 
L 413.427306 212.653945 
L 413.653146 212.806134 
L 413.878528 210.288206 
L 414.103455 210.299011 
L 414.551947 214.053748 
L 414.775517 215.012328 
L 414.998639 217.46569 
L 415.221314 218.051355 
L 415.443544 215.94136 
L 415.665331 217.009476 
L 415.886676 216.635382 
L 416.107582 217.235714 
L 416.32805 219.086514 
L 416.548082 218.718739 
L 416.76768 219.039971 
L 417.205578 223.826027 
L 417.423882 221.506358 
L 417.641759 221.275599 
L 417.85921 221.764981 
L 418.076237 223.011356 
L 418.292841 222.492506 
L 418.509023 220.546512 
L 418.724787 220.049275 
L 419.155063 217.517077 
L 419.369578 220.471957 
L 419.58368 221.1368 
L 419.797371 219.320971 
L 420.010652 220.464099 
L 420.223525 222.531294 
L 420.85971 219.977831 
L 421.070966 221.314172 
L 421.492277 219.803536 
L 421.702336 221.168676 
L 421.911999 221.47224 
L 422.121267 220.176192 
L 422.330142 219.662808 
L 422.538626 221.573628 
L 422.74672 221.190284 
L 422.954425 219.264478 
L 423.161743 219.426988 
L 423.368675 218.167547 
L 423.575223 219.074646 
L 423.781388 218.882304 
L 423.987172 220.535831 
L 424.397601 220.489306 
L 424.602249 219.841252 
L 424.806521 217.789822 
L 425.010418 217.112211 
L 425.213943 217.020334 
L 425.417095 218.421925 
L 425.822291 219.433585 
L 426.226016 223.77087 
L 426.42733 224.269295 
L 426.628281 222.729922 
L 426.828869 225.565695 
L 427.029096 225.077807 
L 427.228963 225.366133 
L 427.428472 224.69473 
L 427.627623 222.903232 
L 427.826419 224.119001 
L 428.02486 223.841624 
L 428.222947 221.404866 
L 428.420682 222.078403 
L 428.618067 224.606441 
L 428.815101 225.386508 
L 429.011788 224.065328 
L 429.40412 225.170187 
L 429.599768 223.544116 
L 429.990036 225.465565 
L 430.184657 226.310435 
L 430.378938 224.934195 
L 430.572881 222.72099 
L 430.959755 224.246667 
L 431.345287 226.270882 
L 431.537554 223.788982 
L 431.729488 225.370639 
L 431.921092 224.75742 
L 432.112367 221.441071 
L 432.303313 221.946158 
L 432.493932 221.827231 
L 432.684225 223.13476 
L 432.874192 223.381157 
L 433.253157 221.532883 
L 433.630835 221.873176 
L 434.007235 226.092761 
L 434.194958 225.584931 
L 434.569457 226.763718 
L 434.756235 228.259995 
L 434.9427 227.028339 
L 435.128852 224.375911 
L 435.314693 224.048358 
L 435.500225 222.557025 
L 435.685447 222.946985 
L 435.870362 225.875009 
L 436.05497 226.760444 
L 436.239271 226.53044 
L 436.423268 227.230899 
L 436.790351 224.284337 
L 436.973439 224.237201 
L 437.156227 222.268552 
L 437.338714 223.668341 
L 437.520903 223.448593 
L 437.702793 222.519596 
L 438.065685 225.457299 
L 438.246687 225.332251 
L 438.427396 223.311921 
L 438.607811 223.918236 
L 438.787934 227.26055 
L 438.967766 226.690702 
L 439.326561 221.757083 
L 439.505525 222.621893 
L 440.040695 226.536155 
L 440.218515 225.966971 
L 440.39605 224.051941 
L 440.573303 225.019295 
L 440.750274 224.311595 
L 440.926963 226.514556 
L 441.103373 225.381677 
L 441.279503 223.244906 
L 441.455354 223.68231 
L 441.806225 225.563685 
L 441.981247 225.643567 
L 442.155993 225.902234 
L 442.330466 225.221672 
L 442.504665 227.112734 
L 442.678591 227.400104 
L 442.852246 229.019232 
L 443.198745 225.766347 
L 443.371591 225.795978 
L 443.716478 227.699691 
L 443.888522 226.902098 
L 444.060299 225.044823 
L 444.231812 225.670916 
L 444.403061 225.791393 
L 444.574047 224.700808 
L 444.74477 224.620455 
L 445.255372 222.915301 
L 445.594476 226.793017 
L 445.93255 225.051264 
L 446.101202 224.914151 
L 446.269599 223.468764 
L 446.437741 227.21337 
L 446.773265 225.303049 
L 446.940648 226.592231 
L 447.274661 224.149828 
L 447.607673 227.075204 
L 447.773806 227.368847 
L 447.939691 225.039361 
L 448.10533 226.941532 
L 448.270722 227.160182 
L 448.435868 228.287513 
L 448.60077 227.900439 
L 448.765427 229.894325 
L 449.094012 227.047723 
L 449.257942 227.374384 
L 449.42163 224.777308 
L 449.748285 229.169821 
L 449.911254 228.757256 
L 450.236477 228.655017 
L 450.398732 230.899933 
L 450.560751 230.146032 
L 450.722535 230.294871 
L 450.884083 230.112699 
L 451.045397 231.137676 
L 451.206478 230.116678 
L 451.848477 233.665148 
L 452.008399 234.078091 
L 452.168092 232.799297 
L 452.327556 233.267768 
L 452.486792 233.137021 
L 452.6458 235.488783 
L 452.804581 234.70712 
L 452.963135 235.781988 
L 453.121464 235.060924 
L 453.279568 235.925011 
L 453.437448 233.949134 
L 453.595104 234.989232 
L 453.752536 233.036533 
L 453.909746 233.231394 
L 454.066734 234.770389 
L 454.223501 233.286789 
L 454.380047 233.901221 
L 454.536374 233.34056 
L 454.69248 233.35891 
L 454.848368 230.988148 
L 455.15949 232.000359 
L 455.314726 233.177594 
L 455.469745 232.300428 
L 455.779136 233.53056 
L 455.933509 232.306744 
L 456.395348 236.976538 
L 456.54887 235.795671 
L 456.702179 235.882668 
L 456.855278 234.091504 
L 457.008166 233.654168 
L 457.160844 234.649459 
L 457.313313 236.427894 
L 457.465573 234.492721 
L 457.617625 236.316857 
L 457.76947 235.813222 
L 457.921107 235.836757 
L 458.072538 237.491556 
L 458.223763 235.456601 
L 458.374783 235.391486 
L 458.676209 234.797023 
L 458.826616 235.097908 
L 458.97682 235.937651 
L 459.126822 235.876142 
L 459.276621 236.692889 
L 459.426219 235.601741 
L 459.724813 235.533197 
L 460.022607 238.623267 
L 460.171206 237.78654 
L 460.319606 237.873 
L 460.467809 238.665861 
L 460.615814 237.446607 
L 460.763623 238.79805 
L 461.058652 236.945467 
L 461.205874 236.518485 
L 461.352902 236.443026 
L 461.499735 236.60839 
L 461.792821 235.588738 
L 462.085136 234.656953 
L 462.376686 232.829718 
L 462.667473 236.314924 
L 462.812582 236.093637 
L 462.957502 236.303609 
L 463.102234 237.336636 
L 463.246777 237.368112 
L 463.391133 237.899595 
L 463.535301 239.653603 
L 463.823079 235.928302 
L 463.966689 237.557062 
L 464.110114 235.896773 
L 464.253355 239.106335 
L 464.539283 234.882838 
L 464.681972 234.996273 
L 464.824478 234.620761 
L 465.108944 236.049161 
L 465.250905 235.926254 
L 465.392684 237.08961 
L 465.534283 237.135945 
L 465.816942 234.23492 
L 465.958002 234.690604 
L 466.098884 236.70583 
L 466.520461 236.94405 
L 466.660633 238.256562 
L 466.800628 236.844391 
L 466.940447 236.59568 
L 467.080091 237.286597 
L 467.358853 236.321861 
L 467.497972 237.18185 
L 467.636918 234.948705 
L 467.775691 236.262751 
L 468.052717 235.505852 
L 468.190972 236.709753 
L 468.329055 236.314019 
L 468.466967 235.06217 
L 468.604709 236.418732 
L 469.016912 235.900581 
L 469.153974 239.783723 
L 469.290868 237.334672 
L 469.427593 237.076651 
L 469.564151 238.151692 
L 469.700541 237.682052 
L 469.836764 240.095025 
L 469.97282 238.944872 
L 470.10871 239.616049 
L 470.244435 237.418056 
L 470.379994 239.375123 
L 470.650617 236.874977 
L 470.785682 237.413573 
L 470.920583 239.346121 
L 471.055321 238.430981 
L 471.189896 236.616569 
L 471.458558 236.920865 
L 471.592646 237.104681 
L 471.726573 238.404749 
L 471.860338 237.826319 
L 471.993943 237.799746 
L 472.127388 235.384263 
L 472.393798 240.255651 
L 472.526764 238.955405 
L 472.79222 235.85133 
L 473.057044 237.327839 
L 473.321239 236.695224 
L 473.453102 238.216536 
L 473.584808 237.463008 
L 473.847754 240.012991 
L 473.978994 238.876662 
L 474.11008 240.07644 
L 474.241011 238.899571 
L 474.371788 240.801373 
L 474.632883 237.916088 
L 474.7632 239.881879 
L 475.023378 240.220028 
L 475.153239 240.777314 
L 475.412508 235.48797 
L 475.541916 237.047044 
L 475.800281 236.183279 
L 475.929238 238.050123 
L 476.058047 237.728428 
L 476.44358 240.378985 
L 476.955553 235.654214 
L 477.083179 238.974868 
L 477.210659 237.657079 
L 477.592224 238.711958 
L 477.719122 238.63007 
L 477.845875 237.634017 
L 477.972484 237.877397 
L 478.09895 236.113042 
L 478.351449 240.506639 
L 478.603377 237.733845 
L 478.729127 240.492155 
L 478.980202 238.076453 
L 479.105527 238.788863 
L 479.230711 238.17311 
L 479.480658 239.636179 
L 479.605421 238.195009 
L 479.730044 238.627343 
L 479.854527 238.600368 
L 480.103077 237.017708 
L 480.227144 237.112679 
L 480.351073 237.661423 
L 480.474864 237.601124 
L 480.598517 238.517897 
L 480.722033 237.488067 
L 480.968654 238.876772 
L 481.09176 237.916774 
L 481.21473 241.310155 
L 481.337563 240.559417 
L 481.460262 238.986299 
L 481.705253 238.886119 
L 481.949706 240.770371 
L 482.071732 239.058162 
L 482.193623 239.27388 
L 482.315381 238.039553 
L 482.801086 241.056731 
L 483.043145 237.687163 
L 483.163977 238.205862 
L 483.284678 239.715787 
L 483.405248 239.202191 
L 483.525688 237.098514 
L 484.125938 240.804798 
L 484.484539 238.265098 
L 484.603817 236.094747 
L 484.960883 241.476853 
L 485.198292 238.463237 
L 485.435195 240.376831 
L 485.553458 239.11006 
L 485.789607 240.81747 
L 485.907494 240.865909 
L 486.025255 238.401838 
L 486.142893 238.799903 
L 486.260406 237.658687 
L 486.377795 238.523151 
L 486.49506 238.415162 
L 486.612202 239.165957 
L 486.72922 238.983207 
L 486.846116 240.868895 
L 487.196067 236.622659 
L 487.544921 237.946836 
L 487.660962 240.389037 
L 488.008363 238.609591 
L 488.123923 237.131666 
L 488.354682 239.921456 
L 488.469883 240.270339 
L 488.699927 237.47322 
L 488.81477 241.193457 
L 488.929496 240.994576 
L 489.044102 239.256504 
L 489.158592 242.946591 
L 489.501353 238.912326 
L 489.729276 243.65128 
L 489.956732 239.16472 
L 490.070286 239.507424 
L 490.183724 238.502339 
L 490.410254 239.30652 
L 490.523346 240.544415 
L 490.749186 238.322723 
L 490.861934 240.086108 
L 490.974568 238.904374 
L 491.199494 242.858664 
L 491.311787 240.487514 
L 491.536033 242.161609 
L 491.647987 240.953763 
L 491.759828 237.373234 
L 491.871557 237.647535 
L 491.983174 236.363154 
L 492.428524 241.023495 
L 492.650532 240.179885 
L 492.872098 241.788917 
L 493.093224 242.475948 
L 493.31391 241.300651 
L 493.53416 239.596903 
L 493.753975 241.345738 
L 493.973355 242.48745 
L 494.192305 240.023441 
L 494.301618 242.914301 
L 494.410823 242.863068 
L 494.519922 239.253807 
L 494.628914 239.73236 
L 494.846577 241.640966 
L 494.95525 242.368165 
L 495.172276 240.425742 
L 495.280631 241.667862 
L 495.605063 240.277541 
L 495.712997 238.857944 
L 496.036172 240.617289 
L 496.251102 239.584828 
L 496.465617 241.922214 
L 496.57272 239.644089 
L 496.679719 240.748511 
L 496.786616 240.281456 
L 497.000102 238.771257 
L 497.213179 241.727021 
L 497.319564 243.265734 
L 497.425848 242.45631 
L 497.744092 237.236469 
L 498.061428 240.087412 
L 498.272483 241.327251 
L 498.37786 240.075442 
L 498.483138 240.788564 
L 498.588317 240.738209 
L 498.693396 240.444229 
L 498.798375 238.636786 
L 498.903256 238.984342 
L 499.008038 241.229582 
L 499.112722 241.042405 
L 499.217307 239.176418 
L 499.530473 240.805773 
L 499.842759 240.236174 
L 499.94666 243.123219 
L 500.050465 242.371366 
L 500.257783 242.744442 
L 500.464715 239.805756 
L 500.774393 243.445349 
L 500.877428 240.381085 
L 501.083212 244.494657 
L 501.288615 240.117234 
L 501.493641 242.235832 
L 501.596012 240.996031 
L 501.698288 243.273118 
L 501.90256 241.513661 
L 502.106458 245.183751 
L 502.411605 242.309613 
L 502.513135 241.860881 
L 502.81717 243.698328 
L 502.918331 242.410174 
L 503.120376 243.657667 
L 503.221262 242.950639 
L 503.52337 244.713292 
L 503.62389 241.160133 
L 503.82466 243.777405 
L 504.125135 241.588129 
L 504.325003 242.812899 
L 504.424802 241.666385 
L 504.524511 242.385176 
L 504.723663 241.411069 
L 505.021723 243.484354 
L 505.120899 243.013393 
L 505.219987 240.982344 
L 505.417898 243.517985 
L 505.516722 243.342854 
L 505.812667 241.52856 
L 506.107827 242.726111 
L 506.20604 242.408028 
L 506.304166 241.747057 
L 506.402206 243.094096 
L 506.50016 242.266688 
L 506.695808 243.757599 
L 506.793503 243.730942 
L 506.988637 244.837153 
L 507.183429 242.820008 
L 507.37788 244.230068 
L 507.474978 241.323948 
L 507.571992 241.348541 
L 507.668921 244.728822 
L 507.765765 244.509882 
L 507.959202 243.240794 
L 508.152303 245.141768 
L 508.248728 242.983704 
L 508.345069 243.448615 
L 508.441327 243.361666 
L 508.633593 242.478247 
L 508.921371 243.532983 
L 509.017132 241.667458 
L 509.208406 243.753109 
L 509.30392 243.045443 
L 509.399353 243.133827 
L 509.494703 244.934361 
L 509.589971 244.082852 
L 509.685158 241.665591 
L 509.970232 245.673286 
L 510.065094 244.259021 
L 510.159876 247.254098 
L 510.254576 244.581313 
L 510.349197 244.634663 
L 510.538196 243.910794 
L 510.632575 242.499921 
L 510.821094 244.131664 
L 510.915234 243.455541 
L 511.009294 244.812781 
L 511.290998 242.624772 
L 511.384741 244.655162 
L 511.57199 242.737104 
L 511.758925 245.781023 
L 511.945546 244.007595 
L 512.038739 243.961596 
L 512.131854 245.233541 
L 512.224892 244.303792 
L 512.410733 246.715126 
L 512.503538 245.116934 
L 512.596265 245.440728 
L 512.781487 242.463023 
L 512.966402 243.780546 
L 513.058744 246.013118 
L 513.243198 241.449658 
L 513.427347 244.648752 
L 513.519308 242.447779 
L 513.703001 244.42251 
L 513.886391 245.240997 
L 514.069479 243.710264 
L 514.16091 243.180532 
L 514.252266 244.899599 
L 514.343548 244.615438 
L 514.434754 243.088607 
L 514.525885 243.482245 
L 514.616942 243.115726 
L 514.798833 244.472862 
L 514.980427 243.803083 
L 515.252262 246.981786 
L 515.342727 243.465495 
L 515.523435 245.467844 
L 515.61368 245.163777 
L 515.793949 243.672966 
L 515.883974 243.991709 
L 515.973926 245.270607 
L 516.243348 241.894039 
L 516.33301 242.59904 
L 516.512118 245.700969 
L 516.780241 241.730798 
L 516.869471 241.59362 
L 516.95863 243.843353 
L 517.136735 242.892405 
L 517.314554 245.68793 
L 517.403357 244.254513 
L 517.49209 244.558533 
L 517.580752 243.520464 
L 517.669343 243.645497 
L 517.846313 242.726397 
L 518.023003 245.268741 
L 518.199412 241.106089 
L 518.551394 246.440023 
L 518.726968 242.90386 
L 518.814651 244.105916 
L 518.902265 243.928551 
L 518.98981 243.699409 
L 519.077286 242.643309 
L 519.252033 244.970944 
L 519.339303 244.826635 
L 519.513639 242.676895 
L 519.600704 243.175104 
L 519.687702 240.470912 
L 519.774631 241.307014 
L 519.948286 245.678453 
L 520.035012 242.955319 
L 520.12167 242.982232 
L 520.208261 245.095413 
L 520.381241 243.301654 
L 520.553953 244.8682 
L 520.640208 241.789064 
L 520.726396 243.126273 
L 520.812518 243.024798 
L 520.984561 243.112147 
L 521.242128 245.82823 
L 521.327852 243.239525 
L 521.413509 243.721181 
L 521.584626 246.115123 
L 521.670086 245.915983 
L 521.755481 242.682936 
L 521.840809 242.686728 
L 521.926073 243.774417 
L 522.011271 241.670266 
L 522.096404 242.39465 
L 522.181471 244.634705 
L 522.266474 243.076507 
L 522.351412 243.142236 
L 522.436285 243.388393 
L 522.521093 241.64756 
L 522.605837 244.076615 
L 522.690516 243.52423 
L 522.775131 242.877392 
L 522.944167 245.660349 
L 523.112948 243.666792 
L 523.197242 246.063603 
L 523.365638 243.595687 
L 523.449741 244.905211 
L 523.533781 244.388043 
L 523.617757 246.903342 
L 523.785518 244.912187 
L 524.036688 243.066718 
L 524.287291 245.831502 
L 524.3707 245.396474 
L 524.454047 245.804348 
L 524.537331 243.670446 
L 524.620553 244.851431 
L 524.703713 244.31876 
L 524.78681 244.608902 
L 524.869846 243.025528 
L 525.118581 245.175215 
L 525.201369 244.892475 
L 525.284096 245.097154 
L 525.366761 244.873624 
L 525.449365 246.956432 
L 525.614389 244.799569 
L 525.696809 245.016141 
L 525.779168 241.912442 
L 525.861467 242.027215 
L 526.025881 245.419889 
L 526.190052 244.087862 
L 526.272047 243.797826 
L 526.353981 244.361171 
L 526.51767 241.671301 
L 526.681117 245.245971 
L 526.762751 241.966445 
L 526.844325 244.545128 
L 527.007294 241.999453 
L 527.088688 242.614509 
L 527.170024 241.789663 
L 527.332516 244.491602 
L 527.413674 244.3604 
L 527.494772 242.487175 
L 527.575811 243.409605 
L 527.737712 241.437884 
L 527.899378 244.374771 
L 527.980123 243.702537 
L 528.060809 244.835336 
L 528.222006 241.079949 
L 528.302517 242.732554 
L 528.543701 241.206232 
L 528.704201 244.434128 
L 528.784364 244.373042 
L 528.944517 241.268615 
L 529.024507 243.7341 
L 529.104439 241.88433 
L 529.264132 243.45175 
L 529.503242 241.354383 
L 529.662364 242.408707 
L 529.741839 241.271181 
L 529.821258 242.606766 
L 529.90062 242.457021 
L 530.138368 238.722998 
L 530.296584 240.836419 
L 530.375608 240.170265 
L 530.533487 242.931318 
L 530.612343 242.726302 
L 530.691143 242.08699 
L 530.769887 242.689006 
L 530.848576 241.103712 
L 531.005786 242.135675 
L 531.084307 241.987246 
L 531.162774 244.534556 
L 531.241185 244.33836 
L 531.397841 241.902183 
L 531.554278 241.423022 
L 531.866491 244.864743 
L 532.177831 241.059649 
L 532.25553 241.284993 
L 532.333175 240.82807 
L 532.488302 244.654403 
L 532.720587 241.599713 
L 532.797908 244.556846 
L 532.952389 240.635188 
L 533.106655 244.382979 
L 533.183709 244.801826 
L 533.260708 243.740298 
L 533.337655 244.433056 
L 533.491388 242.963204 
L 533.568175 243.005225 
L 533.644909 243.227887 
L 533.72159 243.909627 
L 533.874794 242.082676 
L 533.951317 242.933876 
L 534.027788 241.526467 
L 534.104205 241.850848 
L 534.180571 242.310795 
L 534.333144 245.653273 
L 534.485509 243.023642 
L 534.561613 244.24668 
L 534.637665 243.920015 
L 534.789613 241.447282 
L 534.941354 241.935094 
L 535.017147 243.311843 
L 535.092888 241.379089 
L 535.168578 241.783481 
L 535.244216 244.350756 
L 535.319803 244.141977 
L 535.395339 241.121135 
L 535.470823 242.365352 
L 535.546256 240.757833 
L 535.621638 241.375408 
L 535.696969 242.31398 
L 535.772249 242.227067 
L 535.922656 240.513523 
L 535.997783 241.193792 
L 536.147886 244.760457 
L 536.222861 244.235444 
L 536.297786 240.449447 
L 536.372661 242.251668 
L 536.522259 240.056735 
L 536.671656 244.567728 
L 536.746279 243.410185 
L 536.820852 244.028564 
L 537.118647 239.010709 
L 537.192971 239.723711 
L 537.267245 241.590645 
L 537.34147 239.436843 
L 537.415646 241.649202 
L 537.489772 241.349286 
L 537.563848 241.26161 
L 537.711854 239.238837 
L 537.785783 241.998132 
L 537.859663 241.735089 
L 538.081008 239.891748 
L 538.228327 242.155892 
L 538.375452 239.659062 
L 538.595774 241.884909 
L 538.815661 239.787183 
L 538.88886 241.613486 
L 538.962011 240.116339 
L 539.108169 242.436068 
L 539.181176 242.230489 
L 539.327046 241.445192 
L 539.39991 243.042369 
L 539.472726 242.715672 
L 539.618214 243.125282 
L 539.763513 246.556836 
L 539.908622 241.989097 
L 539.981105 242.228717 
L 540.053542 245.01855 
L 540.125931 243.612354 
L 540.270568 241.33369 
L 540.415018 243.758277 
L 540.487172 241.910502 
L 540.55928 244.715316 
L 540.631341 243.615515 
L 540.703355 241.812177 
L 540.775323 242.919989 
L 540.847244 242.380795 
L 540.919119 240.825998 
L 541.062729 243.649276 
L 541.206154 242.74123 
L 541.277797 243.659173 
L 541.349394 243.513025 
L 541.420945 243.758088 
L 541.49245 243.522121 
L 541.635323 244.278397 
L 541.70669 244.579205 
L 541.778012 244.491002 
L 541.849288 241.053945 
L 541.920518 242.50038 
L 541.991703 242.899994 
L 542.062842 242.267915 
L 542.133935 243.729526 
L 542.204984 239.715184 
L 542.417857 243.601972 
L 542.488724 242.29872 
L 542.559546 228.027364 
L 542.630323 229.68251 
L 542.771742 244.229336 
L 542.842384 243.53044 
L 542.983534 237.705961 
L 543.124505 244.300137 
L 543.194923 244.596564 
L 543.265297 243.757472 
L 543.335627 244.457078 
L 543.405912 243.28474 
L 543.476153 243.484469 
L 543.546349 242.989923 
L 543.616501 245.668409 
L 543.686609 244.705442 
L 543.756673 244.529379 
L 543.826692 242.725093 
L 543.896668 243.293561 
L 543.966599 243.638011 
L 544.17613 247.929054 
L 544.245886 246.221619 
L 544.315599 245.079056 
L 544.524474 246.652335 
L 544.594012 246.50919 
L 544.663507 245.887059 
L 544.732958 246.823422 
L 544.87173 245.667226 
L 544.941052 243.678532 
L 545.01033 244.753132 
L 545.148757 244.573337 
L 545.356075 243.736797 
L 545.563007 245.379867 
L 545.700748 243.653236 
L 545.838319 246.692208 
L 545.97572 244.554631 
L 546.181504 247.331857 
L 546.318482 244.891178 
L 546.386908 246.559257 
L 546.455291 246.455311 
L 546.523633 245.380835 
L 546.66019 248.641083 
L 546.796581 248.038859 
L 546.864713 247.699933 
L 547.000853 244.560816 
L 547.20475 246.829602 
L 547.272633 244.936358 
L 547.340474 245.374145 
L 547.476033 244.621706 
L 547.611427 246.729716 
L 547.746656 245.406999 
L 547.81421 246.24584 
L 547.949193 243.217792 
L 548.016623 246.467727 
L 548.084012 243.835603 
L 548.218668 248.917336 
L 548.285935 247.784744 
L 548.353162 247.511197 
L 548.420348 248.209252 
L 548.688686 243.056857 
L 548.755669 244.099397 
L 548.822612 245.967952 
L 548.889515 245.281437 
L 549.0232 246.536516 
L 549.156725 246.191486 
L 549.223427 246.653627 
L 549.29009 248.018611 
L 549.489837 245.149113 
L 549.55634 245.462682 
L 549.755611 244.061317 
L 549.821955 245.22017 
L 549.88826 245.193257 
L 549.954525 244.079311 
L 550.02075 244.487001 
L 550.153084 246.651161 
L 550.219191 245.350125 
L 550.28526 246.948782 
L 550.351289 246.238201 
L 550.417279 246.053886 
L 550.48323 247.335206 
L 550.549141 246.529583 
L 550.615014 243.997749 
L 550.680848 245.480781 
L 550.746643 244.49272 
L 550.812398 245.96816 
L 550.878115 245.057823 
L 550.943794 244.8889 
L 551.009433 246.096942 
L 551.140596 244.880749 
L 551.206119 244.777209 
L 551.402459 246.402628 
L 551.467828 245.132771 
L 551.533159 247.138712 
L 551.598452 246.790252 
L 551.7941 245.65594 
L 551.85924 245.662521 
L 551.989405 247.495115 
L 552.119418 245.435982 
L 552.184367 245.759925 
L 552.249279 244.764241 
L 552.314153 245.025869 
L 552.378989 245.938935 
L 552.508547 244.856238 
L 552.702603 249.332565 
L 552.960818 243.484731 
L 553.089701 247.302304 
L 553.154086 246.386002 
L 553.218435 246.599741 
L 553.34702 245.916003 
L 553.475456 243.176043 
L 553.603745 247.170609 
L 553.667834 245.967487 
L 553.731886 245.912743 
L 553.859879 249.502314 
L 553.92382 248.847574 
L 554.051593 245.322712 
L 554.179219 246.731089 
L 554.242977 243.966115 
L 554.306699 244.473174 
L 554.561221 247.422173 
L 554.62476 247.750835 
L 554.751731 245.493548 
L 554.815162 247.194407 
L 554.878556 246.840959 
L 554.941915 247.271007 
L 555.005237 246.11384 
L 555.131775 248.728166 
L 555.194989 248.470943 
L 555.258168 248.873608 
L 555.384418 246.061114 
L 555.447489 247.526783 
L 555.510524 246.951895 
L 555.573524 246.715723 
L 555.76231 248.697224 
L 555.825167 247.996169 
L 555.887989 246.421413 
L 555.950775 249.146996 
L 556.076242 246.557619 
L 556.264176 249.189031 
L 556.576697 246.625894 
L 556.826083 249.272785 
L 557.074911 246.02415 
L 557.137031 246.557449 
L 557.199117 248.470568 
L 557.261168 247.334279 
L 557.323184 246.609415 
L 557.385165 248.802941 
L 557.447113 248.277999 
L 557.509025 248.740155 
L 557.694557 250.642736 
L 557.756332 249.740486 
L 557.879779 245.852607 
L 557.941451 246.640757 
L 558.00309 246.539986 
L 558.064694 247.432894 
L 558.126264 246.693007 
L 558.310769 251.33189 
L 558.372203 250.195583 
L 558.678865 245.436847 
L 558.801293 248.087385 
L 558.862457 248.031186 
L 558.984683 245.874662 
L 559.045746 249.194063 
L 559.106775 248.501777 
L 559.289663 247.122512 
L 559.350559 249.540328 
L 559.411421 248.025657 
L 559.47225 247.103371 
L 559.654538 249.412691 
L 559.715235 249.774346 
L 559.775898 247.660038 
L 559.836528 248.608525 
L 559.897125 248.454814 
L 559.957689 246.808699 
L 560.018221 247.173506 
L 560.139184 247.981529 
L 560.260016 247.468354 
L 560.320383 247.569891 
L 560.501288 252.006918 
L 560.681899 248.621459 
L 560.742037 249.820938 
L 560.922258 248.132424 
L 561.042243 251.56973 
L 561.162098 247.971088 
L 561.162098 247.971088 
" clip-path="url(#p1a8da14661)" style="fill: none; stroke: #2ca02c; stroke-linecap: square"/>
   </g>
   <g id="patch_3">
    <path d="M 48.982813 294.590247 
L 48.982813 22.318125 
" style="fill: none; stroke: #000000; stroke-width: 0.8; stroke-linejoin: miter; stroke-linecap: square"/>
   </g>
   <g id="patch_4">
    <path d="M 561.197812 294.590247 
L 561.197812 22.318125 
" style="fill: none; stroke: #000000; stroke-width: 0.8; stroke-linejoin: miter; stroke-linecap: square"/>
   </g>
   <g id="patch_5">
    <path d="M 48.982813 294.590247 
L 561.197812 294.590247 
" style="fill: none; stroke: #000000; stroke-width: 0.8; stroke-linejoin: miter; stroke-linecap: square"/>
   </g>
   <g id="patch_6">
    <path d="M 48.982813 22.318125 
L 561.197812 22.318125 
" style="fill: none; stroke: #000000; stroke-width: 0.8; stroke-linejoin: miter; stroke-linecap: square"/>
   </g>
   <g id="text_14">
    <!-- Toyota Tundra Blower Setting 1 - Narrow Band SPL (dBA) -->
    <g transform="translate(135.736562 16.318125) scale(0.12 -0.12)">
     <defs>
      <path id="DejaVuSans-54" d="M -19 4666 
L 3928 4666 
L 3928 4134 
L 2272 4134 
L 2272 0 
L 1638 0 
L 1638 4134 
L -19 4134 
L -19 4666 
z
" transform="scale(0.015625)"/>
      <path id="DejaVuSans-6f" d="M 1959 3097 
Q 1497 3097 1228 2736 
Q 959 2375 959 1747 
Q 959 1119 1226 758 
Q 1494 397 1959 397 
Q 2419 397 2687 759 
Q 2956 1122 2956 1747 
Q 2956 2369 2687 2733 
Q 2419 3097 1959 3097 
z
M 1959 3584 
Q 2709 3584 3137 3096 
Q 3566 2609 3566 1747 
Q 3566 888 3137 398 
Q 2709 -91 1959 -91 
Q 1206 -91 779 398 
Q 353 888 353 1747 
Q 353 2609 779 3096 
Q 1206 3584 1959 3584 
z
" transform="scale(0.015625)"/>
      <path id="DejaVuSans-74" d="M 1172 4494 
L 1172 3500 
L 2356 3500 
L 2356 3053 
L 1172 3053 
L 1172 1153 
Q 1172 725 1289 603 
Q 1406 481 1766 481 
L 2356 481 
L 2356 0 
L 1766 0 
Q 1100 0 847 248 
Q 594 497 594 1153 
L 594 3053 
L 172 3053 
L 172 3500 
L 594 3500 
L 594 4494 
L 1172 4494 
z
" transform="scale(0.015625)"/>
      <path id="DejaVuSans-61" d="M 2194 1759 
Q 1497 1759 1228 1600 
Q 959 1441 959 1056 
Q 959 750 1161 570 
Q 1363 391 1709 391 
Q 2188 391 2477 730 
Q 2766 1069 2766 1631 
L 2766 1759 
L 2194 1759 
z
M 3341 1997 
L 3341 0 
L 2766 0 
L 2766 531 
Q 2569 213 2275 61 
Q 1981 -91 1556 -91 
Q 1019 -91 701 211 
Q 384 513 384 1019 
Q 384 1609 779 1909 
Q 1175 2209 1959 2209 
L 2766 2209 
L 2766 2266 
Q 2766 2663 2505 2880 
Q 2244 3097 1772 3097 
Q 1472 3097 1187 3025 
Q 903 2953 641 2809 
L 641 3341 
Q 956 3463 1253 3523 
Q 1550 3584 1831 3584 
Q 2591 3584 2966 3190 
Q 3341 2797 3341 1997 
z
" transform="scale(0.015625)"/>
      <path id="DejaVuSans-6c" d="M 603 4863 
L 1178 4863 
L 1178 0 
L 603 0 
L 603 4863 
z
" transform="scale(0.015625)"/>
      <path id="DejaVuSans-77" d="M 269 3500 
L 844 3500 
L 1563 769 
L 2278 3500 
L 2956 3500 
L 3675 769 
L 4391 3500 
L 4966 3500 
L 4050 0 
L 3372 0 
L 2619 2869 
L 1863 0 
L 1184 0 
L 269 3500 
z
" transform="scale(0.015625)"/>
      <path id="DejaVuSans-69" d="M 603 3500 
L 1178 3500 
L 1178 0 
L 603 0 
L 603 3500 
z
M 603 4863 
L 1178 4863 
L 1178 4134 
L 603 4134 
L 603 4863 
z
" transform="scale(0.015625)"/>
      <path id="DejaVuSans-67" d="M 2906 1791 
Q 2906 2416 2648 2759 
Q 2391 3103 1925 3103 
Q 1463 3103 1205 2759 
Q 947 2416 947 1791 
Q 947 1169 1205 825 
Q 1463 481 1925 481 
Q 2391 481 2648 825 
Q 2906 1169 2906 1791 
z
M 3481 434 
Q 3481 -459 3084 -895 
Q 2688 -1331 1869 -1331 
Q 1566 -1331 1297 -1286 
Q 1028 -1241 775 -1147 
L 775 -588 
Q 1028 -725 1275 -790 
Q 1522 -856 1778 -856 
Q 2344 -856 2625 -561 
Q 2906 -266 2906 331 
L 2906 616 
Q 2728 306 2450 153 
Q 2172 0 1784 0 
Q 1141 0 747 490 
Q 353 981 353 1791 
Q 353 2603 747 3093 
Q 1141 3584 1784 3584 
Q 2172 3584 2450 3431 
Q 2728 3278 2906 2969 
L 2906 3500 
L 3481 3500 
L 3481 434 
z
" transform="scale(0.015625)"/>
      <path id="DejaVuSans-2d" d="M 313 2009 
L 1997 2009 
L 1997 1497 
L 313 1497 
L 313 2009 
z
" transform="scale(0.015625)"/>
      <path id="DejaVuSans-4e" d="M 628 4666 
L 1478 4666 
L 3547 763 
L 3547 4666 
L 4159 4666 
L 4159 0 
L 3309 0 
L 1241 3903 
L 1241 0 
L 628 0 
L 628 4666 
z
" transform="scale(0.015625)"/>
     </defs>
     <use xlink:href="#DejaVuSans-54"/>
     <use xlink:href="#DejaVuSans-6f" transform="translate(44.083984 0)"/>
     <use xlink:href="#DejaVuSans-79" transform="translate(105.265625 0)"/>
     <use xlink:href="#DejaVuSans-6f" transform="translate(164.445312 0)"/>
     <use xlink:href="#DejaVuSans-74" transform="translate(225.626953 0)"/>
     <use xlink:href="#DejaVuSans-61" transform="translate(264.835938 0)"/>
     <use xlink:href="#DejaVuSans-20" transform="translate(326.115234 0)"/>
     <use xlink:href="#DejaVuSans-54" transform="translate(357.902344 0)"/>
     <use xlink:href="#DejaVuSans-75" transform="translate(403.861328 0)"/>
     <use xlink:href="#DejaVuSans-6e" transform="translate(467.240234 0)"/>
     <use xlink:href="#DejaVuSans-64" transform="translate(530.619141 0)"/>
     <use xlink:href="#DejaVuSans-72" transform="translate(594.095703 0)"/>
     <use xlink:href="#DejaVuSans-61" transform="translate(635.208984 0)"/>
     <use xlink:href="#DejaVuSans-20" transform="translate(696.488281 0)"/>
     <use xlink:href="#DejaVuSans-42" transform="translate(728.275391 0)"/>
     <use xlink:href="#DejaVuSans-6c" transform="translate(796.878906 0)"/>
     <use xlink:href="#DejaVuSans-6f" transform="translate(824.662109 0)"/>
     <use xlink:href="#DejaVuSans-77" transform="translate(885.84375 0)"/>
     <use xlink:href="#DejaVuSans-65" transform="translate(967.630859 0)"/>
     <use xlink:href="#DejaVuSans-72" transform="translate(1029.154297 0)"/>
     <use xlink:href="#DejaVuSans-20" transform="translate(1070.267578 0)"/>
     <use xlink:href="#DejaVuSans-53" transform="translate(1102.054688 0)"/>
     <use xlink:href="#DejaVuSans-65" transform="translate(1165.53125 0)"/>
     <use xlink:href="#DejaVuSans-74" transform="translate(1227.054688 0)"/>
     <use xlink:href="#DejaVuSans-74" transform="translate(1266.263672 0)"/>
     <use xlink:href="#DejaVuSans-69" transform="translate(1305.472656 0)"/>
     <use xlink:href="#DejaVuSans-6e" transform="translate(1333.255859 0)"/>
     <use xlink:href="#DejaVuSans-67" transform="translate(1396.634766 0)"/>
     <use xlink:href="#DejaVuSans-20" transform="translate(1460.111328 0)"/>
     <use xlink:href="#DejaVuSans-31" transform="translate(1491.898438 0)"/>
     <use xlink:href="#DejaVuSans-20" transform="translate(1555.521484 0)"/>
     <use xlink:href="#DejaVuSans-2d" transform="translate(1587.308594 0)"/>
     <use xlink:href="#DejaVuSans-20" transform="translate(1623.392578 0)"/>
     <use xlink:href="#DejaVuSans-4e" transform="translate(1655.179688 0)"/>
     <use xlink:href="#DejaVuSans-61" transform="translate(1729.984375 0)"/>
     <use xlink:href="#DejaVuSans-72" transform="translate(1791.263672 0)"/>
     <use xlink:href="#DejaVuSans-72" transform="translate(1830.626953 0)"/>
     <use xlink:href="#DejaVuSans-6f" transform="translate(1869.490234 0)"/>
     <use xlink:href="#DejaVuSans-77" transform="translate(1930.671875 0)"/>
     <use xlink:href="#DejaVuSans-20" transform="translate(2012.458984 0)"/>
     <use xlink:href="#DejaVuSans-42" transform="translate(2044.246094 0)"/>
     <use xlink:href="#DejaVuSans-61" transform="translate(2112.849609 0)"/>
     <use xlink:href="#DejaVuSans-6e" transform="translate(2174.128906 0)"/>
     <use xlink:href="#DejaVuSans-64" transform="translate(2237.507812 0)"/>
     <use xlink:href="#DejaVuSans-20" transform="translate(2300.984375 0)"/>
     <use xlink:href="#DejaVuSans-53" transform="translate(2332.771484 0)"/>
     <use xlink:href="#DejaVuSans-50" transform="translate(2396.248047 0)"/>
     <use xlink:href="#DejaVuSans-4c" transform="translate(2456.550781 0)"/>
     <use xlink:href="#DejaVuSans-20" transform="translate(2512.263672 0)"/>
     <use xlink:href="#DejaVuSans-28" transform="translate(2544.050781 0)"/>
     <use xlink:href="#DejaVuSans-64" transform="translate(2583.064453 0)"/>
     <use xlink:href="#DejaVuSans-42" transform="translate(2646.541016 0)"/>
     <use xlink:href="#DejaVuSans-41" transform="translate(2715.144531 0)"/>
     <use xlink:href="#DejaVuSans-29" transform="translate(2783.552734 0)"/>
    </g>
   </g>
  </g>
 </g>
 <defs>
  <clipPath id="p1a8da14661">
   <rect x="48.982813" y="22.318125" width="512.215" height="272.272122"/>
  </clipPath>
 </defs>
</svg>
