<?xml version="1.0" encoding="utf-8" standalone="no"?>
<!DOCTYPE svg PUBLIC "-//W3C//DTD SVG 1.1//EN"
  "http://www.w3.org/Graphics/SVG/1.1/DTD/svg11.dtd">
<svg xmlns:xlink="http://www.w3.org/1999/xlink" width="568.397812pt" height="351.806674pt" viewBox="0 0 568.397812 351.806674" xmlns="http://www.w3.org/2000/svg" version="1.1">
 <metadata>
  <rdf:RDF xmlns:dc="http://purl.org/dc/elements/1.1/" xmlns:cc="http://creativecommons.org/ns#" xmlns:rdf="http://www.w3.org/1999/02/22-rdf-syntax-ns#">
   <cc:Work>
    <dc:type rdf:resource="http://purl.org/dc/dcmitype/StillImage"/>
    <dc:date>2025-04-24T21:37:21.026855</dc:date>
    <dc:format>image/svg+xml</dc:format>
    <dc:creator>
     <cc:Agent>
      <dc:title>Matplotlib v3.10.0, https://matplotlib.org/</dc:title>
     </cc:Agent>
    </dc:creator>
   </cc:Work>
  </rdf:RDF>
 </metadata>
 <defs>
  <style type="text/css">*{stroke-linejoin: round; stroke-linecap: butt}</style>
 </defs>
 <g id="figure_1">
  <g id="patch_1">
   <path d="M 0 351.806674 
L 568.397812 351.806674 
L 568.397812 0 
L 0 0 
z
" style="fill: #ffffff"/>
  </g>
  <g id="axes_1">
   <g id="patch_2">
    <path d="M 48.982813 294.590247 
L 561.197812 294.590247 
L 561.197812 22.318125 
L 48.982813 22.318125 
z
" style="fill: #ffffff"/>
   </g>
   <g id="matplotlib.axis_1">
    <g id="xtick_1">
     <g id="line2d_1">
      <path d="M 48.982813 294.590247 
L 48.982813 22.318125 
" clip-path="url(#pbff4c4273f)" style="fill: none; stroke-dasharray: 1.85,0.8; stroke-dashoffset: 0; stroke: #b0b0b0; stroke-width: 0.5"/>
     </g>
     <g id="line2d_2">
      <defs>
       <path id="m036a959c9f" d="M 0 0 
L 0 3.5 
" style="stroke: #000000; stroke-width: 0.8"/>
      </defs>
      <g>
       <use xlink:href="#m036a959c9f" x="48.982813" y="294.590247" style="stroke: #000000; stroke-width: 0.8"/>
      </g>
     </g>
     <g id="text_1">
      <!-- 100 -->
      <g transform="translate(34.015351 320.460054) rotate(-45) scale(0.1 -0.1)">
       <defs>
        <path id="DejaVuSans-31" d="M 794 531 
L 1825 531 
L 1825 4091 
L 703 3866 
L 703 4441 
L 1819 4666 
L 2450 4666 
L 2450 531 
L 3481 531 
L 3481 0 
L 794 0 
L 794 531 
z
" transform="scale(0.015625)"/>
        <path id="DejaVuSans-30" d="M 2034 4250 
Q 1547 4250 1301 3770 
Q 1056 3291 1056 2328 
Q 1056 1369 1301 889 
Q 1547 409 2034 409 
Q 2525 409 2770 889 
Q 3016 1369 3016 2328 
Q 3016 3291 2770 3770 
Q 2525 4250 2034 4250 
z
M 2034 4750 
Q 2819 4750 3233 4129 
Q 3647 3509 3647 2328 
Q 3647 1150 3233 529 
Q 2819 -91 2034 -91 
Q 1250 -91 836 529 
Q 422 1150 422 2328 
Q 422 3509 836 4129 
Q 1250 4750 2034 4750 
z
" transform="scale(0.015625)"/>
       </defs>
       <use xlink:href="#DejaVuSans-31"/>
       <use xlink:href="#DejaVuSans-30" transform="translate(63.623047 0)"/>
       <use xlink:href="#DejaVuSans-30" transform="translate(127.246094 0)"/>
      </g>
     </g>
    </g>
    <g id="xtick_2">
     <g id="line2d_3">
      <path d="M 305.090312 294.590247 
L 305.090312 22.318125 
" clip-path="url(#pbff4c4273f)" style="fill: none; stroke-dasharray: 1.85,0.8; stroke-dashoffset: 0; stroke: #b0b0b0; stroke-width: 0.5"/>
     </g>
     <g id="line2d_4">
      <g>
       <use xlink:href="#m036a959c9f" x="305.090312" y="294.590247" style="stroke: #000000; stroke-width: 0.8"/>
      </g>
     </g>
     <g id="text_2">
      <!-- 1000 -->
      <g transform="translate(285.623884 324.959021) rotate(-45) scale(0.1 -0.1)">
       <use xlink:href="#DejaVuSans-31"/>
       <use xlink:href="#DejaVuSans-30" transform="translate(63.623047 0)"/>
       <use xlink:href="#DejaVuSans-30" transform="translate(127.246094 0)"/>
       <use xlink:href="#DejaVuSans-30" transform="translate(190.869141 0)"/>
      </g>
     </g>
    </g>
    <g id="xtick_3">
     <g id="line2d_5">
      <path d="M 561.197812 294.590247 
L 561.197812 22.318125 
" clip-path="url(#pbff4c4273f)" style="fill: none; stroke-dasharray: 1.85,0.8; stroke-dashoffset: 0; stroke: #b0b0b0; stroke-width: 0.5"/>
     </g>
     <g id="line2d_6">
      <g>
       <use xlink:href="#m036a959c9f" x="561.197812" y="294.590247" style="stroke: #000000; stroke-width: 0.8"/>
      </g>
     </g>
     <g id="text_3">
      <!-- 10000 -->
      <g transform="translate(537.232417 329.457988) rotate(-45) scale(0.1 -0.1)">
       <use xlink:href="#DejaVuSans-31"/>
       <use xlink:href="#DejaVuSans-30" transform="translate(63.623047 0)"/>
       <use xlink:href="#DejaVuSans-30" transform="translate(127.246094 0)"/>
       <use xlink:href="#DejaVuSans-30" transform="translate(190.869141 0)"/>
       <use xlink:href="#DejaVuSans-30" transform="translate(254.492188 0)"/>
      </g>
     </g>
    </g>
    <g id="xtick_4">
     <g id="line2d_7">
      <path d="M 126.078852 294.590247 
L 126.078852 22.318125 
" clip-path="url(#pbff4c4273f)" style="fill: none; stroke-dasharray: 1.85,0.8; stroke-dashoffset: 0; stroke: #b0b0b0; stroke-width: 0.5"/>
     </g>
     <g id="line2d_8">
      <defs>
       <path id="m73ad812879" d="M 0 0 
L 0 2 
" style="stroke: #000000; stroke-width: 0.6"/>
      </defs>
      <g>
       <use xlink:href="#m73ad812879" x="126.078852" y="294.590247" style="stroke: #000000; stroke-width: 0.6"/>
      </g>
     </g>
    </g>
    <g id="xtick_5">
     <g id="line2d_9">
      <path d="M 171.177144 294.590247 
L 171.177144 22.318125 
" clip-path="url(#pbff4c4273f)" style="fill: none; stroke-dasharray: 1.85,0.8; stroke-dashoffset: 0; stroke: #b0b0b0; stroke-width: 0.5"/>
     </g>
     <g id="line2d_10">
      <g>
       <use xlink:href="#m73ad812879" x="171.177144" y="294.590247" style="stroke: #000000; stroke-width: 0.6"/>
      </g>
     </g>
    </g>
    <g id="xtick_6">
     <g id="line2d_11">
      <path d="M 203.174892 294.590247 
L 203.174892 22.318125 
" clip-path="url(#pbff4c4273f)" style="fill: none; stroke-dasharray: 1.85,0.8; stroke-dashoffset: 0; stroke: #b0b0b0; stroke-width: 0.5"/>
     </g>
     <g id="line2d_12">
      <g>
       <use xlink:href="#m73ad812879" x="203.174892" y="294.590247" style="stroke: #000000; stroke-width: 0.6"/>
      </g>
     </g>
    </g>
    <g id="xtick_7">
     <g id="line2d_13">
      <path d="M 227.994273 294.590247 
L 227.994273 22.318125 
" clip-path="url(#pbff4c4273f)" style="fill: none; stroke-dasharray: 1.85,0.8; stroke-dashoffset: 0; stroke: #b0b0b0; stroke-width: 0.5"/>
     </g>
     <g id="line2d_14">
      <g>
       <use xlink:href="#m73ad812879" x="227.994273" y="294.590247" style="stroke: #000000; stroke-width: 0.6"/>
      </g>
     </g>
    </g>
    <g id="xtick_8">
     <g id="line2d_15">
      <path d="M 248.273184 294.590247 
L 248.273184 22.318125 
" clip-path="url(#pbff4c4273f)" style="fill: none; stroke-dasharray: 1.85,0.8; stroke-dashoffset: 0; stroke: #b0b0b0; stroke-width: 0.5"/>
     </g>
     <g id="line2d_16">
      <g>
       <use xlink:href="#m73ad812879" x="248.273184" y="294.590247" style="stroke: #000000; stroke-width: 0.6"/>
      </g>
     </g>
    </g>
    <g id="xtick_9">
     <g id="line2d_17">
      <path d="M 265.418759 294.590247 
L 265.418759 22.318125 
" clip-path="url(#pbff4c4273f)" style="fill: none; stroke-dasharray: 1.85,0.8; stroke-dashoffset: 0; stroke: #b0b0b0; stroke-width: 0.5"/>
     </g>
     <g id="line2d_18">
      <g>
       <use xlink:href="#m73ad812879" x="265.418759" y="294.590247" style="stroke: #000000; stroke-width: 0.6"/>
      </g>
     </g>
    </g>
    <g id="xtick_10">
     <g id="line2d_19">
      <path d="M 280.270931 294.590247 
L 280.270931 22.318125 
" clip-path="url(#pbff4c4273f)" style="fill: none; stroke-dasharray: 1.85,0.8; stroke-dashoffset: 0; stroke: #b0b0b0; stroke-width: 0.5"/>
     </g>
     <g id="line2d_20">
      <g>
       <use xlink:href="#m73ad812879" x="280.270931" y="294.590247" style="stroke: #000000; stroke-width: 0.6"/>
      </g>
     </g>
    </g>
    <g id="xtick_11">
     <g id="line2d_21">
      <path d="M 293.371476 294.590247 
L 293.371476 22.318125 
" clip-path="url(#pbff4c4273f)" style="fill: none; stroke-dasharray: 1.85,0.8; stroke-dashoffset: 0; stroke: #b0b0b0; stroke-width: 0.5"/>
     </g>
     <g id="line2d_22">
      <g>
       <use xlink:href="#m73ad812879" x="293.371476" y="294.590247" style="stroke: #000000; stroke-width: 0.6"/>
      </g>
     </g>
    </g>
    <g id="xtick_12">
     <g id="line2d_23">
      <path d="M 382.186352 294.590247 
L 382.186352 22.318125 
" clip-path="url(#pbff4c4273f)" style="fill: none; stroke-dasharray: 1.85,0.8; stroke-dashoffset: 0; stroke: #b0b0b0; stroke-width: 0.5"/>
     </g>
     <g id="line2d_24">
      <g>
       <use xlink:href="#m73ad812879" x="382.186352" y="294.590247" style="stroke: #000000; stroke-width: 0.6"/>
      </g>
     </g>
    </g>
    <g id="xtick_13">
     <g id="line2d_25">
      <path d="M 427.284644 294.590247 
L 427.284644 22.318125 
" clip-path="url(#pbff4c4273f)" style="fill: none; stroke-dasharray: 1.85,0.8; stroke-dashoffset: 0; stroke: #b0b0b0; stroke-width: 0.5"/>
     </g>
     <g id="line2d_26">
      <g>
       <use xlink:href="#m73ad812879" x="427.284644" y="294.590247" style="stroke: #000000; stroke-width: 0.6"/>
      </g>
     </g>
    </g>
    <g id="xtick_14">
     <g id="line2d_27">
      <path d="M 459.282392 294.590247 
L 459.282392 22.318125 
" clip-path="url(#pbff4c4273f)" style="fill: none; stroke-dasharray: 1.85,0.8; stroke-dashoffset: 0; stroke: #b0b0b0; stroke-width: 0.5"/>
     </g>
     <g id="line2d_28">
      <g>
       <use xlink:href="#m73ad812879" x="459.282392" y="294.590247" style="stroke: #000000; stroke-width: 0.6"/>
      </g>
     </g>
    </g>
    <g id="xtick_15">
     <g id="line2d_29">
      <path d="M 484.101773 294.590247 
L 484.101773 22.318125 
" clip-path="url(#pbff4c4273f)" style="fill: none; stroke-dasharray: 1.85,0.8; stroke-dashoffset: 0; stroke: #b0b0b0; stroke-width: 0.5"/>
     </g>
     <g id="line2d_30">
      <g>
       <use xlink:href="#m73ad812879" x="484.101773" y="294.590247" style="stroke: #000000; stroke-width: 0.6"/>
      </g>
     </g>
    </g>
    <g id="xtick_16">
     <g id="line2d_31">
      <path d="M 504.380684 294.590247 
L 504.380684 22.318125 
" clip-path="url(#pbff4c4273f)" style="fill: none; stroke-dasharray: 1.85,0.8; stroke-dashoffset: 0; stroke: #b0b0b0; stroke-width: 0.5"/>
     </g>
     <g id="line2d_32">
      <g>
       <use xlink:href="#m73ad812879" x="504.380684" y="294.590247" style="stroke: #000000; stroke-width: 0.6"/>
      </g>
     </g>
    </g>
    <g id="xtick_17">
     <g id="line2d_33">
      <path d="M 521.526259 294.590247 
L 521.526259 22.318125 
" clip-path="url(#pbff4c4273f)" style="fill: none; stroke-dasharray: 1.85,0.8; stroke-dashoffset: 0; stroke: #b0b0b0; stroke-width: 0.5"/>
     </g>
     <g id="line2d_34">
      <g>
       <use xlink:href="#m73ad812879" x="521.526259" y="294.590247" style="stroke: #000000; stroke-width: 0.6"/>
      </g>
     </g>
    </g>
    <g id="xtick_18">
     <g id="line2d_35">
      <path d="M 536.378431 294.590247 
L 536.378431 22.318125 
" clip-path="url(#pbff4c4273f)" style="fill: none; stroke-dasharray: 1.85,0.8; stroke-dashoffset: 0; stroke: #b0b0b0; stroke-width: 0.5"/>
     </g>
     <g id="line2d_36">
      <g>
       <use xlink:href="#m73ad812879" x="536.378431" y="294.590247" style="stroke: #000000; stroke-width: 0.6"/>
      </g>
     </g>
    </g>
    <g id="xtick_19">
     <g id="line2d_37">
      <path d="M 549.478976 294.590247 
L 549.478976 22.318125 
" clip-path="url(#pbff4c4273f)" style="fill: none; stroke-dasharray: 1.85,0.8; stroke-dashoffset: 0; stroke: #b0b0b0; stroke-width: 0.5"/>
     </g>
     <g id="line2d_38">
      <g>
       <use xlink:href="#m73ad812879" x="549.478976" y="294.590247" style="stroke: #000000; stroke-width: 0.6"/>
      </g>
     </g>
    </g>
    <g id="text_4">
     <!-- Frequency (Hz) -->
     <g transform="translate(267.385625 342.526987) scale(0.1 -0.1)">
      <defs>
       <path id="DejaVuSans-46" d="M 628 4666 
L 3309 4666 
L 3309 4134 
L 1259 4134 
L 1259 2759 
L 3109 2759 
L 3109 2228 
L 1259 2228 
L 1259 0 
L 628 0 
L 628 4666 
z
" transform="scale(0.015625)"/>
       <path id="DejaVuSans-72" d="M 2631 2963 
Q 2534 3019 2420 3045 
Q 2306 3072 2169 3072 
Q 1681 3072 1420 2755 
Q 1159 2438 1159 1844 
L 1159 0 
L 581 0 
L 581 3500 
L 1159 3500 
L 1159 2956 
Q 1341 3275 1631 3429 
Q 1922 3584 2338 3584 
Q 2397 3584 2469 3576 
Q 2541 3569 2628 3553 
L 2631 2963 
z
" transform="scale(0.015625)"/>
       <path id="DejaVuSans-65" d="M 3597 1894 
L 3597 1613 
L 953 1613 
Q 991 1019 1311 708 
Q 1631 397 2203 397 
Q 2534 397 2845 478 
Q 3156 559 3463 722 
L 3463 178 
Q 3153 47 2828 -22 
Q 2503 -91 2169 -91 
Q 1331 -91 842 396 
Q 353 884 353 1716 
Q 353 2575 817 3079 
Q 1281 3584 2069 3584 
Q 2775 3584 3186 3129 
Q 3597 2675 3597 1894 
z
M 3022 2063 
Q 3016 2534 2758 2815 
Q 2500 3097 2075 3097 
Q 1594 3097 1305 2825 
Q 1016 2553 972 2059 
L 3022 2063 
z
" transform="scale(0.015625)"/>
       <path id="DejaVuSans-71" d="M 947 1747 
Q 947 1113 1208 752 
Q 1469 391 1925 391 
Q 2381 391 2643 752 
Q 2906 1113 2906 1747 
Q 2906 2381 2643 2742 
Q 2381 3103 1925 3103 
Q 1469 3103 1208 2742 
Q 947 2381 947 1747 
z
M 2906 525 
Q 2725 213 2448 61 
Q 2172 -91 1784 -91 
Q 1150 -91 751 415 
Q 353 922 353 1747 
Q 353 2572 751 3078 
Q 1150 3584 1784 3584 
Q 2172 3584 2448 3432 
Q 2725 3281 2906 2969 
L 2906 3500 
L 3481 3500 
L 3481 -1331 
L 2906 -1331 
L 2906 525 
z
" transform="scale(0.015625)"/>
       <path id="DejaVuSans-75" d="M 544 1381 
L 544 3500 
L 1119 3500 
L 1119 1403 
Q 1119 906 1312 657 
Q 1506 409 1894 409 
Q 2359 409 2629 706 
Q 2900 1003 2900 1516 
L 2900 3500 
L 3475 3500 
L 3475 0 
L 2900 0 
L 2900 538 
Q 2691 219 2414 64 
Q 2138 -91 1772 -91 
Q 1169 -91 856 284 
Q 544 659 544 1381 
z
M 1991 3584 
L 1991 3584 
z
" transform="scale(0.015625)"/>
       <path id="DejaVuSans-6e" d="M 3513 2113 
L 3513 0 
L 2938 0 
L 2938 2094 
Q 2938 2591 2744 2837 
Q 2550 3084 2163 3084 
Q 1697 3084 1428 2787 
Q 1159 2491 1159 1978 
L 1159 0 
L 581 0 
L 581 3500 
L 1159 3500 
L 1159 2956 
Q 1366 3272 1645 3428 
Q 1925 3584 2291 3584 
Q 2894 3584 3203 3211 
Q 3513 2838 3513 2113 
z
" transform="scale(0.015625)"/>
       <path id="DejaVuSans-63" d="M 3122 3366 
L 3122 2828 
Q 2878 2963 2633 3030 
Q 2388 3097 2138 3097 
Q 1578 3097 1268 2742 
Q 959 2388 959 1747 
Q 959 1106 1268 751 
Q 1578 397 2138 397 
Q 2388 397 2633 464 
Q 2878 531 3122 666 
L 3122 134 
Q 2881 22 2623 -34 
Q 2366 -91 2075 -91 
Q 1284 -91 818 406 
Q 353 903 353 1747 
Q 353 2603 823 3093 
Q 1294 3584 2113 3584 
Q 2378 3584 2631 3529 
Q 2884 3475 3122 3366 
z
" transform="scale(0.015625)"/>
       <path id="DejaVuSans-79" d="M 2059 -325 
Q 1816 -950 1584 -1140 
Q 1353 -1331 966 -1331 
L 506 -1331 
L 506 -850 
L 844 -850 
Q 1081 -850 1212 -737 
Q 1344 -625 1503 -206 
L 1606 56 
L 191 3500 
L 800 3500 
L 1894 763 
L 2988 3500 
L 3597 3500 
L 2059 -325 
z
" transform="scale(0.015625)"/>
       <path id="DejaVuSans-20" transform="scale(0.015625)"/>
       <path id="DejaVuSans-28" d="M 1984 4856 
Q 1566 4138 1362 3434 
Q 1159 2731 1159 2009 
Q 1159 1288 1364 580 
Q 1569 -128 1984 -844 
L 1484 -844 
Q 1016 -109 783 600 
Q 550 1309 550 2009 
Q 550 2706 781 3412 
Q 1013 4119 1484 4856 
L 1984 4856 
z
" transform="scale(0.015625)"/>
       <path id="DejaVuSans-48" d="M 628 4666 
L 1259 4666 
L 1259 2753 
L 3553 2753 
L 3553 4666 
L 4184 4666 
L 4184 0 
L 3553 0 
L 3553 2222 
L 1259 2222 
L 1259 0 
L 628 0 
L 628 4666 
z
" transform="scale(0.015625)"/>
       <path id="DejaVuSans-7a" d="M 353 3500 
L 3084 3500 
L 3084 2975 
L 922 459 
L 3084 459 
L 3084 0 
L 275 0 
L 275 525 
L 2438 3041 
L 353 3041 
L 353 3500 
z
" transform="scale(0.015625)"/>
       <path id="DejaVuSans-29" d="M 513 4856 
L 1013 4856 
Q 1481 4119 1714 3412 
Q 1947 2706 1947 2009 
Q 1947 1309 1714 600 
Q 1481 -109 1013 -844 
L 513 -844 
Q 928 -128 1133 580 
Q 1338 1288 1338 2009 
Q 1338 2731 1133 3434 
Q 928 4138 513 4856 
z
" transform="scale(0.015625)"/>
      </defs>
      <use xlink:href="#DejaVuSans-46"/>
      <use xlink:href="#DejaVuSans-72" transform="translate(50.269531 0)"/>
      <use xlink:href="#DejaVuSans-65" transform="translate(89.132812 0)"/>
      <use xlink:href="#DejaVuSans-71" transform="translate(150.65625 0)"/>
      <use xlink:href="#DejaVuSans-75" transform="translate(214.132812 0)"/>
      <use xlink:href="#DejaVuSans-65" transform="translate(277.511719 0)"/>
      <use xlink:href="#DejaVuSans-6e" transform="translate(339.035156 0)"/>
      <use xlink:href="#DejaVuSans-63" transform="translate(402.414062 0)"/>
      <use xlink:href="#DejaVuSans-79" transform="translate(457.394531 0)"/>
      <use xlink:href="#DejaVuSans-20" transform="translate(516.574219 0)"/>
      <use xlink:href="#DejaVuSans-28" transform="translate(548.361328 0)"/>
      <use xlink:href="#DejaVuSans-48" transform="translate(587.375 0)"/>
      <use xlink:href="#DejaVuSans-7a" transform="translate(662.570312 0)"/>
      <use xlink:href="#DejaVuSans-29" transform="translate(715.060547 0)"/>
     </g>
    </g>
   </g>
   <g id="matplotlib.axis_2">
    <g id="ytick_1">
     <g id="line2d_39">
      <path d="M 48.982813 294.590247 
L 561.197812 294.590247 
" clip-path="url(#pbff4c4273f)" style="fill: none; stroke-dasharray: 1.85,0.8; stroke-dashoffset: 0; stroke: #b0b0b0; stroke-width: 0.5"/>
     </g>
     <g id="line2d_40">
      <defs>
       <path id="m04c04303bb" d="M 0 0 
L -3.5 0 
" style="stroke: #000000; stroke-width: 0.8"/>
      </defs>
      <g>
       <use xlink:href="#m04c04303bb" x="48.982813" y="294.590247" style="stroke: #000000; stroke-width: 0.8"/>
      </g>
     </g>
     <g id="text_5">
      <!-- −20 -->
      <g transform="translate(20.878125 298.389466) scale(0.1 -0.1)">
       <defs>
        <path id="DejaVuSans-2212" d="M 678 2272 
L 4684 2272 
L 4684 1741 
L 678 1741 
L 678 2272 
z
" transform="scale(0.015625)"/>
        <path id="DejaVuSans-32" d="M 1228 531 
L 3431 531 
L 3431 0 
L 469 0 
L 469 531 
Q 828 903 1448 1529 
Q 2069 2156 2228 2338 
Q 2531 2678 2651 2914 
Q 2772 3150 2772 3378 
Q 2772 3750 2511 3984 
Q 2250 4219 1831 4219 
Q 1534 4219 1204 4116 
Q 875 4013 500 3803 
L 500 4441 
Q 881 4594 1212 4672 
Q 1544 4750 1819 4750 
Q 2544 4750 2975 4387 
Q 3406 4025 3406 3419 
Q 3406 3131 3298 2873 
Q 3191 2616 2906 2266 
Q 2828 2175 2409 1742 
Q 1991 1309 1228 531 
z
" transform="scale(0.015625)"/>
       </defs>
       <use xlink:href="#DejaVuSans-2212"/>
       <use xlink:href="#DejaVuSans-32" transform="translate(83.789062 0)"/>
       <use xlink:href="#DejaVuSans-30" transform="translate(147.412109 0)"/>
      </g>
     </g>
    </g>
    <g id="ytick_2">
     <g id="line2d_41">
      <path d="M 48.982813 255.694229 
L 561.197812 255.694229 
" clip-path="url(#pbff4c4273f)" style="fill: none; stroke-dasharray: 1.85,0.8; stroke-dashoffset: 0; stroke: #b0b0b0; stroke-width: 0.5"/>
     </g>
     <g id="line2d_42">
      <g>
       <use xlink:href="#m04c04303bb" x="48.982813" y="255.694229" style="stroke: #000000; stroke-width: 0.8"/>
      </g>
     </g>
     <g id="text_6">
      <!-- −10 -->
      <g transform="translate(20.878125 259.493448) scale(0.1 -0.1)">
       <use xlink:href="#DejaVuSans-2212"/>
       <use xlink:href="#DejaVuSans-31" transform="translate(83.789062 0)"/>
       <use xlink:href="#DejaVuSans-30" transform="translate(147.412109 0)"/>
      </g>
     </g>
    </g>
    <g id="ytick_3">
     <g id="line2d_43">
      <path d="M 48.982813 216.798212 
L 561.197812 216.798212 
" clip-path="url(#pbff4c4273f)" style="fill: none; stroke-dasharray: 1.85,0.8; stroke-dashoffset: 0; stroke: #b0b0b0; stroke-width: 0.5"/>
     </g>
     <g id="line2d_44">
      <g>
       <use xlink:href="#m04c04303bb" x="48.982813" y="216.798212" style="stroke: #000000; stroke-width: 0.8"/>
      </g>
     </g>
     <g id="text_7">
      <!-- 0 -->
      <g transform="translate(35.620313 220.597431) scale(0.1 -0.1)">
       <use xlink:href="#DejaVuSans-30"/>
      </g>
     </g>
    </g>
    <g id="ytick_4">
     <g id="line2d_45">
      <path d="M 48.982813 177.902195 
L 561.197812 177.902195 
" clip-path="url(#pbff4c4273f)" style="fill: none; stroke-dasharray: 1.85,0.8; stroke-dashoffset: 0; stroke: #b0b0b0; stroke-width: 0.5"/>
     </g>
     <g id="line2d_46">
      <g>
       <use xlink:href="#m04c04303bb" x="48.982813" y="177.902195" style="stroke: #000000; stroke-width: 0.8"/>
      </g>
     </g>
     <g id="text_8">
      <!-- 10 -->
      <g transform="translate(29.257813 181.701413) scale(0.1 -0.1)">
       <use xlink:href="#DejaVuSans-31"/>
       <use xlink:href="#DejaVuSans-30" transform="translate(63.623047 0)"/>
      </g>
     </g>
    </g>
    <g id="ytick_5">
     <g id="line2d_47">
      <path d="M 48.982813 139.006177 
L 561.197812 139.006177 
" clip-path="url(#pbff4c4273f)" style="fill: none; stroke-dasharray: 1.85,0.8; stroke-dashoffset: 0; stroke: #b0b0b0; stroke-width: 0.5"/>
     </g>
     <g id="line2d_48">
      <g>
       <use xlink:href="#m04c04303bb" x="48.982813" y="139.006177" style="stroke: #000000; stroke-width: 0.8"/>
      </g>
     </g>
     <g id="text_9">
      <!-- 20 -->
      <g transform="translate(29.257813 142.805396) scale(0.1 -0.1)">
       <use xlink:href="#DejaVuSans-32"/>
       <use xlink:href="#DejaVuSans-30" transform="translate(63.623047 0)"/>
      </g>
     </g>
    </g>
    <g id="ytick_6">
     <g id="line2d_49">
      <path d="M 48.982813 100.11016 
L 561.197812 100.11016 
" clip-path="url(#pbff4c4273f)" style="fill: none; stroke-dasharray: 1.85,0.8; stroke-dashoffset: 0; stroke: #b0b0b0; stroke-width: 0.5"/>
     </g>
     <g id="line2d_50">
      <g>
       <use xlink:href="#m04c04303bb" x="48.982813" y="100.11016" style="stroke: #000000; stroke-width: 0.8"/>
      </g>
     </g>
     <g id="text_10">
      <!-- 30 -->
      <g transform="translate(29.257813 103.909379) scale(0.1 -0.1)">
       <defs>
        <path id="DejaVuSans-33" d="M 2597 2516 
Q 3050 2419 3304 2112 
Q 3559 1806 3559 1356 
Q 3559 666 3084 287 
Q 2609 -91 1734 -91 
Q 1441 -91 1130 -33 
Q 819 25 488 141 
L 488 750 
Q 750 597 1062 519 
Q 1375 441 1716 441 
Q 2309 441 2620 675 
Q 2931 909 2931 1356 
Q 2931 1769 2642 2001 
Q 2353 2234 1838 2234 
L 1294 2234 
L 1294 2753 
L 1863 2753 
Q 2328 2753 2575 2939 
Q 2822 3125 2822 3475 
Q 2822 3834 2567 4026 
Q 2313 4219 1838 4219 
Q 1578 4219 1281 4162 
Q 984 4106 628 3988 
L 628 4550 
Q 988 4650 1302 4700 
Q 1616 4750 1894 4750 
Q 2613 4750 3031 4423 
Q 3450 4097 3450 3541 
Q 3450 3153 3228 2886 
Q 3006 2619 2597 2516 
z
" transform="scale(0.015625)"/>
       </defs>
       <use xlink:href="#DejaVuSans-33"/>
       <use xlink:href="#DejaVuSans-30" transform="translate(63.623047 0)"/>
      </g>
     </g>
    </g>
    <g id="ytick_7">
     <g id="line2d_51">
      <path d="M 48.982813 61.214142 
L 561.197812 61.214142 
" clip-path="url(#pbff4c4273f)" style="fill: none; stroke-dasharray: 1.85,0.8; stroke-dashoffset: 0; stroke: #b0b0b0; stroke-width: 0.5"/>
     </g>
     <g id="line2d_52">
      <g>
       <use xlink:href="#m04c04303bb" x="48.982813" y="61.214142" style="stroke: #000000; stroke-width: 0.8"/>
      </g>
     </g>
     <g id="text_11">
      <!-- 40 -->
      <g transform="translate(29.257813 65.013361) scale(0.1 -0.1)">
       <defs>
        <path id="DejaVuSans-34" d="M 2419 4116 
L 825 1625 
L 2419 1625 
L 2419 4116 
z
M 2253 4666 
L 3047 4666 
L 3047 1625 
L 3713 1625 
L 3713 1100 
L 3047 1100 
L 3047 0 
L 2419 0 
L 2419 1100 
L 313 1100 
L 313 1709 
L 2253 4666 
z
" transform="scale(0.015625)"/>
       </defs>
       <use xlink:href="#DejaVuSans-34"/>
       <use xlink:href="#DejaVuSans-30" transform="translate(63.623047 0)"/>
      </g>
     </g>
    </g>
    <g id="ytick_8">
     <g id="line2d_53">
      <path d="M 48.982813 22.318125 
L 561.197812 22.318125 
" clip-path="url(#pbff4c4273f)" style="fill: none; stroke-dasharray: 1.85,0.8; stroke-dashoffset: 0; stroke: #b0b0b0; stroke-width: 0.5"/>
     </g>
     <g id="line2d_54">
      <g>
       <use xlink:href="#m04c04303bb" x="48.982813" y="22.318125" style="stroke: #000000; stroke-width: 0.8"/>
      </g>
     </g>
     <g id="text_12">
      <!-- 50 -->
      <g transform="translate(29.257813 26.117344) scale(0.1 -0.1)">
       <defs>
        <path id="DejaVuSans-35" d="M 691 4666 
L 3169 4666 
L 3169 4134 
L 1269 4134 
L 1269 2991 
Q 1406 3038 1543 3061 
Q 1681 3084 1819 3084 
Q 2600 3084 3056 2656 
Q 3513 2228 3513 1497 
Q 3513 744 3044 326 
Q 2575 -91 1722 -91 
Q 1428 -91 1123 -41 
Q 819 9 494 109 
L 494 744 
Q 775 591 1075 516 
Q 1375 441 1709 441 
Q 2250 441 2565 725 
Q 2881 1009 2881 1497 
Q 2881 1984 2565 2268 
Q 2250 2553 1709 2553 
Q 1456 2553 1204 2497 
Q 953 2441 691 2322 
L 691 4666 
z
" transform="scale(0.015625)"/>
       </defs>
       <use xlink:href="#DejaVuSans-35"/>
       <use xlink:href="#DejaVuSans-30" transform="translate(63.623047 0)"/>
      </g>
     </g>
    </g>
    <g id="text_13">
     <!-- SPL (dBA) -->
     <g transform="translate(14.798438 182.944811) rotate(-90) scale(0.1 -0.1)">
      <defs>
       <path id="DejaVuSans-53" d="M 3425 4513 
L 3425 3897 
Q 3066 4069 2747 4153 
Q 2428 4238 2131 4238 
Q 1616 4238 1336 4038 
Q 1056 3838 1056 3469 
Q 1056 3159 1242 3001 
Q 1428 2844 1947 2747 
L 2328 2669 
Q 3034 2534 3370 2195 
Q 3706 1856 3706 1288 
Q 3706 609 3251 259 
Q 2797 -91 1919 -91 
Q 1588 -91 1214 -16 
Q 841 59 441 206 
L 441 856 
Q 825 641 1194 531 
Q 1563 422 1919 422 
Q 2459 422 2753 634 
Q 3047 847 3047 1241 
Q 3047 1584 2836 1778 
Q 2625 1972 2144 2069 
L 1759 2144 
Q 1053 2284 737 2584 
Q 422 2884 422 3419 
Q 422 4038 858 4394 
Q 1294 4750 2059 4750 
Q 2388 4750 2728 4690 
Q 3069 4631 3425 4513 
z
" transform="scale(0.015625)"/>
       <path id="DejaVuSans-50" d="M 1259 4147 
L 1259 2394 
L 2053 2394 
Q 2494 2394 2734 2622 
Q 2975 2850 2975 3272 
Q 2975 3691 2734 3919 
Q 2494 4147 2053 4147 
L 1259 4147 
z
M 628 4666 
L 2053 4666 
Q 2838 4666 3239 4311 
Q 3641 3956 3641 3272 
Q 3641 2581 3239 2228 
Q 2838 1875 2053 1875 
L 1259 1875 
L 1259 0 
L 628 0 
L 628 4666 
z
" transform="scale(0.015625)"/>
       <path id="DejaVuSans-4c" d="M 628 4666 
L 1259 4666 
L 1259 531 
L 3531 531 
L 3531 0 
L 628 0 
L 628 4666 
z
" transform="scale(0.015625)"/>
       <path id="DejaVuSans-64" d="M 2906 2969 
L 2906 4863 
L 3481 4863 
L 3481 0 
L 2906 0 
L 2906 525 
Q 2725 213 2448 61 
Q 2172 -91 1784 -91 
Q 1150 -91 751 415 
Q 353 922 353 1747 
Q 353 2572 751 3078 
Q 1150 3584 1784 3584 
Q 2172 3584 2448 3432 
Q 2725 3281 2906 2969 
z
M 947 1747 
Q 947 1113 1208 752 
Q 1469 391 1925 391 
Q 2381 391 2643 752 
Q 2906 1113 2906 1747 
Q 2906 2381 2643 2742 
Q 2381 3103 1925 3103 
Q 1469 3103 1208 2742 
Q 947 2381 947 1747 
z
" transform="scale(0.015625)"/>
       <path id="DejaVuSans-42" d="M 1259 2228 
L 1259 519 
L 2272 519 
Q 2781 519 3026 730 
Q 3272 941 3272 1375 
Q 3272 1813 3026 2020 
Q 2781 2228 2272 2228 
L 1259 2228 
z
M 1259 4147 
L 1259 2741 
L 2194 2741 
Q 2656 2741 2882 2914 
Q 3109 3088 3109 3444 
Q 3109 3797 2882 3972 
Q 2656 4147 2194 4147 
L 1259 4147 
z
M 628 4666 
L 2241 4666 
Q 2963 4666 3353 4366 
Q 3744 4066 3744 3513 
Q 3744 3084 3544 2831 
Q 3344 2578 2956 2516 
Q 3422 2416 3680 2098 
Q 3938 1781 3938 1306 
Q 3938 681 3513 340 
Q 3088 0 2303 0 
L 628 0 
L 628 4666 
z
" transform="scale(0.015625)"/>
       <path id="DejaVuSans-41" d="M 2188 4044 
L 1331 1722 
L 3047 1722 
L 2188 4044 
z
M 1831 4666 
L 2547 4666 
L 4325 0 
L 3669 0 
L 3244 1197 
L 1141 1197 
L 716 0 
L 50 0 
L 1831 4666 
z
" transform="scale(0.015625)"/>
      </defs>
      <use xlink:href="#DejaVuSans-53"/>
      <use xlink:href="#DejaVuSans-50" transform="translate(63.476562 0)"/>
      <use xlink:href="#DejaVuSans-4c" transform="translate(123.779297 0)"/>
      <use xlink:href="#DejaVuSans-20" transform="translate(179.492188 0)"/>
      <use xlink:href="#DejaVuSans-28" transform="translate(211.279297 0)"/>
      <use xlink:href="#DejaVuSans-64" transform="translate(250.292969 0)"/>
      <use xlink:href="#DejaVuSans-42" transform="translate(313.769531 0)"/>
      <use xlink:href="#DejaVuSans-41" transform="translate(382.373047 0)"/>
      <use xlink:href="#DejaVuSans-29" transform="translate(450.78125 0)"/>
     </g>
    </g>
   </g>
   <g id="line2d_55">
    <path d="M 51.493242 103.981171 
L 57.198394 98.99088 
L 62.625131 97.082989 
L 67.79937 98.658864 
L 72.743565 102.84859 
L 77.477304 103.540666 
L 82.017775 100.31227 
L 86.38014 98.022165 
L 90.577849 91.938212 
L 94.622879 96.640188 
L 98.525949 96.174045 
L 102.296685 92.413628 
L 105.943768 93.953649 
L 109.475052 98.018445 
L 112.897663 102.301983 
L 116.218091 103.367824 
L 119.44226 104.63027 
L 122.575596 111.211956 
L 125.623077 113.573192 
L 128.589281 114.242882 
L 131.478432 114.28886 
L 134.294433 113.171167 
L 137.040895 108.452278 
L 139.721171 101.770061 
L 142.338376 97.968447 
L 144.89541 96.777949 
L 147.394977 97.527849 
L 149.839605 101.00956 
L 152.231656 102.593385 
L 154.573344 103.153929 
L 156.866746 105.196263 
L 159.113814 105.45824 
L 161.316383 107.772535 
L 163.47618 114.332597 
L 165.594836 116.157588 
L 169.714791 109.141303 
L 171.718919 106.150884 
L 173.687573 104.416691 
L 175.621988 100.684073 
L 177.523335 98.832036 
L 179.392725 95.509076 
L 181.231214 93.972389 
L 183.039808 90.900222 
L 184.819463 87.03793 
L 186.571091 88.845703 
L 188.295561 89.997907 
L 189.993702 91.316077 
L 191.666306 93.61091 
L 193.31413 91.260787 
L 194.937897 90.328309 
L 196.5383 90.200347 
L 198.116001 91.721445 
L 199.671636 91.464597 
L 201.205813 91.484879 
L 202.719116 90.418869 
L 205.685321 94.281214 
L 207.139277 92.75497 
L 208.574472 89.572744 
L 209.991384 89.606328 
L 211.390472 88.479749 
L 212.77218 89.132348 
L 215.485146 92.102742 
L 216.817211 93.925846 
L 218.133511 93.943298 
L 219.434416 94.537451 
L 220.720281 97.027442 
L 221.99145 99.80825 
L 223.248255 97.779222 
L 224.491017 94.376989 
L 225.720047 94.088116 
L 226.935645 97.030781 
L 228.1381 95.25234 
L 230.504702 90.737648 
L 231.669383 89.252004 
L 232.821996 89.978953 
L 233.962786 88.868507 
L 235.091994 84.43496 
L 236.209854 80.878108 
L 237.31659 76.962014 
L 238.412422 75.993876 
L 239.497563 73.664041 
L 240.572219 73.417422 
L 241.636592 74.202699 
L 242.690875 73.648834 
L 243.735259 73.270776 
L 244.769928 75.672767 
L 245.79506 76.24232 
L 246.810831 77.48644 
L 247.817408 76.841828 
L 248.814958 74.691246 
L 249.803641 73.009869 
L 250.783613 72.815836 
L 251.755026 75.251017 
L 252.718028 78.054001 
L 253.672764 80.134866 
L 254.619375 79.223026 
L 255.557997 81.10015 
L 257.411808 82.428046 
L 258.327254 82.813882 
L 260.135848 87.216429 
L 261.029235 91.438912 
L 261.915503 98.019705 
L 262.794765 101.711448 
L 263.667131 106.632873 
L 264.532708 108.871039 
L 265.391601 109.183899 
L 266.243912 107.885286 
L 267.089742 106.039103 
L 268.762346 100.455932 
L 269.589309 97.348976 
L 270.41017 95.082428 
L 271.225016 91.788322 
L 272.033937 89.607015 
L 272.837017 87.767822 
L 273.634339 86.479364 
L 274.425987 83.669291 
L 275.212041 82.84917 
L 275.992578 79.978544 
L 276.767675 76.336854 
L 277.537409 75.006461 
L 278.301853 76.584093 
L 279.061078 79.419133 
L 280.564156 87.887896 
L 281.308146 91.58577 
L 282.047192 92.611674 
L 282.78136 91.631038 
L 283.510714 90.401621 
L 284.235317 87.977958 
L 284.955229 86.977903 
L 285.670512 89.037183 
L 286.381224 88.143554 
L 287.087423 90.11178 
L 288.486512 95.397113 
L 289.179512 95.795672 
L 289.86822 94.519487 
L 290.55269 96.436965 
L 291.232974 96.052752 
L 292.581186 100.764175 
L 293.249212 101.242788 
L 293.91325 99.654553 
L 294.573348 99.720888 
L 295.229551 98.980649 
L 295.881905 99.182005 
L 296.530455 98.983798 
L 297.175246 99.888885 
L 297.81632 99.99522 
L 298.453721 99.813283 
L 299.087489 98.238522 
L 299.717667 98.529864 
L 300.344294 99.578198 
L 300.967411 101.966669 
L 301.587057 103.560081 
L 302.203269 104.377617 
L 302.816087 104.687186 
L 303.425546 104.510678 
L 304.031684 106.174918 
L 304.634537 107.505016 
L 305.23414 107.712072 
L 305.830528 107.46163 
L 306.423735 108.076781 
L 307.013795 110.170606 
L 307.600741 110.890074 
L 308.765423 108.094323 
L 309.343222 107.766416 
L 309.918035 106.05942 
L 310.489893 107.046434 
L 311.058825 107.301909 
L 311.624863 108.25197 
L 312.188034 110.795328 
L 312.748368 109.388617 
L 313.305893 109.595861 
L 313.860638 111.815383 
L 314.412629 112.148313 
L 314.961895 112.161378 
L 315.508462 111.430445 
L 316.052356 112.142341 
L 316.593603 110.62824 
L 317.132229 110.305985 
L 317.668259 108.601796 
L 318.201719 109.670177 
L 319.261022 108.521169 
L 319.786915 109.298767 
L 320.310333 109.329921 
L 320.831299 107.678269 
L 321.349836 105.162286 
L 321.865968 103.562685 
L 322.379715 102.745983 
L 322.8911 99.309374 
L 323.400145 98.137677 
L 323.90687 98.13509 
L 324.913448 97.02933 
L 325.413341 98.678611 
L 325.910998 99.407851 
L 326.406438 99.493172 
L 326.899681 101.716922 
L 327.390746 107.012341 
L 327.879652 108.281286 
L 328.366419 110.953789 
L 328.851065 111.519529 
L 329.333609 114.089328 
L 330.29246 113.29143 
L 330.768804 113.817804 
L 331.243116 113.02915 
L 331.715414 111.706284 
L 332.185716 113.78939 
L 332.654037 114.784943 
L 333.120394 114.714751 
L 333.584804 116.318339 
L 334.047283 117.294179 
L 334.507847 120.019139 
L 334.966512 120.549987 
L 335.423294 120.072067 
L 335.878206 121.769124 
L 336.331266 121.818524 
L 336.782489 122.353507 
L 337.231887 123.065587 
L 338.125274 120.418036 
L 338.569291 120.49901 
L 339.452042 121.044327 
L 339.890805 118.411009 
L 340.327843 118.29623 
L 340.76317 116.588383 
L 341.196801 113.987598 
L 341.628747 114.014162 
L 342.48764 111.77416 
L 342.914612 114.054911 
L 343.339952 114.739162 
L 344.185781 114.621869 
L 344.606296 117.892988 
L 345.025227 118.668191 
L 345.858385 114.307457 
L 346.272636 113.660615 
L 346.685349 113.925968 
L 347.096536 111.885135 
L 347.506209 110.829841 
L 347.914379 111.606756 
L 348.321056 111.057799 
L 348.726251 110.320241 
L 349.129976 110.575573 
L 349.532241 109.74688 
L 349.933056 110.40356 
L 350.730379 119.457235 
L 351.126907 120.715501 
L 351.522027 121.291175 
L 351.915748 117.511991 
L 352.30808 115.892659 
L 352.699034 113.28278 
L 353.088617 112.517095 
L 353.476841 112.93318 
L 353.863715 113.821737 
L 354.249248 113.865237 
L 354.633449 114.415394 
L 355.016327 114.298898 
L 355.397892 114.51471 
L 355.778153 113.840379 
L 356.157118 114.07779 
L 356.911195 115.597579 
L 357.286326 116.993522 
L 357.660195 116.585699 
L 358.032812 114.17638 
L 358.404185 114.454711 
L 358.774322 115.942559 
L 359.143232 118.230138 
L 359.510922 116.588561 
L 359.8774 115.569139 
L 360.242675 116.913594 
L 361.331356 114.097008 
L 361.691895 111.251663 
L 362.051269 110.648815 
L 362.409485 111.601126 
L 362.766551 111.380005 
L 363.122475 112.405116 
L 363.477263 114.956241 
L 363.830924 119.710118 
L 364.183463 121.345843 
L 364.534889 123.952088 
L 364.885207 124.654045 
L 365.234426 127.312151 
L 365.582552 127.909787 
L 365.929591 125.501973 
L 366.275551 125.355807 
L 366.620439 125.453694 
L 367.307021 129.480193 
L 367.64873 128.299044 
L 367.989392 125.576139 
L 368.329014 124.084403 
L 369.341702 118.335095 
L 369.677225 116.691353 
L 370.01174 119.516854 
L 370.345252 119.745364 
L 370.677766 122.822127 
L 371.00929 124.799969 
L 371.339828 122.077907 
L 371.669387 120.818847 
L 371.997973 121.114874 
L 372.32559 121.091339 
L 372.977945 114.890581 
L 373.302692 115.603487 
L 373.626495 116.70455 
L 374.271286 109.963765 
L 374.592285 109.962991 
L 374.91236 109.271884 
L 375.231517 109.17143 
L 375.54976 108.127622 
L 375.867096 110.033777 
L 376.183529 106.548817 
L 376.499064 105.720265 
L 376.813707 106.449361 
L 377.127461 104.331638 
L 377.440334 104.955909 
L 377.752329 103.778222 
L 378.373705 103.488636 
L 378.991629 105.460529 
L 379.299309 106.883853 
L 380.217273 103.987886 
L 380.521586 106.770214 
L 381.127724 107.714813 
L 381.429559 107.55786 
L 381.730577 106.404361 
L 382.030782 104.475426 
L 382.33018 104.565247 
L 382.628773 105.964882 
L 382.926567 106.527265 
L 383.223566 109.291322 
L 383.519775 110.835343 
L 383.815196 110.208972 
L 384.109835 107.139466 
L 384.403695 106.242638 
L 384.696781 104.827711 
L 384.989097 102.505017 
L 385.571434 100.658032 
L 385.861463 100.386338 
L 386.150737 99.60408 
L 386.439262 102.114084 
L 387.014075 109.564784 
L 387.300371 109.865063 
L 387.585932 108.646549 
L 387.870762 108.03418 
L 389.002844 93.718419 
L 389.284073 93.572808 
L 389.564593 92.924533 
L 389.844407 94.683968 
L 390.123519 95.36131 
L 390.401933 95.219345 
L 390.679651 96.93963 
L 390.956677 96.990588 
L 391.233016 97.573652 
L 391.508669 97.606303 
L 391.783641 97.393997 
L 392.057935 95.740301 
L 392.331554 93.079376 
L 392.604501 92.578188 
L 393.148395 94.806601 
L 393.689642 90.780125 
L 394.228268 90.841948 
L 394.496606 90.03384 
L 394.764299 90.290508 
L 395.031348 92.269045 
L 395.828671 104.886425 
L 396.09318 106.285757 
L 396.620319 110.037164 
L 396.882955 110.217477 
L 397.144971 110.137482 
L 397.406372 108.661242 
L 397.667161 109.517036 
L 397.927339 111.351286 
L 398.18691 112.366381 
L 398.445876 112.68666 
L 398.704241 113.597542 
L 398.962007 115.172583 
L 399.219177 115.966512 
L 399.475754 114.916299 
L 399.731741 114.970692 
L 399.98714 115.347322 
L 400.241953 115.157724 
L 400.496184 115.790153 
L 400.749836 117.115176 
L 401.00291 117.452693 
L 401.25541 118.232631 
L 402.009488 125.894611 
L 402.259715 125.883272 
L 402.509381 124.906772 
L 402.758488 126.849188 
L 403.007038 126.0123 
L 403.255033 123.913699 
L 403.502477 122.919965 
L 403.749372 122.90423 
L 403.99572 122.669638 
L 404.241524 122.154782 
L 404.486785 123.39094 
L 404.731507 123.042783 
L 405.462459 129.956769 
L 405.705046 131.321764 
L 405.947105 131.041698 
L 406.188638 132.320556 
L 406.910107 129.610937 
L 407.149561 129.558221 
L 407.3885 128.908753 
L 407.626927 129.818148 
L 407.864843 134.514426 
L 408.102252 134.535764 
L 408.339156 131.484329 
L 408.575556 130.445786 
L 408.811454 128.899576 
L 409.046853 126.442261 
L 409.281755 127.182419 
L 409.516162 125.467164 
L 409.750076 124.887842 
L 409.983499 122.184936 
L 410.912324 132.351827 
L 411.143323 138.599306 
L 411.373843 140.470162 
L 411.603887 145.158794 
L 411.833456 145.85519 
L 412.062552 145.780102 
L 412.291177 145.283159 
L 412.519333 142.603876 
L 412.747022 142.717529 
L 412.974246 140.407819 
L 413.201007 140.371544 
L 413.427306 137.111773 
L 413.653146 136.05116 
L 414.327927 127.810163 
L 415.221314 125.131683 
L 415.443544 126.38799 
L 415.665331 126.817912 
L 416.107582 129.963518 
L 416.32805 133.496376 
L 416.548082 134.987726 
L 416.76768 135.38736 
L 416.986844 137.926504 
L 417.205578 137.710365 
L 417.423882 139.569544 
L 417.641759 143.907033 
L 417.85921 144.418018 
L 418.076237 143.184487 
L 418.724787 136.450645 
L 418.940133 136.864832 
L 419.155063 139.26181 
L 419.797371 142.576651 
L 420.435991 141.554644 
L 420.648052 141.725864 
L 420.85971 142.602112 
L 421.070966 140.576655 
L 421.281821 141.136338 
L 421.492277 139.912361 
L 421.702336 140.410621 
L 421.911999 142.779739 
L 422.121267 142.760589 
L 422.330142 140.036184 
L 422.538626 139.634052 
L 422.74672 139.930658 
L 423.368675 145.403966 
L 423.575223 145.51069 
L 423.781388 147.463428 
L 424.192576 145.055401 
L 424.397601 141.920491 
L 424.602249 140.521028 
L 424.806521 140.722696 
L 425.213943 136.110967 
L 425.417095 134.91223 
L 425.619878 136.645801 
L 425.822291 136.83338 
L 426.226016 136.426767 
L 426.42733 138.279785 
L 426.628281 138.739367 
L 426.828869 138.325071 
L 427.029096 138.526214 
L 427.228963 139.547967 
L 427.428472 143.515583 
L 427.627623 141.724175 
L 427.826419 141.700406 
L 428.02486 141.096306 
L 428.420682 143.181021 
L 428.618067 143.347083 
L 428.815101 142.168168 
L 429.011788 140.092168 
L 429.208127 139.887846 
L 429.40412 135.895052 
L 429.599768 135.115887 
L 429.990036 137.179365 
L 430.184657 138.023819 
L 430.378938 140.490676 
L 430.572881 141.106896 
L 430.766486 140.777508 
L 430.959755 141.662013 
L 431.152688 140.895114 
L 431.729488 135.624649 
L 431.921092 135.887683 
L 432.112367 135.732437 
L 432.303313 136.070897 
L 432.684225 135.510376 
L 433.063836 136.951291 
L 433.253157 137.696224 
L 433.819194 135.554519 
L 434.007235 134.975029 
L 434.194958 136.071033 
L 434.382366 140.306351 
L 434.569457 139.752219 
L 434.756235 138.053148 
L 434.9427 137.566935 
L 435.128852 137.612495 
L 435.314693 138.132797 
L 435.500225 139.45801 
L 435.685447 138.095553 
L 435.870362 137.695816 
L 436.05497 135.415252 
L 436.239271 134.983396 
L 436.606961 135.953336 
L 436.790351 137.504456 
L 436.973439 137.533525 
L 437.156227 137.102202 
L 437.520903 139.470975 
L 437.702793 143.820359 
L 438.246687 147.327681 
L 438.427396 144.491787 
L 438.607811 144.070535 
L 438.787934 145.743731 
L 438.967766 144.562955 
L 439.147308 146.202218 
L 439.326561 145.992464 
L 439.505525 142.251103 
L 439.684201 141.049379 
L 439.862591 142.285684 
L 440.040695 144.538893 
L 440.218515 144.873555 
L 440.39605 146.203523 
L 440.750274 142.991668 
L 440.926963 141.983938 
L 441.103373 141.766663 
L 441.279503 141.295065 
L 441.981247 147.768322 
L 442.155993 151.169129 
L 442.330466 150.235615 
L 442.678591 149.829446 
L 443.198745 153.219984 
L 443.544168 159.418087 
L 443.716478 159.020884 
L 444.060299 154.82275 
L 444.231812 155.556122 
L 444.574047 157.946744 
L 444.915231 155.459715 
L 445.085432 156.377323 
L 445.425054 159.27236 
L 445.763642 158.597006 
L 445.93255 158.668345 
L 446.269599 154.694876 
L 446.60563 155.97304 
L 446.773265 155.17736 
L 447.10778 151.751542 
L 447.441291 151.150177 
L 448.270722 165.590272 
L 448.435868 165.411681 
L 448.765427 160.067588 
L 449.257942 143.867066 
L 449.42163 143.966911 
L 449.585078 144.857859 
L 449.748285 143.447829 
L 450.722535 155.973243 
L 450.884083 155.854578 
L 451.045397 159.537008 
L 451.206478 160.065149 
L 451.688324 169.349034 
L 452.008399 172.303156 
L 452.327556 170.711747 
L 452.486792 169.189024 
L 452.804581 171.913043 
L 453.121464 170.129336 
L 453.279568 170.273294 
L 453.437448 171.882934 
L 453.595104 171.860775 
L 453.752536 173.440565 
L 453.909746 176.369563 
L 454.223501 174.136752 
L 454.380047 175.087732 
L 454.848368 171.411468 
L 455.004038 172.262627 
L 455.15949 172.433738 
L 455.314726 172.783775 
L 455.469745 174.728939 
L 455.624548 174.371728 
L 455.779136 174.44008 
L 455.933509 173.906929 
L 456.087669 174.931363 
L 456.241615 174.572795 
L 456.395348 174.552604 
L 456.54887 179.036187 
L 457.313313 172.645898 
L 457.465573 172.492933 
L 457.617625 173.03854 
L 457.76947 174.110338 
L 458.223763 173.715525 
L 458.525598 175.198958 
L 458.676209 175.243848 
L 458.826616 174.009122 
L 458.97682 175.947565 
L 459.126822 180.23153 
L 459.276621 179.070093 
L 459.426219 179.020665 
L 459.724813 183.936712 
L 460.171206 180.901916 
L 460.319606 180.236134 
L 460.615814 183.052868 
L 460.763623 183.636406 
L 460.911236 181.90276 
L 461.058652 183.099357 
L 461.205874 182.975776 
L 461.352902 181.502965 
L 461.792821 186.535843 
L 461.939075 186.411804 
L 462.085136 186.043104 
L 462.376686 181.996065 
L 462.522175 182.365081 
L 462.667473 181.494216 
L 463.102234 172.94888 
L 463.246777 173.850581 
L 463.535301 176.486658 
L 463.679283 175.755668 
L 463.823079 177.742264 
L 463.966689 177.737251 
L 464.110114 174.673263 
L 464.253355 174.470403 
L 464.396411 175.283638 
L 464.539283 178.092969 
L 464.824478 175.234597 
L 464.966802 175.210451 
L 465.108944 173.352923 
L 465.534283 181.109499 
L 465.816942 182.885659 
L 465.958002 182.023495 
L 466.098884 183.8926 
L 466.239587 183.59581 
L 466.380113 182.760425 
L 466.520461 184.267652 
L 467.080091 176.675793 
L 467.219559 176.304879 
L 467.358853 176.5947 
L 467.497972 176.438099 
L 467.775691 179.478159 
L 467.91429 181.827918 
L 468.052717 181.67416 
L 468.190972 182.117664 
L 468.329055 183.061505 
L 468.466967 182.701755 
L 468.604709 180.88033 
L 468.74228 180.778542 
L 468.879681 178.727307 
L 469.153974 179.624579 
L 469.427593 180.579824 
L 469.700541 183.232463 
L 469.836764 181.966623 
L 469.97282 182.211382 
L 470.10871 181.631839 
L 470.244435 182.511796 
L 470.650617 190.87389 
L 470.785682 190.68114 
L 471.055321 188.889808 
L 471.189896 187.5943 
L 471.458558 183.733638 
L 471.592646 183.165182 
L 471.726573 179.448966 
L 471.993943 179.879543 
L 472.260673 181.937774 
L 472.526764 183.846816 
L 472.659571 184.815321 
L 472.924711 184.760734 
L 473.18922 187.322585 
L 473.321239 186.552948 
L 473.584808 183.808511 
L 473.716359 183.679393 
L 473.847754 183.368678 
L 473.978994 185.032566 
L 474.11008 184.259091 
L 474.241011 185.242581 
L 474.371788 184.616581 
L 474.7632 176.864586 
L 474.893365 178.122218 
L 475.153239 174.724712 
L 475.282949 175.002414 
L 475.412508 175.577446 
L 475.541916 175.634266 
L 475.671173 175.311376 
L 475.929238 172.405707 
L 476.058047 172.313992 
L 476.186706 170.481032 
L 476.44358 173.485739 
L 476.571794 171.808138 
L 476.827781 174.698756 
L 477.083179 176.590433 
L 477.465181 172.888562 
L 477.719122 168.840249 
L 477.845875 167.48759 
L 477.972484 168.803345 
L 478.225271 167.570212 
L 478.351449 167.615957 
L 478.603377 170.632427 
L 478.729127 167.648211 
L 478.854735 167.544292 
L 479.105527 165.508455 
L 479.230711 165.699542 
L 479.480658 161.176362 
L 479.605421 162.291776 
L 479.730044 161.370354 
L 479.978872 164.674302 
L 480.103077 165.418227 
L 480.227144 167.027323 
L 480.351073 163.550285 
L 480.722033 166.580258 
L 480.968654 172.563858 
L 481.21473 171.336818 
L 481.582825 177.008277 
L 481.705253 177.917074 
L 481.827547 175.50617 
L 482.193623 182.490833 
L 482.315381 182.337605 
L 482.437006 182.413872 
L 482.679858 182.957256 
L 482.801086 182.351081 
L 483.163977 178.53885 
L 483.405248 176.997942 
L 483.525688 177.653653 
L 483.766177 174.434138 
L 484.006147 176.488973 
L 484.125938 176.660703 
L 484.2456 177.86301 
L 484.484539 173.776058 
L 484.722966 175.68757 
L 484.841988 174.988393 
L 484.960883 175.073012 
L 485.198292 176.261185 
L 485.435195 179.664539 
L 485.553458 180.059316 
L 485.671595 181.494163 
L 485.789607 181.485909 
L 486.025255 185.638998 
L 486.260406 183.383799 
L 486.377795 183.958985 
L 486.49506 186.386811 
L 486.612202 185.86317 
L 486.846116 188.462751 
L 486.962889 186.846108 
L 487.079539 188.215942 
L 487.196067 188.11742 
L 487.312473 188.961221 
L 487.544921 193.351529 
L 487.776883 189.697966 
L 488.008363 194.012001 
L 488.123923 194.418039 
L 488.81477 180.56485 
L 489.044102 181.613084 
L 489.158592 181.820356 
L 489.387217 180.725587 
L 489.501353 181.33885 
L 489.615373 179.754664 
L 489.843062 181.787633 
L 490.070286 185.469696 
L 490.183724 184.378259 
L 490.297046 184.763386 
L 490.410254 182.448427 
L 490.636323 182.860458 
L 490.749186 183.150511 
L 490.861934 181.714544 
L 490.974568 181.825258 
L 491.087088 180.066321 
L 491.199494 181.315611 
L 491.423967 180.641717 
L 491.536033 181.794115 
L 491.647987 181.729387 
L 491.759828 182.250342 
L 491.871557 182.223768 
L 491.983174 182.001435 
L 492.428524 185.884726 
L 492.76137 187.493604 
L 492.872098 184.59018 
L 492.982716 184.890246 
L 493.093224 184.129787 
L 493.203622 185.079551 
L 493.42409 182.908192 
L 493.53416 184.209398 
L 493.644122 183.406992 
L 493.753975 181.541151 
L 493.863719 182.452661 
L 493.973355 181.587757 
L 494.192305 185.468805 
L 494.301618 183.548761 
L 494.519922 183.794936 
L 494.846577 185.607729 
L 494.95525 187.717736 
L 495.172276 182.578543 
L 495.280631 182.602785 
L 495.38888 182.97537 
L 495.605063 178.833751 
L 495.712997 180.343313 
L 495.820827 179.09575 
L 496.251102 170.527956 
L 496.358411 173.01015 
L 496.465617 172.527044 
L 496.679719 172.748583 
L 496.89341 175.971876 
L 497.000102 174.921158 
L 497.106692 176.86329 
L 497.319564 176.021463 
L 497.532031 176.853264 
L 497.849971 183.723498 
L 498.167005 187.489323 
L 498.272483 189.14913 
L 498.37786 187.303757 
L 498.483138 187.359334 
L 498.693396 190.176544 
L 498.798375 190.082374 
L 499.008038 186.344123 
L 499.321793 190.219759 
L 499.426182 189.819453 
L 499.530473 187.802528 
L 499.738761 190.773122 
L 499.842759 191.753133 
L 499.94666 191.709533 
L 500.154172 191.270467 
L 500.361297 193.615544 
L 500.464715 192.682053 
L 500.671263 193.756007 
L 500.774393 196.445926 
L 500.877428 196.1985 
L 501.083212 198.946534 
L 501.185961 196.855317 
L 501.288615 197.518748 
L 501.391175 199.996892 
L 501.698288 195.719271 
L 501.800471 196.015424 
L 501.90256 197.958414 
L 502.004556 197.105641 
L 502.106458 194.578185 
L 502.309982 197.365343 
L 502.513135 194.316528 
L 502.81717 192.749894 
L 503.019399 190.253594 
L 503.120376 191.146678 
L 503.72432 203.363435 
L 503.82466 203.426256 
L 503.924908 202.478198 
L 504.125135 199.875242 
L 504.225114 199.411984 
L 504.524511 197.066294 
L 504.624132 197.299488 
L 504.922458 202.929721 
L 505.021723 202.550536 
L 505.120899 201.541915 
L 505.219987 202.686838 
L 505.318987 201.70304 
L 505.615458 204.558969 
L 505.714106 204.014131 
L 505.812667 202.144713 
L 505.911141 202.472398 
L 506.009528 202.359418 
L 506.107827 202.746917 
L 506.304166 200.794864 
L 506.402206 199.508254 
L 506.50016 201.534721 
L 506.598027 201.391396 
L 506.988637 204.017315 
L 507.183429 201.073769 
L 507.280697 202.684543 
L 507.37788 202.265831 
L 507.571992 203.734019 
L 507.668921 203.535582 
L 507.765765 204.207109 
L 507.862526 202.601094 
L 508.152303 205.197262 
L 508.248728 205.718612 
L 508.345069 207.69195 
L 508.441327 207.074494 
L 508.537502 207.357985 
L 508.825528 211.78533 
L 509.017132 210.73831 
L 509.208406 204.513243 
L 509.30392 204.664502 
L 509.399353 205.201575 
L 509.589971 202.259427 
L 509.875289 206.092641 
L 509.970232 206.439682 
L 510.065094 205.700143 
L 510.159876 205.922984 
L 510.349197 207.950405 
L 510.443737 208.125483 
L 510.632575 209.084488 
L 510.821094 212.420954 
L 511.009294 211.355683 
L 511.103275 211.518114 
L 511.197176 213.625528 
L 511.290998 213.372042 
L 511.478405 211.950645 
L 511.57199 214.552984 
L 511.665497 214.016156 
L 511.852275 212.104101 
L 512.224892 210.87186 
L 512.410733 211.962079 
L 512.503538 212.373558 
L 512.688914 213.803719 
L 512.966402 210.953871 
L 513.058744 208.465696 
L 513.335311 211.335929 
L 513.611192 207.797784 
L 513.794734 210.737922 
L 513.977973 209.966629 
L 514.069479 211.689157 
L 514.252266 210.627202 
L 514.434754 213.041884 
L 514.616942 211.538146 
L 514.707925 211.90972 
L 514.798833 210.919676 
L 514.889667 211.627958 
L 515.252262 205.961019 
L 515.342727 206.846879 
L 515.433118 205.66245 
L 515.523435 205.979448 
L 515.703851 207.4458 
L 515.883974 205.221517 
L 516.243348 207.979734 
L 516.4226 210.014909 
L 516.601564 211.215645 
L 516.780241 216.862742 
L 516.869471 215.590901 
L 516.95863 216.575872 
L 517.047718 216.365026 
L 517.136735 215.268908 
L 517.314554 216.884721 
L 517.49209 213.84842 
L 517.580752 215.084994 
L 517.669343 212.974999 
L 517.757863 213.260698 
L 518.023003 210.170095 
L 518.111243 210.191053 
L 518.199412 210.752734 
L 518.287512 209.06254 
L 518.551394 212.757869 
L 518.639215 209.86531 
L 519.164694 218.627908 
L 519.252033 219.104077 
L 519.339303 218.28721 
L 519.426505 219.769409 
L 519.774631 214.406323 
L 519.948286 211.616246 
L 520.035012 211.590924 
L 520.208261 210.576116 
L 520.294785 210.873116 
L 520.46763 211.280684 
L 520.553953 210.88422 
L 520.726396 208.832864 
L 520.898573 210.665407 
L 521.242128 207.098127 
L 521.327852 207.467189 
L 521.670086 214.00417 
L 521.755481 212.992525 
L 522.011271 216.558308 
L 522.096404 219.34468 
L 522.266474 215.930425 
L 522.351412 215.592509 
L 522.436285 214.350396 
L 522.521093 214.894054 
L 522.605837 217.025201 
L 522.775131 212.947027 
L 522.944167 216.430291 
L 523.02859 212.979214 
L 523.281472 217.22594 
L 523.449741 212.013871 
L 523.533781 213.184102 
L 523.701669 209.380218 
L 523.785518 209.344315 
L 523.953028 210.423742 
L 524.036688 209.100483 
L 524.120285 205.839246 
L 524.203819 206.574601 
L 524.3707 208.37202 
L 524.537331 205.973013 
L 524.620553 206.540223 
L 524.703713 206.273146 
L 524.78681 204.916371 
L 524.869846 205.273493 
L 525.035731 207.604083 
L 525.284096 203.397858 
L 525.366761 205.731123 
L 525.449365 204.471187 
L 525.696809 209.814938 
L 525.779168 209.809194 
L 525.861467 209.839951 
L 525.943704 210.196433 
L 526.025881 212.43721 
L 526.107997 211.998908 
L 526.190052 212.389175 
L 526.435856 217.17327 
L 526.51767 216.742533 
L 526.925839 207.913893 
L 527.088688 208.396593 
L 527.170024 210.147477 
L 527.2513 209.561819 
L 527.413674 211.538711 
L 527.575811 209.970847 
L 527.656791 211.366099 
L 527.737712 210.467397 
L 527.899378 213.808138 
L 527.980123 211.796064 
L 528.060809 211.964918 
L 528.141437 214.289247 
L 528.302517 212.938846 
L 528.463365 215.949428 
L 528.543701 213.735149 
L 528.62398 213.903863 
L 528.864469 216.846134 
L 529.024507 214.216904 
L 529.264132 217.552062 
L 529.343892 217.54431 
L 529.741839 211.046494 
L 529.821258 211.52399 
L 529.90062 211.079484 
L 530.059175 208.020263 
L 530.138368 207.231296 
L 530.296584 203.611332 
L 530.375608 205.381193 
L 530.533487 204.08557 
L 530.769887 208.206356 
L 530.848576 207.867579 
L 531.005786 206.060175 
L 531.084307 206.772686 
L 531.162774 205.648333 
L 531.241185 206.072497 
L 531.319541 208.262082 
L 531.397841 208.204093 
L 531.476087 205.748137 
L 531.554278 206.491983 
L 531.632413 207.029295 
L 531.710494 209.139816 
L 531.944408 206.376852 
L 532.100078 209.030102 
L 532.410765 205.106506 
L 532.488302 205.58701 
L 532.565784 205.231476 
L 532.643213 205.929775 
L 532.720587 204.516441 
L 532.875176 210.307028 
L 532.952389 209.124699 
L 533.183709 205.460114 
L 533.491388 210.545213 
L 533.568175 209.060799 
L 533.644909 209.564457 
L 533.72159 211.751952 
L 533.798219 211.469461 
L 533.874794 211.347576 
L 533.951317 211.430424 
L 534.180571 208.213185 
L 534.256884 208.934695 
L 534.333144 208.86533 
L 534.409353 208.380781 
L 534.485509 210.424485 
L 534.561613 209.708895 
L 534.637665 208.501352 
L 534.713665 208.676442 
L 534.789613 209.61179 
L 534.941354 207.800272 
L 535.017147 211.815217 
L 535.092888 211.79183 
L 535.168578 211.657703 
L 535.319803 209.849875 
L 535.395339 212.914191 
L 535.696969 207.996981 
L 535.997783 205.152477 
L 536.07286 206.415482 
L 536.297786 205.271535 
L 536.372661 205.131686 
L 536.596982 208.435406 
L 536.671656 209.318033 
L 536.746279 211.770017 
L 537.118647 205.83493 
L 537.192971 205.972236 
L 537.267245 208.273701 
L 537.34147 207.890715 
L 537.563848 203.583318 
L 537.637876 203.830801 
L 537.785783 208.813987 
L 537.859663 208.485393 
L 538.007275 205.794095 
L 538.375452 210.641155 
L 538.448941 210.313157 
L 538.669118 204.878689 
L 538.742414 205.29579 
L 538.815661 204.540635 
L 538.88886 205.301564 
L 539.035114 204.065089 
L 539.108169 201.833184 
L 539.254135 203.451641 
L 539.327046 203.77441 
L 539.39991 203.666978 
L 539.472726 203.75858 
L 539.545494 204.070855 
L 539.763513 200.665934 
L 539.836091 202.92397 
L 539.908622 201.790425 
L 540.053542 206.192654 
L 540.198273 202.229314 
L 540.342817 205.45225 
L 540.55928 202.037594 
L 540.631341 202.473668 
L 540.703355 202.327846 
L 540.775323 200.109768 
L 540.847244 200.442136 
L 540.919119 201.192905 
L 540.990947 200.148257 
L 541.563909 211.389595 
L 541.635323 208.997749 
L 541.849288 212.23139 
L 541.920518 212.235428 
L 542.062842 208.424626 
L 542.204984 210.640356 
L 542.417857 209.678468 
L 542.488724 210.518721 
L 542.559546 207.723339 
L 542.701055 212.760382 
L 542.771742 210.811411 
L 542.842384 210.996123 
L 542.983534 209.763128 
L 543.054042 209.935715 
L 543.265297 213.21544 
L 543.335627 212.865402 
L 543.405912 212.054742 
L 543.476153 212.384482 
L 543.546349 212.073031 
L 543.616501 212.733922 
L 543.686609 212.381346 
L 543.756673 211.185286 
L 543.896668 215.177338 
L 544.036487 212.463107 
L 544.17613 215.525606 
L 544.245886 214.229412 
L 544.315599 216.96494 
L 544.385267 216.376687 
L 544.524474 211.581196 
L 544.663507 212.895776 
L 544.732958 213.086487 
L 544.802366 212.856995 
L 545.148757 218.908115 
L 545.217906 218.068224 
L 545.287012 217.075568 
L 545.494072 223.096118 
L 545.563007 223.422159 
L 545.631899 223.072314 
L 545.700748 221.361057 
L 545.769555 221.617903 
L 545.838319 222.82623 
L 545.907041 221.825885 
L 545.97572 222.270791 
L 546.044357 221.58353 
L 546.112952 221.796824 
L 546.181504 221.851453 
L 546.250014 220.488313 
L 546.318482 220.591642 
L 546.386908 220.291271 
L 546.523633 218.237339 
L 546.66019 221.463307 
L 546.728406 220.478639 
L 546.796581 219.29138 
L 546.864713 220.959691 
L 547.000853 218.116351 
L 547.06886 219.898831 
L 547.136826 219.441926 
L 547.20475 219.833055 
L 547.272633 219.665612 
L 547.408274 217.462253 
L 547.476033 218.021684 
L 547.543751 215.939033 
L 547.611427 216.93446 
L 547.81421 221.199049 
L 547.881722 220.955392 
L 548.016623 217.84153 
L 548.285935 215.408897 
L 548.487493 212.200649 
L 548.755669 208.086186 
L 548.822612 209.006377 
L 548.956378 212.04402 
L 549.0232 212.233021 
L 549.156725 215.1691 
L 549.223427 215.077646 
L 549.356712 212.822581 
L 549.954525 219.730576 
L 550.02075 219.729814 
L 550.086937 220.319594 
L 550.28526 222.634174 
L 550.351289 222.645771 
L 550.417279 223.234938 
L 550.48323 221.840053 
L 550.549141 223.62529 
L 550.615014 222.998404 
L 550.680848 222.88962 
L 550.943794 216.385144 
L 551.009433 216.899794 
L 551.075034 218.369341 
L 551.337051 214.123308 
L 551.402459 214.797417 
L 551.467828 213.85028 
L 551.533159 211.209278 
L 551.598452 212.307692 
L 551.728922 214.017945 
L 551.7941 212.489244 
L 551.924341 214.631616 
L 552.119418 212.435263 
L 552.314153 214.251955 
L 552.378989 214.727693 
L 552.443787 214.176552 
L 552.508547 214.623391 
L 552.57327 216.524948 
L 552.637955 215.426776 
L 552.702603 216.620851 
L 552.767213 215.834782 
L 552.89632 214.662288 
L 552.960818 215.135349 
L 553.025278 212.724537 
L 553.089701 213.621305 
L 553.154086 214.677257 
L 553.218435 214.244517 
L 553.282746 214.334721 
L 553.34702 213.938786 
L 553.475456 215.566616 
L 553.539619 215.415032 
L 553.731886 209.003487 
L 554.179219 218.382594 
L 554.242977 217.56435 
L 554.434032 222.178445 
L 554.561221 219.500527 
L 554.62476 221.677905 
L 554.688264 220.522123 
L 554.751731 220.760637 
L 554.878556 217.15975 
L 554.941915 218.506407 
L 555.005237 221.313354 
L 555.068524 220.409293 
L 555.194989 218.632867 
L 555.258168 219.240977 
L 555.447489 213.844037 
L 555.510524 213.983817 
L 555.573524 212.8862 
L 555.636488 213.08961 
L 555.699417 212.878873 
L 555.76231 211.25607 
L 555.950775 213.913089 
L 556.076242 213.241834 
L 556.264176 218.722788 
L 556.38929 221.400322 
L 556.451794 220.837843 
L 556.639096 222.658444 
L 556.70146 222.774794 
L 556.888342 219.462188 
L 557.137031 223.558464 
L 557.385165 220.88091 
L 557.447113 221.395822 
L 557.509025 220.972078 
L 557.570903 223.053231 
L 557.632747 222.333508 
L 557.694557 220.044231 
L 557.756332 220.17756 
L 557.818073 220.0266 
L 557.879779 217.160622 
L 557.941451 217.165611 
L 558.126264 218.567997 
L 558.187799 216.885569 
L 558.249301 218.124171 
L 558.372203 220.600786 
L 558.433603 219.659117 
L 558.494969 219.825974 
L 558.6176 221.267737 
L 558.740096 216.491821 
L 558.801293 217.347272 
L 558.923587 220.107322 
L 559.045746 218.342932 
L 559.106775 216.001413 
L 559.289663 223.007646 
L 559.350559 222.586484 
L 559.533046 217.323723 
L 559.593809 218.019989 
L 559.836528 222.924995 
L 560.078719 219.535481 
L 560.139184 219.955606 
L 560.199617 219.381434 
L 560.260016 219.614609 
L 560.320383 221.090735 
L 560.380718 220.061317 
L 560.441019 218.009352 
L 560.501288 219.451951 
L 560.681899 218.28134 
L 560.742037 219.010313 
L 560.922258 223.878022 
L 560.982266 224.948688 
L 561.042243 221.193049 
L 561.102186 222.028179 
L 561.162098 223.762358 
L 561.162098 223.762358 
" clip-path="url(#pbff4c4273f)" style="fill: none; stroke: #2ca02c; stroke-linecap: square"/>
   </g>
   <g id="patch_3">
    <path d="M 48.982813 294.590247 
L 48.982813 22.318125 
" style="fill: none; stroke: #000000; stroke-width: 0.8; stroke-linejoin: miter; stroke-linecap: square"/>
   </g>
   <g id="patch_4">
    <path d="M 561.197812 294.590247 
L 561.197812 22.318125 
" style="fill: none; stroke: #000000; stroke-width: 0.8; stroke-linejoin: miter; stroke-linecap: square"/>
   </g>
   <g id="patch_5">
    <path d="M 48.982813 294.590247 
L 561.197812 294.590247 
" style="fill: none; stroke: #000000; stroke-width: 0.8; stroke-linejoin: miter; stroke-linecap: square"/>
   </g>
   <g id="patch_6">
    <path d="M 48.982813 22.318125 
L 561.197812 22.318125 
" style="fill: none; stroke: #000000; stroke-width: 0.8; stroke-linejoin: miter; stroke-linecap: square"/>
   </g>
   <g id="text_14">
    <!-- Toyota Tundra Blower Setting 5 - Narrow Band SPL (dBA) -->
    <g transform="translate(135.736562 16.318125) scale(0.12 -0.12)">
     <defs>
      <path id="DejaVuSans-54" d="M -19 4666 
L 3928 4666 
L 3928 4134 
L 2272 4134 
L 2272 0 
L 1638 0 
L 1638 4134 
L -19 4134 
L -19 4666 
z
" transform="scale(0.015625)"/>
      <path id="DejaVuSans-6f" d="M 1959 3097 
Q 1497 3097 1228 2736 
Q 959 2375 959 1747 
Q 959 1119 1226 758 
Q 1494 397 1959 397 
Q 2419 397 2687 759 
Q 2956 1122 2956 1747 
Q 2956 2369 2687 2733 
Q 2419 3097 1959 3097 
z
M 1959 3584 
Q 2709 3584 3137 3096 
Q 3566 2609 3566 1747 
Q 3566 888 3137 398 
Q 2709 -91 1959 -91 
Q 1206 -91 779 398 
Q 353 888 353 1747 
Q 353 2609 779 3096 
Q 1206 3584 1959 3584 
z
" transform="scale(0.015625)"/>
      <path id="DejaVuSans-74" d="M 1172 4494 
L 1172 3500 
L 2356 3500 
L 2356 3053 
L 1172 3053 
L 1172 1153 
Q 1172 725 1289 603 
Q 1406 481 1766 481 
L 2356 481 
L 2356 0 
L 1766 0 
Q 1100 0 847 248 
Q 594 497 594 1153 
L 594 3053 
L 172 3053 
L 172 3500 
L 594 3500 
L 594 4494 
L 1172 4494 
z
" transform="scale(0.015625)"/>
      <path id="DejaVuSans-61" d="M 2194 1759 
Q 1497 1759 1228 1600 
Q 959 1441 959 1056 
Q 959 750 1161 570 
Q 1363 391 1709 391 
Q 2188 391 2477 730 
Q 2766 1069 2766 1631 
L 2766 1759 
L 2194 1759 
z
M 3341 1997 
L 3341 0 
L 2766 0 
L 2766 531 
Q 2569 213 2275 61 
Q 1981 -91 1556 -91 
Q 1019 -91 701 211 
Q 384 513 384 1019 
Q 384 1609 779 1909 
Q 1175 2209 1959 2209 
L 2766 2209 
L 2766 2266 
Q 2766 2663 2505 2880 
Q 2244 3097 1772 3097 
Q 1472 3097 1187 3025 
Q 903 2953 641 2809 
L 641 3341 
Q 956 3463 1253 3523 
Q 1550 3584 1831 3584 
Q 2591 3584 2966 3190 
Q 3341 2797 3341 1997 
z
" transform="scale(0.015625)"/>
      <path id="DejaVuSans-6c" d="M 603 4863 
L 1178 4863 
L 1178 0 
L 603 0 
L 603 4863 
z
" transform="scale(0.015625)"/>
      <path id="DejaVuSans-77" d="M 269 3500 
L 844 3500 
L 1563 769 
L 2278 3500 
L 2956 3500 
L 3675 769 
L 4391 3500 
L 4966 3500 
L 4050 0 
L 3372 0 
L 2619 2869 
L 1863 0 
L 1184 0 
L 269 3500 
z
" transform="scale(0.015625)"/>
      <path id="DejaVuSans-69" d="M 603 3500 
L 1178 3500 
L 1178 0 
L 603 0 
L 603 3500 
z
M 603 4863 
L 1178 4863 
L 1178 4134 
L 603 4134 
L 603 4863 
z
" transform="scale(0.015625)"/>
      <path id="DejaVuSans-67" d="M 2906 1791 
Q 2906 2416 2648 2759 
Q 2391 3103 1925 3103 
Q 1463 3103 1205 2759 
Q 947 2416 947 1791 
Q 947 1169 1205 825 
Q 1463 481 1925 481 
Q 2391 481 2648 825 
Q 2906 1169 2906 1791 
z
M 3481 434 
Q 3481 -459 3084 -895 
Q 2688 -1331 1869 -1331 
Q 1566 -1331 1297 -1286 
Q 1028 -1241 775 -1147 
L 775 -588 
Q 1028 -725 1275 -790 
Q 1522 -856 1778 -856 
Q 2344 -856 2625 -561 
Q 2906 -266 2906 331 
L 2906 616 
Q 2728 306 2450 153 
Q 2172 0 1784 0 
Q 1141 0 747 490 
Q 353 981 353 1791 
Q 353 2603 747 3093 
Q 1141 3584 1784 3584 
Q 2172 3584 2450 3431 
Q 2728 3278 2906 2969 
L 2906 3500 
L 3481 3500 
L 3481 434 
z
" transform="scale(0.015625)"/>
      <path id="DejaVuSans-2d" d="M 313 2009 
L 1997 2009 
L 1997 1497 
L 313 1497 
L 313 2009 
z
" transform="scale(0.015625)"/>
      <path id="DejaVuSans-4e" d="M 628 4666 
L 1478 4666 
L 3547 763 
L 3547 4666 
L 4159 4666 
L 4159 0 
L 3309 0 
L 1241 3903 
L 1241 0 
L 628 0 
L 628 4666 
z
" transform="scale(0.015625)"/>
     </defs>
     <use xlink:href="#DejaVuSans-54"/>
     <use xlink:href="#DejaVuSans-6f" transform="translate(44.083984 0)"/>
     <use xlink:href="#DejaVuSans-79" transform="translate(105.265625 0)"/>
     <use xlink:href="#DejaVuSans-6f" transform="translate(164.445312 0)"/>
     <use xlink:href="#DejaVuSans-74" transform="translate(225.626953 0)"/>
     <use xlink:href="#DejaVuSans-61" transform="translate(264.835938 0)"/>
     <use xlink:href="#DejaVuSans-20" transform="translate(326.115234 0)"/>
     <use xlink:href="#DejaVuSans-54" transform="translate(357.902344 0)"/>
     <use xlink:href="#DejaVuSans-75" transform="translate(403.861328 0)"/>
     <use xlink:href="#DejaVuSans-6e" transform="translate(467.240234 0)"/>
     <use xlink:href="#DejaVuSans-64" transform="translate(530.619141 0)"/>
     <use xlink:href="#DejaVuSans-72" transform="translate(594.095703 0)"/>
     <use xlink:href="#DejaVuSans-61" transform="translate(635.208984 0)"/>
     <use xlink:href="#DejaVuSans-20" transform="translate(696.488281 0)"/>
     <use xlink:href="#DejaVuSans-42" transform="translate(728.275391 0)"/>
     <use xlink:href="#DejaVuSans-6c" transform="translate(796.878906 0)"/>
     <use xlink:href="#DejaVuSans-6f" transform="translate(824.662109 0)"/>
     <use xlink:href="#DejaVuSans-77" transform="translate(885.84375 0)"/>
     <use xlink:href="#DejaVuSans-65" transform="translate(967.630859 0)"/>
     <use xlink:href="#DejaVuSans-72" transform="translate(1029.154297 0)"/>
     <use xlink:href="#DejaVuSans-20" transform="translate(1070.267578 0)"/>
     <use xlink:href="#DejaVuSans-53" transform="translate(1102.054688 0)"/>
     <use xlink:href="#DejaVuSans-65" transform="translate(1165.53125 0)"/>
     <use xlink:href="#DejaVuSans-74" transform="translate(1227.054688 0)"/>
     <use xlink:href="#DejaVuSans-74" transform="translate(1266.263672 0)"/>
     <use xlink:href="#DejaVuSans-69" transform="translate(1305.472656 0)"/>
     <use xlink:href="#DejaVuSans-6e" transform="translate(1333.255859 0)"/>
     <use xlink:href="#DejaVuSans-67" transform="translate(1396.634766 0)"/>
     <use xlink:href="#DejaVuSans-20" transform="translate(1460.111328 0)"/>
     <use xlink:href="#DejaVuSans-35" transform="translate(1491.898438 0)"/>
     <use xlink:href="#DejaVuSans-20" transform="translate(1555.521484 0)"/>
     <use xlink:href="#DejaVuSans-2d" transform="translate(1587.308594 0)"/>
     <use xlink:href="#DejaVuSans-20" transform="translate(1623.392578 0)"/>
     <use xlink:href="#DejaVuSans-4e" transform="translate(1655.179688 0)"/>
     <use xlink:href="#DejaVuSans-61" transform="translate(1729.984375 0)"/>
     <use xlink:href="#DejaVuSans-72" transform="translate(1791.263672 0)"/>
     <use xlink:href="#DejaVuSans-72" transform="translate(1830.626953 0)"/>
     <use xlink:href="#DejaVuSans-6f" transform="translate(1869.490234 0)"/>
     <use xlink:href="#DejaVuSans-77" transform="translate(1930.671875 0)"/>
     <use xlink:href="#DejaVuSans-20" transform="translate(2012.458984 0)"/>
     <use xlink:href="#DejaVuSans-42" transform="translate(2044.246094 0)"/>
     <use xlink:href="#DejaVuSans-61" transform="translate(2112.849609 0)"/>
     <use xlink:href="#DejaVuSans-6e" transform="translate(2174.128906 0)"/>
     <use xlink:href="#DejaVuSans-64" transform="translate(2237.507812 0)"/>
     <use xlink:href="#DejaVuSans-20" transform="translate(2300.984375 0)"/>
     <use xlink:href="#DejaVuSans-53" transform="translate(2332.771484 0)"/>
     <use xlink:href="#DejaVuSans-50" transform="translate(2396.248047 0)"/>
     <use xlink:href="#DejaVuSans-4c" transform="translate(2456.550781 0)"/>
     <use xlink:href="#DejaVuSans-20" transform="translate(2512.263672 0)"/>
     <use xlink:href="#DejaVuSans-28" transform="translate(2544.050781 0)"/>
     <use xlink:href="#DejaVuSans-64" transform="translate(2583.064453 0)"/>
     <use xlink:href="#DejaVuSans-42" transform="translate(2646.541016 0)"/>
     <use xlink:href="#DejaVuSans-41" transform="translate(2715.144531 0)"/>
     <use xlink:href="#DejaVuSans-29" transform="translate(2783.552734 0)"/>
    </g>
   </g>
  </g>
 </g>
 <defs>
  <clipPath id="pbff4c4273f">
   <rect x="48.982813" y="22.318125" width="512.215" height="272.272122"/>
  </clipPath>
 </defs>
</svg>
