<?xml version="1.0" encoding="utf-8" standalone="no"?>
<!DOCTYPE svg PUBLIC "-//W3C//DTD SVG 1.1//EN"
  "http://www.w3.org/Graphics/SVG/1.1/DTD/svg11.dtd">
<svg xmlns:xlink="http://www.w3.org/1999/xlink" width="568.397812pt" height="351.806674pt" viewBox="0 0 568.397812 351.806674" xmlns="http://www.w3.org/2000/svg" version="1.1">
 <metadata>
  <rdf:RDF xmlns:dc="http://purl.org/dc/elements/1.1/" xmlns:cc="http://creativecommons.org/ns#" xmlns:rdf="http://www.w3.org/1999/02/22-rdf-syntax-ns#">
   <cc:Work>
    <dc:type rdf:resource="http://purl.org/dc/dcmitype/StillImage"/>
    <dc:date>2025-04-24T21:37:17.896705</dc:date>
    <dc:format>image/svg+xml</dc:format>
    <dc:creator>
     <cc:Agent>
      <dc:title>Matplotlib v3.10.0, https://matplotlib.org/</dc:title>
     </cc:Agent>
    </dc:creator>
   </cc:Work>
  </rdf:RDF>
 </metadata>
 <defs>
  <style type="text/css">*{stroke-linejoin: round; stroke-linecap: butt}</style>
 </defs>
 <g id="figure_1">
  <g id="patch_1">
   <path d="M 0 351.806674 
L 568.397812 351.806674 
L 568.397812 0 
L 0 0 
z
" style="fill: #ffffff"/>
  </g>
  <g id="axes_1">
   <g id="patch_2">
    <path d="M 48.982813 294.590247 
L 561.197812 294.590247 
L 561.197812 22.318125 
L 48.982813 22.318125 
z
" style="fill: #ffffff"/>
   </g>
   <g id="matplotlib.axis_1">
    <g id="xtick_1">
     <g id="line2d_1">
      <path d="M 48.982813 294.590247 
L 48.982813 22.318125 
" clip-path="url(#pa1fcfe9e49)" style="fill: none; stroke-dasharray: 1.85,0.8; stroke-dashoffset: 0; stroke: #b0b0b0; stroke-width: 0.5"/>
     </g>
     <g id="line2d_2">
      <defs>
       <path id="m93e36944d9" d="M 0 0 
L 0 3.5 
" style="stroke: #000000; stroke-width: 0.8"/>
      </defs>
      <g>
       <use xlink:href="#m93e36944d9" x="48.982813" y="294.590247" style="stroke: #000000; stroke-width: 0.8"/>
      </g>
     </g>
     <g id="text_1">
      <!-- 100 -->
      <g transform="translate(34.015351 320.460054) rotate(-45) scale(0.1 -0.1)">
       <defs>
        <path id="DejaVuSans-31" d="M 794 531 
L 1825 531 
L 1825 4091 
L 703 3866 
L 703 4441 
L 1819 4666 
L 2450 4666 
L 2450 531 
L 3481 531 
L 3481 0 
L 794 0 
L 794 531 
z
" transform="scale(0.015625)"/>
        <path id="DejaVuSans-30" d="M 2034 4250 
Q 1547 4250 1301 3770 
Q 1056 3291 1056 2328 
Q 1056 1369 1301 889 
Q 1547 409 2034 409 
Q 2525 409 2770 889 
Q 3016 1369 3016 2328 
Q 3016 3291 2770 3770 
Q 2525 4250 2034 4250 
z
M 2034 4750 
Q 2819 4750 3233 4129 
Q 3647 3509 3647 2328 
Q 3647 1150 3233 529 
Q 2819 -91 2034 -91 
Q 1250 -91 836 529 
Q 422 1150 422 2328 
Q 422 3509 836 4129 
Q 1250 4750 2034 4750 
z
" transform="scale(0.015625)"/>
       </defs>
       <use xlink:href="#DejaVuSans-31"/>
       <use xlink:href="#DejaVuSans-30" transform="translate(63.623047 0)"/>
       <use xlink:href="#DejaVuSans-30" transform="translate(127.246094 0)"/>
      </g>
     </g>
    </g>
    <g id="xtick_2">
     <g id="line2d_3">
      <path d="M 305.090312 294.590247 
L 305.090312 22.318125 
" clip-path="url(#pa1fcfe9e49)" style="fill: none; stroke-dasharray: 1.85,0.8; stroke-dashoffset: 0; stroke: #b0b0b0; stroke-width: 0.5"/>
     </g>
     <g id="line2d_4">
      <g>
       <use xlink:href="#m93e36944d9" x="305.090312" y="294.590247" style="stroke: #000000; stroke-width: 0.8"/>
      </g>
     </g>
     <g id="text_2">
      <!-- 1000 -->
      <g transform="translate(285.623884 324.959021) rotate(-45) scale(0.1 -0.1)">
       <use xlink:href="#DejaVuSans-31"/>
       <use xlink:href="#DejaVuSans-30" transform="translate(63.623047 0)"/>
       <use xlink:href="#DejaVuSans-30" transform="translate(127.246094 0)"/>
       <use xlink:href="#DejaVuSans-30" transform="translate(190.869141 0)"/>
      </g>
     </g>
    </g>
    <g id="xtick_3">
     <g id="line2d_5">
      <path d="M 561.197812 294.590247 
L 561.197812 22.318125 
" clip-path="url(#pa1fcfe9e49)" style="fill: none; stroke-dasharray: 1.85,0.8; stroke-dashoffset: 0; stroke: #b0b0b0; stroke-width: 0.5"/>
     </g>
     <g id="line2d_6">
      <g>
       <use xlink:href="#m93e36944d9" x="561.197812" y="294.590247" style="stroke: #000000; stroke-width: 0.8"/>
      </g>
     </g>
     <g id="text_3">
      <!-- 10000 -->
      <g transform="translate(537.232417 329.457988) rotate(-45) scale(0.1 -0.1)">
       <use xlink:href="#DejaVuSans-31"/>
       <use xlink:href="#DejaVuSans-30" transform="translate(63.623047 0)"/>
       <use xlink:href="#DejaVuSans-30" transform="translate(127.246094 0)"/>
       <use xlink:href="#DejaVuSans-30" transform="translate(190.869141 0)"/>
       <use xlink:href="#DejaVuSans-30" transform="translate(254.492188 0)"/>
      </g>
     </g>
    </g>
    <g id="xtick_4">
     <g id="line2d_7">
      <path d="M 126.078852 294.590247 
L 126.078852 22.318125 
" clip-path="url(#pa1fcfe9e49)" style="fill: none; stroke-dasharray: 1.85,0.8; stroke-dashoffset: 0; stroke: #b0b0b0; stroke-width: 0.5"/>
     </g>
     <g id="line2d_8">
      <defs>
       <path id="m947ebd0dcb" d="M 0 0 
L 0 2 
" style="stroke: #000000; stroke-width: 0.6"/>
      </defs>
      <g>
       <use xlink:href="#m947ebd0dcb" x="126.078852" y="294.590247" style="stroke: #000000; stroke-width: 0.6"/>
      </g>
     </g>
    </g>
    <g id="xtick_5">
     <g id="line2d_9">
      <path d="M 171.177144 294.590247 
L 171.177144 22.318125 
" clip-path="url(#pa1fcfe9e49)" style="fill: none; stroke-dasharray: 1.85,0.8; stroke-dashoffset: 0; stroke: #b0b0b0; stroke-width: 0.5"/>
     </g>
     <g id="line2d_10">
      <g>
       <use xlink:href="#m947ebd0dcb" x="171.177144" y="294.590247" style="stroke: #000000; stroke-width: 0.6"/>
      </g>
     </g>
    </g>
    <g id="xtick_6">
     <g id="line2d_11">
      <path d="M 203.174892 294.590247 
L 203.174892 22.318125 
" clip-path="url(#pa1fcfe9e49)" style="fill: none; stroke-dasharray: 1.85,0.8; stroke-dashoffset: 0; stroke: #b0b0b0; stroke-width: 0.5"/>
     </g>
     <g id="line2d_12">
      <g>
       <use xlink:href="#m947ebd0dcb" x="203.174892" y="294.590247" style="stroke: #000000; stroke-width: 0.6"/>
      </g>
     </g>
    </g>
    <g id="xtick_7">
     <g id="line2d_13">
      <path d="M 227.994273 294.590247 
L 227.994273 22.318125 
" clip-path="url(#pa1fcfe9e49)" style="fill: none; stroke-dasharray: 1.85,0.8; stroke-dashoffset: 0; stroke: #b0b0b0; stroke-width: 0.5"/>
     </g>
     <g id="line2d_14">
      <g>
       <use xlink:href="#m947ebd0dcb" x="227.994273" y="294.590247" style="stroke: #000000; stroke-width: 0.6"/>
      </g>
     </g>
    </g>
    <g id="xtick_8">
     <g id="line2d_15">
      <path d="M 248.273184 294.590247 
L 248.273184 22.318125 
" clip-path="url(#pa1fcfe9e49)" style="fill: none; stroke-dasharray: 1.85,0.8; stroke-dashoffset: 0; stroke: #b0b0b0; stroke-width: 0.5"/>
     </g>
     <g id="line2d_16">
      <g>
       <use xlink:href="#m947ebd0dcb" x="248.273184" y="294.590247" style="stroke: #000000; stroke-width: 0.6"/>
      </g>
     </g>
    </g>
    <g id="xtick_9">
     <g id="line2d_17">
      <path d="M 265.418759 294.590247 
L 265.418759 22.318125 
" clip-path="url(#pa1fcfe9e49)" style="fill: none; stroke-dasharray: 1.85,0.8; stroke-dashoffset: 0; stroke: #b0b0b0; stroke-width: 0.5"/>
     </g>
     <g id="line2d_18">
      <g>
       <use xlink:href="#m947ebd0dcb" x="265.418759" y="294.590247" style="stroke: #000000; stroke-width: 0.6"/>
      </g>
     </g>
    </g>
    <g id="xtick_10">
     <g id="line2d_19">
      <path d="M 280.270931 294.590247 
L 280.270931 22.318125 
" clip-path="url(#pa1fcfe9e49)" style="fill: none; stroke-dasharray: 1.85,0.8; stroke-dashoffset: 0; stroke: #b0b0b0; stroke-width: 0.5"/>
     </g>
     <g id="line2d_20">
      <g>
       <use xlink:href="#m947ebd0dcb" x="280.270931" y="294.590247" style="stroke: #000000; stroke-width: 0.6"/>
      </g>
     </g>
    </g>
    <g id="xtick_11">
     <g id="line2d_21">
      <path d="M 293.371476 294.590247 
L 293.371476 22.318125 
" clip-path="url(#pa1fcfe9e49)" style="fill: none; stroke-dasharray: 1.85,0.8; stroke-dashoffset: 0; stroke: #b0b0b0; stroke-width: 0.5"/>
     </g>
     <g id="line2d_22">
      <g>
       <use xlink:href="#m947ebd0dcb" x="293.371476" y="294.590247" style="stroke: #000000; stroke-width: 0.6"/>
      </g>
     </g>
    </g>
    <g id="xtick_12">
     <g id="line2d_23">
      <path d="M 382.186352 294.590247 
L 382.186352 22.318125 
" clip-path="url(#pa1fcfe9e49)" style="fill: none; stroke-dasharray: 1.85,0.8; stroke-dashoffset: 0; stroke: #b0b0b0; stroke-width: 0.5"/>
     </g>
     <g id="line2d_24">
      <g>
       <use xlink:href="#m947ebd0dcb" x="382.186352" y="294.590247" style="stroke: #000000; stroke-width: 0.6"/>
      </g>
     </g>
    </g>
    <g id="xtick_13">
     <g id="line2d_25">
      <path d="M 427.284644 294.590247 
L 427.284644 22.318125 
" clip-path="url(#pa1fcfe9e49)" style="fill: none; stroke-dasharray: 1.85,0.8; stroke-dashoffset: 0; stroke: #b0b0b0; stroke-width: 0.5"/>
     </g>
     <g id="line2d_26">
      <g>
       <use xlink:href="#m947ebd0dcb" x="427.284644" y="294.590247" style="stroke: #000000; stroke-width: 0.6"/>
      </g>
     </g>
    </g>
    <g id="xtick_14">
     <g id="line2d_27">
      <path d="M 459.282392 294.590247 
L 459.282392 22.318125 
" clip-path="url(#pa1fcfe9e49)" style="fill: none; stroke-dasharray: 1.85,0.8; stroke-dashoffset: 0; stroke: #b0b0b0; stroke-width: 0.5"/>
     </g>
     <g id="line2d_28">
      <g>
       <use xlink:href="#m947ebd0dcb" x="459.282392" y="294.590247" style="stroke: #000000; stroke-width: 0.6"/>
      </g>
     </g>
    </g>
    <g id="xtick_15">
     <g id="line2d_29">
      <path d="M 484.101773 294.590247 
L 484.101773 22.318125 
" clip-path="url(#pa1fcfe9e49)" style="fill: none; stroke-dasharray: 1.85,0.8; stroke-dashoffset: 0; stroke: #b0b0b0; stroke-width: 0.5"/>
     </g>
     <g id="line2d_30">
      <g>
       <use xlink:href="#m947ebd0dcb" x="484.101773" y="294.590247" style="stroke: #000000; stroke-width: 0.6"/>
      </g>
     </g>
    </g>
    <g id="xtick_16">
     <g id="line2d_31">
      <path d="M 504.380684 294.590247 
L 504.380684 22.318125 
" clip-path="url(#pa1fcfe9e49)" style="fill: none; stroke-dasharray: 1.85,0.8; stroke-dashoffset: 0; stroke: #b0b0b0; stroke-width: 0.5"/>
     </g>
     <g id="line2d_32">
      <g>
       <use xlink:href="#m947ebd0dcb" x="504.380684" y="294.590247" style="stroke: #000000; stroke-width: 0.6"/>
      </g>
     </g>
    </g>
    <g id="xtick_17">
     <g id="line2d_33">
      <path d="M 521.526259 294.590247 
L 521.526259 22.318125 
" clip-path="url(#pa1fcfe9e49)" style="fill: none; stroke-dasharray: 1.85,0.8; stroke-dashoffset: 0; stroke: #b0b0b0; stroke-width: 0.5"/>
     </g>
     <g id="line2d_34">
      <g>
       <use xlink:href="#m947ebd0dcb" x="521.526259" y="294.590247" style="stroke: #000000; stroke-width: 0.6"/>
      </g>
     </g>
    </g>
    <g id="xtick_18">
     <g id="line2d_35">
      <path d="M 536.378431 294.590247 
L 536.378431 22.318125 
" clip-path="url(#pa1fcfe9e49)" style="fill: none; stroke-dasharray: 1.85,0.8; stroke-dashoffset: 0; stroke: #b0b0b0; stroke-width: 0.5"/>
     </g>
     <g id="line2d_36">
      <g>
       <use xlink:href="#m947ebd0dcb" x="536.378431" y="294.590247" style="stroke: #000000; stroke-width: 0.6"/>
      </g>
     </g>
    </g>
    <g id="xtick_19">
     <g id="line2d_37">
      <path d="M 549.478976 294.590247 
L 549.478976 22.318125 
" clip-path="url(#pa1fcfe9e49)" style="fill: none; stroke-dasharray: 1.85,0.8; stroke-dashoffset: 0; stroke: #b0b0b0; stroke-width: 0.5"/>
     </g>
     <g id="line2d_38">
      <g>
       <use xlink:href="#m947ebd0dcb" x="549.478976" y="294.590247" style="stroke: #000000; stroke-width: 0.6"/>
      </g>
     </g>
    </g>
    <g id="text_4">
     <!-- Frequency (Hz) -->
     <g transform="translate(267.385625 342.526987) scale(0.1 -0.1)">
      <defs>
       <path id="DejaVuSans-46" d="M 628 4666 
L 3309 4666 
L 3309 4134 
L 1259 4134 
L 1259 2759 
L 3109 2759 
L 3109 2228 
L 1259 2228 
L 1259 0 
L 628 0 
L 628 4666 
z
" transform="scale(0.015625)"/>
       <path id="DejaVuSans-72" d="M 2631 2963 
Q 2534 3019 2420 3045 
Q 2306 3072 2169 3072 
Q 1681 3072 1420 2755 
Q 1159 2438 1159 1844 
L 1159 0 
L 581 0 
L 581 3500 
L 1159 3500 
L 1159 2956 
Q 1341 3275 1631 3429 
Q 1922 3584 2338 3584 
Q 2397 3584 2469 3576 
Q 2541 3569 2628 3553 
L 2631 2963 
z
" transform="scale(0.015625)"/>
       <path id="DejaVuSans-65" d="M 3597 1894 
L 3597 1613 
L 953 1613 
Q 991 1019 1311 708 
Q 1631 397 2203 397 
Q 2534 397 2845 478 
Q 3156 559 3463 722 
L 3463 178 
Q 3153 47 2828 -22 
Q 2503 -91 2169 -91 
Q 1331 -91 842 396 
Q 353 884 353 1716 
Q 353 2575 817 3079 
Q 1281 3584 2069 3584 
Q 2775 3584 3186 3129 
Q 3597 2675 3597 1894 
z
M 3022 2063 
Q 3016 2534 2758 2815 
Q 2500 3097 2075 3097 
Q 1594 3097 1305 2825 
Q 1016 2553 972 2059 
L 3022 2063 
z
" transform="scale(0.015625)"/>
       <path id="DejaVuSans-71" d="M 947 1747 
Q 947 1113 1208 752 
Q 1469 391 1925 391 
Q 2381 391 2643 752 
Q 2906 1113 2906 1747 
Q 2906 2381 2643 2742 
Q 2381 3103 1925 3103 
Q 1469 3103 1208 2742 
Q 947 2381 947 1747 
z
M 2906 525 
Q 2725 213 2448 61 
Q 2172 -91 1784 -91 
Q 1150 -91 751 415 
Q 353 922 353 1747 
Q 353 2572 751 3078 
Q 1150 3584 1784 3584 
Q 2172 3584 2448 3432 
Q 2725 3281 2906 2969 
L 2906 3500 
L 3481 3500 
L 3481 -1331 
L 2906 -1331 
L 2906 525 
z
" transform="scale(0.015625)"/>
       <path id="DejaVuSans-75" d="M 544 1381 
L 544 3500 
L 1119 3500 
L 1119 1403 
Q 1119 906 1312 657 
Q 1506 409 1894 409 
Q 2359 409 2629 706 
Q 2900 1003 2900 1516 
L 2900 3500 
L 3475 3500 
L 3475 0 
L 2900 0 
L 2900 538 
Q 2691 219 2414 64 
Q 2138 -91 1772 -91 
Q 1169 -91 856 284 
Q 544 659 544 1381 
z
M 1991 3584 
L 1991 3584 
z
" transform="scale(0.015625)"/>
       <path id="DejaVuSans-6e" d="M 3513 2113 
L 3513 0 
L 2938 0 
L 2938 2094 
Q 2938 2591 2744 2837 
Q 2550 3084 2163 3084 
Q 1697 3084 1428 2787 
Q 1159 2491 1159 1978 
L 1159 0 
L 581 0 
L 581 3500 
L 1159 3500 
L 1159 2956 
Q 1366 3272 1645 3428 
Q 1925 3584 2291 3584 
Q 2894 3584 3203 3211 
Q 3513 2838 3513 2113 
z
" transform="scale(0.015625)"/>
       <path id="DejaVuSans-63" d="M 3122 3366 
L 3122 2828 
Q 2878 2963 2633 3030 
Q 2388 3097 2138 3097 
Q 1578 3097 1268 2742 
Q 959 2388 959 1747 
Q 959 1106 1268 751 
Q 1578 397 2138 397 
Q 2388 397 2633 464 
Q 2878 531 3122 666 
L 3122 134 
Q 2881 22 2623 -34 
Q 2366 -91 2075 -91 
Q 1284 -91 818 406 
Q 353 903 353 1747 
Q 353 2603 823 3093 
Q 1294 3584 2113 3584 
Q 2378 3584 2631 3529 
Q 2884 3475 3122 3366 
z
" transform="scale(0.015625)"/>
       <path id="DejaVuSans-79" d="M 2059 -325 
Q 1816 -950 1584 -1140 
Q 1353 -1331 966 -1331 
L 506 -1331 
L 506 -850 
L 844 -850 
Q 1081 -850 1212 -737 
Q 1344 -625 1503 -206 
L 1606 56 
L 191 3500 
L 800 3500 
L 1894 763 
L 2988 3500 
L 3597 3500 
L 2059 -325 
z
" transform="scale(0.015625)"/>
       <path id="DejaVuSans-20" transform="scale(0.015625)"/>
       <path id="DejaVuSans-28" d="M 1984 4856 
Q 1566 4138 1362 3434 
Q 1159 2731 1159 2009 
Q 1159 1288 1364 580 
Q 1569 -128 1984 -844 
L 1484 -844 
Q 1016 -109 783 600 
Q 550 1309 550 2009 
Q 550 2706 781 3412 
Q 1013 4119 1484 4856 
L 1984 4856 
z
" transform="scale(0.015625)"/>
       <path id="DejaVuSans-48" d="M 628 4666 
L 1259 4666 
L 1259 2753 
L 3553 2753 
L 3553 4666 
L 4184 4666 
L 4184 0 
L 3553 0 
L 3553 2222 
L 1259 2222 
L 1259 0 
L 628 0 
L 628 4666 
z
" transform="scale(0.015625)"/>
       <path id="DejaVuSans-7a" d="M 353 3500 
L 3084 3500 
L 3084 2975 
L 922 459 
L 3084 459 
L 3084 0 
L 275 0 
L 275 525 
L 2438 3041 
L 353 3041 
L 353 3500 
z
" transform="scale(0.015625)"/>
       <path id="DejaVuSans-29" d="M 513 4856 
L 1013 4856 
Q 1481 4119 1714 3412 
Q 1947 2706 1947 2009 
Q 1947 1309 1714 600 
Q 1481 -109 1013 -844 
L 513 -844 
Q 928 -128 1133 580 
Q 1338 1288 1338 2009 
Q 1338 2731 1133 3434 
Q 928 4138 513 4856 
z
" transform="scale(0.015625)"/>
      </defs>
      <use xlink:href="#DejaVuSans-46"/>
      <use xlink:href="#DejaVuSans-72" transform="translate(50.269531 0)"/>
      <use xlink:href="#DejaVuSans-65" transform="translate(89.132812 0)"/>
      <use xlink:href="#DejaVuSans-71" transform="translate(150.65625 0)"/>
      <use xlink:href="#DejaVuSans-75" transform="translate(214.132812 0)"/>
      <use xlink:href="#DejaVuSans-65" transform="translate(277.511719 0)"/>
      <use xlink:href="#DejaVuSans-6e" transform="translate(339.035156 0)"/>
      <use xlink:href="#DejaVuSans-63" transform="translate(402.414062 0)"/>
      <use xlink:href="#DejaVuSans-79" transform="translate(457.394531 0)"/>
      <use xlink:href="#DejaVuSans-20" transform="translate(516.574219 0)"/>
      <use xlink:href="#DejaVuSans-28" transform="translate(548.361328 0)"/>
      <use xlink:href="#DejaVuSans-48" transform="translate(587.375 0)"/>
      <use xlink:href="#DejaVuSans-7a" transform="translate(662.570312 0)"/>
      <use xlink:href="#DejaVuSans-29" transform="translate(715.060547 0)"/>
     </g>
    </g>
   </g>
   <g id="matplotlib.axis_2">
    <g id="ytick_1">
     <g id="line2d_39">
      <path d="M 48.982813 294.590247 
L 561.197812 294.590247 
" clip-path="url(#pa1fcfe9e49)" style="fill: none; stroke-dasharray: 1.85,0.8; stroke-dashoffset: 0; stroke: #b0b0b0; stroke-width: 0.5"/>
     </g>
     <g id="line2d_40">
      <defs>
       <path id="m56cc2f803d" d="M 0 0 
L -3.5 0 
" style="stroke: #000000; stroke-width: 0.8"/>
      </defs>
      <g>
       <use xlink:href="#m56cc2f803d" x="48.982813" y="294.590247" style="stroke: #000000; stroke-width: 0.8"/>
      </g>
     </g>
     <g id="text_5">
      <!-- −20 -->
      <g transform="translate(20.878125 298.389466) scale(0.1 -0.1)">
       <defs>
        <path id="DejaVuSans-2212" d="M 678 2272 
L 4684 2272 
L 4684 1741 
L 678 1741 
L 678 2272 
z
" transform="scale(0.015625)"/>
        <path id="DejaVuSans-32" d="M 1228 531 
L 3431 531 
L 3431 0 
L 469 0 
L 469 531 
Q 828 903 1448 1529 
Q 2069 2156 2228 2338 
Q 2531 2678 2651 2914 
Q 2772 3150 2772 3378 
Q 2772 3750 2511 3984 
Q 2250 4219 1831 4219 
Q 1534 4219 1204 4116 
Q 875 4013 500 3803 
L 500 4441 
Q 881 4594 1212 4672 
Q 1544 4750 1819 4750 
Q 2544 4750 2975 4387 
Q 3406 4025 3406 3419 
Q 3406 3131 3298 2873 
Q 3191 2616 2906 2266 
Q 2828 2175 2409 1742 
Q 1991 1309 1228 531 
z
" transform="scale(0.015625)"/>
       </defs>
       <use xlink:href="#DejaVuSans-2212"/>
       <use xlink:href="#DejaVuSans-32" transform="translate(83.789062 0)"/>
       <use xlink:href="#DejaVuSans-30" transform="translate(147.412109 0)"/>
      </g>
     </g>
    </g>
    <g id="ytick_2">
     <g id="line2d_41">
      <path d="M 48.982813 255.694229 
L 561.197812 255.694229 
" clip-path="url(#pa1fcfe9e49)" style="fill: none; stroke-dasharray: 1.85,0.8; stroke-dashoffset: 0; stroke: #b0b0b0; stroke-width: 0.5"/>
     </g>
     <g id="line2d_42">
      <g>
       <use xlink:href="#m56cc2f803d" x="48.982813" y="255.694229" style="stroke: #000000; stroke-width: 0.8"/>
      </g>
     </g>
     <g id="text_6">
      <!-- −10 -->
      <g transform="translate(20.878125 259.493448) scale(0.1 -0.1)">
       <use xlink:href="#DejaVuSans-2212"/>
       <use xlink:href="#DejaVuSans-31" transform="translate(83.789062 0)"/>
       <use xlink:href="#DejaVuSans-30" transform="translate(147.412109 0)"/>
      </g>
     </g>
    </g>
    <g id="ytick_3">
     <g id="line2d_43">
      <path d="M 48.982813 216.798212 
L 561.197812 216.798212 
" clip-path="url(#pa1fcfe9e49)" style="fill: none; stroke-dasharray: 1.85,0.8; stroke-dashoffset: 0; stroke: #b0b0b0; stroke-width: 0.5"/>
     </g>
     <g id="line2d_44">
      <g>
       <use xlink:href="#m56cc2f803d" x="48.982813" y="216.798212" style="stroke: #000000; stroke-width: 0.8"/>
      </g>
     </g>
     <g id="text_7">
      <!-- 0 -->
      <g transform="translate(35.620313 220.597431) scale(0.1 -0.1)">
       <use xlink:href="#DejaVuSans-30"/>
      </g>
     </g>
    </g>
    <g id="ytick_4">
     <g id="line2d_45">
      <path d="M 48.982813 177.902195 
L 561.197812 177.902195 
" clip-path="url(#pa1fcfe9e49)" style="fill: none; stroke-dasharray: 1.85,0.8; stroke-dashoffset: 0; stroke: #b0b0b0; stroke-width: 0.5"/>
     </g>
     <g id="line2d_46">
      <g>
       <use xlink:href="#m56cc2f803d" x="48.982813" y="177.902195" style="stroke: #000000; stroke-width: 0.8"/>
      </g>
     </g>
     <g id="text_8">
      <!-- 10 -->
      <g transform="translate(29.257813 181.701413) scale(0.1 -0.1)">
       <use xlink:href="#DejaVuSans-31"/>
       <use xlink:href="#DejaVuSans-30" transform="translate(63.623047 0)"/>
      </g>
     </g>
    </g>
    <g id="ytick_5">
     <g id="line2d_47">
      <path d="M 48.982813 139.006177 
L 561.197812 139.006177 
" clip-path="url(#pa1fcfe9e49)" style="fill: none; stroke-dasharray: 1.85,0.8; stroke-dashoffset: 0; stroke: #b0b0b0; stroke-width: 0.5"/>
     </g>
     <g id="line2d_48">
      <g>
       <use xlink:href="#m56cc2f803d" x="48.982813" y="139.006177" style="stroke: #000000; stroke-width: 0.8"/>
      </g>
     </g>
     <g id="text_9">
      <!-- 20 -->
      <g transform="translate(29.257813 142.805396) scale(0.1 -0.1)">
       <use xlink:href="#DejaVuSans-32"/>
       <use xlink:href="#DejaVuSans-30" transform="translate(63.623047 0)"/>
      </g>
     </g>
    </g>
    <g id="ytick_6">
     <g id="line2d_49">
      <path d="M 48.982813 100.11016 
L 561.197812 100.11016 
" clip-path="url(#pa1fcfe9e49)" style="fill: none; stroke-dasharray: 1.85,0.8; stroke-dashoffset: 0; stroke: #b0b0b0; stroke-width: 0.5"/>
     </g>
     <g id="line2d_50">
      <g>
       <use xlink:href="#m56cc2f803d" x="48.982813" y="100.11016" style="stroke: #000000; stroke-width: 0.8"/>
      </g>
     </g>
     <g id="text_10">
      <!-- 30 -->
      <g transform="translate(29.257813 103.909379) scale(0.1 -0.1)">
       <defs>
        <path id="DejaVuSans-33" d="M 2597 2516 
Q 3050 2419 3304 2112 
Q 3559 1806 3559 1356 
Q 3559 666 3084 287 
Q 2609 -91 1734 -91 
Q 1441 -91 1130 -33 
Q 819 25 488 141 
L 488 750 
Q 750 597 1062 519 
Q 1375 441 1716 441 
Q 2309 441 2620 675 
Q 2931 909 2931 1356 
Q 2931 1769 2642 2001 
Q 2353 2234 1838 2234 
L 1294 2234 
L 1294 2753 
L 1863 2753 
Q 2328 2753 2575 2939 
Q 2822 3125 2822 3475 
Q 2822 3834 2567 4026 
Q 2313 4219 1838 4219 
Q 1578 4219 1281 4162 
Q 984 4106 628 3988 
L 628 4550 
Q 988 4650 1302 4700 
Q 1616 4750 1894 4750 
Q 2613 4750 3031 4423 
Q 3450 4097 3450 3541 
Q 3450 3153 3228 2886 
Q 3006 2619 2597 2516 
z
" transform="scale(0.015625)"/>
       </defs>
       <use xlink:href="#DejaVuSans-33"/>
       <use xlink:href="#DejaVuSans-30" transform="translate(63.623047 0)"/>
      </g>
     </g>
    </g>
    <g id="ytick_7">
     <g id="line2d_51">
      <path d="M 48.982813 61.214142 
L 561.197812 61.214142 
" clip-path="url(#pa1fcfe9e49)" style="fill: none; stroke-dasharray: 1.85,0.8; stroke-dashoffset: 0; stroke: #b0b0b0; stroke-width: 0.5"/>
     </g>
     <g id="line2d_52">
      <g>
       <use xlink:href="#m56cc2f803d" x="48.982813" y="61.214142" style="stroke: #000000; stroke-width: 0.8"/>
      </g>
     </g>
     <g id="text_11">
      <!-- 40 -->
      <g transform="translate(29.257813 65.013361) scale(0.1 -0.1)">
       <defs>
        <path id="DejaVuSans-34" d="M 2419 4116 
L 825 1625 
L 2419 1625 
L 2419 4116 
z
M 2253 4666 
L 3047 4666 
L 3047 1625 
L 3713 1625 
L 3713 1100 
L 3047 1100 
L 3047 0 
L 2419 0 
L 2419 1100 
L 313 1100 
L 313 1709 
L 2253 4666 
z
" transform="scale(0.015625)"/>
       </defs>
       <use xlink:href="#DejaVuSans-34"/>
       <use xlink:href="#DejaVuSans-30" transform="translate(63.623047 0)"/>
      </g>
     </g>
    </g>
    <g id="ytick_8">
     <g id="line2d_53">
      <path d="M 48.982813 22.318125 
L 561.197812 22.318125 
" clip-path="url(#pa1fcfe9e49)" style="fill: none; stroke-dasharray: 1.85,0.8; stroke-dashoffset: 0; stroke: #b0b0b0; stroke-width: 0.5"/>
     </g>
     <g id="line2d_54">
      <g>
       <use xlink:href="#m56cc2f803d" x="48.982813" y="22.318125" style="stroke: #000000; stroke-width: 0.8"/>
      </g>
     </g>
     <g id="text_12">
      <!-- 50 -->
      <g transform="translate(29.257813 26.117344) scale(0.1 -0.1)">
       <defs>
        <path id="DejaVuSans-35" d="M 691 4666 
L 3169 4666 
L 3169 4134 
L 1269 4134 
L 1269 2991 
Q 1406 3038 1543 3061 
Q 1681 3084 1819 3084 
Q 2600 3084 3056 2656 
Q 3513 2228 3513 1497 
Q 3513 744 3044 326 
Q 2575 -91 1722 -91 
Q 1428 -91 1123 -41 
Q 819 9 494 109 
L 494 744 
Q 775 591 1075 516 
Q 1375 441 1709 441 
Q 2250 441 2565 725 
Q 2881 1009 2881 1497 
Q 2881 1984 2565 2268 
Q 2250 2553 1709 2553 
Q 1456 2553 1204 2497 
Q 953 2441 691 2322 
L 691 4666 
z
" transform="scale(0.015625)"/>
       </defs>
       <use xlink:href="#DejaVuSans-35"/>
       <use xlink:href="#DejaVuSans-30" transform="translate(63.623047 0)"/>
      </g>
     </g>
    </g>
    <g id="text_13">
     <!-- SPL (dBA) -->
     <g transform="translate(14.798438 182.944811) rotate(-90) scale(0.1 -0.1)">
      <defs>
       <path id="DejaVuSans-53" d="M 3425 4513 
L 3425 3897 
Q 3066 4069 2747 4153 
Q 2428 4238 2131 4238 
Q 1616 4238 1336 4038 
Q 1056 3838 1056 3469 
Q 1056 3159 1242 3001 
Q 1428 2844 1947 2747 
L 2328 2669 
Q 3034 2534 3370 2195 
Q 3706 1856 3706 1288 
Q 3706 609 3251 259 
Q 2797 -91 1919 -91 
Q 1588 -91 1214 -16 
Q 841 59 441 206 
L 441 856 
Q 825 641 1194 531 
Q 1563 422 1919 422 
Q 2459 422 2753 634 
Q 3047 847 3047 1241 
Q 3047 1584 2836 1778 
Q 2625 1972 2144 2069 
L 1759 2144 
Q 1053 2284 737 2584 
Q 422 2884 422 3419 
Q 422 4038 858 4394 
Q 1294 4750 2059 4750 
Q 2388 4750 2728 4690 
Q 3069 4631 3425 4513 
z
" transform="scale(0.015625)"/>
       <path id="DejaVuSans-50" d="M 1259 4147 
L 1259 2394 
L 2053 2394 
Q 2494 2394 2734 2622 
Q 2975 2850 2975 3272 
Q 2975 3691 2734 3919 
Q 2494 4147 2053 4147 
L 1259 4147 
z
M 628 4666 
L 2053 4666 
Q 2838 4666 3239 4311 
Q 3641 3956 3641 3272 
Q 3641 2581 3239 2228 
Q 2838 1875 2053 1875 
L 1259 1875 
L 1259 0 
L 628 0 
L 628 4666 
z
" transform="scale(0.015625)"/>
       <path id="DejaVuSans-4c" d="M 628 4666 
L 1259 4666 
L 1259 531 
L 3531 531 
L 3531 0 
L 628 0 
L 628 4666 
z
" transform="scale(0.015625)"/>
       <path id="DejaVuSans-64" d="M 2906 2969 
L 2906 4863 
L 3481 4863 
L 3481 0 
L 2906 0 
L 2906 525 
Q 2725 213 2448 61 
Q 2172 -91 1784 -91 
Q 1150 -91 751 415 
Q 353 922 353 1747 
Q 353 2572 751 3078 
Q 1150 3584 1784 3584 
Q 2172 3584 2448 3432 
Q 2725 3281 2906 2969 
z
M 947 1747 
Q 947 1113 1208 752 
Q 1469 391 1925 391 
Q 2381 391 2643 752 
Q 2906 1113 2906 1747 
Q 2906 2381 2643 2742 
Q 2381 3103 1925 3103 
Q 1469 3103 1208 2742 
Q 947 2381 947 1747 
z
" transform="scale(0.015625)"/>
       <path id="DejaVuSans-42" d="M 1259 2228 
L 1259 519 
L 2272 519 
Q 2781 519 3026 730 
Q 3272 941 3272 1375 
Q 3272 1813 3026 2020 
Q 2781 2228 2272 2228 
L 1259 2228 
z
M 1259 4147 
L 1259 2741 
L 2194 2741 
Q 2656 2741 2882 2914 
Q 3109 3088 3109 3444 
Q 3109 3797 2882 3972 
Q 2656 4147 2194 4147 
L 1259 4147 
z
M 628 4666 
L 2241 4666 
Q 2963 4666 3353 4366 
Q 3744 4066 3744 3513 
Q 3744 3084 3544 2831 
Q 3344 2578 2956 2516 
Q 3422 2416 3680 2098 
Q 3938 1781 3938 1306 
Q 3938 681 3513 340 
Q 3088 0 2303 0 
L 628 0 
L 628 4666 
z
" transform="scale(0.015625)"/>
       <path id="DejaVuSans-41" d="M 2188 4044 
L 1331 1722 
L 3047 1722 
L 2188 4044 
z
M 1831 4666 
L 2547 4666 
L 4325 0 
L 3669 0 
L 3244 1197 
L 1141 1197 
L 716 0 
L 50 0 
L 1831 4666 
z
" transform="scale(0.015625)"/>
      </defs>
      <use xlink:href="#DejaVuSans-53"/>
      <use xlink:href="#DejaVuSans-50" transform="translate(63.476562 0)"/>
      <use xlink:href="#DejaVuSans-4c" transform="translate(123.779297 0)"/>
      <use xlink:href="#DejaVuSans-20" transform="translate(179.492188 0)"/>
      <use xlink:href="#DejaVuSans-28" transform="translate(211.279297 0)"/>
      <use xlink:href="#DejaVuSans-64" transform="translate(250.292969 0)"/>
      <use xlink:href="#DejaVuSans-42" transform="translate(313.769531 0)"/>
      <use xlink:href="#DejaVuSans-41" transform="translate(382.373047 0)"/>
      <use xlink:href="#DejaVuSans-29" transform="translate(450.78125 0)"/>
     </g>
    </g>
   </g>
   <g id="line2d_55">
    <path d="M 51.493242 86.083519 
L 57.198394 82.830701 
L 62.625131 86.091807 
L 67.79937 104.74555 
L 72.743565 113.711311 
L 77.477304 109.01637 
L 82.017775 106.552187 
L 86.38014 111.236892 
L 90.577849 111.826913 
L 94.622879 111.217218 
L 98.525949 114.858436 
L 105.943768 112.275183 
L 109.475052 111.280594 
L 112.897663 109.454875 
L 116.218091 108.867472 
L 119.44226 106.027014 
L 122.575596 104.065042 
L 125.623077 105.74624 
L 128.589281 112.50008 
L 131.478432 114.121327 
L 134.294433 112.745652 
L 137.040895 113.419031 
L 139.721171 110.994049 
L 142.338376 114.157856 
L 144.89541 121.403306 
L 147.394977 124.1432 
L 149.839605 130.048837 
L 154.573344 130.387668 
L 156.866746 133.834701 
L 159.113814 134.337432 
L 161.316383 136.931102 
L 163.47618 136.204163 
L 165.594836 138.102138 
L 167.673888 138.318607 
L 169.714791 136.619628 
L 171.718919 134.399521 
L 173.687573 129.30577 
L 175.621988 125.258386 
L 177.523335 119.051396 
L 179.392725 114.321022 
L 181.231214 110.413366 
L 183.039808 110.040186 
L 184.819463 109.519583 
L 186.571091 112.072044 
L 188.295561 116.663189 
L 193.31413 125.000912 
L 194.937897 122.188076 
L 196.5383 126.361504 
L 198.116001 126.120717 
L 199.671636 125.767679 
L 201.205813 120.43872 
L 202.719116 107.64614 
L 204.212106 80.698565 
L 205.685321 82.09177 
L 207.139277 107.030407 
L 208.574472 111.482066 
L 209.991384 109.199224 
L 211.390472 115.209395 
L 212.77218 114.760981 
L 214.136935 116.055831 
L 215.485146 127.360255 
L 216.817211 132.949038 
L 218.133511 132.483226 
L 219.434416 136.473939 
L 220.720281 137.924243 
L 221.99145 135.046785 
L 223.248255 136.069255 
L 224.491017 135.957925 
L 225.720047 129.386952 
L 226.935645 125.077715 
L 228.1381 123.226511 
L 229.327695 115.503445 
L 230.504702 112.876643 
L 231.669383 108.291678 
L 232.821996 104.27926 
L 233.962786 107.802867 
L 235.091994 110.710305 
L 237.31659 114.026515 
L 238.412422 116.414998 
L 239.497563 121.740798 
L 240.572219 127.590477 
L 241.636592 128.413071 
L 242.690875 127.497792 
L 243.735259 128.309065 
L 244.769928 126.204606 
L 245.79506 119.477861 
L 246.810831 116.357366 
L 247.817408 114.281384 
L 248.814958 113.721649 
L 249.803641 112.479304 
L 250.783613 110.817202 
L 251.755026 110.139489 
L 252.718028 112.294332 
L 253.672764 115.090006 
L 254.619375 115.504398 
L 255.557997 118.604841 
L 256.488765 122.746792 
L 257.411808 123.190777 
L 259.235227 119.994122 
L 260.135848 118.179511 
L 261.029235 119.268087 
L 262.794765 119.517966 
L 263.667131 122.585872 
L 264.532708 126.716255 
L 266.243912 130.21281 
L 267.929188 133.04698 
L 268.762346 133.995587 
L 269.589309 135.583038 
L 270.41017 134.170724 
L 271.225016 132.234237 
L 272.033937 132.512481 
L 272.837017 131.902659 
L 273.634339 131.749564 
L 274.425987 132.019001 
L 275.212041 133.30688 
L 275.992578 133.049845 
L 276.767675 130.882322 
L 277.537409 130.707919 
L 278.301853 133.035622 
L 279.061078 133.26529 
L 279.815156 132.997901 
L 280.564156 132.101019 
L 281.308146 125.549247 
L 282.047192 123.747318 
L 282.78136 126.339899 
L 283.510714 126.254359 
L 284.235317 126.670149 
L 284.955229 126.388682 
L 285.670512 125.152088 
L 287.087423 129.587904 
L 287.789168 128.141308 
L 288.486512 126.370537 
L 289.179512 123.307855 
L 289.86822 116.942652 
L 290.55269 111.758398 
L 291.232974 112.062119 
L 291.909123 115.858542 
L 292.581186 115.736602 
L 293.249212 117.315855 
L 293.91325 120.990789 
L 294.573348 121.007846 
L 295.229551 122.37353 
L 295.881905 120.793539 
L 296.530455 117.569918 
L 297.175246 116.990437 
L 297.81632 117.999704 
L 298.453721 119.683466 
L 299.087489 126.225688 
L 299.717667 128.577967 
L 300.344294 133.701523 
L 301.587057 141.226027 
L 302.203269 142.426996 
L 302.816087 139.522257 
L 303.425546 139.946852 
L 304.031684 140.900159 
L 304.634537 140.040842 
L 305.23414 136.843816 
L 305.830528 140.476239 
L 306.423735 137.7882 
L 307.013795 135.658221 
L 307.600741 136.985708 
L 308.184607 135.728583 
L 308.765423 131.953036 
L 309.343222 129.75018 
L 309.918035 132.590479 
L 311.624863 142.306639 
L 313.305893 143.585333 
L 313.860638 143.428902 
L 314.961895 135.837197 
L 315.508462 133.223071 
L 316.052356 133.603522 
L 316.593603 129.996987 
L 317.132229 130.571102 
L 317.668259 132.914713 
L 318.201719 132.851045 
L 318.732632 138.58513 
L 319.261022 142.621214 
L 319.786915 143.920712 
L 320.831299 138.396543 
L 321.349836 139.367377 
L 321.865968 142.696077 
L 322.379715 144.416877 
L 322.8911 144.89677 
L 323.90687 143.389696 
L 324.411298 142.117771 
L 324.913448 145.052909 
L 325.413341 150.279056 
L 325.910998 153.508901 
L 326.406438 147.337673 
L 326.899681 137.84732 
L 327.390746 132.576846 
L 327.879652 139.992882 
L 328.851065 158.508447 
L 329.333609 162.381172 
L 329.814068 159.674396 
L 330.29246 159.702185 
L 330.768804 160.13811 
L 331.243116 156.537247 
L 331.715414 149.743524 
L 332.185716 145.402342 
L 333.120394 138.950392 
L 333.584804 138.52728 
L 334.047283 140.297677 
L 334.966512 142.527638 
L 335.878206 149.871193 
L 336.331266 151.247231 
L 336.782489 154.0435 
L 337.231887 153.033759 
L 337.679478 153.666662 
L 338.125274 154.646158 
L 338.569291 156.314938 
L 339.011543 160.218606 
L 339.452042 162.933961 
L 339.890805 164.003824 
L 340.327843 163.254794 
L 340.76317 163.329572 
L 341.196801 161.527201 
L 341.628747 161.114836 
L 342.48764 153.21267 
L 342.914612 150.750149 
L 343.76367 149.512802 
L 344.185781 149.258947 
L 344.606296 146.746882 
L 345.442586 145.774037 
L 345.858385 148.223987 
L 346.272636 147.881319 
L 347.096536 149.115061 
L 347.506209 148.687195 
L 347.914379 148.559011 
L 348.321056 151.755286 
L 348.726251 156.478698 
L 349.129976 157.023155 
L 349.532241 157.152556 
L 349.933056 154.713126 
L 350.332432 154.256868 
L 350.730379 154.054371 
L 351.126907 153.699725 
L 351.522027 154.896323 
L 351.915748 152.935107 
L 352.30808 150.168378 
L 352.699034 149.185628 
L 353.088617 152.012076 
L 353.476841 151.673431 
L 353.863715 151.008753 
L 355.016327 144.892891 
L 355.397892 146.81432 
L 355.778153 152.724674 
L 356.157118 154.274833 
L 356.534795 151.56426 
L 357.286326 140.671982 
L 358.032812 144.514694 
L 358.404185 148.42163 
L 358.774322 149.713295 
L 359.143232 146.76069 
L 359.510922 147.597894 
L 360.242675 146.752351 
L 360.606754 145.864542 
L 360.969645 143.712774 
L 361.331356 142.57358 
L 361.691895 141.027541 
L 362.051269 141.253256 
L 362.766551 142.761491 
L 363.122475 139.965197 
L 363.477263 135.638918 
L 363.830924 134.46263 
L 364.534889 141.905824 
L 364.885207 147.602108 
L 365.234426 148.101481 
L 365.929591 154.439163 
L 366.275551 155.65563 
L 366.620439 156.276781 
L 366.96426 153.040795 
L 367.307021 151.790832 
L 367.64873 153.592852 
L 368.329014 155.335291 
L 368.667602 160.929026 
L 369.005162 163.728445 
L 369.341702 164.622487 
L 369.677225 165.155818 
L 370.01174 164.064295 
L 370.345252 164.427888 
L 370.677766 165.812059 
L 371.00929 167.913586 
L 371.339828 170.751578 
L 371.669387 172.599676 
L 371.997973 169.44218 
L 372.32559 168.426598 
L 372.652246 168.543316 
L 373.302692 172.161594 
L 373.949357 164.485499 
L 374.271286 164.944721 
L 374.592285 164.564189 
L 374.91236 161.760823 
L 375.231517 163.068194 
L 375.54976 163.123444 
L 375.867096 163.918526 
L 376.183529 165.475338 
L 376.499064 166.391455 
L 377.127461 172.594934 
L 377.440334 176.086013 
L 377.752329 177.006969 
L 378.063451 178.730951 
L 378.373705 177.543425 
L 378.683096 175.682132 
L 378.991629 174.795963 
L 379.299309 172.263923 
L 379.60614 174.086187 
L 379.912126 174.661391 
L 380.217273 173.3632 
L 380.521586 173.477036 
L 380.825068 173.425768 
L 381.730577 178.421908 
L 382.33018 170.206341 
L 382.628773 168.223496 
L 382.926567 164.795856 
L 383.223566 165.438633 
L 383.519775 163.482009 
L 384.109835 152.604589 
L 384.403695 161.148423 
L 384.696781 162.460539 
L 385.280646 163.136879 
L 385.571434 164.436081 
L 385.861463 166.706315 
L 386.150737 166.8769 
L 386.439262 165.772485 
L 386.72704 166.045976 
L 387.014075 165.8316 
L 387.300371 164.773905 
L 387.585932 164.610882 
L 387.870762 162.735648 
L 388.154865 162.880557 
L 388.438244 162.878916 
L 388.720902 163.944035 
L 389.002844 159.74976 
L 389.284073 157.757974 
L 389.564593 159.835702 
L 389.844407 158.065183 
L 390.123519 157.540542 
L 390.401933 159.18441 
L 390.679651 158.599083 
L 390.956677 160.996319 
L 391.233016 164.892293 
L 391.508669 165.184928 
L 391.783641 164.250681 
L 392.057935 165.427487 
L 392.331554 163.521728 
L 392.876781 157.16585 
L 393.148395 158.181539 
L 393.419348 158.328555 
L 393.689642 156.322579 
L 393.959281 156.302481 
L 394.496606 159.888874 
L 395.031348 166.258337 
L 395.563531 174.987078 
L 395.828671 178.158198 
L 396.09318 179.865917 
L 396.357062 180.217656 
L 396.620319 182.471292 
L 396.882955 182.246716 
L 397.144971 181.818603 
L 397.667161 179.241068 
L 397.927339 178.798598 
L 398.18691 176.93596 
L 398.445876 178.067858 
L 398.704241 178.067675 
L 398.962007 179.245102 
L 399.219177 182.504513 
L 399.475754 180.10802 
L 399.731741 179.397234 
L 399.98714 179.931444 
L 400.241953 179.985712 
L 400.496184 178.43814 
L 400.749836 172.981167 
L 401.00291 172.960083 
L 401.25541 174.087405 
L 401.507337 171.554894 
L 401.758696 175.049438 
L 402.009488 176.844053 
L 402.509381 183.830209 
L 402.758488 183.845483 
L 403.007038 185.124799 
L 403.255033 185.451559 
L 403.749372 185.065243 
L 403.99572 185.169097 
L 404.241524 172.515466 
L 404.731507 193.888125 
L 404.975692 193.695136 
L 405.462459 191.315124 
L 405.705046 190.283245 
L 405.947105 190.220316 
L 406.188638 190.32593 
L 406.429648 188.85343 
L 406.670137 185.299941 
L 407.149561 183.138115 
L 407.626927 180.3646 
L 407.864843 180.836156 
L 408.102252 182.414615 
L 408.339156 185.328152 
L 408.575556 185.66174 
L 408.811454 185.427532 
L 409.046853 186.132478 
L 409.281755 190.312448 
L 409.750076 191.353551 
L 409.983499 191.464017 
L 410.448881 195.001497 
L 410.912324 197.285792 
L 411.143323 197.538145 
L 411.373843 197.382477 
L 411.603887 198.602478 
L 411.833456 198.370807 
L 412.062552 200.083267 
L 412.291177 200.346193 
L 412.519333 201.17842 
L 412.747022 199.989001 
L 413.201007 193.761396 
L 413.427306 194.607115 
L 413.653146 194.435308 
L 413.878528 194.854908 
L 414.103455 194.21811 
L 414.327927 195.155334 
L 414.551947 193.984694 
L 414.775517 196.816051 
L 414.998639 196.961686 
L 415.221314 196.621929 
L 415.443544 197.00136 
L 415.665331 196.359055 
L 415.886676 195.007811 
L 416.107582 196.399437 
L 416.548082 197.27673 
L 416.76768 195.478374 
L 416.986844 194.99933 
L 417.205578 194.03193 
L 417.423882 194.174096 
L 417.641759 193.954079 
L 417.85921 192.825088 
L 418.076237 193.767797 
L 418.292841 192.185262 
L 418.509023 192.779061 
L 418.724787 192.651045 
L 418.940133 191.495381 
L 419.155063 193.751074 
L 419.369578 192.329767 
L 419.58368 193.865165 
L 419.797371 192.52298 
L 420.010652 192.144986 
L 420.223525 190.636186 
L 420.648052 196.453299 
L 420.85971 195.110577 
L 421.070966 196.550902 
L 421.281821 195.292702 
L 421.492277 194.955959 
L 421.911999 202.984733 
L 422.121267 203.29124 
L 422.74672 193.476218 
L 423.368675 188.699882 
L 423.575223 189.739122 
L 423.781388 188.745249 
L 423.987172 188.607724 
L 424.397601 194.141463 
L 424.602249 193.890553 
L 425.010418 198.36908 
L 425.213943 199.141823 
L 425.417095 198.320794 
L 426.024337 200.350939 
L 426.226016 200.579322 
L 426.42733 200.241292 
L 426.628281 200.667132 
L 427.029096 200.912224 
L 427.428472 199.203731 
L 427.627623 203.03137 
L 427.826419 203.691797 
L 428.222947 203.419729 
L 428.420682 205.573979 
L 428.618067 205.767606 
L 428.815101 207.057526 
L 429.011788 205.202965 
L 429.208127 205.788866 
L 429.795073 201.623993 
L 429.990036 202.341113 
L 430.378938 199.539821 
L 430.766486 198.271247 
L 430.959755 198.976158 
L 431.152688 196.82544 
L 431.345287 198.0207 
L 431.537554 196.572424 
L 431.729488 196.54491 
L 432.112367 199.676964 
L 432.493932 203.151701 
L 432.874192 205.887771 
L 433.253157 209.479723 
L 433.630835 201.720411 
L 433.819194 198.310462 
L 434.194958 196.345732 
L 434.382366 198.772044 
L 434.756235 195.035938 
L 434.9427 195.697652 
L 435.314693 200.420109 
L 435.500225 205.105604 
L 435.685447 206.352287 
L 435.870362 205.170367 
L 436.423268 195.789614 
L 436.606961 193.849143 
L 436.973439 194.896485 
L 437.338714 204.02563 
L 437.520903 204.046847 
L 437.702793 203.420481 
L 438.065685 200.718035 
L 438.246687 201.684445 
L 438.427396 201.334388 
L 438.607811 200.707193 
L 438.787934 203.336881 
L 438.967766 201.169729 
L 439.147308 203.405941 
L 439.326561 202.530245 
L 439.862591 195.578024 
L 440.040695 195.714344 
L 440.218515 196.154325 
L 440.39605 199.244127 
L 440.573303 200.247834 
L 440.750274 200.000783 
L 440.926963 202.552606 
L 441.279503 204.06715 
L 441.455354 203.628216 
L 441.806225 204.722895 
L 441.981247 206.54721 
L 442.504665 214.530938 
L 442.678591 216.18343 
L 442.852246 214.541418 
L 443.025631 217.50243 
L 443.198745 217.374138 
L 443.544168 215.180125 
L 443.716478 216.516164 
L 443.888522 216.244422 
L 444.403061 208.486951 
L 444.574047 208.667034 
L 444.74477 207.305092 
L 444.915231 207.024091 
L 445.085432 207.975531 
L 445.255372 208.200028 
L 445.425054 208.946806 
L 445.763642 211.726873 
L 445.93255 212.763312 
L 446.101202 212.130948 
L 446.269599 209.243639 
L 446.773265 212.959755 
L 447.274661 206.227131 
L 447.441291 202.097573 
L 447.607673 202.120616 
L 447.939691 203.494495 
L 448.270722 210.950224 
L 448.435868 211.480606 
L 448.765427 214.532428 
L 448.929841 213.844959 
L 449.257942 206.708117 
L 449.42163 205.395652 
L 449.748285 200.216333 
L 449.911254 200.619756 
L 450.236477 204.662681 
L 450.398732 204.621325 
L 450.884083 196.957726 
L 451.045397 193.123758 
L 451.367325 198.691331 
L 451.688324 194.480486 
L 451.848477 196.356524 
L 452.008399 194.924139 
L 452.486792 203.336487 
L 452.6458 203.706501 
L 452.804581 204.45181 
L 452.963135 203.787229 
L 453.121464 204.820422 
L 453.437448 210.370469 
L 453.595104 210.397334 
L 453.752536 209.652512 
L 454.066734 213.941942 
L 454.223501 213.301035 
L 454.380047 213.955705 
L 455.004038 223.892648 
L 455.469745 218.338345 
L 455.624548 221.535079 
L 455.779136 222.351603 
L 456.087669 217.390971 
L 456.241615 218.165938 
L 456.395348 220.898014 
L 456.54887 220.365493 
L 456.702179 220.430054 
L 456.855278 218.295606 
L 457.008166 218.168112 
L 457.313313 220.342011 
L 457.465573 219.853742 
L 457.921107 219.898328 
L 458.525598 211.225254 
L 458.676209 211.434072 
L 458.826616 212.937843 
L 459.126822 210.201009 
L 459.276621 211.538706 
L 459.426219 211.669406 
L 459.575616 210.982212 
L 460.171206 205.177563 
L 460.615814 210.869285 
L 460.763623 213.665143 
L 460.911236 213.273149 
L 461.058652 215.326415 
L 461.205874 215.293578 
L 461.352902 215.752717 
L 461.499735 217.352501 
L 461.646374 216.694631 
L 461.792821 216.987842 
L 461.939075 215.690528 
L 462.085136 216.258888 
L 462.231007 215.904242 
L 462.376686 217.101121 
L 462.522175 216.133324 
L 462.667473 217.667197 
L 462.812582 216.85932 
L 463.391133 208.677582 
L 463.535301 207.805945 
L 463.679283 205.971537 
L 463.966689 213.002201 
L 464.110114 213.123229 
L 464.253355 214.698158 
L 464.396411 217.929309 
L 464.539283 217.96661 
L 464.681972 218.705478 
L 464.824478 218.814948 
L 464.966802 219.422682 
L 465.534283 217.619713 
L 465.675702 216.032196 
L 465.958002 218.931591 
L 466.239587 222.850215 
L 466.380113 222.025542 
L 466.520461 219.375202 
L 466.660633 219.480284 
L 466.800628 220.590244 
L 467.219559 212.037837 
L 467.358853 215.684793 
L 467.775691 209.577438 
L 468.190972 194.139159 
L 468.329055 192.617992 
L 468.466967 188.723971 
L 468.879681 201.596287 
L 469.016912 203.586723 
L 469.153974 203.887405 
L 469.290868 203.107947 
L 469.427593 200.401981 
L 469.564151 201.466454 
L 469.700541 198.250931 
L 469.97282 200.147763 
L 470.379994 192.484282 
L 470.650617 180.316605 
L 471.055321 167.661132 
L 471.189896 167.356897 
L 471.324308 166.418604 
L 471.726573 193.454461 
L 472.260673 161.593302 
L 472.79222 177.969555 
L 473.057044 194.045335 
L 473.18922 193.657489 
L 473.321239 190.459318 
L 473.453102 191.040988 
L 473.847754 200.841111 
L 473.978994 201.885561 
L 474.241011 192.002436 
L 474.371788 189.84813 
L 474.893365 167.508903 
L 475.023378 164.799168 
L 475.153239 166.255528 
L 475.282949 166.36672 
L 475.412508 165.902851 
L 475.541916 163.79925 
L 475.800281 182.427859 
L 476.058047 174.648131 
L 476.315217 162.1702 
L 476.44358 160.89252 
L 477.083179 195.450306 
L 477.337993 206.627995 
L 477.465181 204.728768 
L 477.972484 174.566762 
L 478.225271 167.672769 
L 478.351449 168.257656 
L 478.477484 167.299378 
L 478.603377 171.522213 
L 478.854735 191.519832 
L 478.980202 194.50895 
L 479.230711 185.257852 
L 479.355755 181.182057 
L 479.480658 180.747819 
L 479.730044 187.948267 
L 479.854527 188.23369 
L 480.103077 197.496997 
L 480.227144 197.639118 
L 480.474864 200.400281 
L 480.722033 209.050637 
L 480.845412 209.012153 
L 481.09176 202.119155 
L 481.21473 202.526516 
L 481.337563 203.738564 
L 481.705253 198.143202 
L 481.827547 199.091925 
L 481.949706 196.902731 
L 482.193623 199.539622 
L 482.315381 199.05786 
L 482.437006 197.838504 
L 482.558499 197.806373 
L 483.163977 210.714927 
L 483.284678 208.176157 
L 483.405248 208.413321 
L 483.766177 213.182222 
L 483.886227 212.882807 
L 484.125938 214.352675 
L 484.2456 213.957884 
L 484.484539 211.052367 
L 484.603817 213.707195 
L 485.316807 202.937015 
L 485.671595 212.298584 
L 485.789607 209.768704 
L 485.907494 199.53346 
L 486.142893 207.999162 
L 486.377795 211.02975 
L 486.612202 211.598545 
L 486.72922 211.097233 
L 486.846116 213.406296 
L 487.079539 211.15243 
L 487.196067 211.054327 
L 487.312473 211.412341 
L 487.428758 210.910494 
L 487.544921 211.910581 
L 487.660962 210.782874 
L 487.776883 212.289422 
L 487.892684 209.585172 
L 488.354682 220.938103 
L 488.469883 221.669918 
L 488.584964 225.157303 
L 488.699927 225.002052 
L 488.81477 225.379931 
L 489.158592 229.723633 
L 489.387217 222.976223 
L 489.501353 223.493513 
L 489.843062 216.508634 
L 490.070286 218.037872 
L 490.297046 209.875966 
L 490.410254 217.402644 
L 490.636323 216.226598 
L 490.749186 216.084998 
L 490.974568 221.038652 
L 491.087088 217.395187 
L 491.199494 217.786769 
L 491.423967 220.580852 
L 491.536033 217.331597 
L 491.983174 224.257379 
L 492.317354 227.495558 
L 492.539584 227.850904 
L 492.76137 225.891375 
L 492.872098 227.045899 
L 492.982716 226.839764 
L 493.093224 225.972352 
L 493.31391 227.022051 
L 493.53416 222.795045 
L 493.753975 225.026396 
L 493.863719 224.450551 
L 493.973355 223.229958 
L 494.192305 224.899421 
L 494.301618 224.455846 
L 494.519922 209.849764 
L 494.737799 224.520101 
L 494.846577 224.174173 
L 495.063816 222.851264 
L 495.280631 217.489432 
L 495.38888 218.058142 
L 495.820827 212.269004 
L 496.143689 222.742973 
L 496.358411 226.641974 
L 496.786616 221.83306 
L 497.000102 224.845589 
L 497.106692 224.263984 
L 497.213179 223.145799 
L 497.532031 227.754607 
L 497.744092 223.789875 
L 497.849971 226.52508 
L 498.061428 222.996898 
L 498.167005 223.235635 
L 498.37786 224.809576 
L 498.483138 214.486689 
L 498.588317 216.781693 
L 498.693396 222.177535 
L 498.798375 221.355013 
L 498.903256 222.773494 
L 499.112722 222.49424 
L 499.217307 222.947168 
L 499.530473 228.056281 
L 499.842759 225.329108 
L 499.94666 225.563153 
L 500.154172 223.386897 
L 500.361297 226.665319 
L 500.671263 222.645569 
L 500.774393 223.884869 
L 500.877428 222.561715 
L 500.980367 223.097993 
L 501.185961 222.431572 
L 501.493641 224.849631 
L 501.596012 226.422576 
L 501.698288 226.315493 
L 501.90256 226.959141 
L 502.004556 226.414965 
L 502.309982 232.069365 
L 502.411605 229.221675 
L 502.513135 230.62866 
L 503.019399 225.1579 
L 503.120376 226.250727 
L 503.221262 229.645447 
L 503.322056 227.785242 
L 503.52337 233.192536 
L 503.62389 233.158989 
L 503.82466 230.965625 
L 503.924908 232.693359 
L 504.125135 231.407777 
L 504.225114 231.669871 
L 504.325003 232.514591 
L 504.524511 231.55535 
L 504.624132 232.483421 
L 504.723663 232.364524 
L 504.823105 230.766792 
L 504.922458 231.159008 
L 505.021723 233.830118 
L 505.219987 231.204274 
L 505.318987 233.261036 
L 505.417898 231.936097 
L 505.516722 234.758857 
L 505.615458 231.787756 
L 505.714106 231.912035 
L 505.812667 231.196152 
L 505.911141 231.979092 
L 506.009528 231.447062 
L 506.107827 231.595171 
L 506.20604 230.545917 
L 506.304166 235.053818 
L 506.598027 231.89755 
L 506.695808 231.395756 
L 506.793503 231.529436 
L 506.891113 232.986818 
L 507.086075 230.55477 
L 507.183429 232.378279 
L 507.280697 231.190788 
L 507.37788 232.525412 
L 507.474978 232.259507 
L 507.571992 232.619905 
L 507.862526 228.221539 
L 508.152303 233.221554 
L 508.248728 232.086899 
L 508.345069 233.501184 
L 508.441327 233.202442 
L 508.537502 231.996115 
L 508.633593 234.639276 
L 508.729602 231.984067 
L 508.825528 232.335629 
L 508.921371 234.053 
L 509.017132 233.732161 
L 509.208406 235.696235 
L 509.399353 234.031847 
L 509.494703 234.102283 
L 509.685158 233.86701 
L 509.780264 231.280667 
L 509.970232 233.497689 
L 510.065094 233.711468 
L 510.538196 230.167594 
L 510.726875 232.125451 
L 510.821094 231.432561 
L 511.009294 228.831115 
L 511.103275 228.936688 
L 511.197176 228.591677 
L 511.384741 225.70193 
L 511.478405 228.366044 
L 511.57199 227.771223 
L 511.665497 225.951862 
L 511.758925 226.259866 
L 511.852275 229.730995 
L 511.945546 227.157129 
L 512.131854 227.944709 
L 512.224892 228.115853 
L 512.317851 226.426898 
L 512.410733 229.537785 
L 512.503538 228.509595 
L 512.596265 228.772937 
L 513.151009 235.706811 
L 513.243198 235.549525 
L 513.977973 221.623653 
L 514.343548 232.08982 
L 514.434754 231.725901 
L 514.525885 231.89926 
L 514.707925 225.127248 
L 515.071112 219.522009 
L 515.703851 228.079841 
L 515.793949 227.258275 
L 515.883974 227.026309 
L 515.973926 227.196118 
L 516.153613 222.178566 
L 516.243348 222.84988 
L 516.4226 219.971095 
L 516.512118 221.70961 
L 516.601564 220.995644 
L 516.690938 222.545051 
L 517.047718 219.284926 
L 517.22568 216.656506 
L 517.403357 219.324823 
L 517.580752 217.794051 
L 517.757863 223.115895 
L 517.846313 223.006327 
L 517.934693 223.2842 
L 518.023003 222.864449 
L 518.287512 218.680631 
L 518.375542 218.232385 
L 518.463503 218.827289 
L 518.639215 223.220359 
L 518.814651 221.504997 
L 518.98981 226.187357 
L 519.164694 221.525704 
L 519.252033 220.845542 
L 519.948286 227.289703 
L 520.035012 228.988696 
L 520.12167 226.883377 
L 520.208261 227.456501 
L 520.294785 225.859028 
L 520.381241 226.775359 
L 520.46763 229.055717 
L 520.726396 223.727822 
L 520.812518 224.084946 
L 520.898573 224.332044 
L 520.984561 225.118406 
L 521.070483 225.001487 
L 521.156339 224.215247 
L 521.327852 226.6245 
L 521.413509 227.333763 
L 521.499101 226.756255 
L 521.584626 228.098029 
L 521.670086 227.417465 
L 521.755481 227.676253 
L 521.926073 225.670581 
L 522.011271 227.554135 
L 522.351412 218.171533 
L 522.436285 219.265308 
L 522.605837 218.536206 
L 522.690516 216.367914 
L 523.112948 222.778554 
L 523.281472 223.54841 
L 523.365638 222.843421 
L 523.449741 224.65193 
L 523.617757 221.528405 
L 523.701669 222.0568 
L 523.869305 226.607635 
L 523.953028 226.825672 
L 524.120285 223.657932 
L 524.620553 228.51995 
L 524.703713 232.258031 
L 524.78681 231.948613 
L 524.869846 232.206149 
L 524.952819 230.618922 
L 525.035731 231.220197 
L 525.118581 229.717467 
L 525.201369 230.413685 
L 525.284096 230.30692 
L 525.366761 230.159895 
L 525.449365 229.586913 
L 525.614389 226.590593 
L 525.696809 226.415245 
L 525.943704 223.939956 
L 526.025881 222.599281 
L 526.190052 226.103055 
L 526.272047 224.736786 
L 526.353981 224.831022 
L 526.51767 228.056419 
L 526.599423 227.326915 
L 526.762751 224.970061 
L 526.844325 225.165522 
L 526.925839 222.975209 
L 527.007294 223.024202 
L 527.088688 223.530851 
L 527.170024 222.23604 
L 527.332516 223.024723 
L 527.494772 220.602852 
L 527.575811 219.690017 
L 527.656791 220.139516 
L 527.737712 221.776597 
L 527.818574 221.329409 
L 527.980123 222.511578 
L 528.222006 228.438328 
L 528.38297 231.755058 
L 528.543701 227.914335 
L 528.62398 229.560762 
L 528.704201 229.415485 
L 528.784364 229.661332 
L 529.184314 225.623104 
L 529.264132 225.561783 
L 529.343892 225.311257 
L 529.423596 226.439895 
L 529.503242 225.168015 
L 529.582831 226.537896 
L 529.662364 226.531497 
L 529.741839 223.424125 
L 529.821258 223.70066 
L 529.90062 223.469188 
L 530.217504 218.327592 
L 530.454576 212.652204 
L 530.533487 212.954395 
L 530.691143 211.814795 
L 530.848576 215.354805 
L 530.927208 216.005435 
L 531.084307 215.605244 
L 531.241185 217.772046 
L 531.319541 217.600635 
L 531.397841 215.257944 
L 531.866491 229.536885 
L 531.944408 230.396578 
L 532.02227 228.787319 
L 532.100078 229.563037 
L 532.177831 232.512716 
L 532.25553 232.193189 
L 532.333175 232.497263 
L 532.488302 230.09641 
L 532.875176 225.135571 
L 532.952389 225.902349 
L 533.106655 223.682674 
L 533.183709 224.085791 
L 533.260708 224.82033 
L 533.491388 221.841655 
L 533.568175 222.649745 
L 533.644909 221.94259 
L 533.874794 225.961832 
L 533.951317 225.569076 
L 534.027788 225.68175 
L 534.104205 226.738108 
L 534.256884 223.935769 
L 534.333144 224.091639 
L 534.561613 220.205437 
L 534.637665 218.617187 
L 534.789613 222.939861 
L 535.092888 218.510145 
L 535.244216 222.257313 
L 535.395339 219.197761 
L 535.470823 219.512604 
L 535.546256 220.290955 
L 535.696969 226.172156 
L 535.772249 225.632073 
L 535.847478 224.936586 
L 536.222861 229.167897 
L 536.297786 228.576029 
L 536.447485 232.039132 
L 536.596982 235.970321 
L 536.671656 237.06949 
L 536.746279 236.251431 
L 536.820852 234.025551 
L 536.895376 234.698124 
L 537.044273 233.089246 
L 537.118647 235.379696 
L 537.267245 230.715416 
L 537.34147 230.989854 
L 537.415646 230.221983 
L 537.563848 231.645417 
L 537.637876 230.216805 
L 537.859663 234.068357 
L 537.933493 233.227779 
L 538.007275 233.357408 
L 538.154692 235.437531 
L 538.228327 237.062598 
L 538.375452 231.402177 
L 538.448941 231.520137 
L 538.595774 233.182979 
L 538.669118 231.297572 
L 538.742414 231.973923 
L 538.815661 231.742623 
L 538.962011 233.186737 
L 539.035114 234.663684 
L 539.181176 228.635398 
L 539.254135 229.428603 
L 539.327046 229.290634 
L 539.545494 225.144714 
L 539.618214 225.561272 
L 539.690887 228.605844 
L 539.763513 227.846763 
L 539.836091 227.187064 
L 539.908622 227.680734 
L 539.981105 227.349636 
L 540.125931 224.862992 
L 540.270568 226.508174 
L 540.342817 225.928121 
L 540.487172 231.096226 
L 540.55928 230.658035 
L 540.703355 234.285747 
L 540.775323 234.273198 
L 540.847244 234.580401 
L 540.919119 233.196089 
L 540.990947 233.418638 
L 541.062729 233.196002 
L 541.134465 234.532482 
L 541.277797 232.101653 
L 541.49245 234.307553 
L 541.563909 234.215306 
L 541.70669 238.121533 
L 541.849288 235.314266 
L 542.062842 238.102097 
L 542.204984 236.124086 
L 542.275987 236.329782 
L 542.346944 236.552904 
L 542.488724 235.526993 
L 542.559546 232.497741 
L 542.630323 233.145617 
L 542.771742 232.885208 
L 542.842384 231.820475 
L 542.912981 231.934178 
L 543.054042 233.182433 
L 543.194923 231.017739 
L 543.265297 232.213453 
L 543.686609 226.300729 
L 543.966599 233.720079 
L 544.036487 232.948593 
L 544.315599 235.722669 
L 544.385267 235.638333 
L 544.594012 230.86054 
L 544.663507 230.133745 
L 545.01033 232.383308 
L 545.079565 232.336157 
L 545.217906 230.395228 
L 545.287012 230.949871 
L 545.356075 230.858073 
L 545.494072 229.024089 
L 545.700748 231.399088 
L 545.769555 228.795677 
L 546.112952 237.177655 
L 546.250014 234.859263 
L 546.318482 237.091853 
L 546.455291 234.624181 
L 546.523633 235.014124 
L 546.728406 234.016336 
L 546.864713 237.084957 
L 546.932804 236.495275 
L 547.06886 237.486941 
L 547.272633 240.429333 
L 547.340474 237.946328 
L 547.408274 239.339777 
L 547.476033 238.832707 
L 547.543751 240.244267 
L 547.611427 239.824121 
L 547.746656 236.895143 
L 547.81421 237.795586 
L 547.949193 233.675576 
L 548.016623 235.280493 
L 548.084012 234.68178 
L 548.151361 234.35932 
L 548.218668 235.346761 
L 548.285935 232.972227 
L 548.353162 233.633658 
L 548.420348 234.553685 
L 548.554598 233.003104 
L 548.621662 233.741884 
L 548.688686 233.440634 
L 548.822612 231.922273 
L 548.889515 232.221006 
L 549.156725 235.286583 
L 549.223427 232.078154 
L 549.29009 232.903494 
L 549.423295 234.059732 
L 549.489837 234.783262 
L 549.622803 232.336011 
L 549.755611 232.554922 
L 549.821955 232.66781 
L 549.88826 232.145766 
L 550.086937 235.21452 
L 550.153084 233.990815 
L 550.28526 237.541921 
L 550.48323 232.709137 
L 550.549141 234.367008 
L 550.615014 234.25567 
L 550.680848 234.039078 
L 550.878115 236.695618 
L 550.943794 236.531682 
L 551.009433 236.494577 
L 551.206119 234.581964 
L 551.271604 231.678739 
L 551.337051 231.858247 
L 551.7941 240.688677 
L 551.85924 238.076176 
L 551.924341 240.337729 
L 552.119418 235.657523 
L 552.443787 238.274649 
L 552.508547 238.203954 
L 552.57327 240.431669 
L 552.637955 239.894067 
L 552.702603 239.814744 
L 552.767213 240.917209 
L 552.831785 240.885161 
L 552.960818 239.170447 
L 553.025278 239.290284 
L 553.089701 243.79323 
L 553.154086 240.884705 
L 553.218435 239.62735 
L 553.282746 240.41424 
L 553.411257 242.910096 
L 553.475456 241.938049 
L 553.603745 236.184098 
L 553.795901 238.614939 
L 553.859879 237.976071 
L 553.92382 239.921121 
L 553.987725 236.930786 
L 554.051593 237.782397 
L 554.115424 239.051986 
L 554.179219 238.817247 
L 554.370384 235.877339 
L 554.434032 234.790008 
L 554.688264 240.672337 
L 554.815162 242.930093 
L 554.941915 238.837223 
L 555.005237 239.672815 
L 555.321311 234.482393 
L 555.447489 237.855066 
L 555.510524 235.835109 
L 555.573524 236.771945 
L 555.636488 236.804749 
L 555.76231 233.638997 
L 555.825167 234.123764 
L 555.950775 236.859223 
L 556.013526 235.609417 
L 556.076242 236.540035 
L 556.201567 239.338601 
L 556.264176 236.326001 
L 556.326751 237.630892 
L 556.451794 236.085844 
L 556.514263 239.416497 
L 556.576697 238.337966 
L 556.763789 240.384946 
L 556.826083 241.045752 
L 556.888342 240.746447 
L 557.261168 235.472052 
L 557.323184 237.870927 
L 557.385165 236.452701 
L 557.570903 233.739574 
L 557.632747 235.925243 
L 557.694557 235.353397 
L 557.818073 233.949869 
L 557.879779 234.231045 
L 558.064694 241.905155 
L 558.126264 240.779222 
L 558.187799 239.936753 
L 558.249301 240.144373 
L 558.310769 241.030556 
L 558.494969 238.248762 
L 558.6176 238.911278 
L 558.740096 235.952233 
L 558.862457 232.950787 
L 558.923587 233.950138 
L 559.045746 239.379579 
L 559.350559 233.257813 
L 559.47225 235.90774 
L 559.533046 234.248827 
L 559.593809 235.155816 
L 559.775898 240.372644 
L 559.836528 240.169906 
L 559.897125 241.283123 
L 559.957689 240.502165 
L 560.018221 237.902201 
L 560.078719 238.389093 
L 560.139184 239.225117 
L 560.199617 239.031531 
L 560.320383 239.486785 
L 560.380718 240.068052 
L 560.441019 239.936554 
L 560.501288 239.621839 
L 560.561524 240.113405 
L 560.621728 239.502714 
L 560.681899 240.96547 
L 560.742037 240.631057 
L 560.862216 238.627862 
L 560.922258 238.958273 
L 560.982266 240.172177 
L 561.042243 239.987488 
L 561.162098 240.656719 
L 561.162098 240.656719 
" clip-path="url(#pa1fcfe9e49)" style="fill: none; stroke: #ff7f0e; stroke-linecap: square"/>
   </g>
   <g id="patch_3">
    <path d="M 48.982813 294.590247 
L 48.982813 22.318125 
" style="fill: none; stroke: #000000; stroke-width: 0.8; stroke-linejoin: miter; stroke-linecap: square"/>
   </g>
   <g id="patch_4">
    <path d="M 561.197812 294.590247 
L 561.197812 22.318125 
" style="fill: none; stroke: #000000; stroke-width: 0.8; stroke-linejoin: miter; stroke-linecap: square"/>
   </g>
   <g id="patch_5">
    <path d="M 48.982813 294.590247 
L 561.197812 294.590247 
" style="fill: none; stroke: #000000; stroke-width: 0.8; stroke-linejoin: miter; stroke-linecap: square"/>
   </g>
   <g id="patch_6">
    <path d="M 48.982813 22.318125 
L 561.197812 22.318125 
" style="fill: none; stroke: #000000; stroke-width: 0.8; stroke-linejoin: miter; stroke-linecap: square"/>
   </g>
   <g id="text_14">
    <!-- Honda Odyssey Blower Setting 3 - Narrow Band SPL (dBA) -->
    <g transform="translate(130.569063 16.318125) scale(0.12 -0.12)">
     <defs>
      <path id="DejaVuSans-6f" d="M 1959 3097 
Q 1497 3097 1228 2736 
Q 959 2375 959 1747 
Q 959 1119 1226 758 
Q 1494 397 1959 397 
Q 2419 397 2687 759 
Q 2956 1122 2956 1747 
Q 2956 2369 2687 2733 
Q 2419 3097 1959 3097 
z
M 1959 3584 
Q 2709 3584 3137 3096 
Q 3566 2609 3566 1747 
Q 3566 888 3137 398 
Q 2709 -91 1959 -91 
Q 1206 -91 779 398 
Q 353 888 353 1747 
Q 353 2609 779 3096 
Q 1206 3584 1959 3584 
z
" transform="scale(0.015625)"/>
      <path id="DejaVuSans-61" d="M 2194 1759 
Q 1497 1759 1228 1600 
Q 959 1441 959 1056 
Q 959 750 1161 570 
Q 1363 391 1709 391 
Q 2188 391 2477 730 
Q 2766 1069 2766 1631 
L 2766 1759 
L 2194 1759 
z
M 3341 1997 
L 3341 0 
L 2766 0 
L 2766 531 
Q 2569 213 2275 61 
Q 1981 -91 1556 -91 
Q 1019 -91 701 211 
Q 384 513 384 1019 
Q 384 1609 779 1909 
Q 1175 2209 1959 2209 
L 2766 2209 
L 2766 2266 
Q 2766 2663 2505 2880 
Q 2244 3097 1772 3097 
Q 1472 3097 1187 3025 
Q 903 2953 641 2809 
L 641 3341 
Q 956 3463 1253 3523 
Q 1550 3584 1831 3584 
Q 2591 3584 2966 3190 
Q 3341 2797 3341 1997 
z
" transform="scale(0.015625)"/>
      <path id="DejaVuSans-4f" d="M 2522 4238 
Q 1834 4238 1429 3725 
Q 1025 3213 1025 2328 
Q 1025 1447 1429 934 
Q 1834 422 2522 422 
Q 3209 422 3611 934 
Q 4013 1447 4013 2328 
Q 4013 3213 3611 3725 
Q 3209 4238 2522 4238 
z
M 2522 4750 
Q 3503 4750 4090 4092 
Q 4678 3434 4678 2328 
Q 4678 1225 4090 567 
Q 3503 -91 2522 -91 
Q 1538 -91 948 565 
Q 359 1222 359 2328 
Q 359 3434 948 4092 
Q 1538 4750 2522 4750 
z
" transform="scale(0.015625)"/>
      <path id="DejaVuSans-73" d="M 2834 3397 
L 2834 2853 
Q 2591 2978 2328 3040 
Q 2066 3103 1784 3103 
Q 1356 3103 1142 2972 
Q 928 2841 928 2578 
Q 928 2378 1081 2264 
Q 1234 2150 1697 2047 
L 1894 2003 
Q 2506 1872 2764 1633 
Q 3022 1394 3022 966 
Q 3022 478 2636 193 
Q 2250 -91 1575 -91 
Q 1294 -91 989 -36 
Q 684 19 347 128 
L 347 722 
Q 666 556 975 473 
Q 1284 391 1588 391 
Q 1994 391 2212 530 
Q 2431 669 2431 922 
Q 2431 1156 2273 1281 
Q 2116 1406 1581 1522 
L 1381 1569 
Q 847 1681 609 1914 
Q 372 2147 372 2553 
Q 372 3047 722 3315 
Q 1072 3584 1716 3584 
Q 2034 3584 2315 3537 
Q 2597 3491 2834 3397 
z
" transform="scale(0.015625)"/>
      <path id="DejaVuSans-6c" d="M 603 4863 
L 1178 4863 
L 1178 0 
L 603 0 
L 603 4863 
z
" transform="scale(0.015625)"/>
      <path id="DejaVuSans-77" d="M 269 3500 
L 844 3500 
L 1563 769 
L 2278 3500 
L 2956 3500 
L 3675 769 
L 4391 3500 
L 4966 3500 
L 4050 0 
L 3372 0 
L 2619 2869 
L 1863 0 
L 1184 0 
L 269 3500 
z
" transform="scale(0.015625)"/>
      <path id="DejaVuSans-74" d="M 1172 4494 
L 1172 3500 
L 2356 3500 
L 2356 3053 
L 1172 3053 
L 1172 1153 
Q 1172 725 1289 603 
Q 1406 481 1766 481 
L 2356 481 
L 2356 0 
L 1766 0 
Q 1100 0 847 248 
Q 594 497 594 1153 
L 594 3053 
L 172 3053 
L 172 3500 
L 594 3500 
L 594 4494 
L 1172 4494 
z
" transform="scale(0.015625)"/>
      <path id="DejaVuSans-69" d="M 603 3500 
L 1178 3500 
L 1178 0 
L 603 0 
L 603 3500 
z
M 603 4863 
L 1178 4863 
L 1178 4134 
L 603 4134 
L 603 4863 
z
" transform="scale(0.015625)"/>
      <path id="DejaVuSans-67" d="M 2906 1791 
Q 2906 2416 2648 2759 
Q 2391 3103 1925 3103 
Q 1463 3103 1205 2759 
Q 947 2416 947 1791 
Q 947 1169 1205 825 
Q 1463 481 1925 481 
Q 2391 481 2648 825 
Q 2906 1169 2906 1791 
z
M 3481 434 
Q 3481 -459 3084 -895 
Q 2688 -1331 1869 -1331 
Q 1566 -1331 1297 -1286 
Q 1028 -1241 775 -1147 
L 775 -588 
Q 1028 -725 1275 -790 
Q 1522 -856 1778 -856 
Q 2344 -856 2625 -561 
Q 2906 -266 2906 331 
L 2906 616 
Q 2728 306 2450 153 
Q 2172 0 1784 0 
Q 1141 0 747 490 
Q 353 981 353 1791 
Q 353 2603 747 3093 
Q 1141 3584 1784 3584 
Q 2172 3584 2450 3431 
Q 2728 3278 2906 2969 
L 2906 3500 
L 3481 3500 
L 3481 434 
z
" transform="scale(0.015625)"/>
      <path id="DejaVuSans-2d" d="M 313 2009 
L 1997 2009 
L 1997 1497 
L 313 1497 
L 313 2009 
z
" transform="scale(0.015625)"/>
      <path id="DejaVuSans-4e" d="M 628 4666 
L 1478 4666 
L 3547 763 
L 3547 4666 
L 4159 4666 
L 4159 0 
L 3309 0 
L 1241 3903 
L 1241 0 
L 628 0 
L 628 4666 
z
" transform="scale(0.015625)"/>
     </defs>
     <use xlink:href="#DejaVuSans-48"/>
     <use xlink:href="#DejaVuSans-6f" transform="translate(75.195312 0)"/>
     <use xlink:href="#DejaVuSans-6e" transform="translate(136.376953 0)"/>
     <use xlink:href="#DejaVuSans-64" transform="translate(199.755859 0)"/>
     <use xlink:href="#DejaVuSans-61" transform="translate(263.232422 0)"/>
     <use xlink:href="#DejaVuSans-20" transform="translate(324.511719 0)"/>
     <use xlink:href="#DejaVuSans-4f" transform="translate(356.298828 0)"/>
     <use xlink:href="#DejaVuSans-64" transform="translate(435.009766 0)"/>
     <use xlink:href="#DejaVuSans-79" transform="translate(498.486328 0)"/>
     <use xlink:href="#DejaVuSans-73" transform="translate(557.666016 0)"/>
     <use xlink:href="#DejaVuSans-73" transform="translate(609.765625 0)"/>
     <use xlink:href="#DejaVuSans-65" transform="translate(661.865234 0)"/>
     <use xlink:href="#DejaVuSans-79" transform="translate(723.388672 0)"/>
     <use xlink:href="#DejaVuSans-20" transform="translate(782.568359 0)"/>
     <use xlink:href="#DejaVuSans-42" transform="translate(814.355469 0)"/>
     <use xlink:href="#DejaVuSans-6c" transform="translate(882.958984 0)"/>
     <use xlink:href="#DejaVuSans-6f" transform="translate(910.742188 0)"/>
     <use xlink:href="#DejaVuSans-77" transform="translate(971.923828 0)"/>
     <use xlink:href="#DejaVuSans-65" transform="translate(1053.710938 0)"/>
     <use xlink:href="#DejaVuSans-72" transform="translate(1115.234375 0)"/>
     <use xlink:href="#DejaVuSans-20" transform="translate(1156.347656 0)"/>
     <use xlink:href="#DejaVuSans-53" transform="translate(1188.134766 0)"/>
     <use xlink:href="#DejaVuSans-65" transform="translate(1251.611328 0)"/>
     <use xlink:href="#DejaVuSans-74" transform="translate(1313.134766 0)"/>
     <use xlink:href="#DejaVuSans-74" transform="translate(1352.34375 0)"/>
     <use xlink:href="#DejaVuSans-69" transform="translate(1391.552734 0)"/>
     <use xlink:href="#DejaVuSans-6e" transform="translate(1419.335938 0)"/>
     <use xlink:href="#DejaVuSans-67" transform="translate(1482.714844 0)"/>
     <use xlink:href="#DejaVuSans-20" transform="translate(1546.191406 0)"/>
     <use xlink:href="#DejaVuSans-33" transform="translate(1577.978516 0)"/>
     <use xlink:href="#DejaVuSans-20" transform="translate(1641.601562 0)"/>
     <use xlink:href="#DejaVuSans-2d" transform="translate(1673.388672 0)"/>
     <use xlink:href="#DejaVuSans-20" transform="translate(1709.472656 0)"/>
     <use xlink:href="#DejaVuSans-4e" transform="translate(1741.259766 0)"/>
     <use xlink:href="#DejaVuSans-61" transform="translate(1816.064453 0)"/>
     <use xlink:href="#DejaVuSans-72" transform="translate(1877.34375 0)"/>
     <use xlink:href="#DejaVuSans-72" transform="translate(1916.707031 0)"/>
     <use xlink:href="#DejaVuSans-6f" transform="translate(1955.570312 0)"/>
     <use xlink:href="#DejaVuSans-77" transform="translate(2016.751953 0)"/>
     <use xlink:href="#DejaVuSans-20" transform="translate(2098.539062 0)"/>
     <use xlink:href="#DejaVuSans-42" transform="translate(2130.326172 0)"/>
     <use xlink:href="#DejaVuSans-61" transform="translate(2198.929688 0)"/>
     <use xlink:href="#DejaVuSans-6e" transform="translate(2260.208984 0)"/>
     <use xlink:href="#DejaVuSans-64" transform="translate(2323.587891 0)"/>
     <use xlink:href="#DejaVuSans-20" transform="translate(2387.064453 0)"/>
     <use xlink:href="#DejaVuSans-53" transform="translate(2418.851562 0)"/>
     <use xlink:href="#DejaVuSans-50" transform="translate(2482.328125 0)"/>
     <use xlink:href="#DejaVuSans-4c" transform="translate(2542.630859 0)"/>
     <use xlink:href="#DejaVuSans-20" transform="translate(2598.34375 0)"/>
     <use xlink:href="#DejaVuSans-28" transform="translate(2630.130859 0)"/>
     <use xlink:href="#DejaVuSans-64" transform="translate(2669.144531 0)"/>
     <use xlink:href="#DejaVuSans-42" transform="translate(2732.621094 0)"/>
     <use xlink:href="#DejaVuSans-41" transform="translate(2801.224609 0)"/>
     <use xlink:href="#DejaVuSans-29" transform="translate(2869.632812 0)"/>
    </g>
   </g>
  </g>
 </g>
 <defs>
  <clipPath id="pa1fcfe9e49">
   <rect x="48.982813" y="22.318125" width="512.215" height="272.272122"/>
  </clipPath>
 </defs>
</svg>
