<?xml version="1.0" encoding="utf-8" standalone="no"?>
<!DOCTYPE svg PUBLIC "-//W3C//DTD SVG 1.1//EN"
  "http://www.w3.org/Graphics/SVG/1.1/DTD/svg11.dtd">
<svg xmlns:xlink="http://www.w3.org/1999/xlink" width="568.397812pt" height="351.806674pt" viewBox="0 0 568.397812 351.806674" xmlns="http://www.w3.org/2000/svg" version="1.1">
 <metadata>
  <rdf:RDF xmlns:dc="http://purl.org/dc/elements/1.1/" xmlns:cc="http://creativecommons.org/ns#" xmlns:rdf="http://www.w3.org/1999/02/22-rdf-syntax-ns#">
   <cc:Work>
    <dc:type rdf:resource="http://purl.org/dc/dcmitype/StillImage"/>
    <dc:date>2025-04-24T21:37:19.092843</dc:date>
    <dc:format>image/svg+xml</dc:format>
    <dc:creator>
     <cc:Agent>
      <dc:title>Matplotlib v3.10.0, https://matplotlib.org/</dc:title>
     </cc:Agent>
    </dc:creator>
   </cc:Work>
  </rdf:RDF>
 </metadata>
 <defs>
  <style type="text/css">*{stroke-linejoin: round; stroke-linecap: butt}</style>
 </defs>
 <g id="figure_1">
  <g id="patch_1">
   <path d="M 0 351.806674 
L 568.397812 351.806674 
L 568.397812 0 
L 0 0 
z
" style="fill: #ffffff"/>
  </g>
  <g id="axes_1">
   <g id="patch_2">
    <path d="M 48.982813 294.590247 
L 561.197812 294.590247 
L 561.197812 22.318125 
L 48.982813 22.318125 
z
" style="fill: #ffffff"/>
   </g>
   <g id="matplotlib.axis_1">
    <g id="xtick_1">
     <g id="line2d_1">
      <path d="M 48.982813 294.590247 
L 48.982813 22.318125 
" clip-path="url(#p07ed484bcd)" style="fill: none; stroke-dasharray: 1.85,0.8; stroke-dashoffset: 0; stroke: #b0b0b0; stroke-width: 0.5"/>
     </g>
     <g id="line2d_2">
      <defs>
       <path id="m780a39d7da" d="M 0 0 
L 0 3.5 
" style="stroke: #000000; stroke-width: 0.8"/>
      </defs>
      <g>
       <use xlink:href="#m780a39d7da" x="48.982813" y="294.590247" style="stroke: #000000; stroke-width: 0.8"/>
      </g>
     </g>
     <g id="text_1">
      <!-- 100 -->
      <g transform="translate(34.015351 320.460054) rotate(-45) scale(0.1 -0.1)">
       <defs>
        <path id="DejaVuSans-31" d="M 794 531 
L 1825 531 
L 1825 4091 
L 703 3866 
L 703 4441 
L 1819 4666 
L 2450 4666 
L 2450 531 
L 3481 531 
L 3481 0 
L 794 0 
L 794 531 
z
" transform="scale(0.015625)"/>
        <path id="DejaVuSans-30" d="M 2034 4250 
Q 1547 4250 1301 3770 
Q 1056 3291 1056 2328 
Q 1056 1369 1301 889 
Q 1547 409 2034 409 
Q 2525 409 2770 889 
Q 3016 1369 3016 2328 
Q 3016 3291 2770 3770 
Q 2525 4250 2034 4250 
z
M 2034 4750 
Q 2819 4750 3233 4129 
Q 3647 3509 3647 2328 
Q 3647 1150 3233 529 
Q 2819 -91 2034 -91 
Q 1250 -91 836 529 
Q 422 1150 422 2328 
Q 422 3509 836 4129 
Q 1250 4750 2034 4750 
z
" transform="scale(0.015625)"/>
       </defs>
       <use xlink:href="#DejaVuSans-31"/>
       <use xlink:href="#DejaVuSans-30" transform="translate(63.623047 0)"/>
       <use xlink:href="#DejaVuSans-30" transform="translate(127.246094 0)"/>
      </g>
     </g>
    </g>
    <g id="xtick_2">
     <g id="line2d_3">
      <path d="M 305.090312 294.590247 
L 305.090312 22.318125 
" clip-path="url(#p07ed484bcd)" style="fill: none; stroke-dasharray: 1.85,0.8; stroke-dashoffset: 0; stroke: #b0b0b0; stroke-width: 0.5"/>
     </g>
     <g id="line2d_4">
      <g>
       <use xlink:href="#m780a39d7da" x="305.090312" y="294.590247" style="stroke: #000000; stroke-width: 0.8"/>
      </g>
     </g>
     <g id="text_2">
      <!-- 1000 -->
      <g transform="translate(285.623884 324.959021) rotate(-45) scale(0.1 -0.1)">
       <use xlink:href="#DejaVuSans-31"/>
       <use xlink:href="#DejaVuSans-30" transform="translate(63.623047 0)"/>
       <use xlink:href="#DejaVuSans-30" transform="translate(127.246094 0)"/>
       <use xlink:href="#DejaVuSans-30" transform="translate(190.869141 0)"/>
      </g>
     </g>
    </g>
    <g id="xtick_3">
     <g id="line2d_5">
      <path d="M 561.197812 294.590247 
L 561.197812 22.318125 
" clip-path="url(#p07ed484bcd)" style="fill: none; stroke-dasharray: 1.85,0.8; stroke-dashoffset: 0; stroke: #b0b0b0; stroke-width: 0.5"/>
     </g>
     <g id="line2d_6">
      <g>
       <use xlink:href="#m780a39d7da" x="561.197812" y="294.590247" style="stroke: #000000; stroke-width: 0.8"/>
      </g>
     </g>
     <g id="text_3">
      <!-- 10000 -->
      <g transform="translate(537.232417 329.457988) rotate(-45) scale(0.1 -0.1)">
       <use xlink:href="#DejaVuSans-31"/>
       <use xlink:href="#DejaVuSans-30" transform="translate(63.623047 0)"/>
       <use xlink:href="#DejaVuSans-30" transform="translate(127.246094 0)"/>
       <use xlink:href="#DejaVuSans-30" transform="translate(190.869141 0)"/>
       <use xlink:href="#DejaVuSans-30" transform="translate(254.492188 0)"/>
      </g>
     </g>
    </g>
    <g id="xtick_4">
     <g id="line2d_7">
      <path d="M 126.078852 294.590247 
L 126.078852 22.318125 
" clip-path="url(#p07ed484bcd)" style="fill: none; stroke-dasharray: 1.85,0.8; stroke-dashoffset: 0; stroke: #b0b0b0; stroke-width: 0.5"/>
     </g>
     <g id="line2d_8">
      <defs>
       <path id="m7ac6de9a27" d="M 0 0 
L 0 2 
" style="stroke: #000000; stroke-width: 0.6"/>
      </defs>
      <g>
       <use xlink:href="#m7ac6de9a27" x="126.078852" y="294.590247" style="stroke: #000000; stroke-width: 0.6"/>
      </g>
     </g>
    </g>
    <g id="xtick_5">
     <g id="line2d_9">
      <path d="M 171.177144 294.590247 
L 171.177144 22.318125 
" clip-path="url(#p07ed484bcd)" style="fill: none; stroke-dasharray: 1.85,0.8; stroke-dashoffset: 0; stroke: #b0b0b0; stroke-width: 0.5"/>
     </g>
     <g id="line2d_10">
      <g>
       <use xlink:href="#m7ac6de9a27" x="171.177144" y="294.590247" style="stroke: #000000; stroke-width: 0.6"/>
      </g>
     </g>
    </g>
    <g id="xtick_6">
     <g id="line2d_11">
      <path d="M 203.174892 294.590247 
L 203.174892 22.318125 
" clip-path="url(#p07ed484bcd)" style="fill: none; stroke-dasharray: 1.85,0.8; stroke-dashoffset: 0; stroke: #b0b0b0; stroke-width: 0.5"/>
     </g>
     <g id="line2d_12">
      <g>
       <use xlink:href="#m7ac6de9a27" x="203.174892" y="294.590247" style="stroke: #000000; stroke-width: 0.6"/>
      </g>
     </g>
    </g>
    <g id="xtick_7">
     <g id="line2d_13">
      <path d="M 227.994273 294.590247 
L 227.994273 22.318125 
" clip-path="url(#p07ed484bcd)" style="fill: none; stroke-dasharray: 1.85,0.8; stroke-dashoffset: 0; stroke: #b0b0b0; stroke-width: 0.5"/>
     </g>
     <g id="line2d_14">
      <g>
       <use xlink:href="#m7ac6de9a27" x="227.994273" y="294.590247" style="stroke: #000000; stroke-width: 0.6"/>
      </g>
     </g>
    </g>
    <g id="xtick_8">
     <g id="line2d_15">
      <path d="M 248.273184 294.590247 
L 248.273184 22.318125 
" clip-path="url(#p07ed484bcd)" style="fill: none; stroke-dasharray: 1.85,0.8; stroke-dashoffset: 0; stroke: #b0b0b0; stroke-width: 0.5"/>
     </g>
     <g id="line2d_16">
      <g>
       <use xlink:href="#m7ac6de9a27" x="248.273184" y="294.590247" style="stroke: #000000; stroke-width: 0.6"/>
      </g>
     </g>
    </g>
    <g id="xtick_9">
     <g id="line2d_17">
      <path d="M 265.418759 294.590247 
L 265.418759 22.318125 
" clip-path="url(#p07ed484bcd)" style="fill: none; stroke-dasharray: 1.85,0.8; stroke-dashoffset: 0; stroke: #b0b0b0; stroke-width: 0.5"/>
     </g>
     <g id="line2d_18">
      <g>
       <use xlink:href="#m7ac6de9a27" x="265.418759" y="294.590247" style="stroke: #000000; stroke-width: 0.6"/>
      </g>
     </g>
    </g>
    <g id="xtick_10">
     <g id="line2d_19">
      <path d="M 280.270931 294.590247 
L 280.270931 22.318125 
" clip-path="url(#p07ed484bcd)" style="fill: none; stroke-dasharray: 1.85,0.8; stroke-dashoffset: 0; stroke: #b0b0b0; stroke-width: 0.5"/>
     </g>
     <g id="line2d_20">
      <g>
       <use xlink:href="#m7ac6de9a27" x="280.270931" y="294.590247" style="stroke: #000000; stroke-width: 0.6"/>
      </g>
     </g>
    </g>
    <g id="xtick_11">
     <g id="line2d_21">
      <path d="M 293.371476 294.590247 
L 293.371476 22.318125 
" clip-path="url(#p07ed484bcd)" style="fill: none; stroke-dasharray: 1.85,0.8; stroke-dashoffset: 0; stroke: #b0b0b0; stroke-width: 0.5"/>
     </g>
     <g id="line2d_22">
      <g>
       <use xlink:href="#m7ac6de9a27" x="293.371476" y="294.590247" style="stroke: #000000; stroke-width: 0.6"/>
      </g>
     </g>
    </g>
    <g id="xtick_12">
     <g id="line2d_23">
      <path d="M 382.186352 294.590247 
L 382.186352 22.318125 
" clip-path="url(#p07ed484bcd)" style="fill: none; stroke-dasharray: 1.85,0.8; stroke-dashoffset: 0; stroke: #b0b0b0; stroke-width: 0.5"/>
     </g>
     <g id="line2d_24">
      <g>
       <use xlink:href="#m7ac6de9a27" x="382.186352" y="294.590247" style="stroke: #000000; stroke-width: 0.6"/>
      </g>
     </g>
    </g>
    <g id="xtick_13">
     <g id="line2d_25">
      <path d="M 427.284644 294.590247 
L 427.284644 22.318125 
" clip-path="url(#p07ed484bcd)" style="fill: none; stroke-dasharray: 1.85,0.8; stroke-dashoffset: 0; stroke: #b0b0b0; stroke-width: 0.5"/>
     </g>
     <g id="line2d_26">
      <g>
       <use xlink:href="#m7ac6de9a27" x="427.284644" y="294.590247" style="stroke: #000000; stroke-width: 0.6"/>
      </g>
     </g>
    </g>
    <g id="xtick_14">
     <g id="line2d_27">
      <path d="M 459.282392 294.590247 
L 459.282392 22.318125 
" clip-path="url(#p07ed484bcd)" style="fill: none; stroke-dasharray: 1.85,0.8; stroke-dashoffset: 0; stroke: #b0b0b0; stroke-width: 0.5"/>
     </g>
     <g id="line2d_28">
      <g>
       <use xlink:href="#m7ac6de9a27" x="459.282392" y="294.590247" style="stroke: #000000; stroke-width: 0.6"/>
      </g>
     </g>
    </g>
    <g id="xtick_15">
     <g id="line2d_29">
      <path d="M 484.101773 294.590247 
L 484.101773 22.318125 
" clip-path="url(#p07ed484bcd)" style="fill: none; stroke-dasharray: 1.85,0.8; stroke-dashoffset: 0; stroke: #b0b0b0; stroke-width: 0.5"/>
     </g>
     <g id="line2d_30">
      <g>
       <use xlink:href="#m7ac6de9a27" x="484.101773" y="294.590247" style="stroke: #000000; stroke-width: 0.6"/>
      </g>
     </g>
    </g>
    <g id="xtick_16">
     <g id="line2d_31">
      <path d="M 504.380684 294.590247 
L 504.380684 22.318125 
" clip-path="url(#p07ed484bcd)" style="fill: none; stroke-dasharray: 1.85,0.8; stroke-dashoffset: 0; stroke: #b0b0b0; stroke-width: 0.5"/>
     </g>
     <g id="line2d_32">
      <g>
       <use xlink:href="#m7ac6de9a27" x="504.380684" y="294.590247" style="stroke: #000000; stroke-width: 0.6"/>
      </g>
     </g>
    </g>
    <g id="xtick_17">
     <g id="line2d_33">
      <path d="M 521.526259 294.590247 
L 521.526259 22.318125 
" clip-path="url(#p07ed484bcd)" style="fill: none; stroke-dasharray: 1.85,0.8; stroke-dashoffset: 0; stroke: #b0b0b0; stroke-width: 0.5"/>
     </g>
     <g id="line2d_34">
      <g>
       <use xlink:href="#m7ac6de9a27" x="521.526259" y="294.590247" style="stroke: #000000; stroke-width: 0.6"/>
      </g>
     </g>
    </g>
    <g id="xtick_18">
     <g id="line2d_35">
      <path d="M 536.378431 294.590247 
L 536.378431 22.318125 
" clip-path="url(#p07ed484bcd)" style="fill: none; stroke-dasharray: 1.85,0.8; stroke-dashoffset: 0; stroke: #b0b0b0; stroke-width: 0.5"/>
     </g>
     <g id="line2d_36">
      <g>
       <use xlink:href="#m7ac6de9a27" x="536.378431" y="294.590247" style="stroke: #000000; stroke-width: 0.6"/>
      </g>
     </g>
    </g>
    <g id="xtick_19">
     <g id="line2d_37">
      <path d="M 549.478976 294.590247 
L 549.478976 22.318125 
" clip-path="url(#p07ed484bcd)" style="fill: none; stroke-dasharray: 1.85,0.8; stroke-dashoffset: 0; stroke: #b0b0b0; stroke-width: 0.5"/>
     </g>
     <g id="line2d_38">
      <g>
       <use xlink:href="#m7ac6de9a27" x="549.478976" y="294.590247" style="stroke: #000000; stroke-width: 0.6"/>
      </g>
     </g>
    </g>
    <g id="text_4">
     <!-- Frequency (Hz) -->
     <g transform="translate(267.385625 342.526987) scale(0.1 -0.1)">
      <defs>
       <path id="DejaVuSans-46" d="M 628 4666 
L 3309 4666 
L 3309 4134 
L 1259 4134 
L 1259 2759 
L 3109 2759 
L 3109 2228 
L 1259 2228 
L 1259 0 
L 628 0 
L 628 4666 
z
" transform="scale(0.015625)"/>
       <path id="DejaVuSans-72" d="M 2631 2963 
Q 2534 3019 2420 3045 
Q 2306 3072 2169 3072 
Q 1681 3072 1420 2755 
Q 1159 2438 1159 1844 
L 1159 0 
L 581 0 
L 581 3500 
L 1159 3500 
L 1159 2956 
Q 1341 3275 1631 3429 
Q 1922 3584 2338 3584 
Q 2397 3584 2469 3576 
Q 2541 3569 2628 3553 
L 2631 2963 
z
" transform="scale(0.015625)"/>
       <path id="DejaVuSans-65" d="M 3597 1894 
L 3597 1613 
L 953 1613 
Q 991 1019 1311 708 
Q 1631 397 2203 397 
Q 2534 397 2845 478 
Q 3156 559 3463 722 
L 3463 178 
Q 3153 47 2828 -22 
Q 2503 -91 2169 -91 
Q 1331 -91 842 396 
Q 353 884 353 1716 
Q 353 2575 817 3079 
Q 1281 3584 2069 3584 
Q 2775 3584 3186 3129 
Q 3597 2675 3597 1894 
z
M 3022 2063 
Q 3016 2534 2758 2815 
Q 2500 3097 2075 3097 
Q 1594 3097 1305 2825 
Q 1016 2553 972 2059 
L 3022 2063 
z
" transform="scale(0.015625)"/>
       <path id="DejaVuSans-71" d="M 947 1747 
Q 947 1113 1208 752 
Q 1469 391 1925 391 
Q 2381 391 2643 752 
Q 2906 1113 2906 1747 
Q 2906 2381 2643 2742 
Q 2381 3103 1925 3103 
Q 1469 3103 1208 2742 
Q 947 2381 947 1747 
z
M 2906 525 
Q 2725 213 2448 61 
Q 2172 -91 1784 -91 
Q 1150 -91 751 415 
Q 353 922 353 1747 
Q 353 2572 751 3078 
Q 1150 3584 1784 3584 
Q 2172 3584 2448 3432 
Q 2725 3281 2906 2969 
L 2906 3500 
L 3481 3500 
L 3481 -1331 
L 2906 -1331 
L 2906 525 
z
" transform="scale(0.015625)"/>
       <path id="DejaVuSans-75" d="M 544 1381 
L 544 3500 
L 1119 3500 
L 1119 1403 
Q 1119 906 1312 657 
Q 1506 409 1894 409 
Q 2359 409 2629 706 
Q 2900 1003 2900 1516 
L 2900 3500 
L 3475 3500 
L 3475 0 
L 2900 0 
L 2900 538 
Q 2691 219 2414 64 
Q 2138 -91 1772 -91 
Q 1169 -91 856 284 
Q 544 659 544 1381 
z
M 1991 3584 
L 1991 3584 
z
" transform="scale(0.015625)"/>
       <path id="DejaVuSans-6e" d="M 3513 2113 
L 3513 0 
L 2938 0 
L 2938 2094 
Q 2938 2591 2744 2837 
Q 2550 3084 2163 3084 
Q 1697 3084 1428 2787 
Q 1159 2491 1159 1978 
L 1159 0 
L 581 0 
L 581 3500 
L 1159 3500 
L 1159 2956 
Q 1366 3272 1645 3428 
Q 1925 3584 2291 3584 
Q 2894 3584 3203 3211 
Q 3513 2838 3513 2113 
z
" transform="scale(0.015625)"/>
       <path id="DejaVuSans-63" d="M 3122 3366 
L 3122 2828 
Q 2878 2963 2633 3030 
Q 2388 3097 2138 3097 
Q 1578 3097 1268 2742 
Q 959 2388 959 1747 
Q 959 1106 1268 751 
Q 1578 397 2138 397 
Q 2388 397 2633 464 
Q 2878 531 3122 666 
L 3122 134 
Q 2881 22 2623 -34 
Q 2366 -91 2075 -91 
Q 1284 -91 818 406 
Q 353 903 353 1747 
Q 353 2603 823 3093 
Q 1294 3584 2113 3584 
Q 2378 3584 2631 3529 
Q 2884 3475 3122 3366 
z
" transform="scale(0.015625)"/>
       <path id="DejaVuSans-79" d="M 2059 -325 
Q 1816 -950 1584 -1140 
Q 1353 -1331 966 -1331 
L 506 -1331 
L 506 -850 
L 844 -850 
Q 1081 -850 1212 -737 
Q 1344 -625 1503 -206 
L 1606 56 
L 191 3500 
L 800 3500 
L 1894 763 
L 2988 3500 
L 3597 3500 
L 2059 -325 
z
" transform="scale(0.015625)"/>
       <path id="DejaVuSans-20" transform="scale(0.015625)"/>
       <path id="DejaVuSans-28" d="M 1984 4856 
Q 1566 4138 1362 3434 
Q 1159 2731 1159 2009 
Q 1159 1288 1364 580 
Q 1569 -128 1984 -844 
L 1484 -844 
Q 1016 -109 783 600 
Q 550 1309 550 2009 
Q 550 2706 781 3412 
Q 1013 4119 1484 4856 
L 1984 4856 
z
" transform="scale(0.015625)"/>
       <path id="DejaVuSans-48" d="M 628 4666 
L 1259 4666 
L 1259 2753 
L 3553 2753 
L 3553 4666 
L 4184 4666 
L 4184 0 
L 3553 0 
L 3553 2222 
L 1259 2222 
L 1259 0 
L 628 0 
L 628 4666 
z
" transform="scale(0.015625)"/>
       <path id="DejaVuSans-7a" d="M 353 3500 
L 3084 3500 
L 3084 2975 
L 922 459 
L 3084 459 
L 3084 0 
L 275 0 
L 275 525 
L 2438 3041 
L 353 3041 
L 353 3500 
z
" transform="scale(0.015625)"/>
       <path id="DejaVuSans-29" d="M 513 4856 
L 1013 4856 
Q 1481 4119 1714 3412 
Q 1947 2706 1947 2009 
Q 1947 1309 1714 600 
Q 1481 -109 1013 -844 
L 513 -844 
Q 928 -128 1133 580 
Q 1338 1288 1338 2009 
Q 1338 2731 1133 3434 
Q 928 4138 513 4856 
z
" transform="scale(0.015625)"/>
      </defs>
      <use xlink:href="#DejaVuSans-46"/>
      <use xlink:href="#DejaVuSans-72" transform="translate(50.269531 0)"/>
      <use xlink:href="#DejaVuSans-65" transform="translate(89.132812 0)"/>
      <use xlink:href="#DejaVuSans-71" transform="translate(150.65625 0)"/>
      <use xlink:href="#DejaVuSans-75" transform="translate(214.132812 0)"/>
      <use xlink:href="#DejaVuSans-65" transform="translate(277.511719 0)"/>
      <use xlink:href="#DejaVuSans-6e" transform="translate(339.035156 0)"/>
      <use xlink:href="#DejaVuSans-63" transform="translate(402.414062 0)"/>
      <use xlink:href="#DejaVuSans-79" transform="translate(457.394531 0)"/>
      <use xlink:href="#DejaVuSans-20" transform="translate(516.574219 0)"/>
      <use xlink:href="#DejaVuSans-28" transform="translate(548.361328 0)"/>
      <use xlink:href="#DejaVuSans-48" transform="translate(587.375 0)"/>
      <use xlink:href="#DejaVuSans-7a" transform="translate(662.570312 0)"/>
      <use xlink:href="#DejaVuSans-29" transform="translate(715.060547 0)"/>
     </g>
    </g>
   </g>
   <g id="matplotlib.axis_2">
    <g id="ytick_1">
     <g id="line2d_39">
      <path d="M 48.982813 294.590247 
L 561.197812 294.590247 
" clip-path="url(#p07ed484bcd)" style="fill: none; stroke-dasharray: 1.85,0.8; stroke-dashoffset: 0; stroke: #b0b0b0; stroke-width: 0.5"/>
     </g>
     <g id="line2d_40">
      <defs>
       <path id="me05c3fab96" d="M 0 0 
L -3.5 0 
" style="stroke: #000000; stroke-width: 0.8"/>
      </defs>
      <g>
       <use xlink:href="#me05c3fab96" x="48.982813" y="294.590247" style="stroke: #000000; stroke-width: 0.8"/>
      </g>
     </g>
     <g id="text_5">
      <!-- −20 -->
      <g transform="translate(20.878125 298.389466) scale(0.1 -0.1)">
       <defs>
        <path id="DejaVuSans-2212" d="M 678 2272 
L 4684 2272 
L 4684 1741 
L 678 1741 
L 678 2272 
z
" transform="scale(0.015625)"/>
        <path id="DejaVuSans-32" d="M 1228 531 
L 3431 531 
L 3431 0 
L 469 0 
L 469 531 
Q 828 903 1448 1529 
Q 2069 2156 2228 2338 
Q 2531 2678 2651 2914 
Q 2772 3150 2772 3378 
Q 2772 3750 2511 3984 
Q 2250 4219 1831 4219 
Q 1534 4219 1204 4116 
Q 875 4013 500 3803 
L 500 4441 
Q 881 4594 1212 4672 
Q 1544 4750 1819 4750 
Q 2544 4750 2975 4387 
Q 3406 4025 3406 3419 
Q 3406 3131 3298 2873 
Q 3191 2616 2906 2266 
Q 2828 2175 2409 1742 
Q 1991 1309 1228 531 
z
" transform="scale(0.015625)"/>
       </defs>
       <use xlink:href="#DejaVuSans-2212"/>
       <use xlink:href="#DejaVuSans-32" transform="translate(83.789062 0)"/>
       <use xlink:href="#DejaVuSans-30" transform="translate(147.412109 0)"/>
      </g>
     </g>
    </g>
    <g id="ytick_2">
     <g id="line2d_41">
      <path d="M 48.982813 255.694229 
L 561.197812 255.694229 
" clip-path="url(#p07ed484bcd)" style="fill: none; stroke-dasharray: 1.85,0.8; stroke-dashoffset: 0; stroke: #b0b0b0; stroke-width: 0.5"/>
     </g>
     <g id="line2d_42">
      <g>
       <use xlink:href="#me05c3fab96" x="48.982813" y="255.694229" style="stroke: #000000; stroke-width: 0.8"/>
      </g>
     </g>
     <g id="text_6">
      <!-- −10 -->
      <g transform="translate(20.878125 259.493448) scale(0.1 -0.1)">
       <use xlink:href="#DejaVuSans-2212"/>
       <use xlink:href="#DejaVuSans-31" transform="translate(83.789062 0)"/>
       <use xlink:href="#DejaVuSans-30" transform="translate(147.412109 0)"/>
      </g>
     </g>
    </g>
    <g id="ytick_3">
     <g id="line2d_43">
      <path d="M 48.982813 216.798212 
L 561.197812 216.798212 
" clip-path="url(#p07ed484bcd)" style="fill: none; stroke-dasharray: 1.85,0.8; stroke-dashoffset: 0; stroke: #b0b0b0; stroke-width: 0.5"/>
     </g>
     <g id="line2d_44">
      <g>
       <use xlink:href="#me05c3fab96" x="48.982813" y="216.798212" style="stroke: #000000; stroke-width: 0.8"/>
      </g>
     </g>
     <g id="text_7">
      <!-- 0 -->
      <g transform="translate(35.620313 220.597431) scale(0.1 -0.1)">
       <use xlink:href="#DejaVuSans-30"/>
      </g>
     </g>
    </g>
    <g id="ytick_4">
     <g id="line2d_45">
      <path d="M 48.982813 177.902195 
L 561.197812 177.902195 
" clip-path="url(#p07ed484bcd)" style="fill: none; stroke-dasharray: 1.85,0.8; stroke-dashoffset: 0; stroke: #b0b0b0; stroke-width: 0.5"/>
     </g>
     <g id="line2d_46">
      <g>
       <use xlink:href="#me05c3fab96" x="48.982813" y="177.902195" style="stroke: #000000; stroke-width: 0.8"/>
      </g>
     </g>
     <g id="text_8">
      <!-- 10 -->
      <g transform="translate(29.257813 181.701413) scale(0.1 -0.1)">
       <use xlink:href="#DejaVuSans-31"/>
       <use xlink:href="#DejaVuSans-30" transform="translate(63.623047 0)"/>
      </g>
     </g>
    </g>
    <g id="ytick_5">
     <g id="line2d_47">
      <path d="M 48.982813 139.006177 
L 561.197812 139.006177 
" clip-path="url(#p07ed484bcd)" style="fill: none; stroke-dasharray: 1.85,0.8; stroke-dashoffset: 0; stroke: #b0b0b0; stroke-width: 0.5"/>
     </g>
     <g id="line2d_48">
      <g>
       <use xlink:href="#me05c3fab96" x="48.982813" y="139.006177" style="stroke: #000000; stroke-width: 0.8"/>
      </g>
     </g>
     <g id="text_9">
      <!-- 20 -->
      <g transform="translate(29.257813 142.805396) scale(0.1 -0.1)">
       <use xlink:href="#DejaVuSans-32"/>
       <use xlink:href="#DejaVuSans-30" transform="translate(63.623047 0)"/>
      </g>
     </g>
    </g>
    <g id="ytick_6">
     <g id="line2d_49">
      <path d="M 48.982813 100.11016 
L 561.197812 100.11016 
" clip-path="url(#p07ed484bcd)" style="fill: none; stroke-dasharray: 1.85,0.8; stroke-dashoffset: 0; stroke: #b0b0b0; stroke-width: 0.5"/>
     </g>
     <g id="line2d_50">
      <g>
       <use xlink:href="#me05c3fab96" x="48.982813" y="100.11016" style="stroke: #000000; stroke-width: 0.8"/>
      </g>
     </g>
     <g id="text_10">
      <!-- 30 -->
      <g transform="translate(29.257813 103.909379) scale(0.1 -0.1)">
       <defs>
        <path id="DejaVuSans-33" d="M 2597 2516 
Q 3050 2419 3304 2112 
Q 3559 1806 3559 1356 
Q 3559 666 3084 287 
Q 2609 -91 1734 -91 
Q 1441 -91 1130 -33 
Q 819 25 488 141 
L 488 750 
Q 750 597 1062 519 
Q 1375 441 1716 441 
Q 2309 441 2620 675 
Q 2931 909 2931 1356 
Q 2931 1769 2642 2001 
Q 2353 2234 1838 2234 
L 1294 2234 
L 1294 2753 
L 1863 2753 
Q 2328 2753 2575 2939 
Q 2822 3125 2822 3475 
Q 2822 3834 2567 4026 
Q 2313 4219 1838 4219 
Q 1578 4219 1281 4162 
Q 984 4106 628 3988 
L 628 4550 
Q 988 4650 1302 4700 
Q 1616 4750 1894 4750 
Q 2613 4750 3031 4423 
Q 3450 4097 3450 3541 
Q 3450 3153 3228 2886 
Q 3006 2619 2597 2516 
z
" transform="scale(0.015625)"/>
       </defs>
       <use xlink:href="#DejaVuSans-33"/>
       <use xlink:href="#DejaVuSans-30" transform="translate(63.623047 0)"/>
      </g>
     </g>
    </g>
    <g id="ytick_7">
     <g id="line2d_51">
      <path d="M 48.982813 61.214142 
L 561.197812 61.214142 
" clip-path="url(#p07ed484bcd)" style="fill: none; stroke-dasharray: 1.85,0.8; stroke-dashoffset: 0; stroke: #b0b0b0; stroke-width: 0.5"/>
     </g>
     <g id="line2d_52">
      <g>
       <use xlink:href="#me05c3fab96" x="48.982813" y="61.214142" style="stroke: #000000; stroke-width: 0.8"/>
      </g>
     </g>
     <g id="text_11">
      <!-- 40 -->
      <g transform="translate(29.257813 65.013361) scale(0.1 -0.1)">
       <defs>
        <path id="DejaVuSans-34" d="M 2419 4116 
L 825 1625 
L 2419 1625 
L 2419 4116 
z
M 2253 4666 
L 3047 4666 
L 3047 1625 
L 3713 1625 
L 3713 1100 
L 3047 1100 
L 3047 0 
L 2419 0 
L 2419 1100 
L 313 1100 
L 313 1709 
L 2253 4666 
z
" transform="scale(0.015625)"/>
       </defs>
       <use xlink:href="#DejaVuSans-34"/>
       <use xlink:href="#DejaVuSans-30" transform="translate(63.623047 0)"/>
      </g>
     </g>
    </g>
    <g id="ytick_8">
     <g id="line2d_53">
      <path d="M 48.982813 22.318125 
L 561.197812 22.318125 
" clip-path="url(#p07ed484bcd)" style="fill: none; stroke-dasharray: 1.85,0.8; stroke-dashoffset: 0; stroke: #b0b0b0; stroke-width: 0.5"/>
     </g>
     <g id="line2d_54">
      <g>
       <use xlink:href="#me05c3fab96" x="48.982813" y="22.318125" style="stroke: #000000; stroke-width: 0.8"/>
      </g>
     </g>
     <g id="text_12">
      <!-- 50 -->
      <g transform="translate(29.257813 26.117344) scale(0.1 -0.1)">
       <defs>
        <path id="DejaVuSans-35" d="M 691 4666 
L 3169 4666 
L 3169 4134 
L 1269 4134 
L 1269 2991 
Q 1406 3038 1543 3061 
Q 1681 3084 1819 3084 
Q 2600 3084 3056 2656 
Q 3513 2228 3513 1497 
Q 3513 744 3044 326 
Q 2575 -91 1722 -91 
Q 1428 -91 1123 -41 
Q 819 9 494 109 
L 494 744 
Q 775 591 1075 516 
Q 1375 441 1709 441 
Q 2250 441 2565 725 
Q 2881 1009 2881 1497 
Q 2881 1984 2565 2268 
Q 2250 2553 1709 2553 
Q 1456 2553 1204 2497 
Q 953 2441 691 2322 
L 691 4666 
z
" transform="scale(0.015625)"/>
       </defs>
       <use xlink:href="#DejaVuSans-35"/>
       <use xlink:href="#DejaVuSans-30" transform="translate(63.623047 0)"/>
      </g>
     </g>
    </g>
    <g id="text_13">
     <!-- SPL (dBA) -->
     <g transform="translate(14.798438 182.944811) rotate(-90) scale(0.1 -0.1)">
      <defs>
       <path id="DejaVuSans-53" d="M 3425 4513 
L 3425 3897 
Q 3066 4069 2747 4153 
Q 2428 4238 2131 4238 
Q 1616 4238 1336 4038 
Q 1056 3838 1056 3469 
Q 1056 3159 1242 3001 
Q 1428 2844 1947 2747 
L 2328 2669 
Q 3034 2534 3370 2195 
Q 3706 1856 3706 1288 
Q 3706 609 3251 259 
Q 2797 -91 1919 -91 
Q 1588 -91 1214 -16 
Q 841 59 441 206 
L 441 856 
Q 825 641 1194 531 
Q 1563 422 1919 422 
Q 2459 422 2753 634 
Q 3047 847 3047 1241 
Q 3047 1584 2836 1778 
Q 2625 1972 2144 2069 
L 1759 2144 
Q 1053 2284 737 2584 
Q 422 2884 422 3419 
Q 422 4038 858 4394 
Q 1294 4750 2059 4750 
Q 2388 4750 2728 4690 
Q 3069 4631 3425 4513 
z
" transform="scale(0.015625)"/>
       <path id="DejaVuSans-50" d="M 1259 4147 
L 1259 2394 
L 2053 2394 
Q 2494 2394 2734 2622 
Q 2975 2850 2975 3272 
Q 2975 3691 2734 3919 
Q 2494 4147 2053 4147 
L 1259 4147 
z
M 628 4666 
L 2053 4666 
Q 2838 4666 3239 4311 
Q 3641 3956 3641 3272 
Q 3641 2581 3239 2228 
Q 2838 1875 2053 1875 
L 1259 1875 
L 1259 0 
L 628 0 
L 628 4666 
z
" transform="scale(0.015625)"/>
       <path id="DejaVuSans-4c" d="M 628 4666 
L 1259 4666 
L 1259 531 
L 3531 531 
L 3531 0 
L 628 0 
L 628 4666 
z
" transform="scale(0.015625)"/>
       <path id="DejaVuSans-64" d="M 2906 2969 
L 2906 4863 
L 3481 4863 
L 3481 0 
L 2906 0 
L 2906 525 
Q 2725 213 2448 61 
Q 2172 -91 1784 -91 
Q 1150 -91 751 415 
Q 353 922 353 1747 
Q 353 2572 751 3078 
Q 1150 3584 1784 3584 
Q 2172 3584 2448 3432 
Q 2725 3281 2906 2969 
z
M 947 1747 
Q 947 1113 1208 752 
Q 1469 391 1925 391 
Q 2381 391 2643 752 
Q 2906 1113 2906 1747 
Q 2906 2381 2643 2742 
Q 2381 3103 1925 3103 
Q 1469 3103 1208 2742 
Q 947 2381 947 1747 
z
" transform="scale(0.015625)"/>
       <path id="DejaVuSans-42" d="M 1259 2228 
L 1259 519 
L 2272 519 
Q 2781 519 3026 730 
Q 3272 941 3272 1375 
Q 3272 1813 3026 2020 
Q 2781 2228 2272 2228 
L 1259 2228 
z
M 1259 4147 
L 1259 2741 
L 2194 2741 
Q 2656 2741 2882 2914 
Q 3109 3088 3109 3444 
Q 3109 3797 2882 3972 
Q 2656 4147 2194 4147 
L 1259 4147 
z
M 628 4666 
L 2241 4666 
Q 2963 4666 3353 4366 
Q 3744 4066 3744 3513 
Q 3744 3084 3544 2831 
Q 3344 2578 2956 2516 
Q 3422 2416 3680 2098 
Q 3938 1781 3938 1306 
Q 3938 681 3513 340 
Q 3088 0 2303 0 
L 628 0 
L 628 4666 
z
" transform="scale(0.015625)"/>
       <path id="DejaVuSans-41" d="M 2188 4044 
L 1331 1722 
L 3047 1722 
L 2188 4044 
z
M 1831 4666 
L 2547 4666 
L 4325 0 
L 3669 0 
L 3244 1197 
L 1141 1197 
L 716 0 
L 50 0 
L 1831 4666 
z
" transform="scale(0.015625)"/>
      </defs>
      <use xlink:href="#DejaVuSans-53"/>
      <use xlink:href="#DejaVuSans-50" transform="translate(63.476562 0)"/>
      <use xlink:href="#DejaVuSans-4c" transform="translate(123.779297 0)"/>
      <use xlink:href="#DejaVuSans-20" transform="translate(179.492188 0)"/>
      <use xlink:href="#DejaVuSans-28" transform="translate(211.279297 0)"/>
      <use xlink:href="#DejaVuSans-64" transform="translate(250.292969 0)"/>
      <use xlink:href="#DejaVuSans-42" transform="translate(313.769531 0)"/>
      <use xlink:href="#DejaVuSans-41" transform="translate(382.373047 0)"/>
      <use xlink:href="#DejaVuSans-29" transform="translate(450.78125 0)"/>
     </g>
    </g>
   </g>
   <g id="line2d_55">
    <path d="M 51.493242 58.652083 
L 57.198394 57.444414 
L 62.625131 62.308666 
L 67.79937 73.966291 
L 72.743565 77.542499 
L 77.477304 76.861826 
L 82.017775 81.460635 
L 86.38014 83.418383 
L 90.577849 79.307392 
L 94.622879 69.34364 
L 98.525949 61.569834 
L 102.296685 54.511836 
L 105.943768 51.950583 
L 109.475052 55.687186 
L 112.897663 62.290751 
L 116.218091 66.237325 
L 119.44226 68.565633 
L 122.575596 70.21742 
L 125.623077 72.055684 
L 128.589281 73.078188 
L 131.478432 75.153971 
L 137.040895 73.468605 
L 139.721171 68.455506 
L 142.338376 64.399815 
L 144.89541 59.950644 
L 147.394977 60.13076 
L 149.839605 66.433257 
L 152.231656 70.777298 
L 154.573344 71.50569 
L 156.866746 72.942663 
L 159.113814 75.742325 
L 161.316383 79.535233 
L 163.47618 79.199159 
L 165.594836 79.144057 
L 167.673888 80.346547 
L 169.714791 76.890281 
L 171.718919 73.760731 
L 173.687573 68.421744 
L 177.523335 59.155827 
L 179.392725 50.13961 
L 181.231214 46.450799 
L 183.039808 52.587057 
L 184.819463 56.165371 
L 188.295561 65.916959 
L 189.993702 68.971805 
L 191.666306 68.458789 
L 193.31413 70.535655 
L 194.937897 71.299969 
L 196.5383 72.339626 
L 198.116001 72.219278 
L 199.671636 69.105544 
L 201.205813 67.487985 
L 202.719116 68.178861 
L 204.212106 68.597714 
L 205.685321 66.762589 
L 207.139277 67.433771 
L 208.574472 70.660641 
L 211.390472 74.165509 
L 212.77218 75.221067 
L 214.136935 78.261434 
L 215.485146 78.619099 
L 216.817211 80.016809 
L 218.133511 82.834242 
L 219.434416 86.588758 
L 220.720281 86.674201 
L 221.99145 85.056017 
L 223.248255 84.913182 
L 224.491017 76.243211 
L 228.1381 60.351613 
L 229.327695 56.483488 
L 231.669383 56.597906 
L 232.821996 55.151805 
L 233.962786 60.64756 
L 235.091994 64.388637 
L 236.209854 67.227943 
L 237.31659 71.102803 
L 239.497563 77.308982 
L 240.572219 81.296168 
L 242.690875 83.844484 
L 243.735259 84.759707 
L 244.769928 82.371579 
L 245.79506 77.21374 
L 246.810831 78.401076 
L 247.817408 77.463557 
L 248.814958 74.53327 
L 249.803641 72.973665 
L 250.783613 74.509334 
L 251.755026 75.401028 
L 252.718028 73.312748 
L 253.672764 72.646944 
L 254.619375 75.270039 
L 255.557997 78.693498 
L 256.488765 81.528666 
L 257.411808 83.524906 
L 258.327254 84.079193 
L 259.235227 83.971669 
L 260.135848 83.576517 
L 261.029235 82.991242 
L 261.915503 84.134053 
L 262.794765 87.651836 
L 263.667131 90.286631 
L 264.532708 95.062988 
L 265.391601 98.85575 
L 266.243912 98.614557 
L 267.929188 94.491948 
L 268.762346 90.68001 
L 269.589309 89.999811 
L 270.41017 86.829128 
L 272.033937 78.217114 
L 273.634339 76.025422 
L 274.425987 74.26204 
L 275.212041 73.603664 
L 275.992578 73.37801 
L 277.537409 76.711056 
L 278.301853 79.308526 
L 279.061078 86.960993 
L 279.815156 88.520997 
L 280.564156 91.613365 
L 281.308146 92.47594 
L 282.047192 91.129926 
L 282.78136 90.522132 
L 284.235317 85.86494 
L 284.955229 82.407298 
L 285.670512 79.747122 
L 287.087423 79.606203 
L 289.86822 69.670797 
L 290.55269 69.239263 
L 291.232974 72.673745 
L 291.909123 73.308933 
L 292.581186 73.376198 
L 293.249212 76.267324 
L 293.91325 80.151822 
L 294.573348 81.713005 
L 295.229551 81.529534 
L 295.881905 81.898529 
L 296.530455 83.092375 
L 297.175246 83.934817 
L 297.81632 86.517143 
L 299.087489 93.64477 
L 299.717667 91.523423 
L 300.344294 93.071101 
L 300.967411 90.900274 
L 301.587057 92.172746 
L 302.203269 94.382379 
L 302.816087 97.719439 
L 303.425546 102.444062 
L 304.634537 106.346759 
L 305.23414 106.601976 
L 305.830528 103.709631 
L 307.013795 95.931576 
L 308.184607 90.161541 
L 308.765423 88.714317 
L 309.343222 88.443387 
L 309.918035 88.552338 
L 310.489893 90.221393 
L 311.624863 88.978126 
L 312.188034 88.921538 
L 312.748368 90.367384 
L 313.305893 90.962335 
L 314.961895 85.862081 
L 316.052356 81.431738 
L 316.593603 83.464145 
L 317.132229 83.663613 
L 317.668259 85.391388 
L 318.201719 85.791263 
L 318.732632 84.904977 
L 319.261022 85.629637 
L 319.786915 88.167534 
L 320.831299 95.051708 
L 321.349836 98.84339 
L 321.865968 101.394636 
L 322.379715 100.994635 
L 322.8911 100.759145 
L 323.400145 101.767574 
L 324.411298 98.994877 
L 324.913448 97.069716 
L 325.413341 96.872393 
L 325.910998 100.769382 
L 326.406438 101.878486 
L 326.899681 104.535483 
L 327.390746 109.480764 
L 327.879652 108.852505 
L 328.366419 108.967712 
L 328.851065 105.757652 
L 329.333609 108.598031 
L 329.814068 106.423749 
L 330.29246 103.315395 
L 330.768804 101.670811 
L 332.185716 91.220474 
L 332.654037 88.665124 
L 333.120394 89.288486 
L 333.584804 89.656826 
L 334.047283 92.668037 
L 334.966512 96.163087 
L 335.423294 96.002383 
L 335.878206 96.703908 
L 336.331266 100.620206 
L 336.782489 103.375883 
L 337.231887 106.878628 
L 337.679478 107.790357 
L 338.125274 111.080375 
L 338.569291 112.922665 
L 339.011543 112.55051 
L 340.327843 106.438242 
L 340.76317 105.324381 
L 341.196801 103.604715 
L 341.628747 100.61315 
L 342.059023 100.84131 
L 342.48764 100.183489 
L 342.914612 96.866127 
L 343.339952 96.123384 
L 343.76367 98.852482 
L 344.185781 98.66985 
L 344.606296 94.226309 
L 345.025227 92.17418 
L 345.442586 92.473463 
L 345.858385 92.238806 
L 346.272636 90.039666 
L 346.685349 89.567734 
L 347.096536 91.678771 
L 347.506209 91.249913 
L 347.914379 92.174714 
L 348.726251 96.453072 
L 349.129976 96.43458 
L 349.532241 96.061297 
L 349.933056 96.725157 
L 350.332432 96.178482 
L 350.730379 98.26383 
L 351.522027 97.257664 
L 351.915748 97.218075 
L 352.30808 97.654332 
L 352.699034 100.578189 
L 353.088617 99.480169 
L 353.476841 99.754167 
L 354.249248 104.138444 
L 355.016327 94.453566 
L 355.397892 94.716886 
L 355.778153 92.089446 
L 356.157118 87.606362 
L 356.534795 85.212279 
L 356.911195 84.561572 
L 357.286326 83.478808 
L 357.660195 81.001164 
L 358.032812 80.440409 
L 358.404185 80.35486 
L 358.774322 81.254231 
L 359.143232 80.221588 
L 359.510922 81.578065 
L 359.8774 84.924531 
L 360.242675 86.64306 
L 360.606754 90.321433 
L 360.969645 91.34369 
L 361.331356 91.672093 
L 361.691895 93.519482 
L 362.051269 95.950726 
L 362.766551 96.699007 
L 363.122475 97.061454 
L 363.477263 96.199488 
L 363.830924 98.55385 
L 364.183463 98.837305 
L 364.534889 97.445926 
L 364.885207 97.492874 
L 365.234426 99.418696 
L 365.929591 100.678429 
L 366.275551 99.775067 
L 366.620439 101.894972 
L 367.307021 108.103767 
L 367.64873 107.680759 
L 367.989392 104.837849 
L 368.329014 106.864891 
L 368.667602 107.234171 
L 370.677766 97.406131 
L 371.00929 97.236683 
L 371.339828 97.219583 
L 371.669387 95.456252 
L 371.997973 95.224922 
L 372.32559 93.257057 
L 372.652246 90.482615 
L 372.977945 88.808581 
L 373.626495 96.941005 
L 374.91236 102.778361 
L 375.231517 105.380231 
L 375.867096 103.268165 
L 376.183529 103.438726 
L 376.499064 102.990818 
L 376.813707 103.856067 
L 377.440334 101.372909 
L 377.752329 102.42114 
L 378.063451 102.434375 
L 378.683096 101.963568 
L 378.991629 102.249484 
L 379.299309 104.377211 
L 379.60614 104.114574 
L 380.825068 111.796806 
L 381.127724 110.377724 
L 381.429559 111.537498 
L 381.730577 111.126652 
L 382.33018 106.152551 
L 382.926567 103.3007 
L 383.223566 101.351311 
L 383.519775 103.37322 
L 383.815196 101.598654 
L 384.109835 101.723425 
L 384.403695 101.347224 
L 384.696781 100.288013 
L 384.989097 100.675235 
L 385.280646 99.344793 
L 385.571434 98.960338 
L 385.861463 100.721346 
L 386.439262 106.350207 
L 386.72704 106.307119 
L 387.014075 106.618917 
L 387.300371 108.137574 
L 387.585932 106.964763 
L 387.870762 107.24829 
L 388.154865 105.977889 
L 388.720902 98.778367 
L 389.002844 97.985533 
L 389.284073 96.148121 
L 389.564593 96.15398 
L 389.844407 94.032891 
L 390.123519 93.118908 
L 390.401933 91.526787 
L 390.679651 91.631117 
L 390.956677 92.755341 
L 391.233016 91.405969 
L 391.508669 90.941451 
L 391.783641 90.703668 
L 392.057935 93.243597 
L 392.604501 95.845321 
L 392.876781 95.592498 
L 393.689642 99.758092 
L 393.959281 102.135759 
L 394.228268 100.463084 
L 394.496606 101.327151 
L 394.764299 102.846485 
L 395.031348 102.99195 
L 395.297758 103.413317 
L 395.563531 103.015825 
L 395.828671 102.335508 
L 396.357062 104.321787 
L 396.620319 106.991556 
L 396.882955 106.17867 
L 397.144971 106.133215 
L 397.667161 103.231093 
L 397.927339 103.152445 
L 398.18691 101.275742 
L 398.445876 101.708014 
L 398.704241 102.985444 
L 398.962007 105.450893 
L 399.475754 106.328802 
L 399.98714 107.906448 
L 400.241953 108.136783 
L 400.749836 109.095575 
L 401.00291 110.520808 
L 401.25541 112.606104 
L 401.507337 113.239624 
L 401.758696 112.776343 
L 402.009488 111.260529 
L 402.259715 111.649633 
L 402.509381 113.908363 
L 402.758488 113.999278 
L 403.007038 112.538136 
L 403.255033 108.569757 
L 403.502477 109.395889 
L 403.749372 114.014339 
L 403.99572 114.706596 
L 404.241524 114.803318 
L 404.486785 113.852345 
L 404.731507 113.427956 
L 404.975692 113.967527 
L 405.219342 112.978726 
L 405.462459 110.84623 
L 405.705046 109.922782 
L 405.947105 111.041759 
L 406.188638 111.091911 
L 406.429648 110.729181 
L 406.670137 112.225986 
L 406.910107 111.743106 
L 407.149561 111.72176 
L 407.626927 113.189292 
L 408.102252 116.946647 
L 408.575556 114.515607 
L 408.811454 116.879474 
L 409.046853 117.683803 
L 409.281755 116.999041 
L 409.516162 119.478037 
L 409.750076 119.0954 
L 409.983499 121.457771 
L 410.216434 121.837317 
L 410.448881 122.993417 
L 410.680844 122.653452 
L 410.912324 123.165541 
L 411.143323 125.152859 
L 411.373843 123.469775 
L 411.603887 122.977185 
L 411.833456 123.051796 
L 412.519333 127.099924 
L 412.747022 123.446384 
L 412.974246 123.779826 
L 413.201007 125.0222 
L 413.427306 125.224885 
L 413.878528 126.537757 
L 414.327927 117.164296 
L 414.551947 121.03297 
L 414.775517 127.197723 
L 415.221314 127.657108 
L 416.107582 132.748131 
L 416.32805 130.723721 
L 416.548082 130.045691 
L 416.76768 130.282822 
L 416.986844 129.513081 
L 417.205578 130.18628 
L 417.641759 134.506666 
L 417.85921 135.922035 
L 418.076237 138.575675 
L 418.509023 135.748138 
L 418.724787 135.85797 
L 418.940133 132.649009 
L 419.155063 132.015159 
L 419.369578 129.251462 
L 419.797371 127.926458 
L 420.223525 138.285593 
L 420.435991 137.999303 
L 420.648052 141.934658 
L 420.85971 141.783133 
L 421.070966 142.625261 
L 421.492277 145.428882 
L 421.911999 141.217632 
L 422.121267 139.488563 
L 422.538626 133.970314 
L 422.74672 133.481593 
L 422.954425 131.292301 
L 423.161743 131.556183 
L 423.575223 134.801345 
L 423.781388 137.206988 
L 423.987172 137.318467 
L 424.192576 141.59823 
L 424.397601 142.207571 
L 424.602249 142.034141 
L 424.806521 143.827742 
L 425.010418 143.728413 
L 425.417095 145.301348 
L 425.619878 143.370226 
L 425.822291 143.700689 
L 426.024337 144.373071 
L 426.226016 144.109349 
L 427.428472 150.654453 
L 427.627623 147.702178 
L 427.826419 147.710548 
L 428.02486 151.064834 
L 428.222947 156.417813 
L 428.618067 151.325317 
L 428.815101 153.685986 
L 429.011788 151.039833 
L 429.208127 151.520477 
L 429.599768 144.944051 
L 429.795073 146.596152 
L 430.184657 142.360686 
L 430.766486 140.244687 
L 430.959755 139.704925 
L 431.537554 134.451532 
L 431.729488 134.077497 
L 431.921092 132.867092 
L 432.303313 138.918657 
L 432.493932 134.842706 
L 432.684225 135.04584 
L 432.874192 135.928592 
L 433.063836 133.83206 
L 433.442156 138.847708 
L 433.630835 138.943429 
L 434.007235 143.319547 
L 434.194958 143.755987 
L 434.382366 142.617701 
L 434.569457 143.280819 
L 434.756235 142.481297 
L 435.314693 137.052557 
L 435.500225 136.22996 
L 435.685447 136.974181 
L 435.870362 140.267951 
L 436.05497 140.44127 
L 436.239271 139.046984 
L 436.423268 139.020041 
L 436.606961 139.662927 
L 436.790351 138.657579 
L 436.973439 141.783739 
L 437.338714 138.982613 
L 437.520903 139.23574 
L 437.702793 140.017378 
L 437.884387 141.628229 
L 438.065685 140.637675 
L 438.246687 137.888353 
L 438.607811 135.758273 
L 438.787934 134.166176 
L 438.967766 134.117484 
L 439.147308 133.750727 
L 439.684201 141.028904 
L 439.862591 140.230255 
L 440.040695 141.071543 
L 440.39605 140.714719 
L 440.750274 142.603696 
L 441.103373 141.708592 
L 441.279503 142.08143 
L 441.455354 141.702466 
L 441.630928 142.425283 
L 441.806225 144.820679 
L 441.981247 143.089594 
L 442.155993 144.23134 
L 442.330466 143.766842 
L 442.504665 144.908156 
L 442.678591 144.264048 
L 442.852246 145.232753 
L 443.198745 150.320531 
L 443.371591 145.425519 
L 443.888522 141.632393 
L 444.060299 141.597326 
L 444.231812 142.684516 
L 444.403061 141.969841 
L 444.574047 142.590009 
L 444.74477 142.335429 
L 444.915231 142.7864 
L 445.085432 141.154545 
L 445.425054 144.095492 
L 445.594476 144.194978 
L 445.763642 143.790988 
L 445.93255 142.249177 
L 446.101202 146.315335 
L 446.269599 145.748037 
L 446.437741 143.813206 
L 446.60563 143.532884 
L 446.773265 143.83196 
L 446.940648 141.579481 
L 447.10778 142.807613 
L 447.274661 142.731055 
L 447.441291 142.181199 
L 447.607673 140.583558 
L 448.270722 147.048043 
L 448.435868 144.935425 
L 448.60077 144.910776 
L 448.765427 144.117467 
L 448.929841 145.467207 
L 449.257942 140.604176 
L 449.911254 146.947632 
L 450.073984 147.378133 
L 450.236477 148.798443 
L 450.398732 148.794416 
L 450.560751 148.58197 
L 450.722535 149.280336 
L 450.884083 146.59766 
L 451.045397 146.643857 
L 451.206478 145.495732 
L 451.367325 145.169513 
L 451.52794 144.082315 
L 451.688324 141.061521 
L 451.848477 141.479821 
L 452.008399 143.244976 
L 452.168092 141.718955 
L 452.486792 146.839987 
L 452.6458 147.120855 
L 452.804581 151.243034 
L 452.963135 151.065871 
L 453.121464 151.068767 
L 453.437448 155.000503 
L 453.595104 154.753229 
L 453.909746 150.525485 
L 454.066734 151.438329 
L 454.223501 154.420213 
L 454.380047 155.080998 
L 454.536374 157.702034 
L 455.004038 158.774134 
L 455.314726 161.532028 
L 455.469745 161.895882 
L 455.779136 165.434458 
L 456.241615 156.018282 
L 456.395348 154.333956 
L 456.54887 154.396365 
L 456.702179 152.895377 
L 456.855278 153.578689 
L 457.008166 153.060874 
L 457.313313 153.903984 
L 457.465573 152.979789 
L 457.76947 153.210286 
L 457.921107 151.278452 
L 458.072538 151.090537 
L 458.223763 151.44029 
L 458.374783 151.394669 
L 458.525598 149.29568 
L 458.676209 151.102245 
L 458.97682 148.310419 
L 459.126822 148.49026 
L 459.276621 148.210654 
L 459.575616 143.775211 
L 459.724813 144.37045 
L 459.87381 144.338603 
L 460.022607 143.005129 
L 460.171206 144.650474 
L 460.319606 142.336318 
L 460.467809 142.666452 
L 460.615814 142.57602 
L 460.763623 143.725907 
L 461.205874 149.834867 
L 461.352902 150.48476 
L 461.499735 149.281386 
L 461.646374 150.994006 
L 461.792821 150.544354 
L 461.939075 151.532457 
L 462.085136 151.671382 
L 462.231007 154.990243 
L 462.522175 156.304435 
L 462.667473 155.210205 
L 462.812582 157.742313 
L 462.957502 155.13927 
L 463.102234 155.655326 
L 463.246777 158.192585 
L 463.535301 158.28317 
L 463.679283 158.662572 
L 463.823079 159.512459 
L 463.966689 158.996792 
L 464.396411 155.210994 
L 464.539283 153.168086 
L 464.681972 153.302886 
L 464.824478 154.84662 
L 464.966802 155.138075 
L 465.250905 153.966916 
L 465.392684 154.396642 
L 465.534283 155.826287 
L 465.958002 154.346166 
L 466.098884 154.24133 
L 466.239587 153.648024 
L 466.520461 150.624429 
L 466.660633 151.857738 
L 466.800628 151.910546 
L 466.940447 152.725252 
L 467.080091 154.744079 
L 467.219559 154.50454 
L 467.358853 153.334096 
L 467.497972 155.456681 
L 467.775691 151.954521 
L 467.91429 154.804132 
L 468.052717 154.617581 
L 468.190972 153.265937 
L 468.329055 149.36846 
L 468.466967 149.773383 
L 468.604709 151.014984 
L 468.74228 153.596912 
L 468.879681 153.023002 
L 469.016912 149.92638 
L 469.153974 151.163791 
L 469.290868 148.926712 
L 469.427593 150.157502 
L 469.564151 149.666426 
L 469.700541 149.61334 
L 469.836764 151.097153 
L 470.244435 147.659397 
L 470.379994 149.175426 
L 470.515388 148.707114 
L 470.650617 148.786058 
L 470.785682 149.097279 
L 471.055321 151.907342 
L 471.189896 151.178067 
L 471.324308 152.64235 
L 471.458558 152.366364 
L 471.592646 151.561635 
L 471.726573 150.053169 
L 471.993943 153.623782 
L 472.393798 148.89369 
L 472.659571 141.53976 
L 472.79222 141.740428 
L 472.924711 140.73448 
L 473.18922 143.950997 
L 473.321239 142.698602 
L 473.584808 128.887296 
L 473.716359 128.979912 
L 473.847754 131.960037 
L 473.978994 131.937838 
L 474.241011 127.763649 
L 474.371788 129.206466 
L 474.632883 125.787112 
L 475.153239 157.355785 
L 475.282949 156.22661 
L 475.412508 157.518301 
L 475.541916 156.425145 
L 475.800281 150.201839 
L 476.058047 151.374057 
L 476.315217 145.437215 
L 476.699861 149.990805 
L 476.955553 154.144249 
L 477.083179 155.083549 
L 477.210659 154.25273 
L 477.337993 155.711758 
L 477.465181 152.512666 
L 478.351449 161.003941 
L 478.477484 160.906366 
L 478.729127 158.798916 
L 478.854735 160.483023 
L 478.980202 159.403509 
L 479.355755 162.368656 
L 479.605421 160.356917 
L 479.730044 161.048851 
L 479.854527 160.552444 
L 479.978872 157.901389 
L 480.103077 157.992697 
L 480.351073 160.237216 
L 480.474864 159.167955 
L 480.722033 161.618694 
L 481.09176 158.37529 
L 481.21473 158.505127 
L 481.337563 158.93817 
L 481.460262 156.278551 
L 481.827547 164.256675 
L 481.949706 163.340968 
L 482.071732 163.462721 
L 482.315381 162.468715 
L 482.437006 164.441792 
L 482.679858 163.33173 
L 482.922181 166.947145 
L 483.043145 166.937525 
L 483.163977 166.081308 
L 483.405248 166.915106 
L 483.525688 165.902116 
L 483.766177 168.013082 
L 483.886227 166.731383 
L 484.125938 169.153056 
L 484.365134 167.172532 
L 484.484539 167.678317 
L 484.603817 167.409355 
L 484.722966 165.822016 
L 484.841988 165.924753 
L 484.960883 166.525398 
L 485.079651 166.498092 
L 485.198292 167.031747 
L 485.316807 166.667646 
L 485.553458 163.709496 
L 485.671595 165.453205 
L 485.789607 164.224677 
L 485.907494 164.791748 
L 486.025255 166.070415 
L 486.142893 166.036913 
L 486.49506 169.936779 
L 486.612202 167.382548 
L 486.846116 169.539519 
L 487.079539 163.550154 
L 487.196067 165.316994 
L 487.428758 159.958438 
L 487.544921 160.773174 
L 487.776883 163.564436 
L 488.008363 165.347227 
L 488.123923 165.291103 
L 488.239363 164.588303 
L 488.469883 161.366341 
L 488.584964 162.843402 
L 488.699927 161.059812 
L 488.81477 161.256758 
L 488.929496 158.789617 
L 489.044102 159.133536 
L 489.158592 160.924548 
L 489.272963 160.892797 
L 489.387217 161.29129 
L 489.501353 162.119697 
L 489.615373 159.511566 
L 489.843062 163.100053 
L 489.956732 163.1097 
L 490.183724 166.355497 
L 490.297046 165.594149 
L 490.410254 164.020626 
L 490.636323 168.121742 
L 490.749186 166.562254 
L 490.974568 166.698154 
L 491.087088 166.462035 
L 491.199494 164.385194 
L 491.311787 166.386078 
L 491.423967 163.266944 
L 491.759828 166.71262 
L 492.094679 163.409265 
L 492.206072 166.668397 
L 492.317354 166.437695 
L 492.428524 167.075775 
L 492.539584 169.855203 
L 492.650532 168.362971 
L 492.76137 169.537938 
L 493.203622 164.563886 
L 493.31391 166.96867 
L 493.53416 165.606841 
L 493.644122 165.808586 
L 493.753975 165.73715 
L 493.863719 163.742113 
L 493.973355 165.008906 
L 494.082884 164.565577 
L 494.192305 163.651846 
L 494.301618 164.033213 
L 494.519922 161.138165 
L 494.628914 162.619325 
L 494.737799 165.638034 
L 494.846577 163.962943 
L 495.063816 165.529997 
L 495.172276 164.388143 
L 495.280631 164.621242 
L 495.497024 170.774833 
L 495.605063 170.900683 
L 495.820827 171.894771 
L 495.928552 172.205582 
L 496.036172 173.247784 
L 496.358411 168.831687 
L 496.57272 168.431751 
L 496.786616 167.050427 
L 496.89341 167.283926 
L 497.106692 166.416334 
L 497.319564 167.941111 
L 497.532031 170.535096 
L 497.744092 168.118795 
L 497.849971 168.504486 
L 497.95575 169.868938 
L 498.061428 169.272455 
L 498.167005 166.166756 
L 498.272483 167.713617 
L 498.37786 167.128171 
L 498.588317 165.143748 
L 498.693396 167.064733 
L 498.798375 166.880647 
L 498.903256 167.09057 
L 499.008038 166.998792 
L 499.217307 169.01064 
L 499.321793 167.486103 
L 499.426182 167.995193 
L 499.634666 167.527203 
L 499.842759 168.422912 
L 499.94666 167.841152 
L 500.050465 167.960714 
L 500.361297 166.950827 
L 500.671263 170.418813 
L 500.980367 171.922663 
L 501.185961 167.711021 
L 501.288615 166.17459 
L 501.493641 167.624811 
L 501.596012 167.792007 
L 501.698288 166.833922 
L 501.800471 167.210791 
L 501.90256 166.53102 
L 502.106458 167.586324 
L 502.208267 165.815477 
L 502.309982 166.389426 
L 502.513135 170.536581 
L 502.715917 168.083829 
L 502.81717 168.053719 
L 502.918331 168.446254 
L 503.019399 167.644751 
L 503.221262 168.640646 
L 503.52337 170.076809 
L 503.72432 173.432918 
L 503.82466 173.140382 
L 503.924908 171.635943 
L 504.125135 174.712304 
L 504.325003 170.99124 
L 504.424802 174.076243 
L 504.524511 173.942285 
L 504.624132 172.438554 
L 504.723663 172.504238 
L 504.823105 171.528531 
L 504.922458 172.517606 
L 505.021723 175.075532 
L 505.219987 171.03483 
L 505.318987 171.520018 
L 505.417898 174.004559 
L 505.615458 172.534746 
L 505.714106 173.067386 
L 505.812667 171.908571 
L 505.911141 174.376471 
L 506.009528 173.533716 
L 506.402206 177.209101 
L 506.695808 174.761887 
L 506.793503 174.928508 
L 506.988637 176.87373 
L 507.086075 177.99277 
L 507.183429 177.682147 
L 507.37788 179.577932 
L 507.474978 178.87102 
L 507.571992 179.703134 
L 507.668921 181.947507 
L 507.765765 181.58699 
L 507.862526 181.875091 
L 507.959202 181.253323 
L 508.055794 181.939532 
L 508.152303 181.793921 
L 508.345069 179.231609 
L 508.441327 176.324317 
L 508.633593 178.775481 
L 508.729602 176.323431 
L 508.921371 179.286214 
L 509.017132 180.073779 
L 509.11281 179.023021 
L 509.208406 179.800927 
L 509.399353 178.033862 
L 509.589971 180.607255 
L 509.685158 179.941964 
L 509.780264 177.607741 
L 509.970232 180.298766 
L 510.254576 180.986301 
L 510.349197 180.955461 
L 510.443737 180.340732 
L 510.538196 181.816282 
L 510.632575 181.687028 
L 510.915234 183.39946 
L 511.009294 183.999146 
L 511.197176 183.571536 
L 511.290998 183.426543 
L 511.384741 184.299714 
L 511.478405 184.071882 
L 511.57199 182.488044 
L 511.665497 182.593211 
L 511.758925 183.117609 
L 511.945546 187.219982 
L 512.038739 186.818886 
L 512.224892 189.62449 
L 512.688914 179.704537 
L 512.873983 182.850195 
L 512.966402 183.493174 
L 513.058744 182.656932 
L 513.151009 182.986138 
L 513.243198 184.279856 
L 513.427347 183.077714 
L 513.519308 183.806463 
L 513.703001 181.868861 
L 513.794734 182.362484 
L 513.886391 184.50695 
L 513.977973 183.698523 
L 514.16091 185.592217 
L 514.252266 185.791997 
L 514.343548 185.563065 
L 514.525885 184.292888 
L 515.071112 175.024985 
L 515.161724 175.637081 
L 515.252262 176.392423 
L 515.342727 178.616643 
L 515.433118 178.441795 
L 515.523435 178.362334 
L 515.61368 178.114973 
L 515.883974 175.793941 
L 516.063806 177.129738 
L 516.153613 176.222615 
L 516.33301 172.291353 
L 516.601564 174.868141 
L 516.690938 174.238878 
L 516.780241 173.988868 
L 516.95863 172.223634 
L 517.047718 172.838266 
L 517.314554 171.01655 
L 517.403357 172.352732 
L 517.49209 172.036835 
L 517.757863 167.829998 
L 517.846313 168.506437 
L 518.023003 171.805203 
L 518.111243 170.367981 
L 518.199412 170.422302 
L 518.287512 170.111858 
L 518.463503 168.291755 
L 518.551394 167.763042 
L 518.639215 168.053784 
L 518.814651 171.046558 
L 518.98981 170.604738 
L 519.077286 170.542851 
L 519.252033 173.642576 
L 519.339303 172.976399 
L 519.426505 171.569294 
L 519.687702 176.459406 
L 519.861492 172.434855 
L 519.948286 171.956801 
L 520.035012 170.178291 
L 520.294785 172.742338 
L 520.46763 172.613165 
L 520.553953 172.659544 
L 520.726396 174.391409 
L 520.898573 178.053878 
L 520.984561 177.019069 
L 521.070483 177.78763 
L 521.242128 174.557879 
L 521.327852 174.550598 
L 521.413509 174.67609 
L 521.670086 177.477309 
L 521.840809 175.206004 
L 521.926073 176.330341 
L 522.096404 175.636011 
L 522.181471 176.080117 
L 522.266474 179.015323 
L 522.351412 177.447901 
L 522.436285 179.868193 
L 522.605837 177.515377 
L 522.690516 177.750248 
L 522.775131 176.871826 
L 523.02859 180.404543 
L 523.112948 179.943793 
L 523.197242 179.990553 
L 523.365638 175.661669 
L 523.533781 178.181545 
L 523.701669 181.010035 
L 523.785518 180.150668 
L 523.869305 182.39855 
L 524.036688 180.391371 
L 524.287291 183.97324 
L 524.454047 181.062296 
L 524.620553 184.893127 
L 524.703713 184.83992 
L 524.952819 181.284797 
L 525.035731 181.891175 
L 525.118581 180.834819 
L 525.201369 181.445602 
L 525.284096 183.603776 
L 525.366761 183.451406 
L 525.614389 180.015494 
L 525.943704 178.904564 
L 526.025881 178.72164 
L 526.107997 176.476677 
L 526.190052 177.212216 
L 526.353981 175.664678 
L 526.435856 175.782361 
L 526.51767 176.838859 
L 526.681117 175.617463 
L 526.762751 177.184242 
L 526.844325 176.156933 
L 526.925839 178.385927 
L 527.007294 177.721198 
L 527.088688 177.961035 
L 527.2513 175.018219 
L 527.332516 175.36784 
L 527.494772 177.151795 
L 527.656791 174.390639 
L 527.899378 178.403271 
L 528.060809 177.300363 
L 528.141437 176.212473 
L 528.222006 176.903714 
L 528.302517 176.866372 
L 528.463365 174.853518 
L 528.62398 171.377844 
L 528.784364 172.675753 
L 528.864469 171.792787 
L 528.944517 172.959798 
L 529.024507 175.885785 
L 529.104439 175.031828 
L 529.264132 176.463932 
L 529.343892 176.408578 
L 529.503242 177.553304 
L 529.662364 175.960206 
L 529.821258 176.845191 
L 529.979926 180.816871 
L 530.296584 177.988514 
L 530.375608 179.290779 
L 530.533487 175.261828 
L 530.691143 178.906306 
L 530.769887 179.097996 
L 530.927208 175.739041 
L 531.162774 177.982043 
L 531.241185 179.415259 
L 531.319541 177.612359 
L 531.476087 179.957445 
L 531.554278 180.597963 
L 531.632413 178.711217 
L 531.710494 181.263694 
L 531.78852 181.196322 
L 531.866491 177.027557 
L 531.944408 177.835821 
L 532.02227 180.911791 
L 532.100078 180.491833 
L 532.177831 178.794476 
L 532.25553 179.274461 
L 532.333175 182.156995 
L 532.410765 181.122004 
L 532.488302 179.236405 
L 532.565784 181.929179 
L 532.643213 181.608457 
L 532.797908 179.986944 
L 532.875176 181.496488 
L 533.106655 177.358182 
L 533.260708 181.365058 
L 533.337655 180.209936 
L 533.414548 180.166338 
L 533.491388 177.051351 
L 533.951317 184.588547 
L 534.027788 184.846688 
L 534.256884 191.35424 
L 534.333144 191.092285 
L 534.409353 190.098331 
L 534.485509 191.097996 
L 534.561613 190.95054 
L 534.789613 187.965822 
L 534.941354 188.545833 
L 535.017147 186.241008 
L 535.168578 189.370211 
L 535.319803 187.843406 
L 535.395339 188.013851 
L 535.470823 189.600073 
L 535.546256 189.208653 
L 535.696969 187.193108 
L 535.847478 181.154233 
L 535.922656 180.885298 
L 535.997783 182.84003 
L 536.07286 181.361395 
L 536.372661 194.691649 
L 536.447485 194.569906 
L 536.671656 192.444062 
L 536.895376 195.99372 
L 536.969849 194.631218 
L 537.044273 194.855165 
L 537.192971 196.350194 
L 537.34147 192.206339 
L 537.415646 192.761657 
L 537.563848 192.241982 
L 537.637876 190.85076 
L 537.711854 192.765763 
L 537.933493 188.957888 
L 538.081008 189.84912 
L 538.154692 189.456382 
L 538.301914 187.264167 
L 538.448941 188.783425 
L 538.522382 188.723813 
L 538.595774 189.260885 
L 538.669118 188.682026 
L 538.815661 190.863169 
L 539.108169 196.377675 
L 539.181176 196.242872 
L 539.39991 192.36686 
L 539.763513 197.098784 
L 539.836091 196.290324 
L 539.908622 196.706241 
L 539.981105 196.221399 
L 540.053542 198.547763 
L 540.198273 196.251491 
L 540.342817 200.067159 
L 540.415018 196.801881 
L 540.487172 198.388787 
L 540.55928 200.454861 
L 540.631341 200.3431 
L 540.775323 196.980626 
L 540.847244 196.856025 
L 540.919119 195.350817 
L 540.990947 197.260465 
L 541.062729 196.850696 
L 541.206154 198.581318 
L 541.420945 194.634476 
L 541.70669 191.650773 
L 541.849288 194.738983 
L 541.991703 198.385195 
L 542.133935 198.749833 
L 542.204984 198.467221 
L 542.417857 190.89851 
L 542.488724 192.287314 
L 542.630323 194.48813 
L 542.771742 192.99299 
L 542.912981 195.266362 
L 543.194923 191.330044 
L 543.335627 191.452737 
L 543.405912 191.134305 
L 543.476153 192.030161 
L 543.756673 190.046821 
L 543.966599 194.887983 
L 544.10633 196.64847 
L 544.17613 195.717903 
L 544.245886 196.101895 
L 544.315599 196.286234 
L 544.385267 195.767807 
L 544.454892 196.341673 
L 544.663507 191.824291 
L 544.732958 194.278543 
L 544.802366 193.761205 
L 544.87173 194.107331 
L 545.01033 197.531056 
L 545.079565 197.480997 
L 545.148757 199.225256 
L 545.217906 198.511929 
L 545.494072 201.299638 
L 545.563007 200.689183 
L 545.631899 200.437473 
L 545.700748 199.46202 
L 545.769555 196.381727 
L 545.907041 199.646738 
L 545.97572 199.867774 
L 546.044357 197.904386 
L 546.112952 198.29333 
L 546.181504 198.557254 
L 546.250014 196.996153 
L 546.318482 197.887449 
L 546.386908 196.948321 
L 546.591933 201.742983 
L 546.66019 202.183827 
L 546.796581 198.627634 
L 546.864713 198.331322 
L 546.932804 199.492809 
L 547.000853 199.47717 
L 547.20475 194.415861 
L 547.272633 195.778354 
L 547.340474 195.392292 
L 547.476033 193.19995 
L 547.679062 197.207325 
L 547.949193 202.169276 
L 548.016623 201.923401 
L 548.084012 200.270119 
L 548.151361 200.338658 
L 548.285935 201.971681 
L 548.353162 200.147509 
L 548.420348 201.646562 
L 548.487493 200.139386 
L 548.554598 200.409381 
L 548.889515 204.291616 
L 548.956378 203.175553 
L 549.0232 203.824787 
L 549.089983 204.698965 
L 549.156725 204.394767 
L 549.356712 200.890559 
L 549.489837 203.213038 
L 549.55634 202.927375 
L 549.622803 204.079008 
L 549.88826 199.257515 
L 550.086937 201.133768 
L 550.219191 197.344085 
L 550.351289 201.515557 
L 550.417279 201.748712 
L 550.48323 201.41169 
L 550.549141 201.831626 
L 550.680848 198.782145 
L 550.878115 195.468104 
L 550.943794 193.964593 
L 551.075034 196.752599 
L 551.206119 195.392309 
L 551.271604 196.604959 
L 551.598452 192.05121 
L 551.728922 196.813509 
L 551.7941 196.74032 
L 551.85924 196.652419 
L 551.924341 194.367475 
L 552.184367 200.451965 
L 552.314153 195.68174 
L 552.508547 199.212649 
L 552.57327 199.140027 
L 552.637955 197.707447 
L 552.89632 204.117523 
L 553.025278 200.746248 
L 553.089701 201.854809 
L 553.218435 203.905699 
L 553.411257 201.147948 
L 553.475456 201.364665 
L 553.539619 200.814782 
L 553.603745 202.748012 
L 553.667834 201.522483 
L 553.731886 202.032282 
L 553.795901 204.085288 
L 553.859879 203.786825 
L 553.92382 203.960528 
L 553.987725 204.472647 
L 554.051593 204.387914 
L 554.115424 207.081739 
L 554.242977 203.302519 
L 554.370384 205.528223 
L 554.434032 205.206129 
L 554.497645 201.783772 
L 554.561221 203.356214 
L 554.688264 205.079389 
L 554.941915 199.393491 
L 555.005237 201.224448 
L 555.068524 201.28537 
L 555.131775 201.705596 
L 555.321311 205.51351 
L 555.384418 205.213232 
L 555.447489 202.509699 
L 555.510524 203.637344 
L 555.573524 203.239618 
L 555.76231 195.632138 
L 555.825167 194.910339 
L 555.887989 195.571351 
L 556.138922 205.131992 
L 556.201567 206.047122 
L 556.264176 205.381248 
L 556.38929 204.010002 
L 556.451794 205.876739 
L 556.514263 204.967446 
L 556.576697 204.005626 
L 556.639096 204.240289 
L 556.70146 205.518545 
L 556.763789 204.851766 
L 556.826083 205.409656 
L 556.888342 202.270277 
L 556.950567 203.579343 
L 557.074911 201.461068 
L 557.137031 201.853677 
L 557.199117 202.527942 
L 557.261168 204.772265 
L 557.323184 203.050606 
L 557.447113 201.604381 
L 557.570903 201.644424 
L 557.632747 201.769619 
L 557.818073 193.824554 
L 558.00309 198.094957 
L 558.187799 203.131509 
L 558.249301 201.233817 
L 558.310769 201.52477 
L 558.372203 205.435486 
L 558.433603 204.602698 
L 558.556301 203.878338 
L 558.678865 206.791736 
L 558.801293 205.300105 
L 558.984683 209.5801 
L 559.167771 205.229762 
L 559.228734 206.13443 
L 559.289663 206.024855 
L 559.533046 201.927578 
L 559.654538 206.229811 
L 559.715235 206.226485 
L 559.775898 205.15435 
L 559.836528 205.8162 
L 559.897125 205.299589 
L 560.018221 208.458332 
L 560.139184 204.932129 
L 560.260016 205.11543 
L 560.320383 206.039302 
L 560.380718 204.956796 
L 560.441019 205.242649 
L 560.561524 209.76616 
L 560.621728 209.358211 
L 560.742037 210.434803 
L 560.862216 207.648919 
L 560.922258 208.962205 
L 561.102186 206.004315 
L 561.162098 207.812179 
L 561.162098 207.812179 
" clip-path="url(#p07ed484bcd)" style="fill: none; stroke: #ff7f0e; stroke-linecap: square"/>
   </g>
   <g id="patch_3">
    <path d="M 48.982813 294.590247 
L 48.982813 22.318125 
" style="fill: none; stroke: #000000; stroke-width: 0.8; stroke-linejoin: miter; stroke-linecap: square"/>
   </g>
   <g id="patch_4">
    <path d="M 561.197812 294.590247 
L 561.197812 22.318125 
" style="fill: none; stroke: #000000; stroke-width: 0.8; stroke-linejoin: miter; stroke-linecap: square"/>
   </g>
   <g id="patch_5">
    <path d="M 48.982813 294.590247 
L 561.197812 294.590247 
" style="fill: none; stroke: #000000; stroke-width: 0.8; stroke-linejoin: miter; stroke-linecap: square"/>
   </g>
   <g id="patch_6">
    <path d="M 48.982813 22.318125 
L 561.197812 22.318125 
" style="fill: none; stroke: #000000; stroke-width: 0.8; stroke-linejoin: miter; stroke-linecap: square"/>
   </g>
   <g id="text_14">
    <!-- Honda Odyssey Blower Setting 7 - Narrow Band SPL (dBA) -->
    <g transform="translate(130.569063 16.318125) scale(0.12 -0.12)">
     <defs>
      <path id="DejaVuSans-6f" d="M 1959 3097 
Q 1497 3097 1228 2736 
Q 959 2375 959 1747 
Q 959 1119 1226 758 
Q 1494 397 1959 397 
Q 2419 397 2687 759 
Q 2956 1122 2956 1747 
Q 2956 2369 2687 2733 
Q 2419 3097 1959 3097 
z
M 1959 3584 
Q 2709 3584 3137 3096 
Q 3566 2609 3566 1747 
Q 3566 888 3137 398 
Q 2709 -91 1959 -91 
Q 1206 -91 779 398 
Q 353 888 353 1747 
Q 353 2609 779 3096 
Q 1206 3584 1959 3584 
z
" transform="scale(0.015625)"/>
      <path id="DejaVuSans-61" d="M 2194 1759 
Q 1497 1759 1228 1600 
Q 959 1441 959 1056 
Q 959 750 1161 570 
Q 1363 391 1709 391 
Q 2188 391 2477 730 
Q 2766 1069 2766 1631 
L 2766 1759 
L 2194 1759 
z
M 3341 1997 
L 3341 0 
L 2766 0 
L 2766 531 
Q 2569 213 2275 61 
Q 1981 -91 1556 -91 
Q 1019 -91 701 211 
Q 384 513 384 1019 
Q 384 1609 779 1909 
Q 1175 2209 1959 2209 
L 2766 2209 
L 2766 2266 
Q 2766 2663 2505 2880 
Q 2244 3097 1772 3097 
Q 1472 3097 1187 3025 
Q 903 2953 641 2809 
L 641 3341 
Q 956 3463 1253 3523 
Q 1550 3584 1831 3584 
Q 2591 3584 2966 3190 
Q 3341 2797 3341 1997 
z
" transform="scale(0.015625)"/>
      <path id="DejaVuSans-4f" d="M 2522 4238 
Q 1834 4238 1429 3725 
Q 1025 3213 1025 2328 
Q 1025 1447 1429 934 
Q 1834 422 2522 422 
Q 3209 422 3611 934 
Q 4013 1447 4013 2328 
Q 4013 3213 3611 3725 
Q 3209 4238 2522 4238 
z
M 2522 4750 
Q 3503 4750 4090 4092 
Q 4678 3434 4678 2328 
Q 4678 1225 4090 567 
Q 3503 -91 2522 -91 
Q 1538 -91 948 565 
Q 359 1222 359 2328 
Q 359 3434 948 4092 
Q 1538 4750 2522 4750 
z
" transform="scale(0.015625)"/>
      <path id="DejaVuSans-73" d="M 2834 3397 
L 2834 2853 
Q 2591 2978 2328 3040 
Q 2066 3103 1784 3103 
Q 1356 3103 1142 2972 
Q 928 2841 928 2578 
Q 928 2378 1081 2264 
Q 1234 2150 1697 2047 
L 1894 2003 
Q 2506 1872 2764 1633 
Q 3022 1394 3022 966 
Q 3022 478 2636 193 
Q 2250 -91 1575 -91 
Q 1294 -91 989 -36 
Q 684 19 347 128 
L 347 722 
Q 666 556 975 473 
Q 1284 391 1588 391 
Q 1994 391 2212 530 
Q 2431 669 2431 922 
Q 2431 1156 2273 1281 
Q 2116 1406 1581 1522 
L 1381 1569 
Q 847 1681 609 1914 
Q 372 2147 372 2553 
Q 372 3047 722 3315 
Q 1072 3584 1716 3584 
Q 2034 3584 2315 3537 
Q 2597 3491 2834 3397 
z
" transform="scale(0.015625)"/>
      <path id="DejaVuSans-6c" d="M 603 4863 
L 1178 4863 
L 1178 0 
L 603 0 
L 603 4863 
z
" transform="scale(0.015625)"/>
      <path id="DejaVuSans-77" d="M 269 3500 
L 844 3500 
L 1563 769 
L 2278 3500 
L 2956 3500 
L 3675 769 
L 4391 3500 
L 4966 3500 
L 4050 0 
L 3372 0 
L 2619 2869 
L 1863 0 
L 1184 0 
L 269 3500 
z
" transform="scale(0.015625)"/>
      <path id="DejaVuSans-74" d="M 1172 4494 
L 1172 3500 
L 2356 3500 
L 2356 3053 
L 1172 3053 
L 1172 1153 
Q 1172 725 1289 603 
Q 1406 481 1766 481 
L 2356 481 
L 2356 0 
L 1766 0 
Q 1100 0 847 248 
Q 594 497 594 1153 
L 594 3053 
L 172 3053 
L 172 3500 
L 594 3500 
L 594 4494 
L 1172 4494 
z
" transform="scale(0.015625)"/>
      <path id="DejaVuSans-69" d="M 603 3500 
L 1178 3500 
L 1178 0 
L 603 0 
L 603 3500 
z
M 603 4863 
L 1178 4863 
L 1178 4134 
L 603 4134 
L 603 4863 
z
" transform="scale(0.015625)"/>
      <path id="DejaVuSans-67" d="M 2906 1791 
Q 2906 2416 2648 2759 
Q 2391 3103 1925 3103 
Q 1463 3103 1205 2759 
Q 947 2416 947 1791 
Q 947 1169 1205 825 
Q 1463 481 1925 481 
Q 2391 481 2648 825 
Q 2906 1169 2906 1791 
z
M 3481 434 
Q 3481 -459 3084 -895 
Q 2688 -1331 1869 -1331 
Q 1566 -1331 1297 -1286 
Q 1028 -1241 775 -1147 
L 775 -588 
Q 1028 -725 1275 -790 
Q 1522 -856 1778 -856 
Q 2344 -856 2625 -561 
Q 2906 -266 2906 331 
L 2906 616 
Q 2728 306 2450 153 
Q 2172 0 1784 0 
Q 1141 0 747 490 
Q 353 981 353 1791 
Q 353 2603 747 3093 
Q 1141 3584 1784 3584 
Q 2172 3584 2450 3431 
Q 2728 3278 2906 2969 
L 2906 3500 
L 3481 3500 
L 3481 434 
z
" transform="scale(0.015625)"/>
      <path id="DejaVuSans-37" d="M 525 4666 
L 3525 4666 
L 3525 4397 
L 1831 0 
L 1172 0 
L 2766 4134 
L 525 4134 
L 525 4666 
z
" transform="scale(0.015625)"/>
      <path id="DejaVuSans-2d" d="M 313 2009 
L 1997 2009 
L 1997 1497 
L 313 1497 
L 313 2009 
z
" transform="scale(0.015625)"/>
      <path id="DejaVuSans-4e" d="M 628 4666 
L 1478 4666 
L 3547 763 
L 3547 4666 
L 4159 4666 
L 4159 0 
L 3309 0 
L 1241 3903 
L 1241 0 
L 628 0 
L 628 4666 
z
" transform="scale(0.015625)"/>
     </defs>
     <use xlink:href="#DejaVuSans-48"/>
     <use xlink:href="#DejaVuSans-6f" transform="translate(75.195312 0)"/>
     <use xlink:href="#DejaVuSans-6e" transform="translate(136.376953 0)"/>
     <use xlink:href="#DejaVuSans-64" transform="translate(199.755859 0)"/>
     <use xlink:href="#DejaVuSans-61" transform="translate(263.232422 0)"/>
     <use xlink:href="#DejaVuSans-20" transform="translate(324.511719 0)"/>
     <use xlink:href="#DejaVuSans-4f" transform="translate(356.298828 0)"/>
     <use xlink:href="#DejaVuSans-64" transform="translate(435.009766 0)"/>
     <use xlink:href="#DejaVuSans-79" transform="translate(498.486328 0)"/>
     <use xlink:href="#DejaVuSans-73" transform="translate(557.666016 0)"/>
     <use xlink:href="#DejaVuSans-73" transform="translate(609.765625 0)"/>
     <use xlink:href="#DejaVuSans-65" transform="translate(661.865234 0)"/>
     <use xlink:href="#DejaVuSans-79" transform="translate(723.388672 0)"/>
     <use xlink:href="#DejaVuSans-20" transform="translate(782.568359 0)"/>
     <use xlink:href="#DejaVuSans-42" transform="translate(814.355469 0)"/>
     <use xlink:href="#DejaVuSans-6c" transform="translate(882.958984 0)"/>
     <use xlink:href="#DejaVuSans-6f" transform="translate(910.742188 0)"/>
     <use xlink:href="#DejaVuSans-77" transform="translate(971.923828 0)"/>
     <use xlink:href="#DejaVuSans-65" transform="translate(1053.710938 0)"/>
     <use xlink:href="#DejaVuSans-72" transform="translate(1115.234375 0)"/>
     <use xlink:href="#DejaVuSans-20" transform="translate(1156.347656 0)"/>
     <use xlink:href="#DejaVuSans-53" transform="translate(1188.134766 0)"/>
     <use xlink:href="#DejaVuSans-65" transform="translate(1251.611328 0)"/>
     <use xlink:href="#DejaVuSans-74" transform="translate(1313.134766 0)"/>
     <use xlink:href="#DejaVuSans-74" transform="translate(1352.34375 0)"/>
     <use xlink:href="#DejaVuSans-69" transform="translate(1391.552734 0)"/>
     <use xlink:href="#DejaVuSans-6e" transform="translate(1419.335938 0)"/>
     <use xlink:href="#DejaVuSans-67" transform="translate(1482.714844 0)"/>
     <use xlink:href="#DejaVuSans-20" transform="translate(1546.191406 0)"/>
     <use xlink:href="#DejaVuSans-37" transform="translate(1577.978516 0)"/>
     <use xlink:href="#DejaVuSans-20" transform="translate(1641.601562 0)"/>
     <use xlink:href="#DejaVuSans-2d" transform="translate(1673.388672 0)"/>
     <use xlink:href="#DejaVuSans-20" transform="translate(1709.472656 0)"/>
     <use xlink:href="#DejaVuSans-4e" transform="translate(1741.259766 0)"/>
     <use xlink:href="#DejaVuSans-61" transform="translate(1816.064453 0)"/>
     <use xlink:href="#DejaVuSans-72" transform="translate(1877.34375 0)"/>
     <use xlink:href="#DejaVuSans-72" transform="translate(1916.707031 0)"/>
     <use xlink:href="#DejaVuSans-6f" transform="translate(1955.570312 0)"/>
     <use xlink:href="#DejaVuSans-77" transform="translate(2016.751953 0)"/>
     <use xlink:href="#DejaVuSans-20" transform="translate(2098.539062 0)"/>
     <use xlink:href="#DejaVuSans-42" transform="translate(2130.326172 0)"/>
     <use xlink:href="#DejaVuSans-61" transform="translate(2198.929688 0)"/>
     <use xlink:href="#DejaVuSans-6e" transform="translate(2260.208984 0)"/>
     <use xlink:href="#DejaVuSans-64" transform="translate(2323.587891 0)"/>
     <use xlink:href="#DejaVuSans-20" transform="translate(2387.064453 0)"/>
     <use xlink:href="#DejaVuSans-53" transform="translate(2418.851562 0)"/>
     <use xlink:href="#DejaVuSans-50" transform="translate(2482.328125 0)"/>
     <use xlink:href="#DejaVuSans-4c" transform="translate(2542.630859 0)"/>
     <use xlink:href="#DejaVuSans-20" transform="translate(2598.34375 0)"/>
     <use xlink:href="#DejaVuSans-28" transform="translate(2630.130859 0)"/>
     <use xlink:href="#DejaVuSans-64" transform="translate(2669.144531 0)"/>
     <use xlink:href="#DejaVuSans-42" transform="translate(2732.621094 0)"/>
     <use xlink:href="#DejaVuSans-41" transform="translate(2801.224609 0)"/>
     <use xlink:href="#DejaVuSans-29" transform="translate(2869.632812 0)"/>
    </g>
   </g>
  </g>
 </g>
 <defs>
  <clipPath id="p07ed484bcd">
   <rect x="48.982813" y="22.318125" width="512.215" height="272.272122"/>
  </clipPath>
 </defs>
</svg>
