<?xml version="1.0" encoding="utf-8" standalone="no"?>
<!DOCTYPE svg PUBLIC "-//W3C//DTD SVG 1.1//EN"
  "http://www.w3.org/Graphics/SVG/1.1/DTD/svg11.dtd">
<svg xmlns:xlink="http://www.w3.org/1999/xlink" width="568.397812pt" height="351.806674pt" viewBox="0 0 568.397812 351.806674" xmlns="http://www.w3.org/2000/svg" version="1.1">
 <metadata>
  <rdf:RDF xmlns:dc="http://purl.org/dc/elements/1.1/" xmlns:cc="http://creativecommons.org/ns#" xmlns:rdf="http://www.w3.org/1999/02/22-rdf-syntax-ns#">
   <cc:Work>
    <dc:type rdf:resource="http://purl.org/dc/dcmitype/StillImage"/>
    <dc:date>2025-04-24T21:37:18.193746</dc:date>
    <dc:format>image/svg+xml</dc:format>
    <dc:creator>
     <cc:Agent>
      <dc:title>Matplotlib v3.10.0, https://matplotlib.org/</dc:title>
     </cc:Agent>
    </dc:creator>
   </cc:Work>
  </rdf:RDF>
 </metadata>
 <defs>
  <style type="text/css">*{stroke-linejoin: round; stroke-linecap: butt}</style>
 </defs>
 <g id="figure_1">
  <g id="patch_1">
   <path d="M 0 351.806674 
L 568.397812 351.806674 
L 568.397812 0 
L 0 0 
z
" style="fill: #ffffff"/>
  </g>
  <g id="axes_1">
   <g id="patch_2">
    <path d="M 48.982813 294.590247 
L 561.197812 294.590247 
L 561.197812 22.318125 
L 48.982813 22.318125 
z
" style="fill: #ffffff"/>
   </g>
   <g id="matplotlib.axis_1">
    <g id="xtick_1">
     <g id="line2d_1">
      <path d="M 48.982813 294.590247 
L 48.982813 22.318125 
" clip-path="url(#pdcd012fe8c)" style="fill: none; stroke-dasharray: 1.85,0.8; stroke-dashoffset: 0; stroke: #b0b0b0; stroke-width: 0.5"/>
     </g>
     <g id="line2d_2">
      <defs>
       <path id="m5eb858216b" d="M 0 0 
L 0 3.5 
" style="stroke: #000000; stroke-width: 0.8"/>
      </defs>
      <g>
       <use xlink:href="#m5eb858216b" x="48.982813" y="294.590247" style="stroke: #000000; stroke-width: 0.8"/>
      </g>
     </g>
     <g id="text_1">
      <!-- 100 -->
      <g transform="translate(34.015351 320.460054) rotate(-45) scale(0.1 -0.1)">
       <defs>
        <path id="DejaVuSans-31" d="M 794 531 
L 1825 531 
L 1825 4091 
L 703 3866 
L 703 4441 
L 1819 4666 
L 2450 4666 
L 2450 531 
L 3481 531 
L 3481 0 
L 794 0 
L 794 531 
z
" transform="scale(0.015625)"/>
        <path id="DejaVuSans-30" d="M 2034 4250 
Q 1547 4250 1301 3770 
Q 1056 3291 1056 2328 
Q 1056 1369 1301 889 
Q 1547 409 2034 409 
Q 2525 409 2770 889 
Q 3016 1369 3016 2328 
Q 3016 3291 2770 3770 
Q 2525 4250 2034 4250 
z
M 2034 4750 
Q 2819 4750 3233 4129 
Q 3647 3509 3647 2328 
Q 3647 1150 3233 529 
Q 2819 -91 2034 -91 
Q 1250 -91 836 529 
Q 422 1150 422 2328 
Q 422 3509 836 4129 
Q 1250 4750 2034 4750 
z
" transform="scale(0.015625)"/>
       </defs>
       <use xlink:href="#DejaVuSans-31"/>
       <use xlink:href="#DejaVuSans-30" transform="translate(63.623047 0)"/>
       <use xlink:href="#DejaVuSans-30" transform="translate(127.246094 0)"/>
      </g>
     </g>
    </g>
    <g id="xtick_2">
     <g id="line2d_3">
      <path d="M 305.090312 294.590247 
L 305.090312 22.318125 
" clip-path="url(#pdcd012fe8c)" style="fill: none; stroke-dasharray: 1.85,0.8; stroke-dashoffset: 0; stroke: #b0b0b0; stroke-width: 0.5"/>
     </g>
     <g id="line2d_4">
      <g>
       <use xlink:href="#m5eb858216b" x="305.090312" y="294.590247" style="stroke: #000000; stroke-width: 0.8"/>
      </g>
     </g>
     <g id="text_2">
      <!-- 1000 -->
      <g transform="translate(285.623884 324.959021) rotate(-45) scale(0.1 -0.1)">
       <use xlink:href="#DejaVuSans-31"/>
       <use xlink:href="#DejaVuSans-30" transform="translate(63.623047 0)"/>
       <use xlink:href="#DejaVuSans-30" transform="translate(127.246094 0)"/>
       <use xlink:href="#DejaVuSans-30" transform="translate(190.869141 0)"/>
      </g>
     </g>
    </g>
    <g id="xtick_3">
     <g id="line2d_5">
      <path d="M 561.197812 294.590247 
L 561.197812 22.318125 
" clip-path="url(#pdcd012fe8c)" style="fill: none; stroke-dasharray: 1.85,0.8; stroke-dashoffset: 0; stroke: #b0b0b0; stroke-width: 0.5"/>
     </g>
     <g id="line2d_6">
      <g>
       <use xlink:href="#m5eb858216b" x="561.197812" y="294.590247" style="stroke: #000000; stroke-width: 0.8"/>
      </g>
     </g>
     <g id="text_3">
      <!-- 10000 -->
      <g transform="translate(537.232417 329.457988) rotate(-45) scale(0.1 -0.1)">
       <use xlink:href="#DejaVuSans-31"/>
       <use xlink:href="#DejaVuSans-30" transform="translate(63.623047 0)"/>
       <use xlink:href="#DejaVuSans-30" transform="translate(127.246094 0)"/>
       <use xlink:href="#DejaVuSans-30" transform="translate(190.869141 0)"/>
       <use xlink:href="#DejaVuSans-30" transform="translate(254.492188 0)"/>
      </g>
     </g>
    </g>
    <g id="xtick_4">
     <g id="line2d_7">
      <path d="M 126.078852 294.590247 
L 126.078852 22.318125 
" clip-path="url(#pdcd012fe8c)" style="fill: none; stroke-dasharray: 1.85,0.8; stroke-dashoffset: 0; stroke: #b0b0b0; stroke-width: 0.5"/>
     </g>
     <g id="line2d_8">
      <defs>
       <path id="me37591ccb6" d="M 0 0 
L 0 2 
" style="stroke: #000000; stroke-width: 0.6"/>
      </defs>
      <g>
       <use xlink:href="#me37591ccb6" x="126.078852" y="294.590247" style="stroke: #000000; stroke-width: 0.6"/>
      </g>
     </g>
    </g>
    <g id="xtick_5">
     <g id="line2d_9">
      <path d="M 171.177144 294.590247 
L 171.177144 22.318125 
" clip-path="url(#pdcd012fe8c)" style="fill: none; stroke-dasharray: 1.85,0.8; stroke-dashoffset: 0; stroke: #b0b0b0; stroke-width: 0.5"/>
     </g>
     <g id="line2d_10">
      <g>
       <use xlink:href="#me37591ccb6" x="171.177144" y="294.590247" style="stroke: #000000; stroke-width: 0.6"/>
      </g>
     </g>
    </g>
    <g id="xtick_6">
     <g id="line2d_11">
      <path d="M 203.174892 294.590247 
L 203.174892 22.318125 
" clip-path="url(#pdcd012fe8c)" style="fill: none; stroke-dasharray: 1.85,0.8; stroke-dashoffset: 0; stroke: #b0b0b0; stroke-width: 0.5"/>
     </g>
     <g id="line2d_12">
      <g>
       <use xlink:href="#me37591ccb6" x="203.174892" y="294.590247" style="stroke: #000000; stroke-width: 0.6"/>
      </g>
     </g>
    </g>
    <g id="xtick_7">
     <g id="line2d_13">
      <path d="M 227.994273 294.590247 
L 227.994273 22.318125 
" clip-path="url(#pdcd012fe8c)" style="fill: none; stroke-dasharray: 1.85,0.8; stroke-dashoffset: 0; stroke: #b0b0b0; stroke-width: 0.5"/>
     </g>
     <g id="line2d_14">
      <g>
       <use xlink:href="#me37591ccb6" x="227.994273" y="294.590247" style="stroke: #000000; stroke-width: 0.6"/>
      </g>
     </g>
    </g>
    <g id="xtick_8">
     <g id="line2d_15">
      <path d="M 248.273184 294.590247 
L 248.273184 22.318125 
" clip-path="url(#pdcd012fe8c)" style="fill: none; stroke-dasharray: 1.85,0.8; stroke-dashoffset: 0; stroke: #b0b0b0; stroke-width: 0.5"/>
     </g>
     <g id="line2d_16">
      <g>
       <use xlink:href="#me37591ccb6" x="248.273184" y="294.590247" style="stroke: #000000; stroke-width: 0.6"/>
      </g>
     </g>
    </g>
    <g id="xtick_9">
     <g id="line2d_17">
      <path d="M 265.418759 294.590247 
L 265.418759 22.318125 
" clip-path="url(#pdcd012fe8c)" style="fill: none; stroke-dasharray: 1.85,0.8; stroke-dashoffset: 0; stroke: #b0b0b0; stroke-width: 0.5"/>
     </g>
     <g id="line2d_18">
      <g>
       <use xlink:href="#me37591ccb6" x="265.418759" y="294.590247" style="stroke: #000000; stroke-width: 0.6"/>
      </g>
     </g>
    </g>
    <g id="xtick_10">
     <g id="line2d_19">
      <path d="M 280.270931 294.590247 
L 280.270931 22.318125 
" clip-path="url(#pdcd012fe8c)" style="fill: none; stroke-dasharray: 1.85,0.8; stroke-dashoffset: 0; stroke: #b0b0b0; stroke-width: 0.5"/>
     </g>
     <g id="line2d_20">
      <g>
       <use xlink:href="#me37591ccb6" x="280.270931" y="294.590247" style="stroke: #000000; stroke-width: 0.6"/>
      </g>
     </g>
    </g>
    <g id="xtick_11">
     <g id="line2d_21">
      <path d="M 293.371476 294.590247 
L 293.371476 22.318125 
" clip-path="url(#pdcd012fe8c)" style="fill: none; stroke-dasharray: 1.85,0.8; stroke-dashoffset: 0; stroke: #b0b0b0; stroke-width: 0.5"/>
     </g>
     <g id="line2d_22">
      <g>
       <use xlink:href="#me37591ccb6" x="293.371476" y="294.590247" style="stroke: #000000; stroke-width: 0.6"/>
      </g>
     </g>
    </g>
    <g id="xtick_12">
     <g id="line2d_23">
      <path d="M 382.186352 294.590247 
L 382.186352 22.318125 
" clip-path="url(#pdcd012fe8c)" style="fill: none; stroke-dasharray: 1.85,0.8; stroke-dashoffset: 0; stroke: #b0b0b0; stroke-width: 0.5"/>
     </g>
     <g id="line2d_24">
      <g>
       <use xlink:href="#me37591ccb6" x="382.186352" y="294.590247" style="stroke: #000000; stroke-width: 0.6"/>
      </g>
     </g>
    </g>
    <g id="xtick_13">
     <g id="line2d_25">
      <path d="M 427.284644 294.590247 
L 427.284644 22.318125 
" clip-path="url(#pdcd012fe8c)" style="fill: none; stroke-dasharray: 1.85,0.8; stroke-dashoffset: 0; stroke: #b0b0b0; stroke-width: 0.5"/>
     </g>
     <g id="line2d_26">
      <g>
       <use xlink:href="#me37591ccb6" x="427.284644" y="294.590247" style="stroke: #000000; stroke-width: 0.6"/>
      </g>
     </g>
    </g>
    <g id="xtick_14">
     <g id="line2d_27">
      <path d="M 459.282392 294.590247 
L 459.282392 22.318125 
" clip-path="url(#pdcd012fe8c)" style="fill: none; stroke-dasharray: 1.85,0.8; stroke-dashoffset: 0; stroke: #b0b0b0; stroke-width: 0.5"/>
     </g>
     <g id="line2d_28">
      <g>
       <use xlink:href="#me37591ccb6" x="459.282392" y="294.590247" style="stroke: #000000; stroke-width: 0.6"/>
      </g>
     </g>
    </g>
    <g id="xtick_15">
     <g id="line2d_29">
      <path d="M 484.101773 294.590247 
L 484.101773 22.318125 
" clip-path="url(#pdcd012fe8c)" style="fill: none; stroke-dasharray: 1.85,0.8; stroke-dashoffset: 0; stroke: #b0b0b0; stroke-width: 0.5"/>
     </g>
     <g id="line2d_30">
      <g>
       <use xlink:href="#me37591ccb6" x="484.101773" y="294.590247" style="stroke: #000000; stroke-width: 0.6"/>
      </g>
     </g>
    </g>
    <g id="xtick_16">
     <g id="line2d_31">
      <path d="M 504.380684 294.590247 
L 504.380684 22.318125 
" clip-path="url(#pdcd012fe8c)" style="fill: none; stroke-dasharray: 1.85,0.8; stroke-dashoffset: 0; stroke: #b0b0b0; stroke-width: 0.5"/>
     </g>
     <g id="line2d_32">
      <g>
       <use xlink:href="#me37591ccb6" x="504.380684" y="294.590247" style="stroke: #000000; stroke-width: 0.6"/>
      </g>
     </g>
    </g>
    <g id="xtick_17">
     <g id="line2d_33">
      <path d="M 521.526259 294.590247 
L 521.526259 22.318125 
" clip-path="url(#pdcd012fe8c)" style="fill: none; stroke-dasharray: 1.85,0.8; stroke-dashoffset: 0; stroke: #b0b0b0; stroke-width: 0.5"/>
     </g>
     <g id="line2d_34">
      <g>
       <use xlink:href="#me37591ccb6" x="521.526259" y="294.590247" style="stroke: #000000; stroke-width: 0.6"/>
      </g>
     </g>
    </g>
    <g id="xtick_18">
     <g id="line2d_35">
      <path d="M 536.378431 294.590247 
L 536.378431 22.318125 
" clip-path="url(#pdcd012fe8c)" style="fill: none; stroke-dasharray: 1.85,0.8; stroke-dashoffset: 0; stroke: #b0b0b0; stroke-width: 0.5"/>
     </g>
     <g id="line2d_36">
      <g>
       <use xlink:href="#me37591ccb6" x="536.378431" y="294.590247" style="stroke: #000000; stroke-width: 0.6"/>
      </g>
     </g>
    </g>
    <g id="xtick_19">
     <g id="line2d_37">
      <path d="M 549.478976 294.590247 
L 549.478976 22.318125 
" clip-path="url(#pdcd012fe8c)" style="fill: none; stroke-dasharray: 1.85,0.8; stroke-dashoffset: 0; stroke: #b0b0b0; stroke-width: 0.5"/>
     </g>
     <g id="line2d_38">
      <g>
       <use xlink:href="#me37591ccb6" x="549.478976" y="294.590247" style="stroke: #000000; stroke-width: 0.6"/>
      </g>
     </g>
    </g>
    <g id="text_4">
     <!-- Frequency (Hz) -->
     <g transform="translate(267.385625 342.526987) scale(0.1 -0.1)">
      <defs>
       <path id="DejaVuSans-46" d="M 628 4666 
L 3309 4666 
L 3309 4134 
L 1259 4134 
L 1259 2759 
L 3109 2759 
L 3109 2228 
L 1259 2228 
L 1259 0 
L 628 0 
L 628 4666 
z
" transform="scale(0.015625)"/>
       <path id="DejaVuSans-72" d="M 2631 2963 
Q 2534 3019 2420 3045 
Q 2306 3072 2169 3072 
Q 1681 3072 1420 2755 
Q 1159 2438 1159 1844 
L 1159 0 
L 581 0 
L 581 3500 
L 1159 3500 
L 1159 2956 
Q 1341 3275 1631 3429 
Q 1922 3584 2338 3584 
Q 2397 3584 2469 3576 
Q 2541 3569 2628 3553 
L 2631 2963 
z
" transform="scale(0.015625)"/>
       <path id="DejaVuSans-65" d="M 3597 1894 
L 3597 1613 
L 953 1613 
Q 991 1019 1311 708 
Q 1631 397 2203 397 
Q 2534 397 2845 478 
Q 3156 559 3463 722 
L 3463 178 
Q 3153 47 2828 -22 
Q 2503 -91 2169 -91 
Q 1331 -91 842 396 
Q 353 884 353 1716 
Q 353 2575 817 3079 
Q 1281 3584 2069 3584 
Q 2775 3584 3186 3129 
Q 3597 2675 3597 1894 
z
M 3022 2063 
Q 3016 2534 2758 2815 
Q 2500 3097 2075 3097 
Q 1594 3097 1305 2825 
Q 1016 2553 972 2059 
L 3022 2063 
z
" transform="scale(0.015625)"/>
       <path id="DejaVuSans-71" d="M 947 1747 
Q 947 1113 1208 752 
Q 1469 391 1925 391 
Q 2381 391 2643 752 
Q 2906 1113 2906 1747 
Q 2906 2381 2643 2742 
Q 2381 3103 1925 3103 
Q 1469 3103 1208 2742 
Q 947 2381 947 1747 
z
M 2906 525 
Q 2725 213 2448 61 
Q 2172 -91 1784 -91 
Q 1150 -91 751 415 
Q 353 922 353 1747 
Q 353 2572 751 3078 
Q 1150 3584 1784 3584 
Q 2172 3584 2448 3432 
Q 2725 3281 2906 2969 
L 2906 3500 
L 3481 3500 
L 3481 -1331 
L 2906 -1331 
L 2906 525 
z
" transform="scale(0.015625)"/>
       <path id="DejaVuSans-75" d="M 544 1381 
L 544 3500 
L 1119 3500 
L 1119 1403 
Q 1119 906 1312 657 
Q 1506 409 1894 409 
Q 2359 409 2629 706 
Q 2900 1003 2900 1516 
L 2900 3500 
L 3475 3500 
L 3475 0 
L 2900 0 
L 2900 538 
Q 2691 219 2414 64 
Q 2138 -91 1772 -91 
Q 1169 -91 856 284 
Q 544 659 544 1381 
z
M 1991 3584 
L 1991 3584 
z
" transform="scale(0.015625)"/>
       <path id="DejaVuSans-6e" d="M 3513 2113 
L 3513 0 
L 2938 0 
L 2938 2094 
Q 2938 2591 2744 2837 
Q 2550 3084 2163 3084 
Q 1697 3084 1428 2787 
Q 1159 2491 1159 1978 
L 1159 0 
L 581 0 
L 581 3500 
L 1159 3500 
L 1159 2956 
Q 1366 3272 1645 3428 
Q 1925 3584 2291 3584 
Q 2894 3584 3203 3211 
Q 3513 2838 3513 2113 
z
" transform="scale(0.015625)"/>
       <path id="DejaVuSans-63" d="M 3122 3366 
L 3122 2828 
Q 2878 2963 2633 3030 
Q 2388 3097 2138 3097 
Q 1578 3097 1268 2742 
Q 959 2388 959 1747 
Q 959 1106 1268 751 
Q 1578 397 2138 397 
Q 2388 397 2633 464 
Q 2878 531 3122 666 
L 3122 134 
Q 2881 22 2623 -34 
Q 2366 -91 2075 -91 
Q 1284 -91 818 406 
Q 353 903 353 1747 
Q 353 2603 823 3093 
Q 1294 3584 2113 3584 
Q 2378 3584 2631 3529 
Q 2884 3475 3122 3366 
z
" transform="scale(0.015625)"/>
       <path id="DejaVuSans-79" d="M 2059 -325 
Q 1816 -950 1584 -1140 
Q 1353 -1331 966 -1331 
L 506 -1331 
L 506 -850 
L 844 -850 
Q 1081 -850 1212 -737 
Q 1344 -625 1503 -206 
L 1606 56 
L 191 3500 
L 800 3500 
L 1894 763 
L 2988 3500 
L 3597 3500 
L 2059 -325 
z
" transform="scale(0.015625)"/>
       <path id="DejaVuSans-20" transform="scale(0.015625)"/>
       <path id="DejaVuSans-28" d="M 1984 4856 
Q 1566 4138 1362 3434 
Q 1159 2731 1159 2009 
Q 1159 1288 1364 580 
Q 1569 -128 1984 -844 
L 1484 -844 
Q 1016 -109 783 600 
Q 550 1309 550 2009 
Q 550 2706 781 3412 
Q 1013 4119 1484 4856 
L 1984 4856 
z
" transform="scale(0.015625)"/>
       <path id="DejaVuSans-48" d="M 628 4666 
L 1259 4666 
L 1259 2753 
L 3553 2753 
L 3553 4666 
L 4184 4666 
L 4184 0 
L 3553 0 
L 3553 2222 
L 1259 2222 
L 1259 0 
L 628 0 
L 628 4666 
z
" transform="scale(0.015625)"/>
       <path id="DejaVuSans-7a" d="M 353 3500 
L 3084 3500 
L 3084 2975 
L 922 459 
L 3084 459 
L 3084 0 
L 275 0 
L 275 525 
L 2438 3041 
L 353 3041 
L 353 3500 
z
" transform="scale(0.015625)"/>
       <path id="DejaVuSans-29" d="M 513 4856 
L 1013 4856 
Q 1481 4119 1714 3412 
Q 1947 2706 1947 2009 
Q 1947 1309 1714 600 
Q 1481 -109 1013 -844 
L 513 -844 
Q 928 -128 1133 580 
Q 1338 1288 1338 2009 
Q 1338 2731 1133 3434 
Q 928 4138 513 4856 
z
" transform="scale(0.015625)"/>
      </defs>
      <use xlink:href="#DejaVuSans-46"/>
      <use xlink:href="#DejaVuSans-72" transform="translate(50.269531 0)"/>
      <use xlink:href="#DejaVuSans-65" transform="translate(89.132812 0)"/>
      <use xlink:href="#DejaVuSans-71" transform="translate(150.65625 0)"/>
      <use xlink:href="#DejaVuSans-75" transform="translate(214.132812 0)"/>
      <use xlink:href="#DejaVuSans-65" transform="translate(277.511719 0)"/>
      <use xlink:href="#DejaVuSans-6e" transform="translate(339.035156 0)"/>
      <use xlink:href="#DejaVuSans-63" transform="translate(402.414062 0)"/>
      <use xlink:href="#DejaVuSans-79" transform="translate(457.394531 0)"/>
      <use xlink:href="#DejaVuSans-20" transform="translate(516.574219 0)"/>
      <use xlink:href="#DejaVuSans-28" transform="translate(548.361328 0)"/>
      <use xlink:href="#DejaVuSans-48" transform="translate(587.375 0)"/>
      <use xlink:href="#DejaVuSans-7a" transform="translate(662.570312 0)"/>
      <use xlink:href="#DejaVuSans-29" transform="translate(715.060547 0)"/>
     </g>
    </g>
   </g>
   <g id="matplotlib.axis_2">
    <g id="ytick_1">
     <g id="line2d_39">
      <path d="M 48.982813 294.590247 
L 561.197812 294.590247 
" clip-path="url(#pdcd012fe8c)" style="fill: none; stroke-dasharray: 1.85,0.8; stroke-dashoffset: 0; stroke: #b0b0b0; stroke-width: 0.5"/>
     </g>
     <g id="line2d_40">
      <defs>
       <path id="mc99293d9a8" d="M 0 0 
L -3.5 0 
" style="stroke: #000000; stroke-width: 0.8"/>
      </defs>
      <g>
       <use xlink:href="#mc99293d9a8" x="48.982813" y="294.590247" style="stroke: #000000; stroke-width: 0.8"/>
      </g>
     </g>
     <g id="text_5">
      <!-- −20 -->
      <g transform="translate(20.878125 298.389466) scale(0.1 -0.1)">
       <defs>
        <path id="DejaVuSans-2212" d="M 678 2272 
L 4684 2272 
L 4684 1741 
L 678 1741 
L 678 2272 
z
" transform="scale(0.015625)"/>
        <path id="DejaVuSans-32" d="M 1228 531 
L 3431 531 
L 3431 0 
L 469 0 
L 469 531 
Q 828 903 1448 1529 
Q 2069 2156 2228 2338 
Q 2531 2678 2651 2914 
Q 2772 3150 2772 3378 
Q 2772 3750 2511 3984 
Q 2250 4219 1831 4219 
Q 1534 4219 1204 4116 
Q 875 4013 500 3803 
L 500 4441 
Q 881 4594 1212 4672 
Q 1544 4750 1819 4750 
Q 2544 4750 2975 4387 
Q 3406 4025 3406 3419 
Q 3406 3131 3298 2873 
Q 3191 2616 2906 2266 
Q 2828 2175 2409 1742 
Q 1991 1309 1228 531 
z
" transform="scale(0.015625)"/>
       </defs>
       <use xlink:href="#DejaVuSans-2212"/>
       <use xlink:href="#DejaVuSans-32" transform="translate(83.789062 0)"/>
       <use xlink:href="#DejaVuSans-30" transform="translate(147.412109 0)"/>
      </g>
     </g>
    </g>
    <g id="ytick_2">
     <g id="line2d_41">
      <path d="M 48.982813 255.694229 
L 561.197812 255.694229 
" clip-path="url(#pdcd012fe8c)" style="fill: none; stroke-dasharray: 1.85,0.8; stroke-dashoffset: 0; stroke: #b0b0b0; stroke-width: 0.5"/>
     </g>
     <g id="line2d_42">
      <g>
       <use xlink:href="#mc99293d9a8" x="48.982813" y="255.694229" style="stroke: #000000; stroke-width: 0.8"/>
      </g>
     </g>
     <g id="text_6">
      <!-- −10 -->
      <g transform="translate(20.878125 259.493448) scale(0.1 -0.1)">
       <use xlink:href="#DejaVuSans-2212"/>
       <use xlink:href="#DejaVuSans-31" transform="translate(83.789062 0)"/>
       <use xlink:href="#DejaVuSans-30" transform="translate(147.412109 0)"/>
      </g>
     </g>
    </g>
    <g id="ytick_3">
     <g id="line2d_43">
      <path d="M 48.982813 216.798212 
L 561.197812 216.798212 
" clip-path="url(#pdcd012fe8c)" style="fill: none; stroke-dasharray: 1.85,0.8; stroke-dashoffset: 0; stroke: #b0b0b0; stroke-width: 0.5"/>
     </g>
     <g id="line2d_44">
      <g>
       <use xlink:href="#mc99293d9a8" x="48.982813" y="216.798212" style="stroke: #000000; stroke-width: 0.8"/>
      </g>
     </g>
     <g id="text_7">
      <!-- 0 -->
      <g transform="translate(35.620313 220.597431) scale(0.1 -0.1)">
       <use xlink:href="#DejaVuSans-30"/>
      </g>
     </g>
    </g>
    <g id="ytick_4">
     <g id="line2d_45">
      <path d="M 48.982813 177.902195 
L 561.197812 177.902195 
" clip-path="url(#pdcd012fe8c)" style="fill: none; stroke-dasharray: 1.85,0.8; stroke-dashoffset: 0; stroke: #b0b0b0; stroke-width: 0.5"/>
     </g>
     <g id="line2d_46">
      <g>
       <use xlink:href="#mc99293d9a8" x="48.982813" y="177.902195" style="stroke: #000000; stroke-width: 0.8"/>
      </g>
     </g>
     <g id="text_8">
      <!-- 10 -->
      <g transform="translate(29.257813 181.701413) scale(0.1 -0.1)">
       <use xlink:href="#DejaVuSans-31"/>
       <use xlink:href="#DejaVuSans-30" transform="translate(63.623047 0)"/>
      </g>
     </g>
    </g>
    <g id="ytick_5">
     <g id="line2d_47">
      <path d="M 48.982813 139.006177 
L 561.197812 139.006177 
" clip-path="url(#pdcd012fe8c)" style="fill: none; stroke-dasharray: 1.85,0.8; stroke-dashoffset: 0; stroke: #b0b0b0; stroke-width: 0.5"/>
     </g>
     <g id="line2d_48">
      <g>
       <use xlink:href="#mc99293d9a8" x="48.982813" y="139.006177" style="stroke: #000000; stroke-width: 0.8"/>
      </g>
     </g>
     <g id="text_9">
      <!-- 20 -->
      <g transform="translate(29.257813 142.805396) scale(0.1 -0.1)">
       <use xlink:href="#DejaVuSans-32"/>
       <use xlink:href="#DejaVuSans-30" transform="translate(63.623047 0)"/>
      </g>
     </g>
    </g>
    <g id="ytick_6">
     <g id="line2d_49">
      <path d="M 48.982813 100.11016 
L 561.197812 100.11016 
" clip-path="url(#pdcd012fe8c)" style="fill: none; stroke-dasharray: 1.85,0.8; stroke-dashoffset: 0; stroke: #b0b0b0; stroke-width: 0.5"/>
     </g>
     <g id="line2d_50">
      <g>
       <use xlink:href="#mc99293d9a8" x="48.982813" y="100.11016" style="stroke: #000000; stroke-width: 0.8"/>
      </g>
     </g>
     <g id="text_10">
      <!-- 30 -->
      <g transform="translate(29.257813 103.909379) scale(0.1 -0.1)">
       <defs>
        <path id="DejaVuSans-33" d="M 2597 2516 
Q 3050 2419 3304 2112 
Q 3559 1806 3559 1356 
Q 3559 666 3084 287 
Q 2609 -91 1734 -91 
Q 1441 -91 1130 -33 
Q 819 25 488 141 
L 488 750 
Q 750 597 1062 519 
Q 1375 441 1716 441 
Q 2309 441 2620 675 
Q 2931 909 2931 1356 
Q 2931 1769 2642 2001 
Q 2353 2234 1838 2234 
L 1294 2234 
L 1294 2753 
L 1863 2753 
Q 2328 2753 2575 2939 
Q 2822 3125 2822 3475 
Q 2822 3834 2567 4026 
Q 2313 4219 1838 4219 
Q 1578 4219 1281 4162 
Q 984 4106 628 3988 
L 628 4550 
Q 988 4650 1302 4700 
Q 1616 4750 1894 4750 
Q 2613 4750 3031 4423 
Q 3450 4097 3450 3541 
Q 3450 3153 3228 2886 
Q 3006 2619 2597 2516 
z
" transform="scale(0.015625)"/>
       </defs>
       <use xlink:href="#DejaVuSans-33"/>
       <use xlink:href="#DejaVuSans-30" transform="translate(63.623047 0)"/>
      </g>
     </g>
    </g>
    <g id="ytick_7">
     <g id="line2d_51">
      <path d="M 48.982813 61.214142 
L 561.197812 61.214142 
" clip-path="url(#pdcd012fe8c)" style="fill: none; stroke-dasharray: 1.85,0.8; stroke-dashoffset: 0; stroke: #b0b0b0; stroke-width: 0.5"/>
     </g>
     <g id="line2d_52">
      <g>
       <use xlink:href="#mc99293d9a8" x="48.982813" y="61.214142" style="stroke: #000000; stroke-width: 0.8"/>
      </g>
     </g>
     <g id="text_11">
      <!-- 40 -->
      <g transform="translate(29.257813 65.013361) scale(0.1 -0.1)">
       <defs>
        <path id="DejaVuSans-34" d="M 2419 4116 
L 825 1625 
L 2419 1625 
L 2419 4116 
z
M 2253 4666 
L 3047 4666 
L 3047 1625 
L 3713 1625 
L 3713 1100 
L 3047 1100 
L 3047 0 
L 2419 0 
L 2419 1100 
L 313 1100 
L 313 1709 
L 2253 4666 
z
" transform="scale(0.015625)"/>
       </defs>
       <use xlink:href="#DejaVuSans-34"/>
       <use xlink:href="#DejaVuSans-30" transform="translate(63.623047 0)"/>
      </g>
     </g>
    </g>
    <g id="ytick_8">
     <g id="line2d_53">
      <path d="M 48.982813 22.318125 
L 561.197812 22.318125 
" clip-path="url(#pdcd012fe8c)" style="fill: none; stroke-dasharray: 1.85,0.8; stroke-dashoffset: 0; stroke: #b0b0b0; stroke-width: 0.5"/>
     </g>
     <g id="line2d_54">
      <g>
       <use xlink:href="#mc99293d9a8" x="48.982813" y="22.318125" style="stroke: #000000; stroke-width: 0.8"/>
      </g>
     </g>
     <g id="text_12">
      <!-- 50 -->
      <g transform="translate(29.257813 26.117344) scale(0.1 -0.1)">
       <defs>
        <path id="DejaVuSans-35" d="M 691 4666 
L 3169 4666 
L 3169 4134 
L 1269 4134 
L 1269 2991 
Q 1406 3038 1543 3061 
Q 1681 3084 1819 3084 
Q 2600 3084 3056 2656 
Q 3513 2228 3513 1497 
Q 3513 744 3044 326 
Q 2575 -91 1722 -91 
Q 1428 -91 1123 -41 
Q 819 9 494 109 
L 494 744 
Q 775 591 1075 516 
Q 1375 441 1709 441 
Q 2250 441 2565 725 
Q 2881 1009 2881 1497 
Q 2881 1984 2565 2268 
Q 2250 2553 1709 2553 
Q 1456 2553 1204 2497 
Q 953 2441 691 2322 
L 691 4666 
z
" transform="scale(0.015625)"/>
       </defs>
       <use xlink:href="#DejaVuSans-35"/>
       <use xlink:href="#DejaVuSans-30" transform="translate(63.623047 0)"/>
      </g>
     </g>
    </g>
    <g id="text_13">
     <!-- SPL (dBA) -->
     <g transform="translate(14.798438 182.944811) rotate(-90) scale(0.1 -0.1)">
      <defs>
       <path id="DejaVuSans-53" d="M 3425 4513 
L 3425 3897 
Q 3066 4069 2747 4153 
Q 2428 4238 2131 4238 
Q 1616 4238 1336 4038 
Q 1056 3838 1056 3469 
Q 1056 3159 1242 3001 
Q 1428 2844 1947 2747 
L 2328 2669 
Q 3034 2534 3370 2195 
Q 3706 1856 3706 1288 
Q 3706 609 3251 259 
Q 2797 -91 1919 -91 
Q 1588 -91 1214 -16 
Q 841 59 441 206 
L 441 856 
Q 825 641 1194 531 
Q 1563 422 1919 422 
Q 2459 422 2753 634 
Q 3047 847 3047 1241 
Q 3047 1584 2836 1778 
Q 2625 1972 2144 2069 
L 1759 2144 
Q 1053 2284 737 2584 
Q 422 2884 422 3419 
Q 422 4038 858 4394 
Q 1294 4750 2059 4750 
Q 2388 4750 2728 4690 
Q 3069 4631 3425 4513 
z
" transform="scale(0.015625)"/>
       <path id="DejaVuSans-50" d="M 1259 4147 
L 1259 2394 
L 2053 2394 
Q 2494 2394 2734 2622 
Q 2975 2850 2975 3272 
Q 2975 3691 2734 3919 
Q 2494 4147 2053 4147 
L 1259 4147 
z
M 628 4666 
L 2053 4666 
Q 2838 4666 3239 4311 
Q 3641 3956 3641 3272 
Q 3641 2581 3239 2228 
Q 2838 1875 2053 1875 
L 1259 1875 
L 1259 0 
L 628 0 
L 628 4666 
z
" transform="scale(0.015625)"/>
       <path id="DejaVuSans-4c" d="M 628 4666 
L 1259 4666 
L 1259 531 
L 3531 531 
L 3531 0 
L 628 0 
L 628 4666 
z
" transform="scale(0.015625)"/>
       <path id="DejaVuSans-64" d="M 2906 2969 
L 2906 4863 
L 3481 4863 
L 3481 0 
L 2906 0 
L 2906 525 
Q 2725 213 2448 61 
Q 2172 -91 1784 -91 
Q 1150 -91 751 415 
Q 353 922 353 1747 
Q 353 2572 751 3078 
Q 1150 3584 1784 3584 
Q 2172 3584 2448 3432 
Q 2725 3281 2906 2969 
z
M 947 1747 
Q 947 1113 1208 752 
Q 1469 391 1925 391 
Q 2381 391 2643 752 
Q 2906 1113 2906 1747 
Q 2906 2381 2643 2742 
Q 2381 3103 1925 3103 
Q 1469 3103 1208 2742 
Q 947 2381 947 1747 
z
" transform="scale(0.015625)"/>
       <path id="DejaVuSans-42" d="M 1259 2228 
L 1259 519 
L 2272 519 
Q 2781 519 3026 730 
Q 3272 941 3272 1375 
Q 3272 1813 3026 2020 
Q 2781 2228 2272 2228 
L 1259 2228 
z
M 1259 4147 
L 1259 2741 
L 2194 2741 
Q 2656 2741 2882 2914 
Q 3109 3088 3109 3444 
Q 3109 3797 2882 3972 
Q 2656 4147 2194 4147 
L 1259 4147 
z
M 628 4666 
L 2241 4666 
Q 2963 4666 3353 4366 
Q 3744 4066 3744 3513 
Q 3744 3084 3544 2831 
Q 3344 2578 2956 2516 
Q 3422 2416 3680 2098 
Q 3938 1781 3938 1306 
Q 3938 681 3513 340 
Q 3088 0 2303 0 
L 628 0 
L 628 4666 
z
" transform="scale(0.015625)"/>
       <path id="DejaVuSans-41" d="M 2188 4044 
L 1331 1722 
L 3047 1722 
L 2188 4044 
z
M 1831 4666 
L 2547 4666 
L 4325 0 
L 3669 0 
L 3244 1197 
L 1141 1197 
L 716 0 
L 50 0 
L 1831 4666 
z
" transform="scale(0.015625)"/>
      </defs>
      <use xlink:href="#DejaVuSans-53"/>
      <use xlink:href="#DejaVuSans-50" transform="translate(63.476562 0)"/>
      <use xlink:href="#DejaVuSans-4c" transform="translate(123.779297 0)"/>
      <use xlink:href="#DejaVuSans-20" transform="translate(179.492188 0)"/>
      <use xlink:href="#DejaVuSans-28" transform="translate(211.279297 0)"/>
      <use xlink:href="#DejaVuSans-64" transform="translate(250.292969 0)"/>
      <use xlink:href="#DejaVuSans-42" transform="translate(313.769531 0)"/>
      <use xlink:href="#DejaVuSans-41" transform="translate(382.373047 0)"/>
      <use xlink:href="#DejaVuSans-29" transform="translate(450.78125 0)"/>
     </g>
    </g>
   </g>
   <g id="line2d_55">
    <path d="M 51.493242 79.830486 
L 57.198394 79.916052 
L 62.625131 81.803011 
L 67.79937 99.025575 
L 72.743565 88.991215 
L 77.477304 92.132721 
L 82.017775 99.249347 
L 86.38014 105.844815 
L 90.577849 109.094499 
L 98.525949 110.704707 
L 102.296685 102.894012 
L 105.943768 99.525974 
L 109.475052 97.248669 
L 112.897663 96.507402 
L 116.218091 97.274265 
L 119.44226 93.520474 
L 122.575596 95.451904 
L 125.623077 99.259737 
L 128.589281 102.194129 
L 131.478432 104.321044 
L 134.294433 104.043886 
L 137.040895 105.311265 
L 139.721171 98.902028 
L 142.338376 98.878026 
L 144.89541 105.4563 
L 147.394977 106.746302 
L 149.839605 108.874094 
L 152.231656 110.361993 
L 154.573344 110.617834 
L 156.866746 112.992974 
L 159.113814 114.472548 
L 161.316383 118.229384 
L 163.47618 120.639388 
L 165.594836 121.990066 
L 167.673888 119.396282 
L 169.714791 117.388783 
L 171.718919 115.821072 
L 173.687573 115.740799 
L 175.621988 109.754881 
L 177.523335 102.117377 
L 179.392725 96.715895 
L 181.231214 90.10418 
L 183.039808 91.871273 
L 184.819463 96.404896 
L 186.571091 100.460513 
L 188.295561 106.074402 
L 189.993702 110.713684 
L 191.666306 112.055137 
L 193.31413 114.303986 
L 194.937897 112.109079 
L 196.5383 114.040521 
L 198.116001 111.610562 
L 199.671636 108.03698 
L 201.205813 106.132251 
L 202.719116 103.363327 
L 204.212106 104.191211 
L 205.685321 99.554008 
L 207.139277 101.592911 
L 208.574472 107.273665 
L 209.991384 107.625557 
L 211.390472 111.030135 
L 212.77218 114.050078 
L 214.136935 118.74971 
L 215.485146 117.242012 
L 216.817211 108.876892 
L 218.133511 115.782097 
L 219.434416 126.723734 
L 220.720281 128.830214 
L 221.99145 128.456699 
L 223.248255 128.663337 
L 224.491017 125.347636 
L 225.720047 102.632124 
L 226.935645 88.036672 
L 228.1381 97.658207 
L 229.327695 104.706899 
L 230.504702 102.751752 
L 231.669383 99.019334 
L 232.821996 96.735724 
L 233.962786 97.043373 
L 235.091994 95.826448 
L 236.209854 99.903616 
L 237.31659 106.016125 
L 239.497563 113.563618 
L 240.572219 118.251691 
L 241.636592 119.144881 
L 242.690875 118.735834 
L 243.735259 119.956709 
L 244.769928 117.273404 
L 245.79506 115.481785 
L 246.810831 110.042562 
L 247.817408 106.953363 
L 249.803641 104.013251 
L 250.783613 104.915261 
L 251.755026 104.219667 
L 252.718028 105.042773 
L 253.672764 106.583279 
L 254.619375 110.606371 
L 255.557997 111.237679 
L 256.488765 113.470764 
L 257.411808 114.521699 
L 258.327254 115.320213 
L 259.235227 112.911846 
L 260.135848 111.631032 
L 261.029235 111.307033 
L 261.915503 113.202482 
L 262.794765 113.509251 
L 263.667131 116.28343 
L 265.391601 125.917211 
L 266.243912 126.239286 
L 267.089742 127.317453 
L 267.929188 127.508202 
L 268.762346 126.167153 
L 270.41017 122.983758 
L 271.225016 122.189266 
L 272.033937 121.668442 
L 272.837017 120.367216 
L 273.634339 122.612446 
L 274.425987 123.467855 
L 275.212041 122.006673 
L 275.992578 124.592116 
L 276.767675 122.31316 
L 277.537409 122.710275 
L 279.061078 125.368897 
L 279.815156 128.259051 
L 280.564156 128.143225 
L 281.308146 125.705605 
L 282.78136 122.22978 
L 283.510714 122.221161 
L 284.235317 118.355219 
L 284.955229 118.192365 
L 285.670512 117.494793 
L 286.381224 115.909997 
L 287.087423 114.061338 
L 288.486512 108.309996 
L 289.179512 107.498071 
L 289.86822 106.480269 
L 290.55269 106.936369 
L 291.909123 107.388557 
L 292.581186 108.818307 
L 293.249212 108.286249 
L 293.91325 108.967244 
L 294.573348 111.704429 
L 295.229551 112.177359 
L 295.881905 109.93843 
L 296.530455 106.29698 
L 297.175246 107.704857 
L 297.81632 107.030763 
L 298.453721 110.126387 
L 299.087489 117.939277 
L 300.344294 129.009352 
L 300.967411 133.462097 
L 301.587057 134.491306 
L 302.203269 133.798339 
L 302.816087 131.323891 
L 303.425546 115.092654 
L 304.031684 114.876397 
L 305.23414 129.295546 
L 305.830528 130.58098 
L 306.423735 129.577609 
L 307.013795 130.857348 
L 307.600741 128.025812 
L 308.184607 123.027967 
L 308.765423 119.708052 
L 309.918035 119.122044 
L 310.489893 120.264763 
L 311.058825 119.821417 
L 311.624863 117.136403 
L 312.748368 120.21574 
L 313.305893 121.143295 
L 313.860638 122.895699 
L 314.412629 122.891455 
L 314.961895 119.071123 
L 315.508462 117.137156 
L 316.052356 116.69118 
L 316.593603 114.560453 
L 317.132229 114.496879 
L 317.668259 115.41189 
L 318.201719 118.893263 
L 318.732632 124.191565 
L 319.261022 125.252641 
L 320.310333 129.51996 
L 320.831299 127.03467 
L 321.349836 127.393332 
L 322.8911 139.601035 
L 323.400145 138.034329 
L 323.90687 141.473118 
L 324.411298 137.890047 
L 324.913448 139.55787 
L 325.910998 144.512061 
L 326.406438 144.368126 
L 326.899681 142.852595 
L 327.390746 143.219687 
L 327.879652 147.311848 
L 328.366419 148.478601 
L 328.851065 150.080955 
L 329.333609 149.794122 
L 329.814068 147.734478 
L 330.29246 147.015844 
L 330.768804 147.107357 
L 331.715414 141.697513 
L 332.654037 135.450203 
L 333.120394 130.23155 
L 333.584804 129.550764 
L 334.047283 129.728606 
L 334.507847 129.161329 
L 334.966512 130.715886 
L 335.423294 135.397257 
L 335.878206 135.496773 
L 336.331266 137.192502 
L 336.782489 141.831458 
L 337.231887 143.707377 
L 337.679478 144.556966 
L 338.125274 147.109849 
L 338.569291 147.809491 
L 339.011543 151.386017 
L 339.452042 153.460299 
L 339.890805 154.297117 
L 340.327843 153.544054 
L 340.76317 152.570879 
L 341.196801 152.248327 
L 341.628747 149.411343 
L 342.059023 147.616626 
L 342.48764 142.424626 
L 342.914612 130.126792 
L 343.339952 128.661956 
L 343.76367 136.293431 
L 344.185781 136.895918 
L 344.606296 139.9134 
L 345.025227 140.51806 
L 345.442586 139.050056 
L 346.272636 133.750828 
L 347.096536 137.624575 
L 348.321056 139.317028 
L 348.726251 137.747375 
L 349.129976 139.625324 
L 349.532241 140.880369 
L 349.933056 143.328611 
L 350.332432 144.230475 
L 350.730379 145.4458 
L 351.126907 143.544212 
L 351.522027 140.910828 
L 351.915748 139.726156 
L 352.30808 140.154953 
L 352.699034 138.181163 
L 353.088617 139.577354 
L 353.476841 139.130095 
L 353.863715 140.541558 
L 354.249248 143.265691 
L 355.016327 150.064793 
L 355.397892 149.924411 
L 356.157118 139.377561 
L 356.534795 135.473273 
L 357.286326 133.546734 
L 357.660195 132.093125 
L 358.032812 133.199232 
L 358.404185 133.447383 
L 358.774322 132.252671 
L 359.143232 130.057884 
L 359.510922 128.852623 
L 359.8774 129.027336 
L 360.242675 129.026102 
L 360.606754 128.716163 
L 360.969645 130.498863 
L 361.331356 128.409914 
L 361.691895 128.209529 
L 362.051269 131.45165 
L 362.409485 136.461703 
L 363.122475 133.572986 
L 363.477263 133.751333 
L 363.830924 134.851349 
L 364.534889 138.690298 
L 364.885207 138.196429 
L 365.234426 138.930834 
L 365.582552 141.714855 
L 365.929591 146.278156 
L 366.275551 148.075695 
L 366.96426 144.894658 
L 367.307021 148.053582 
L 367.64873 148.888067 
L 367.989392 151.477106 
L 368.329014 150.394618 
L 368.667602 151.816957 
L 369.005162 152.574534 
L 369.341702 150.338812 
L 369.677225 146.546256 
L 370.01174 152.030097 
L 370.345252 152.835914 
L 370.677766 153.094263 
L 371.339828 155.184805 
L 371.997973 147.493671 
L 372.652246 145.640357 
L 372.977945 143.358724 
L 373.626495 144.784837 
L 373.949357 146.432939 
L 374.271286 145.257292 
L 375.54976 155.720552 
L 375.867096 154.927381 
L 376.183529 154.872264 
L 376.499064 156.9015 
L 377.127461 161.953011 
L 377.440334 163.17865 
L 377.752329 163.054854 
L 378.063451 159.047412 
L 378.373705 160.497899 
L 378.683096 159.766971 
L 378.991629 157.931486 
L 379.299309 156.980667 
L 379.60614 158.111048 
L 379.912126 161.556774 
L 380.217273 161.839244 
L 380.521586 160.353162 
L 380.825068 164.414152 
L 381.127724 162.99237 
L 381.429559 166.263689 
L 381.730577 167.686689 
L 382.030782 166.428889 
L 382.926567 157.113247 
L 383.519775 156.242153 
L 384.109835 146.729501 
L 384.403695 153.324976 
L 384.696781 152.368474 
L 384.989097 154.196727 
L 385.280646 155.272832 
L 385.571434 155.038298 
L 385.861463 155.525908 
L 386.150737 156.991614 
L 386.439262 159.346089 
L 386.72704 160.198901 
L 387.014075 159.076015 
L 387.300371 155.173053 
L 387.585932 154.642622 
L 387.870762 153.516748 
L 388.154865 151.491737 
L 388.438244 151.14601 
L 389.002844 148.877172 
L 389.284073 150.91835 
L 389.564593 147.391688 
L 389.844407 146.465314 
L 390.679651 147.913985 
L 390.956677 149.057766 
L 391.508669 155.312399 
L 391.783641 155.058102 
L 392.057935 154.266489 
L 392.331554 154.267039 
L 393.148395 147.398575 
L 393.419348 147.069002 
L 393.959281 145.936867 
L 394.228268 146.162489 
L 395.297758 155.514991 
L 395.563531 157.570966 
L 396.357062 166.614171 
L 396.620319 167.549866 
L 396.882955 166.58676 
L 397.144971 169.337493 
L 397.406372 169.43781 
L 397.667161 169.242567 
L 398.445876 167.103102 
L 398.704241 166.864685 
L 399.219177 168.298322 
L 399.475754 169.050913 
L 399.731741 166.641632 
L 399.98714 166.587734 
L 400.241953 168.012056 
L 400.496184 165.84664 
L 400.749836 162.003883 
L 401.00291 164.885522 
L 401.25541 163.202887 
L 401.507337 163.428489 
L 401.758696 167.695925 
L 402.009488 169.779404 
L 402.259715 168.668596 
L 402.758488 176.002358 
L 403.007038 177.344347 
L 403.255033 174.348811 
L 403.502477 176.733846 
L 403.749372 175.967122 
L 403.99572 175.570439 
L 404.241524 167.590169 
L 404.731507 177.935246 
L 404.975692 179.510902 
L 405.219342 179.875858 
L 405.462459 183.336769 
L 405.705046 182.830142 
L 405.947105 181.850247 
L 406.188638 184.395112 
L 406.429648 180.306618 
L 406.670137 174.021784 
L 406.910107 172.655918 
L 407.149561 175.24481 
L 407.626927 173.666827 
L 407.864843 174.064546 
L 408.575556 178.510704 
L 408.811454 178.86929 
L 409.281755 177.443219 
L 409.516162 178.953077 
L 409.750076 181.330242 
L 409.983499 181.089173 
L 410.216434 182.363161 
L 410.448881 184.790344 
L 410.680844 185.524535 
L 410.912324 185.864921 
L 411.143323 186.601756 
L 411.373843 185.119185 
L 412.062552 193.62174 
L 412.291177 193.136964 
L 412.519333 191.854826 
L 412.747022 193.118187 
L 413.427306 189.113562 
L 413.653146 188.502381 
L 413.878528 189.608672 
L 414.103455 190.107844 
L 414.327927 187.643681 
L 414.775517 187.937973 
L 414.998639 189.636068 
L 415.221314 189.445369 
L 415.443544 187.814658 
L 415.665331 187.381648 
L 415.886676 186.596229 
L 416.107582 184.757489 
L 416.32805 185.513032 
L 416.548082 186.747158 
L 416.76768 189.790745 
L 417.205578 187.184854 
L 417.423882 187.135558 
L 417.85921 183.527162 
L 418.076237 182.782236 
L 418.292841 183.370717 
L 418.509023 187.115797 
L 418.940133 187.412828 
L 419.155063 186.680159 
L 419.369578 188.606823 
L 419.58368 188.3909 
L 419.797371 187.134809 
L 420.010652 183.511758 
L 420.223525 184.42755 
L 420.435991 186.108554 
L 420.648052 185.249119 
L 420.85971 186.657418 
L 421.070966 187.306509 
L 421.281821 190.014831 
L 421.492277 190.984423 
L 422.121267 198.885555 
L 422.954425 190.238912 
L 423.161743 190.017336 
L 423.575223 184.861748 
L 423.781388 185.058331 
L 423.987172 183.713819 
L 424.397601 191.622654 
L 424.602249 192.213928 
L 424.806521 194.493282 
L 425.213943 194.792373 
L 425.619878 193.67536 
L 425.822291 195.179304 
L 426.024337 194.060991 
L 426.42733 195.884005 
L 426.628281 196.459855 
L 426.828869 195.86929 
L 427.029096 197.363325 
L 427.228963 197.295192 
L 427.428472 199.485855 
L 427.627623 200.382197 
L 427.826419 202.229902 
L 428.02486 202.302278 
L 428.420682 198.818662 
L 428.618067 201.041872 
L 428.815101 201.426993 
L 429.011788 198.198287 
L 429.208127 198.189642 
L 429.599768 200.994118 
L 430.184657 198.057764 
L 430.378938 197.690277 
L 430.572881 196.416916 
L 431.345287 186.214024 
L 431.537554 187.375484 
L 431.729488 187.711577 
L 431.921092 189.303412 
L 432.112367 191.842062 
L 432.303313 196.097693 
L 432.874192 199.568891 
L 433.063836 198.276794 
L 433.253157 200.616479 
L 433.442156 200.580745 
L 433.630835 201.152039 
L 433.819194 197.033358 
L 434.007235 197.212426 
L 434.194958 199.260262 
L 434.382366 195.209496 
L 434.569457 196.20922 
L 434.9427 195.339501 
L 435.128852 198.000794 
L 435.314693 198.705498 
L 435.500225 197.778679 
L 435.685447 197.908059 
L 435.870362 197.181716 
L 436.05497 197.310402 
L 436.239271 196.790677 
L 436.423268 195.387219 
L 436.606961 198.691593 
L 436.790351 195.615561 
L 436.973439 197.330512 
L 437.338714 203.929246 
L 437.520903 204.499722 
L 438.246687 198.305583 
L 438.607811 199.497064 
L 438.787934 196.611449 
L 438.967766 197.038008 
L 439.326561 191.769592 
L 439.505525 189.709457 
L 439.684201 191.859083 
L 439.862591 189.130142 
L 440.040695 189.255575 
L 440.218515 188.639471 
L 440.573303 192.826547 
L 441.103373 201.536116 
L 441.279503 203.696891 
L 441.630928 201.423202 
L 441.806225 202.462644 
L 442.155993 205.880248 
L 442.330466 206.17612 
L 442.678591 212.281898 
L 442.852246 209.063478 
L 443.025631 208.348159 
L 443.198745 210.25153 
L 443.716478 207.28575 
L 444.060299 203.488444 
L 444.231812 203.865976 
L 444.403061 204.899323 
L 444.74477 201.631322 
L 444.915231 201.00876 
L 445.085432 203.024441 
L 445.255372 207.456752 
L 445.425054 208.060969 
L 445.594476 206.085411 
L 445.763642 205.750473 
L 445.93255 207.969148 
L 446.101202 208.002995 
L 446.269599 206.58319 
L 446.60563 210.258461 
L 446.773265 209.182859 
L 446.940648 209.333104 
L 447.274661 205.571515 
L 447.441291 205.502161 
L 447.607673 203.517699 
L 447.939691 207.461103 
L 448.10533 206.749474 
L 448.270722 207.526764 
L 448.435868 206.352388 
L 448.765427 208.406407 
L 449.585078 196.286352 
L 450.073984 202.394282 
L 450.236477 202.925698 
L 450.398732 199.415564 
L 450.560751 200.358139 
L 450.722535 204.550592 
L 450.884083 204.434031 
L 451.206478 207.093597 
L 451.367325 206.907353 
L 451.52794 207.715877 
L 451.848477 202.657986 
L 452.168092 202.379433 
L 452.327556 203.166444 
L 452.486792 199.80189 
L 452.804581 204.008372 
L 452.963135 204.217846 
L 453.121464 203.333124 
L 453.279568 204.797189 
L 453.437448 204.442028 
L 453.595104 203.703715 
L 453.752536 204.125365 
L 453.909746 209.679291 
L 454.066734 211.163027 
L 454.223501 210.764925 
L 454.380047 209.793509 
L 454.69248 213.539483 
L 455.15949 216.473349 
L 455.314726 214.858523 
L 455.779136 216.4407 
L 455.933509 212.675461 
L 456.087669 211.825869 
L 456.395348 214.03809 
L 456.54887 214.337252 
L 456.702179 216.01606 
L 456.855278 214.16875 
L 457.008166 214.063987 
L 457.313313 214.109659 
L 457.465573 213.124836 
L 457.76947 209.267565 
L 457.921107 210.474694 
L 458.072538 210.066141 
L 458.223763 212.370846 
L 458.525598 209.316895 
L 458.676209 208.917457 
L 458.826616 208.938738 
L 458.97682 208.368282 
L 459.276621 208.745965 
L 459.575616 206.467501 
L 459.724813 207.30195 
L 459.87381 206.570038 
L 460.022607 203.066017 
L 460.171206 202.871348 
L 460.319606 203.350528 
L 460.467809 204.4067 
L 460.615814 208.027846 
L 460.911236 208.807283 
L 461.058652 210.662584 
L 461.205874 207.671328 
L 461.352902 209.272345 
L 461.499735 209.452401 
L 461.646374 210.76319 
L 461.939075 207.710302 
L 462.231007 210.40781 
L 462.376686 209.83186 
L 462.667473 214.302552 
L 462.957502 212.245423 
L 463.535301 201.674878 
L 463.823079 204.21424 
L 464.110114 210.962096 
L 464.396411 214.647011 
L 464.539283 215.138551 
L 464.681972 214.990725 
L 464.824478 211.046044 
L 464.966802 211.637574 
L 465.108944 214.595634 
L 465.250905 213.275392 
L 465.392684 213.28494 
L 465.816942 217.613691 
L 465.958002 217.68784 
L 466.098884 218.030479 
L 466.660633 210.308389 
L 466.800628 209.999247 
L 466.940447 210.745787 
L 467.080091 209.164555 
L 467.219559 212.895066 
L 467.497972 214.833109 
L 467.636918 213.11842 
L 467.775691 214.663431 
L 467.91429 214.777688 
L 468.329055 203.013015 
L 468.466967 199.99685 
L 468.604709 200.422024 
L 468.879681 198.343071 
L 469.427593 177.422226 
L 469.564151 176.888088 
L 469.700541 177.820521 
L 470.10871 190.236194 
L 470.244435 190.830289 
L 470.379994 186.10029 
L 470.515388 187.372435 
L 470.650617 181.728939 
L 470.920583 182.535477 
L 471.055321 185.578279 
L 471.324308 197.253387 
L 471.458558 198.897126 
L 471.592646 196.963459 
L 473.057044 119.118898 
L 473.18922 120.193628 
L 473.321239 123.958824 
L 473.716359 155.485479 
L 474.11008 125.772383 
L 474.241011 128.927126 
L 474.502412 172.859895 
L 474.632883 179.127407 
L 475.023378 173.982308 
L 475.153239 168.026553 
L 475.282949 172.356621 
L 475.541916 185.154284 
L 475.671173 188.88029 
L 475.800281 185.024713 
L 476.186706 141.921429 
L 476.315217 137.072102 
L 476.44358 139.01167 
L 476.699861 151.594841 
L 477.083179 158.806259 
L 477.465181 144.268422 
L 477.592224 145.837537 
L 477.719122 151.848287 
L 477.972484 167.271713 
L 478.09895 170.181279 
L 478.225271 170.398326 
L 478.351449 171.171889 
L 478.477484 168.26142 
L 478.603377 173.170144 
L 478.854735 200.281199 
L 479.105527 203.538367 
L 479.230711 204.730583 
L 479.355755 202.717782 
L 479.480658 202.760545 
L 479.605421 205.08624 
L 479.730044 204.110982 
L 479.854527 205.377024 
L 479.978872 205.066221 
L 480.103077 202.810983 
L 480.351073 202.995355 
L 480.598517 207.914938 
L 480.722033 204.535746 
L 480.845412 205.058451 
L 481.09176 207.821712 
L 481.21473 206.797505 
L 481.460262 199.878847 
L 482.193623 211.802529 
L 482.437006 208.251329 
L 482.558499 206.696117 
L 482.679858 207.12248 
L 482.922181 212.645426 
L 483.284678 207.885161 
L 483.525688 208.825279 
L 483.645997 208.689918 
L 484.006147 212.743915 
L 484.125938 211.654062 
L 484.2456 212.815057 
L 484.484539 210.423815 
L 484.603817 212.935666 
L 485.079651 207.441973 
L 485.316807 211.182862 
L 485.435195 212.251168 
L 485.789607 207.787847 
L 485.907494 196.296895 
L 486.142893 206.569049 
L 486.260406 206.660634 
L 486.377795 206.265381 
L 486.49506 209.483698 
L 486.72922 207.64926 
L 486.846116 209.449599 
L 486.962889 209.439046 
L 487.312473 213.165318 
L 487.428758 213.440314 
L 487.544921 212.39598 
L 487.660962 215.13719 
L 487.776883 214.379305 
L 487.892684 214.610152 
L 488.239363 219.686741 
L 488.354682 222.117815 
L 488.699927 219.93455 
L 488.81477 220.025556 
L 488.929496 219.128534 
L 489.158592 215.982541 
L 489.272963 216.490197 
L 489.387217 216.327618 
L 489.501353 216.473848 
L 489.729276 213.844838 
L 489.843062 213.606357 
L 489.956732 216.391623 
L 490.183724 212.168086 
L 490.297046 207.95078 
L 490.523346 211.736994 
L 490.636323 213.569206 
L 490.749186 217.856288 
L 491.087088 213.337652 
L 491.311787 213.953577 
L 491.759828 222.603004 
L 491.871557 221.559781 
L 491.983174 221.561053 
L 492.094679 224.179605 
L 492.317354 222.989097 
L 492.428524 223.028062 
L 492.650532 221.630682 
L 492.76137 223.535657 
L 492.872098 223.316339 
L 492.982716 224.484852 
L 493.31391 218.171364 
L 493.53416 220.632158 
L 493.644122 219.733484 
L 493.753975 219.815411 
L 493.863719 220.717634 
L 493.973355 220.337919 
L 494.082884 221.21814 
L 494.192305 223.460377 
L 494.301618 223.406288 
L 494.519922 213.996682 
L 494.737799 221.18875 
L 494.846577 221.69566 
L 495.280631 215.97246 
L 495.38888 215.724859 
L 495.605063 211.456114 
L 496.358411 226.154677 
L 496.57272 220.243946 
L 496.679719 222.044937 
L 496.89341 218.246223 
L 497.000102 219.914888 
L 497.213179 217.542862 
L 497.319564 218.490562 
L 497.425848 221.334139 
L 497.532031 220.839934 
L 497.638112 219.732051 
L 497.744092 221.002178 
L 497.849971 220.844188 
L 497.95575 221.960526 
L 498.061428 220.646762 
L 498.272483 217.598786 
L 498.37786 216.630705 
L 498.483138 210.070497 
L 498.588317 210.691576 
L 498.798375 218.521318 
L 498.903256 217.387811 
L 499.217307 222.904942 
L 499.321793 222.593085 
L 499.426182 223.164138 
L 499.530473 224.604003 
L 499.738761 221.401627 
L 499.842759 220.84348 
L 499.94666 222.672035 
L 500.154172 221.934379 
L 500.361297 218.827386 
L 500.464715 220.291928 
L 500.568037 220.171313 
L 500.774393 222.905973 
L 500.980367 224.94825 
L 501.185961 223.131109 
L 501.288615 223.427813 
L 501.391175 223.208771 
L 501.493641 224.178881 
L 501.596012 222.560486 
L 501.800471 225.94475 
L 501.90256 223.92051 
L 502.004556 224.280744 
L 502.208267 228.297308 
L 502.309982 227.561718 
L 502.411605 228.435104 
L 502.513135 230.909979 
L 502.81717 223.554762 
L 503.019399 225.092998 
L 503.120376 224.760049 
L 503.221262 226.834424 
L 503.322056 226.776579 
L 503.52337 224.55349 
L 503.72432 228.382862 
L 503.924908 229.647754 
L 504.025067 226.746384 
L 504.524511 229.08494 
L 504.624132 225.419037 
L 504.723663 225.940738 
L 504.823105 227.996338 
L 505.120899 225.980924 
L 505.318987 224.357761 
L 505.615458 230.206567 
L 505.714106 229.718732 
L 505.911141 227.724867 
L 506.009528 227.876886 
L 506.107827 229.291893 
L 506.20604 223.506045 
L 506.402206 228.645606 
L 506.50016 226.137599 
L 506.598027 230.635017 
L 506.695808 229.195155 
L 506.793503 225.652003 
L 506.891113 225.789219 
L 506.988637 227.321689 
L 507.086075 226.899128 
L 507.183429 227.653942 
L 507.37788 225.458329 
L 507.474978 227.68292 
L 507.668921 225.091425 
L 507.862526 222.800543 
L 507.959202 225.800913 
L 508.055794 225.328716 
L 508.248728 226.010524 
L 508.537502 232.630602 
L 508.729602 231.078377 
L 508.825528 230.40697 
L 509.11281 233.575257 
L 509.208406 233.354792 
L 509.399353 230.112035 
L 509.589971 231.258847 
L 509.780264 228.871568 
L 509.875289 229.226319 
L 509.970232 231.895962 
L 510.065094 231.764353 
L 510.159876 231.938729 
L 510.254576 232.407672 
L 510.349197 231.726082 
L 510.726875 225.427857 
L 510.915234 228.139495 
L 511.197176 223.807867 
L 511.290998 224.463692 
L 511.478405 226.962225 
L 511.57199 226.687541 
L 511.758925 227.433849 
L 511.852275 229.622296 
L 511.945546 226.327286 
L 512.038739 226.477883 
L 512.131854 226.059703 
L 512.224892 226.458252 
L 512.317851 224.216683 
L 512.503538 226.34104 
L 512.596265 227.207477 
L 512.781487 226.750331 
L 512.966402 230.552244 
L 513.243198 229.106955 
L 513.519308 224.455404 
L 513.703001 220.862628 
L 513.977973 226.477316 
L 514.069479 226.477193 
L 514.343548 233.280719 
L 514.525885 227.607676 
L 514.707925 223.862606 
L 514.798833 223.081122 
L 514.889667 224.032921 
L 515.071112 220.885591 
L 515.252262 219.212644 
L 515.793949 223.977524 
L 515.883974 222.489458 
L 515.973926 224.465605 
L 516.153613 219.55892 
L 516.243348 219.89677 
L 516.4226 222.912334 
L 516.601564 224.372308 
L 516.780241 218.132965 
L 516.869471 219.453171 
L 516.95863 219.148871 
L 517.047718 215.616227 
L 517.136735 216.036047 
L 517.314554 218.682067 
L 517.49209 216.419104 
L 517.580752 220.754784 
L 517.669343 220.571403 
L 517.846313 223.13191 
L 518.199412 216.504047 
L 518.375542 219.637776 
L 518.463503 217.674968 
L 518.639215 220.328946 
L 518.726968 220.498649 
L 519.164694 213.881909 
L 519.426505 208.622919 
L 519.513639 209.114183 
L 519.600704 210.257 
L 519.948286 220.661188 
L 520.035012 220.490045 
L 520.12167 219.310805 
L 520.208261 219.857873 
L 520.46763 223.793039 
L 520.553953 222.878414 
L 520.640208 219.246721 
L 520.898573 223.867983 
L 521.070483 220.624113 
L 521.242128 223.656773 
L 521.413509 221.146461 
L 521.584626 223.503993 
L 521.755481 224.248814 
L 521.840809 225.991075 
L 522.181471 217.851199 
L 522.521093 212.718705 
L 522.690516 217.370225 
L 522.859681 216.615874 
L 523.197242 222.871164 
L 523.281472 222.150794 
L 523.365638 219.330189 
L 523.701669 224.406936 
L 523.785518 224.220369 
L 523.869305 222.198359 
L 523.953028 222.515157 
L 524.287291 223.83703 
L 524.3707 227.435791 
L 524.454047 226.358891 
L 524.537331 226.940456 
L 524.620553 225.881579 
L 524.703713 228.037728 
L 524.78681 227.807425 
L 524.869846 227.338982 
L 525.035731 226.027703 
L 525.118581 226.64901 
L 525.201369 226.510135 
L 525.366761 225.753645 
L 525.531908 227.095994 
L 525.696809 225.023534 
L 525.779168 225.479062 
L 525.861467 223.855777 
L 525.943704 224.842234 
L 526.107997 222.841344 
L 526.190052 222.512046 
L 526.353981 223.660656 
L 526.435856 219.945685 
L 526.51767 221.086907 
L 526.599423 220.527825 
L 526.681117 220.929165 
L 526.925839 215.729865 
L 527.007294 220.821077 
L 527.2513 215.276807 
L 527.332516 215.106279 
L 527.413674 215.576806 
L 527.575811 209.743387 
L 528.302517 225.567796 
L 528.62398 215.336528 
L 528.784364 219.923173 
L 528.864469 216.524483 
L 529.024507 220.109114 
L 529.104439 219.833707 
L 529.264132 225.898479 
L 529.343892 224.986074 
L 529.423596 224.990793 
L 529.503242 223.949843 
L 529.582831 226.594039 
L 529.741839 224.344891 
L 529.821258 225.423194 
L 530.296584 216.936256 
L 530.375608 216.679887 
L 530.533487 209.063428 
L 530.612343 209.698278 
L 530.769887 212.506369 
L 530.848576 211.713734 
L 531.084307 216.393896 
L 531.162774 217.286274 
L 531.241185 216.674863 
L 531.319541 218.671617 
L 531.397841 218.374355 
L 531.476087 218.732387 
L 531.710494 225.675283 
L 531.78852 224.675955 
L 532.100078 227.294897 
L 532.177831 229.741608 
L 532.25553 229.594464 
L 532.565784 226.51333 
L 532.643213 228.829171 
L 532.720587 225.428395 
L 532.797908 225.924642 
L 532.875176 226.666401 
L 532.952389 226.544934 
L 533.029549 225.666431 
L 533.106655 225.817898 
L 533.183709 226.267165 
L 533.260708 228.105566 
L 533.414548 224.083835 
L 533.644909 228.366376 
L 533.72159 228.463603 
L 533.951317 227.071921 
L 534.104205 228.436098 
L 534.333144 225.797288 
L 534.409353 225.691516 
L 534.637665 221.391504 
L 534.713665 220.883086 
L 534.865509 222.442284 
L 534.941354 221.609793 
L 535.092888 224.384902 
L 535.395339 217.814949 
L 535.546256 222.933333 
L 535.696969 220.552958 
L 535.997783 224.324297 
L 536.222861 231.235702 
L 536.297786 230.650719 
L 536.372661 231.496982 
L 536.522259 228.356922 
L 536.596982 228.890239 
L 536.671656 230.475133 
L 536.746279 228.794147 
L 536.820852 229.564314 
L 536.895376 230.126554 
L 537.267245 223.900869 
L 537.34147 224.780564 
L 537.415646 222.68122 
L 537.859663 233.128155 
L 537.933493 231.090326 
L 538.007275 233.189505 
L 538.154692 231.41774 
L 538.228327 231.424765 
L 538.375452 225.622019 
L 538.448941 225.55199 
L 538.522382 227.127337 
L 538.595774 226.332764 
L 538.669118 226.697931 
L 538.815661 230.334058 
L 538.88886 230.258883 
L 539.545494 219.4605 
L 539.763513 223.788279 
L 539.836091 223.632855 
L 539.908622 221.84467 
L 540.125931 225.141021 
L 540.198273 225.16043 
L 540.487172 230.988535 
L 540.631341 236.693451 
L 540.703355 235.931418 
L 540.775323 235.691113 
L 540.847244 233.995086 
L 540.919119 228.80625 
L 540.990947 228.982092 
L 541.206154 231.822437 
L 541.277797 231.697087 
L 541.349394 232.340066 
L 541.49245 229.706633 
L 541.563909 233.739491 
L 541.635323 232.429787 
L 541.70669 230.700896 
L 541.778012 231.283148 
L 541.991703 237.826849 
L 542.062842 235.787216 
L 542.204984 233.494617 
L 542.275987 235.439701 
L 542.630323 227.491579 
L 542.701055 225.349774 
L 542.771742 228.56027 
L 542.842384 226.463311 
L 542.983534 228.867261 
L 543.054042 228.688224 
L 543.124505 229.055664 
L 543.194923 228.257817 
L 543.265297 229.477775 
L 543.335627 227.100497 
L 543.405912 227.805863 
L 543.686609 222.518197 
L 543.756673 226.30782 
L 543.826692 226.05342 
L 543.896668 225.783142 
L 544.036487 228.572469 
L 544.10633 227.796801 
L 544.17613 227.263526 
L 544.315599 228.11511 
L 544.454892 226.812903 
L 544.524474 228.444903 
L 544.594012 227.251725 
L 544.663507 223.29332 
L 544.732958 225.223121 
L 544.802366 224.180174 
L 544.87173 225.705327 
L 544.941052 223.535525 
L 545.01033 224.485728 
L 545.217906 227.742344 
L 545.425095 223.35997 
L 545.494072 223.345333 
L 545.907041 233.777231 
L 545.97572 233.880898 
L 546.044357 233.131287 
L 546.112952 234.269653 
L 546.181504 232.89945 
L 546.250014 229.116053 
L 546.386908 232.372087 
L 546.455291 230.758349 
L 546.523633 231.96929 
L 546.591933 229.778345 
L 546.864713 234.632917 
L 547.000853 233.268828 
L 547.136826 235.683281 
L 547.20475 237.080996 
L 547.543751 231.913402 
L 547.611427 232.210478 
L 547.679062 231.742052 
L 547.746656 232.920433 
L 547.81421 232.442608 
L 547.881722 232.926976 
L 548.016623 230.221534 
L 548.353162 235.567004 
L 548.554598 232.946156 
L 548.621662 234.092022 
L 548.688686 233.228219 
L 548.822612 235.208279 
L 549.0232 232.163399 
L 549.089983 232.519415 
L 549.156725 235.738655 
L 549.223427 235.044411 
L 549.29009 234.54356 
L 549.356712 235.173046 
L 549.423295 233.009968 
L 549.489837 234.15634 
L 549.55634 234.280525 
L 549.689227 232.07 
L 549.755611 234.453907 
L 549.821955 233.85331 
L 549.88826 234.059143 
L 549.954525 235.398245 
L 550.153084 233.632633 
L 550.219191 234.356224 
L 550.28526 233.571512 
L 550.351289 236.883063 
L 550.417279 235.377423 
L 550.48323 232.548714 
L 550.549141 233.324101 
L 550.746643 237.354741 
L 550.812398 236.710235 
L 551.009433 233.148687 
L 551.075034 233.692746 
L 551.337051 229.648743 
L 551.402459 232.509776 
L 551.467828 232.390817 
L 551.533159 231.542175 
L 551.598452 231.659437 
L 551.663706 232.719661 
L 551.85924 229.7189 
L 552.05443 223.153801 
L 552.119418 223.733097 
L 552.443787 231.990963 
L 552.508547 232.433679 
L 552.57327 232.098369 
L 552.831785 237.891133 
L 552.960818 234.337971 
L 553.089701 238.441285 
L 553.154086 238.340672 
L 553.218435 235.768671 
L 553.282746 236.798451 
L 553.539619 233.779686 
L 553.603745 232.836131 
L 553.667834 232.874326 
L 553.795901 234.734093 
L 553.859879 234.656027 
L 553.92382 237.356461 
L 553.987725 235.647832 
L 554.051593 235.35905 
L 554.179219 237.490169 
L 554.242977 236.827868 
L 554.306699 239.444993 
L 554.434032 234.609017 
L 554.497645 238.088097 
L 554.561221 236.807703 
L 554.62476 235.9733 
L 554.751731 237.306516 
L 554.815162 237.274157 
L 554.878556 234.702247 
L 554.941915 235.573357 
L 555.005237 236.061242 
L 555.068524 233.674512 
L 555.131775 234.143113 
L 555.194989 234.559335 
L 555.321311 231.781555 
L 555.447489 233.66607 
L 555.699417 227.10023 
L 555.76231 227.354625 
L 555.825167 222.782751 
L 555.887989 222.848953 
L 555.950775 223.512518 
L 556.138922 233.027076 
L 556.201567 233.127976 
L 556.264176 232.800131 
L 556.326751 234.425398 
L 556.38929 232.725695 
L 556.576697 237.571543 
L 556.70146 234.340331 
L 556.826083 236.691051 
L 556.950567 232.426232 
L 557.074911 233.78092 
L 557.137031 233.242763 
L 557.261168 239.802124 
L 557.323184 237.338375 
L 557.385165 235.390533 
L 557.447113 235.736118 
L 557.509025 235.279079 
L 557.694557 230.57208 
L 557.941451 234.806569 
L 558.00309 234.81708 
L 558.064694 234.25026 
L 558.187799 235.271082 
L 558.249301 234.202843 
L 558.310769 234.963439 
L 558.372203 235.620942 
L 558.556301 231.550622 
L 558.678865 236.250144 
L 558.740096 233.352618 
L 558.801293 234.247152 
L 558.862457 235.430366 
L 558.984683 231.88611 
L 559.045746 232.290266 
L 559.167771 234.807675 
L 559.411421 230.141894 
L 559.654538 237.91185 
L 559.715235 237.721065 
L 559.897125 235.16716 
L 559.957689 237.931212 
L 560.018221 236.091058 
L 560.078719 234.583176 
L 560.139184 235.671262 
L 560.199617 237.639699 
L 560.260016 236.936262 
L 560.320383 236.852564 
L 560.441019 235.043719 
L 560.501288 238.150834 
L 560.561524 238.092014 
L 560.621728 238.459064 
L 560.681899 238.113019 
L 560.742037 236.069636 
L 560.802143 236.163205 
L 560.862216 236.550087 
L 560.922258 236.144788 
L 561.042243 236.849443 
L 561.162098 235.733673 
L 561.162098 235.733673 
" clip-path="url(#pdcd012fe8c)" style="fill: none; stroke: #ff7f0e; stroke-linecap: square"/>
   </g>
   <g id="patch_3">
    <path d="M 48.982813 294.590247 
L 48.982813 22.318125 
" style="fill: none; stroke: #000000; stroke-width: 0.8; stroke-linejoin: miter; stroke-linecap: square"/>
   </g>
   <g id="patch_4">
    <path d="M 561.197812 294.590247 
L 561.197812 22.318125 
" style="fill: none; stroke: #000000; stroke-width: 0.8; stroke-linejoin: miter; stroke-linecap: square"/>
   </g>
   <g id="patch_5">
    <path d="M 48.982813 294.590247 
L 561.197812 294.590247 
" style="fill: none; stroke: #000000; stroke-width: 0.8; stroke-linejoin: miter; stroke-linecap: square"/>
   </g>
   <g id="patch_6">
    <path d="M 48.982813 22.318125 
L 561.197812 22.318125 
" style="fill: none; stroke: #000000; stroke-width: 0.8; stroke-linejoin: miter; stroke-linecap: square"/>
   </g>
   <g id="text_14">
    <!-- Honda Odyssey Blower Setting 4 - Narrow Band SPL (dBA) -->
    <g transform="translate(130.569063 16.318125) scale(0.12 -0.12)">
     <defs>
      <path id="DejaVuSans-6f" d="M 1959 3097 
Q 1497 3097 1228 2736 
Q 959 2375 959 1747 
Q 959 1119 1226 758 
Q 1494 397 1959 397 
Q 2419 397 2687 759 
Q 2956 1122 2956 1747 
Q 2956 2369 2687 2733 
Q 2419 3097 1959 3097 
z
M 1959 3584 
Q 2709 3584 3137 3096 
Q 3566 2609 3566 1747 
Q 3566 888 3137 398 
Q 2709 -91 1959 -91 
Q 1206 -91 779 398 
Q 353 888 353 1747 
Q 353 2609 779 3096 
Q 1206 3584 1959 3584 
z
" transform="scale(0.015625)"/>
      <path id="DejaVuSans-61" d="M 2194 1759 
Q 1497 1759 1228 1600 
Q 959 1441 959 1056 
Q 959 750 1161 570 
Q 1363 391 1709 391 
Q 2188 391 2477 730 
Q 2766 1069 2766 1631 
L 2766 1759 
L 2194 1759 
z
M 3341 1997 
L 3341 0 
L 2766 0 
L 2766 531 
Q 2569 213 2275 61 
Q 1981 -91 1556 -91 
Q 1019 -91 701 211 
Q 384 513 384 1019 
Q 384 1609 779 1909 
Q 1175 2209 1959 2209 
L 2766 2209 
L 2766 2266 
Q 2766 2663 2505 2880 
Q 2244 3097 1772 3097 
Q 1472 3097 1187 3025 
Q 903 2953 641 2809 
L 641 3341 
Q 956 3463 1253 3523 
Q 1550 3584 1831 3584 
Q 2591 3584 2966 3190 
Q 3341 2797 3341 1997 
z
" transform="scale(0.015625)"/>
      <path id="DejaVuSans-4f" d="M 2522 4238 
Q 1834 4238 1429 3725 
Q 1025 3213 1025 2328 
Q 1025 1447 1429 934 
Q 1834 422 2522 422 
Q 3209 422 3611 934 
Q 4013 1447 4013 2328 
Q 4013 3213 3611 3725 
Q 3209 4238 2522 4238 
z
M 2522 4750 
Q 3503 4750 4090 4092 
Q 4678 3434 4678 2328 
Q 4678 1225 4090 567 
Q 3503 -91 2522 -91 
Q 1538 -91 948 565 
Q 359 1222 359 2328 
Q 359 3434 948 4092 
Q 1538 4750 2522 4750 
z
" transform="scale(0.015625)"/>
      <path id="DejaVuSans-73" d="M 2834 3397 
L 2834 2853 
Q 2591 2978 2328 3040 
Q 2066 3103 1784 3103 
Q 1356 3103 1142 2972 
Q 928 2841 928 2578 
Q 928 2378 1081 2264 
Q 1234 2150 1697 2047 
L 1894 2003 
Q 2506 1872 2764 1633 
Q 3022 1394 3022 966 
Q 3022 478 2636 193 
Q 2250 -91 1575 -91 
Q 1294 -91 989 -36 
Q 684 19 347 128 
L 347 722 
Q 666 556 975 473 
Q 1284 391 1588 391 
Q 1994 391 2212 530 
Q 2431 669 2431 922 
Q 2431 1156 2273 1281 
Q 2116 1406 1581 1522 
L 1381 1569 
Q 847 1681 609 1914 
Q 372 2147 372 2553 
Q 372 3047 722 3315 
Q 1072 3584 1716 3584 
Q 2034 3584 2315 3537 
Q 2597 3491 2834 3397 
z
" transform="scale(0.015625)"/>
      <path id="DejaVuSans-6c" d="M 603 4863 
L 1178 4863 
L 1178 0 
L 603 0 
L 603 4863 
z
" transform="scale(0.015625)"/>
      <path id="DejaVuSans-77" d="M 269 3500 
L 844 3500 
L 1563 769 
L 2278 3500 
L 2956 3500 
L 3675 769 
L 4391 3500 
L 4966 3500 
L 4050 0 
L 3372 0 
L 2619 2869 
L 1863 0 
L 1184 0 
L 269 3500 
z
" transform="scale(0.015625)"/>
      <path id="DejaVuSans-74" d="M 1172 4494 
L 1172 3500 
L 2356 3500 
L 2356 3053 
L 1172 3053 
L 1172 1153 
Q 1172 725 1289 603 
Q 1406 481 1766 481 
L 2356 481 
L 2356 0 
L 1766 0 
Q 1100 0 847 248 
Q 594 497 594 1153 
L 594 3053 
L 172 3053 
L 172 3500 
L 594 3500 
L 594 4494 
L 1172 4494 
z
" transform="scale(0.015625)"/>
      <path id="DejaVuSans-69" d="M 603 3500 
L 1178 3500 
L 1178 0 
L 603 0 
L 603 3500 
z
M 603 4863 
L 1178 4863 
L 1178 4134 
L 603 4134 
L 603 4863 
z
" transform="scale(0.015625)"/>
      <path id="DejaVuSans-67" d="M 2906 1791 
Q 2906 2416 2648 2759 
Q 2391 3103 1925 3103 
Q 1463 3103 1205 2759 
Q 947 2416 947 1791 
Q 947 1169 1205 825 
Q 1463 481 1925 481 
Q 2391 481 2648 825 
Q 2906 1169 2906 1791 
z
M 3481 434 
Q 3481 -459 3084 -895 
Q 2688 -1331 1869 -1331 
Q 1566 -1331 1297 -1286 
Q 1028 -1241 775 -1147 
L 775 -588 
Q 1028 -725 1275 -790 
Q 1522 -856 1778 -856 
Q 2344 -856 2625 -561 
Q 2906 -266 2906 331 
L 2906 616 
Q 2728 306 2450 153 
Q 2172 0 1784 0 
Q 1141 0 747 490 
Q 353 981 353 1791 
Q 353 2603 747 3093 
Q 1141 3584 1784 3584 
Q 2172 3584 2450 3431 
Q 2728 3278 2906 2969 
L 2906 3500 
L 3481 3500 
L 3481 434 
z
" transform="scale(0.015625)"/>
      <path id="DejaVuSans-2d" d="M 313 2009 
L 1997 2009 
L 1997 1497 
L 313 1497 
L 313 2009 
z
" transform="scale(0.015625)"/>
      <path id="DejaVuSans-4e" d="M 628 4666 
L 1478 4666 
L 3547 763 
L 3547 4666 
L 4159 4666 
L 4159 0 
L 3309 0 
L 1241 3903 
L 1241 0 
L 628 0 
L 628 4666 
z
" transform="scale(0.015625)"/>
     </defs>
     <use xlink:href="#DejaVuSans-48"/>
     <use xlink:href="#DejaVuSans-6f" transform="translate(75.195312 0)"/>
     <use xlink:href="#DejaVuSans-6e" transform="translate(136.376953 0)"/>
     <use xlink:href="#DejaVuSans-64" transform="translate(199.755859 0)"/>
     <use xlink:href="#DejaVuSans-61" transform="translate(263.232422 0)"/>
     <use xlink:href="#DejaVuSans-20" transform="translate(324.511719 0)"/>
     <use xlink:href="#DejaVuSans-4f" transform="translate(356.298828 0)"/>
     <use xlink:href="#DejaVuSans-64" transform="translate(435.009766 0)"/>
     <use xlink:href="#DejaVuSans-79" transform="translate(498.486328 0)"/>
     <use xlink:href="#DejaVuSans-73" transform="translate(557.666016 0)"/>
     <use xlink:href="#DejaVuSans-73" transform="translate(609.765625 0)"/>
     <use xlink:href="#DejaVuSans-65" transform="translate(661.865234 0)"/>
     <use xlink:href="#DejaVuSans-79" transform="translate(723.388672 0)"/>
     <use xlink:href="#DejaVuSans-20" transform="translate(782.568359 0)"/>
     <use xlink:href="#DejaVuSans-42" transform="translate(814.355469 0)"/>
     <use xlink:href="#DejaVuSans-6c" transform="translate(882.958984 0)"/>
     <use xlink:href="#DejaVuSans-6f" transform="translate(910.742188 0)"/>
     <use xlink:href="#DejaVuSans-77" transform="translate(971.923828 0)"/>
     <use xlink:href="#DejaVuSans-65" transform="translate(1053.710938 0)"/>
     <use xlink:href="#DejaVuSans-72" transform="translate(1115.234375 0)"/>
     <use xlink:href="#DejaVuSans-20" transform="translate(1156.347656 0)"/>
     <use xlink:href="#DejaVuSans-53" transform="translate(1188.134766 0)"/>
     <use xlink:href="#DejaVuSans-65" transform="translate(1251.611328 0)"/>
     <use xlink:href="#DejaVuSans-74" transform="translate(1313.134766 0)"/>
     <use xlink:href="#DejaVuSans-74" transform="translate(1352.34375 0)"/>
     <use xlink:href="#DejaVuSans-69" transform="translate(1391.552734 0)"/>
     <use xlink:href="#DejaVuSans-6e" transform="translate(1419.335938 0)"/>
     <use xlink:href="#DejaVuSans-67" transform="translate(1482.714844 0)"/>
     <use xlink:href="#DejaVuSans-20" transform="translate(1546.191406 0)"/>
     <use xlink:href="#DejaVuSans-34" transform="translate(1577.978516 0)"/>
     <use xlink:href="#DejaVuSans-20" transform="translate(1641.601562 0)"/>
     <use xlink:href="#DejaVuSans-2d" transform="translate(1673.388672 0)"/>
     <use xlink:href="#DejaVuSans-20" transform="translate(1709.472656 0)"/>
     <use xlink:href="#DejaVuSans-4e" transform="translate(1741.259766 0)"/>
     <use xlink:href="#DejaVuSans-61" transform="translate(1816.064453 0)"/>
     <use xlink:href="#DejaVuSans-72" transform="translate(1877.34375 0)"/>
     <use xlink:href="#DejaVuSans-72" transform="translate(1916.707031 0)"/>
     <use xlink:href="#DejaVuSans-6f" transform="translate(1955.570312 0)"/>
     <use xlink:href="#DejaVuSans-77" transform="translate(2016.751953 0)"/>
     <use xlink:href="#DejaVuSans-20" transform="translate(2098.539062 0)"/>
     <use xlink:href="#DejaVuSans-42" transform="translate(2130.326172 0)"/>
     <use xlink:href="#DejaVuSans-61" transform="translate(2198.929688 0)"/>
     <use xlink:href="#DejaVuSans-6e" transform="translate(2260.208984 0)"/>
     <use xlink:href="#DejaVuSans-64" transform="translate(2323.587891 0)"/>
     <use xlink:href="#DejaVuSans-20" transform="translate(2387.064453 0)"/>
     <use xlink:href="#DejaVuSans-53" transform="translate(2418.851562 0)"/>
     <use xlink:href="#DejaVuSans-50" transform="translate(2482.328125 0)"/>
     <use xlink:href="#DejaVuSans-4c" transform="translate(2542.630859 0)"/>
     <use xlink:href="#DejaVuSans-20" transform="translate(2598.34375 0)"/>
     <use xlink:href="#DejaVuSans-28" transform="translate(2630.130859 0)"/>
     <use xlink:href="#DejaVuSans-64" transform="translate(2669.144531 0)"/>
     <use xlink:href="#DejaVuSans-42" transform="translate(2732.621094 0)"/>
     <use xlink:href="#DejaVuSans-41" transform="translate(2801.224609 0)"/>
     <use xlink:href="#DejaVuSans-29" transform="translate(2869.632812 0)"/>
    </g>
   </g>
  </g>
 </g>
 <defs>
  <clipPath id="pdcd012fe8c">
   <rect x="48.982813" y="22.318125" width="512.215" height="272.272122"/>
  </clipPath>
 </defs>
</svg>
