<?xml version="1.0" encoding="utf-8" standalone="no"?>
<!DOCTYPE svg PUBLIC "-//W3C//DTD SVG 1.1//EN"
  "http://www.w3.org/Graphics/SVG/1.1/DTD/svg11.dtd">
<svg xmlns:xlink="http://www.w3.org/1999/xlink" width="568.397812pt" height="351.806674pt" viewBox="0 0 568.397812 351.806674" xmlns="http://www.w3.org/2000/svg" version="1.1">
 <metadata>
  <rdf:RDF xmlns:dc="http://purl.org/dc/elements/1.1/" xmlns:cc="http://creativecommons.org/ns#" xmlns:rdf="http://www.w3.org/1999/02/22-rdf-syntax-ns#">
   <cc:Work>
    <dc:type rdf:resource="http://purl.org/dc/dcmitype/StillImage"/>
    <dc:date>2025-04-24T21:37:18.525625</dc:date>
    <dc:format>image/svg+xml</dc:format>
    <dc:creator>
     <cc:Agent>
      <dc:title>Matplotlib v3.10.0, https://matplotlib.org/</dc:title>
     </cc:Agent>
    </dc:creator>
   </cc:Work>
  </rdf:RDF>
 </metadata>
 <defs>
  <style type="text/css">*{stroke-linejoin: round; stroke-linecap: butt}</style>
 </defs>
 <g id="figure_1">
  <g id="patch_1">
   <path d="M 0 351.806674 
L 568.397812 351.806674 
L 568.397812 0 
L 0 0 
z
" style="fill: #ffffff"/>
  </g>
  <g id="axes_1">
   <g id="patch_2">
    <path d="M 48.982813 294.590247 
L 561.197812 294.590247 
L 561.197812 22.318125 
L 48.982813 22.318125 
z
" style="fill: #ffffff"/>
   </g>
   <g id="matplotlib.axis_1">
    <g id="xtick_1">
     <g id="line2d_1">
      <path d="M 48.982813 294.590247 
L 48.982813 22.318125 
" clip-path="url(#pc35dc75555)" style="fill: none; stroke-dasharray: 1.85,0.8; stroke-dashoffset: 0; stroke: #b0b0b0; stroke-width: 0.5"/>
     </g>
     <g id="line2d_2">
      <defs>
       <path id="m63e1935adb" d="M 0 0 
L 0 3.5 
" style="stroke: #000000; stroke-width: 0.8"/>
      </defs>
      <g>
       <use xlink:href="#m63e1935adb" x="48.982813" y="294.590247" style="stroke: #000000; stroke-width: 0.8"/>
      </g>
     </g>
     <g id="text_1">
      <!-- 100 -->
      <g transform="translate(34.015351 320.460054) rotate(-45) scale(0.1 -0.1)">
       <defs>
        <path id="DejaVuSans-31" d="M 794 531 
L 1825 531 
L 1825 4091 
L 703 3866 
L 703 4441 
L 1819 4666 
L 2450 4666 
L 2450 531 
L 3481 531 
L 3481 0 
L 794 0 
L 794 531 
z
" transform="scale(0.015625)"/>
        <path id="DejaVuSans-30" d="M 2034 4250 
Q 1547 4250 1301 3770 
Q 1056 3291 1056 2328 
Q 1056 1369 1301 889 
Q 1547 409 2034 409 
Q 2525 409 2770 889 
Q 3016 1369 3016 2328 
Q 3016 3291 2770 3770 
Q 2525 4250 2034 4250 
z
M 2034 4750 
Q 2819 4750 3233 4129 
Q 3647 3509 3647 2328 
Q 3647 1150 3233 529 
Q 2819 -91 2034 -91 
Q 1250 -91 836 529 
Q 422 1150 422 2328 
Q 422 3509 836 4129 
Q 1250 4750 2034 4750 
z
" transform="scale(0.015625)"/>
       </defs>
       <use xlink:href="#DejaVuSans-31"/>
       <use xlink:href="#DejaVuSans-30" transform="translate(63.623047 0)"/>
       <use xlink:href="#DejaVuSans-30" transform="translate(127.246094 0)"/>
      </g>
     </g>
    </g>
    <g id="xtick_2">
     <g id="line2d_3">
      <path d="M 305.090312 294.590247 
L 305.090312 22.318125 
" clip-path="url(#pc35dc75555)" style="fill: none; stroke-dasharray: 1.85,0.8; stroke-dashoffset: 0; stroke: #b0b0b0; stroke-width: 0.5"/>
     </g>
     <g id="line2d_4">
      <g>
       <use xlink:href="#m63e1935adb" x="305.090312" y="294.590247" style="stroke: #000000; stroke-width: 0.8"/>
      </g>
     </g>
     <g id="text_2">
      <!-- 1000 -->
      <g transform="translate(285.623884 324.959021) rotate(-45) scale(0.1 -0.1)">
       <use xlink:href="#DejaVuSans-31"/>
       <use xlink:href="#DejaVuSans-30" transform="translate(63.623047 0)"/>
       <use xlink:href="#DejaVuSans-30" transform="translate(127.246094 0)"/>
       <use xlink:href="#DejaVuSans-30" transform="translate(190.869141 0)"/>
      </g>
     </g>
    </g>
    <g id="xtick_3">
     <g id="line2d_5">
      <path d="M 561.197812 294.590247 
L 561.197812 22.318125 
" clip-path="url(#pc35dc75555)" style="fill: none; stroke-dasharray: 1.85,0.8; stroke-dashoffset: 0; stroke: #b0b0b0; stroke-width: 0.5"/>
     </g>
     <g id="line2d_6">
      <g>
       <use xlink:href="#m63e1935adb" x="561.197812" y="294.590247" style="stroke: #000000; stroke-width: 0.8"/>
      </g>
     </g>
     <g id="text_3">
      <!-- 10000 -->
      <g transform="translate(537.232417 329.457988) rotate(-45) scale(0.1 -0.1)">
       <use xlink:href="#DejaVuSans-31"/>
       <use xlink:href="#DejaVuSans-30" transform="translate(63.623047 0)"/>
       <use xlink:href="#DejaVuSans-30" transform="translate(127.246094 0)"/>
       <use xlink:href="#DejaVuSans-30" transform="translate(190.869141 0)"/>
       <use xlink:href="#DejaVuSans-30" transform="translate(254.492188 0)"/>
      </g>
     </g>
    </g>
    <g id="xtick_4">
     <g id="line2d_7">
      <path d="M 126.078852 294.590247 
L 126.078852 22.318125 
" clip-path="url(#pc35dc75555)" style="fill: none; stroke-dasharray: 1.85,0.8; stroke-dashoffset: 0; stroke: #b0b0b0; stroke-width: 0.5"/>
     </g>
     <g id="line2d_8">
      <defs>
       <path id="m1a32327ed9" d="M 0 0 
L 0 2 
" style="stroke: #000000; stroke-width: 0.6"/>
      </defs>
      <g>
       <use xlink:href="#m1a32327ed9" x="126.078852" y="294.590247" style="stroke: #000000; stroke-width: 0.6"/>
      </g>
     </g>
    </g>
    <g id="xtick_5">
     <g id="line2d_9">
      <path d="M 171.177144 294.590247 
L 171.177144 22.318125 
" clip-path="url(#pc35dc75555)" style="fill: none; stroke-dasharray: 1.85,0.8; stroke-dashoffset: 0; stroke: #b0b0b0; stroke-width: 0.5"/>
     </g>
     <g id="line2d_10">
      <g>
       <use xlink:href="#m1a32327ed9" x="171.177144" y="294.590247" style="stroke: #000000; stroke-width: 0.6"/>
      </g>
     </g>
    </g>
    <g id="xtick_6">
     <g id="line2d_11">
      <path d="M 203.174892 294.590247 
L 203.174892 22.318125 
" clip-path="url(#pc35dc75555)" style="fill: none; stroke-dasharray: 1.85,0.8; stroke-dashoffset: 0; stroke: #b0b0b0; stroke-width: 0.5"/>
     </g>
     <g id="line2d_12">
      <g>
       <use xlink:href="#m1a32327ed9" x="203.174892" y="294.590247" style="stroke: #000000; stroke-width: 0.6"/>
      </g>
     </g>
    </g>
    <g id="xtick_7">
     <g id="line2d_13">
      <path d="M 227.994273 294.590247 
L 227.994273 22.318125 
" clip-path="url(#pc35dc75555)" style="fill: none; stroke-dasharray: 1.85,0.8; stroke-dashoffset: 0; stroke: #b0b0b0; stroke-width: 0.5"/>
     </g>
     <g id="line2d_14">
      <g>
       <use xlink:href="#m1a32327ed9" x="227.994273" y="294.590247" style="stroke: #000000; stroke-width: 0.6"/>
      </g>
     </g>
    </g>
    <g id="xtick_8">
     <g id="line2d_15">
      <path d="M 248.273184 294.590247 
L 248.273184 22.318125 
" clip-path="url(#pc35dc75555)" style="fill: none; stroke-dasharray: 1.85,0.8; stroke-dashoffset: 0; stroke: #b0b0b0; stroke-width: 0.5"/>
     </g>
     <g id="line2d_16">
      <g>
       <use xlink:href="#m1a32327ed9" x="248.273184" y="294.590247" style="stroke: #000000; stroke-width: 0.6"/>
      </g>
     </g>
    </g>
    <g id="xtick_9">
     <g id="line2d_17">
      <path d="M 265.418759 294.590247 
L 265.418759 22.318125 
" clip-path="url(#pc35dc75555)" style="fill: none; stroke-dasharray: 1.85,0.8; stroke-dashoffset: 0; stroke: #b0b0b0; stroke-width: 0.5"/>
     </g>
     <g id="line2d_18">
      <g>
       <use xlink:href="#m1a32327ed9" x="265.418759" y="294.590247" style="stroke: #000000; stroke-width: 0.6"/>
      </g>
     </g>
    </g>
    <g id="xtick_10">
     <g id="line2d_19">
      <path d="M 280.270931 294.590247 
L 280.270931 22.318125 
" clip-path="url(#pc35dc75555)" style="fill: none; stroke-dasharray: 1.85,0.8; stroke-dashoffset: 0; stroke: #b0b0b0; stroke-width: 0.5"/>
     </g>
     <g id="line2d_20">
      <g>
       <use xlink:href="#m1a32327ed9" x="280.270931" y="294.590247" style="stroke: #000000; stroke-width: 0.6"/>
      </g>
     </g>
    </g>
    <g id="xtick_11">
     <g id="line2d_21">
      <path d="M 293.371476 294.590247 
L 293.371476 22.318125 
" clip-path="url(#pc35dc75555)" style="fill: none; stroke-dasharray: 1.85,0.8; stroke-dashoffset: 0; stroke: #b0b0b0; stroke-width: 0.5"/>
     </g>
     <g id="line2d_22">
      <g>
       <use xlink:href="#m1a32327ed9" x="293.371476" y="294.590247" style="stroke: #000000; stroke-width: 0.6"/>
      </g>
     </g>
    </g>
    <g id="xtick_12">
     <g id="line2d_23">
      <path d="M 382.186352 294.590247 
L 382.186352 22.318125 
" clip-path="url(#pc35dc75555)" style="fill: none; stroke-dasharray: 1.85,0.8; stroke-dashoffset: 0; stroke: #b0b0b0; stroke-width: 0.5"/>
     </g>
     <g id="line2d_24">
      <g>
       <use xlink:href="#m1a32327ed9" x="382.186352" y="294.590247" style="stroke: #000000; stroke-width: 0.6"/>
      </g>
     </g>
    </g>
    <g id="xtick_13">
     <g id="line2d_25">
      <path d="M 427.284644 294.590247 
L 427.284644 22.318125 
" clip-path="url(#pc35dc75555)" style="fill: none; stroke-dasharray: 1.85,0.8; stroke-dashoffset: 0; stroke: #b0b0b0; stroke-width: 0.5"/>
     </g>
     <g id="line2d_26">
      <g>
       <use xlink:href="#m1a32327ed9" x="427.284644" y="294.590247" style="stroke: #000000; stroke-width: 0.6"/>
      </g>
     </g>
    </g>
    <g id="xtick_14">
     <g id="line2d_27">
      <path d="M 459.282392 294.590247 
L 459.282392 22.318125 
" clip-path="url(#pc35dc75555)" style="fill: none; stroke-dasharray: 1.85,0.8; stroke-dashoffset: 0; stroke: #b0b0b0; stroke-width: 0.5"/>
     </g>
     <g id="line2d_28">
      <g>
       <use xlink:href="#m1a32327ed9" x="459.282392" y="294.590247" style="stroke: #000000; stroke-width: 0.6"/>
      </g>
     </g>
    </g>
    <g id="xtick_15">
     <g id="line2d_29">
      <path d="M 484.101773 294.590247 
L 484.101773 22.318125 
" clip-path="url(#pc35dc75555)" style="fill: none; stroke-dasharray: 1.85,0.8; stroke-dashoffset: 0; stroke: #b0b0b0; stroke-width: 0.5"/>
     </g>
     <g id="line2d_30">
      <g>
       <use xlink:href="#m1a32327ed9" x="484.101773" y="294.590247" style="stroke: #000000; stroke-width: 0.6"/>
      </g>
     </g>
    </g>
    <g id="xtick_16">
     <g id="line2d_31">
      <path d="M 504.380684 294.590247 
L 504.380684 22.318125 
" clip-path="url(#pc35dc75555)" style="fill: none; stroke-dasharray: 1.85,0.8; stroke-dashoffset: 0; stroke: #b0b0b0; stroke-width: 0.5"/>
     </g>
     <g id="line2d_32">
      <g>
       <use xlink:href="#m1a32327ed9" x="504.380684" y="294.590247" style="stroke: #000000; stroke-width: 0.6"/>
      </g>
     </g>
    </g>
    <g id="xtick_17">
     <g id="line2d_33">
      <path d="M 521.526259 294.590247 
L 521.526259 22.318125 
" clip-path="url(#pc35dc75555)" style="fill: none; stroke-dasharray: 1.85,0.8; stroke-dashoffset: 0; stroke: #b0b0b0; stroke-width: 0.5"/>
     </g>
     <g id="line2d_34">
      <g>
       <use xlink:href="#m1a32327ed9" x="521.526259" y="294.590247" style="stroke: #000000; stroke-width: 0.6"/>
      </g>
     </g>
    </g>
    <g id="xtick_18">
     <g id="line2d_35">
      <path d="M 536.378431 294.590247 
L 536.378431 22.318125 
" clip-path="url(#pc35dc75555)" style="fill: none; stroke-dasharray: 1.85,0.8; stroke-dashoffset: 0; stroke: #b0b0b0; stroke-width: 0.5"/>
     </g>
     <g id="line2d_36">
      <g>
       <use xlink:href="#m1a32327ed9" x="536.378431" y="294.590247" style="stroke: #000000; stroke-width: 0.6"/>
      </g>
     </g>
    </g>
    <g id="xtick_19">
     <g id="line2d_37">
      <path d="M 549.478976 294.590247 
L 549.478976 22.318125 
" clip-path="url(#pc35dc75555)" style="fill: none; stroke-dasharray: 1.85,0.8; stroke-dashoffset: 0; stroke: #b0b0b0; stroke-width: 0.5"/>
     </g>
     <g id="line2d_38">
      <g>
       <use xlink:href="#m1a32327ed9" x="549.478976" y="294.590247" style="stroke: #000000; stroke-width: 0.6"/>
      </g>
     </g>
    </g>
    <g id="text_4">
     <!-- Frequency (Hz) -->
     <g transform="translate(267.385625 342.526987) scale(0.1 -0.1)">
      <defs>
       <path id="DejaVuSans-46" d="M 628 4666 
L 3309 4666 
L 3309 4134 
L 1259 4134 
L 1259 2759 
L 3109 2759 
L 3109 2228 
L 1259 2228 
L 1259 0 
L 628 0 
L 628 4666 
z
" transform="scale(0.015625)"/>
       <path id="DejaVuSans-72" d="M 2631 2963 
Q 2534 3019 2420 3045 
Q 2306 3072 2169 3072 
Q 1681 3072 1420 2755 
Q 1159 2438 1159 1844 
L 1159 0 
L 581 0 
L 581 3500 
L 1159 3500 
L 1159 2956 
Q 1341 3275 1631 3429 
Q 1922 3584 2338 3584 
Q 2397 3584 2469 3576 
Q 2541 3569 2628 3553 
L 2631 2963 
z
" transform="scale(0.015625)"/>
       <path id="DejaVuSans-65" d="M 3597 1894 
L 3597 1613 
L 953 1613 
Q 991 1019 1311 708 
Q 1631 397 2203 397 
Q 2534 397 2845 478 
Q 3156 559 3463 722 
L 3463 178 
Q 3153 47 2828 -22 
Q 2503 -91 2169 -91 
Q 1331 -91 842 396 
Q 353 884 353 1716 
Q 353 2575 817 3079 
Q 1281 3584 2069 3584 
Q 2775 3584 3186 3129 
Q 3597 2675 3597 1894 
z
M 3022 2063 
Q 3016 2534 2758 2815 
Q 2500 3097 2075 3097 
Q 1594 3097 1305 2825 
Q 1016 2553 972 2059 
L 3022 2063 
z
" transform="scale(0.015625)"/>
       <path id="DejaVuSans-71" d="M 947 1747 
Q 947 1113 1208 752 
Q 1469 391 1925 391 
Q 2381 391 2643 752 
Q 2906 1113 2906 1747 
Q 2906 2381 2643 2742 
Q 2381 3103 1925 3103 
Q 1469 3103 1208 2742 
Q 947 2381 947 1747 
z
M 2906 525 
Q 2725 213 2448 61 
Q 2172 -91 1784 -91 
Q 1150 -91 751 415 
Q 353 922 353 1747 
Q 353 2572 751 3078 
Q 1150 3584 1784 3584 
Q 2172 3584 2448 3432 
Q 2725 3281 2906 2969 
L 2906 3500 
L 3481 3500 
L 3481 -1331 
L 2906 -1331 
L 2906 525 
z
" transform="scale(0.015625)"/>
       <path id="DejaVuSans-75" d="M 544 1381 
L 544 3500 
L 1119 3500 
L 1119 1403 
Q 1119 906 1312 657 
Q 1506 409 1894 409 
Q 2359 409 2629 706 
Q 2900 1003 2900 1516 
L 2900 3500 
L 3475 3500 
L 3475 0 
L 2900 0 
L 2900 538 
Q 2691 219 2414 64 
Q 2138 -91 1772 -91 
Q 1169 -91 856 284 
Q 544 659 544 1381 
z
M 1991 3584 
L 1991 3584 
z
" transform="scale(0.015625)"/>
       <path id="DejaVuSans-6e" d="M 3513 2113 
L 3513 0 
L 2938 0 
L 2938 2094 
Q 2938 2591 2744 2837 
Q 2550 3084 2163 3084 
Q 1697 3084 1428 2787 
Q 1159 2491 1159 1978 
L 1159 0 
L 581 0 
L 581 3500 
L 1159 3500 
L 1159 2956 
Q 1366 3272 1645 3428 
Q 1925 3584 2291 3584 
Q 2894 3584 3203 3211 
Q 3513 2838 3513 2113 
z
" transform="scale(0.015625)"/>
       <path id="DejaVuSans-63" d="M 3122 3366 
L 3122 2828 
Q 2878 2963 2633 3030 
Q 2388 3097 2138 3097 
Q 1578 3097 1268 2742 
Q 959 2388 959 1747 
Q 959 1106 1268 751 
Q 1578 397 2138 397 
Q 2388 397 2633 464 
Q 2878 531 3122 666 
L 3122 134 
Q 2881 22 2623 -34 
Q 2366 -91 2075 -91 
Q 1284 -91 818 406 
Q 353 903 353 1747 
Q 353 2603 823 3093 
Q 1294 3584 2113 3584 
Q 2378 3584 2631 3529 
Q 2884 3475 3122 3366 
z
" transform="scale(0.015625)"/>
       <path id="DejaVuSans-79" d="M 2059 -325 
Q 1816 -950 1584 -1140 
Q 1353 -1331 966 -1331 
L 506 -1331 
L 506 -850 
L 844 -850 
Q 1081 -850 1212 -737 
Q 1344 -625 1503 -206 
L 1606 56 
L 191 3500 
L 800 3500 
L 1894 763 
L 2988 3500 
L 3597 3500 
L 2059 -325 
z
" transform="scale(0.015625)"/>
       <path id="DejaVuSans-20" transform="scale(0.015625)"/>
       <path id="DejaVuSans-28" d="M 1984 4856 
Q 1566 4138 1362 3434 
Q 1159 2731 1159 2009 
Q 1159 1288 1364 580 
Q 1569 -128 1984 -844 
L 1484 -844 
Q 1016 -109 783 600 
Q 550 1309 550 2009 
Q 550 2706 781 3412 
Q 1013 4119 1484 4856 
L 1984 4856 
z
" transform="scale(0.015625)"/>
       <path id="DejaVuSans-48" d="M 628 4666 
L 1259 4666 
L 1259 2753 
L 3553 2753 
L 3553 4666 
L 4184 4666 
L 4184 0 
L 3553 0 
L 3553 2222 
L 1259 2222 
L 1259 0 
L 628 0 
L 628 4666 
z
" transform="scale(0.015625)"/>
       <path id="DejaVuSans-7a" d="M 353 3500 
L 3084 3500 
L 3084 2975 
L 922 459 
L 3084 459 
L 3084 0 
L 275 0 
L 275 525 
L 2438 3041 
L 353 3041 
L 353 3500 
z
" transform="scale(0.015625)"/>
       <path id="DejaVuSans-29" d="M 513 4856 
L 1013 4856 
Q 1481 4119 1714 3412 
Q 1947 2706 1947 2009 
Q 1947 1309 1714 600 
Q 1481 -109 1013 -844 
L 513 -844 
Q 928 -128 1133 580 
Q 1338 1288 1338 2009 
Q 1338 2731 1133 3434 
Q 928 4138 513 4856 
z
" transform="scale(0.015625)"/>
      </defs>
      <use xlink:href="#DejaVuSans-46"/>
      <use xlink:href="#DejaVuSans-72" transform="translate(50.269531 0)"/>
      <use xlink:href="#DejaVuSans-65" transform="translate(89.132812 0)"/>
      <use xlink:href="#DejaVuSans-71" transform="translate(150.65625 0)"/>
      <use xlink:href="#DejaVuSans-75" transform="translate(214.132812 0)"/>
      <use xlink:href="#DejaVuSans-65" transform="translate(277.511719 0)"/>
      <use xlink:href="#DejaVuSans-6e" transform="translate(339.035156 0)"/>
      <use xlink:href="#DejaVuSans-63" transform="translate(402.414062 0)"/>
      <use xlink:href="#DejaVuSans-79" transform="translate(457.394531 0)"/>
      <use xlink:href="#DejaVuSans-20" transform="translate(516.574219 0)"/>
      <use xlink:href="#DejaVuSans-28" transform="translate(548.361328 0)"/>
      <use xlink:href="#DejaVuSans-48" transform="translate(587.375 0)"/>
      <use xlink:href="#DejaVuSans-7a" transform="translate(662.570312 0)"/>
      <use xlink:href="#DejaVuSans-29" transform="translate(715.060547 0)"/>
     </g>
    </g>
   </g>
   <g id="matplotlib.axis_2">
    <g id="ytick_1">
     <g id="line2d_39">
      <path d="M 48.982813 294.590247 
L 561.197812 294.590247 
" clip-path="url(#pc35dc75555)" style="fill: none; stroke-dasharray: 1.85,0.8; stroke-dashoffset: 0; stroke: #b0b0b0; stroke-width: 0.5"/>
     </g>
     <g id="line2d_40">
      <defs>
       <path id="m10fb1fb7d1" d="M 0 0 
L -3.5 0 
" style="stroke: #000000; stroke-width: 0.8"/>
      </defs>
      <g>
       <use xlink:href="#m10fb1fb7d1" x="48.982813" y="294.590247" style="stroke: #000000; stroke-width: 0.8"/>
      </g>
     </g>
     <g id="text_5">
      <!-- −20 -->
      <g transform="translate(20.878125 298.389466) scale(0.1 -0.1)">
       <defs>
        <path id="DejaVuSans-2212" d="M 678 2272 
L 4684 2272 
L 4684 1741 
L 678 1741 
L 678 2272 
z
" transform="scale(0.015625)"/>
        <path id="DejaVuSans-32" d="M 1228 531 
L 3431 531 
L 3431 0 
L 469 0 
L 469 531 
Q 828 903 1448 1529 
Q 2069 2156 2228 2338 
Q 2531 2678 2651 2914 
Q 2772 3150 2772 3378 
Q 2772 3750 2511 3984 
Q 2250 4219 1831 4219 
Q 1534 4219 1204 4116 
Q 875 4013 500 3803 
L 500 4441 
Q 881 4594 1212 4672 
Q 1544 4750 1819 4750 
Q 2544 4750 2975 4387 
Q 3406 4025 3406 3419 
Q 3406 3131 3298 2873 
Q 3191 2616 2906 2266 
Q 2828 2175 2409 1742 
Q 1991 1309 1228 531 
z
" transform="scale(0.015625)"/>
       </defs>
       <use xlink:href="#DejaVuSans-2212"/>
       <use xlink:href="#DejaVuSans-32" transform="translate(83.789062 0)"/>
       <use xlink:href="#DejaVuSans-30" transform="translate(147.412109 0)"/>
      </g>
     </g>
    </g>
    <g id="ytick_2">
     <g id="line2d_41">
      <path d="M 48.982813 255.694229 
L 561.197812 255.694229 
" clip-path="url(#pc35dc75555)" style="fill: none; stroke-dasharray: 1.85,0.8; stroke-dashoffset: 0; stroke: #b0b0b0; stroke-width: 0.5"/>
     </g>
     <g id="line2d_42">
      <g>
       <use xlink:href="#m10fb1fb7d1" x="48.982813" y="255.694229" style="stroke: #000000; stroke-width: 0.8"/>
      </g>
     </g>
     <g id="text_6">
      <!-- −10 -->
      <g transform="translate(20.878125 259.493448) scale(0.1 -0.1)">
       <use xlink:href="#DejaVuSans-2212"/>
       <use xlink:href="#DejaVuSans-31" transform="translate(83.789062 0)"/>
       <use xlink:href="#DejaVuSans-30" transform="translate(147.412109 0)"/>
      </g>
     </g>
    </g>
    <g id="ytick_3">
     <g id="line2d_43">
      <path d="M 48.982813 216.798212 
L 561.197812 216.798212 
" clip-path="url(#pc35dc75555)" style="fill: none; stroke-dasharray: 1.85,0.8; stroke-dashoffset: 0; stroke: #b0b0b0; stroke-width: 0.5"/>
     </g>
     <g id="line2d_44">
      <g>
       <use xlink:href="#m10fb1fb7d1" x="48.982813" y="216.798212" style="stroke: #000000; stroke-width: 0.8"/>
      </g>
     </g>
     <g id="text_7">
      <!-- 0 -->
      <g transform="translate(35.620313 220.597431) scale(0.1 -0.1)">
       <use xlink:href="#DejaVuSans-30"/>
      </g>
     </g>
    </g>
    <g id="ytick_4">
     <g id="line2d_45">
      <path d="M 48.982813 177.902195 
L 561.197812 177.902195 
" clip-path="url(#pc35dc75555)" style="fill: none; stroke-dasharray: 1.85,0.8; stroke-dashoffset: 0; stroke: #b0b0b0; stroke-width: 0.5"/>
     </g>
     <g id="line2d_46">
      <g>
       <use xlink:href="#m10fb1fb7d1" x="48.982813" y="177.902195" style="stroke: #000000; stroke-width: 0.8"/>
      </g>
     </g>
     <g id="text_8">
      <!-- 10 -->
      <g transform="translate(29.257813 181.701413) scale(0.1 -0.1)">
       <use xlink:href="#DejaVuSans-31"/>
       <use xlink:href="#DejaVuSans-30" transform="translate(63.623047 0)"/>
      </g>
     </g>
    </g>
    <g id="ytick_5">
     <g id="line2d_47">
      <path d="M 48.982813 139.006177 
L 561.197812 139.006177 
" clip-path="url(#pc35dc75555)" style="fill: none; stroke-dasharray: 1.85,0.8; stroke-dashoffset: 0; stroke: #b0b0b0; stroke-width: 0.5"/>
     </g>
     <g id="line2d_48">
      <g>
       <use xlink:href="#m10fb1fb7d1" x="48.982813" y="139.006177" style="stroke: #000000; stroke-width: 0.8"/>
      </g>
     </g>
     <g id="text_9">
      <!-- 20 -->
      <g transform="translate(29.257813 142.805396) scale(0.1 -0.1)">
       <use xlink:href="#DejaVuSans-32"/>
       <use xlink:href="#DejaVuSans-30" transform="translate(63.623047 0)"/>
      </g>
     </g>
    </g>
    <g id="ytick_6">
     <g id="line2d_49">
      <path d="M 48.982813 100.11016 
L 561.197812 100.11016 
" clip-path="url(#pc35dc75555)" style="fill: none; stroke-dasharray: 1.85,0.8; stroke-dashoffset: 0; stroke: #b0b0b0; stroke-width: 0.5"/>
     </g>
     <g id="line2d_50">
      <g>
       <use xlink:href="#m10fb1fb7d1" x="48.982813" y="100.11016" style="stroke: #000000; stroke-width: 0.8"/>
      </g>
     </g>
     <g id="text_10">
      <!-- 30 -->
      <g transform="translate(29.257813 103.909379) scale(0.1 -0.1)">
       <defs>
        <path id="DejaVuSans-33" d="M 2597 2516 
Q 3050 2419 3304 2112 
Q 3559 1806 3559 1356 
Q 3559 666 3084 287 
Q 2609 -91 1734 -91 
Q 1441 -91 1130 -33 
Q 819 25 488 141 
L 488 750 
Q 750 597 1062 519 
Q 1375 441 1716 441 
Q 2309 441 2620 675 
Q 2931 909 2931 1356 
Q 2931 1769 2642 2001 
Q 2353 2234 1838 2234 
L 1294 2234 
L 1294 2753 
L 1863 2753 
Q 2328 2753 2575 2939 
Q 2822 3125 2822 3475 
Q 2822 3834 2567 4026 
Q 2313 4219 1838 4219 
Q 1578 4219 1281 4162 
Q 984 4106 628 3988 
L 628 4550 
Q 988 4650 1302 4700 
Q 1616 4750 1894 4750 
Q 2613 4750 3031 4423 
Q 3450 4097 3450 3541 
Q 3450 3153 3228 2886 
Q 3006 2619 2597 2516 
z
" transform="scale(0.015625)"/>
       </defs>
       <use xlink:href="#DejaVuSans-33"/>
       <use xlink:href="#DejaVuSans-30" transform="translate(63.623047 0)"/>
      </g>
     </g>
    </g>
    <g id="ytick_7">
     <g id="line2d_51">
      <path d="M 48.982813 61.214142 
L 561.197812 61.214142 
" clip-path="url(#pc35dc75555)" style="fill: none; stroke-dasharray: 1.85,0.8; stroke-dashoffset: 0; stroke: #b0b0b0; stroke-width: 0.5"/>
     </g>
     <g id="line2d_52">
      <g>
       <use xlink:href="#m10fb1fb7d1" x="48.982813" y="61.214142" style="stroke: #000000; stroke-width: 0.8"/>
      </g>
     </g>
     <g id="text_11">
      <!-- 40 -->
      <g transform="translate(29.257813 65.013361) scale(0.1 -0.1)">
       <defs>
        <path id="DejaVuSans-34" d="M 2419 4116 
L 825 1625 
L 2419 1625 
L 2419 4116 
z
M 2253 4666 
L 3047 4666 
L 3047 1625 
L 3713 1625 
L 3713 1100 
L 3047 1100 
L 3047 0 
L 2419 0 
L 2419 1100 
L 313 1100 
L 313 1709 
L 2253 4666 
z
" transform="scale(0.015625)"/>
       </defs>
       <use xlink:href="#DejaVuSans-34"/>
       <use xlink:href="#DejaVuSans-30" transform="translate(63.623047 0)"/>
      </g>
     </g>
    </g>
    <g id="ytick_8">
     <g id="line2d_53">
      <path d="M 48.982813 22.318125 
L 561.197812 22.318125 
" clip-path="url(#pc35dc75555)" style="fill: none; stroke-dasharray: 1.85,0.8; stroke-dashoffset: 0; stroke: #b0b0b0; stroke-width: 0.5"/>
     </g>
     <g id="line2d_54">
      <g>
       <use xlink:href="#m10fb1fb7d1" x="48.982813" y="22.318125" style="stroke: #000000; stroke-width: 0.8"/>
      </g>
     </g>
     <g id="text_12">
      <!-- 50 -->
      <g transform="translate(29.257813 26.117344) scale(0.1 -0.1)">
       <defs>
        <path id="DejaVuSans-35" d="M 691 4666 
L 3169 4666 
L 3169 4134 
L 1269 4134 
L 1269 2991 
Q 1406 3038 1543 3061 
Q 1681 3084 1819 3084 
Q 2600 3084 3056 2656 
Q 3513 2228 3513 1497 
Q 3513 744 3044 326 
Q 2575 -91 1722 -91 
Q 1428 -91 1123 -41 
Q 819 9 494 109 
L 494 744 
Q 775 591 1075 516 
Q 1375 441 1709 441 
Q 2250 441 2565 725 
Q 2881 1009 2881 1497 
Q 2881 1984 2565 2268 
Q 2250 2553 1709 2553 
Q 1456 2553 1204 2497 
Q 953 2441 691 2322 
L 691 4666 
z
" transform="scale(0.015625)"/>
       </defs>
       <use xlink:href="#DejaVuSans-35"/>
       <use xlink:href="#DejaVuSans-30" transform="translate(63.623047 0)"/>
      </g>
     </g>
    </g>
    <g id="text_13">
     <!-- SPL (dBA) -->
     <g transform="translate(14.798438 182.944811) rotate(-90) scale(0.1 -0.1)">
      <defs>
       <path id="DejaVuSans-53" d="M 3425 4513 
L 3425 3897 
Q 3066 4069 2747 4153 
Q 2428 4238 2131 4238 
Q 1616 4238 1336 4038 
Q 1056 3838 1056 3469 
Q 1056 3159 1242 3001 
Q 1428 2844 1947 2747 
L 2328 2669 
Q 3034 2534 3370 2195 
Q 3706 1856 3706 1288 
Q 3706 609 3251 259 
Q 2797 -91 1919 -91 
Q 1588 -91 1214 -16 
Q 841 59 441 206 
L 441 856 
Q 825 641 1194 531 
Q 1563 422 1919 422 
Q 2459 422 2753 634 
Q 3047 847 3047 1241 
Q 3047 1584 2836 1778 
Q 2625 1972 2144 2069 
L 1759 2144 
Q 1053 2284 737 2584 
Q 422 2884 422 3419 
Q 422 4038 858 4394 
Q 1294 4750 2059 4750 
Q 2388 4750 2728 4690 
Q 3069 4631 3425 4513 
z
" transform="scale(0.015625)"/>
       <path id="DejaVuSans-50" d="M 1259 4147 
L 1259 2394 
L 2053 2394 
Q 2494 2394 2734 2622 
Q 2975 2850 2975 3272 
Q 2975 3691 2734 3919 
Q 2494 4147 2053 4147 
L 1259 4147 
z
M 628 4666 
L 2053 4666 
Q 2838 4666 3239 4311 
Q 3641 3956 3641 3272 
Q 3641 2581 3239 2228 
Q 2838 1875 2053 1875 
L 1259 1875 
L 1259 0 
L 628 0 
L 628 4666 
z
" transform="scale(0.015625)"/>
       <path id="DejaVuSans-4c" d="M 628 4666 
L 1259 4666 
L 1259 531 
L 3531 531 
L 3531 0 
L 628 0 
L 628 4666 
z
" transform="scale(0.015625)"/>
       <path id="DejaVuSans-64" d="M 2906 2969 
L 2906 4863 
L 3481 4863 
L 3481 0 
L 2906 0 
L 2906 525 
Q 2725 213 2448 61 
Q 2172 -91 1784 -91 
Q 1150 -91 751 415 
Q 353 922 353 1747 
Q 353 2572 751 3078 
Q 1150 3584 1784 3584 
Q 2172 3584 2448 3432 
Q 2725 3281 2906 2969 
z
M 947 1747 
Q 947 1113 1208 752 
Q 1469 391 1925 391 
Q 2381 391 2643 752 
Q 2906 1113 2906 1747 
Q 2906 2381 2643 2742 
Q 2381 3103 1925 3103 
Q 1469 3103 1208 2742 
Q 947 2381 947 1747 
z
" transform="scale(0.015625)"/>
       <path id="DejaVuSans-42" d="M 1259 2228 
L 1259 519 
L 2272 519 
Q 2781 519 3026 730 
Q 3272 941 3272 1375 
Q 3272 1813 3026 2020 
Q 2781 2228 2272 2228 
L 1259 2228 
z
M 1259 4147 
L 1259 2741 
L 2194 2741 
Q 2656 2741 2882 2914 
Q 3109 3088 3109 3444 
Q 3109 3797 2882 3972 
Q 2656 4147 2194 4147 
L 1259 4147 
z
M 628 4666 
L 2241 4666 
Q 2963 4666 3353 4366 
Q 3744 4066 3744 3513 
Q 3744 3084 3544 2831 
Q 3344 2578 2956 2516 
Q 3422 2416 3680 2098 
Q 3938 1781 3938 1306 
Q 3938 681 3513 340 
Q 3088 0 2303 0 
L 628 0 
L 628 4666 
z
" transform="scale(0.015625)"/>
       <path id="DejaVuSans-41" d="M 2188 4044 
L 1331 1722 
L 3047 1722 
L 2188 4044 
z
M 1831 4666 
L 2547 4666 
L 4325 0 
L 3669 0 
L 3244 1197 
L 1141 1197 
L 716 0 
L 50 0 
L 1831 4666 
z
" transform="scale(0.015625)"/>
      </defs>
      <use xlink:href="#DejaVuSans-53"/>
      <use xlink:href="#DejaVuSans-50" transform="translate(63.476562 0)"/>
      <use xlink:href="#DejaVuSans-4c" transform="translate(123.779297 0)"/>
      <use xlink:href="#DejaVuSans-20" transform="translate(179.492188 0)"/>
      <use xlink:href="#DejaVuSans-28" transform="translate(211.279297 0)"/>
      <use xlink:href="#DejaVuSans-64" transform="translate(250.292969 0)"/>
      <use xlink:href="#DejaVuSans-42" transform="translate(313.769531 0)"/>
      <use xlink:href="#DejaVuSans-41" transform="translate(382.373047 0)"/>
      <use xlink:href="#DejaVuSans-29" transform="translate(450.78125 0)"/>
     </g>
    </g>
   </g>
   <g id="line2d_55">
    <path d="M 51.493242 75.661849 
L 57.198394 75.610687 
L 62.625131 78.320853 
L 67.79937 86.039378 
L 72.743565 95.190521 
L 77.477304 95.142464 
L 82.017775 99.22408 
L 86.38014 102.989038 
L 90.577849 101.504521 
L 94.622879 95.414614 
L 98.525949 91.72361 
L 102.296685 90.850405 
L 105.943768 90.317296 
L 109.475052 90.55631 
L 112.897663 90.994312 
L 116.218091 93.08229 
L 119.44226 89.197804 
L 122.575596 89.897665 
L 125.623077 93.053917 
L 128.589281 98.407784 
L 131.478432 99.112879 
L 134.294433 97.721579 
L 137.040895 98.382406 
L 139.721171 93.704295 
L 142.338376 90.879671 
L 144.89541 90.020408 
L 147.394977 90.704737 
L 149.839605 93.547616 
L 156.866746 98.513815 
L 159.113814 99.777037 
L 161.316383 104.236277 
L 163.47618 109.917802 
L 165.594836 109.611887 
L 167.673888 106.863927 
L 169.714791 104.943847 
L 171.718919 103.439629 
L 173.687573 98.607629 
L 175.621988 90.957428 
L 177.523335 86.650978 
L 179.392725 82.024391 
L 181.231214 76.121268 
L 183.039808 77.014628 
L 184.819463 80.709162 
L 186.571091 85.354758 
L 188.295561 91.64478 
L 189.993702 94.816205 
L 191.666306 96.583752 
L 193.31413 98.146526 
L 194.937897 101.098916 
L 196.5383 99.58491 
L 198.116001 99.175287 
L 199.671636 95.837104 
L 201.205813 93.416206 
L 202.719116 92.756484 
L 204.212106 92.648736 
L 205.685321 92.755039 
L 207.139277 96.473075 
L 208.574472 98.391191 
L 209.991384 99.811989 
L 211.390472 101.570787 
L 212.77218 102.242363 
L 214.136935 106.474668 
L 215.485146 107.35515 
L 216.817211 111.367878 
L 218.133511 113.899896 
L 219.434416 114.46145 
L 220.720281 115.236729 
L 221.99145 115.507732 
L 223.248255 114.43468 
L 224.491017 108.768088 
L 225.720047 102.481254 
L 226.935645 99.91049 
L 228.1381 94.717368 
L 229.327695 90.939459 
L 230.504702 89.289938 
L 231.669383 88.216409 
L 232.821996 89.225735 
L 233.962786 90.930556 
L 235.091994 87.728756 
L 236.209854 92.078935 
L 237.31659 99.543023 
L 238.412422 99.819453 
L 239.497563 103.674589 
L 240.572219 106.668706 
L 241.636592 109.02744 
L 242.690875 110.436571 
L 243.735259 104.645618 
L 244.769928 86.609689 
L 245.79506 91.855344 
L 246.810831 100.739281 
L 247.817408 97.128388 
L 248.814958 95.621465 
L 249.803641 92.237972 
L 250.783613 90.840663 
L 251.755026 95.12104 
L 252.718028 96.764222 
L 253.672764 95.531723 
L 254.619375 97.566714 
L 255.557997 100.901801 
L 256.488765 102.459282 
L 257.411808 102.653847 
L 258.327254 103.763137 
L 259.235227 104.058957 
L 260.135848 102.146195 
L 261.029235 102.235396 
L 261.915503 102.716905 
L 262.794765 106.217746 
L 263.667131 109.0404 
L 264.532708 113.029529 
L 265.391601 115.801139 
L 266.243912 117.407615 
L 267.089742 118.579234 
L 267.929188 117.830582 
L 268.762346 115.742009 
L 269.589309 115.802044 
L 270.41017 114.175444 
L 272.033937 108.113799 
L 272.837017 106.104505 
L 273.634339 103.758434 
L 274.425987 104.925921 
L 275.212041 105.241401 
L 275.992578 108.884679 
L 276.767675 111.061324 
L 277.537409 109.533756 
L 278.301853 110.841193 
L 279.061078 112.974175 
L 279.815156 115.639211 
L 280.564156 117.320489 
L 282.047192 114.400574 
L 282.78136 113.433843 
L 283.510714 112.245865 
L 284.235317 108.267335 
L 284.955229 107.924354 
L 285.670512 109.119294 
L 286.381224 108.184564 
L 287.087423 106.816204 
L 287.789168 104.88937 
L 288.486512 101.416735 
L 289.179512 99.171714 
L 289.86822 96.333908 
L 290.55269 95.978852 
L 291.232974 95.852947 
L 292.581186 99.84847 
L 293.249212 100.947473 
L 293.91325 101.352738 
L 294.573348 104.140075 
L 295.229551 104.025524 
L 295.881905 103.288549 
L 296.530455 103.636886 
L 297.175246 104.130881 
L 297.81632 105.829269 
L 298.453721 108.552795 
L 299.087489 112.800786 
L 299.717667 116.192771 
L 300.344294 117.597743 
L 300.967411 119.61091 
L 301.587057 120.652344 
L 302.203269 122.246159 
L 302.816087 121.634309 
L 303.425546 121.811766 
L 304.031684 122.242256 
L 304.634537 120.612359 
L 305.23414 120.779562 
L 305.830528 123.341272 
L 306.423735 120.994857 
L 307.013795 117.488122 
L 308.184607 113.636652 
L 308.765423 113.635773 
L 309.343222 109.756118 
L 309.918035 109.78192 
L 310.489893 113.488287 
L 311.058825 115.005973 
L 312.188034 109.342779 
L 312.748368 109.771339 
L 313.305893 112.182835 
L 313.860638 110.763276 
L 314.412629 107.72794 
L 314.961895 102.06937 
L 315.508462 101.434554 
L 316.052356 102.248358 
L 316.593603 101.35797 
L 317.132229 100.926362 
L 317.668259 101.857666 
L 318.201719 102.120632 
L 318.732632 107.499475 
L 319.261022 110.917125 
L 319.786915 113.46613 
L 320.310333 112.877187 
L 320.831299 111.817144 
L 321.349836 111.80368 
L 321.865968 107.770495 
L 322.379715 106.580535 
L 322.8911 123.509095 
L 323.400145 131.948429 
L 323.90687 135.361488 
L 324.411298 132.761918 
L 324.913448 129.491086 
L 325.413341 127.266569 
L 325.910998 127.129454 
L 326.406438 127.46949 
L 326.899681 126.180829 
L 327.879652 134.11518 
L 328.366419 136.161061 
L 328.851065 140.026428 
L 329.333609 137.742537 
L 329.814068 133.439169 
L 330.768804 129.651093 
L 331.243116 126.30422 
L 331.715414 124.274131 
L 332.185716 118.809975 
L 332.654037 114.734168 
L 333.120394 111.689115 
L 333.584804 111.919184 
L 334.047283 111.39286 
L 334.507847 114.429467 
L 334.966512 114.984858 
L 335.423294 116.536819 
L 335.878206 120.362842 
L 336.331266 122.778909 
L 336.782489 122.926803 
L 337.231887 125.813077 
L 338.125274 135.486031 
L 338.569291 137.536641 
L 339.011543 137.273538 
L 339.452042 139.344763 
L 339.890805 137.914212 
L 340.327843 134.429862 
L 340.76317 132.875379 
L 341.628747 127.199702 
L 342.059023 127.384979 
L 342.48764 125.708378 
L 342.914612 125.480912 
L 343.76367 127.762997 
L 344.185781 127.771651 
L 344.606296 129.346674 
L 345.025227 125.64607 
L 345.442586 123.392654 
L 345.858385 122.123724 
L 346.272636 119.401511 
L 346.685349 121.02353 
L 347.096536 124.439362 
L 347.506209 126.568913 
L 347.914379 124.354941 
L 348.321056 124.805686 
L 348.726251 125.441799 
L 349.129976 127.996197 
L 349.532241 131.638648 
L 349.933056 133.780044 
L 350.332432 133.348182 
L 351.126907 128.857161 
L 351.522027 129.281459 
L 351.915748 127.958263 
L 352.30808 125.678979 
L 352.699034 124.354936 
L 353.088617 124.075416 
L 353.476841 125.618187 
L 353.863715 128.21788 
L 354.249248 126.514841 
L 354.633449 126.90748 
L 355.016327 133.233732 
L 355.397892 135.311551 
L 355.778153 133.052231 
L 356.157118 128.147417 
L 356.911195 122.895775 
L 357.286326 118.969868 
L 357.660195 118.353663 
L 358.032812 116.771931 
L 358.404185 113.923554 
L 358.774322 112.991289 
L 359.143232 111.200263 
L 359.510922 112.692612 
L 359.8774 112.7577 
L 360.242675 114.272341 
L 360.606754 117.100447 
L 360.969645 116.52114 
L 361.331356 115.666478 
L 361.691895 112.617411 
L 362.409485 118.557757 
L 362.766551 119.519378 
L 363.122475 119.37086 
L 363.477263 120.880587 
L 363.830924 120.78362 
L 364.183463 122.437036 
L 364.534889 126.552979 
L 364.885207 127.68793 
L 365.234426 127.722527 
L 365.582552 127.55297 
L 365.929591 128.107967 
L 366.275551 128.095608 
L 366.620439 130.611232 
L 366.96426 131.537863 
L 367.307021 132.068743 
L 367.989392 135.490334 
L 368.667602 137.448827 
L 369.005162 137.124503 
L 369.341702 136.110186 
L 369.677225 135.672123 
L 370.01174 135.87949 
L 370.345252 135.104799 
L 370.677766 135.078266 
L 371.00929 133.900167 
L 371.339828 130.143148 
L 371.997973 126.146233 
L 372.652246 125.168107 
L 372.977945 124.998614 
L 373.302692 123.592406 
L 373.626495 125.550908 
L 373.949357 130.657162 
L 374.592285 135.108364 
L 374.91236 136.037377 
L 375.231517 139.019179 
L 375.54976 140.035787 
L 376.183529 136.820062 
L 376.499064 138.496966 
L 376.813707 141.011001 
L 377.127461 139.765707 
L 377.440334 139.638862 
L 377.752329 139.648161 
L 378.063451 138.034861 
L 378.683096 137.03797 
L 378.991629 136.792488 
L 379.299309 137.266886 
L 379.60614 143.040385 
L 379.912126 145.276278 
L 380.217273 146.523727 
L 380.521586 149.649577 
L 380.825068 149.852331 
L 381.127724 148.510644 
L 381.429559 150.037111 
L 381.730577 145.460062 
L 382.030782 143.433463 
L 382.628773 144.590587 
L 382.926567 142.11977 
L 383.223566 137.996633 
L 383.519775 137.662027 
L 383.815196 132.371471 
L 384.109835 132.472773 
L 384.403695 137.141012 
L 384.696781 136.873094 
L 384.989097 136.786403 
L 385.280646 137.147334 
L 385.861463 142.81446 
L 386.150737 142.630516 
L 386.439262 142.736463 
L 386.72704 140.462241 
L 387.014075 139.655043 
L 387.300371 141.324387 
L 387.585932 139.265234 
L 387.870762 138.130666 
L 388.438244 141.312447 
L 388.720902 139.231508 
L 389.002844 135.094594 
L 389.284073 134.785134 
L 389.564593 133.061158 
L 389.844407 133.095698 
L 390.123519 129.177655 
L 390.401933 129.010171 
L 390.679651 131.133726 
L 390.956677 130.397993 
L 391.233016 129.145036 
L 391.508669 129.576254 
L 391.783641 129.084107 
L 392.057935 130.795368 
L 392.331554 129.702326 
L 392.604501 126.685324 
L 392.876781 127.534611 
L 393.148395 126.031402 
L 393.419348 125.509803 
L 393.689642 125.890669 
L 393.959281 126.76917 
L 394.764299 132.489147 
L 395.031348 134.954632 
L 395.297758 139.691049 
L 395.828671 143.986639 
L 396.09318 145.949239 
L 396.357062 145.628711 
L 396.620319 146.009006 
L 396.882955 146.662403 
L 397.144971 148.823341 
L 397.406372 148.89606 
L 397.667161 146.859461 
L 397.927339 145.87361 
L 398.18691 146.482984 
L 398.445876 145.105152 
L 398.704241 147.176513 
L 399.219177 149.179354 
L 399.475754 146.881175 
L 399.731741 147.150503 
L 399.98714 147.69875 
L 400.241953 149.158028 
L 400.496184 151.319121 
L 401.00291 146.271032 
L 401.507337 150.849692 
L 401.758696 150.904331 
L 402.009488 153.258033 
L 402.259715 153.955399 
L 402.758488 158.078085 
L 403.007038 158.757694 
L 403.255033 158.635676 
L 403.502477 157.435847 
L 403.749372 160.003497 
L 403.99572 159.818014 
L 404.241524 155.254915 
L 404.731507 160.553943 
L 404.975692 162.518259 
L 405.219342 162.928143 
L 405.705046 159.681624 
L 405.947105 159.91865 
L 406.188638 158.746685 
L 406.429648 159.472623 
L 406.670137 160.832207 
L 407.149561 160.549004 
L 407.3885 161.905497 
L 407.626927 161.853531 
L 407.864843 158.669708 
L 408.102252 158.496022 
L 408.339156 161.910093 
L 408.575556 163.657618 
L 408.811454 163.628943 
L 409.046853 162.353833 
L 409.281755 163.423624 
L 409.516162 165.904844 
L 409.750076 164.822492 
L 409.983499 166.999219 
L 410.216434 170.882317 
L 410.448881 168.477175 
L 410.680844 167.482038 
L 410.912324 165.794028 
L 411.143323 165.802095 
L 411.373843 168.587903 
L 411.603887 169.754757 
L 411.833456 172.802269 
L 412.291177 171.134681 
L 412.519333 173.552403 
L 412.974246 170.147103 
L 413.201007 168.228794 
L 413.427306 168.596737 
L 413.653146 170.135355 
L 413.878528 169.687431 
L 414.103455 169.65794 
L 414.327927 171.829354 
L 414.551947 172.24445 
L 414.775517 175.239404 
L 414.998639 175.811739 
L 415.221314 172.687101 
L 415.443544 172.101732 
L 415.665331 169.813811 
L 415.886676 169.219643 
L 416.32805 176.050378 
L 416.76768 179.686657 
L 416.986844 179.498999 
L 417.423882 175.073553 
L 417.641759 173.726501 
L 417.85921 173.747723 
L 418.076237 175.101466 
L 418.292841 175.623742 
L 418.509023 176.532961 
L 418.724787 176.801641 
L 418.940133 178.118523 
L 419.155063 180.503394 
L 419.369578 181.624933 
L 419.58368 176.363738 
L 419.797371 177.957717 
L 420.010652 178.621385 
L 420.223525 177.184578 
L 420.435991 174.184097 
L 420.648052 173.317124 
L 420.85971 175.432498 
L 421.070966 182.430053 
L 421.281821 183.401423 
L 421.492277 183.545921 
L 421.911999 188.948522 
L 422.538626 180.718593 
L 422.954425 174.233034 
L 423.161743 171.838925 
L 423.368675 171.160796 
L 423.575223 171.677722 
L 423.781388 171.113253 
L 423.987172 172.138314 
L 424.192576 170.193236 
L 424.602249 178.542515 
L 424.806521 180.919976 
L 425.010418 180.577337 
L 425.213943 173.128092 
L 425.417095 171.382439 
L 425.822291 182.777608 
L 426.024337 184.182079 
L 426.226016 183.362537 
L 426.42733 181.009467 
L 426.628281 180.242775 
L 427.029096 184.067542 
L 427.826419 194.122163 
L 428.02486 190.781643 
L 428.222947 191.811819 
L 428.420682 190.636706 
L 428.815101 191.060341 
L 429.208127 194.69671 
L 429.599768 186.902651 
L 429.990036 184.605489 
L 430.184657 183.784474 
L 430.378938 184.337752 
L 430.959755 180.320539 
L 431.152688 179.442179 
L 431.345287 179.793505 
L 431.537554 182.418669 
L 431.729488 181.503536 
L 432.112367 184.82121 
L 432.874192 188.839576 
L 433.063836 189.060982 
L 433.442156 186.812854 
L 433.630835 186.713549 
L 433.819194 185.268227 
L 434.007235 185.373077 
L 434.194958 184.479172 
L 434.382366 184.507572 
L 434.569457 185.050948 
L 434.9427 185.222717 
L 435.128852 183.658483 
L 435.314693 184.619761 
L 435.685447 187.925229 
L 436.05497 185.20935 
L 436.239271 183.530328 
L 436.423268 183.332605 
L 436.606961 182.214349 
L 436.790351 186.095959 
L 437.156227 183.402741 
L 437.338714 184.20683 
L 437.520903 185.643084 
L 437.702793 184.278487 
L 437.884387 184.630122 
L 438.065685 183.298808 
L 438.246687 182.841277 
L 438.607811 184.084925 
L 438.787934 184.8313 
L 439.147308 182.375879 
L 439.326561 182.872964 
L 439.505525 182.426839 
L 439.684201 182.750278 
L 440.040695 178.914174 
L 440.39605 182.600938 
L 440.573303 180.673883 
L 440.926963 181.706472 
L 441.103373 181.602677 
L 441.455354 184.497937 
L 441.806225 182.441665 
L 442.155993 185.651242 
L 442.330466 188.360461 
L 442.504665 189.273098 
L 443.198745 195.640273 
L 443.371591 199.330443 
L 443.544168 197.710181 
L 443.716478 194.210605 
L 443.888522 193.552753 
L 444.060299 192.055348 
L 444.231812 189.576932 
L 444.403061 189.976683 
L 444.574047 190.961142 
L 444.74477 188.888123 
L 444.915231 188.428092 
L 445.085432 189.413445 
L 445.425054 193.232901 
L 445.763642 194.614815 
L 446.101202 191.661724 
L 446.437741 193.211047 
L 446.773265 188.736782 
L 446.940648 189.069111 
L 447.10778 192.662777 
L 447.441291 190.686528 
L 447.607673 190.968428 
L 447.939691 196.516612 
L 448.270722 198.139988 
L 448.435868 197.376109 
L 448.765427 193.15594 
L 449.094012 187.983624 
L 449.257942 185.61933 
L 449.42163 186.059493 
L 449.748285 191.668778 
L 450.073984 189.965639 
L 450.236477 187.54932 
L 450.398732 187.326141 
L 450.560751 188.701617 
L 450.884083 194.6002 
L 451.045397 194.754178 
L 451.52794 189.490607 
L 451.848477 188.093999 
L 452.008399 185.344415 
L 452.327556 192.325727 
L 452.486792 190.268165 
L 452.6458 193.56363 
L 452.804581 193.993962 
L 452.963135 193.876625 
L 453.121464 196.873401 
L 453.279568 195.888068 
L 453.595104 199.825179 
L 453.752536 197.396074 
L 454.380047 200.223074 
L 454.69248 197.056246 
L 455.004038 200.157478 
L 455.15949 201.475507 
L 455.314726 201.733462 
L 455.469745 205.180876 
L 455.624548 205.54288 
L 455.933509 205.625173 
L 456.241615 208.945734 
L 456.54887 205.274647 
L 456.855278 203.322277 
L 457.008166 203.971357 
L 457.160844 203.581755 
L 457.313313 202.861207 
L 457.465573 203.154647 
L 457.617625 202.973121 
L 457.76947 202.50545 
L 458.072538 197.12213 
L 458.525598 189.659408 
L 458.676209 190.440273 
L 459.126822 196.777445 
L 459.575616 194.954194 
L 459.724813 192.676029 
L 459.87381 193.114034 
L 460.022607 195.060571 
L 460.319606 193.622665 
L 460.467809 195.626993 
L 460.615814 193.868567 
L 460.763623 193.551192 
L 460.911236 193.603021 
L 461.058652 194.352531 
L 461.205874 194.092028 
L 461.352902 195.782098 
L 461.499735 195.457229 
L 461.646374 198.204927 
L 461.792821 198.49517 
L 461.939075 197.499386 
L 462.085136 199.131544 
L 462.231007 197.950264 
L 462.376686 198.46313 
L 462.522175 196.56154 
L 462.957502 201.390579 
L 463.102234 200.363015 
L 463.535301 195.34095 
L 463.679283 197.828812 
L 463.823079 198.385894 
L 463.966689 197.754164 
L 464.110114 198.206789 
L 464.253355 201.840737 
L 464.396411 199.308234 
L 464.539283 200.719412 
L 464.966802 197.907136 
L 465.108944 198.484138 
L 465.392684 197.81657 
L 465.534283 198.125173 
L 465.675702 197.215143 
L 465.816942 197.431307 
L 466.098884 193.70097 
L 466.239587 194.96715 
L 466.380113 192.614999 
L 466.660633 191.899904 
L 466.800628 192.327779 
L 466.940447 190.777455 
L 467.219559 196.506906 
L 467.358853 196.87988 
L 467.497972 196.932372 
L 467.636918 198.322877 
L 467.91429 196.780858 
L 468.052717 197.172951 
L 468.466967 192.99757 
L 468.604709 195.166468 
L 468.74228 193.534207 
L 468.879681 193.919672 
L 469.016912 194.798887 
L 469.290868 190.525944 
L 469.427593 191.203287 
L 470.10871 180.600503 
L 470.244435 183.248576 
L 470.785682 169.47831 
L 471.324308 185.643101 
L 471.592646 173.569111 
L 472.260673 116.067376 
L 472.393798 122.083327 
L 472.79222 183.066587 
L 472.924711 182.248689 
L 473.453102 164.095484 
L 473.847754 174.112029 
L 474.11008 182.316157 
L 474.241011 182.851464 
L 474.502412 180.665241 
L 474.7632 185.261303 
L 474.893365 186.666747 
L 475.023378 191.437323 
L 475.282949 186.728968 
L 475.412508 185.755748 
L 476.058047 132.802064 
L 476.186706 133.004384 
L 476.315217 133.471688 
L 476.571794 149.423487 
L 476.827781 168.603241 
L 476.955553 168.238894 
L 477.210659 162.018938 
L 477.465181 150.803606 
L 477.592224 158.758312 
L 477.845875 187.442954 
L 478.09895 197.245365 
L 478.225271 196.124591 
L 478.477484 199.421771 
L 478.854735 187.52064 
L 479.105527 183.08063 
L 479.355755 178.364624 
L 479.480658 173.223408 
L 479.978872 200.154868 
L 480.227144 199.213929 
L 480.474864 201.345349 
L 480.598517 201.533829 
L 480.722033 201.469398 
L 480.845412 202.006078 
L 481.09176 205.880797 
L 481.21473 205.657497 
L 481.337563 198.942825 
L 481.582825 203.698782 
L 482.071732 188.546903 
L 482.437006 173.422283 
L 482.558499 179.353169 
L 482.801086 197.540773 
L 482.922181 201.900265 
L 483.043145 202.216477 
L 483.284678 198.938653 
L 483.525688 202.294249 
L 483.645997 202.501846 
L 483.766177 200.252482 
L 483.886227 204.03541 
L 484.125938 199.767408 
L 484.365134 202.80643 
L 484.484539 202.045885 
L 484.603817 201.646999 
L 485.079651 204.202083 
L 485.198292 204.033618 
L 485.316807 204.155305 
L 485.671595 202.415433 
L 485.789607 199.061109 
L 485.907494 192.006529 
L 486.142893 196.792192 
L 486.260406 197.028981 
L 486.377795 197.961812 
L 486.612202 202.605 
L 486.72922 202.791797 
L 486.846116 202.099088 
L 487.079539 197.678297 
L 487.312473 199.557795 
L 487.428758 200.37846 
L 487.660962 202.52735 
L 487.776883 200.67338 
L 487.892684 201.67038 
L 488.008363 205.602578 
L 488.123923 205.72065 
L 488.239363 205.446749 
L 488.469883 205.907077 
L 488.584964 207.621571 
L 488.699927 206.969143 
L 488.81477 208.263602 
L 488.929496 207.798532 
L 489.044102 205.788752 
L 489.158592 205.807323 
L 489.272963 207.508609 
L 489.387217 205.767839 
L 489.501353 206.103932 
L 489.729276 207.850662 
L 489.956732 205.350479 
L 490.070286 206.195645 
L 490.297046 205.382768 
L 490.410254 210.105872 
L 490.636323 208.072865 
L 490.749186 207.325736 
L 490.861934 209.135563 
L 491.087088 205.919302 
L 491.199494 205.810736 
L 491.423967 204.299049 
L 491.647987 198.714881 
L 491.759828 201.21515 
L 491.983174 212.301704 
L 492.206072 211.901875 
L 492.317354 210.574966 
L 492.428524 212.1658 
L 492.539584 211.711838 
L 492.76137 209.406978 
L 492.982716 211.665148 
L 493.093224 213.017419 
L 493.31391 212.532935 
L 493.53416 209.88222 
L 493.753975 213.386763 
L 493.863719 210.928642 
L 493.973355 211.517025 
L 494.082884 214.302191 
L 494.192305 210.671063 
L 494.301618 210.789388 
L 494.519922 203.038449 
L 494.628914 209.12979 
L 494.737799 208.942078 
L 494.846577 208.993205 
L 495.063816 204.84114 
L 495.38888 208.395714 
L 495.497024 207.294716 
L 495.712997 208.464258 
L 495.928552 211.748079 
L 496.143689 212.772843 
L 496.251102 212.563119 
L 496.57272 205.92211 
L 496.786616 208.408547 
L 496.89341 207.870014 
L 497.106692 209.970336 
L 497.213179 209.978746 
L 497.532031 207.131277 
L 497.744092 210.740397 
L 497.95575 209.740144 
L 498.061428 210.341181 
L 498.37786 206.665825 
L 498.483138 202.987361 
L 498.588317 203.574161 
L 498.798375 212.026138 
L 498.903256 214.352055 
L 499.112722 210.677891 
L 499.321793 209.714984 
L 499.426182 209.88263 
L 499.530473 211.019864 
L 499.634666 209.149905 
L 499.738761 209.313274 
L 499.842759 209.959083 
L 499.94666 209.480797 
L 500.257783 212.334228 
L 500.361297 211.941706 
L 500.568037 215.396644 
L 500.671263 213.399904 
L 500.774393 213.564452 
L 500.980367 214.842415 
L 501.185961 213.713711 
L 501.391175 217.103729 
L 501.493641 215.699787 
L 501.596012 217.122958 
L 501.800471 215.451382 
L 501.90256 216.744397 
L 502.004556 216.338356 
L 502.106458 217.64996 
L 502.208267 217.56538 
L 502.411605 214.210216 
L 502.614572 215.712543 
L 502.715917 213.430898 
L 502.81717 214.099081 
L 503.019399 217.316883 
L 503.221262 213.72705 
L 503.322056 214.962306 
L 503.52337 213.682123 
L 503.62389 216.901372 
L 503.72432 216.796019 
L 503.82466 217.191386 
L 503.924908 218.584649 
L 504.025067 217.217082 
L 504.125135 218.177071 
L 504.225114 217.494929 
L 504.325003 218.326172 
L 504.424802 217.934241 
L 504.524511 215.679299 
L 504.624132 216.405192 
L 504.723663 215.011533 
L 504.823105 215.114257 
L 504.922458 215.846906 
L 505.021723 214.411756 
L 505.120899 214.743538 
L 505.219987 211.730061 
L 505.516722 216.749387 
L 505.615458 216.639282 
L 505.714106 216.077054 
L 505.812667 217.888172 
L 506.009528 216.822626 
L 506.107827 216.40094 
L 506.20604 213.754534 
L 506.304166 216.324577 
L 506.402206 216.265899 
L 506.598027 218.394693 
L 506.793503 216.744485 
L 506.988637 218.21612 
L 507.086075 216.947897 
L 507.280697 217.934473 
L 507.474978 215.618336 
L 507.668921 217.749074 
L 507.862526 215.798711 
L 507.959202 218.294662 
L 508.055794 217.205963 
L 508.248728 219.101074 
L 508.345069 216.369721 
L 508.441327 216.707007 
L 508.537502 216.216864 
L 508.633593 214.589542 
L 508.729602 215.186211 
L 508.921371 217.687069 
L 509.017132 215.071466 
L 509.208406 224.605801 
L 509.30392 224.417394 
L 509.399353 223.515037 
L 509.494703 224.730315 
L 509.589971 222.477986 
L 509.780264 224.139097 
L 509.875289 222.094987 
L 509.970232 222.258937 
L 510.065094 222.011355 
L 510.349197 220.5176 
L 510.443737 222.013944 
L 510.538196 221.23162 
L 510.726875 215.736225 
L 511.103275 211.223317 
L 511.290998 215.751288 
L 511.384741 213.674768 
L 511.665497 217.238123 
L 511.758925 216.862289 
L 511.945546 213.615127 
L 512.038739 213.942856 
L 512.224892 219.2173 
L 512.317851 219.32815 
L 512.410733 219.640713 
L 512.503538 220.616348 
L 512.596265 220.40584 
L 512.688914 221.195184 
L 512.781487 220.851832 
L 512.873983 221.726418 
L 512.966402 220.45884 
L 513.151009 216.177226 
L 513.335311 213.97178 
L 513.611192 203.708583 
L 513.703001 204.286269 
L 513.886391 213.95821 
L 514.434754 217.708088 
L 514.798833 214.540152 
L 514.889667 214.94109 
L 515.161724 222.015817 
L 515.252262 220.35013 
L 515.342727 220.411939 
L 515.523435 218.820042 
L 515.973926 212.878882 
L 516.063806 213.49846 
L 516.153613 212.723182 
L 516.4226 208.494172 
L 516.512118 211.623803 
L 516.780241 205.610221 
L 516.95863 208.57372 
L 517.22568 206.257298 
L 517.314554 208.854969 
L 517.403357 207.969745 
L 517.49209 210.597934 
L 517.580752 209.637793 
L 517.669343 207.43248 
L 517.757863 207.870297 
L 517.846313 207.736956 
L 518.023003 203.334062 
L 518.111243 202.962952 
L 518.199412 203.805715 
L 518.287512 199.758469 
L 518.551394 209.251669 
L 518.639215 208.941223 
L 518.814651 209.659681 
L 518.902265 209.683338 
L 519.164694 203.101193 
L 519.426505 206.926738 
L 519.513639 206.914322 
L 519.600704 206.749972 
L 519.687702 207.402292 
L 519.774631 207.178159 
L 519.861492 207.961715 
L 519.948286 207.078889 
L 520.12167 208.707785 
L 520.208261 208.020037 
L 520.294785 211.315904 
L 520.640208 205.531507 
L 520.726396 205.432815 
L 520.898573 208.810612 
L 520.984561 209.997236 
L 521.156339 213.478958 
L 521.242128 212.51215 
L 521.499101 217.602906 
L 521.584626 217.251941 
L 521.840809 210.47727 
L 521.926073 210.626624 
L 522.096404 213.815638 
L 522.351412 205.982727 
L 522.436285 206.786128 
L 522.521093 206.613812 
L 522.605837 205.283128 
L 522.690516 208.363354 
L 522.859681 206.359407 
L 522.944167 207.806056 
L 523.02859 207.559614 
L 523.112948 205.47883 
L 523.281472 209.0241 
L 523.365638 207.495559 
L 523.449741 208.368735 
L 523.533781 208.076211 
L 523.617757 206.469462 
L 523.701669 208.570232 
L 523.785518 208.148282 
L 524.036688 202.549923 
L 524.120285 203.644344 
L 524.287291 211.047595 
L 524.3707 209.824596 
L 524.703713 214.960949 
L 524.78681 213.645182 
L 524.952819 217.044547 
L 525.118581 215.322156 
L 525.201369 215.524367 
L 525.366761 211.911805 
L 525.449365 211.727157 
L 525.531908 211.222463 
L 525.614389 211.598302 
L 525.696809 211.53501 
L 525.779168 212.965575 
L 525.861467 212.367784 
L 525.943704 214.524723 
L 526.025881 213.621703 
L 526.107997 215.763576 
L 526.190052 215.382523 
L 526.272047 215.160268 
L 526.681117 209.703381 
L 526.762751 211.122763 
L 526.925839 215.237464 
L 527.007294 214.511991 
L 527.088688 214.443178 
L 527.170024 213.797094 
L 527.2513 211.001368 
L 527.332516 211.544295 
L 527.494772 210.357248 
L 527.575811 212.729967 
L 527.656791 211.774729 
L 528.060809 219.898165 
L 528.222006 220.605381 
L 528.302517 220.299746 
L 528.38297 218.98177 
L 528.463365 215.514742 
L 528.62398 218.602856 
L 528.784364 216.33071 
L 528.864469 216.887531 
L 529.024507 217.982109 
L 529.104439 217.67928 
L 529.184314 216.097777 
L 529.343892 219.785984 
L 529.423596 219.23417 
L 529.821258 212.697767 
L 529.90062 212.812251 
L 530.059175 214.770888 
L 530.138368 213.363133 
L 530.217504 213.839081 
L 530.296584 214.583747 
L 530.533487 211.991369 
L 530.691143 214.1222 
L 530.769887 214.114859 
L 530.848576 215.835607 
L 531.162774 211.593543 
L 531.554278 200.97009 
L 531.710494 209.437639 
L 531.866491 217.157562 
L 532.02227 219.467254 
L 532.100078 222.646734 
L 532.177831 222.062647 
L 532.25553 220.610472 
L 532.333175 221.128953 
L 532.410765 221.048261 
L 532.797908 217.429849 
L 533.106655 210.195009 
L 533.491388 216.734414 
L 533.644909 222.142543 
L 533.72159 222.072252 
L 533.874794 218.149836 
L 534.180571 226.191764 
L 534.256884 225.350273 
L 534.333144 222.893708 
L 534.485509 226.067258 
L 534.713665 223.60422 
L 534.789613 222.727092 
L 534.941354 218.236275 
L 535.017147 218.779981 
L 535.092888 216.720099 
L 535.244216 219.15767 
L 535.395339 217.010066 
L 535.470823 220.786063 
L 535.546256 219.711692 
L 535.922656 213.805273 
L 536.147886 218.66785 
L 536.372661 224.225581 
L 536.596982 218.962275 
L 536.671656 217.040499 
L 536.746279 217.861911 
L 537.044273 222.165883 
L 537.118647 222.291225 
L 537.192971 221.766828 
L 537.267245 223.77798 
L 537.34147 222.88096 
L 537.637876 226.560424 
L 537.711854 226.264938 
L 537.859663 228.303128 
L 538.081008 223.055848 
L 538.228327 225.39519 
L 538.595774 220.81811 
L 538.815661 223.106311 
L 538.88886 222.521909 
L 538.962011 221.968643 
L 539.035114 219.930635 
L 539.181176 222.595792 
L 539.327046 220.018465 
L 539.39991 220.573712 
L 539.545494 218.717341 
L 539.618214 219.0898 
L 539.836091 224.704487 
L 539.908622 224.308076 
L 539.981105 223.635506 
L 540.198273 225.99312 
L 540.270568 226.328015 
L 540.342817 226.129704 
L 540.487172 227.364469 
L 540.55928 227.758045 
L 540.631341 229.156309 
L 541.062729 219.875349 
L 541.134465 217.307952 
L 541.206154 218.354835 
L 541.49245 220.507437 
L 541.778012 215.185066 
L 541.991703 218.791002 
L 542.062842 219.195396 
L 542.275987 223.26342 
L 542.346944 224.547523 
L 542.417857 224.282161 
L 542.488724 224.384541 
L 542.630323 223.636669 
L 542.701055 225.996043 
L 542.771742 225.684555 
L 542.842384 225.61798 
L 542.983534 227.896432 
L 543.054042 227.879572 
L 543.405912 225.312928 
L 543.616501 229.733154 
L 543.756673 228.635078 
L 543.896668 229.157134 
L 544.036487 228.075879 
L 544.10633 229.865941 
L 544.17613 229.843261 
L 544.315599 226.278417 
L 544.385267 227.499556 
L 544.524474 224.329529 
L 544.594012 225.248316 
L 544.663507 225.602386 
L 544.87173 223.05743 
L 544.941052 222.678296 
L 545.01033 222.7537 
L 545.217906 216.523861 
L 545.356075 217.822154 
L 545.563007 224.462514 
L 545.631899 224.605369 
L 545.700748 224.332001 
L 545.769555 222.640308 
L 545.907041 232.395547 
L 545.97572 232.703769 
L 546.112952 229.876223 
L 546.181504 229.980973 
L 546.250014 230.14442 
L 546.523633 227.701269 
L 546.591933 229.206858 
L 546.66019 228.472202 
L 546.728406 226.675171 
L 546.796581 227.606283 
L 546.932804 232.599174 
L 547.000853 229.525347 
L 547.06886 229.947244 
L 547.272633 235.237667 
L 547.476033 231.046292 
L 547.611427 231.099285 
L 547.81421 234.308057 
L 548.218668 223.576316 
L 548.420348 228.307747 
L 548.487493 225.294254 
L 548.554598 227.123597 
L 548.621662 227.180437 
L 548.822612 223.482884 
L 548.889515 222.199152 
L 549.0232 229.204742 
L 549.089983 227.467106 
L 549.29009 229.51054 
L 549.356712 230.099636 
L 549.423295 233.102077 
L 549.489837 231.437431 
L 549.55634 230.314123 
L 549.622803 232.979433 
L 549.689227 231.148106 
L 549.755611 231.242357 
L 549.821955 233.446162 
L 549.88826 231.983325 
L 549.954525 229.82564 
L 550.351289 238.258396 
L 550.615014 235.055275 
L 550.680848 237.298494 
L 550.878115 233.838243 
L 550.943794 233.881946 
L 551.009433 235.38944 
L 551.075034 235.325986 
L 551.140596 235.493234 
L 551.402459 228.644064 
L 551.467828 229.043146 
L 551.663706 226.782997 
L 551.85924 224.25891 
L 551.989405 227.455619 
L 552.05443 227.690679 
L 552.119418 229.331226 
L 552.184367 227.513531 
L 552.378989 233.634989 
L 552.57327 226.228209 
L 552.637955 226.759835 
L 553.089701 233.484708 
L 553.154086 232.154735 
L 553.218435 232.312091 
L 553.282746 232.427904 
L 553.34702 231.456653 
L 553.411257 228.6039 
L 553.475456 229.435516 
L 553.539619 227.953591 
L 553.603745 228.217556 
L 553.731886 227.161657 
L 553.987725 235.877315 
L 554.051593 235.510959 
L 554.179219 236.543883 
L 554.242977 237.067051 
L 554.306699 234.797751 
L 554.370384 235.082394 
L 554.434032 236.387219 
L 554.497645 235.869896 
L 554.688264 230.56285 
L 554.941915 232.753578 
L 555.068524 228.365481 
L 555.131775 229.533437 
L 555.321311 234.334818 
L 555.384418 232.598762 
L 555.447489 232.822878 
L 555.510524 234.038537 
L 555.76231 226.049684 
L 555.825167 226.464002 
L 555.887989 226.24265 
L 555.950775 226.281848 
L 556.013526 228.121417 
L 556.076242 226.617564 
L 556.138922 226.761877 
L 556.264176 230.147516 
L 556.326751 230.343144 
L 556.514263 226.974237 
L 556.639096 229.480708 
L 556.763789 224.705257 
L 556.826083 225.829206 
L 556.950567 221.331202 
L 557.012756 222.017919 
L 557.137031 226.325923 
L 557.261168 223.98477 
L 557.323184 224.296019 
L 557.447113 222.446656 
L 557.509025 222.863852 
L 557.570903 220.996908 
L 557.632747 223.866711 
L 557.694557 223.170615 
L 557.756332 223.511462 
L 557.879779 220.037939 
L 557.941451 221.397428 
L 558.187799 217.062343 
L 558.310769 215.345478 
L 558.556301 224.758004 
L 558.6176 223.928365 
L 558.678865 223.093002 
L 558.862457 227.785031 
L 558.984683 230.054283 
L 559.167771 225.85781 
L 559.289663 229.885847 
L 559.350559 228.190366 
L 559.411421 229.302557 
L 559.47225 230.23017 
L 559.715235 222.731061 
L 559.775898 223.19563 
L 559.957689 226.700061 
L 560.018221 226.514066 
L 560.078719 227.784354 
L 560.199617 225.457898 
L 560.380718 231.135134 
L 560.501288 233.338479 
L 560.561524 230.623154 
L 560.621728 231.405096 
L 560.742037 232.786481 
L 560.802143 232.042701 
L 560.862216 232.869727 
L 560.922258 231.942198 
L 560.982266 232.067052 
L 561.042243 231.942691 
L 561.102186 232.067039 
L 561.162098 230.881138 
L 561.162098 230.881138 
" clip-path="url(#pc35dc75555)" style="fill: none; stroke: #ff7f0e; stroke-linecap: square"/>
   </g>
   <g id="patch_3">
    <path d="M 48.982813 294.590247 
L 48.982813 22.318125 
" style="fill: none; stroke: #000000; stroke-width: 0.8; stroke-linejoin: miter; stroke-linecap: square"/>
   </g>
   <g id="patch_4">
    <path d="M 561.197812 294.590247 
L 561.197812 22.318125 
" style="fill: none; stroke: #000000; stroke-width: 0.8; stroke-linejoin: miter; stroke-linecap: square"/>
   </g>
   <g id="patch_5">
    <path d="M 48.982813 294.590247 
L 561.197812 294.590247 
" style="fill: none; stroke: #000000; stroke-width: 0.8; stroke-linejoin: miter; stroke-linecap: square"/>
   </g>
   <g id="patch_6">
    <path d="M 48.982813 22.318125 
L 561.197812 22.318125 
" style="fill: none; stroke: #000000; stroke-width: 0.8; stroke-linejoin: miter; stroke-linecap: square"/>
   </g>
   <g id="text_14">
    <!-- Honda Odyssey Blower Setting 5 - Narrow Band SPL (dBA) -->
    <g transform="translate(130.569063 16.318125) scale(0.12 -0.12)">
     <defs>
      <path id="DejaVuSans-6f" d="M 1959 3097 
Q 1497 3097 1228 2736 
Q 959 2375 959 1747 
Q 959 1119 1226 758 
Q 1494 397 1959 397 
Q 2419 397 2687 759 
Q 2956 1122 2956 1747 
Q 2956 2369 2687 2733 
Q 2419 3097 1959 3097 
z
M 1959 3584 
Q 2709 3584 3137 3096 
Q 3566 2609 3566 1747 
Q 3566 888 3137 398 
Q 2709 -91 1959 -91 
Q 1206 -91 779 398 
Q 353 888 353 1747 
Q 353 2609 779 3096 
Q 1206 3584 1959 3584 
z
" transform="scale(0.015625)"/>
      <path id="DejaVuSans-61" d="M 2194 1759 
Q 1497 1759 1228 1600 
Q 959 1441 959 1056 
Q 959 750 1161 570 
Q 1363 391 1709 391 
Q 2188 391 2477 730 
Q 2766 1069 2766 1631 
L 2766 1759 
L 2194 1759 
z
M 3341 1997 
L 3341 0 
L 2766 0 
L 2766 531 
Q 2569 213 2275 61 
Q 1981 -91 1556 -91 
Q 1019 -91 701 211 
Q 384 513 384 1019 
Q 384 1609 779 1909 
Q 1175 2209 1959 2209 
L 2766 2209 
L 2766 2266 
Q 2766 2663 2505 2880 
Q 2244 3097 1772 3097 
Q 1472 3097 1187 3025 
Q 903 2953 641 2809 
L 641 3341 
Q 956 3463 1253 3523 
Q 1550 3584 1831 3584 
Q 2591 3584 2966 3190 
Q 3341 2797 3341 1997 
z
" transform="scale(0.015625)"/>
      <path id="DejaVuSans-4f" d="M 2522 4238 
Q 1834 4238 1429 3725 
Q 1025 3213 1025 2328 
Q 1025 1447 1429 934 
Q 1834 422 2522 422 
Q 3209 422 3611 934 
Q 4013 1447 4013 2328 
Q 4013 3213 3611 3725 
Q 3209 4238 2522 4238 
z
M 2522 4750 
Q 3503 4750 4090 4092 
Q 4678 3434 4678 2328 
Q 4678 1225 4090 567 
Q 3503 -91 2522 -91 
Q 1538 -91 948 565 
Q 359 1222 359 2328 
Q 359 3434 948 4092 
Q 1538 4750 2522 4750 
z
" transform="scale(0.015625)"/>
      <path id="DejaVuSans-73" d="M 2834 3397 
L 2834 2853 
Q 2591 2978 2328 3040 
Q 2066 3103 1784 3103 
Q 1356 3103 1142 2972 
Q 928 2841 928 2578 
Q 928 2378 1081 2264 
Q 1234 2150 1697 2047 
L 1894 2003 
Q 2506 1872 2764 1633 
Q 3022 1394 3022 966 
Q 3022 478 2636 193 
Q 2250 -91 1575 -91 
Q 1294 -91 989 -36 
Q 684 19 347 128 
L 347 722 
Q 666 556 975 473 
Q 1284 391 1588 391 
Q 1994 391 2212 530 
Q 2431 669 2431 922 
Q 2431 1156 2273 1281 
Q 2116 1406 1581 1522 
L 1381 1569 
Q 847 1681 609 1914 
Q 372 2147 372 2553 
Q 372 3047 722 3315 
Q 1072 3584 1716 3584 
Q 2034 3584 2315 3537 
Q 2597 3491 2834 3397 
z
" transform="scale(0.015625)"/>
      <path id="DejaVuSans-6c" d="M 603 4863 
L 1178 4863 
L 1178 0 
L 603 0 
L 603 4863 
z
" transform="scale(0.015625)"/>
      <path id="DejaVuSans-77" d="M 269 3500 
L 844 3500 
L 1563 769 
L 2278 3500 
L 2956 3500 
L 3675 769 
L 4391 3500 
L 4966 3500 
L 4050 0 
L 3372 0 
L 2619 2869 
L 1863 0 
L 1184 0 
L 269 3500 
z
" transform="scale(0.015625)"/>
      <path id="DejaVuSans-74" d="M 1172 4494 
L 1172 3500 
L 2356 3500 
L 2356 3053 
L 1172 3053 
L 1172 1153 
Q 1172 725 1289 603 
Q 1406 481 1766 481 
L 2356 481 
L 2356 0 
L 1766 0 
Q 1100 0 847 248 
Q 594 497 594 1153 
L 594 3053 
L 172 3053 
L 172 3500 
L 594 3500 
L 594 4494 
L 1172 4494 
z
" transform="scale(0.015625)"/>
      <path id="DejaVuSans-69" d="M 603 3500 
L 1178 3500 
L 1178 0 
L 603 0 
L 603 3500 
z
M 603 4863 
L 1178 4863 
L 1178 4134 
L 603 4134 
L 603 4863 
z
" transform="scale(0.015625)"/>
      <path id="DejaVuSans-67" d="M 2906 1791 
Q 2906 2416 2648 2759 
Q 2391 3103 1925 3103 
Q 1463 3103 1205 2759 
Q 947 2416 947 1791 
Q 947 1169 1205 825 
Q 1463 481 1925 481 
Q 2391 481 2648 825 
Q 2906 1169 2906 1791 
z
M 3481 434 
Q 3481 -459 3084 -895 
Q 2688 -1331 1869 -1331 
Q 1566 -1331 1297 -1286 
Q 1028 -1241 775 -1147 
L 775 -588 
Q 1028 -725 1275 -790 
Q 1522 -856 1778 -856 
Q 2344 -856 2625 -561 
Q 2906 -266 2906 331 
L 2906 616 
Q 2728 306 2450 153 
Q 2172 0 1784 0 
Q 1141 0 747 490 
Q 353 981 353 1791 
Q 353 2603 747 3093 
Q 1141 3584 1784 3584 
Q 2172 3584 2450 3431 
Q 2728 3278 2906 2969 
L 2906 3500 
L 3481 3500 
L 3481 434 
z
" transform="scale(0.015625)"/>
      <path id="DejaVuSans-2d" d="M 313 2009 
L 1997 2009 
L 1997 1497 
L 313 1497 
L 313 2009 
z
" transform="scale(0.015625)"/>
      <path id="DejaVuSans-4e" d="M 628 4666 
L 1478 4666 
L 3547 763 
L 3547 4666 
L 4159 4666 
L 4159 0 
L 3309 0 
L 1241 3903 
L 1241 0 
L 628 0 
L 628 4666 
z
" transform="scale(0.015625)"/>
     </defs>
     <use xlink:href="#DejaVuSans-48"/>
     <use xlink:href="#DejaVuSans-6f" transform="translate(75.195312 0)"/>
     <use xlink:href="#DejaVuSans-6e" transform="translate(136.376953 0)"/>
     <use xlink:href="#DejaVuSans-64" transform="translate(199.755859 0)"/>
     <use xlink:href="#DejaVuSans-61" transform="translate(263.232422 0)"/>
     <use xlink:href="#DejaVuSans-20" transform="translate(324.511719 0)"/>
     <use xlink:href="#DejaVuSans-4f" transform="translate(356.298828 0)"/>
     <use xlink:href="#DejaVuSans-64" transform="translate(435.009766 0)"/>
     <use xlink:href="#DejaVuSans-79" transform="translate(498.486328 0)"/>
     <use xlink:href="#DejaVuSans-73" transform="translate(557.666016 0)"/>
     <use xlink:href="#DejaVuSans-73" transform="translate(609.765625 0)"/>
     <use xlink:href="#DejaVuSans-65" transform="translate(661.865234 0)"/>
     <use xlink:href="#DejaVuSans-79" transform="translate(723.388672 0)"/>
     <use xlink:href="#DejaVuSans-20" transform="translate(782.568359 0)"/>
     <use xlink:href="#DejaVuSans-42" transform="translate(814.355469 0)"/>
     <use xlink:href="#DejaVuSans-6c" transform="translate(882.958984 0)"/>
     <use xlink:href="#DejaVuSans-6f" transform="translate(910.742188 0)"/>
     <use xlink:href="#DejaVuSans-77" transform="translate(971.923828 0)"/>
     <use xlink:href="#DejaVuSans-65" transform="translate(1053.710938 0)"/>
     <use xlink:href="#DejaVuSans-72" transform="translate(1115.234375 0)"/>
     <use xlink:href="#DejaVuSans-20" transform="translate(1156.347656 0)"/>
     <use xlink:href="#DejaVuSans-53" transform="translate(1188.134766 0)"/>
     <use xlink:href="#DejaVuSans-65" transform="translate(1251.611328 0)"/>
     <use xlink:href="#DejaVuSans-74" transform="translate(1313.134766 0)"/>
     <use xlink:href="#DejaVuSans-74" transform="translate(1352.34375 0)"/>
     <use xlink:href="#DejaVuSans-69" transform="translate(1391.552734 0)"/>
     <use xlink:href="#DejaVuSans-6e" transform="translate(1419.335938 0)"/>
     <use xlink:href="#DejaVuSans-67" transform="translate(1482.714844 0)"/>
     <use xlink:href="#DejaVuSans-20" transform="translate(1546.191406 0)"/>
     <use xlink:href="#DejaVuSans-35" transform="translate(1577.978516 0)"/>
     <use xlink:href="#DejaVuSans-20" transform="translate(1641.601562 0)"/>
     <use xlink:href="#DejaVuSans-2d" transform="translate(1673.388672 0)"/>
     <use xlink:href="#DejaVuSans-20" transform="translate(1709.472656 0)"/>
     <use xlink:href="#DejaVuSans-4e" transform="translate(1741.259766 0)"/>
     <use xlink:href="#DejaVuSans-61" transform="translate(1816.064453 0)"/>
     <use xlink:href="#DejaVuSans-72" transform="translate(1877.34375 0)"/>
     <use xlink:href="#DejaVuSans-72" transform="translate(1916.707031 0)"/>
     <use xlink:href="#DejaVuSans-6f" transform="translate(1955.570312 0)"/>
     <use xlink:href="#DejaVuSans-77" transform="translate(2016.751953 0)"/>
     <use xlink:href="#DejaVuSans-20" transform="translate(2098.539062 0)"/>
     <use xlink:href="#DejaVuSans-42" transform="translate(2130.326172 0)"/>
     <use xlink:href="#DejaVuSans-61" transform="translate(2198.929688 0)"/>
     <use xlink:href="#DejaVuSans-6e" transform="translate(2260.208984 0)"/>
     <use xlink:href="#DejaVuSans-64" transform="translate(2323.587891 0)"/>
     <use xlink:href="#DejaVuSans-20" transform="translate(2387.064453 0)"/>
     <use xlink:href="#DejaVuSans-53" transform="translate(2418.851562 0)"/>
     <use xlink:href="#DejaVuSans-50" transform="translate(2482.328125 0)"/>
     <use xlink:href="#DejaVuSans-4c" transform="translate(2542.630859 0)"/>
     <use xlink:href="#DejaVuSans-20" transform="translate(2598.34375 0)"/>
     <use xlink:href="#DejaVuSans-28" transform="translate(2630.130859 0)"/>
     <use xlink:href="#DejaVuSans-64" transform="translate(2669.144531 0)"/>
     <use xlink:href="#DejaVuSans-42" transform="translate(2732.621094 0)"/>
     <use xlink:href="#DejaVuSans-41" transform="translate(2801.224609 0)"/>
     <use xlink:href="#DejaVuSans-29" transform="translate(2869.632812 0)"/>
    </g>
   </g>
  </g>
 </g>
 <defs>
  <clipPath id="pc35dc75555">
   <rect x="48.982813" y="22.318125" width="512.215" height="272.272122"/>
  </clipPath>
 </defs>
</svg>
