<?xml version="1.0" encoding="utf-8" standalone="no"?>
<!DOCTYPE svg PUBLIC "-//W3C//DTD SVG 1.1//EN"
  "http://www.w3.org/Graphics/SVG/1.1/DTD/svg11.dtd">
<svg xmlns:xlink="http://www.w3.org/1999/xlink" width="568.397812pt" height="351.806674pt" viewBox="0 0 568.397812 351.806674" xmlns="http://www.w3.org/2000/svg" version="1.1">
 <metadata>
  <rdf:RDF xmlns:dc="http://purl.org/dc/elements/1.1/" xmlns:cc="http://creativecommons.org/ns#" xmlns:rdf="http://www.w3.org/1999/02/22-rdf-syntax-ns#">
   <cc:Work>
    <dc:type rdf:resource="http://purl.org/dc/dcmitype/StillImage"/>
    <dc:date>2025-04-24T19:41:15.082216</dc:date>
    <dc:format>image/svg+xml</dc:format>
    <dc:creator>
     <cc:Agent>
      <dc:title>Matplotlib v3.10.0, https://matplotlib.org/</dc:title>
     </cc:Agent>
    </dc:creator>
   </cc:Work>
  </rdf:RDF>
 </metadata>
 <defs>
  <style type="text/css">*{stroke-linejoin: round; stroke-linecap: butt}</style>
 </defs>
 <g id="figure_1">
  <g id="patch_1">
   <path d="M 0 351.806674 
L 568.397812 351.806674 
L 568.397812 0 
L 0 0 
z
" style="fill: #ffffff"/>
  </g>
  <g id="axes_1">
   <g id="patch_2">
    <path d="M 48.982813 294.590247 
L 561.197812 294.590247 
L 561.197812 22.318125 
L 48.982813 22.318125 
z
" style="fill: #ffffff"/>
   </g>
   <g id="matplotlib.axis_1">
    <g id="xtick_1">
     <g id="line2d_1">
      <path d="M 48.982813 294.590247 
L 48.982813 22.318125 
" clip-path="url(#p9e54863e54)" style="fill: none; stroke-dasharray: 1.85,0.8; stroke-dashoffset: 0; stroke: #b0b0b0; stroke-width: 0.5"/>
     </g>
     <g id="line2d_2">
      <defs>
       <path id="me20df4f7b2" d="M 0 0 
L 0 3.5 
" style="stroke: #000000; stroke-width: 0.8"/>
      </defs>
      <g>
       <use xlink:href="#me20df4f7b2" x="48.982813" y="294.590247" style="stroke: #000000; stroke-width: 0.8"/>
      </g>
     </g>
     <g id="text_1">
      <!-- 100 -->
      <g transform="translate(34.015351 320.460054) rotate(-45) scale(0.1 -0.1)">
       <defs>
        <path id="DejaVuSans-31" d="M 794 531 
L 1825 531 
L 1825 4091 
L 703 3866 
L 703 4441 
L 1819 4666 
L 2450 4666 
L 2450 531 
L 3481 531 
L 3481 0 
L 794 0 
L 794 531 
z
" transform="scale(0.015625)"/>
        <path id="DejaVuSans-30" d="M 2034 4250 
Q 1547 4250 1301 3770 
Q 1056 3291 1056 2328 
Q 1056 1369 1301 889 
Q 1547 409 2034 409 
Q 2525 409 2770 889 
Q 3016 1369 3016 2328 
Q 3016 3291 2770 3770 
Q 2525 4250 2034 4250 
z
M 2034 4750 
Q 2819 4750 3233 4129 
Q 3647 3509 3647 2328 
Q 3647 1150 3233 529 
Q 2819 -91 2034 -91 
Q 1250 -91 836 529 
Q 422 1150 422 2328 
Q 422 3509 836 4129 
Q 1250 4750 2034 4750 
z
" transform="scale(0.015625)"/>
       </defs>
       <use xlink:href="#DejaVuSans-31"/>
       <use xlink:href="#DejaVuSans-30" transform="translate(63.623047 0)"/>
       <use xlink:href="#DejaVuSans-30" transform="translate(127.246094 0)"/>
      </g>
     </g>
    </g>
    <g id="xtick_2">
     <g id="line2d_3">
      <path d="M 305.090312 294.590247 
L 305.090312 22.318125 
" clip-path="url(#p9e54863e54)" style="fill: none; stroke-dasharray: 1.85,0.8; stroke-dashoffset: 0; stroke: #b0b0b0; stroke-width: 0.5"/>
     </g>
     <g id="line2d_4">
      <g>
       <use xlink:href="#me20df4f7b2" x="305.090312" y="294.590247" style="stroke: #000000; stroke-width: 0.8"/>
      </g>
     </g>
     <g id="text_2">
      <!-- 1000 -->
      <g transform="translate(285.623884 324.959021) rotate(-45) scale(0.1 -0.1)">
       <use xlink:href="#DejaVuSans-31"/>
       <use xlink:href="#DejaVuSans-30" transform="translate(63.623047 0)"/>
       <use xlink:href="#DejaVuSans-30" transform="translate(127.246094 0)"/>
       <use xlink:href="#DejaVuSans-30" transform="translate(190.869141 0)"/>
      </g>
     </g>
    </g>
    <g id="xtick_3">
     <g id="line2d_5">
      <path d="M 561.197812 294.590247 
L 561.197812 22.318125 
" clip-path="url(#p9e54863e54)" style="fill: none; stroke-dasharray: 1.85,0.8; stroke-dashoffset: 0; stroke: #b0b0b0; stroke-width: 0.5"/>
     </g>
     <g id="line2d_6">
      <g>
       <use xlink:href="#me20df4f7b2" x="561.197812" y="294.590247" style="stroke: #000000; stroke-width: 0.8"/>
      </g>
     </g>
     <g id="text_3">
      <!-- 10000 -->
      <g transform="translate(537.232417 329.457988) rotate(-45) scale(0.1 -0.1)">
       <use xlink:href="#DejaVuSans-31"/>
       <use xlink:href="#DejaVuSans-30" transform="translate(63.623047 0)"/>
       <use xlink:href="#DejaVuSans-30" transform="translate(127.246094 0)"/>
       <use xlink:href="#DejaVuSans-30" transform="translate(190.869141 0)"/>
       <use xlink:href="#DejaVuSans-30" transform="translate(254.492188 0)"/>
      </g>
     </g>
    </g>
    <g id="xtick_4">
     <g id="line2d_7">
      <path d="M 126.078852 294.590247 
L 126.078852 22.318125 
" clip-path="url(#p9e54863e54)" style="fill: none; stroke-dasharray: 1.85,0.8; stroke-dashoffset: 0; stroke: #b0b0b0; stroke-width: 0.5"/>
     </g>
     <g id="line2d_8">
      <defs>
       <path id="m6842f7a6d2" d="M 0 0 
L 0 2 
" style="stroke: #000000; stroke-width: 0.6"/>
      </defs>
      <g>
       <use xlink:href="#m6842f7a6d2" x="126.078852" y="294.590247" style="stroke: #000000; stroke-width: 0.6"/>
      </g>
     </g>
    </g>
    <g id="xtick_5">
     <g id="line2d_9">
      <path d="M 171.177144 294.590247 
L 171.177144 22.318125 
" clip-path="url(#p9e54863e54)" style="fill: none; stroke-dasharray: 1.85,0.8; stroke-dashoffset: 0; stroke: #b0b0b0; stroke-width: 0.5"/>
     </g>
     <g id="line2d_10">
      <g>
       <use xlink:href="#m6842f7a6d2" x="171.177144" y="294.590247" style="stroke: #000000; stroke-width: 0.6"/>
      </g>
     </g>
    </g>
    <g id="xtick_6">
     <g id="line2d_11">
      <path d="M 203.174892 294.590247 
L 203.174892 22.318125 
" clip-path="url(#p9e54863e54)" style="fill: none; stroke-dasharray: 1.85,0.8; stroke-dashoffset: 0; stroke: #b0b0b0; stroke-width: 0.5"/>
     </g>
     <g id="line2d_12">
      <g>
       <use xlink:href="#m6842f7a6d2" x="203.174892" y="294.590247" style="stroke: #000000; stroke-width: 0.6"/>
      </g>
     </g>
    </g>
    <g id="xtick_7">
     <g id="line2d_13">
      <path d="M 227.994273 294.590247 
L 227.994273 22.318125 
" clip-path="url(#p9e54863e54)" style="fill: none; stroke-dasharray: 1.85,0.8; stroke-dashoffset: 0; stroke: #b0b0b0; stroke-width: 0.5"/>
     </g>
     <g id="line2d_14">
      <g>
       <use xlink:href="#m6842f7a6d2" x="227.994273" y="294.590247" style="stroke: #000000; stroke-width: 0.6"/>
      </g>
     </g>
    </g>
    <g id="xtick_8">
     <g id="line2d_15">
      <path d="M 248.273184 294.590247 
L 248.273184 22.318125 
" clip-path="url(#p9e54863e54)" style="fill: none; stroke-dasharray: 1.85,0.8; stroke-dashoffset: 0; stroke: #b0b0b0; stroke-width: 0.5"/>
     </g>
     <g id="line2d_16">
      <g>
       <use xlink:href="#m6842f7a6d2" x="248.273184" y="294.590247" style="stroke: #000000; stroke-width: 0.6"/>
      </g>
     </g>
    </g>
    <g id="xtick_9">
     <g id="line2d_17">
      <path d="M 265.418759 294.590247 
L 265.418759 22.318125 
" clip-path="url(#p9e54863e54)" style="fill: none; stroke-dasharray: 1.85,0.8; stroke-dashoffset: 0; stroke: #b0b0b0; stroke-width: 0.5"/>
     </g>
     <g id="line2d_18">
      <g>
       <use xlink:href="#m6842f7a6d2" x="265.418759" y="294.590247" style="stroke: #000000; stroke-width: 0.6"/>
      </g>
     </g>
    </g>
    <g id="xtick_10">
     <g id="line2d_19">
      <path d="M 280.270931 294.590247 
L 280.270931 22.318125 
" clip-path="url(#p9e54863e54)" style="fill: none; stroke-dasharray: 1.85,0.8; stroke-dashoffset: 0; stroke: #b0b0b0; stroke-width: 0.5"/>
     </g>
     <g id="line2d_20">
      <g>
       <use xlink:href="#m6842f7a6d2" x="280.270931" y="294.590247" style="stroke: #000000; stroke-width: 0.6"/>
      </g>
     </g>
    </g>
    <g id="xtick_11">
     <g id="line2d_21">
      <path d="M 293.371476 294.590247 
L 293.371476 22.318125 
" clip-path="url(#p9e54863e54)" style="fill: none; stroke-dasharray: 1.85,0.8; stroke-dashoffset: 0; stroke: #b0b0b0; stroke-width: 0.5"/>
     </g>
     <g id="line2d_22">
      <g>
       <use xlink:href="#m6842f7a6d2" x="293.371476" y="294.590247" style="stroke: #000000; stroke-width: 0.6"/>
      </g>
     </g>
    </g>
    <g id="xtick_12">
     <g id="line2d_23">
      <path d="M 382.186352 294.590247 
L 382.186352 22.318125 
" clip-path="url(#p9e54863e54)" style="fill: none; stroke-dasharray: 1.85,0.8; stroke-dashoffset: 0; stroke: #b0b0b0; stroke-width: 0.5"/>
     </g>
     <g id="line2d_24">
      <g>
       <use xlink:href="#m6842f7a6d2" x="382.186352" y="294.590247" style="stroke: #000000; stroke-width: 0.6"/>
      </g>
     </g>
    </g>
    <g id="xtick_13">
     <g id="line2d_25">
      <path d="M 427.284644 294.590247 
L 427.284644 22.318125 
" clip-path="url(#p9e54863e54)" style="fill: none; stroke-dasharray: 1.85,0.8; stroke-dashoffset: 0; stroke: #b0b0b0; stroke-width: 0.5"/>
     </g>
     <g id="line2d_26">
      <g>
       <use xlink:href="#m6842f7a6d2" x="427.284644" y="294.590247" style="stroke: #000000; stroke-width: 0.6"/>
      </g>
     </g>
    </g>
    <g id="xtick_14">
     <g id="line2d_27">
      <path d="M 459.282392 294.590247 
L 459.282392 22.318125 
" clip-path="url(#p9e54863e54)" style="fill: none; stroke-dasharray: 1.85,0.8; stroke-dashoffset: 0; stroke: #b0b0b0; stroke-width: 0.5"/>
     </g>
     <g id="line2d_28">
      <g>
       <use xlink:href="#m6842f7a6d2" x="459.282392" y="294.590247" style="stroke: #000000; stroke-width: 0.6"/>
      </g>
     </g>
    </g>
    <g id="xtick_15">
     <g id="line2d_29">
      <path d="M 484.101773 294.590247 
L 484.101773 22.318125 
" clip-path="url(#p9e54863e54)" style="fill: none; stroke-dasharray: 1.85,0.8; stroke-dashoffset: 0; stroke: #b0b0b0; stroke-width: 0.5"/>
     </g>
     <g id="line2d_30">
      <g>
       <use xlink:href="#m6842f7a6d2" x="484.101773" y="294.590247" style="stroke: #000000; stroke-width: 0.6"/>
      </g>
     </g>
    </g>
    <g id="xtick_16">
     <g id="line2d_31">
      <path d="M 504.380684 294.590247 
L 504.380684 22.318125 
" clip-path="url(#p9e54863e54)" style="fill: none; stroke-dasharray: 1.85,0.8; stroke-dashoffset: 0; stroke: #b0b0b0; stroke-width: 0.5"/>
     </g>
     <g id="line2d_32">
      <g>
       <use xlink:href="#m6842f7a6d2" x="504.380684" y="294.590247" style="stroke: #000000; stroke-width: 0.6"/>
      </g>
     </g>
    </g>
    <g id="xtick_17">
     <g id="line2d_33">
      <path d="M 521.526259 294.590247 
L 521.526259 22.318125 
" clip-path="url(#p9e54863e54)" style="fill: none; stroke-dasharray: 1.85,0.8; stroke-dashoffset: 0; stroke: #b0b0b0; stroke-width: 0.5"/>
     </g>
     <g id="line2d_34">
      <g>
       <use xlink:href="#m6842f7a6d2" x="521.526259" y="294.590247" style="stroke: #000000; stroke-width: 0.6"/>
      </g>
     </g>
    </g>
    <g id="xtick_18">
     <g id="line2d_35">
      <path d="M 536.378431 294.590247 
L 536.378431 22.318125 
" clip-path="url(#p9e54863e54)" style="fill: none; stroke-dasharray: 1.85,0.8; stroke-dashoffset: 0; stroke: #b0b0b0; stroke-width: 0.5"/>
     </g>
     <g id="line2d_36">
      <g>
       <use xlink:href="#m6842f7a6d2" x="536.378431" y="294.590247" style="stroke: #000000; stroke-width: 0.6"/>
      </g>
     </g>
    </g>
    <g id="xtick_19">
     <g id="line2d_37">
      <path d="M 549.478976 294.590247 
L 549.478976 22.318125 
" clip-path="url(#p9e54863e54)" style="fill: none; stroke-dasharray: 1.85,0.8; stroke-dashoffset: 0; stroke: #b0b0b0; stroke-width: 0.5"/>
     </g>
     <g id="line2d_38">
      <g>
       <use xlink:href="#m6842f7a6d2" x="549.478976" y="294.590247" style="stroke: #000000; stroke-width: 0.6"/>
      </g>
     </g>
    </g>
    <g id="text_4">
     <!-- Frequency (Hz) -->
     <g transform="translate(267.385625 342.526987) scale(0.1 -0.1)">
      <defs>
       <path id="DejaVuSans-46" d="M 628 4666 
L 3309 4666 
L 3309 4134 
L 1259 4134 
L 1259 2759 
L 3109 2759 
L 3109 2228 
L 1259 2228 
L 1259 0 
L 628 0 
L 628 4666 
z
" transform="scale(0.015625)"/>
       <path id="DejaVuSans-72" d="M 2631 2963 
Q 2534 3019 2420 3045 
Q 2306 3072 2169 3072 
Q 1681 3072 1420 2755 
Q 1159 2438 1159 1844 
L 1159 0 
L 581 0 
L 581 3500 
L 1159 3500 
L 1159 2956 
Q 1341 3275 1631 3429 
Q 1922 3584 2338 3584 
Q 2397 3584 2469 3576 
Q 2541 3569 2628 3553 
L 2631 2963 
z
" transform="scale(0.015625)"/>
       <path id="DejaVuSans-65" d="M 3597 1894 
L 3597 1613 
L 953 1613 
Q 991 1019 1311 708 
Q 1631 397 2203 397 
Q 2534 397 2845 478 
Q 3156 559 3463 722 
L 3463 178 
Q 3153 47 2828 -22 
Q 2503 -91 2169 -91 
Q 1331 -91 842 396 
Q 353 884 353 1716 
Q 353 2575 817 3079 
Q 1281 3584 2069 3584 
Q 2775 3584 3186 3129 
Q 3597 2675 3597 1894 
z
M 3022 2063 
Q 3016 2534 2758 2815 
Q 2500 3097 2075 3097 
Q 1594 3097 1305 2825 
Q 1016 2553 972 2059 
L 3022 2063 
z
" transform="scale(0.015625)"/>
       <path id="DejaVuSans-71" d="M 947 1747 
Q 947 1113 1208 752 
Q 1469 391 1925 391 
Q 2381 391 2643 752 
Q 2906 1113 2906 1747 
Q 2906 2381 2643 2742 
Q 2381 3103 1925 3103 
Q 1469 3103 1208 2742 
Q 947 2381 947 1747 
z
M 2906 525 
Q 2725 213 2448 61 
Q 2172 -91 1784 -91 
Q 1150 -91 751 415 
Q 353 922 353 1747 
Q 353 2572 751 3078 
Q 1150 3584 1784 3584 
Q 2172 3584 2448 3432 
Q 2725 3281 2906 2969 
L 2906 3500 
L 3481 3500 
L 3481 -1331 
L 2906 -1331 
L 2906 525 
z
" transform="scale(0.015625)"/>
       <path id="DejaVuSans-75" d="M 544 1381 
L 544 3500 
L 1119 3500 
L 1119 1403 
Q 1119 906 1312 657 
Q 1506 409 1894 409 
Q 2359 409 2629 706 
Q 2900 1003 2900 1516 
L 2900 3500 
L 3475 3500 
L 3475 0 
L 2900 0 
L 2900 538 
Q 2691 219 2414 64 
Q 2138 -91 1772 -91 
Q 1169 -91 856 284 
Q 544 659 544 1381 
z
M 1991 3584 
L 1991 3584 
z
" transform="scale(0.015625)"/>
       <path id="DejaVuSans-6e" d="M 3513 2113 
L 3513 0 
L 2938 0 
L 2938 2094 
Q 2938 2591 2744 2837 
Q 2550 3084 2163 3084 
Q 1697 3084 1428 2787 
Q 1159 2491 1159 1978 
L 1159 0 
L 581 0 
L 581 3500 
L 1159 3500 
L 1159 2956 
Q 1366 3272 1645 3428 
Q 1925 3584 2291 3584 
Q 2894 3584 3203 3211 
Q 3513 2838 3513 2113 
z
" transform="scale(0.015625)"/>
       <path id="DejaVuSans-63" d="M 3122 3366 
L 3122 2828 
Q 2878 2963 2633 3030 
Q 2388 3097 2138 3097 
Q 1578 3097 1268 2742 
Q 959 2388 959 1747 
Q 959 1106 1268 751 
Q 1578 397 2138 397 
Q 2388 397 2633 464 
Q 2878 531 3122 666 
L 3122 134 
Q 2881 22 2623 -34 
Q 2366 -91 2075 -91 
Q 1284 -91 818 406 
Q 353 903 353 1747 
Q 353 2603 823 3093 
Q 1294 3584 2113 3584 
Q 2378 3584 2631 3529 
Q 2884 3475 3122 3366 
z
" transform="scale(0.015625)"/>
       <path id="DejaVuSans-79" d="M 2059 -325 
Q 1816 -950 1584 -1140 
Q 1353 -1331 966 -1331 
L 506 -1331 
L 506 -850 
L 844 -850 
Q 1081 -850 1212 -737 
Q 1344 -625 1503 -206 
L 1606 56 
L 191 3500 
L 800 3500 
L 1894 763 
L 2988 3500 
L 3597 3500 
L 2059 -325 
z
" transform="scale(0.015625)"/>
       <path id="DejaVuSans-20" transform="scale(0.015625)"/>
       <path id="DejaVuSans-28" d="M 1984 4856 
Q 1566 4138 1362 3434 
Q 1159 2731 1159 2009 
Q 1159 1288 1364 580 
Q 1569 -128 1984 -844 
L 1484 -844 
Q 1016 -109 783 600 
Q 550 1309 550 2009 
Q 550 2706 781 3412 
Q 1013 4119 1484 4856 
L 1984 4856 
z
" transform="scale(0.015625)"/>
       <path id="DejaVuSans-48" d="M 628 4666 
L 1259 4666 
L 1259 2753 
L 3553 2753 
L 3553 4666 
L 4184 4666 
L 4184 0 
L 3553 0 
L 3553 2222 
L 1259 2222 
L 1259 0 
L 628 0 
L 628 4666 
z
" transform="scale(0.015625)"/>
       <path id="DejaVuSans-7a" d="M 353 3500 
L 3084 3500 
L 3084 2975 
L 922 459 
L 3084 459 
L 3084 0 
L 275 0 
L 275 525 
L 2438 3041 
L 353 3041 
L 353 3500 
z
" transform="scale(0.015625)"/>
       <path id="DejaVuSans-29" d="M 513 4856 
L 1013 4856 
Q 1481 4119 1714 3412 
Q 1947 2706 1947 2009 
Q 1947 1309 1714 600 
Q 1481 -109 1013 -844 
L 513 -844 
Q 928 -128 1133 580 
Q 1338 1288 1338 2009 
Q 1338 2731 1133 3434 
Q 928 4138 513 4856 
z
" transform="scale(0.015625)"/>
      </defs>
      <use xlink:href="#DejaVuSans-46"/>
      <use xlink:href="#DejaVuSans-72" transform="translate(50.269531 0)"/>
      <use xlink:href="#DejaVuSans-65" transform="translate(89.132812 0)"/>
      <use xlink:href="#DejaVuSans-71" transform="translate(150.65625 0)"/>
      <use xlink:href="#DejaVuSans-75" transform="translate(214.132812 0)"/>
      <use xlink:href="#DejaVuSans-65" transform="translate(277.511719 0)"/>
      <use xlink:href="#DejaVuSans-6e" transform="translate(339.035156 0)"/>
      <use xlink:href="#DejaVuSans-63" transform="translate(402.414062 0)"/>
      <use xlink:href="#DejaVuSans-79" transform="translate(457.394531 0)"/>
      <use xlink:href="#DejaVuSans-20" transform="translate(516.574219 0)"/>
      <use xlink:href="#DejaVuSans-28" transform="translate(548.361328 0)"/>
      <use xlink:href="#DejaVuSans-48" transform="translate(587.375 0)"/>
      <use xlink:href="#DejaVuSans-7a" transform="translate(662.570312 0)"/>
      <use xlink:href="#DejaVuSans-29" transform="translate(715.060547 0)"/>
     </g>
    </g>
   </g>
   <g id="matplotlib.axis_2">
    <g id="ytick_1">
     <g id="line2d_39">
      <path d="M 48.982813 294.590247 
L 561.197812 294.590247 
" clip-path="url(#p9e54863e54)" style="fill: none; stroke-dasharray: 1.85,0.8; stroke-dashoffset: 0; stroke: #b0b0b0; stroke-width: 0.5"/>
     </g>
     <g id="line2d_40">
      <defs>
       <path id="mfbf70ce0b5" d="M 0 0 
L -3.5 0 
" style="stroke: #000000; stroke-width: 0.8"/>
      </defs>
      <g>
       <use xlink:href="#mfbf70ce0b5" x="48.982813" y="294.590247" style="stroke: #000000; stroke-width: 0.8"/>
      </g>
     </g>
     <g id="text_5">
      <!-- −20 -->
      <g transform="translate(20.878125 298.389466) scale(0.1 -0.1)">
       <defs>
        <path id="DejaVuSans-2212" d="M 678 2272 
L 4684 2272 
L 4684 1741 
L 678 1741 
L 678 2272 
z
" transform="scale(0.015625)"/>
        <path id="DejaVuSans-32" d="M 1228 531 
L 3431 531 
L 3431 0 
L 469 0 
L 469 531 
Q 828 903 1448 1529 
Q 2069 2156 2228 2338 
Q 2531 2678 2651 2914 
Q 2772 3150 2772 3378 
Q 2772 3750 2511 3984 
Q 2250 4219 1831 4219 
Q 1534 4219 1204 4116 
Q 875 4013 500 3803 
L 500 4441 
Q 881 4594 1212 4672 
Q 1544 4750 1819 4750 
Q 2544 4750 2975 4387 
Q 3406 4025 3406 3419 
Q 3406 3131 3298 2873 
Q 3191 2616 2906 2266 
Q 2828 2175 2409 1742 
Q 1991 1309 1228 531 
z
" transform="scale(0.015625)"/>
       </defs>
       <use xlink:href="#DejaVuSans-2212"/>
       <use xlink:href="#DejaVuSans-32" transform="translate(83.789062 0)"/>
       <use xlink:href="#DejaVuSans-30" transform="translate(147.412109 0)"/>
      </g>
     </g>
    </g>
    <g id="ytick_2">
     <g id="line2d_41">
      <path d="M 48.982813 255.694229 
L 561.197812 255.694229 
" clip-path="url(#p9e54863e54)" style="fill: none; stroke-dasharray: 1.85,0.8; stroke-dashoffset: 0; stroke: #b0b0b0; stroke-width: 0.5"/>
     </g>
     <g id="line2d_42">
      <g>
       <use xlink:href="#mfbf70ce0b5" x="48.982813" y="255.694229" style="stroke: #000000; stroke-width: 0.8"/>
      </g>
     </g>
     <g id="text_6">
      <!-- −10 -->
      <g transform="translate(20.878125 259.493448) scale(0.1 -0.1)">
       <use xlink:href="#DejaVuSans-2212"/>
       <use xlink:href="#DejaVuSans-31" transform="translate(83.789062 0)"/>
       <use xlink:href="#DejaVuSans-30" transform="translate(147.412109 0)"/>
      </g>
     </g>
    </g>
    <g id="ytick_3">
     <g id="line2d_43">
      <path d="M 48.982813 216.798212 
L 561.197812 216.798212 
" clip-path="url(#p9e54863e54)" style="fill: none; stroke-dasharray: 1.85,0.8; stroke-dashoffset: 0; stroke: #b0b0b0; stroke-width: 0.5"/>
     </g>
     <g id="line2d_44">
      <g>
       <use xlink:href="#mfbf70ce0b5" x="48.982813" y="216.798212" style="stroke: #000000; stroke-width: 0.8"/>
      </g>
     </g>
     <g id="text_7">
      <!-- 0 -->
      <g transform="translate(35.620313 220.597431) scale(0.1 -0.1)">
       <use xlink:href="#DejaVuSans-30"/>
      </g>
     </g>
    </g>
    <g id="ytick_4">
     <g id="line2d_45">
      <path d="M 48.982813 177.902195 
L 561.197812 177.902195 
" clip-path="url(#p9e54863e54)" style="fill: none; stroke-dasharray: 1.85,0.8; stroke-dashoffset: 0; stroke: #b0b0b0; stroke-width: 0.5"/>
     </g>
     <g id="line2d_46">
      <g>
       <use xlink:href="#mfbf70ce0b5" x="48.982813" y="177.902195" style="stroke: #000000; stroke-width: 0.8"/>
      </g>
     </g>
     <g id="text_8">
      <!-- 10 -->
      <g transform="translate(29.257813 181.701413) scale(0.1 -0.1)">
       <use xlink:href="#DejaVuSans-31"/>
       <use xlink:href="#DejaVuSans-30" transform="translate(63.623047 0)"/>
      </g>
     </g>
    </g>
    <g id="ytick_5">
     <g id="line2d_47">
      <path d="M 48.982813 139.006177 
L 561.197812 139.006177 
" clip-path="url(#p9e54863e54)" style="fill: none; stroke-dasharray: 1.85,0.8; stroke-dashoffset: 0; stroke: #b0b0b0; stroke-width: 0.5"/>
     </g>
     <g id="line2d_48">
      <g>
       <use xlink:href="#mfbf70ce0b5" x="48.982813" y="139.006177" style="stroke: #000000; stroke-width: 0.8"/>
      </g>
     </g>
     <g id="text_9">
      <!-- 20 -->
      <g transform="translate(29.257813 142.805396) scale(0.1 -0.1)">
       <use xlink:href="#DejaVuSans-32"/>
       <use xlink:href="#DejaVuSans-30" transform="translate(63.623047 0)"/>
      </g>
     </g>
    </g>
    <g id="ytick_6">
     <g id="line2d_49">
      <path d="M 48.982813 100.11016 
L 561.197812 100.11016 
" clip-path="url(#p9e54863e54)" style="fill: none; stroke-dasharray: 1.85,0.8; stroke-dashoffset: 0; stroke: #b0b0b0; stroke-width: 0.5"/>
     </g>
     <g id="line2d_50">
      <g>
       <use xlink:href="#mfbf70ce0b5" x="48.982813" y="100.11016" style="stroke: #000000; stroke-width: 0.8"/>
      </g>
     </g>
     <g id="text_10">
      <!-- 30 -->
      <g transform="translate(29.257813 103.909379) scale(0.1 -0.1)">
       <defs>
        <path id="DejaVuSans-33" d="M 2597 2516 
Q 3050 2419 3304 2112 
Q 3559 1806 3559 1356 
Q 3559 666 3084 287 
Q 2609 -91 1734 -91 
Q 1441 -91 1130 -33 
Q 819 25 488 141 
L 488 750 
Q 750 597 1062 519 
Q 1375 441 1716 441 
Q 2309 441 2620 675 
Q 2931 909 2931 1356 
Q 2931 1769 2642 2001 
Q 2353 2234 1838 2234 
L 1294 2234 
L 1294 2753 
L 1863 2753 
Q 2328 2753 2575 2939 
Q 2822 3125 2822 3475 
Q 2822 3834 2567 4026 
Q 2313 4219 1838 4219 
Q 1578 4219 1281 4162 
Q 984 4106 628 3988 
L 628 4550 
Q 988 4650 1302 4700 
Q 1616 4750 1894 4750 
Q 2613 4750 3031 4423 
Q 3450 4097 3450 3541 
Q 3450 3153 3228 2886 
Q 3006 2619 2597 2516 
z
" transform="scale(0.015625)"/>
       </defs>
       <use xlink:href="#DejaVuSans-33"/>
       <use xlink:href="#DejaVuSans-30" transform="translate(63.623047 0)"/>
      </g>
     </g>
    </g>
    <g id="ytick_7">
     <g id="line2d_51">
      <path d="M 48.982813 61.214142 
L 561.197812 61.214142 
" clip-path="url(#p9e54863e54)" style="fill: none; stroke-dasharray: 1.85,0.8; stroke-dashoffset: 0; stroke: #b0b0b0; stroke-width: 0.5"/>
     </g>
     <g id="line2d_52">
      <g>
       <use xlink:href="#mfbf70ce0b5" x="48.982813" y="61.214142" style="stroke: #000000; stroke-width: 0.8"/>
      </g>
     </g>
     <g id="text_11">
      <!-- 40 -->
      <g transform="translate(29.257813 65.013361) scale(0.1 -0.1)">
       <defs>
        <path id="DejaVuSans-34" d="M 2419 4116 
L 825 1625 
L 2419 1625 
L 2419 4116 
z
M 2253 4666 
L 3047 4666 
L 3047 1625 
L 3713 1625 
L 3713 1100 
L 3047 1100 
L 3047 0 
L 2419 0 
L 2419 1100 
L 313 1100 
L 313 1709 
L 2253 4666 
z
" transform="scale(0.015625)"/>
       </defs>
       <use xlink:href="#DejaVuSans-34"/>
       <use xlink:href="#DejaVuSans-30" transform="translate(63.623047 0)"/>
      </g>
     </g>
    </g>
    <g id="ytick_8">
     <g id="line2d_53">
      <path d="M 48.982813 22.318125 
L 561.197812 22.318125 
" clip-path="url(#p9e54863e54)" style="fill: none; stroke-dasharray: 1.85,0.8; stroke-dashoffset: 0; stroke: #b0b0b0; stroke-width: 0.5"/>
     </g>
     <g id="line2d_54">
      <g>
       <use xlink:href="#mfbf70ce0b5" x="48.982813" y="22.318125" style="stroke: #000000; stroke-width: 0.8"/>
      </g>
     </g>
     <g id="text_12">
      <!-- 50 -->
      <g transform="translate(29.257813 26.117344) scale(0.1 -0.1)">
       <defs>
        <path id="DejaVuSans-35" d="M 691 4666 
L 3169 4666 
L 3169 4134 
L 1269 4134 
L 1269 2991 
Q 1406 3038 1543 3061 
Q 1681 3084 1819 3084 
Q 2600 3084 3056 2656 
Q 3513 2228 3513 1497 
Q 3513 744 3044 326 
Q 2575 -91 1722 -91 
Q 1428 -91 1123 -41 
Q 819 9 494 109 
L 494 744 
Q 775 591 1075 516 
Q 1375 441 1709 441 
Q 2250 441 2565 725 
Q 2881 1009 2881 1497 
Q 2881 1984 2565 2268 
Q 2250 2553 1709 2553 
Q 1456 2553 1204 2497 
Q 953 2441 691 2322 
L 691 4666 
z
" transform="scale(0.015625)"/>
       </defs>
       <use xlink:href="#DejaVuSans-35"/>
       <use xlink:href="#DejaVuSans-30" transform="translate(63.623047 0)"/>
      </g>
     </g>
    </g>
    <g id="text_13">
     <!-- SPL (dBA) -->
     <g transform="translate(14.798438 182.944811) rotate(-90) scale(0.1 -0.1)">
      <defs>
       <path id="DejaVuSans-53" d="M 3425 4513 
L 3425 3897 
Q 3066 4069 2747 4153 
Q 2428 4238 2131 4238 
Q 1616 4238 1336 4038 
Q 1056 3838 1056 3469 
Q 1056 3159 1242 3001 
Q 1428 2844 1947 2747 
L 2328 2669 
Q 3034 2534 3370 2195 
Q 3706 1856 3706 1288 
Q 3706 609 3251 259 
Q 2797 -91 1919 -91 
Q 1588 -91 1214 -16 
Q 841 59 441 206 
L 441 856 
Q 825 641 1194 531 
Q 1563 422 1919 422 
Q 2459 422 2753 634 
Q 3047 847 3047 1241 
Q 3047 1584 2836 1778 
Q 2625 1972 2144 2069 
L 1759 2144 
Q 1053 2284 737 2584 
Q 422 2884 422 3419 
Q 422 4038 858 4394 
Q 1294 4750 2059 4750 
Q 2388 4750 2728 4690 
Q 3069 4631 3425 4513 
z
" transform="scale(0.015625)"/>
       <path id="DejaVuSans-50" d="M 1259 4147 
L 1259 2394 
L 2053 2394 
Q 2494 2394 2734 2622 
Q 2975 2850 2975 3272 
Q 2975 3691 2734 3919 
Q 2494 4147 2053 4147 
L 1259 4147 
z
M 628 4666 
L 2053 4666 
Q 2838 4666 3239 4311 
Q 3641 3956 3641 3272 
Q 3641 2581 3239 2228 
Q 2838 1875 2053 1875 
L 1259 1875 
L 1259 0 
L 628 0 
L 628 4666 
z
" transform="scale(0.015625)"/>
       <path id="DejaVuSans-4c" d="M 628 4666 
L 1259 4666 
L 1259 531 
L 3531 531 
L 3531 0 
L 628 0 
L 628 4666 
z
" transform="scale(0.015625)"/>
       <path id="DejaVuSans-64" d="M 2906 2969 
L 2906 4863 
L 3481 4863 
L 3481 0 
L 2906 0 
L 2906 525 
Q 2725 213 2448 61 
Q 2172 -91 1784 -91 
Q 1150 -91 751 415 
Q 353 922 353 1747 
Q 353 2572 751 3078 
Q 1150 3584 1784 3584 
Q 2172 3584 2448 3432 
Q 2725 3281 2906 2969 
z
M 947 1747 
Q 947 1113 1208 752 
Q 1469 391 1925 391 
Q 2381 391 2643 752 
Q 2906 1113 2906 1747 
Q 2906 2381 2643 2742 
Q 2381 3103 1925 3103 
Q 1469 3103 1208 2742 
Q 947 2381 947 1747 
z
" transform="scale(0.015625)"/>
       <path id="DejaVuSans-42" d="M 1259 2228 
L 1259 519 
L 2272 519 
Q 2781 519 3026 730 
Q 3272 941 3272 1375 
Q 3272 1813 3026 2020 
Q 2781 2228 2272 2228 
L 1259 2228 
z
M 1259 4147 
L 1259 2741 
L 2194 2741 
Q 2656 2741 2882 2914 
Q 3109 3088 3109 3444 
Q 3109 3797 2882 3972 
Q 2656 4147 2194 4147 
L 1259 4147 
z
M 628 4666 
L 2241 4666 
Q 2963 4666 3353 4366 
Q 3744 4066 3744 3513 
Q 3744 3084 3544 2831 
Q 3344 2578 2956 2516 
Q 3422 2416 3680 2098 
Q 3938 1781 3938 1306 
Q 3938 681 3513 340 
Q 3088 0 2303 0 
L 628 0 
L 628 4666 
z
" transform="scale(0.015625)"/>
       <path id="DejaVuSans-41" d="M 2188 4044 
L 1331 1722 
L 3047 1722 
L 2188 4044 
z
M 1831 4666 
L 2547 4666 
L 4325 0 
L 3669 0 
L 3244 1197 
L 1141 1197 
L 716 0 
L 50 0 
L 1831 4666 
z
" transform="scale(0.015625)"/>
      </defs>
      <use xlink:href="#DejaVuSans-53"/>
      <use xlink:href="#DejaVuSans-50" transform="translate(63.476562 0)"/>
      <use xlink:href="#DejaVuSans-4c" transform="translate(123.779297 0)"/>
      <use xlink:href="#DejaVuSans-20" transform="translate(179.492188 0)"/>
      <use xlink:href="#DejaVuSans-28" transform="translate(211.279297 0)"/>
      <use xlink:href="#DejaVuSans-64" transform="translate(250.292969 0)"/>
      <use xlink:href="#DejaVuSans-42" transform="translate(313.769531 0)"/>
      <use xlink:href="#DejaVuSans-41" transform="translate(382.373047 0)"/>
      <use xlink:href="#DejaVuSans-29" transform="translate(450.78125 0)"/>
     </g>
    </g>
   </g>
   <g id="line2d_55">
    <path d="M 51.493242 70.059686 
L 57.198394 71.25527 
L 62.625131 73.320249 
L 67.79937 83.185697 
L 72.743565 86.424525 
L 77.477304 82.580019 
L 86.38014 89.139011 
L 90.577849 88.593657 
L 94.622879 84.064802 
L 98.525949 80.152422 
L 102.296685 77.735539 
L 105.943768 72.255168 
L 109.475052 74.504655 
L 112.897663 77.352008 
L 116.218091 76.703091 
L 119.44226 77.318945 
L 122.575596 79.312795 
L 125.623077 82.887143 
L 128.589281 85.620843 
L 131.478432 87.253215 
L 134.294433 87.209114 
L 137.040895 87.978259 
L 139.721171 83.00169 
L 142.338376 80.699852 
L 144.89541 79.88798 
L 147.394977 81.283258 
L 149.839605 83.003637 
L 152.231656 83.193805 
L 154.573344 84.397324 
L 156.866746 85.335961 
L 159.113814 87.451873 
L 161.316383 90.898797 
L 163.47618 93.110067 
L 165.594836 90.532145 
L 167.673888 90.533457 
L 169.714791 87.714856 
L 171.718919 85.407505 
L 175.621988 75.702927 
L 177.523335 69.5849 
L 179.392725 64.160259 
L 181.231214 61.585531 
L 183.039808 63.209529 
L 184.819463 68.077233 
L 186.571091 75.998045 
L 188.295561 80.674621 
L 189.993702 84.03876 
L 191.666306 84.700276 
L 193.31413 86.391395 
L 194.937897 88.828801 
L 198.116001 82.399688 
L 199.671636 80.542498 
L 201.205813 80.717372 
L 202.719116 80.262333 
L 204.212106 77.076618 
L 205.685321 78.773862 
L 207.139277 80.027139 
L 208.574472 83.657002 
L 209.991384 85.6373 
L 211.390472 88.585779 
L 212.77218 90.690596 
L 214.136935 90.334299 
L 215.485146 90.957273 
L 216.817211 94.891926 
L 218.133511 96.352191 
L 219.434416 98.981683 
L 220.720281 100.18893 
L 221.99145 99.641992 
L 223.248255 97.736487 
L 228.1381 75.983778 
L 229.327695 74.685342 
L 230.504702 71.643146 
L 231.669383 70.333047 
L 232.821996 71.974484 
L 233.962786 73.918772 
L 235.091994 79.244138 
L 236.209854 82.15986 
L 237.31659 86.297789 
L 238.412422 89.094397 
L 239.497563 89.562628 
L 240.572219 91.763468 
L 241.636592 94.927843 
L 242.690875 93.149574 
L 243.735259 94.909848 
L 244.769928 96.017784 
L 245.79506 91.544585 
L 246.810831 87.760936 
L 248.814958 84.564949 
L 249.803641 80.012102 
L 251.755026 79.597589 
L 252.718028 81.183186 
L 253.672764 83.621167 
L 254.619375 88.433455 
L 255.557997 89.578163 
L 256.488765 90.423334 
L 257.411808 93.583735 
L 258.327254 94.075722 
L 259.235227 93.542473 
L 260.135848 92.518917 
L 261.029235 91.118802 
L 261.915503 90.116074 
L 262.794765 92.087048 
L 263.667131 96.123764 
L 265.391601 105.641351 
L 266.243912 108.151444 
L 267.089742 107.522096 
L 267.929188 106.285256 
L 268.762346 106.373709 
L 269.589309 101.839607 
L 270.41017 99.86171 
L 272.033937 90.593959 
L 272.837017 89.860167 
L 273.634339 88.030475 
L 274.425987 88.837735 
L 275.212041 90.714197 
L 275.992578 89.900704 
L 276.767675 90.946571 
L 277.537409 93.115715 
L 279.815156 102.918105 
L 280.564156 105.307661 
L 281.308146 108.222787 
L 282.047192 106.66817 
L 282.78136 102.347828 
L 283.510714 100.153848 
L 284.235317 99.848583 
L 284.955229 97.341233 
L 285.670512 96.027987 
L 286.381224 95.233547 
L 287.087423 93.591033 
L 287.789168 90.167866 
L 288.486512 89.699442 
L 289.86822 83.479385 
L 290.55269 82.040079 
L 291.232974 82.727918 
L 291.909123 82.667754 
L 292.581186 84.549025 
L 293.249212 87.185728 
L 293.91325 88.824226 
L 294.573348 93.21658 
L 295.229551 95.246339 
L 295.881905 93.597276 
L 296.530455 92.849958 
L 297.81632 96.848482 
L 299.087489 102.905826 
L 299.717667 104.174656 
L 300.344294 102.157782 
L 302.203269 107.136974 
L 302.816087 107.431024 
L 303.425546 108.829948 
L 304.031684 110.524843 
L 304.634537 111.761108 
L 305.23414 111.022442 
L 306.423735 107.968079 
L 307.600741 100.347328 
L 308.184607 97.584375 
L 308.765423 96.885071 
L 309.343222 94.339662 
L 309.918035 95.01059 
L 310.489893 97.048881 
L 311.058825 96.941515 
L 311.624863 96.689327 
L 312.748368 98.740895 
L 313.305893 100.962349 
L 313.860638 99.000564 
L 314.412629 94.271198 
L 314.961895 95.198587 
L 315.508462 93.225666 
L 316.052356 88.853577 
L 316.593603 88.031428 
L 317.132229 88.840008 
L 317.668259 92.92844 
L 318.201719 93.890246 
L 318.732632 93.666671 
L 319.261022 95.654164 
L 319.786915 93.886186 
L 320.310333 94.025131 
L 320.831299 96.650883 
L 321.865968 105.452203 
L 322.379715 114.738515 
L 322.8911 118.091483 
L 323.400145 120.186117 
L 323.90687 118.994698 
L 324.913448 108.732943 
L 325.413341 106.713482 
L 325.910998 108.835545 
L 326.406438 109.769597 
L 326.899681 111.757295 
L 327.879652 120.334948 
L 328.366419 122.847802 
L 328.851065 122.288491 
L 329.333609 120.961861 
L 330.29246 114.711659 
L 330.768804 112.667738 
L 331.243116 107.859029 
L 332.185716 103.208806 
L 332.654037 99.144676 
L 333.120394 96.62799 
L 333.584804 97.398935 
L 334.047283 100.0325 
L 334.507847 100.176033 
L 335.423294 102.338341 
L 335.878206 106.892152 
L 336.331266 109.275484 
L 336.782489 109.55054 
L 337.231887 110.875416 
L 337.679478 117.853908 
L 338.125274 121.120005 
L 338.569291 123.370155 
L 339.011543 123.712963 
L 339.452042 120.549849 
L 339.890805 115.079126 
L 340.327843 114.052126 
L 340.76317 116.801483 
L 342.059023 107.603036 
L 342.48764 106.363016 
L 343.339952 108.058864 
L 343.76367 110.157438 
L 345.025227 102.500252 
L 345.442586 102.179439 
L 345.858385 102.188683 
L 346.272636 101.78349 
L 346.685349 104.40889 
L 347.096536 104.880484 
L 347.506209 104.043249 
L 347.914379 104.470025 
L 348.726251 107.987733 
L 349.129976 109.858824 
L 349.532241 113.63274 
L 349.933056 115.329068 
L 350.332432 115.823787 
L 350.730379 115.386257 
L 351.126907 114.605563 
L 351.522027 113.201449 
L 352.30808 108.610695 
L 352.699034 108.717652 
L 353.088617 108.203966 
L 353.476841 111.442319 
L 353.863715 116.530704 
L 354.249248 119.102042 
L 354.633449 119.133559 
L 355.397892 113.825558 
L 355.778153 110.104047 
L 356.157118 104.646618 
L 356.534795 103.010533 
L 356.911195 100.86017 
L 357.286326 99.677653 
L 357.660195 96.618296 
L 358.032812 95.254129 
L 358.404185 95.37917 
L 358.774322 94.60315 
L 359.143232 92.848239 
L 359.510922 93.80306 
L 359.8774 93.429728 
L 360.242675 93.498678 
L 360.606754 92.149834 
L 360.969645 94.531382 
L 361.331356 95.791158 
L 361.691895 95.085479 
L 362.051269 99.446299 
L 362.409485 101.322725 
L 362.766551 101.447709 
L 363.122475 102.493831 
L 363.477263 102.730756 
L 363.830924 106.373739 
L 364.183463 108.377736 
L 364.534889 107.700316 
L 364.885207 108.820102 
L 365.234426 107.502635 
L 365.582552 107.444476 
L 365.929591 106.978911 
L 366.275551 107.333727 
L 366.620439 111.408518 
L 366.96426 113.08718 
L 367.307021 115.738689 
L 367.989392 118.08838 
L 368.329014 119.817688 
L 369.341702 121.928297 
L 369.677225 120.110663 
L 370.677766 113.567111 
L 371.00929 113.413906 
L 371.997973 106.796865 
L 372.32559 105.254487 
L 372.652246 105.525607 
L 372.977945 104.490424 
L 373.302692 105.02237 
L 373.626495 107.52672 
L 373.949357 108.562058 
L 374.271286 113.949487 
L 374.91236 120.586483 
L 375.231517 121.847533 
L 375.54976 123.796867 
L 375.867096 120.314134 
L 376.183529 120.100341 
L 376.499064 121.069994 
L 376.813707 118.402811 
L 377.127461 118.705466 
L 377.440334 117.572778 
L 377.752329 119.866572 
L 378.063451 120.298437 
L 378.373705 117.138093 
L 378.683096 115.138396 
L 378.991629 116.981638 
L 379.299309 119.623551 
L 379.60614 120.225001 
L 379.912126 122.011847 
L 380.217273 127.873273 
L 380.521586 131.319082 
L 380.825068 130.601868 
L 381.127724 133.208095 
L 381.730577 130.050743 
L 382.33018 121.873932 
L 382.926567 117.444455 
L 383.223566 115.024649 
L 383.519775 113.944037 
L 383.815196 114.914437 
L 384.109835 114.89751 
L 384.403695 118.204221 
L 384.696781 118.775819 
L 384.989097 118.454601 
L 385.280646 118.821705 
L 385.861463 123.582604 
L 386.150737 123.166392 
L 386.439262 125.6388 
L 386.72704 124.549954 
L 387.014075 124.481049 
L 387.585932 121.044091 
L 387.870762 120.568939 
L 388.154865 120.874002 
L 388.720902 115.387308 
L 389.002844 114.185966 
L 389.284073 111.887756 
L 389.844407 109.720017 
L 390.401933 110.813393 
L 390.679651 110.025829 
L 390.956677 110.614922 
L 391.508669 106.810217 
L 391.783641 108.583693 
L 392.057935 108.071739 
L 392.331554 105.180818 
L 392.604501 105.798777 
L 392.876781 106.85671 
L 393.148395 104.681623 
L 393.419348 106.058885 
L 393.959281 107.368051 
L 394.496606 110.453584 
L 394.764299 112.453066 
L 395.297758 118.235301 
L 395.563531 119.069514 
L 395.828671 121.260517 
L 396.09318 119.79292 
L 396.357062 122.397696 
L 396.620319 122.747274 
L 396.882955 123.890524 
L 397.144971 124.313941 
L 397.406372 125.486636 
L 397.667161 127.437509 
L 397.927339 125.493528 
L 398.18691 121.873252 
L 398.445876 121.813303 
L 398.704241 123.308991 
L 398.962007 122.979741 
L 399.219177 124.021013 
L 399.731741 121.306456 
L 399.98714 120.395065 
L 400.241953 125.00865 
L 400.749836 126.539875 
L 401.00291 125.622657 
L 401.507337 130.070922 
L 401.758696 130.94834 
L 402.009488 134.815098 
L 402.259715 134.721529 
L 402.509381 136.723184 
L 402.758488 136.072037 
L 403.502477 138.777498 
L 403.749372 137.149033 
L 403.99572 136.364167 
L 404.241524 134.092296 
L 404.486785 137.781591 
L 404.731507 138.127958 
L 404.975692 139.420007 
L 405.219342 139.425684 
L 405.462459 136.014952 
L 405.705046 135.844161 
L 405.947105 136.908804 
L 406.188638 136.374976 
L 406.429648 136.858498 
L 406.670137 136.181821 
L 406.910107 137.70885 
L 407.149561 137.994347 
L 407.626927 140.790832 
L 407.864843 141.458419 
L 408.339156 138.61952 
L 408.575556 137.381234 
L 408.811454 139.244804 
L 409.046853 138.514208 
L 409.516162 141.223625 
L 409.750076 141.155012 
L 409.983499 142.829036 
L 410.216434 142.549046 
L 410.448881 141.621439 
L 410.680844 142.241498 
L 410.912324 143.642423 
L 411.143323 144.166275 
L 411.373843 148.078706 
L 411.603887 148.633893 
L 411.833456 147.952996 
L 412.062552 145.279627 
L 412.291177 145.070269 
L 412.519333 146.118621 
L 412.747022 144.490421 
L 412.974246 143.680382 
L 413.201007 144.793493 
L 413.427306 144.295513 
L 413.653146 148.790294 
L 413.878528 150.419402 
L 414.103455 150.346168 
L 414.551947 155.235751 
L 414.775517 153.780273 
L 414.998639 153.409107 
L 415.221314 152.610272 
L 415.443544 150.21548 
L 415.665331 150.891291 
L 415.886676 154.031584 
L 416.32805 154.348648 
L 416.548082 156.596572 
L 416.76768 155.691116 
L 416.986844 154.18421 
L 417.205578 156.305446 
L 417.641759 153.368765 
L 418.076237 157.505402 
L 418.292841 156.75437 
L 418.509023 157.596672 
L 418.724787 159.53118 
L 418.940133 157.563507 
L 419.155063 159.470874 
L 419.797371 156.376974 
L 420.010652 156.019248 
L 420.223525 155.384236 
L 420.435991 155.249737 
L 420.648052 156.624171 
L 421.070966 164.234581 
L 421.281821 163.960151 
L 421.702336 168.211872 
L 421.911999 168.270085 
L 422.74672 154.52554 
L 422.954425 155.098663 
L 423.161743 157.24743 
L 423.575223 152.87322 
L 423.781388 155.553065 
L 423.987172 155.18226 
L 424.192576 158.304832 
L 424.397601 158.887529 
L 424.602249 160.593967 
L 424.806521 160.346383 
L 425.010418 160.496949 
L 425.213943 161.019144 
L 425.619878 158.395486 
L 426.024337 153.765576 
L 426.226016 157.255063 
L 426.42733 158.064785 
L 427.428472 169.373282 
L 427.627623 170.185289 
L 428.02486 168.659739 
L 428.420682 170.867016 
L 428.618067 171.373837 
L 429.011788 175.114519 
L 429.40412 169.930078 
L 429.795073 164.596603 
L 429.990036 163.928596 
L 430.184657 163.79145 
L 430.378938 164.696321 
L 430.572881 164.247222 
L 430.766486 161.210974 
L 430.959755 160.544944 
L 431.152688 162.628804 
L 431.729488 164.195353 
L 431.921092 165.438707 
L 432.112367 165.192895 
L 432.303313 165.660143 
L 432.493932 166.836069 
L 432.684225 166.919995 
L 432.874192 166.872016 
L 433.063836 167.372605 
L 433.442156 162.114513 
L 433.630835 161.663137 
L 433.819194 162.456997 
L 434.007235 160.284562 
L 434.194958 164.113038 
L 434.569457 166.557891 
L 434.9427 165.771056 
L 435.128852 164.369917 
L 435.314693 164.267455 
L 435.500225 166.703768 
L 435.685447 165.33487 
L 435.870362 166.500001 
L 436.05497 166.866447 
L 436.239271 168.799446 
L 436.423268 168.897052 
L 436.973439 164.696368 
L 437.156227 164.756263 
L 437.338714 162.914885 
L 437.702793 164.561528 
L 437.884387 164.174103 
L 438.065685 163.021789 
L 438.246687 162.759524 
L 438.427396 163.524666 
L 438.607811 162.135467 
L 438.787934 161.764802 
L 439.147308 157.801788 
L 439.326561 159.458347 
L 439.505525 157.635882 
L 439.684201 159.803254 
L 439.862591 159.44255 
L 440.040695 159.724521 
L 440.218515 161.282964 
L 440.39605 160.747331 
L 440.573303 160.735404 
L 440.750274 162.537368 
L 440.926963 159.558189 
L 441.103373 159.809013 
L 441.455354 162.10611 
L 441.630928 161.047841 
L 441.806225 162.57013 
L 441.981247 165.450175 
L 442.155993 164.479424 
L 442.330466 166.16989 
L 442.504665 166.585852 
L 442.678591 168.928413 
L 442.852246 169.352784 
L 443.025631 168.909145 
L 443.198745 167.781241 
L 443.371591 168.166981 
L 443.716478 172.179449 
L 444.060299 168.474638 
L 444.403061 164.702311 
L 444.74477 164.207706 
L 444.915231 162.773523 
L 445.085432 165.349712 
L 445.255372 165.010707 
L 445.425054 164.423492 
L 445.763642 170.893177 
L 445.93255 170.150492 
L 446.101202 168.775354 
L 446.269599 171.59523 
L 446.437741 171.772301 
L 446.60563 171.196291 
L 446.773265 172.044035 
L 446.940648 171.85322 
L 447.10778 173.007192 
L 447.274661 171.264753 
L 447.607673 173.420322 
L 447.939691 174.241796 
L 448.10533 176.08061 
L 448.60077 171.399726 
L 448.765427 170.428514 
L 448.929841 167.336279 
L 449.257942 169.584665 
L 449.42163 169.335322 
L 449.585078 168.267431 
L 449.748285 168.379807 
L 450.236477 172.701011 
L 450.398732 172.644252 
L 450.560751 169.437952 
L 450.722535 170.594474 
L 450.884083 169.624837 
L 451.045397 169.753475 
L 451.206478 170.15627 
L 451.52794 172.791302 
L 451.848477 169.166882 
L 452.008399 168.458631 
L 452.168092 166.589294 
L 452.327556 167.204987 
L 452.486792 170.050229 
L 452.804581 171.237186 
L 453.437448 180.366778 
L 453.752536 175.524217 
L 453.909746 175.879325 
L 454.066734 177.289676 
L 454.223501 175.992407 
L 454.380047 175.930659 
L 454.69248 177.194979 
L 455.15949 176.411299 
L 455.779136 184.417305 
L 455.933509 184.926113 
L 456.087669 184.336626 
L 456.241615 184.881286 
L 456.395348 181.517188 
L 456.54887 182.837892 
L 456.702179 182.026767 
L 456.855278 182.337265 
L 457.008166 182.194784 
L 457.160844 181.639182 
L 457.313313 180.205444 
L 457.465573 181.939472 
L 457.617625 181.236405 
L 458.223763 173.859305 
L 458.525598 170.367493 
L 458.676209 169.058444 
L 458.97682 170.741893 
L 459.126822 170.297752 
L 459.276621 172.336379 
L 459.426219 169.926399 
L 459.575616 169.398235 
L 459.724813 167.583127 
L 459.87381 168.806812 
L 460.022607 168.806144 
L 460.171206 168.039392 
L 460.319606 166.496766 
L 460.467809 166.709594 
L 460.615814 165.699966 
L 461.205874 174.84403 
L 461.499735 177.896451 
L 461.646374 178.03008 
L 461.792821 177.979294 
L 461.939075 176.600225 
L 462.376686 177.924792 
L 462.522175 176.643769 
L 462.667473 177.007813 
L 462.812582 175.552718 
L 462.957502 176.042052 
L 463.102234 175.337831 
L 463.246777 177.154035 
L 463.391133 175.607122 
L 463.535301 172.502686 
L 463.679283 172.922031 
L 463.966689 175.811532 
L 464.539283 171.525439 
L 464.681972 171.680477 
L 464.824478 168.401648 
L 464.966802 168.327174 
L 465.108944 168.074341 
L 465.250905 168.345641 
L 465.392684 165.818193 
L 465.534283 167.911497 
L 465.675702 168.030547 
L 465.816942 167.509845 
L 465.958002 167.90072 
L 466.098884 166.43236 
L 466.380113 161.748555 
L 466.800628 169.559431 
L 466.940447 170.26606 
L 467.219559 172.890854 
L 467.358853 173.069718 
L 467.636918 172.393664 
L 467.775691 173.586661 
L 467.91429 169.733688 
L 468.052717 170.334279 
L 468.190972 170.113824 
L 468.329055 170.312044 
L 468.466967 170.197086 
L 468.604709 170.712798 
L 468.74228 170.314732 
L 468.879681 170.458049 
L 469.153974 175.082357 
L 469.564151 169.290466 
L 469.700541 169.648565 
L 469.836764 171.261879 
L 469.97282 171.336721 
L 470.10871 169.638621 
L 470.379994 169.381876 
L 470.515388 165.845998 
L 470.785682 169.807615 
L 471.189896 168.114568 
L 471.324308 166.916823 
L 471.993943 146.62477 
L 472.260673 152.379181 
L 472.659571 167.371908 
L 473.18922 152.747677 
L 473.321239 152.139117 
L 473.584808 162.902376 
L 473.847754 161.798114 
L 474.11008 157.521844 
L 474.241011 158.054152 
L 474.371788 159.957117 
L 474.502412 159.633612 
L 474.632883 160.855221 
L 474.893365 164.554816 
L 475.023378 164.749669 
L 475.282949 173.21804 
L 475.412508 172.180481 
L 475.541916 172.500585 
L 475.671173 171.111489 
L 475.929238 164.413019 
L 476.058047 164.188536 
L 476.315217 159.108539 
L 476.44358 160.902341 
L 476.571794 161.088111 
L 476.827781 166.525404 
L 476.955553 166.042949 
L 477.337993 169.602887 
L 477.465181 169.753423 
L 477.592224 170.253843 
L 477.719122 174.104973 
L 477.845875 174.467725 
L 477.972484 174.359123 
L 478.477484 161.444528 
L 478.603377 168.794252 
L 478.729127 167.422945 
L 478.854735 163.963341 
L 479.105527 169.054002 
L 479.230711 167.756958 
L 479.355755 169.089787 
L 479.480658 172.839438 
L 479.605421 171.758911 
L 479.854527 177.579188 
L 479.978872 177.742356 
L 480.227144 181.7777 
L 480.722033 188.45814 
L 481.21473 183.77564 
L 481.337563 184.060334 
L 481.582825 188.373682 
L 481.949706 181.431778 
L 482.071732 182.774878 
L 482.315381 177.25206 
L 482.558499 181.725325 
L 482.801086 181.357136 
L 482.922181 184.067453 
L 483.043145 183.34975 
L 483.163977 184.095792 
L 483.284678 183.030641 
L 483.525688 187.029153 
L 483.645997 186.854709 
L 483.766177 187.15312 
L 484.006147 188.707009 
L 484.125938 187.608874 
L 484.2456 188.961604 
L 484.603817 185.496424 
L 484.722966 186.652241 
L 484.841988 185.229757 
L 484.960883 185.405567 
L 485.079651 186.097799 
L 485.198292 185.416934 
L 485.316807 185.679786 
L 485.553458 188.244061 
L 485.907494 180.859918 
L 486.025255 182.296519 
L 486.142893 182.163155 
L 486.260406 183.327921 
L 486.49506 186.237991 
L 486.612202 186.141646 
L 486.72922 187.908236 
L 486.962889 185.084317 
L 487.079539 186.113477 
L 487.428758 183.478432 
L 487.776883 187.676902 
L 487.892684 187.248776 
L 488.008363 188.101747 
L 488.123923 187.52598 
L 488.239363 188.388197 
L 488.469883 185.468091 
L 488.699927 187.561967 
L 488.929496 186.554691 
L 489.044102 186.345699 
L 489.158592 184.845991 
L 489.387217 186.268106 
L 489.501353 184.392646 
L 489.615373 184.741009 
L 489.843062 184.187774 
L 489.956732 185.458084 
L 490.070286 181.36323 
L 490.410254 184.674194 
L 490.749186 181.667192 
L 490.861934 182.530882 
L 490.974568 180.913929 
L 491.199494 183.809107 
L 491.647987 190.079545 
L 491.759828 189.9745 
L 491.871557 188.78311 
L 491.983174 188.88857 
L 492.094679 189.876877 
L 492.206072 189.839591 
L 492.317354 190.276045 
L 492.428524 191.490035 
L 492.539584 190.463488 
L 492.650532 191.150433 
L 492.76137 190.866946 
L 492.872098 192.1897 
L 493.093224 189.95846 
L 493.203622 191.039183 
L 493.31391 190.571785 
L 493.42409 189.566498 
L 493.863719 193.458609 
L 494.192305 188.77229 
L 494.410823 189.231629 
L 494.519922 186.375053 
L 494.628914 186.503436 
L 494.846577 189.875155 
L 495.063816 185.740543 
L 495.280631 187.463632 
L 495.497024 188.745217 
L 496.143689 194.316402 
L 496.251102 194.197754 
L 496.465617 191.486122 
L 496.57272 192.537298 
L 496.679719 192.198167 
L 496.89341 185.902216 
L 497.106692 187.228072 
L 497.319564 189.410899 
L 497.425848 186.685668 
L 497.638112 187.87377 
L 497.744092 187.398812 
L 497.849971 187.93095 
L 497.95575 187.758667 
L 498.37786 190.935334 
L 498.483138 187.58166 
L 498.693396 192.755774 
L 498.798375 192.218314 
L 498.903256 191.869211 
L 499.112722 188.198964 
L 499.217307 188.221838 
L 499.426182 185.948218 
L 499.634666 190.670944 
L 499.842759 185.227769 
L 500.050465 188.605467 
L 500.361297 192.480107 
L 500.464715 193.641991 
L 500.568037 190.95793 
L 500.877428 194.667016 
L 500.980367 194.485569 
L 501.185961 192.735614 
L 501.288615 192.322454 
L 501.493641 195.093136 
L 501.596012 192.447733 
L 501.698288 192.515021 
L 501.800471 192.94955 
L 501.90256 192.56659 
L 502.004556 191.089656 
L 502.106458 191.254668 
L 502.208267 188.423134 
L 502.309982 188.772264 
L 502.411605 189.757464 
L 502.614572 194.108532 
L 502.715917 192.800688 
L 502.918331 194.854071 
L 503.019399 194.57607 
L 503.221262 191.25136 
L 503.322056 191.130067 
L 503.422758 190.313049 
L 503.62389 194.155607 
L 503.72432 192.085838 
L 503.924908 197.392357 
L 504.025067 196.886736 
L 504.125135 196.962996 
L 504.225114 197.594458 
L 504.424802 195.623929 
L 504.524511 195.840556 
L 504.624132 195.934362 
L 504.723663 195.106079 
L 504.922458 190.430661 
L 505.021723 193.152958 
L 505.120899 192.295176 
L 505.318987 196.262429 
L 505.417898 195.820569 
L 505.615458 197.538743 
L 505.714106 195.909003 
L 505.812667 196.7563 
L 506.009528 193.162089 
L 506.20604 197.19049 
L 506.304166 198.447995 
L 506.695808 195.181969 
L 506.793503 195.464442 
L 506.891113 196.684127 
L 507.086075 195.637497 
L 507.183429 196.253043 
L 507.571992 194.491734 
L 507.765765 197.919949 
L 507.862526 197.38014 
L 507.959202 197.506845 
L 508.055794 195.286537 
L 508.248728 199.035136 
L 508.537502 197.495515 
L 508.729602 199.373961 
L 508.825528 198.791758 
L 508.921371 199.387018 
L 509.11281 202.249233 
L 509.208406 202.755991 
L 509.399353 202.114779 
L 509.589971 200.381454 
L 509.685158 200.943623 
L 509.875289 198.634224 
L 510.065094 200.376395 
L 510.254576 198.525091 
L 510.443737 200.503591 
L 510.538196 199.811093 
L 510.726875 197.847122 
L 510.821094 197.155532 
L 510.915234 197.61951 
L 511.009294 196.514768 
L 511.197176 198.222826 
L 511.384741 200.105021 
L 511.478405 198.58744 
L 511.57199 199.412759 
L 511.665497 198.87261 
L 511.758925 196.714801 
L 511.852275 197.192617 
L 512.224892 201.052062 
L 512.317851 201.216717 
L 512.410733 202.398828 
L 512.503538 202.199943 
L 512.596265 203.273719 
L 512.688914 201.39137 
L 512.781487 196.068942 
L 512.873983 196.672626 
L 513.243198 189.552502 
L 513.335311 190.812457 
L 513.427347 187.546283 
L 513.519308 188.124458 
L 513.611192 188.62335 
L 513.703001 187.605989 
L 513.886391 193.636231 
L 513.977973 193.347061 
L 514.069479 195.589084 
L 514.252266 193.917897 
L 514.343548 195.069757 
L 514.525885 193.624436 
L 514.707925 194.456365 
L 514.798833 193.930595 
L 514.889667 190.269039 
L 515.252262 195.008484 
L 515.342727 196.80078 
L 515.523435 194.217907 
L 515.61368 194.410635 
L 515.793949 193.750286 
L 515.973926 197.003601 
L 516.063806 194.421243 
L 516.153613 195.08709 
L 516.4226 193.451845 
L 516.512118 193.849544 
L 516.601564 195.394849 
L 516.869471 190.003102 
L 516.95863 190.647102 
L 517.047718 189.93955 
L 517.22568 187.776171 
L 517.314554 189.712971 
L 517.757863 186.326171 
L 517.846313 186.203899 
L 517.934693 184.284708 
L 518.023003 185.88427 
L 518.111243 185.767268 
L 518.199412 186.707664 
L 518.375542 182.642552 
L 518.551394 187.6149 
L 518.726968 183.856975 
L 518.814651 184.780913 
L 518.902265 181.494706 
L 519.077286 183.135448 
L 519.164694 183.040273 
L 519.252033 183.572912 
L 519.513639 186.097449 
L 519.600704 185.411173 
L 519.687702 187.08619 
L 519.774631 185.553051 
L 519.948286 186.831163 
L 520.035012 189.349431 
L 520.12167 188.49463 
L 520.208261 189.379611 
L 520.294785 187.625958 
L 520.381241 188.061667 
L 520.553953 183.90168 
L 520.726396 189.97222 
L 520.812518 188.696937 
L 520.898573 188.507746 
L 521.327852 193.421483 
L 521.413509 193.322479 
L 521.584626 191.21646 
L 521.755481 192.042146 
L 522.011271 188.47974 
L 522.181471 190.580898 
L 522.266474 188.940793 
L 522.351412 190.107742 
L 522.436285 188.860404 
L 522.521093 190.337085 
L 522.690516 189.305547 
L 522.775131 189.584698 
L 522.859681 187.998553 
L 522.944167 189.82724 
L 523.112948 186.581772 
L 523.197242 187.341632 
L 523.281472 187.122212 
L 523.617757 183.829101 
L 523.785518 188.91361 
L 523.869305 187.336641 
L 523.953028 185.992244 
L 524.120285 191.043318 
L 524.203819 190.105902 
L 524.454047 194.503694 
L 524.703713 199.788647 
L 524.869846 197.483846 
L 525.035731 200.84874 
L 525.118581 200.250571 
L 525.201369 197.927564 
L 525.284096 199.843586 
L 525.366761 199.479424 
L 525.614389 193.436837 
L 525.861467 187.098368 
L 526.025881 189.432588 
L 526.190052 187.253242 
L 526.272047 186.728652 
L 526.51767 191.983444 
L 526.762751 186.723754 
L 526.844325 186.699232 
L 527.007294 184.163261 
L 527.088688 184.662286 
L 527.170024 182.835008 
L 527.2513 184.527969 
L 527.413674 194.643818 
L 527.494772 192.408136 
L 527.818574 202.867065 
L 527.899378 203.943975 
L 527.980123 201.593425 
L 528.060809 203.467099 
L 528.222006 200.840409 
L 528.302517 197.149681 
L 528.38297 197.222707 
L 528.463365 196.031836 
L 528.784364 187.033525 
L 528.944517 183.298348 
L 529.104439 188.872361 
L 529.264132 185.132858 
L 529.423596 195.227677 
L 529.503242 194.723939 
L 529.741839 198.004671 
L 529.979926 194.492532 
L 530.059175 194.192814 
L 530.138368 196.742409 
L 530.296584 191.023153 
L 530.375608 193.576979 
L 530.533487 188.765934 
L 530.612343 189.310246 
L 530.769887 192.948592 
L 530.848576 192.458614 
L 531.084307 198.754124 
L 531.162774 197.936879 
L 531.319541 196.999204 
L 531.476087 199.862513 
L 531.554278 199.606451 
L 531.710494 203.331528 
L 531.78852 202.988232 
L 531.944408 202.488821 
L 532.02227 204.390862 
L 532.100078 204.032543 
L 532.177831 205.155556 
L 532.25553 204.774068 
L 532.488302 200.520574 
L 532.565784 200.928526 
L 532.643213 201.83672 
L 532.720587 201.526387 
L 532.797908 201.315949 
L 533.029549 204.001232 
L 533.183709 199.66064 
L 533.260708 200.489397 
L 533.414548 196.778515 
L 533.568175 199.319256 
L 533.644909 199.181691 
L 533.72159 198.971896 
L 533.951317 205.697746 
L 534.027788 202.720007 
L 534.104205 203.53169 
L 534.256884 209.780233 
L 534.333144 210.15837 
L 534.409353 212.902202 
L 534.485509 212.815128 
L 534.561613 212.659718 
L 534.789613 208.99404 
L 534.941354 204.137745 
L 535.017147 206.025681 
L 535.092888 204.517555 
L 535.168578 206.197624 
L 535.319803 204.626929 
L 535.395339 206.664721 
L 535.470823 205.525565 
L 535.546256 208.10663 
L 535.621638 207.747498 
L 535.696969 207.228213 
L 535.997783 195.02649 
L 536.07286 196.265874 
L 536.596982 209.777354 
L 536.671656 208.066064 
L 536.820852 209.143076 
L 536.895376 209.18926 
L 537.044273 206.753717 
L 537.118647 206.583313 
L 537.192971 208.088409 
L 537.267245 206.91597 
L 537.34147 208.893178 
L 537.415646 208.762852 
L 537.637876 206.070663 
L 537.785783 207.732382 
L 538.007275 204.298368 
L 538.081008 205.074985 
L 538.154692 207.370507 
L 538.228327 206.57956 
L 538.375452 205.746718 
L 538.522382 208.666061 
L 539.035114 203.723823 
L 539.254135 206.143432 
L 539.39991 202.248083 
L 539.618214 209.119965 
L 539.690887 208.83396 
L 539.836091 209.460671 
L 539.908622 208.277179 
L 539.981105 208.659357 
L 540.053542 210.974503 
L 540.125931 210.473971 
L 540.198273 210.576116 
L 540.55928 216.255777 
L 540.631341 216.169773 
L 540.919119 207.540661 
L 540.990947 206.867104 
L 541.062729 207.391809 
L 541.134465 209.109349 
L 541.206154 209.090559 
L 541.349394 209.754218 
L 541.420945 208.04359 
L 541.49245 208.243464 
L 541.563909 208.388234 
L 541.635323 205.060461 
L 541.70669 206.303669 
L 541.778012 208.270957 
L 541.849288 207.931793 
L 541.920518 207.910043 
L 542.062842 214.20107 
L 542.133935 213.855634 
L 542.204984 214.536368 
L 542.346944 212.778592 
L 542.417857 215.142939 
L 542.488724 214.552308 
L 542.630323 210.38816 
L 542.701055 210.603788 
L 542.771742 213.744517 
L 542.842384 212.320622 
L 542.912981 213.455812 
L 543.124505 207.615701 
L 543.194923 208.815596 
L 543.265297 207.589835 
L 543.335627 208.250118 
L 543.405912 210.581038 
L 543.476153 210.162632 
L 543.546349 209.277438 
L 543.686609 210.75072 
L 543.756673 209.845326 
L 543.826692 210.13778 
L 544.036487 213.437795 
L 544.10633 212.636904 
L 544.17613 213.051605 
L 544.245886 215.146708 
L 544.315599 213.916749 
L 544.385267 214.290067 
L 544.524474 210.418368 
L 544.732958 212.325167 
L 544.802366 211.157285 
L 545.01033 213.143054 
L 545.079565 213.042725 
L 545.148757 213.990262 
L 545.217906 213.849644 
L 545.287012 213.630147 
L 545.425095 214.616142 
L 545.494072 216.359052 
L 545.563007 216.299551 
L 545.631899 216.28026 
L 545.700748 217.426025 
L 545.769555 210.929896 
L 545.838319 213.56249 
L 545.97572 219.408845 
L 546.044357 219.466642 
L 546.112952 220.777418 
L 546.318482 217.434724 
L 546.386908 216.356978 
L 546.455291 216.698279 
L 546.66019 221.241514 
L 546.728406 218.15088 
L 546.796581 218.252596 
L 546.864713 217.587982 
L 547.000853 218.86764 
L 547.20475 217.361104 
L 547.408274 222.402657 
L 547.476033 218.759588 
L 547.611427 221.793525 
L 547.81421 217.737782 
L 547.881722 216.110485 
L 547.949193 219.396474 
L 548.016623 216.553415 
L 548.084012 217.013933 
L 548.218668 214.681322 
L 548.285935 217.099766 
L 548.353162 214.862752 
L 548.420348 216.410825 
L 548.487493 214.47971 
L 548.688686 217.257502 
L 548.755669 217.995098 
L 548.956378 221.6898 
L 549.089983 221.144959 
L 549.223427 222.851003 
L 549.356712 220.733724 
L 549.489837 222.767699 
L 549.55634 221.358739 
L 549.689227 225.789904 
L 549.755611 225.444333 
L 549.821955 225.734206 
L 549.88826 224.600021 
L 549.954525 225.725105 
L 550.086937 223.074855 
L 550.153084 224.138971 
L 550.351289 219.453361 
L 550.417279 221.331745 
L 550.48323 220.454927 
L 550.680848 218.033079 
L 550.746643 219.004805 
L 550.878115 214.849907 
L 550.943794 215.534146 
L 551.009433 214.728187 
L 551.075034 212.509535 
L 551.140596 213.426527 
L 551.206119 214.506026 
L 551.271604 213.832246 
L 551.402459 210.880693 
L 551.467828 212.746092 
L 551.663706 209.683759 
L 551.728922 209.107245 
L 551.85924 206.708459 
L 552.184367 216.44283 
L 552.314153 214.30252 
L 552.508547 210.64245 
L 552.767213 216.645363 
L 552.89632 215.992629 
L 552.960818 214.057661 
L 553.025278 214.083755 
L 553.089701 215.924852 
L 553.154086 214.674079 
L 553.218435 213.625697 
L 553.282746 214.179697 
L 553.34702 214.654523 
L 553.411257 212.994808 
L 553.475456 213.239416 
L 553.731886 223.373959 
L 553.795901 221.473235 
L 553.859879 221.714568 
L 553.92382 221.245148 
L 554.051593 218.212484 
L 554.242977 221.721712 
L 554.497645 216.739205 
L 554.561221 217.397112 
L 554.62476 218.410387 
L 554.688264 217.668427 
L 554.878556 213.320122 
L 554.941915 213.121911 
L 555.068524 216.514763 
L 555.194989 219.928641 
L 555.258168 219.833056 
L 555.321311 220.25528 
L 555.384418 219.635016 
L 555.699417 201.381413 
L 555.76231 200.555448 
L 555.887989 206.985986 
L 555.950775 206.742142 
L 556.013526 207.939985 
L 556.076242 207.699883 
L 556.138922 205.020264 
L 556.264176 211.665261 
L 556.451794 209.089803 
L 556.576697 211.308423 
L 556.763789 208.456396 
L 556.950567 213.360502 
L 557.012756 210.904871 
L 557.074911 211.924879 
L 557.199117 214.221049 
L 557.261168 213.426948 
L 557.323184 207.564488 
L 557.385165 208.191154 
L 557.447113 207.780022 
L 557.509025 204.311859 
L 557.570903 206.762821 
L 557.756332 209.146031 
L 557.879779 207.246459 
L 557.941451 208.311536 
L 558.00309 207.502741 
L 558.064694 205.552934 
L 558.126264 206.517478 
L 558.187799 206.644384 
L 558.6176 218.774328 
L 558.801293 215.115897 
L 558.862457 214.624388 
L 558.923587 215.207777 
L 559.045746 212.870714 
L 559.167771 214.193929 
L 559.289663 212.186338 
L 559.350559 212.408653 
L 559.533046 215.295268 
L 559.593809 212.209861 
L 559.654538 212.338975 
L 559.715235 212.509044 
L 559.775898 213.22968 
L 559.836528 212.689804 
L 559.897125 213.024988 
L 559.957689 213.994965 
L 560.018221 213.875975 
L 560.078719 212.5595 
L 560.139184 213.32261 
L 560.199617 215.061747 
L 560.320383 212.095883 
L 560.441019 213.837626 
L 560.501288 213.681735 
L 560.561524 215.19713 
L 560.681899 213.025811 
L 560.922258 218.013857 
L 560.982266 213.32184 
L 561.042243 213.982365 
L 561.102186 213.454035 
L 561.162098 214.59468 
L 561.162098 214.59468 
" clip-path="url(#p9e54863e54)" style="fill: none; stroke: #ff7f0e; stroke-linecap: square"/>
   </g>
   <g id="patch_3">
    <path d="M 48.982813 294.590247 
L 48.982813 22.318125 
" style="fill: none; stroke: #000000; stroke-width: 0.8; stroke-linejoin: miter; stroke-linecap: square"/>
   </g>
   <g id="patch_4">
    <path d="M 561.197812 294.590247 
L 561.197812 22.318125 
" style="fill: none; stroke: #000000; stroke-width: 0.8; stroke-linejoin: miter; stroke-linecap: square"/>
   </g>
   <g id="patch_5">
    <path d="M 48.982813 294.590247 
L 561.197812 294.590247 
" style="fill: none; stroke: #000000; stroke-width: 0.8; stroke-linejoin: miter; stroke-linecap: square"/>
   </g>
   <g id="patch_6">
    <path d="M 48.982813 22.318125 
L 561.197812 22.318125 
" style="fill: none; stroke: #000000; stroke-width: 0.8; stroke-linejoin: miter; stroke-linecap: square"/>
   </g>
   <g id="text_14">
    <!-- Honda Odysee Blower Setting 6 - Narrow Band SPL (dBA) -->
    <g transform="translate(133.554062 16.318125) scale(0.12 -0.12)">
     <defs>
      <path id="DejaVuSans-6f" d="M 1959 3097 
Q 1497 3097 1228 2736 
Q 959 2375 959 1747 
Q 959 1119 1226 758 
Q 1494 397 1959 397 
Q 2419 397 2687 759 
Q 2956 1122 2956 1747 
Q 2956 2369 2687 2733 
Q 2419 3097 1959 3097 
z
M 1959 3584 
Q 2709 3584 3137 3096 
Q 3566 2609 3566 1747 
Q 3566 888 3137 398 
Q 2709 -91 1959 -91 
Q 1206 -91 779 398 
Q 353 888 353 1747 
Q 353 2609 779 3096 
Q 1206 3584 1959 3584 
z
" transform="scale(0.015625)"/>
      <path id="DejaVuSans-61" d="M 2194 1759 
Q 1497 1759 1228 1600 
Q 959 1441 959 1056 
Q 959 750 1161 570 
Q 1363 391 1709 391 
Q 2188 391 2477 730 
Q 2766 1069 2766 1631 
L 2766 1759 
L 2194 1759 
z
M 3341 1997 
L 3341 0 
L 2766 0 
L 2766 531 
Q 2569 213 2275 61 
Q 1981 -91 1556 -91 
Q 1019 -91 701 211 
Q 384 513 384 1019 
Q 384 1609 779 1909 
Q 1175 2209 1959 2209 
L 2766 2209 
L 2766 2266 
Q 2766 2663 2505 2880 
Q 2244 3097 1772 3097 
Q 1472 3097 1187 3025 
Q 903 2953 641 2809 
L 641 3341 
Q 956 3463 1253 3523 
Q 1550 3584 1831 3584 
Q 2591 3584 2966 3190 
Q 3341 2797 3341 1997 
z
" transform="scale(0.015625)"/>
      <path id="DejaVuSans-4f" d="M 2522 4238 
Q 1834 4238 1429 3725 
Q 1025 3213 1025 2328 
Q 1025 1447 1429 934 
Q 1834 422 2522 422 
Q 3209 422 3611 934 
Q 4013 1447 4013 2328 
Q 4013 3213 3611 3725 
Q 3209 4238 2522 4238 
z
M 2522 4750 
Q 3503 4750 4090 4092 
Q 4678 3434 4678 2328 
Q 4678 1225 4090 567 
Q 3503 -91 2522 -91 
Q 1538 -91 948 565 
Q 359 1222 359 2328 
Q 359 3434 948 4092 
Q 1538 4750 2522 4750 
z
" transform="scale(0.015625)"/>
      <path id="DejaVuSans-73" d="M 2834 3397 
L 2834 2853 
Q 2591 2978 2328 3040 
Q 2066 3103 1784 3103 
Q 1356 3103 1142 2972 
Q 928 2841 928 2578 
Q 928 2378 1081 2264 
Q 1234 2150 1697 2047 
L 1894 2003 
Q 2506 1872 2764 1633 
Q 3022 1394 3022 966 
Q 3022 478 2636 193 
Q 2250 -91 1575 -91 
Q 1294 -91 989 -36 
Q 684 19 347 128 
L 347 722 
Q 666 556 975 473 
Q 1284 391 1588 391 
Q 1994 391 2212 530 
Q 2431 669 2431 922 
Q 2431 1156 2273 1281 
Q 2116 1406 1581 1522 
L 1381 1569 
Q 847 1681 609 1914 
Q 372 2147 372 2553 
Q 372 3047 722 3315 
Q 1072 3584 1716 3584 
Q 2034 3584 2315 3537 
Q 2597 3491 2834 3397 
z
" transform="scale(0.015625)"/>
      <path id="DejaVuSans-6c" d="M 603 4863 
L 1178 4863 
L 1178 0 
L 603 0 
L 603 4863 
z
" transform="scale(0.015625)"/>
      <path id="DejaVuSans-77" d="M 269 3500 
L 844 3500 
L 1563 769 
L 2278 3500 
L 2956 3500 
L 3675 769 
L 4391 3500 
L 4966 3500 
L 4050 0 
L 3372 0 
L 2619 2869 
L 1863 0 
L 1184 0 
L 269 3500 
z
" transform="scale(0.015625)"/>
      <path id="DejaVuSans-74" d="M 1172 4494 
L 1172 3500 
L 2356 3500 
L 2356 3053 
L 1172 3053 
L 1172 1153 
Q 1172 725 1289 603 
Q 1406 481 1766 481 
L 2356 481 
L 2356 0 
L 1766 0 
Q 1100 0 847 248 
Q 594 497 594 1153 
L 594 3053 
L 172 3053 
L 172 3500 
L 594 3500 
L 594 4494 
L 1172 4494 
z
" transform="scale(0.015625)"/>
      <path id="DejaVuSans-69" d="M 603 3500 
L 1178 3500 
L 1178 0 
L 603 0 
L 603 3500 
z
M 603 4863 
L 1178 4863 
L 1178 4134 
L 603 4134 
L 603 4863 
z
" transform="scale(0.015625)"/>
      <path id="DejaVuSans-67" d="M 2906 1791 
Q 2906 2416 2648 2759 
Q 2391 3103 1925 3103 
Q 1463 3103 1205 2759 
Q 947 2416 947 1791 
Q 947 1169 1205 825 
Q 1463 481 1925 481 
Q 2391 481 2648 825 
Q 2906 1169 2906 1791 
z
M 3481 434 
Q 3481 -459 3084 -895 
Q 2688 -1331 1869 -1331 
Q 1566 -1331 1297 -1286 
Q 1028 -1241 775 -1147 
L 775 -588 
Q 1028 -725 1275 -790 
Q 1522 -856 1778 -856 
Q 2344 -856 2625 -561 
Q 2906 -266 2906 331 
L 2906 616 
Q 2728 306 2450 153 
Q 2172 0 1784 0 
Q 1141 0 747 490 
Q 353 981 353 1791 
Q 353 2603 747 3093 
Q 1141 3584 1784 3584 
Q 2172 3584 2450 3431 
Q 2728 3278 2906 2969 
L 2906 3500 
L 3481 3500 
L 3481 434 
z
" transform="scale(0.015625)"/>
      <path id="DejaVuSans-36" d="M 2113 2584 
Q 1688 2584 1439 2293 
Q 1191 2003 1191 1497 
Q 1191 994 1439 701 
Q 1688 409 2113 409 
Q 2538 409 2786 701 
Q 3034 994 3034 1497 
Q 3034 2003 2786 2293 
Q 2538 2584 2113 2584 
z
M 3366 4563 
L 3366 3988 
Q 3128 4100 2886 4159 
Q 2644 4219 2406 4219 
Q 1781 4219 1451 3797 
Q 1122 3375 1075 2522 
Q 1259 2794 1537 2939 
Q 1816 3084 2150 3084 
Q 2853 3084 3261 2657 
Q 3669 2231 3669 1497 
Q 3669 778 3244 343 
Q 2819 -91 2113 -91 
Q 1303 -91 875 529 
Q 447 1150 447 2328 
Q 447 3434 972 4092 
Q 1497 4750 2381 4750 
Q 2619 4750 2861 4703 
Q 3103 4656 3366 4563 
z
" transform="scale(0.015625)"/>
      <path id="DejaVuSans-2d" d="M 313 2009 
L 1997 2009 
L 1997 1497 
L 313 1497 
L 313 2009 
z
" transform="scale(0.015625)"/>
      <path id="DejaVuSans-4e" d="M 628 4666 
L 1478 4666 
L 3547 763 
L 3547 4666 
L 4159 4666 
L 4159 0 
L 3309 0 
L 1241 3903 
L 1241 0 
L 628 0 
L 628 4666 
z
" transform="scale(0.015625)"/>
     </defs>
     <use xlink:href="#DejaVuSans-48"/>
     <use xlink:href="#DejaVuSans-6f" transform="translate(75.195312 0)"/>
     <use xlink:href="#DejaVuSans-6e" transform="translate(136.376953 0)"/>
     <use xlink:href="#DejaVuSans-64" transform="translate(199.755859 0)"/>
     <use xlink:href="#DejaVuSans-61" transform="translate(263.232422 0)"/>
     <use xlink:href="#DejaVuSans-20" transform="translate(324.511719 0)"/>
     <use xlink:href="#DejaVuSans-4f" transform="translate(356.298828 0)"/>
     <use xlink:href="#DejaVuSans-64" transform="translate(435.009766 0)"/>
     <use xlink:href="#DejaVuSans-79" transform="translate(498.486328 0)"/>
     <use xlink:href="#DejaVuSans-73" transform="translate(557.666016 0)"/>
     <use xlink:href="#DejaVuSans-65" transform="translate(609.765625 0)"/>
     <use xlink:href="#DejaVuSans-65" transform="translate(671.289062 0)"/>
     <use xlink:href="#DejaVuSans-20" transform="translate(732.8125 0)"/>
     <use xlink:href="#DejaVuSans-42" transform="translate(764.599609 0)"/>
     <use xlink:href="#DejaVuSans-6c" transform="translate(833.203125 0)"/>
     <use xlink:href="#DejaVuSans-6f" transform="translate(860.986328 0)"/>
     <use xlink:href="#DejaVuSans-77" transform="translate(922.167969 0)"/>
     <use xlink:href="#DejaVuSans-65" transform="translate(1003.955078 0)"/>
     <use xlink:href="#DejaVuSans-72" transform="translate(1065.478516 0)"/>
     <use xlink:href="#DejaVuSans-20" transform="translate(1106.591797 0)"/>
     <use xlink:href="#DejaVuSans-53" transform="translate(1138.378906 0)"/>
     <use xlink:href="#DejaVuSans-65" transform="translate(1201.855469 0)"/>
     <use xlink:href="#DejaVuSans-74" transform="translate(1263.378906 0)"/>
     <use xlink:href="#DejaVuSans-74" transform="translate(1302.587891 0)"/>
     <use xlink:href="#DejaVuSans-69" transform="translate(1341.796875 0)"/>
     <use xlink:href="#DejaVuSans-6e" transform="translate(1369.580078 0)"/>
     <use xlink:href="#DejaVuSans-67" transform="translate(1432.958984 0)"/>
     <use xlink:href="#DejaVuSans-20" transform="translate(1496.435547 0)"/>
     <use xlink:href="#DejaVuSans-36" transform="translate(1528.222656 0)"/>
     <use xlink:href="#DejaVuSans-20" transform="translate(1591.845703 0)"/>
     <use xlink:href="#DejaVuSans-2d" transform="translate(1623.632812 0)"/>
     <use xlink:href="#DejaVuSans-20" transform="translate(1659.716797 0)"/>
     <use xlink:href="#DejaVuSans-4e" transform="translate(1691.503906 0)"/>
     <use xlink:href="#DejaVuSans-61" transform="translate(1766.308594 0)"/>
     <use xlink:href="#DejaVuSans-72" transform="translate(1827.587891 0)"/>
     <use xlink:href="#DejaVuSans-72" transform="translate(1866.951172 0)"/>
     <use xlink:href="#DejaVuSans-6f" transform="translate(1905.814453 0)"/>
     <use xlink:href="#DejaVuSans-77" transform="translate(1966.996094 0)"/>
     <use xlink:href="#DejaVuSans-20" transform="translate(2048.783203 0)"/>
     <use xlink:href="#DejaVuSans-42" transform="translate(2080.570312 0)"/>
     <use xlink:href="#DejaVuSans-61" transform="translate(2149.173828 0)"/>
     <use xlink:href="#DejaVuSans-6e" transform="translate(2210.453125 0)"/>
     <use xlink:href="#DejaVuSans-64" transform="translate(2273.832031 0)"/>
     <use xlink:href="#DejaVuSans-20" transform="translate(2337.308594 0)"/>
     <use xlink:href="#DejaVuSans-53" transform="translate(2369.095703 0)"/>
     <use xlink:href="#DejaVuSans-50" transform="translate(2432.572266 0)"/>
     <use xlink:href="#DejaVuSans-4c" transform="translate(2492.875 0)"/>
     <use xlink:href="#DejaVuSans-20" transform="translate(2548.587891 0)"/>
     <use xlink:href="#DejaVuSans-28" transform="translate(2580.375 0)"/>
     <use xlink:href="#DejaVuSans-64" transform="translate(2619.388672 0)"/>
     <use xlink:href="#DejaVuSans-42" transform="translate(2682.865234 0)"/>
     <use xlink:href="#DejaVuSans-41" transform="translate(2751.46875 0)"/>
     <use xlink:href="#DejaVuSans-29" transform="translate(2819.876953 0)"/>
    </g>
   </g>
  </g>
 </g>
 <defs>
  <clipPath id="p9e54863e54">
   <rect x="48.982813" y="22.318125" width="512.215" height="272.272122"/>
  </clipPath>
 </defs>
</svg>
