<?xml version="1.0" encoding="utf-8" standalone="no"?>
<!DOCTYPE svg PUBLIC "-//W3C//DTD SVG 1.1//EN"
  "http://www.w3.org/Graphics/SVG/1.1/DTD/svg11.dtd">
<svg xmlns:xlink="http://www.w3.org/1999/xlink" width="568.397812pt" height="351.806674pt" viewBox="0 0 568.397812 351.806674" xmlns="http://www.w3.org/2000/svg" version="1.1">
 <metadata>
  <rdf:RDF xmlns:dc="http://purl.org/dc/elements/1.1/" xmlns:cc="http://creativecommons.org/ns#" xmlns:rdf="http://www.w3.org/1999/02/22-rdf-syntax-ns#">
   <cc:Work>
    <dc:type rdf:resource="http://purl.org/dc/dcmitype/StillImage"/>
    <dc:date>2025-04-24T21:37:17.244364</dc:date>
    <dc:format>image/svg+xml</dc:format>
    <dc:creator>
     <cc:Agent>
      <dc:title>Matplotlib v3.10.0, https://matplotlib.org/</dc:title>
     </cc:Agent>
    </dc:creator>
   </cc:Work>
  </rdf:RDF>
 </metadata>
 <defs>
  <style type="text/css">*{stroke-linejoin: round; stroke-linecap: butt}</style>
 </defs>
 <g id="figure_1">
  <g id="patch_1">
   <path d="M 0 351.806674 
L 568.397812 351.806674 
L 568.397812 0 
L 0 0 
z
" style="fill: #ffffff"/>
  </g>
  <g id="axes_1">
   <g id="patch_2">
    <path d="M 48.982813 294.590247 
L 561.197812 294.590247 
L 561.197812 22.318125 
L 48.982813 22.318125 
z
" style="fill: #ffffff"/>
   </g>
   <g id="matplotlib.axis_1">
    <g id="xtick_1">
     <g id="line2d_1">
      <path d="M 48.982813 294.590247 
L 48.982813 22.318125 
" clip-path="url(#pa4bb78b9f6)" style="fill: none; stroke-dasharray: 1.85,0.8; stroke-dashoffset: 0; stroke: #b0b0b0; stroke-width: 0.5"/>
     </g>
     <g id="line2d_2">
      <defs>
       <path id="m6b9390c536" d="M 0 0 
L 0 3.5 
" style="stroke: #000000; stroke-width: 0.8"/>
      </defs>
      <g>
       <use xlink:href="#m6b9390c536" x="48.982813" y="294.590247" style="stroke: #000000; stroke-width: 0.8"/>
      </g>
     </g>
     <g id="text_1">
      <!-- 100 -->
      <g transform="translate(34.015351 320.460054) rotate(-45) scale(0.1 -0.1)">
       <defs>
        <path id="DejaVuSans-31" d="M 794 531 
L 1825 531 
L 1825 4091 
L 703 3866 
L 703 4441 
L 1819 4666 
L 2450 4666 
L 2450 531 
L 3481 531 
L 3481 0 
L 794 0 
L 794 531 
z
" transform="scale(0.015625)"/>
        <path id="DejaVuSans-30" d="M 2034 4250 
Q 1547 4250 1301 3770 
Q 1056 3291 1056 2328 
Q 1056 1369 1301 889 
Q 1547 409 2034 409 
Q 2525 409 2770 889 
Q 3016 1369 3016 2328 
Q 3016 3291 2770 3770 
Q 2525 4250 2034 4250 
z
M 2034 4750 
Q 2819 4750 3233 4129 
Q 3647 3509 3647 2328 
Q 3647 1150 3233 529 
Q 2819 -91 2034 -91 
Q 1250 -91 836 529 
Q 422 1150 422 2328 
Q 422 3509 836 4129 
Q 1250 4750 2034 4750 
z
" transform="scale(0.015625)"/>
       </defs>
       <use xlink:href="#DejaVuSans-31"/>
       <use xlink:href="#DejaVuSans-30" transform="translate(63.623047 0)"/>
       <use xlink:href="#DejaVuSans-30" transform="translate(127.246094 0)"/>
      </g>
     </g>
    </g>
    <g id="xtick_2">
     <g id="line2d_3">
      <path d="M 305.090312 294.590247 
L 305.090312 22.318125 
" clip-path="url(#pa4bb78b9f6)" style="fill: none; stroke-dasharray: 1.85,0.8; stroke-dashoffset: 0; stroke: #b0b0b0; stroke-width: 0.5"/>
     </g>
     <g id="line2d_4">
      <g>
       <use xlink:href="#m6b9390c536" x="305.090312" y="294.590247" style="stroke: #000000; stroke-width: 0.8"/>
      </g>
     </g>
     <g id="text_2">
      <!-- 1000 -->
      <g transform="translate(285.623884 324.959021) rotate(-45) scale(0.1 -0.1)">
       <use xlink:href="#DejaVuSans-31"/>
       <use xlink:href="#DejaVuSans-30" transform="translate(63.623047 0)"/>
       <use xlink:href="#DejaVuSans-30" transform="translate(127.246094 0)"/>
       <use xlink:href="#DejaVuSans-30" transform="translate(190.869141 0)"/>
      </g>
     </g>
    </g>
    <g id="xtick_3">
     <g id="line2d_5">
      <path d="M 561.197812 294.590247 
L 561.197812 22.318125 
" clip-path="url(#pa4bb78b9f6)" style="fill: none; stroke-dasharray: 1.85,0.8; stroke-dashoffset: 0; stroke: #b0b0b0; stroke-width: 0.5"/>
     </g>
     <g id="line2d_6">
      <g>
       <use xlink:href="#m6b9390c536" x="561.197812" y="294.590247" style="stroke: #000000; stroke-width: 0.8"/>
      </g>
     </g>
     <g id="text_3">
      <!-- 10000 -->
      <g transform="translate(537.232417 329.457988) rotate(-45) scale(0.1 -0.1)">
       <use xlink:href="#DejaVuSans-31"/>
       <use xlink:href="#DejaVuSans-30" transform="translate(63.623047 0)"/>
       <use xlink:href="#DejaVuSans-30" transform="translate(127.246094 0)"/>
       <use xlink:href="#DejaVuSans-30" transform="translate(190.869141 0)"/>
       <use xlink:href="#DejaVuSans-30" transform="translate(254.492188 0)"/>
      </g>
     </g>
    </g>
    <g id="xtick_4">
     <g id="line2d_7">
      <path d="M 126.078852 294.590247 
L 126.078852 22.318125 
" clip-path="url(#pa4bb78b9f6)" style="fill: none; stroke-dasharray: 1.85,0.8; stroke-dashoffset: 0; stroke: #b0b0b0; stroke-width: 0.5"/>
     </g>
     <g id="line2d_8">
      <defs>
       <path id="m79670901fc" d="M 0 0 
L 0 2 
" style="stroke: #000000; stroke-width: 0.6"/>
      </defs>
      <g>
       <use xlink:href="#m79670901fc" x="126.078852" y="294.590247" style="stroke: #000000; stroke-width: 0.6"/>
      </g>
     </g>
    </g>
    <g id="xtick_5">
     <g id="line2d_9">
      <path d="M 171.177144 294.590247 
L 171.177144 22.318125 
" clip-path="url(#pa4bb78b9f6)" style="fill: none; stroke-dasharray: 1.85,0.8; stroke-dashoffset: 0; stroke: #b0b0b0; stroke-width: 0.5"/>
     </g>
     <g id="line2d_10">
      <g>
       <use xlink:href="#m79670901fc" x="171.177144" y="294.590247" style="stroke: #000000; stroke-width: 0.6"/>
      </g>
     </g>
    </g>
    <g id="xtick_6">
     <g id="line2d_11">
      <path d="M 203.174892 294.590247 
L 203.174892 22.318125 
" clip-path="url(#pa4bb78b9f6)" style="fill: none; stroke-dasharray: 1.85,0.8; stroke-dashoffset: 0; stroke: #b0b0b0; stroke-width: 0.5"/>
     </g>
     <g id="line2d_12">
      <g>
       <use xlink:href="#m79670901fc" x="203.174892" y="294.590247" style="stroke: #000000; stroke-width: 0.6"/>
      </g>
     </g>
    </g>
    <g id="xtick_7">
     <g id="line2d_13">
      <path d="M 227.994273 294.590247 
L 227.994273 22.318125 
" clip-path="url(#pa4bb78b9f6)" style="fill: none; stroke-dasharray: 1.85,0.8; stroke-dashoffset: 0; stroke: #b0b0b0; stroke-width: 0.5"/>
     </g>
     <g id="line2d_14">
      <g>
       <use xlink:href="#m79670901fc" x="227.994273" y="294.590247" style="stroke: #000000; stroke-width: 0.6"/>
      </g>
     </g>
    </g>
    <g id="xtick_8">
     <g id="line2d_15">
      <path d="M 248.273184 294.590247 
L 248.273184 22.318125 
" clip-path="url(#pa4bb78b9f6)" style="fill: none; stroke-dasharray: 1.85,0.8; stroke-dashoffset: 0; stroke: #b0b0b0; stroke-width: 0.5"/>
     </g>
     <g id="line2d_16">
      <g>
       <use xlink:href="#m79670901fc" x="248.273184" y="294.590247" style="stroke: #000000; stroke-width: 0.6"/>
      </g>
     </g>
    </g>
    <g id="xtick_9">
     <g id="line2d_17">
      <path d="M 265.418759 294.590247 
L 265.418759 22.318125 
" clip-path="url(#pa4bb78b9f6)" style="fill: none; stroke-dasharray: 1.85,0.8; stroke-dashoffset: 0; stroke: #b0b0b0; stroke-width: 0.5"/>
     </g>
     <g id="line2d_18">
      <g>
       <use xlink:href="#m79670901fc" x="265.418759" y="294.590247" style="stroke: #000000; stroke-width: 0.6"/>
      </g>
     </g>
    </g>
    <g id="xtick_10">
     <g id="line2d_19">
      <path d="M 280.270931 294.590247 
L 280.270931 22.318125 
" clip-path="url(#pa4bb78b9f6)" style="fill: none; stroke-dasharray: 1.85,0.8; stroke-dashoffset: 0; stroke: #b0b0b0; stroke-width: 0.5"/>
     </g>
     <g id="line2d_20">
      <g>
       <use xlink:href="#m79670901fc" x="280.270931" y="294.590247" style="stroke: #000000; stroke-width: 0.6"/>
      </g>
     </g>
    </g>
    <g id="xtick_11">
     <g id="line2d_21">
      <path d="M 293.371476 294.590247 
L 293.371476 22.318125 
" clip-path="url(#pa4bb78b9f6)" style="fill: none; stroke-dasharray: 1.85,0.8; stroke-dashoffset: 0; stroke: #b0b0b0; stroke-width: 0.5"/>
     </g>
     <g id="line2d_22">
      <g>
       <use xlink:href="#m79670901fc" x="293.371476" y="294.590247" style="stroke: #000000; stroke-width: 0.6"/>
      </g>
     </g>
    </g>
    <g id="xtick_12">
     <g id="line2d_23">
      <path d="M 382.186352 294.590247 
L 382.186352 22.318125 
" clip-path="url(#pa4bb78b9f6)" style="fill: none; stroke-dasharray: 1.85,0.8; stroke-dashoffset: 0; stroke: #b0b0b0; stroke-width: 0.5"/>
     </g>
     <g id="line2d_24">
      <g>
       <use xlink:href="#m79670901fc" x="382.186352" y="294.590247" style="stroke: #000000; stroke-width: 0.6"/>
      </g>
     </g>
    </g>
    <g id="xtick_13">
     <g id="line2d_25">
      <path d="M 427.284644 294.590247 
L 427.284644 22.318125 
" clip-path="url(#pa4bb78b9f6)" style="fill: none; stroke-dasharray: 1.85,0.8; stroke-dashoffset: 0; stroke: #b0b0b0; stroke-width: 0.5"/>
     </g>
     <g id="line2d_26">
      <g>
       <use xlink:href="#m79670901fc" x="427.284644" y="294.590247" style="stroke: #000000; stroke-width: 0.6"/>
      </g>
     </g>
    </g>
    <g id="xtick_14">
     <g id="line2d_27">
      <path d="M 459.282392 294.590247 
L 459.282392 22.318125 
" clip-path="url(#pa4bb78b9f6)" style="fill: none; stroke-dasharray: 1.85,0.8; stroke-dashoffset: 0; stroke: #b0b0b0; stroke-width: 0.5"/>
     </g>
     <g id="line2d_28">
      <g>
       <use xlink:href="#m79670901fc" x="459.282392" y="294.590247" style="stroke: #000000; stroke-width: 0.6"/>
      </g>
     </g>
    </g>
    <g id="xtick_15">
     <g id="line2d_29">
      <path d="M 484.101773 294.590247 
L 484.101773 22.318125 
" clip-path="url(#pa4bb78b9f6)" style="fill: none; stroke-dasharray: 1.85,0.8; stroke-dashoffset: 0; stroke: #b0b0b0; stroke-width: 0.5"/>
     </g>
     <g id="line2d_30">
      <g>
       <use xlink:href="#m79670901fc" x="484.101773" y="294.590247" style="stroke: #000000; stroke-width: 0.6"/>
      </g>
     </g>
    </g>
    <g id="xtick_16">
     <g id="line2d_31">
      <path d="M 504.380684 294.590247 
L 504.380684 22.318125 
" clip-path="url(#pa4bb78b9f6)" style="fill: none; stroke-dasharray: 1.85,0.8; stroke-dashoffset: 0; stroke: #b0b0b0; stroke-width: 0.5"/>
     </g>
     <g id="line2d_32">
      <g>
       <use xlink:href="#m79670901fc" x="504.380684" y="294.590247" style="stroke: #000000; stroke-width: 0.6"/>
      </g>
     </g>
    </g>
    <g id="xtick_17">
     <g id="line2d_33">
      <path d="M 521.526259 294.590247 
L 521.526259 22.318125 
" clip-path="url(#pa4bb78b9f6)" style="fill: none; stroke-dasharray: 1.85,0.8; stroke-dashoffset: 0; stroke: #b0b0b0; stroke-width: 0.5"/>
     </g>
     <g id="line2d_34">
      <g>
       <use xlink:href="#m79670901fc" x="521.526259" y="294.590247" style="stroke: #000000; stroke-width: 0.6"/>
      </g>
     </g>
    </g>
    <g id="xtick_18">
     <g id="line2d_35">
      <path d="M 536.378431 294.590247 
L 536.378431 22.318125 
" clip-path="url(#pa4bb78b9f6)" style="fill: none; stroke-dasharray: 1.85,0.8; stroke-dashoffset: 0; stroke: #b0b0b0; stroke-width: 0.5"/>
     </g>
     <g id="line2d_36">
      <g>
       <use xlink:href="#m79670901fc" x="536.378431" y="294.590247" style="stroke: #000000; stroke-width: 0.6"/>
      </g>
     </g>
    </g>
    <g id="xtick_19">
     <g id="line2d_37">
      <path d="M 549.478976 294.590247 
L 549.478976 22.318125 
" clip-path="url(#pa4bb78b9f6)" style="fill: none; stroke-dasharray: 1.85,0.8; stroke-dashoffset: 0; stroke: #b0b0b0; stroke-width: 0.5"/>
     </g>
     <g id="line2d_38">
      <g>
       <use xlink:href="#m79670901fc" x="549.478976" y="294.590247" style="stroke: #000000; stroke-width: 0.6"/>
      </g>
     </g>
    </g>
    <g id="text_4">
     <!-- Frequency (Hz) -->
     <g transform="translate(267.385625 342.526987) scale(0.1 -0.1)">
      <defs>
       <path id="DejaVuSans-46" d="M 628 4666 
L 3309 4666 
L 3309 4134 
L 1259 4134 
L 1259 2759 
L 3109 2759 
L 3109 2228 
L 1259 2228 
L 1259 0 
L 628 0 
L 628 4666 
z
" transform="scale(0.015625)"/>
       <path id="DejaVuSans-72" d="M 2631 2963 
Q 2534 3019 2420 3045 
Q 2306 3072 2169 3072 
Q 1681 3072 1420 2755 
Q 1159 2438 1159 1844 
L 1159 0 
L 581 0 
L 581 3500 
L 1159 3500 
L 1159 2956 
Q 1341 3275 1631 3429 
Q 1922 3584 2338 3584 
Q 2397 3584 2469 3576 
Q 2541 3569 2628 3553 
L 2631 2963 
z
" transform="scale(0.015625)"/>
       <path id="DejaVuSans-65" d="M 3597 1894 
L 3597 1613 
L 953 1613 
Q 991 1019 1311 708 
Q 1631 397 2203 397 
Q 2534 397 2845 478 
Q 3156 559 3463 722 
L 3463 178 
Q 3153 47 2828 -22 
Q 2503 -91 2169 -91 
Q 1331 -91 842 396 
Q 353 884 353 1716 
Q 353 2575 817 3079 
Q 1281 3584 2069 3584 
Q 2775 3584 3186 3129 
Q 3597 2675 3597 1894 
z
M 3022 2063 
Q 3016 2534 2758 2815 
Q 2500 3097 2075 3097 
Q 1594 3097 1305 2825 
Q 1016 2553 972 2059 
L 3022 2063 
z
" transform="scale(0.015625)"/>
       <path id="DejaVuSans-71" d="M 947 1747 
Q 947 1113 1208 752 
Q 1469 391 1925 391 
Q 2381 391 2643 752 
Q 2906 1113 2906 1747 
Q 2906 2381 2643 2742 
Q 2381 3103 1925 3103 
Q 1469 3103 1208 2742 
Q 947 2381 947 1747 
z
M 2906 525 
Q 2725 213 2448 61 
Q 2172 -91 1784 -91 
Q 1150 -91 751 415 
Q 353 922 353 1747 
Q 353 2572 751 3078 
Q 1150 3584 1784 3584 
Q 2172 3584 2448 3432 
Q 2725 3281 2906 2969 
L 2906 3500 
L 3481 3500 
L 3481 -1331 
L 2906 -1331 
L 2906 525 
z
" transform="scale(0.015625)"/>
       <path id="DejaVuSans-75" d="M 544 1381 
L 544 3500 
L 1119 3500 
L 1119 1403 
Q 1119 906 1312 657 
Q 1506 409 1894 409 
Q 2359 409 2629 706 
Q 2900 1003 2900 1516 
L 2900 3500 
L 3475 3500 
L 3475 0 
L 2900 0 
L 2900 538 
Q 2691 219 2414 64 
Q 2138 -91 1772 -91 
Q 1169 -91 856 284 
Q 544 659 544 1381 
z
M 1991 3584 
L 1991 3584 
z
" transform="scale(0.015625)"/>
       <path id="DejaVuSans-6e" d="M 3513 2113 
L 3513 0 
L 2938 0 
L 2938 2094 
Q 2938 2591 2744 2837 
Q 2550 3084 2163 3084 
Q 1697 3084 1428 2787 
Q 1159 2491 1159 1978 
L 1159 0 
L 581 0 
L 581 3500 
L 1159 3500 
L 1159 2956 
Q 1366 3272 1645 3428 
Q 1925 3584 2291 3584 
Q 2894 3584 3203 3211 
Q 3513 2838 3513 2113 
z
" transform="scale(0.015625)"/>
       <path id="DejaVuSans-63" d="M 3122 3366 
L 3122 2828 
Q 2878 2963 2633 3030 
Q 2388 3097 2138 3097 
Q 1578 3097 1268 2742 
Q 959 2388 959 1747 
Q 959 1106 1268 751 
Q 1578 397 2138 397 
Q 2388 397 2633 464 
Q 2878 531 3122 666 
L 3122 134 
Q 2881 22 2623 -34 
Q 2366 -91 2075 -91 
Q 1284 -91 818 406 
Q 353 903 353 1747 
Q 353 2603 823 3093 
Q 1294 3584 2113 3584 
Q 2378 3584 2631 3529 
Q 2884 3475 3122 3366 
z
" transform="scale(0.015625)"/>
       <path id="DejaVuSans-79" d="M 2059 -325 
Q 1816 -950 1584 -1140 
Q 1353 -1331 966 -1331 
L 506 -1331 
L 506 -850 
L 844 -850 
Q 1081 -850 1212 -737 
Q 1344 -625 1503 -206 
L 1606 56 
L 191 3500 
L 800 3500 
L 1894 763 
L 2988 3500 
L 3597 3500 
L 2059 -325 
z
" transform="scale(0.015625)"/>
       <path id="DejaVuSans-20" transform="scale(0.015625)"/>
       <path id="DejaVuSans-28" d="M 1984 4856 
Q 1566 4138 1362 3434 
Q 1159 2731 1159 2009 
Q 1159 1288 1364 580 
Q 1569 -128 1984 -844 
L 1484 -844 
Q 1016 -109 783 600 
Q 550 1309 550 2009 
Q 550 2706 781 3412 
Q 1013 4119 1484 4856 
L 1984 4856 
z
" transform="scale(0.015625)"/>
       <path id="DejaVuSans-48" d="M 628 4666 
L 1259 4666 
L 1259 2753 
L 3553 2753 
L 3553 4666 
L 4184 4666 
L 4184 0 
L 3553 0 
L 3553 2222 
L 1259 2222 
L 1259 0 
L 628 0 
L 628 4666 
z
" transform="scale(0.015625)"/>
       <path id="DejaVuSans-7a" d="M 353 3500 
L 3084 3500 
L 3084 2975 
L 922 459 
L 3084 459 
L 3084 0 
L 275 0 
L 275 525 
L 2438 3041 
L 353 3041 
L 353 3500 
z
" transform="scale(0.015625)"/>
       <path id="DejaVuSans-29" d="M 513 4856 
L 1013 4856 
Q 1481 4119 1714 3412 
Q 1947 2706 1947 2009 
Q 1947 1309 1714 600 
Q 1481 -109 1013 -844 
L 513 -844 
Q 928 -128 1133 580 
Q 1338 1288 1338 2009 
Q 1338 2731 1133 3434 
Q 928 4138 513 4856 
z
" transform="scale(0.015625)"/>
      </defs>
      <use xlink:href="#DejaVuSans-46"/>
      <use xlink:href="#DejaVuSans-72" transform="translate(50.269531 0)"/>
      <use xlink:href="#DejaVuSans-65" transform="translate(89.132812 0)"/>
      <use xlink:href="#DejaVuSans-71" transform="translate(150.65625 0)"/>
      <use xlink:href="#DejaVuSans-75" transform="translate(214.132812 0)"/>
      <use xlink:href="#DejaVuSans-65" transform="translate(277.511719 0)"/>
      <use xlink:href="#DejaVuSans-6e" transform="translate(339.035156 0)"/>
      <use xlink:href="#DejaVuSans-63" transform="translate(402.414062 0)"/>
      <use xlink:href="#DejaVuSans-79" transform="translate(457.394531 0)"/>
      <use xlink:href="#DejaVuSans-20" transform="translate(516.574219 0)"/>
      <use xlink:href="#DejaVuSans-28" transform="translate(548.361328 0)"/>
      <use xlink:href="#DejaVuSans-48" transform="translate(587.375 0)"/>
      <use xlink:href="#DejaVuSans-7a" transform="translate(662.570312 0)"/>
      <use xlink:href="#DejaVuSans-29" transform="translate(715.060547 0)"/>
     </g>
    </g>
   </g>
   <g id="matplotlib.axis_2">
    <g id="ytick_1">
     <g id="line2d_39">
      <path d="M 48.982813 294.590247 
L 561.197812 294.590247 
" clip-path="url(#pa4bb78b9f6)" style="fill: none; stroke-dasharray: 1.85,0.8; stroke-dashoffset: 0; stroke: #b0b0b0; stroke-width: 0.5"/>
     </g>
     <g id="line2d_40">
      <defs>
       <path id="m0a90d9d3f3" d="M 0 0 
L -3.5 0 
" style="stroke: #000000; stroke-width: 0.8"/>
      </defs>
      <g>
       <use xlink:href="#m0a90d9d3f3" x="48.982813" y="294.590247" style="stroke: #000000; stroke-width: 0.8"/>
      </g>
     </g>
     <g id="text_5">
      <!-- −20 -->
      <g transform="translate(20.878125 298.389466) scale(0.1 -0.1)">
       <defs>
        <path id="DejaVuSans-2212" d="M 678 2272 
L 4684 2272 
L 4684 1741 
L 678 1741 
L 678 2272 
z
" transform="scale(0.015625)"/>
        <path id="DejaVuSans-32" d="M 1228 531 
L 3431 531 
L 3431 0 
L 469 0 
L 469 531 
Q 828 903 1448 1529 
Q 2069 2156 2228 2338 
Q 2531 2678 2651 2914 
Q 2772 3150 2772 3378 
Q 2772 3750 2511 3984 
Q 2250 4219 1831 4219 
Q 1534 4219 1204 4116 
Q 875 4013 500 3803 
L 500 4441 
Q 881 4594 1212 4672 
Q 1544 4750 1819 4750 
Q 2544 4750 2975 4387 
Q 3406 4025 3406 3419 
Q 3406 3131 3298 2873 
Q 3191 2616 2906 2266 
Q 2828 2175 2409 1742 
Q 1991 1309 1228 531 
z
" transform="scale(0.015625)"/>
       </defs>
       <use xlink:href="#DejaVuSans-2212"/>
       <use xlink:href="#DejaVuSans-32" transform="translate(83.789062 0)"/>
       <use xlink:href="#DejaVuSans-30" transform="translate(147.412109 0)"/>
      </g>
     </g>
    </g>
    <g id="ytick_2">
     <g id="line2d_41">
      <path d="M 48.982813 255.694229 
L 561.197812 255.694229 
" clip-path="url(#pa4bb78b9f6)" style="fill: none; stroke-dasharray: 1.85,0.8; stroke-dashoffset: 0; stroke: #b0b0b0; stroke-width: 0.5"/>
     </g>
     <g id="line2d_42">
      <g>
       <use xlink:href="#m0a90d9d3f3" x="48.982813" y="255.694229" style="stroke: #000000; stroke-width: 0.8"/>
      </g>
     </g>
     <g id="text_6">
      <!-- −10 -->
      <g transform="translate(20.878125 259.493448) scale(0.1 -0.1)">
       <use xlink:href="#DejaVuSans-2212"/>
       <use xlink:href="#DejaVuSans-31" transform="translate(83.789062 0)"/>
       <use xlink:href="#DejaVuSans-30" transform="translate(147.412109 0)"/>
      </g>
     </g>
    </g>
    <g id="ytick_3">
     <g id="line2d_43">
      <path d="M 48.982813 216.798212 
L 561.197812 216.798212 
" clip-path="url(#pa4bb78b9f6)" style="fill: none; stroke-dasharray: 1.85,0.8; stroke-dashoffset: 0; stroke: #b0b0b0; stroke-width: 0.5"/>
     </g>
     <g id="line2d_44">
      <g>
       <use xlink:href="#m0a90d9d3f3" x="48.982813" y="216.798212" style="stroke: #000000; stroke-width: 0.8"/>
      </g>
     </g>
     <g id="text_7">
      <!-- 0 -->
      <g transform="translate(35.620313 220.597431) scale(0.1 -0.1)">
       <use xlink:href="#DejaVuSans-30"/>
      </g>
     </g>
    </g>
    <g id="ytick_4">
     <g id="line2d_45">
      <path d="M 48.982813 177.902195 
L 561.197812 177.902195 
" clip-path="url(#pa4bb78b9f6)" style="fill: none; stroke-dasharray: 1.85,0.8; stroke-dashoffset: 0; stroke: #b0b0b0; stroke-width: 0.5"/>
     </g>
     <g id="line2d_46">
      <g>
       <use xlink:href="#m0a90d9d3f3" x="48.982813" y="177.902195" style="stroke: #000000; stroke-width: 0.8"/>
      </g>
     </g>
     <g id="text_8">
      <!-- 10 -->
      <g transform="translate(29.257813 181.701413) scale(0.1 -0.1)">
       <use xlink:href="#DejaVuSans-31"/>
       <use xlink:href="#DejaVuSans-30" transform="translate(63.623047 0)"/>
      </g>
     </g>
    </g>
    <g id="ytick_5">
     <g id="line2d_47">
      <path d="M 48.982813 139.006177 
L 561.197812 139.006177 
" clip-path="url(#pa4bb78b9f6)" style="fill: none; stroke-dasharray: 1.85,0.8; stroke-dashoffset: 0; stroke: #b0b0b0; stroke-width: 0.5"/>
     </g>
     <g id="line2d_48">
      <g>
       <use xlink:href="#m0a90d9d3f3" x="48.982813" y="139.006177" style="stroke: #000000; stroke-width: 0.8"/>
      </g>
     </g>
     <g id="text_9">
      <!-- 20 -->
      <g transform="translate(29.257813 142.805396) scale(0.1 -0.1)">
       <use xlink:href="#DejaVuSans-32"/>
       <use xlink:href="#DejaVuSans-30" transform="translate(63.623047 0)"/>
      </g>
     </g>
    </g>
    <g id="ytick_6">
     <g id="line2d_49">
      <path d="M 48.982813 100.11016 
L 561.197812 100.11016 
" clip-path="url(#pa4bb78b9f6)" style="fill: none; stroke-dasharray: 1.85,0.8; stroke-dashoffset: 0; stroke: #b0b0b0; stroke-width: 0.5"/>
     </g>
     <g id="line2d_50">
      <g>
       <use xlink:href="#m0a90d9d3f3" x="48.982813" y="100.11016" style="stroke: #000000; stroke-width: 0.8"/>
      </g>
     </g>
     <g id="text_10">
      <!-- 30 -->
      <g transform="translate(29.257813 103.909379) scale(0.1 -0.1)">
       <defs>
        <path id="DejaVuSans-33" d="M 2597 2516 
Q 3050 2419 3304 2112 
Q 3559 1806 3559 1356 
Q 3559 666 3084 287 
Q 2609 -91 1734 -91 
Q 1441 -91 1130 -33 
Q 819 25 488 141 
L 488 750 
Q 750 597 1062 519 
Q 1375 441 1716 441 
Q 2309 441 2620 675 
Q 2931 909 2931 1356 
Q 2931 1769 2642 2001 
Q 2353 2234 1838 2234 
L 1294 2234 
L 1294 2753 
L 1863 2753 
Q 2328 2753 2575 2939 
Q 2822 3125 2822 3475 
Q 2822 3834 2567 4026 
Q 2313 4219 1838 4219 
Q 1578 4219 1281 4162 
Q 984 4106 628 3988 
L 628 4550 
Q 988 4650 1302 4700 
Q 1616 4750 1894 4750 
Q 2613 4750 3031 4423 
Q 3450 4097 3450 3541 
Q 3450 3153 3228 2886 
Q 3006 2619 2597 2516 
z
" transform="scale(0.015625)"/>
       </defs>
       <use xlink:href="#DejaVuSans-33"/>
       <use xlink:href="#DejaVuSans-30" transform="translate(63.623047 0)"/>
      </g>
     </g>
    </g>
    <g id="ytick_7">
     <g id="line2d_51">
      <path d="M 48.982813 61.214142 
L 561.197812 61.214142 
" clip-path="url(#pa4bb78b9f6)" style="fill: none; stroke-dasharray: 1.85,0.8; stroke-dashoffset: 0; stroke: #b0b0b0; stroke-width: 0.5"/>
     </g>
     <g id="line2d_52">
      <g>
       <use xlink:href="#m0a90d9d3f3" x="48.982813" y="61.214142" style="stroke: #000000; stroke-width: 0.8"/>
      </g>
     </g>
     <g id="text_11">
      <!-- 40 -->
      <g transform="translate(29.257813 65.013361) scale(0.1 -0.1)">
       <defs>
        <path id="DejaVuSans-34" d="M 2419 4116 
L 825 1625 
L 2419 1625 
L 2419 4116 
z
M 2253 4666 
L 3047 4666 
L 3047 1625 
L 3713 1625 
L 3713 1100 
L 3047 1100 
L 3047 0 
L 2419 0 
L 2419 1100 
L 313 1100 
L 313 1709 
L 2253 4666 
z
" transform="scale(0.015625)"/>
       </defs>
       <use xlink:href="#DejaVuSans-34"/>
       <use xlink:href="#DejaVuSans-30" transform="translate(63.623047 0)"/>
      </g>
     </g>
    </g>
    <g id="ytick_8">
     <g id="line2d_53">
      <path d="M 48.982813 22.318125 
L 561.197812 22.318125 
" clip-path="url(#pa4bb78b9f6)" style="fill: none; stroke-dasharray: 1.85,0.8; stroke-dashoffset: 0; stroke: #b0b0b0; stroke-width: 0.5"/>
     </g>
     <g id="line2d_54">
      <g>
       <use xlink:href="#m0a90d9d3f3" x="48.982813" y="22.318125" style="stroke: #000000; stroke-width: 0.8"/>
      </g>
     </g>
     <g id="text_12">
      <!-- 50 -->
      <g transform="translate(29.257813 26.117344) scale(0.1 -0.1)">
       <defs>
        <path id="DejaVuSans-35" d="M 691 4666 
L 3169 4666 
L 3169 4134 
L 1269 4134 
L 1269 2991 
Q 1406 3038 1543 3061 
Q 1681 3084 1819 3084 
Q 2600 3084 3056 2656 
Q 3513 2228 3513 1497 
Q 3513 744 3044 326 
Q 2575 -91 1722 -91 
Q 1428 -91 1123 -41 
Q 819 9 494 109 
L 494 744 
Q 775 591 1075 516 
Q 1375 441 1709 441 
Q 2250 441 2565 725 
Q 2881 1009 2881 1497 
Q 2881 1984 2565 2268 
Q 2250 2553 1709 2553 
Q 1456 2553 1204 2497 
Q 953 2441 691 2322 
L 691 4666 
z
" transform="scale(0.015625)"/>
       </defs>
       <use xlink:href="#DejaVuSans-35"/>
       <use xlink:href="#DejaVuSans-30" transform="translate(63.623047 0)"/>
      </g>
     </g>
    </g>
    <g id="text_13">
     <!-- SPL (dBA) -->
     <g transform="translate(14.798438 182.944811) rotate(-90) scale(0.1 -0.1)">
      <defs>
       <path id="DejaVuSans-53" d="M 3425 4513 
L 3425 3897 
Q 3066 4069 2747 4153 
Q 2428 4238 2131 4238 
Q 1616 4238 1336 4038 
Q 1056 3838 1056 3469 
Q 1056 3159 1242 3001 
Q 1428 2844 1947 2747 
L 2328 2669 
Q 3034 2534 3370 2195 
Q 3706 1856 3706 1288 
Q 3706 609 3251 259 
Q 2797 -91 1919 -91 
Q 1588 -91 1214 -16 
Q 841 59 441 206 
L 441 856 
Q 825 641 1194 531 
Q 1563 422 1919 422 
Q 2459 422 2753 634 
Q 3047 847 3047 1241 
Q 3047 1584 2836 1778 
Q 2625 1972 2144 2069 
L 1759 2144 
Q 1053 2284 737 2584 
Q 422 2884 422 3419 
Q 422 4038 858 4394 
Q 1294 4750 2059 4750 
Q 2388 4750 2728 4690 
Q 3069 4631 3425 4513 
z
" transform="scale(0.015625)"/>
       <path id="DejaVuSans-50" d="M 1259 4147 
L 1259 2394 
L 2053 2394 
Q 2494 2394 2734 2622 
Q 2975 2850 2975 3272 
Q 2975 3691 2734 3919 
Q 2494 4147 2053 4147 
L 1259 4147 
z
M 628 4666 
L 2053 4666 
Q 2838 4666 3239 4311 
Q 3641 3956 3641 3272 
Q 3641 2581 3239 2228 
Q 2838 1875 2053 1875 
L 1259 1875 
L 1259 0 
L 628 0 
L 628 4666 
z
" transform="scale(0.015625)"/>
       <path id="DejaVuSans-4c" d="M 628 4666 
L 1259 4666 
L 1259 531 
L 3531 531 
L 3531 0 
L 628 0 
L 628 4666 
z
" transform="scale(0.015625)"/>
       <path id="DejaVuSans-64" d="M 2906 2969 
L 2906 4863 
L 3481 4863 
L 3481 0 
L 2906 0 
L 2906 525 
Q 2725 213 2448 61 
Q 2172 -91 1784 -91 
Q 1150 -91 751 415 
Q 353 922 353 1747 
Q 353 2572 751 3078 
Q 1150 3584 1784 3584 
Q 2172 3584 2448 3432 
Q 2725 3281 2906 2969 
z
M 947 1747 
Q 947 1113 1208 752 
Q 1469 391 1925 391 
Q 2381 391 2643 752 
Q 2906 1113 2906 1747 
Q 2906 2381 2643 2742 
Q 2381 3103 1925 3103 
Q 1469 3103 1208 2742 
Q 947 2381 947 1747 
z
" transform="scale(0.015625)"/>
       <path id="DejaVuSans-42" d="M 1259 2228 
L 1259 519 
L 2272 519 
Q 2781 519 3026 730 
Q 3272 941 3272 1375 
Q 3272 1813 3026 2020 
Q 2781 2228 2272 2228 
L 1259 2228 
z
M 1259 4147 
L 1259 2741 
L 2194 2741 
Q 2656 2741 2882 2914 
Q 3109 3088 3109 3444 
Q 3109 3797 2882 3972 
Q 2656 4147 2194 4147 
L 1259 4147 
z
M 628 4666 
L 2241 4666 
Q 2963 4666 3353 4366 
Q 3744 4066 3744 3513 
Q 3744 3084 3544 2831 
Q 3344 2578 2956 2516 
Q 3422 2416 3680 2098 
Q 3938 1781 3938 1306 
Q 3938 681 3513 340 
Q 3088 0 2303 0 
L 628 0 
L 628 4666 
z
" transform="scale(0.015625)"/>
       <path id="DejaVuSans-41" d="M 2188 4044 
L 1331 1722 
L 3047 1722 
L 2188 4044 
z
M 1831 4666 
L 2547 4666 
L 4325 0 
L 3669 0 
L 3244 1197 
L 1141 1197 
L 716 0 
L 50 0 
L 1831 4666 
z
" transform="scale(0.015625)"/>
      </defs>
      <use xlink:href="#DejaVuSans-53"/>
      <use xlink:href="#DejaVuSans-50" transform="translate(63.476562 0)"/>
      <use xlink:href="#DejaVuSans-4c" transform="translate(123.779297 0)"/>
      <use xlink:href="#DejaVuSans-20" transform="translate(179.492188 0)"/>
      <use xlink:href="#DejaVuSans-28" transform="translate(211.279297 0)"/>
      <use xlink:href="#DejaVuSans-64" transform="translate(250.292969 0)"/>
      <use xlink:href="#DejaVuSans-42" transform="translate(313.769531 0)"/>
      <use xlink:href="#DejaVuSans-41" transform="translate(382.373047 0)"/>
      <use xlink:href="#DejaVuSans-29" transform="translate(450.78125 0)"/>
     </g>
    </g>
   </g>
   <g id="line2d_55">
    <path d="M 51.493242 90.676664 
L 57.198394 87.453804 
L 62.625131 85.680162 
L 67.79937 106.742343 
L 72.743565 112.857345 
L 77.477304 103.318352 
L 82.017775 100.085137 
L 86.38014 109.394944 
L 94.622879 122.011905 
L 98.525949 127.677423 
L 102.296685 126.244976 
L 105.943768 120.703829 
L 109.475052 115.976946 
L 112.897663 114.783136 
L 116.218091 112.384754 
L 119.44226 108.938665 
L 122.575596 107.154525 
L 125.623077 106.45251 
L 128.589281 112.734708 
L 131.478432 115.420898 
L 134.294433 114.353769 
L 137.040895 114.334441 
L 139.721171 111.158883 
L 142.338376 117.441353 
L 144.89541 130.833361 
L 147.394977 137.048992 
L 149.839605 144.205085 
L 152.231656 148.222785 
L 154.573344 138.46916 
L 156.866746 130.132084 
L 159.113814 140.328345 
L 161.316383 144.917617 
L 163.47618 142.884577 
L 165.594836 137.404915 
L 167.673888 138.778455 
L 169.714791 138.94976 
L 171.718919 135.37578 
L 175.621988 134.094418 
L 177.523335 130.568604 
L 179.392725 125.552593 
L 181.231214 120.26444 
L 183.039808 118.764757 
L 184.819463 117.812645 
L 186.571091 120.583025 
L 189.993702 127.699116 
L 191.666306 128.697867 
L 193.31413 131.842671 
L 194.937897 133.612015 
L 196.5383 132.211305 
L 198.116001 131.235909 
L 199.671636 129.038877 
L 201.205813 123.517577 
L 202.719116 119.114518 
L 204.212106 112.873436 
L 205.685321 108.528132 
L 207.139277 112.412737 
L 208.574472 112.754471 
L 209.991384 115.531103 
L 211.390472 119.658866 
L 212.77218 121.914997 
L 215.485146 133.505211 
L 216.817211 134.611983 
L 218.133511 131.659825 
L 220.720281 138.004781 
L 221.99145 135.877219 
L 223.248255 135.409065 
L 224.491017 134.729783 
L 225.720047 132.623105 
L 226.935645 129.971204 
L 229.327695 121.955567 
L 230.504702 118.353649 
L 231.669383 111.21823 
L 232.821996 100.887329 
L 233.962786 99.311174 
L 235.091994 106.176083 
L 236.209854 110.813696 
L 237.31659 113.039248 
L 238.412422 120.172929 
L 239.497563 124.840203 
L 240.572219 133.341373 
L 241.636592 133.312969 
L 242.690875 129.5342 
L 243.735259 130.050618 
L 244.769928 131.776705 
L 245.79506 126.349741 
L 246.810831 118.681656 
L 247.817408 118.290369 
L 248.814958 117.003559 
L 249.803641 114.031173 
L 250.783613 112.684375 
L 251.755026 112.898609 
L 252.718028 117.664912 
L 253.672764 119.692583 
L 254.619375 121.109175 
L 255.557997 121.268615 
L 256.488765 121.599453 
L 257.411808 119.969074 
L 258.327254 117.416654 
L 260.135848 121.835865 
L 261.029235 121.571276 
L 261.915503 122.295352 
L 262.794765 124.935252 
L 263.667131 123.669912 
L 264.532708 124.239376 
L 265.391601 126.072445 
L 266.243912 128.759429 
L 267.089742 132.003603 
L 267.929188 133.826464 
L 268.762346 131.819705 
L 269.589309 132.727654 
L 270.41017 134.285926 
L 271.225016 133.574998 
L 272.033937 135.231005 
L 274.425987 147.352379 
L 275.992578 151.431589 
L 276.767675 150.426894 
L 277.537409 145.01189 
L 278.301853 142.004596 
L 279.061078 137.759822 
L 279.815156 135.150309 
L 280.564156 131.606748 
L 281.308146 129.71468 
L 282.047192 126.746955 
L 282.78136 129.227722 
L 283.510714 129.812462 
L 284.235317 131.028887 
L 284.955229 130.670682 
L 285.670512 133.87571 
L 286.381224 136.498247 
L 287.087423 140.905918 
L 287.789168 146.24651 
L 288.486512 145.782699 
L 289.86822 139.331188 
L 290.55269 136.730762 
L 291.909123 129.031235 
L 292.581186 124.928139 
L 293.249212 125.345872 
L 293.91325 124.962916 
L 294.573348 125.426675 
L 295.229551 122.642002 
L 295.881905 119.019904 
L 296.530455 118.485522 
L 297.175246 117.665194 
L 297.81632 116.05134 
L 298.453721 118.037585 
L 299.087489 122.094799 
L 300.344294 136.223536 
L 300.967411 144.541993 
L 301.587057 146.573576 
L 302.816087 142.221672 
L 303.425546 141.392663 
L 304.031684 143.000368 
L 304.634537 141.602299 
L 305.23414 140.880814 
L 305.830528 143.958755 
L 306.423735 140.670566 
L 307.013795 135.942866 
L 307.600741 134.651686 
L 308.765423 130.937009 
L 309.343222 131.919415 
L 309.918035 136.477704 
L 310.489893 140.077453 
L 311.058825 145.889392 
L 311.624863 150.310782 
L 312.188034 152.032578 
L 312.748368 151.556159 
L 313.305893 151.858126 
L 313.860638 150.796213 
L 314.412629 148.772153 
L 314.961895 148.190315 
L 315.508462 145.928521 
L 316.052356 145.643388 
L 317.132229 142.420835 
L 317.668259 140.193208 
L 318.201719 142.090272 
L 319.261022 149.605978 
L 319.786915 153.512928 
L 320.310333 154.366351 
L 320.831299 154.770249 
L 321.349836 153.274621 
L 321.865968 153.067388 
L 322.8911 143.619724 
L 323.400145 137.719594 
L 323.90687 138.99333 
L 324.913448 154.523898 
L 325.413341 157.440867 
L 325.910998 158.49346 
L 326.406438 157.794362 
L 326.899681 154.852931 
L 327.390746 155.050343 
L 327.879652 160.928127 
L 328.366419 161.833378 
L 329.333609 157.186002 
L 329.814068 157.983703 
L 330.29246 161.045408 
L 330.768804 162.802923 
L 331.243116 160.559554 
L 331.715414 157.491898 
L 332.185716 150.684223 
L 333.584804 142.692771 
L 334.047283 145.525869 
L 334.507847 149.605893 
L 334.966512 147.801385 
L 335.423294 148.004008 
L 336.331266 159.029877 
L 336.782489 160.773709 
L 337.231887 157.082422 
L 338.125274 152.297982 
L 338.569291 151.755683 
L 339.452042 157.45774 
L 339.890805 157.727466 
L 340.327843 159.40445 
L 341.196801 163.675277 
L 341.628747 164.674895 
L 342.059023 162.911069 
L 342.914612 152.851339 
L 343.76367 147.51506 
L 344.185781 146.813465 
L 344.606296 145.198066 
L 345.025227 144.54004 
L 345.442586 143.409478 
L 345.858385 144.481723 
L 346.272636 149.001264 
L 347.096536 146.341993 
L 347.506209 147.821801 
L 347.914379 150.95909 
L 348.321056 150.389331 
L 348.726251 150.859647 
L 349.129976 153.222341 
L 349.532241 153.788833 
L 349.933056 155.442574 
L 350.332432 155.567925 
L 351.126907 151.782552 
L 351.522027 148.203326 
L 351.915748 147.610764 
L 352.30808 147.617698 
L 352.699034 146.527642 
L 353.088617 144.369557 
L 353.476841 144.234307 
L 353.863715 145.509237 
L 354.249248 147.574428 
L 354.633449 150.962878 
L 355.016327 150.679813 
L 355.397892 148.519463 
L 355.778153 149.695004 
L 356.157118 151.402292 
L 356.534795 150.92915 
L 356.911195 150.238723 
L 357.660195 151.772868 
L 358.032812 152.17831 
L 358.774322 158.652654 
L 359.143232 156.0552 
L 359.510922 156.825577 
L 360.242675 149.384133 
L 360.969645 146.561631 
L 361.331356 143.226022 
L 361.691895 142.271233 
L 362.051269 143.277319 
L 362.409485 142.53698 
L 362.766551 140.202203 
L 363.122475 139.631733 
L 363.830924 137.442298 
L 364.183463 137.711125 
L 364.534889 140.345942 
L 364.885207 145.858773 
L 365.234426 146.946222 
L 365.929591 153.094278 
L 366.275551 156.522712 
L 366.620439 162.255581 
L 367.307021 168.070169 
L 367.64873 167.277708 
L 367.989392 167.220359 
L 368.329014 163.687732 
L 368.667602 162.164916 
L 369.005162 163.471813 
L 370.01174 165.581473 
L 370.345252 163.854055 
L 370.677766 165.026496 
L 371.669387 173.6503 
L 371.997973 173.011407 
L 372.32559 171.585682 
L 372.977945 167.735477 
L 373.302692 167.398411 
L 373.626495 166.57236 
L 373.949357 164.443417 
L 374.271286 159.685097 
L 374.592285 159.15459 
L 374.91236 158.359704 
L 375.867096 165.13729 
L 376.183529 165.732565 
L 376.499064 163.796706 
L 376.813707 165.824513 
L 377.440334 175.248994 
L 378.373705 178.555204 
L 378.683096 174.66534 
L 378.991629 173.621739 
L 379.299309 173.691928 
L 379.60614 172.98007 
L 379.912126 173.952002 
L 380.217273 175.444923 
L 380.521586 174.719425 
L 380.825068 175.478023 
L 381.429559 181.358242 
L 381.730577 182.201769 
L 382.030782 180.596799 
L 382.33018 176.297138 
L 382.628773 175.84097 
L 382.926567 173.483005 
L 383.815196 157.437636 
L 384.109835 154.907124 
L 384.403695 167.6526 
L 384.989097 170.299795 
L 385.280646 172.472643 
L 385.571434 172.696082 
L 385.861463 172.739959 
L 386.150737 168.376186 
L 386.439262 167.78346 
L 386.72704 170.079326 
L 387.014075 170.306785 
L 387.300371 171.363692 
L 387.870762 171.012807 
L 388.154865 170.354874 
L 388.438244 171.004461 
L 389.284073 163.921534 
L 389.564593 164.265574 
L 389.844407 163.816555 
L 390.123519 161.879634 
L 390.401933 161.682981 
L 390.679651 163.935803 
L 390.956677 164.800964 
L 391.508669 167.81235 
L 391.783641 168.622181 
L 392.057935 168.558916 
L 392.331554 166.280879 
L 392.876781 160.797396 
L 393.419348 158.184305 
L 393.689642 157.752066 
L 393.959281 158.991479 
L 394.228268 159.520264 
L 394.496606 161.366821 
L 394.764299 164.604298 
L 395.031348 166.0226 
L 395.563531 177.835492 
L 395.828671 181.740514 
L 396.09318 182.065304 
L 396.357062 182.759612 
L 397.406372 188.880093 
L 397.667161 183.633724 
L 397.927339 183.673273 
L 398.18691 185.573314 
L 398.445876 184.070047 
L 399.219177 186.977353 
L 399.731741 189.789496 
L 399.98714 189.79246 
L 400.241953 186.260647 
L 400.749836 182.623327 
L 401.00291 179.747597 
L 401.25541 179.585587 
L 401.758696 182.700709 
L 402.009488 183.255346 
L 402.259715 183.084238 
L 402.509381 185.621351 
L 402.758488 184.939165 
L 403.007038 183.13314 
L 403.255033 185.194899 
L 403.502477 184.072816 
L 403.749372 184.940904 
L 403.99572 184.896529 
L 404.241524 177.084189 
L 404.731507 190.234295 
L 404.975692 191.423788 
L 405.219342 196.220038 
L 405.462459 197.678458 
L 405.705046 195.150471 
L 405.947105 194.403968 
L 406.188638 191.876792 
L 406.670137 190.717822 
L 407.3885 185.060308 
L 407.626927 180.415998 
L 407.864843 181.494856 
L 408.102252 183.74923 
L 408.339156 183.612834 
L 408.575556 186.269074 
L 408.811454 186.493827 
L 409.281755 188.132054 
L 409.750076 192.908629 
L 410.448881 196.495411 
L 410.680844 194.162337 
L 410.912324 193.886988 
L 411.143323 193.374996 
L 411.603887 198.999681 
L 411.833456 198.485857 
L 412.291177 203.158877 
L 412.747022 200.488734 
L 412.974246 199.540524 
L 413.427306 197.021647 
L 413.653146 197.100268 
L 413.878528 197.322798 
L 414.103455 194.428421 
L 414.327927 195.061972 
L 414.551947 194.745956 
L 414.775517 195.316054 
L 414.998639 194.600126 
L 415.221314 192.223155 
L 415.443544 193.758949 
L 415.665331 192.824014 
L 415.886676 193.581915 
L 416.107582 194.794922 
L 416.32805 194.903367 
L 416.548082 195.787086 
L 416.76768 195.104641 
L 416.986844 191.518386 
L 417.205578 190.546326 
L 417.423882 191.569642 
L 417.641759 189.787549 
L 418.076237 188.779321 
L 418.292841 188.477421 
L 418.724787 186.580221 
L 418.940133 184.815021 
L 419.155063 185.809071 
L 419.58368 186.129346 
L 420.010652 184.506769 
L 420.223525 184.528563 
L 420.648052 189.457318 
L 420.85971 191.046161 
L 421.070966 196.006268 
L 421.492277 200.997584 
L 421.702336 204.771853 
L 421.911999 205.459951 
L 422.121267 205.2737 
L 422.538626 197.068382 
L 422.954425 192.415985 
L 423.161743 191.493413 
L 423.368675 191.529244 
L 423.575223 189.6855 
L 423.781388 190.109068 
L 424.192576 194.547343 
L 424.397601 193.850645 
L 424.602249 195.592697 
L 424.806521 198.621056 
L 425.010418 198.646186 
L 425.417095 197.758384 
L 425.619878 198.581933 
L 425.822291 197.006413 
L 426.024337 199.903433 
L 426.226016 201.08217 
L 426.42733 200.206749 
L 427.029096 208.614717 
L 427.228963 208.523854 
L 427.428472 211.048778 
L 427.826419 206.739747 
L 428.02486 207.081011 
L 428.222947 205.338209 
L 428.420682 206.502458 
L 428.618067 204.839212 
L 429.011788 206.42719 
L 429.599768 203.279353 
L 429.795073 202.529419 
L 430.184657 196.618332 
L 430.378938 197.667725 
L 430.572881 196.764266 
L 430.959755 197.513104 
L 431.152688 199.156377 
L 431.345287 199.653524 
L 431.537554 198.77994 
L 431.729488 200.136657 
L 431.921092 203.52361 
L 432.303313 213.691318 
L 432.493932 214.57972 
L 432.684225 214.771011 
L 433.063836 213.333007 
L 433.253157 213.133167 
L 433.442156 210.417987 
L 434.007235 197.488404 
L 434.194958 196.082959 
L 434.569457 191.638246 
L 434.756235 191.072356 
L 435.314693 196.12369 
L 435.500225 197.767551 
L 435.870362 204.239395 
L 436.05497 203.309977 
L 436.239271 200.907684 
L 436.423268 200.401426 
L 436.790351 197.049828 
L 436.973439 196.4707 
L 437.702793 206.985079 
L 438.065685 203.022084 
L 438.246687 199.533725 
L 438.427396 200.347538 
L 438.787934 203.488342 
L 438.967766 203.333682 
L 439.147308 205.558734 
L 439.684201 196.884033 
L 439.862591 191.435528 
L 440.218515 189.575846 
L 440.926963 199.446223 
L 441.103373 201.032288 
L 441.279503 200.389252 
L 441.630928 206.26212 
L 441.806225 207.434181 
L 442.852246 219.407695 
L 443.025631 218.435036 
L 443.198745 216.445005 
L 443.371591 216.205395 
L 443.544168 216.296806 
L 443.716478 216.197454 
L 443.888522 216.791366 
L 444.231812 214.800673 
L 444.574047 206.801557 
L 444.74477 206.280641 
L 444.915231 206.227726 
L 445.255372 210.743411 
L 445.425054 210.722934 
L 445.594476 211.173835 
L 445.763642 211.000867 
L 446.101202 212.66021 
L 446.269599 212.048668 
L 446.437741 212.437411 
L 446.773265 215.026192 
L 446.940648 216.400634 
L 447.10778 215.09292 
L 447.607673 200.598541 
L 447.773806 201.487974 
L 447.939691 203.337009 
L 448.10533 203.48534 
L 448.435868 209.382652 
L 448.765427 213.332568 
L 448.929841 211.833747 
L 449.257942 201.950127 
L 449.585078 201.229394 
L 449.748285 200.04113 
L 449.911254 200.025328 
L 450.073984 201.272404 
L 450.398732 205.386293 
L 450.560751 206.728743 
L 450.722535 205.603263 
L 451.045397 210.386476 
L 451.206478 210.384262 
L 451.367325 210.193063 
L 451.52794 209.033429 
L 451.688324 206.155285 
L 451.848477 205.612994 
L 452.008399 206.102796 
L 452.168092 204.516264 
L 452.327556 204.089847 
L 452.6458 201.889661 
L 452.804581 203.580216 
L 453.121464 207.586131 
L 453.279568 207.436805 
L 453.437448 210.06505 
L 453.595104 210.17385 
L 453.752536 212.65488 
L 453.909746 213.183173 
L 454.536374 208.663585 
L 454.848368 213.308667 
L 455.004038 213.815239 
L 455.15949 218.132851 
L 455.314726 216.981168 
L 455.469745 217.762197 
L 455.624548 220.073362 
L 455.779136 220.564767 
L 455.933509 218.716405 
L 456.087669 218.793456 
L 456.241615 219.064685 
L 456.395348 217.159013 
L 456.54887 217.462298 
L 456.702179 216.187704 
L 456.855278 216.634797 
L 457.008166 216.023864 
L 457.313313 212.369829 
L 457.465573 213.141367 
L 457.617625 210.346573 
L 458.072538 215.832056 
L 458.525598 220.972464 
L 458.97682 212.422643 
L 459.126822 211.615809 
L 459.426219 208.194755 
L 459.575616 208.689113 
L 460.171206 204.319501 
L 460.319606 204.817437 
L 460.467809 205.808563 
L 460.615814 209.051791 
L 460.763623 209.552858 
L 461.499735 219.698572 
L 461.646374 219.804542 
L 461.939075 221.266043 
L 462.231007 219.611102 
L 462.376686 219.20801 
L 462.522175 220.198693 
L 462.812582 217.724565 
L 462.957502 217.012254 
L 463.102234 218.047509 
L 463.246777 216.126168 
L 463.535301 211.00352 
L 463.679283 209.227247 
L 463.823079 212.030449 
L 463.966689 212.278241 
L 464.110114 213.801638 
L 464.253355 216.835105 
L 464.396411 216.899992 
L 464.824478 225.391591 
L 465.392684 219.170476 
L 465.534283 220.120657 
L 465.816942 217.114197 
L 465.958002 217.222267 
L 466.239587 221.162284 
L 466.380113 221.195404 
L 466.660633 219.763179 
L 467.080091 215.164783 
L 467.358853 217.669451 
L 467.497972 217.697015 
L 467.775691 217.008195 
L 468.052717 222.281198 
L 468.604709 213.820333 
L 468.74228 212.979423 
L 468.879681 211.082205 
L 469.153974 215.317027 
L 469.700541 203.712908 
L 469.836764 203.975133 
L 469.97282 205.146508 
L 470.10871 204.822823 
L 470.785682 181.3568 
L 470.920583 180.329178 
L 471.055321 183.002791 
L 471.189896 183.210929 
L 471.592646 198.434168 
L 471.726573 197.606483 
L 472.393798 172.878876 
L 472.526764 171.842532 
L 472.659571 173.668178 
L 472.924711 191.882303 
L 473.18922 212.738117 
L 473.716359 183.553868 
L 473.978994 192.341179 
L 474.241011 205.492684 
L 474.632883 184.017274 
L 474.893365 172.551184 
L 475.153239 174.378075 
L 475.282949 172.86493 
L 475.671173 164.413532 
L 475.929238 164.235649 
L 476.058047 162.781481 
L 476.44358 152.058775 
L 476.571794 150.182909 
L 476.699861 150.295361 
L 476.955553 161.607885 
L 477.465181 190.040562 
L 477.845875 186.167748 
L 477.972484 186.606094 
L 478.225271 188.760338 
L 478.351449 189.343949 
L 479.105527 206.528098 
L 479.480658 201.267817 
L 479.730044 199.105827 
L 479.854527 200.362137 
L 479.978872 203.581179 
L 480.103077 203.277778 
L 480.227144 204.746949 
L 480.722033 215.287703 
L 480.968654 219.396507 
L 481.460262 212.74048 
L 481.582825 210.941781 
L 481.705253 211.744968 
L 481.949706 211.550018 
L 482.193623 211.426599 
L 482.437006 212.662593 
L 482.558499 210.098063 
L 482.679858 210.32412 
L 482.801086 212.821568 
L 482.922181 211.266442 
L 483.043145 211.95977 
L 483.163977 211.592721 
L 483.284678 210.701586 
L 483.645997 212.098186 
L 483.766177 211.303953 
L 484.484539 221.635561 
L 484.841988 220.374608 
L 485.079651 214.736606 
L 485.198292 212.872734 
L 485.316807 214.035461 
L 485.435195 213.13478 
L 485.553458 213.566921 
L 485.671595 217.308757 
L 485.789607 212.827336 
L 485.907494 197.592903 
L 486.142893 218.014933 
L 486.377795 214.437811 
L 486.49506 213.363801 
L 486.612202 210.736002 
L 486.72922 210.762614 
L 486.962889 208.016561 
L 487.079539 207.778585 
L 487.428758 205.753279 
L 487.776883 211.427207 
L 487.892684 211.465074 
L 488.008363 212.099248 
L 488.239363 216.653007 
L 488.354682 217.259847 
L 488.81477 228.472187 
L 488.929496 228.164308 
L 489.158592 227.54297 
L 489.956732 217.886133 
L 490.070286 218.74091 
L 490.183724 217.585283 
L 490.297046 211.655151 
L 490.523346 214.552677 
L 490.636323 214.66642 
L 490.749186 213.727087 
L 490.861934 215.502666 
L 490.974568 215.142319 
L 491.087088 211.569092 
L 491.199494 213.092522 
L 491.311787 212.692879 
L 492.428524 229.078528 
L 492.539584 228.887638 
L 492.650532 228.041971 
L 492.872098 225.21998 
L 492.982716 224.571267 
L 493.203622 227.405913 
L 493.53416 221.520815 
L 493.644122 221.18443 
L 493.753975 220.000082 
L 493.863719 220.605014 
L 493.973355 222.319756 
L 494.082884 220.876816 
L 494.192305 221.280874 
L 494.301618 223.981486 
L 494.519922 210.731358 
L 494.737799 221.737476 
L 494.846577 222.619569 
L 494.95525 226.53155 
L 495.605063 210.705716 
L 495.712997 210.442144 
L 495.820827 210.779598 
L 496.036172 209.883317 
L 496.143689 211.870622 
L 496.358411 223.449416 
L 496.465617 223.915622 
L 496.57272 222.936091 
L 496.679719 224.427361 
L 496.89341 222.744287 
L 497.000102 222.926545 
L 497.106692 223.015395 
L 497.213179 226.198525 
L 497.319564 226.176944 
L 497.425848 226.712225 
L 497.532031 228.512749 
L 497.638112 228.15037 
L 497.849971 226.027872 
L 498.272483 230.46947 
L 498.37786 227.439908 
L 498.483138 215.785637 
L 498.588317 217.414578 
L 498.798375 226.886789 
L 499.008038 227.302279 
L 499.217307 230.716282 
L 499.426182 228.968481 
L 499.634666 232.385934 
L 499.738761 232.962947 
L 499.94666 231.475067 
L 500.050465 232.523349 
L 500.464715 227.627188 
L 500.568037 224.290985 
L 500.671263 224.721803 
L 500.774393 226.065858 
L 500.877428 225.274424 
L 500.980367 226.84177 
L 501.083212 226.703448 
L 501.288615 229.597071 
L 501.391175 226.910112 
L 501.596012 229.123889 
L 501.698288 228.600728 
L 501.800471 226.736607 
L 501.90256 227.015583 
L 502.004556 228.499029 
L 502.106458 231.688637 
L 502.208267 231.248221 
L 502.309982 233.570048 
L 502.411605 231.369902 
L 502.513135 231.698662 
L 502.715917 231.116668 
L 502.918331 230.050972 
L 503.019399 226.689291 
L 503.221262 228.111917 
L 503.322056 228.382222 
L 503.422758 226.988551 
L 503.72432 228.551329 
L 503.82466 230.207421 
L 503.924908 229.759331 
L 504.025067 229.810745 
L 504.424802 233.253908 
L 504.624132 230.589959 
L 504.723663 230.73606 
L 504.922458 232.75103 
L 505.120899 232.145434 
L 505.219987 230.590852 
L 505.417898 232.68819 
L 505.516722 231.896523 
L 505.714106 232.041746 
L 506.20604 221.259003 
L 506.402206 230.760624 
L 506.50016 230.479421 
L 506.695808 234.270253 
L 506.793503 231.224044 
L 506.891113 231.353995 
L 507.086075 229.421438 
L 507.183429 231.438726 
L 507.280697 230.900597 
L 507.474978 231.723956 
L 507.668921 229.89108 
L 507.765765 232.68125 
L 507.959202 230.545103 
L 508.345069 232.417238 
L 508.441327 232.801973 
L 508.537502 231.740879 
L 508.729602 234.670899 
L 509.017132 236.705598 
L 509.11281 236.358652 
L 509.208406 235.557236 
L 509.399353 238.479611 
L 509.589971 235.707058 
L 509.685158 235.701182 
L 509.875289 233.126189 
L 510.159876 238.144698 
L 510.443737 237.884002 
L 510.726875 231.821845 
L 510.821094 230.995355 
L 511.103275 235.480892 
L 511.384741 229.190502 
L 511.57199 231.008683 
L 511.665497 230.268044 
L 511.945546 232.162074 
L 512.317851 228.124387 
L 512.503538 227.655329 
L 512.688914 229.158346 
L 512.781487 229.79932 
L 512.966402 228.995715 
L 513.243198 233.007954 
L 513.335311 231.534872 
L 513.427347 231.869586 
L 513.519308 231.252382 
L 513.794734 225.216385 
L 514.069479 223.222997 
L 514.252266 226.673913 
L 514.343548 226.969198 
L 514.707925 232.720774 
L 514.798833 231.281181 
L 514.980427 233.74894 
L 515.161724 229.478147 
L 515.252262 231.248028 
L 515.433118 228.370322 
L 515.793949 231.8486 
L 516.4226 223.381887 
L 516.512118 224.202156 
L 516.690938 226.210756 
L 516.869471 225.055275 
L 516.95863 224.40594 
L 517.669343 231.582037 
L 517.757863 234.928981 
L 518.199412 227.019578 
L 518.287512 227.444491 
L 518.463503 228.844959 
L 518.551394 228.214547 
L 518.639215 225.112783 
L 518.726968 225.839403 
L 518.814651 225.649449 
L 518.902265 227.034105 
L 518.98981 226.600113 
L 519.164694 228.548749 
L 519.252033 227.865561 
L 519.339303 228.583413 
L 519.513639 225.563885 
L 519.687702 227.980693 
L 519.774631 226.183737 
L 519.861492 226.413433 
L 519.948286 226.558801 
L 520.12167 227.871565 
L 520.208261 227.964157 
L 520.381241 230.938715 
L 520.46763 231.197207 
L 520.640208 229.77282 
L 520.726396 226.607453 
L 520.898573 228.81889 
L 520.984561 228.499076 
L 521.070483 226.593925 
L 521.156339 227.795575 
L 521.327852 226.633341 
L 521.499101 230.361744 
L 521.584626 229.553215 
L 521.670086 227.868293 
L 521.755481 228.208923 
L 522.011271 229.879938 
L 522.266474 227.430705 
L 522.351412 227.878532 
L 522.436285 228.255232 
L 522.521093 225.3262 
L 522.605837 225.975719 
L 522.690516 228.164321 
L 522.859681 224.674472 
L 522.944167 225.653793 
L 523.02859 224.411925 
L 523.365638 226.527252 
L 523.533781 228.364447 
L 523.785518 225.189829 
L 523.869305 225.399525 
L 524.036688 226.488874 
L 524.120285 226.425006 
L 524.3707 229.295367 
L 524.454047 228.933578 
L 524.620553 232.276399 
L 524.703713 231.089035 
L 524.78681 228.448711 
L 524.952819 233.140672 
L 525.035731 231.846049 
L 525.284096 234.565062 
L 525.449365 232.658427 
L 525.614389 230.341876 
L 525.861467 228.614954 
L 525.943704 227.712371 
L 526.025881 228.248064 
L 526.107997 226.861695 
L 526.272047 228.796753 
L 526.353981 228.06106 
L 526.435856 226.977902 
L 526.51767 228.746131 
L 526.681117 226.467199 
L 526.925839 229.508405 
L 527.007294 228.378962 
L 527.170024 224.836962 
L 527.2513 225.938757 
L 527.332516 225.906373 
L 527.494772 227.226944 
L 527.656791 222.439974 
L 527.737712 223.805795 
L 527.899378 221.452555 
L 528.060809 223.060575 
L 528.222006 227.526317 
L 528.62398 234.689514 
L 528.784364 232.645306 
L 528.864469 232.410772 
L 528.944517 233.534103 
L 529.024507 232.988733 
L 529.104439 233.922949 
L 529.423596 226.80775 
L 529.582831 229.022399 
L 529.662364 227.788188 
L 529.741839 228.103028 
L 529.90062 233.820262 
L 529.979926 232.664944 
L 530.059175 232.716021 
L 530.138368 232.51531 
L 530.691143 218.816032 
L 530.769887 218.978581 
L 530.927208 221.245977 
L 531.005786 221.707044 
L 531.241185 227.300578 
L 531.78852 233.780786 
L 531.866491 233.626914 
L 532.100078 236.27957 
L 532.177831 236.228332 
L 532.565784 227.161676 
L 532.643213 228.090462 
L 532.720587 227.630924 
L 533.029549 222.334458 
L 533.106655 222.885029 
L 533.260708 226.761837 
L 533.337655 226.045197 
L 533.414548 226.483824 
L 533.491388 226.042196 
L 533.568175 227.633771 
L 533.644909 226.641081 
L 533.72159 227.073315 
L 533.874794 229.276563 
L 533.951317 228.600822 
L 534.027788 228.813474 
L 534.104205 232.17299 
L 534.180571 231.216297 
L 534.333144 229.084627 
L 534.409353 230.135156 
L 534.485509 228.538886 
L 534.561613 229.257088 
L 534.637665 229.014497 
L 534.789613 226.080162 
L 534.865509 227.490085 
L 534.941354 227.416805 
L 535.395339 219.094578 
L 535.470823 219.650389 
L 535.621638 222.905762 
L 535.696969 223.285819 
L 535.997783 232.714814 
L 536.07286 232.576403 
L 536.222861 234.211454 
L 536.297786 233.70769 
L 536.372661 233.093718 
L 536.447485 233.511148 
L 536.522259 236.088882 
L 536.596982 235.05635 
L 536.746279 237.540675 
L 536.820852 237.190453 
L 536.969849 235.144451 
L 537.044273 236.114672 
L 537.118647 236.094752 
L 537.192971 234.616652 
L 537.267245 235.243274 
L 537.415646 235.079863 
L 537.489772 234.537469 
L 537.637876 237.086223 
L 537.711854 236.612006 
L 537.785783 236.801095 
L 537.859663 239.155684 
L 537.933493 237.390808 
L 538.007275 239.236443 
L 538.228327 235.411494 
L 538.301914 236.08574 
L 538.375452 238.591554 
L 538.522382 234.43521 
L 538.595774 234.5384 
L 538.742414 236.025371 
L 538.815661 234.630983 
L 538.88886 235.115397 
L 538.962011 237.395021 
L 539.035114 236.50625 
L 539.108169 234.901209 
L 539.254135 236.225943 
L 539.327046 236.309467 
L 539.472726 234.581107 
L 539.545494 235.611313 
L 539.690887 233.109991 
L 539.763513 234.437082 
L 539.836091 232.073462 
L 539.908622 232.123036 
L 539.981105 233.324524 
L 540.053542 233.020467 
L 540.125931 232.434678 
L 540.198273 232.913313 
L 540.270568 232.62262 
L 540.342817 233.712875 
L 540.487172 232.338822 
L 540.775323 237.589472 
L 540.847244 235.84365 
L 540.919119 236.01474 
L 541.134465 238.682808 
L 541.277797 237.299962 
L 541.349394 237.260054 
L 541.420945 237.518113 
L 541.49245 237.179441 
L 541.563909 236.106777 
L 541.635323 237.724068 
L 541.70669 235.92998 
L 541.778012 236.904334 
L 541.849288 237.003357 
L 541.991703 235.586248 
L 542.204984 238.388312 
L 542.275987 236.916731 
L 542.346944 237.781878 
L 542.417857 236.212285 
L 542.630323 239.156557 
L 542.701055 238.896494 
L 542.771742 237.130319 
L 542.842384 237.493739 
L 542.912981 237.243687 
L 542.983534 236.35511 
L 543.054042 236.570906 
L 543.546349 232.49344 
L 543.616501 232.714604 
L 543.686609 231.222526 
L 543.756673 231.66745 
L 543.966599 233.069656 
L 544.385267 239.019272 
L 544.454892 239.015626 
L 544.663507 234.731608 
L 544.732958 235.050278 
L 544.802366 237.710776 
L 544.87173 237.459182 
L 545.01033 236.083431 
L 545.079565 238.037878 
L 545.148757 237.953698 
L 545.217906 236.841741 
L 545.287012 237.083014 
L 545.356075 237.358122 
L 545.425095 235.431027 
L 545.494072 235.965352 
L 545.563007 236.11559 
L 545.631899 237.539765 
L 545.769555 235.211952 
L 545.838319 236.027943 
L 545.907041 235.998369 
L 546.112952 240.857899 
L 546.181504 241.822605 
L 546.250014 240.478221 
L 546.318482 241.767851 
L 546.66019 235.535723 
L 546.796581 238.600095 
L 546.932804 235.845416 
L 547.000853 237.069288 
L 547.06886 236.805802 
L 547.136826 236.71254 
L 547.340474 238.226076 
L 547.476033 235.781909 
L 547.543751 236.463991 
L 547.611427 235.955709 
L 547.746656 237.065982 
L 547.81421 237.802028 
L 547.881722 237.752684 
L 547.949193 236.698629 
L 548.016623 237.789956 
L 548.218668 235.565675 
L 548.285935 235.150781 
L 548.554598 236.07177 
L 548.688686 236.842997 
L 548.755669 238.014473 
L 549.089983 234.845366 
L 549.156725 235.779282 
L 549.29009 239.357992 
L 549.356712 238.301861 
L 549.489837 239.947953 
L 549.821955 234.653829 
L 549.88826 234.44934 
L 549.954525 233.296433 
L 550.02075 236.251481 
L 550.086937 236.156831 
L 550.219191 235.181407 
L 550.417279 239.947332 
L 550.48323 239.129866 
L 550.549141 239.537514 
L 550.615014 238.881192 
L 550.680848 240.26745 
L 550.878115 237.234702 
L 550.943794 238.299794 
L 551.009433 237.550631 
L 551.075034 234.767766 
L 551.140596 235.514926 
L 551.206119 237.058369 
L 551.271604 235.415335 
L 551.337051 235.488992 
L 551.598452 239.642389 
L 551.728922 238.91716 
L 551.7941 239.233756 
L 551.85924 239.181344 
L 551.989405 239.183359 
L 552.184367 242.360502 
L 552.249279 243.177233 
L 552.443787 240.125026 
L 552.637955 244.365958 
L 552.702603 245.229478 
L 552.89632 241.113579 
L 553.089701 242.698773 
L 553.282746 240.233459 
L 553.34702 242.368915 
L 553.411257 241.987195 
L 553.475456 241.799257 
L 553.539619 242.320683 
L 553.667834 239.466606 
L 553.731886 240.247339 
L 553.859879 242.720023 
L 553.987725 239.794097 
L 554.051593 239.524219 
L 554.179219 240.432594 
L 554.242977 242.033481 
L 554.306699 241.994012 
L 554.370384 241.85083 
L 554.434032 242.023244 
L 554.497645 242.618417 
L 554.561221 242.215167 
L 554.62476 241.989079 
L 554.688264 242.916384 
L 554.751731 242.716711 
L 554.815162 242.273497 
L 554.878556 242.724788 
L 554.941915 242.102754 
L 555.068524 243.225005 
L 555.131775 240.947275 
L 555.194989 241.376764 
L 555.321311 239.66391 
L 555.384418 240.262616 
L 555.447489 239.524542 
L 555.573524 244.08857 
L 555.636488 242.92727 
L 555.825167 239.736074 
L 556.013526 241.564627 
L 556.138922 240.414181 
L 556.264176 244.156217 
L 556.38929 240.755774 
L 556.451794 240.788431 
L 556.576697 242.656019 
L 556.763789 240.609411 
L 556.888342 241.979038 
L 556.950567 238.519138 
L 557.012756 239.646177 
L 557.137031 241.660017 
L 557.323184 238.337038 
L 557.385165 236.967599 
L 557.447113 238.150915 
L 557.509025 236.166756 
L 557.570903 236.644877 
L 557.694557 237.51824 
L 557.818073 233.607179 
L 558.187799 241.921617 
L 558.310769 241.018001 
L 558.433603 241.96839 
L 558.494969 237.509578 
L 558.556301 239.995056 
L 558.6176 240.479383 
L 558.801293 243.049884 
L 558.923587 240.853119 
L 558.984683 241.521797 
L 559.167771 238.834821 
L 559.228734 238.626989 
L 559.289663 239.197246 
L 559.350559 237.5207 
L 559.411421 238.165859 
L 559.593809 236.02121 
L 559.957689 242.579465 
L 560.018221 242.560898 
L 560.078719 242.830419 
L 560.260016 241.206718 
L 560.681899 245.908754 
L 560.742037 243.795396 
L 560.802143 243.937247 
L 560.922258 245.270774 
L 560.982266 245.034654 
L 561.162098 243.540088 
L 561.162098 243.540088 
" clip-path="url(#pa4bb78b9f6)" style="fill: none; stroke: #ff7f0e; stroke-linecap: square"/>
   </g>
   <g id="patch_3">
    <path d="M 48.982813 294.590247 
L 48.982813 22.318125 
" style="fill: none; stroke: #000000; stroke-width: 0.8; stroke-linejoin: miter; stroke-linecap: square"/>
   </g>
   <g id="patch_4">
    <path d="M 561.197812 294.590247 
L 561.197812 22.318125 
" style="fill: none; stroke: #000000; stroke-width: 0.8; stroke-linejoin: miter; stroke-linecap: square"/>
   </g>
   <g id="patch_5">
    <path d="M 48.982813 294.590247 
L 561.197812 294.590247 
" style="fill: none; stroke: #000000; stroke-width: 0.8; stroke-linejoin: miter; stroke-linecap: square"/>
   </g>
   <g id="patch_6">
    <path d="M 48.982813 22.318125 
L 561.197812 22.318125 
" style="fill: none; stroke: #000000; stroke-width: 0.8; stroke-linejoin: miter; stroke-linecap: square"/>
   </g>
   <g id="text_14">
    <!-- Honda Odyssey Blower Setting 1 - Narrow Band SPL (dBA) -->
    <g transform="translate(130.569063 16.318125) scale(0.12 -0.12)">
     <defs>
      <path id="DejaVuSans-6f" d="M 1959 3097 
Q 1497 3097 1228 2736 
Q 959 2375 959 1747 
Q 959 1119 1226 758 
Q 1494 397 1959 397 
Q 2419 397 2687 759 
Q 2956 1122 2956 1747 
Q 2956 2369 2687 2733 
Q 2419 3097 1959 3097 
z
M 1959 3584 
Q 2709 3584 3137 3096 
Q 3566 2609 3566 1747 
Q 3566 888 3137 398 
Q 2709 -91 1959 -91 
Q 1206 -91 779 398 
Q 353 888 353 1747 
Q 353 2609 779 3096 
Q 1206 3584 1959 3584 
z
" transform="scale(0.015625)"/>
      <path id="DejaVuSans-61" d="M 2194 1759 
Q 1497 1759 1228 1600 
Q 959 1441 959 1056 
Q 959 750 1161 570 
Q 1363 391 1709 391 
Q 2188 391 2477 730 
Q 2766 1069 2766 1631 
L 2766 1759 
L 2194 1759 
z
M 3341 1997 
L 3341 0 
L 2766 0 
L 2766 531 
Q 2569 213 2275 61 
Q 1981 -91 1556 -91 
Q 1019 -91 701 211 
Q 384 513 384 1019 
Q 384 1609 779 1909 
Q 1175 2209 1959 2209 
L 2766 2209 
L 2766 2266 
Q 2766 2663 2505 2880 
Q 2244 3097 1772 3097 
Q 1472 3097 1187 3025 
Q 903 2953 641 2809 
L 641 3341 
Q 956 3463 1253 3523 
Q 1550 3584 1831 3584 
Q 2591 3584 2966 3190 
Q 3341 2797 3341 1997 
z
" transform="scale(0.015625)"/>
      <path id="DejaVuSans-4f" d="M 2522 4238 
Q 1834 4238 1429 3725 
Q 1025 3213 1025 2328 
Q 1025 1447 1429 934 
Q 1834 422 2522 422 
Q 3209 422 3611 934 
Q 4013 1447 4013 2328 
Q 4013 3213 3611 3725 
Q 3209 4238 2522 4238 
z
M 2522 4750 
Q 3503 4750 4090 4092 
Q 4678 3434 4678 2328 
Q 4678 1225 4090 567 
Q 3503 -91 2522 -91 
Q 1538 -91 948 565 
Q 359 1222 359 2328 
Q 359 3434 948 4092 
Q 1538 4750 2522 4750 
z
" transform="scale(0.015625)"/>
      <path id="DejaVuSans-73" d="M 2834 3397 
L 2834 2853 
Q 2591 2978 2328 3040 
Q 2066 3103 1784 3103 
Q 1356 3103 1142 2972 
Q 928 2841 928 2578 
Q 928 2378 1081 2264 
Q 1234 2150 1697 2047 
L 1894 2003 
Q 2506 1872 2764 1633 
Q 3022 1394 3022 966 
Q 3022 478 2636 193 
Q 2250 -91 1575 -91 
Q 1294 -91 989 -36 
Q 684 19 347 128 
L 347 722 
Q 666 556 975 473 
Q 1284 391 1588 391 
Q 1994 391 2212 530 
Q 2431 669 2431 922 
Q 2431 1156 2273 1281 
Q 2116 1406 1581 1522 
L 1381 1569 
Q 847 1681 609 1914 
Q 372 2147 372 2553 
Q 372 3047 722 3315 
Q 1072 3584 1716 3584 
Q 2034 3584 2315 3537 
Q 2597 3491 2834 3397 
z
" transform="scale(0.015625)"/>
      <path id="DejaVuSans-6c" d="M 603 4863 
L 1178 4863 
L 1178 0 
L 603 0 
L 603 4863 
z
" transform="scale(0.015625)"/>
      <path id="DejaVuSans-77" d="M 269 3500 
L 844 3500 
L 1563 769 
L 2278 3500 
L 2956 3500 
L 3675 769 
L 4391 3500 
L 4966 3500 
L 4050 0 
L 3372 0 
L 2619 2869 
L 1863 0 
L 1184 0 
L 269 3500 
z
" transform="scale(0.015625)"/>
      <path id="DejaVuSans-74" d="M 1172 4494 
L 1172 3500 
L 2356 3500 
L 2356 3053 
L 1172 3053 
L 1172 1153 
Q 1172 725 1289 603 
Q 1406 481 1766 481 
L 2356 481 
L 2356 0 
L 1766 0 
Q 1100 0 847 248 
Q 594 497 594 1153 
L 594 3053 
L 172 3053 
L 172 3500 
L 594 3500 
L 594 4494 
L 1172 4494 
z
" transform="scale(0.015625)"/>
      <path id="DejaVuSans-69" d="M 603 3500 
L 1178 3500 
L 1178 0 
L 603 0 
L 603 3500 
z
M 603 4863 
L 1178 4863 
L 1178 4134 
L 603 4134 
L 603 4863 
z
" transform="scale(0.015625)"/>
      <path id="DejaVuSans-67" d="M 2906 1791 
Q 2906 2416 2648 2759 
Q 2391 3103 1925 3103 
Q 1463 3103 1205 2759 
Q 947 2416 947 1791 
Q 947 1169 1205 825 
Q 1463 481 1925 481 
Q 2391 481 2648 825 
Q 2906 1169 2906 1791 
z
M 3481 434 
Q 3481 -459 3084 -895 
Q 2688 -1331 1869 -1331 
Q 1566 -1331 1297 -1286 
Q 1028 -1241 775 -1147 
L 775 -588 
Q 1028 -725 1275 -790 
Q 1522 -856 1778 -856 
Q 2344 -856 2625 -561 
Q 2906 -266 2906 331 
L 2906 616 
Q 2728 306 2450 153 
Q 2172 0 1784 0 
Q 1141 0 747 490 
Q 353 981 353 1791 
Q 353 2603 747 3093 
Q 1141 3584 1784 3584 
Q 2172 3584 2450 3431 
Q 2728 3278 2906 2969 
L 2906 3500 
L 3481 3500 
L 3481 434 
z
" transform="scale(0.015625)"/>
      <path id="DejaVuSans-2d" d="M 313 2009 
L 1997 2009 
L 1997 1497 
L 313 1497 
L 313 2009 
z
" transform="scale(0.015625)"/>
      <path id="DejaVuSans-4e" d="M 628 4666 
L 1478 4666 
L 3547 763 
L 3547 4666 
L 4159 4666 
L 4159 0 
L 3309 0 
L 1241 3903 
L 1241 0 
L 628 0 
L 628 4666 
z
" transform="scale(0.015625)"/>
     </defs>
     <use xlink:href="#DejaVuSans-48"/>
     <use xlink:href="#DejaVuSans-6f" transform="translate(75.195312 0)"/>
     <use xlink:href="#DejaVuSans-6e" transform="translate(136.376953 0)"/>
     <use xlink:href="#DejaVuSans-64" transform="translate(199.755859 0)"/>
     <use xlink:href="#DejaVuSans-61" transform="translate(263.232422 0)"/>
     <use xlink:href="#DejaVuSans-20" transform="translate(324.511719 0)"/>
     <use xlink:href="#DejaVuSans-4f" transform="translate(356.298828 0)"/>
     <use xlink:href="#DejaVuSans-64" transform="translate(435.009766 0)"/>
     <use xlink:href="#DejaVuSans-79" transform="translate(498.486328 0)"/>
     <use xlink:href="#DejaVuSans-73" transform="translate(557.666016 0)"/>
     <use xlink:href="#DejaVuSans-73" transform="translate(609.765625 0)"/>
     <use xlink:href="#DejaVuSans-65" transform="translate(661.865234 0)"/>
     <use xlink:href="#DejaVuSans-79" transform="translate(723.388672 0)"/>
     <use xlink:href="#DejaVuSans-20" transform="translate(782.568359 0)"/>
     <use xlink:href="#DejaVuSans-42" transform="translate(814.355469 0)"/>
     <use xlink:href="#DejaVuSans-6c" transform="translate(882.958984 0)"/>
     <use xlink:href="#DejaVuSans-6f" transform="translate(910.742188 0)"/>
     <use xlink:href="#DejaVuSans-77" transform="translate(971.923828 0)"/>
     <use xlink:href="#DejaVuSans-65" transform="translate(1053.710938 0)"/>
     <use xlink:href="#DejaVuSans-72" transform="translate(1115.234375 0)"/>
     <use xlink:href="#DejaVuSans-20" transform="translate(1156.347656 0)"/>
     <use xlink:href="#DejaVuSans-53" transform="translate(1188.134766 0)"/>
     <use xlink:href="#DejaVuSans-65" transform="translate(1251.611328 0)"/>
     <use xlink:href="#DejaVuSans-74" transform="translate(1313.134766 0)"/>
     <use xlink:href="#DejaVuSans-74" transform="translate(1352.34375 0)"/>
     <use xlink:href="#DejaVuSans-69" transform="translate(1391.552734 0)"/>
     <use xlink:href="#DejaVuSans-6e" transform="translate(1419.335938 0)"/>
     <use xlink:href="#DejaVuSans-67" transform="translate(1482.714844 0)"/>
     <use xlink:href="#DejaVuSans-20" transform="translate(1546.191406 0)"/>
     <use xlink:href="#DejaVuSans-31" transform="translate(1577.978516 0)"/>
     <use xlink:href="#DejaVuSans-20" transform="translate(1641.601562 0)"/>
     <use xlink:href="#DejaVuSans-2d" transform="translate(1673.388672 0)"/>
     <use xlink:href="#DejaVuSans-20" transform="translate(1709.472656 0)"/>
     <use xlink:href="#DejaVuSans-4e" transform="translate(1741.259766 0)"/>
     <use xlink:href="#DejaVuSans-61" transform="translate(1816.064453 0)"/>
     <use xlink:href="#DejaVuSans-72" transform="translate(1877.34375 0)"/>
     <use xlink:href="#DejaVuSans-72" transform="translate(1916.707031 0)"/>
     <use xlink:href="#DejaVuSans-6f" transform="translate(1955.570312 0)"/>
     <use xlink:href="#DejaVuSans-77" transform="translate(2016.751953 0)"/>
     <use xlink:href="#DejaVuSans-20" transform="translate(2098.539062 0)"/>
     <use xlink:href="#DejaVuSans-42" transform="translate(2130.326172 0)"/>
     <use xlink:href="#DejaVuSans-61" transform="translate(2198.929688 0)"/>
     <use xlink:href="#DejaVuSans-6e" transform="translate(2260.208984 0)"/>
     <use xlink:href="#DejaVuSans-64" transform="translate(2323.587891 0)"/>
     <use xlink:href="#DejaVuSans-20" transform="translate(2387.064453 0)"/>
     <use xlink:href="#DejaVuSans-53" transform="translate(2418.851562 0)"/>
     <use xlink:href="#DejaVuSans-50" transform="translate(2482.328125 0)"/>
     <use xlink:href="#DejaVuSans-4c" transform="translate(2542.630859 0)"/>
     <use xlink:href="#DejaVuSans-20" transform="translate(2598.34375 0)"/>
     <use xlink:href="#DejaVuSans-28" transform="translate(2630.130859 0)"/>
     <use xlink:href="#DejaVuSans-64" transform="translate(2669.144531 0)"/>
     <use xlink:href="#DejaVuSans-42" transform="translate(2732.621094 0)"/>
     <use xlink:href="#DejaVuSans-41" transform="translate(2801.224609 0)"/>
     <use xlink:href="#DejaVuSans-29" transform="translate(2869.632812 0)"/>
    </g>
   </g>
  </g>
 </g>
 <defs>
  <clipPath id="pa4bb78b9f6">
   <rect x="48.982813" y="22.318125" width="512.215" height="272.272122"/>
  </clipPath>
 </defs>
</svg>
