<?xml version="1.0" encoding="utf-8" standalone="no"?>
<!DOCTYPE svg PUBLIC "-//W3C//DTD SVG 1.1//EN"
  "http://www.w3.org/Graphics/SVG/1.1/DTD/svg11.dtd">
<svg xmlns:xlink="http://www.w3.org/1999/xlink" width="568.397812pt" height="351.806674pt" viewBox="0 0 568.397812 351.806674" xmlns="http://www.w3.org/2000/svg" version="1.1">
 <metadata>
  <rdf:RDF xmlns:dc="http://purl.org/dc/elements/1.1/" xmlns:cc="http://creativecommons.org/ns#" xmlns:rdf="http://www.w3.org/1999/02/22-rdf-syntax-ns#">
   <cc:Work>
    <dc:type rdf:resource="http://purl.org/dc/dcmitype/StillImage"/>
    <dc:date>2025-04-24T18:27:06.579098</dc:date>
    <dc:format>image/svg+xml</dc:format>
    <dc:creator>
     <cc:Agent>
      <dc:title>Matplotlib v3.10.0, https://matplotlib.org/</dc:title>
     </cc:Agent>
    </dc:creator>
   </cc:Work>
  </rdf:RDF>
 </metadata>
 <defs>
  <style type="text/css">*{stroke-linejoin: round; stroke-linecap: butt}</style>
 </defs>
 <g id="figure_1">
  <g id="patch_1">
   <path d="M 0 351.806674 
L 568.397812 351.806674 
L 568.397812 0 
L 0 0 
z
" style="fill: #ffffff"/>
  </g>
  <g id="axes_1">
   <g id="patch_2">
    <path d="M 48.982813 294.590247 
L 561.197812 294.590247 
L 561.197812 22.318125 
L 48.982813 22.318125 
z
" style="fill: #ffffff"/>
   </g>
   <g id="matplotlib.axis_1">
    <g id="xtick_1">
     <g id="line2d_1">
      <path d="M 48.982813 294.590247 
L 48.982813 22.318125 
" clip-path="url(#p61a216421f)" style="fill: none; stroke-dasharray: 1.85,0.8; stroke-dashoffset: 0; stroke: #b0b0b0; stroke-width: 0.5"/>
     </g>
     <g id="line2d_2">
      <defs>
       <path id="m28840f04fe" d="M 0 0 
L 0 3.5 
" style="stroke: #000000; stroke-width: 0.8"/>
      </defs>
      <g>
       <use xlink:href="#m28840f04fe" x="48.982813" y="294.590247" style="stroke: #000000; stroke-width: 0.8"/>
      </g>
     </g>
     <g id="text_1">
      <!-- 100 -->
      <g transform="translate(34.015351 320.460054) rotate(-45) scale(0.1 -0.1)">
       <defs>
        <path id="DejaVuSans-31" d="M 794 531 
L 1825 531 
L 1825 4091 
L 703 3866 
L 703 4441 
L 1819 4666 
L 2450 4666 
L 2450 531 
L 3481 531 
L 3481 0 
L 794 0 
L 794 531 
z
" transform="scale(0.015625)"/>
        <path id="DejaVuSans-30" d="M 2034 4250 
Q 1547 4250 1301 3770 
Q 1056 3291 1056 2328 
Q 1056 1369 1301 889 
Q 1547 409 2034 409 
Q 2525 409 2770 889 
Q 3016 1369 3016 2328 
Q 3016 3291 2770 3770 
Q 2525 4250 2034 4250 
z
M 2034 4750 
Q 2819 4750 3233 4129 
Q 3647 3509 3647 2328 
Q 3647 1150 3233 529 
Q 2819 -91 2034 -91 
Q 1250 -91 836 529 
Q 422 1150 422 2328 
Q 422 3509 836 4129 
Q 1250 4750 2034 4750 
z
" transform="scale(0.015625)"/>
       </defs>
       <use xlink:href="#DejaVuSans-31"/>
       <use xlink:href="#DejaVuSans-30" transform="translate(63.623047 0)"/>
       <use xlink:href="#DejaVuSans-30" transform="translate(127.246094 0)"/>
      </g>
     </g>
    </g>
    <g id="xtick_2">
     <g id="line2d_3">
      <path d="M 305.090312 294.590247 
L 305.090312 22.318125 
" clip-path="url(#p61a216421f)" style="fill: none; stroke-dasharray: 1.85,0.8; stroke-dashoffset: 0; stroke: #b0b0b0; stroke-width: 0.5"/>
     </g>
     <g id="line2d_4">
      <g>
       <use xlink:href="#m28840f04fe" x="305.090312" y="294.590247" style="stroke: #000000; stroke-width: 0.8"/>
      </g>
     </g>
     <g id="text_2">
      <!-- 1000 -->
      <g transform="translate(285.623884 324.959021) rotate(-45) scale(0.1 -0.1)">
       <use xlink:href="#DejaVuSans-31"/>
       <use xlink:href="#DejaVuSans-30" transform="translate(63.623047 0)"/>
       <use xlink:href="#DejaVuSans-30" transform="translate(127.246094 0)"/>
       <use xlink:href="#DejaVuSans-30" transform="translate(190.869141 0)"/>
      </g>
     </g>
    </g>
    <g id="xtick_3">
     <g id="line2d_5">
      <path d="M 561.197812 294.590247 
L 561.197812 22.318125 
" clip-path="url(#p61a216421f)" style="fill: none; stroke-dasharray: 1.85,0.8; stroke-dashoffset: 0; stroke: #b0b0b0; stroke-width: 0.5"/>
     </g>
     <g id="line2d_6">
      <g>
       <use xlink:href="#m28840f04fe" x="561.197812" y="294.590247" style="stroke: #000000; stroke-width: 0.8"/>
      </g>
     </g>
     <g id="text_3">
      <!-- 10000 -->
      <g transform="translate(537.232417 329.457988) rotate(-45) scale(0.1 -0.1)">
       <use xlink:href="#DejaVuSans-31"/>
       <use xlink:href="#DejaVuSans-30" transform="translate(63.623047 0)"/>
       <use xlink:href="#DejaVuSans-30" transform="translate(127.246094 0)"/>
       <use xlink:href="#DejaVuSans-30" transform="translate(190.869141 0)"/>
       <use xlink:href="#DejaVuSans-30" transform="translate(254.492188 0)"/>
      </g>
     </g>
    </g>
    <g id="xtick_4">
     <g id="line2d_7">
      <path d="M 126.078852 294.590247 
L 126.078852 22.318125 
" clip-path="url(#p61a216421f)" style="fill: none; stroke-dasharray: 1.85,0.8; stroke-dashoffset: 0; stroke: #b0b0b0; stroke-width: 0.5"/>
     </g>
     <g id="line2d_8">
      <defs>
       <path id="m1b49b07e0e" d="M 0 0 
L 0 2 
" style="stroke: #000000; stroke-width: 0.6"/>
      </defs>
      <g>
       <use xlink:href="#m1b49b07e0e" x="126.078852" y="294.590247" style="stroke: #000000; stroke-width: 0.6"/>
      </g>
     </g>
    </g>
    <g id="xtick_5">
     <g id="line2d_9">
      <path d="M 171.177144 294.590247 
L 171.177144 22.318125 
" clip-path="url(#p61a216421f)" style="fill: none; stroke-dasharray: 1.85,0.8; stroke-dashoffset: 0; stroke: #b0b0b0; stroke-width: 0.5"/>
     </g>
     <g id="line2d_10">
      <g>
       <use xlink:href="#m1b49b07e0e" x="171.177144" y="294.590247" style="stroke: #000000; stroke-width: 0.6"/>
      </g>
     </g>
    </g>
    <g id="xtick_6">
     <g id="line2d_11">
      <path d="M 203.174892 294.590247 
L 203.174892 22.318125 
" clip-path="url(#p61a216421f)" style="fill: none; stroke-dasharray: 1.85,0.8; stroke-dashoffset: 0; stroke: #b0b0b0; stroke-width: 0.5"/>
     </g>
     <g id="line2d_12">
      <g>
       <use xlink:href="#m1b49b07e0e" x="203.174892" y="294.590247" style="stroke: #000000; stroke-width: 0.6"/>
      </g>
     </g>
    </g>
    <g id="xtick_7">
     <g id="line2d_13">
      <path d="M 227.994273 294.590247 
L 227.994273 22.318125 
" clip-path="url(#p61a216421f)" style="fill: none; stroke-dasharray: 1.85,0.8; stroke-dashoffset: 0; stroke: #b0b0b0; stroke-width: 0.5"/>
     </g>
     <g id="line2d_14">
      <g>
       <use xlink:href="#m1b49b07e0e" x="227.994273" y="294.590247" style="stroke: #000000; stroke-width: 0.6"/>
      </g>
     </g>
    </g>
    <g id="xtick_8">
     <g id="line2d_15">
      <path d="M 248.273184 294.590247 
L 248.273184 22.318125 
" clip-path="url(#p61a216421f)" style="fill: none; stroke-dasharray: 1.85,0.8; stroke-dashoffset: 0; stroke: #b0b0b0; stroke-width: 0.5"/>
     </g>
     <g id="line2d_16">
      <g>
       <use xlink:href="#m1b49b07e0e" x="248.273184" y="294.590247" style="stroke: #000000; stroke-width: 0.6"/>
      </g>
     </g>
    </g>
    <g id="xtick_9">
     <g id="line2d_17">
      <path d="M 265.418759 294.590247 
L 265.418759 22.318125 
" clip-path="url(#p61a216421f)" style="fill: none; stroke-dasharray: 1.85,0.8; stroke-dashoffset: 0; stroke: #b0b0b0; stroke-width: 0.5"/>
     </g>
     <g id="line2d_18">
      <g>
       <use xlink:href="#m1b49b07e0e" x="265.418759" y="294.590247" style="stroke: #000000; stroke-width: 0.6"/>
      </g>
     </g>
    </g>
    <g id="xtick_10">
     <g id="line2d_19">
      <path d="M 280.270931 294.590247 
L 280.270931 22.318125 
" clip-path="url(#p61a216421f)" style="fill: none; stroke-dasharray: 1.85,0.8; stroke-dashoffset: 0; stroke: #b0b0b0; stroke-width: 0.5"/>
     </g>
     <g id="line2d_20">
      <g>
       <use xlink:href="#m1b49b07e0e" x="280.270931" y="294.590247" style="stroke: #000000; stroke-width: 0.6"/>
      </g>
     </g>
    </g>
    <g id="xtick_11">
     <g id="line2d_21">
      <path d="M 293.371476 294.590247 
L 293.371476 22.318125 
" clip-path="url(#p61a216421f)" style="fill: none; stroke-dasharray: 1.85,0.8; stroke-dashoffset: 0; stroke: #b0b0b0; stroke-width: 0.5"/>
     </g>
     <g id="line2d_22">
      <g>
       <use xlink:href="#m1b49b07e0e" x="293.371476" y="294.590247" style="stroke: #000000; stroke-width: 0.6"/>
      </g>
     </g>
    </g>
    <g id="xtick_12">
     <g id="line2d_23">
      <path d="M 382.186352 294.590247 
L 382.186352 22.318125 
" clip-path="url(#p61a216421f)" style="fill: none; stroke-dasharray: 1.85,0.8; stroke-dashoffset: 0; stroke: #b0b0b0; stroke-width: 0.5"/>
     </g>
     <g id="line2d_24">
      <g>
       <use xlink:href="#m1b49b07e0e" x="382.186352" y="294.590247" style="stroke: #000000; stroke-width: 0.6"/>
      </g>
     </g>
    </g>
    <g id="xtick_13">
     <g id="line2d_25">
      <path d="M 427.284644 294.590247 
L 427.284644 22.318125 
" clip-path="url(#p61a216421f)" style="fill: none; stroke-dasharray: 1.85,0.8; stroke-dashoffset: 0; stroke: #b0b0b0; stroke-width: 0.5"/>
     </g>
     <g id="line2d_26">
      <g>
       <use xlink:href="#m1b49b07e0e" x="427.284644" y="294.590247" style="stroke: #000000; stroke-width: 0.6"/>
      </g>
     </g>
    </g>
    <g id="xtick_14">
     <g id="line2d_27">
      <path d="M 459.282392 294.590247 
L 459.282392 22.318125 
" clip-path="url(#p61a216421f)" style="fill: none; stroke-dasharray: 1.85,0.8; stroke-dashoffset: 0; stroke: #b0b0b0; stroke-width: 0.5"/>
     </g>
     <g id="line2d_28">
      <g>
       <use xlink:href="#m1b49b07e0e" x="459.282392" y="294.590247" style="stroke: #000000; stroke-width: 0.6"/>
      </g>
     </g>
    </g>
    <g id="xtick_15">
     <g id="line2d_29">
      <path d="M 484.101773 294.590247 
L 484.101773 22.318125 
" clip-path="url(#p61a216421f)" style="fill: none; stroke-dasharray: 1.85,0.8; stroke-dashoffset: 0; stroke: #b0b0b0; stroke-width: 0.5"/>
     </g>
     <g id="line2d_30">
      <g>
       <use xlink:href="#m1b49b07e0e" x="484.101773" y="294.590247" style="stroke: #000000; stroke-width: 0.6"/>
      </g>
     </g>
    </g>
    <g id="xtick_16">
     <g id="line2d_31">
      <path d="M 504.380684 294.590247 
L 504.380684 22.318125 
" clip-path="url(#p61a216421f)" style="fill: none; stroke-dasharray: 1.85,0.8; stroke-dashoffset: 0; stroke: #b0b0b0; stroke-width: 0.5"/>
     </g>
     <g id="line2d_32">
      <g>
       <use xlink:href="#m1b49b07e0e" x="504.380684" y="294.590247" style="stroke: #000000; stroke-width: 0.6"/>
      </g>
     </g>
    </g>
    <g id="xtick_17">
     <g id="line2d_33">
      <path d="M 521.526259 294.590247 
L 521.526259 22.318125 
" clip-path="url(#p61a216421f)" style="fill: none; stroke-dasharray: 1.85,0.8; stroke-dashoffset: 0; stroke: #b0b0b0; stroke-width: 0.5"/>
     </g>
     <g id="line2d_34">
      <g>
       <use xlink:href="#m1b49b07e0e" x="521.526259" y="294.590247" style="stroke: #000000; stroke-width: 0.6"/>
      </g>
     </g>
    </g>
    <g id="xtick_18">
     <g id="line2d_35">
      <path d="M 536.378431 294.590247 
L 536.378431 22.318125 
" clip-path="url(#p61a216421f)" style="fill: none; stroke-dasharray: 1.85,0.8; stroke-dashoffset: 0; stroke: #b0b0b0; stroke-width: 0.5"/>
     </g>
     <g id="line2d_36">
      <g>
       <use xlink:href="#m1b49b07e0e" x="536.378431" y="294.590247" style="stroke: #000000; stroke-width: 0.6"/>
      </g>
     </g>
    </g>
    <g id="xtick_19">
     <g id="line2d_37">
      <path d="M 549.478976 294.590247 
L 549.478976 22.318125 
" clip-path="url(#p61a216421f)" style="fill: none; stroke-dasharray: 1.85,0.8; stroke-dashoffset: 0; stroke: #b0b0b0; stroke-width: 0.5"/>
     </g>
     <g id="line2d_38">
      <g>
       <use xlink:href="#m1b49b07e0e" x="549.478976" y="294.590247" style="stroke: #000000; stroke-width: 0.6"/>
      </g>
     </g>
    </g>
    <g id="text_4">
     <!-- Frequency (Hz) -->
     <g transform="translate(267.385625 342.526987) scale(0.1 -0.1)">
      <defs>
       <path id="DejaVuSans-46" d="M 628 4666 
L 3309 4666 
L 3309 4134 
L 1259 4134 
L 1259 2759 
L 3109 2759 
L 3109 2228 
L 1259 2228 
L 1259 0 
L 628 0 
L 628 4666 
z
" transform="scale(0.015625)"/>
       <path id="DejaVuSans-72" d="M 2631 2963 
Q 2534 3019 2420 3045 
Q 2306 3072 2169 3072 
Q 1681 3072 1420 2755 
Q 1159 2438 1159 1844 
L 1159 0 
L 581 0 
L 581 3500 
L 1159 3500 
L 1159 2956 
Q 1341 3275 1631 3429 
Q 1922 3584 2338 3584 
Q 2397 3584 2469 3576 
Q 2541 3569 2628 3553 
L 2631 2963 
z
" transform="scale(0.015625)"/>
       <path id="DejaVuSans-65" d="M 3597 1894 
L 3597 1613 
L 953 1613 
Q 991 1019 1311 708 
Q 1631 397 2203 397 
Q 2534 397 2845 478 
Q 3156 559 3463 722 
L 3463 178 
Q 3153 47 2828 -22 
Q 2503 -91 2169 -91 
Q 1331 -91 842 396 
Q 353 884 353 1716 
Q 353 2575 817 3079 
Q 1281 3584 2069 3584 
Q 2775 3584 3186 3129 
Q 3597 2675 3597 1894 
z
M 3022 2063 
Q 3016 2534 2758 2815 
Q 2500 3097 2075 3097 
Q 1594 3097 1305 2825 
Q 1016 2553 972 2059 
L 3022 2063 
z
" transform="scale(0.015625)"/>
       <path id="DejaVuSans-71" d="M 947 1747 
Q 947 1113 1208 752 
Q 1469 391 1925 391 
Q 2381 391 2643 752 
Q 2906 1113 2906 1747 
Q 2906 2381 2643 2742 
Q 2381 3103 1925 3103 
Q 1469 3103 1208 2742 
Q 947 2381 947 1747 
z
M 2906 525 
Q 2725 213 2448 61 
Q 2172 -91 1784 -91 
Q 1150 -91 751 415 
Q 353 922 353 1747 
Q 353 2572 751 3078 
Q 1150 3584 1784 3584 
Q 2172 3584 2448 3432 
Q 2725 3281 2906 2969 
L 2906 3500 
L 3481 3500 
L 3481 -1331 
L 2906 -1331 
L 2906 525 
z
" transform="scale(0.015625)"/>
       <path id="DejaVuSans-75" d="M 544 1381 
L 544 3500 
L 1119 3500 
L 1119 1403 
Q 1119 906 1312 657 
Q 1506 409 1894 409 
Q 2359 409 2629 706 
Q 2900 1003 2900 1516 
L 2900 3500 
L 3475 3500 
L 3475 0 
L 2900 0 
L 2900 538 
Q 2691 219 2414 64 
Q 2138 -91 1772 -91 
Q 1169 -91 856 284 
Q 544 659 544 1381 
z
M 1991 3584 
L 1991 3584 
z
" transform="scale(0.015625)"/>
       <path id="DejaVuSans-6e" d="M 3513 2113 
L 3513 0 
L 2938 0 
L 2938 2094 
Q 2938 2591 2744 2837 
Q 2550 3084 2163 3084 
Q 1697 3084 1428 2787 
Q 1159 2491 1159 1978 
L 1159 0 
L 581 0 
L 581 3500 
L 1159 3500 
L 1159 2956 
Q 1366 3272 1645 3428 
Q 1925 3584 2291 3584 
Q 2894 3584 3203 3211 
Q 3513 2838 3513 2113 
z
" transform="scale(0.015625)"/>
       <path id="DejaVuSans-63" d="M 3122 3366 
L 3122 2828 
Q 2878 2963 2633 3030 
Q 2388 3097 2138 3097 
Q 1578 3097 1268 2742 
Q 959 2388 959 1747 
Q 959 1106 1268 751 
Q 1578 397 2138 397 
Q 2388 397 2633 464 
Q 2878 531 3122 666 
L 3122 134 
Q 2881 22 2623 -34 
Q 2366 -91 2075 -91 
Q 1284 -91 818 406 
Q 353 903 353 1747 
Q 353 2603 823 3093 
Q 1294 3584 2113 3584 
Q 2378 3584 2631 3529 
Q 2884 3475 3122 3366 
z
" transform="scale(0.015625)"/>
       <path id="DejaVuSans-79" d="M 2059 -325 
Q 1816 -950 1584 -1140 
Q 1353 -1331 966 -1331 
L 506 -1331 
L 506 -850 
L 844 -850 
Q 1081 -850 1212 -737 
Q 1344 -625 1503 -206 
L 1606 56 
L 191 3500 
L 800 3500 
L 1894 763 
L 2988 3500 
L 3597 3500 
L 2059 -325 
z
" transform="scale(0.015625)"/>
       <path id="DejaVuSans-20" transform="scale(0.015625)"/>
       <path id="DejaVuSans-28" d="M 1984 4856 
Q 1566 4138 1362 3434 
Q 1159 2731 1159 2009 
Q 1159 1288 1364 580 
Q 1569 -128 1984 -844 
L 1484 -844 
Q 1016 -109 783 600 
Q 550 1309 550 2009 
Q 550 2706 781 3412 
Q 1013 4119 1484 4856 
L 1984 4856 
z
" transform="scale(0.015625)"/>
       <path id="DejaVuSans-48" d="M 628 4666 
L 1259 4666 
L 1259 2753 
L 3553 2753 
L 3553 4666 
L 4184 4666 
L 4184 0 
L 3553 0 
L 3553 2222 
L 1259 2222 
L 1259 0 
L 628 0 
L 628 4666 
z
" transform="scale(0.015625)"/>
       <path id="DejaVuSans-7a" d="M 353 3500 
L 3084 3500 
L 3084 2975 
L 922 459 
L 3084 459 
L 3084 0 
L 275 0 
L 275 525 
L 2438 3041 
L 353 3041 
L 353 3500 
z
" transform="scale(0.015625)"/>
       <path id="DejaVuSans-29" d="M 513 4856 
L 1013 4856 
Q 1481 4119 1714 3412 
Q 1947 2706 1947 2009 
Q 1947 1309 1714 600 
Q 1481 -109 1013 -844 
L 513 -844 
Q 928 -128 1133 580 
Q 1338 1288 1338 2009 
Q 1338 2731 1133 3434 
Q 928 4138 513 4856 
z
" transform="scale(0.015625)"/>
      </defs>
      <use xlink:href="#DejaVuSans-46"/>
      <use xlink:href="#DejaVuSans-72" transform="translate(50.269531 0)"/>
      <use xlink:href="#DejaVuSans-65" transform="translate(89.132812 0)"/>
      <use xlink:href="#DejaVuSans-71" transform="translate(150.65625 0)"/>
      <use xlink:href="#DejaVuSans-75" transform="translate(214.132812 0)"/>
      <use xlink:href="#DejaVuSans-65" transform="translate(277.511719 0)"/>
      <use xlink:href="#DejaVuSans-6e" transform="translate(339.035156 0)"/>
      <use xlink:href="#DejaVuSans-63" transform="translate(402.414062 0)"/>
      <use xlink:href="#DejaVuSans-79" transform="translate(457.394531 0)"/>
      <use xlink:href="#DejaVuSans-20" transform="translate(516.574219 0)"/>
      <use xlink:href="#DejaVuSans-28" transform="translate(548.361328 0)"/>
      <use xlink:href="#DejaVuSans-48" transform="translate(587.375 0)"/>
      <use xlink:href="#DejaVuSans-7a" transform="translate(662.570312 0)"/>
      <use xlink:href="#DejaVuSans-29" transform="translate(715.060547 0)"/>
     </g>
    </g>
   </g>
   <g id="matplotlib.axis_2">
    <g id="ytick_1">
     <g id="line2d_39">
      <path d="M 48.982813 294.590247 
L 561.197812 294.590247 
" clip-path="url(#p61a216421f)" style="fill: none; stroke-dasharray: 1.85,0.8; stroke-dashoffset: 0; stroke: #b0b0b0; stroke-width: 0.5"/>
     </g>
     <g id="line2d_40">
      <defs>
       <path id="m4d9d5022f4" d="M 0 0 
L -3.5 0 
" style="stroke: #000000; stroke-width: 0.8"/>
      </defs>
      <g>
       <use xlink:href="#m4d9d5022f4" x="48.982813" y="294.590247" style="stroke: #000000; stroke-width: 0.8"/>
      </g>
     </g>
     <g id="text_5">
      <!-- −20 -->
      <g transform="translate(20.878125 298.389466) scale(0.1 -0.1)">
       <defs>
        <path id="DejaVuSans-2212" d="M 678 2272 
L 4684 2272 
L 4684 1741 
L 678 1741 
L 678 2272 
z
" transform="scale(0.015625)"/>
        <path id="DejaVuSans-32" d="M 1228 531 
L 3431 531 
L 3431 0 
L 469 0 
L 469 531 
Q 828 903 1448 1529 
Q 2069 2156 2228 2338 
Q 2531 2678 2651 2914 
Q 2772 3150 2772 3378 
Q 2772 3750 2511 3984 
Q 2250 4219 1831 4219 
Q 1534 4219 1204 4116 
Q 875 4013 500 3803 
L 500 4441 
Q 881 4594 1212 4672 
Q 1544 4750 1819 4750 
Q 2544 4750 2975 4387 
Q 3406 4025 3406 3419 
Q 3406 3131 3298 2873 
Q 3191 2616 2906 2266 
Q 2828 2175 2409 1742 
Q 1991 1309 1228 531 
z
" transform="scale(0.015625)"/>
       </defs>
       <use xlink:href="#DejaVuSans-2212"/>
       <use xlink:href="#DejaVuSans-32" transform="translate(83.789062 0)"/>
       <use xlink:href="#DejaVuSans-30" transform="translate(147.412109 0)"/>
      </g>
     </g>
    </g>
    <g id="ytick_2">
     <g id="line2d_41">
      <path d="M 48.982813 255.694229 
L 561.197812 255.694229 
" clip-path="url(#p61a216421f)" style="fill: none; stroke-dasharray: 1.85,0.8; stroke-dashoffset: 0; stroke: #b0b0b0; stroke-width: 0.5"/>
     </g>
     <g id="line2d_42">
      <g>
       <use xlink:href="#m4d9d5022f4" x="48.982813" y="255.694229" style="stroke: #000000; stroke-width: 0.8"/>
      </g>
     </g>
     <g id="text_6">
      <!-- −10 -->
      <g transform="translate(20.878125 259.493448) scale(0.1 -0.1)">
       <use xlink:href="#DejaVuSans-2212"/>
       <use xlink:href="#DejaVuSans-31" transform="translate(83.789062 0)"/>
       <use xlink:href="#DejaVuSans-30" transform="translate(147.412109 0)"/>
      </g>
     </g>
    </g>
    <g id="ytick_3">
     <g id="line2d_43">
      <path d="M 48.982813 216.798212 
L 561.197812 216.798212 
" clip-path="url(#p61a216421f)" style="fill: none; stroke-dasharray: 1.85,0.8; stroke-dashoffset: 0; stroke: #b0b0b0; stroke-width: 0.5"/>
     </g>
     <g id="line2d_44">
      <g>
       <use xlink:href="#m4d9d5022f4" x="48.982813" y="216.798212" style="stroke: #000000; stroke-width: 0.8"/>
      </g>
     </g>
     <g id="text_7">
      <!-- 0 -->
      <g transform="translate(35.620313 220.597431) scale(0.1 -0.1)">
       <use xlink:href="#DejaVuSans-30"/>
      </g>
     </g>
    </g>
    <g id="ytick_4">
     <g id="line2d_45">
      <path d="M 48.982813 177.902195 
L 561.197812 177.902195 
" clip-path="url(#p61a216421f)" style="fill: none; stroke-dasharray: 1.85,0.8; stroke-dashoffset: 0; stroke: #b0b0b0; stroke-width: 0.5"/>
     </g>
     <g id="line2d_46">
      <g>
       <use xlink:href="#m4d9d5022f4" x="48.982813" y="177.902195" style="stroke: #000000; stroke-width: 0.8"/>
      </g>
     </g>
     <g id="text_8">
      <!-- 10 -->
      <g transform="translate(29.257813 181.701413) scale(0.1 -0.1)">
       <use xlink:href="#DejaVuSans-31"/>
       <use xlink:href="#DejaVuSans-30" transform="translate(63.623047 0)"/>
      </g>
     </g>
    </g>
    <g id="ytick_5">
     <g id="line2d_47">
      <path d="M 48.982813 139.006177 
L 561.197812 139.006177 
" clip-path="url(#p61a216421f)" style="fill: none; stroke-dasharray: 1.85,0.8; stroke-dashoffset: 0; stroke: #b0b0b0; stroke-width: 0.5"/>
     </g>
     <g id="line2d_48">
      <g>
       <use xlink:href="#m4d9d5022f4" x="48.982813" y="139.006177" style="stroke: #000000; stroke-width: 0.8"/>
      </g>
     </g>
     <g id="text_9">
      <!-- 20 -->
      <g transform="translate(29.257813 142.805396) scale(0.1 -0.1)">
       <use xlink:href="#DejaVuSans-32"/>
       <use xlink:href="#DejaVuSans-30" transform="translate(63.623047 0)"/>
      </g>
     </g>
    </g>
    <g id="ytick_6">
     <g id="line2d_49">
      <path d="M 48.982813 100.11016 
L 561.197812 100.11016 
" clip-path="url(#p61a216421f)" style="fill: none; stroke-dasharray: 1.85,0.8; stroke-dashoffset: 0; stroke: #b0b0b0; stroke-width: 0.5"/>
     </g>
     <g id="line2d_50">
      <g>
       <use xlink:href="#m4d9d5022f4" x="48.982813" y="100.11016" style="stroke: #000000; stroke-width: 0.8"/>
      </g>
     </g>
     <g id="text_10">
      <!-- 30 -->
      <g transform="translate(29.257813 103.909379) scale(0.1 -0.1)">
       <defs>
        <path id="DejaVuSans-33" d="M 2597 2516 
Q 3050 2419 3304 2112 
Q 3559 1806 3559 1356 
Q 3559 666 3084 287 
Q 2609 -91 1734 -91 
Q 1441 -91 1130 -33 
Q 819 25 488 141 
L 488 750 
Q 750 597 1062 519 
Q 1375 441 1716 441 
Q 2309 441 2620 675 
Q 2931 909 2931 1356 
Q 2931 1769 2642 2001 
Q 2353 2234 1838 2234 
L 1294 2234 
L 1294 2753 
L 1863 2753 
Q 2328 2753 2575 2939 
Q 2822 3125 2822 3475 
Q 2822 3834 2567 4026 
Q 2313 4219 1838 4219 
Q 1578 4219 1281 4162 
Q 984 4106 628 3988 
L 628 4550 
Q 988 4650 1302 4700 
Q 1616 4750 1894 4750 
Q 2613 4750 3031 4423 
Q 3450 4097 3450 3541 
Q 3450 3153 3228 2886 
Q 3006 2619 2597 2516 
z
" transform="scale(0.015625)"/>
       </defs>
       <use xlink:href="#DejaVuSans-33"/>
       <use xlink:href="#DejaVuSans-30" transform="translate(63.623047 0)"/>
      </g>
     </g>
    </g>
    <g id="ytick_7">
     <g id="line2d_51">
      <path d="M 48.982813 61.214142 
L 561.197812 61.214142 
" clip-path="url(#p61a216421f)" style="fill: none; stroke-dasharray: 1.85,0.8; stroke-dashoffset: 0; stroke: #b0b0b0; stroke-width: 0.5"/>
     </g>
     <g id="line2d_52">
      <g>
       <use xlink:href="#m4d9d5022f4" x="48.982813" y="61.214142" style="stroke: #000000; stroke-width: 0.8"/>
      </g>
     </g>
     <g id="text_11">
      <!-- 40 -->
      <g transform="translate(29.257813 65.013361) scale(0.1 -0.1)">
       <defs>
        <path id="DejaVuSans-34" d="M 2419 4116 
L 825 1625 
L 2419 1625 
L 2419 4116 
z
M 2253 4666 
L 3047 4666 
L 3047 1625 
L 3713 1625 
L 3713 1100 
L 3047 1100 
L 3047 0 
L 2419 0 
L 2419 1100 
L 313 1100 
L 313 1709 
L 2253 4666 
z
" transform="scale(0.015625)"/>
       </defs>
       <use xlink:href="#DejaVuSans-34"/>
       <use xlink:href="#DejaVuSans-30" transform="translate(63.623047 0)"/>
      </g>
     </g>
    </g>
    <g id="ytick_8">
     <g id="line2d_53">
      <path d="M 48.982813 22.318125 
L 561.197812 22.318125 
" clip-path="url(#p61a216421f)" style="fill: none; stroke-dasharray: 1.85,0.8; stroke-dashoffset: 0; stroke: #b0b0b0; stroke-width: 0.5"/>
     </g>
     <g id="line2d_54">
      <g>
       <use xlink:href="#m4d9d5022f4" x="48.982813" y="22.318125" style="stroke: #000000; stroke-width: 0.8"/>
      </g>
     </g>
     <g id="text_12">
      <!-- 50 -->
      <g transform="translate(29.257813 26.117344) scale(0.1 -0.1)">
       <defs>
        <path id="DejaVuSans-35" d="M 691 4666 
L 3169 4666 
L 3169 4134 
L 1269 4134 
L 1269 2991 
Q 1406 3038 1543 3061 
Q 1681 3084 1819 3084 
Q 2600 3084 3056 2656 
Q 3513 2228 3513 1497 
Q 3513 744 3044 326 
Q 2575 -91 1722 -91 
Q 1428 -91 1123 -41 
Q 819 9 494 109 
L 494 744 
Q 775 591 1075 516 
Q 1375 441 1709 441 
Q 2250 441 2565 725 
Q 2881 1009 2881 1497 
Q 2881 1984 2565 2268 
Q 2250 2553 1709 2553 
Q 1456 2553 1204 2497 
Q 953 2441 691 2322 
L 691 4666 
z
" transform="scale(0.015625)"/>
       </defs>
       <use xlink:href="#DejaVuSans-35"/>
       <use xlink:href="#DejaVuSans-30" transform="translate(63.623047 0)"/>
      </g>
     </g>
    </g>
    <g id="text_13">
     <!-- SPL (dBA) -->
     <g transform="translate(14.798438 182.944811) rotate(-90) scale(0.1 -0.1)">
      <defs>
       <path id="DejaVuSans-53" d="M 3425 4513 
L 3425 3897 
Q 3066 4069 2747 4153 
Q 2428 4238 2131 4238 
Q 1616 4238 1336 4038 
Q 1056 3838 1056 3469 
Q 1056 3159 1242 3001 
Q 1428 2844 1947 2747 
L 2328 2669 
Q 3034 2534 3370 2195 
Q 3706 1856 3706 1288 
Q 3706 609 3251 259 
Q 2797 -91 1919 -91 
Q 1588 -91 1214 -16 
Q 841 59 441 206 
L 441 856 
Q 825 641 1194 531 
Q 1563 422 1919 422 
Q 2459 422 2753 634 
Q 3047 847 3047 1241 
Q 3047 1584 2836 1778 
Q 2625 1972 2144 2069 
L 1759 2144 
Q 1053 2284 737 2584 
Q 422 2884 422 3419 
Q 422 4038 858 4394 
Q 1294 4750 2059 4750 
Q 2388 4750 2728 4690 
Q 3069 4631 3425 4513 
z
" transform="scale(0.015625)"/>
       <path id="DejaVuSans-50" d="M 1259 4147 
L 1259 2394 
L 2053 2394 
Q 2494 2394 2734 2622 
Q 2975 2850 2975 3272 
Q 2975 3691 2734 3919 
Q 2494 4147 2053 4147 
L 1259 4147 
z
M 628 4666 
L 2053 4666 
Q 2838 4666 3239 4311 
Q 3641 3956 3641 3272 
Q 3641 2581 3239 2228 
Q 2838 1875 2053 1875 
L 1259 1875 
L 1259 0 
L 628 0 
L 628 4666 
z
" transform="scale(0.015625)"/>
       <path id="DejaVuSans-4c" d="M 628 4666 
L 1259 4666 
L 1259 531 
L 3531 531 
L 3531 0 
L 628 0 
L 628 4666 
z
" transform="scale(0.015625)"/>
       <path id="DejaVuSans-64" d="M 2906 2969 
L 2906 4863 
L 3481 4863 
L 3481 0 
L 2906 0 
L 2906 525 
Q 2725 213 2448 61 
Q 2172 -91 1784 -91 
Q 1150 -91 751 415 
Q 353 922 353 1747 
Q 353 2572 751 3078 
Q 1150 3584 1784 3584 
Q 2172 3584 2448 3432 
Q 2725 3281 2906 2969 
z
M 947 1747 
Q 947 1113 1208 752 
Q 1469 391 1925 391 
Q 2381 391 2643 752 
Q 2906 1113 2906 1747 
Q 2906 2381 2643 2742 
Q 2381 3103 1925 3103 
Q 1469 3103 1208 2742 
Q 947 2381 947 1747 
z
" transform="scale(0.015625)"/>
       <path id="DejaVuSans-42" d="M 1259 2228 
L 1259 519 
L 2272 519 
Q 2781 519 3026 730 
Q 3272 941 3272 1375 
Q 3272 1813 3026 2020 
Q 2781 2228 2272 2228 
L 1259 2228 
z
M 1259 4147 
L 1259 2741 
L 2194 2741 
Q 2656 2741 2882 2914 
Q 3109 3088 3109 3444 
Q 3109 3797 2882 3972 
Q 2656 4147 2194 4147 
L 1259 4147 
z
M 628 4666 
L 2241 4666 
Q 2963 4666 3353 4366 
Q 3744 4066 3744 3513 
Q 3744 3084 3544 2831 
Q 3344 2578 2956 2516 
Q 3422 2416 3680 2098 
Q 3938 1781 3938 1306 
Q 3938 681 3513 340 
Q 3088 0 2303 0 
L 628 0 
L 628 4666 
z
" transform="scale(0.015625)"/>
       <path id="DejaVuSans-41" d="M 2188 4044 
L 1331 1722 
L 3047 1722 
L 2188 4044 
z
M 1831 4666 
L 2547 4666 
L 4325 0 
L 3669 0 
L 3244 1197 
L 1141 1197 
L 716 0 
L 50 0 
L 1831 4666 
z
" transform="scale(0.015625)"/>
      </defs>
      <use xlink:href="#DejaVuSans-53"/>
      <use xlink:href="#DejaVuSans-50" transform="translate(63.476562 0)"/>
      <use xlink:href="#DejaVuSans-4c" transform="translate(123.779297 0)"/>
      <use xlink:href="#DejaVuSans-20" transform="translate(179.492188 0)"/>
      <use xlink:href="#DejaVuSans-28" transform="translate(211.279297 0)"/>
      <use xlink:href="#DejaVuSans-64" transform="translate(250.292969 0)"/>
      <use xlink:href="#DejaVuSans-42" transform="translate(313.769531 0)"/>
      <use xlink:href="#DejaVuSans-41" transform="translate(382.373047 0)"/>
      <use xlink:href="#DejaVuSans-29" transform="translate(450.78125 0)"/>
     </g>
    </g>
   </g>
   <g id="line2d_55">
    <path d="M 51.493242 91.113276 
L 57.198394 87.42597 
L 62.625131 89.693022 
L 67.79937 109.446534 
L 72.743565 113.580145 
L 77.477304 104.422544 
L 82.017775 102.013259 
L 86.38014 112.560796 
L 90.577849 117.454688 
L 94.622879 121.310011 
L 98.525949 126.414843 
L 102.296685 123.757533 
L 105.943768 118.307877 
L 109.475052 114.634734 
L 112.897663 112.383232 
L 116.218091 111.747388 
L 119.44226 105.697067 
L 122.575596 107.109359 
L 125.623077 110.711021 
L 128.589281 111.897927 
L 131.478432 114.821455 
L 134.294433 116.830073 
L 137.040895 116.86171 
L 139.721171 110.710412 
L 142.338376 116.79016 
L 144.89541 129.883423 
L 147.394977 132.838299 
L 149.839605 137.165715 
L 152.231656 142.673622 
L 154.573344 143.120022 
L 156.866746 144.052607 
L 159.113814 143.808546 
L 161.316383 144.65612 
L 163.47618 142.841546 
L 165.594836 141.992393 
L 167.673888 140.186312 
L 169.714791 137.061016 
L 171.718919 134.237729 
L 173.687573 132.175786 
L 175.621988 130.795444 
L 177.523335 125.49328 
L 179.392725 121.790952 
L 181.231214 116.602656 
L 183.039808 111.134642 
L 184.819463 104.040231 
L 186.571091 111.085637 
L 188.295561 120.146786 
L 189.993702 125.058874 
L 191.666306 126.270425 
L 193.31413 126.98963 
L 194.937897 129.154547 
L 196.5383 127.868592 
L 198.116001 127.22832 
L 199.671636 122.725929 
L 201.205813 119.187443 
L 202.719116 115.328812 
L 204.212106 113.082794 
L 205.685321 109.534781 
L 207.139277 109.450786 
L 208.574472 111.408739 
L 209.991384 114.068068 
L 212.77218 121.744305 
L 214.136935 127.856618 
L 215.485146 131.89031 
L 216.817211 134.457733 
L 219.434416 137.459934 
L 220.720281 138.281772 
L 221.99145 136.362054 
L 223.248255 136.388086 
L 224.491017 132.862346 
L 225.720047 130.021766 
L 226.935645 128.731634 
L 228.1381 124.355566 
L 229.327695 120.659676 
L 230.504702 117.558976 
L 232.821996 105.984077 
L 233.962786 107.615333 
L 235.091994 112.543544 
L 236.209854 113.720734 
L 237.31659 115.734894 
L 238.412422 122.124319 
L 239.497563 126.054459 
L 240.572219 132.397075 
L 241.636592 134.80819 
L 242.690875 132.071232 
L 243.735259 132.140828 
L 244.769928 129.464197 
L 245.79506 123.200719 
L 246.810831 120.906442 
L 247.817408 115.322214 
L 249.803641 114.500815 
L 250.783613 112.878956 
L 251.755026 112.281127 
L 252.718028 114.945792 
L 253.672764 117.214992 
L 254.619375 117.808124 
L 255.557997 119.497742 
L 256.488765 120.453988 
L 257.411808 118.991302 
L 258.327254 118.41431 
L 259.235227 118.328182 
L 260.135848 119.534158 
L 261.029235 117.611789 
L 261.915503 117.123691 
L 263.667131 122.35847 
L 265.391601 131.003947 
L 266.243912 129.5374 
L 267.089742 130.098033 
L 268.762346 133.374779 
L 269.589309 131.588654 
L 270.41017 132.251267 
L 271.225016 131.534937 
L 272.033937 131.976397 
L 272.837017 133.055929 
L 273.634339 134.473398 
L 274.425987 137.593982 
L 275.212041 139.437709 
L 275.992578 139.312256 
L 276.767675 138.611404 
L 277.537409 136.376169 
L 279.815156 132.376887 
L 280.564156 130.844922 
L 281.308146 127.896 
L 282.047192 126.178229 
L 282.78136 126.38652 
L 283.510714 125.211837 
L 284.955229 129.789268 
L 285.670512 130.670628 
L 286.381224 132.983684 
L 287.087423 136.922305 
L 287.789168 141.865072 
L 288.486512 140.649285 
L 289.179512 135.476303 
L 289.86822 132.372924 
L 290.55269 128.633887 
L 291.232974 125.597265 
L 291.909123 124.473878 
L 292.581186 123.050022 
L 293.249212 121.915912 
L 293.91325 122.11922 
L 294.573348 125.139121 
L 295.229551 123.143901 
L 295.881905 120.107001 
L 296.530455 118.851596 
L 297.175246 118.323956 
L 297.81632 117.469793 
L 298.453721 120.146017 
L 299.717667 128.205573 
L 300.344294 135.263361 
L 301.587057 141.789354 
L 302.203269 142.093774 
L 302.816087 142.061455 
L 303.425546 142.151668 
L 304.031684 143.333058 
L 305.23414 139.822383 
L 305.830528 145.203097 
L 306.423735 141.754396 
L 307.013795 137.214455 
L 307.600741 138.293174 
L 308.184607 134.95272 
L 308.765423 134.470569 
L 309.343222 134.573784 
L 309.918035 138.065482 
L 311.058825 147.243385 
L 311.624863 150.462247 
L 312.188034 149.820993 
L 312.748368 148.339474 
L 313.305893 145.660735 
L 313.860638 145.196808 
L 314.412629 144.426231 
L 314.961895 144.536629 
L 315.508462 142.490105 
L 316.052356 137.341068 
L 316.593603 136.41136 
L 317.132229 138.414818 
L 317.668259 138.746949 
L 318.201719 141.229986 
L 318.732632 143.039482 
L 319.786915 149.545725 
L 320.310333 150.057528 
L 320.831299 149.566242 
L 321.349836 145.997674 
L 321.865968 140.230295 
L 322.379715 138.15426 
L 322.8911 137.985422 
L 324.411298 149.161054 
L 324.913448 155.395966 
L 325.413341 158.206904 
L 325.910998 156.599228 
L 326.406438 153.512568 
L 326.899681 152.537606 
L 327.390746 151.186587 
L 327.879652 158.883025 
L 328.366419 164.342634 
L 328.851065 163.619364 
L 329.333609 163.857191 
L 329.814068 161.064237 
L 330.29246 161.592562 
L 330.768804 165.486993 
L 331.243116 162.099673 
L 332.185716 151.779539 
L 332.654037 142.498414 
L 333.120394 142.897743 
L 333.584804 146.385271 
L 334.047283 144.610389 
L 334.966512 148.35269 
L 335.423294 151.585491 
L 335.878206 155.622417 
L 336.331266 156.440499 
L 336.782489 155.800783 
L 337.231887 154.077113 
L 337.679478 154.799158 
L 338.125274 154.04369 
L 338.569291 155.139943 
L 339.011543 157.643589 
L 340.327843 162.18571 
L 340.76317 165.006585 
L 341.196801 166.929652 
L 341.628747 165.956095 
L 342.059023 163.525081 
L 342.48764 160.447656 
L 342.914612 159.033239 
L 344.185781 149.36005 
L 345.025227 144.949114 
L 345.442586 144.071535 
L 346.272636 148.567562 
L 346.685349 147.60741 
L 347.096536 147.579038 
L 347.506209 144.536123 
L 347.914379 145.409305 
L 348.321056 149.998745 
L 348.726251 156.272187 
L 349.129976 155.20964 
L 349.532241 157.205883 
L 349.933056 155.570892 
L 350.730379 158.386104 
L 351.126907 157.564666 
L 351.522027 157.705152 
L 351.915748 157.141583 
L 352.30808 156.976193 
L 352.699034 153.650397 
L 353.088617 148.939703 
L 353.476841 147.034855 
L 353.863715 146.168385 
L 354.249248 144.425403 
L 354.633449 141.259795 
L 355.016327 147.829739 
L 355.397892 151.682702 
L 356.157118 152.089542 
L 356.534795 153.555771 
L 356.911195 152.927157 
L 357.286326 151.563175 
L 357.660195 155.731522 
L 358.032812 157.682485 
L 358.404185 157.107383 
L 358.774322 155.231508 
L 359.143232 149.408466 
L 359.510922 151.791487 
L 359.8774 151.900971 
L 360.969645 143.55656 
L 361.331356 143.238457 
L 361.691895 143.237461 
L 362.051269 140.675537 
L 362.409485 140.780526 
L 362.766551 137.990268 
L 363.122475 136.986419 
L 363.477263 134.673344 
L 363.830924 135.312679 
L 364.183463 138.871934 
L 364.534889 140.541445 
L 364.885207 143.849459 
L 365.234426 144.037092 
L 365.582552 143.415606 
L 366.620439 163.122251 
L 366.96426 163.490214 
L 367.307021 161.865955 
L 367.64873 161.91716 
L 367.989392 164.083204 
L 368.329014 164.992406 
L 368.667602 163.803317 
L 369.005162 160.4968 
L 369.341702 162.357043 
L 369.677225 168.099815 
L 370.01174 169.023751 
L 370.345252 167.375241 
L 370.677766 166.961977 
L 371.00929 169.305655 
L 371.339828 175.381371 
L 371.669387 176.329773 
L 371.997973 181.046262 
L 372.32559 177.457802 
L 372.652246 176.303616 
L 372.977945 177.586488 
L 373.626495 173.534245 
L 373.949357 172.253306 
L 374.592285 164.769782 
L 374.91236 163.52303 
L 375.231517 165.268441 
L 375.54976 166.314547 
L 375.867096 165.849854 
L 376.183529 166.316721 
L 376.499064 168.632328 
L 376.813707 168.36932 
L 377.127461 171.369966 
L 377.440334 175.516128 
L 377.752329 177.407582 
L 378.063451 180.072218 
L 378.373705 180.749426 
L 379.60614 174.245812 
L 379.912126 178.01096 
L 380.217273 177.811115 
L 380.521586 178.466792 
L 380.825068 177.240768 
L 381.127724 177.361181 
L 381.730577 180.144321 
L 382.030782 178.427712 
L 382.628773 171.741653 
L 382.926567 168.134181 
L 383.519775 165.739109 
L 383.815196 159.608061 
L 384.109835 156.514992 
L 384.403695 168.687467 
L 384.696781 172.478951 
L 384.989097 173.676253 
L 385.280646 173.480116 
L 385.571434 172.775286 
L 385.861463 169.713969 
L 386.150737 168.139792 
L 386.439262 168.644221 
L 386.72704 169.531786 
L 387.014075 167.283938 
L 387.300371 169.218079 
L 387.585932 169.967218 
L 387.870762 170.225699 
L 388.438244 166.701422 
L 388.720902 167.644753 
L 389.284073 164.747133 
L 389.564593 162.061974 
L 389.844407 165.771356 
L 390.123519 165.248464 
L 390.679651 166.450426 
L 390.956677 166.365712 
L 391.233016 167.192903 
L 391.783641 171.553743 
L 392.057935 171.865844 
L 392.876781 162.126407 
L 393.148395 159.885643 
L 393.419348 158.931408 
L 393.689642 159.563508 
L 393.959281 162.088186 
L 394.228268 163.180123 
L 394.764299 166.857369 
L 395.563531 180.331807 
L 396.09318 184.614498 
L 396.357062 184.317895 
L 396.620319 184.947311 
L 397.144971 188.644399 
L 397.667161 187.183425 
L 398.445876 181.554739 
L 398.962007 186.188854 
L 399.219177 188.367613 
L 399.731741 183.76826 
L 399.98714 182.606642 
L 400.241953 184.887777 
L 400.496184 180.243853 
L 400.749836 177.686987 
L 401.00291 177.509369 
L 401.25541 179.996056 
L 401.507337 180.428791 
L 401.758696 179.34366 
L 402.009488 180.112314 
L 402.259715 182.636109 
L 402.509381 182.015297 
L 402.758488 184.56861 
L 403.007038 185.09269 
L 403.255033 188.067199 
L 403.502477 187.409923 
L 403.749372 188.908345 
L 403.99572 188.588134 
L 404.241524 176.693572 
L 404.731507 197.668079 
L 405.219342 195.0105 
L 405.462459 190.858687 
L 405.705046 190.055606 
L 405.947105 191.900799 
L 406.188638 190.704587 
L 406.429648 191.792059 
L 406.670137 191.694466 
L 406.910107 189.926617 
L 407.149561 186.781886 
L 407.3885 186.784564 
L 407.626927 185.053064 
L 407.864843 184.957461 
L 408.102252 185.421911 
L 408.339156 184.870296 
L 408.575556 187.973327 
L 408.811454 188.065607 
L 409.046853 190.184611 
L 409.281755 195.107293 
L 409.516162 196.163892 
L 409.750076 195.509668 
L 409.983499 195.489412 
L 410.912324 199.366239 
L 411.143323 197.337718 
L 411.373843 198.833866 
L 411.603887 202.27462 
L 411.833456 202.958728 
L 412.062552 202.916963 
L 412.291177 201.84726 
L 412.519333 200.208306 
L 412.747022 199.860061 
L 412.974246 200.247303 
L 413.201007 198.886767 
L 413.427306 199.098383 
L 413.653146 198.454472 
L 413.878528 198.99521 
L 414.103455 198.144095 
L 414.551947 194.509297 
L 414.775517 193.784659 
L 414.998639 195.137898 
L 415.665331 196.045534 
L 415.886676 194.911754 
L 416.107582 194.495765 
L 416.32805 194.932655 
L 416.548082 193.784183 
L 416.76768 194.42223 
L 416.986844 196.325817 
L 417.205578 196.060711 
L 417.423882 194.50337 
L 417.641759 191.648903 
L 417.85921 194.052755 
L 418.076237 193.481491 
L 418.292841 194.158966 
L 418.509023 191.74657 
L 418.724787 191.559588 
L 418.940133 190.646339 
L 419.155063 192.706475 
L 419.58368 190.980815 
L 419.797371 191.334544 
L 420.223525 189.516954 
L 420.435991 189.870375 
L 420.648052 192.0488 
L 420.85971 191.934666 
L 421.070966 194.494847 
L 421.281821 194.251428 
L 421.492277 195.830696 
L 421.911999 201.643291 
L 422.121267 202.366025 
L 422.330142 201.300648 
L 422.954425 193.538037 
L 423.368675 189.145334 
L 423.575223 186.422669 
L 423.781388 188.598475 
L 423.987172 188.492226 
L 424.192576 190.418648 
L 424.806521 201.197497 
L 425.010418 201.234825 
L 425.213943 198.879076 
L 425.417095 199.070421 
L 425.619878 195.791684 
L 425.822291 197.079503 
L 426.024337 199.591398 
L 426.226016 197.214288 
L 426.628281 203.27651 
L 426.828869 202.760933 
L 427.029096 205.691818 
L 427.228963 205.089441 
L 427.826419 210.611422 
L 428.02486 210.054865 
L 428.222947 210.6389 
L 428.420682 209.67279 
L 428.618067 208.021237 
L 428.815101 208.65658 
L 429.011788 207.249787 
L 429.40412 203.158674 
L 429.599768 201.602759 
L 429.795073 202.614644 
L 429.990036 201.507948 
L 430.184657 201.94695 
L 430.378938 201.522931 
L 430.572881 202.338209 
L 430.959755 197.896214 
L 431.152688 199.574295 
L 431.345287 199.271931 
L 431.537554 201.10868 
L 431.729488 201.342158 
L 431.921092 202.279058 
L 432.493932 210.972507 
L 432.684225 210.879927 
L 433.063836 214.134953 
L 433.253157 211.542215 
L 433.442156 205.316121 
L 433.819194 199.706596 
L 434.194958 193.414109 
L 434.382366 193.985656 
L 434.569457 193.847571 
L 434.9427 190.587831 
L 435.128852 193.195561 
L 435.314693 197.585849 
L 435.500225 199.129382 
L 435.685447 202.456423 
L 435.870362 202.616213 
L 436.05497 203.180593 
L 436.239271 203.180305 
L 436.423268 198.873178 
L 436.790351 196.320201 
L 436.973439 196.939836 
L 437.338714 202.686829 
L 437.520903 205.430725 
L 437.702793 206.225094 
L 437.884387 205.109229 
L 438.246687 201.313296 
L 438.607811 199.441155 
L 438.787934 203.081941 
L 438.967766 203.029807 
L 439.147308 201.373507 
L 439.326561 201.102088 
L 439.505525 199.657778 
L 439.862591 193.423122 
L 440.040695 193.813403 
L 440.218515 196.0918 
L 440.39605 195.750573 
L 440.573303 198.333749 
L 440.750274 198.237681 
L 441.103373 205.118221 
L 441.279503 203.254729 
L 441.455354 202.906539 
L 441.630928 205.470768 
L 441.806225 211.225138 
L 442.155993 214.23533 
L 442.330466 214.677413 
L 442.504665 214.492509 
L 442.678591 217.691883 
L 442.852246 218.234066 
L 443.025631 216.376872 
L 443.198745 217.611866 
L 443.544168 213.763396 
L 443.716478 215.908534 
L 443.888522 216.371044 
L 444.060299 214.888598 
L 444.231812 212.27762 
L 444.403061 212.446675 
L 444.574047 208.173711 
L 444.74477 206.893615 
L 445.085432 212.452466 
L 445.255372 210.900543 
L 445.425054 211.21747 
L 445.594476 213.812801 
L 445.763642 214.546266 
L 445.93255 211.269129 
L 446.101202 211.476312 
L 446.269599 211.041249 
L 446.437741 208.955373 
L 446.60563 208.565811 
L 446.940648 204.890323 
L 447.10778 206.465683 
L 447.274661 206.786631 
L 447.939691 200.868228 
L 448.10533 200.962198 
L 448.270722 200.609123 
L 448.435868 201.849781 
L 448.765427 208.584815 
L 448.929841 209.154807 
L 449.094012 207.728476 
L 449.42163 200.466469 
L 449.748285 202.203158 
L 449.911254 202.017103 
L 450.073984 203.396446 
L 450.236477 201.60016 
L 450.884083 210.149081 
L 451.206478 206.344238 
L 451.367325 206.03861 
L 451.52794 205.192077 
L 451.848477 201.679681 
L 452.008399 202.257263 
L 452.168092 200.129454 
L 452.327556 199.854946 
L 452.804581 205.022434 
L 452.963135 205.208053 
L 453.279568 208.423243 
L 453.437448 211.681378 
L 453.595104 209.757359 
L 453.752536 209.604616 
L 453.909746 208.645077 
L 454.536374 215.581521 
L 454.69248 215.890184 
L 454.848368 216.881457 
L 455.15949 220.933158 
L 455.314726 223.059028 
L 455.469745 221.85386 
L 455.624548 222.67577 
L 455.933509 220.347479 
L 456.395348 217.820685 
L 456.54887 219.482592 
L 456.702179 218.979793 
L 456.855278 217.547609 
L 457.008166 218.191259 
L 457.160844 219.346198 
L 457.76947 215.172564 
L 458.072538 218.051618 
L 458.374783 215.074789 
L 458.525598 211.282972 
L 458.676209 212.586541 
L 458.97682 209.870092 
L 459.126822 209.810454 
L 459.276621 208.230087 
L 459.426219 210.075961 
L 459.724813 208.213397 
L 459.87381 208.919579 
L 460.319606 204.170841 
L 460.911236 211.796209 
L 461.205874 214.571963 
L 461.352902 215.802068 
L 461.646374 211.95759 
L 461.792821 211.682223 
L 461.939075 213.369712 
L 462.085136 213.644967 
L 462.376686 213.499548 
L 462.522175 214.986848 
L 462.957502 212.239814 
L 463.102234 211.775488 
L 463.535301 203.796042 
L 463.679283 204.311323 
L 464.253355 215.90253 
L 464.396411 219.133413 
L 464.539283 218.878738 
L 464.681972 221.248149 
L 464.824478 220.451066 
L 465.250905 209.852939 
L 465.392684 209.291475 
L 465.534283 207.497674 
L 465.675702 210.788896 
L 465.816942 210.771812 
L 465.958002 208.670378 
L 466.380113 219.16066 
L 466.520461 220.995085 
L 466.660633 224.725008 
L 467.080091 217.313601 
L 467.358853 220.381919 
L 467.636918 223.831889 
L 467.775691 221.218378 
L 467.91429 221.693368 
L 468.052717 222.817045 
L 468.190972 220.838568 
L 468.466967 212.715031 
L 468.604709 211.760571 
L 468.879681 208.877777 
L 469.290868 213.251234 
L 469.564151 203.498915 
L 469.836764 201.596094 
L 469.97282 202.52312 
L 470.10871 204.345615 
L 470.244435 204.080552 
L 471.055321 187.352773 
L 471.189896 188.501118 
L 471.324308 187.979911 
L 471.458558 188.532372 
L 471.592646 195.346839 
L 471.726573 195.937781 
L 472.127388 180.704071 
L 472.393798 173.40223 
L 472.526764 173.951587 
L 472.659571 177.157578 
L 473.057044 200.584973 
L 473.321239 197.208609 
L 473.716359 189.872689 
L 473.978994 197.139026 
L 474.371788 187.269317 
L 474.7632 168.622804 
L 474.893365 164.249872 
L 475.023378 164.615388 
L 475.282949 171.970489 
L 475.671173 169.011131 
L 475.800281 171.202433 
L 476.058047 179.177385 
L 476.571794 164.803074 
L 476.699861 163.571707 
L 477.083179 172.936066 
L 477.465181 189.460467 
L 477.972484 164.759252 
L 478.225271 166.543415 
L 478.351449 162.922036 
L 478.729127 174.211556 
L 479.105527 194.284807 
L 479.355755 191.406357 
L 479.605421 192.970197 
L 479.854527 196.53853 
L 479.978872 196.701255 
L 480.103077 197.653503 
L 480.351073 197.66748 
L 480.598517 204.286006 
L 480.722033 204.178424 
L 481.09176 198.90636 
L 481.21473 195.215706 
L 481.337563 195.388437 
L 481.582825 198.034301 
L 481.949706 208.30814 
L 482.071732 208.500401 
L 482.315381 208.336944 
L 482.679858 212.700103 
L 482.801086 212.71171 
L 482.922181 215.380419 
L 483.043145 214.674498 
L 483.163977 215.158389 
L 483.525688 209.127373 
L 483.645997 209.289535 
L 483.886227 212.529137 
L 484.006147 213.580701 
L 484.2456 210.64259 
L 484.365134 213.430161 
L 484.484539 213.378765 
L 484.722966 218.83318 
L 485.198292 210.369149 
L 485.553458 215.111547 
L 485.671595 215.381078 
L 485.789607 213.336298 
L 485.907494 199.062188 
L 486.142893 216.683697 
L 486.49506 209.594326 
L 486.72922 212.562243 
L 487.196067 206.319811 
L 487.428758 208.41032 
L 487.544921 208.081342 
L 487.660962 211.007335 
L 487.776883 209.864236 
L 488.239363 218.696596 
L 488.354682 216.001051 
L 488.584964 219.606951 
L 488.81477 224.092706 
L 488.929496 224.133335 
L 489.158592 228.640748 
L 489.615373 221.947609 
L 489.729276 221.731289 
L 489.956732 218.637542 
L 490.070286 219.054459 
L 490.297046 211.995732 
L 490.410254 217.16352 
L 490.523346 216.70838 
L 490.749186 218.524665 
L 490.861934 218.280779 
L 490.974568 220.146078 
L 491.199494 219.382708 
L 491.311787 221.261536 
L 491.423967 219.502273 
L 491.647987 223.688342 
L 491.871557 219.442001 
L 492.094679 226.870144 
L 492.206072 227.114177 
L 492.317354 226.691566 
L 492.539584 228.962393 
L 492.650532 227.815195 
L 492.76137 228.288455 
L 492.872098 225.712353 
L 493.093224 228.407301 
L 493.31391 226.589388 
L 493.42409 227.230962 
L 493.53416 227.137964 
L 493.753975 225.460635 
L 493.863719 226.70053 
L 493.973355 224.931569 
L 494.082884 225.000704 
L 494.192305 226.240983 
L 494.301618 225.819813 
L 494.519922 208.591353 
L 494.737799 223.878639 
L 494.846577 221.455053 
L 494.95525 223.039182 
L 495.063816 222.17063 
L 495.280631 210.50354 
L 495.38888 210.240657 
L 495.497024 210.7967 
L 495.712997 213.281359 
L 495.820827 212.102553 
L 495.928552 212.267632 
L 496.251102 217.813631 
L 496.465617 223.689943 
L 496.679719 227.222001 
L 496.786616 226.678831 
L 496.89341 225.034951 
L 497.000102 225.445326 
L 497.213179 222.395428 
L 497.319564 223.559105 
L 497.532031 228.284756 
L 497.638112 228.833587 
L 497.849971 226.054403 
L 498.167005 230.333672 
L 498.272483 230.218805 
L 498.37786 229.05638 
L 498.483138 219.470299 
L 498.588317 219.924456 
L 498.693396 226.762341 
L 498.798375 225.335869 
L 498.903256 227.238974 
L 499.008038 227.147372 
L 499.112722 227.590591 
L 499.321793 226.810067 
L 499.426182 226.741292 
L 499.530473 229.932384 
L 499.634666 229.74626 
L 499.738761 228.242558 
L 499.842759 229.111019 
L 499.94666 228.691999 
L 500.050465 227.038789 
L 500.154172 228.386353 
L 500.257783 227.671523 
L 500.361297 223.910353 
L 500.464715 224.135562 
L 500.568037 226.012036 
L 500.671263 224.917544 
L 500.774393 226.598352 
L 500.980367 223.602179 
L 501.083212 224.882542 
L 501.185961 229.141458 
L 501.288615 227.201356 
L 501.493641 228.105399 
L 501.596012 227.641818 
L 501.698288 225.983959 
L 501.800471 226.792337 
L 501.90256 229.932368 
L 502.004556 229.829047 
L 502.309982 232.333477 
L 502.411605 229.372723 
L 502.614572 234.301688 
L 502.715917 232.702191 
L 502.81717 228.887234 
L 502.918331 230.208548 
L 503.221262 228.436061 
L 503.322056 229.533326 
L 503.422758 228.604163 
L 503.62389 231.334552 
L 503.924908 232.718552 
L 504.125135 230.804418 
L 504.225114 231.593012 
L 504.424802 230.77338 
L 504.524511 232.625411 
L 504.624132 231.826915 
L 504.723663 232.230243 
L 504.922458 233.857205 
L 505.021723 233.100253 
L 505.219987 235.859376 
L 505.417898 233.209288 
L 505.615458 236.976839 
L 506.107827 231.103541 
L 506.20604 231.393862 
L 506.304166 234.721456 
L 506.50016 233.428346 
L 506.598027 233.431675 
L 506.988637 229.413591 
L 507.086075 228.037533 
L 507.280697 233.337798 
L 507.37788 233.583427 
L 507.571992 230.416333 
L 507.668921 230.290095 
L 507.765765 232.159763 
L 507.862526 230.182097 
L 507.959202 230.440737 
L 508.055794 230.449252 
L 508.248728 231.940066 
L 508.345069 231.909283 
L 508.441327 234.534981 
L 508.537502 234.036709 
L 508.633593 235.447663 
L 508.729602 234.821889 
L 508.921371 232.297794 
L 509.208406 237.437076 
L 509.30392 235.66294 
L 509.399353 236.927146 
L 509.589971 235.709224 
L 509.685158 236.518854 
L 509.875289 231.50948 
L 510.065094 233.084133 
L 510.159876 232.516985 
L 510.349197 233.673878 
L 510.443737 233.226966 
L 510.632575 228.585765 
L 510.915234 232.020163 
L 511.197176 227.120968 
L 511.290998 228.416236 
L 511.384741 227.078122 
L 511.478405 224.015793 
L 511.57199 224.607869 
L 511.665497 224.397763 
L 511.758925 224.604397 
L 511.852275 224.041558 
L 512.038739 228.061865 
L 512.131854 228.339776 
L 512.224892 227.272956 
L 512.410733 231.253461 
L 512.503538 230.778745 
L 512.688914 228.758324 
L 512.966402 231.840032 
L 513.058744 230.442482 
L 513.151009 232.72815 
L 513.243198 232.382397 
L 513.335311 232.719333 
L 513.977973 221.092139 
L 514.069479 223.295316 
L 514.16091 222.560792 
L 514.434754 231.63364 
L 514.525885 230.857508 
L 514.616942 229.819679 
L 514.707925 230.345176 
L 514.980427 226.161292 
L 515.161724 226.137033 
L 515.252262 227.780946 
L 515.342727 226.402668 
L 515.523435 228.90392 
L 515.703851 226.473012 
L 515.793949 227.685423 
L 516.063806 224.921462 
L 516.153613 226.45567 
L 516.243348 226.129091 
L 516.4226 226.66976 
L 516.601564 229.327167 
L 516.780241 225.796107 
L 516.869471 227.350544 
L 517.22568 223.534322 
L 517.403357 225.904255 
L 517.669343 232.422055 
L 517.757863 233.238587 
L 517.846313 233.023759 
L 518.023003 231.899511 
L 518.199412 227.803959 
L 518.375542 229.141115 
L 518.551394 224.977208 
L 518.639215 228.381903 
L 518.726968 226.30041 
L 518.902265 227.945968 
L 519.077286 226.088348 
L 519.426505 223.125183 
L 519.513639 223.330374 
L 519.687702 221.624808 
L 519.774631 221.528218 
L 519.948286 222.90776 
L 520.12167 222.611618 
L 520.208261 224.075683 
L 520.294785 223.094594 
L 520.46763 226.770393 
L 520.640208 224.918356 
L 520.812518 224.011977 
L 520.984561 226.418124 
L 521.156339 227.000039 
L 521.327852 229.766194 
L 521.413509 227.878218 
L 521.755481 231.640252 
L 521.840809 233.88361 
L 521.926073 233.091871 
L 522.096404 229.178515 
L 522.266474 227.351622 
L 522.605837 224.669202 
L 522.859681 223.582894 
L 522.944167 225.356713 
L 523.02859 224.699211 
L 523.281472 228.258624 
L 523.449741 226.832772 
L 523.617757 227.22906 
L 523.701669 225.829538 
L 523.785518 226.02353 
L 523.869305 227.860141 
L 523.953028 227.587497 
L 524.036688 227.121019 
L 524.120285 228.488125 
L 524.203819 228.420432 
L 524.287291 228.210191 
L 524.537331 232.574995 
L 524.620553 231.585233 
L 524.703713 231.445462 
L 524.78681 231.521232 
L 524.869846 229.809365 
L 524.952819 230.03085 
L 525.035731 229.691058 
L 525.201369 225.142932 
L 525.366761 227.712511 
L 525.449365 227.507684 
L 525.531908 227.744904 
L 525.779168 222.73543 
L 525.943704 224.30517 
L 526.025881 222.156944 
L 526.107997 222.95951 
L 526.190052 222.523023 
L 526.435856 226.977933 
L 526.51767 226.947008 
L 526.762751 225.316313 
L 526.844325 225.599256 
L 527.007294 226.134086 
L 527.170024 223.962369 
L 527.413674 227.071805 
L 527.494772 228.772878 
L 527.656791 224.772841 
L 527.737712 225.726114 
L 527.899378 223.615469 
L 527.980123 223.836937 
L 528.463365 235.864376 
L 528.543701 234.542169 
L 528.704201 234.28268 
L 528.784364 233.223794 
L 529.024507 227.26674 
L 529.184314 224.165453 
L 529.264132 224.17945 
L 529.343892 222.781141 
L 529.423596 223.246983 
L 529.662364 225.927426 
L 529.741839 228.234667 
L 529.821258 227.821639 
L 529.979926 228.948558 
L 530.059175 229.055217 
L 530.138368 228.62176 
L 530.217504 226.333127 
L 530.296584 227.670436 
L 530.454576 225.868697 
L 530.533487 225.468294 
L 530.691143 221.82873 
L 530.769887 222.021607 
L 530.848576 222.19057 
L 530.927208 220.462724 
L 531.005786 220.995608 
L 531.084307 220.888428 
L 531.319541 225.924558 
L 531.397841 225.201691 
L 531.476087 224.696679 
L 531.78852 230.518133 
L 531.866491 233.130566 
L 531.944408 233.108486 
L 532.02227 233.271139 
L 532.177831 231.114089 
L 532.25553 232.360796 
L 532.333175 232.026139 
L 532.720587 228.857701 
L 533.106655 226.674715 
L 533.260708 225.798308 
L 533.337655 225.68945 
L 533.72159 228.754452 
L 533.798219 226.60909 
L 533.951317 229.902944 
L 534.256884 222.994054 
L 534.485509 210.117821 
L 534.561613 210.313825 
L 534.789613 218.820306 
L 534.865509 219.514935 
L 535.092888 223.505269 
L 535.168578 223.575217 
L 535.319803 219.85689 
L 535.395339 221.35076 
L 535.621638 224.753257 
L 535.696969 224.064408 
L 535.847478 228.693299 
L 535.922656 227.629929 
L 536.447485 234.377339 
L 536.522259 236.529679 
L 536.596982 235.80224 
L 536.671656 235.459634 
L 536.820852 236.663805 
L 537.044273 232.691923 
L 537.118647 232.590217 
L 537.267245 236.40607 
L 537.489772 232.003584 
L 537.785783 235.387777 
L 537.859663 236.108858 
L 537.933493 235.018474 
L 538.007275 235.045965 
L 538.081008 237.790141 
L 538.154692 235.774316 
L 538.228327 236.659667 
L 538.301914 236.719131 
L 538.375452 236.339256 
L 538.448941 237.165956 
L 538.522382 236.918794 
L 538.742414 233.373852 
L 538.815661 236.341735 
L 538.88886 235.989009 
L 538.962011 235.821312 
L 539.181176 233.950811 
L 539.254135 238.093084 
L 539.327046 237.23765 
L 539.39991 236.96659 
L 539.545494 235.506679 
L 539.618214 235.413264 
L 539.690887 235.977192 
L 539.763513 238.080678 
L 539.836091 237.263136 
L 540.125931 234.049605 
L 540.198273 232.5754 
L 540.270568 232.906553 
L 540.342817 232.491793 
L 540.487172 234.663524 
L 540.55928 233.505706 
L 540.631341 233.935043 
L 540.703355 237.170365 
L 540.775323 233.717288 
L 540.847244 234.890538 
L 540.919119 235.885531 
L 540.990947 235.832043 
L 541.062729 234.902126 
L 541.134465 234.949183 
L 541.277797 237.832814 
L 541.349394 238.020957 
L 541.420945 238.816766 
L 541.49245 237.793512 
L 541.563909 238.381451 
L 541.635323 238.015185 
L 541.70669 238.607523 
L 541.849288 236.998281 
L 541.920518 237.340322 
L 542.062842 238.917217 
L 542.275987 236.622976 
L 542.346944 236.942214 
L 542.488724 233.935921 
L 542.630323 234.056146 
L 542.701055 234.704146 
L 542.842384 230.872081 
L 542.912981 232.172918 
L 542.983534 232.718608 
L 543.054042 234.748962 
L 543.124505 234.331932 
L 543.194923 231.526016 
L 543.265297 231.92682 
L 543.335627 230.969624 
L 543.476153 232.639719 
L 543.546349 232.20081 
L 543.616501 229.015045 
L 543.686609 229.529639 
L 543.756673 232.70469 
L 543.826692 230.436519 
L 543.896668 231.175503 
L 544.245886 239.018384 
L 544.663507 233.885623 
L 544.732958 234.376323 
L 544.87173 237.584976 
L 544.941052 236.966452 
L 545.01033 236.967639 
L 545.079565 238.119634 
L 545.148757 237.401705 
L 545.287012 238.428108 
L 545.425095 236.521473 
L 545.494072 236.876293 
L 545.563007 236.062828 
L 545.700748 237.307677 
L 545.769555 235.92315 
L 546.044357 240.475956 
L 546.112952 239.156047 
L 546.181504 239.018646 
L 546.318482 238.286669 
L 546.455291 240.395674 
L 546.591933 237.804682 
L 546.66019 239.084417 
L 546.728406 238.702007 
L 546.796581 239.112468 
L 546.932804 236.267905 
L 547.000853 237.745822 
L 547.06886 236.399191 
L 547.20475 239.664916 
L 547.272633 237.705616 
L 547.408274 241.900313 
L 547.543751 238.155423 
L 547.679062 239.126337 
L 547.81421 235.473494 
L 547.881722 235.908574 
L 547.949193 236.525386 
L 548.016623 235.227373 
L 548.084012 236.351282 
L 548.151361 235.617108 
L 548.285935 237.252535 
L 548.353162 236.601281 
L 548.554598 240.319165 
L 548.755669 235.553413 
L 548.822612 236.075745 
L 548.889515 235.7356 
L 548.956378 234.389435 
L 549.0232 235.201676 
L 549.156725 235.334036 
L 549.223427 236.645986 
L 549.29009 235.881855 
L 549.356712 235.749574 
L 549.55634 228.381014 
L 549.622803 231.422044 
L 549.689227 230.511837 
L 549.821955 231.768678 
L 550.02075 229.449042 
L 550.086937 229.65025 
L 550.219191 230.36899 
L 550.351289 234.573076 
L 550.417279 234.358371 
L 550.943794 241.848605 
L 551.075034 239.759152 
L 551.206119 236.698643 
L 551.271604 236.985069 
L 551.402459 234.330207 
L 551.467828 235.592753 
L 551.598452 237.222337 
L 551.663706 236.626326 
L 551.85924 240.510829 
L 551.924341 240.687541 
L 551.989405 241.737423 
L 552.05443 241.543437 
L 552.119418 241.20998 
L 552.184367 242.702896 
L 552.249279 241.170797 
L 552.314153 242.084424 
L 552.378989 241.352379 
L 552.57327 245.552174 
L 552.702603 241.673188 
L 552.767213 243.78966 
L 552.960818 241.159317 
L 553.025278 241.161373 
L 553.089701 239.572627 
L 553.282746 243.225975 
L 553.411257 240.476365 
L 553.475456 241.055538 
L 553.603745 241.82092 
L 553.859879 239.149641 
L 553.987725 242.062241 
L 554.051593 241.467121 
L 554.306699 238.458998 
L 554.561221 240.584004 
L 554.62476 239.337144 
L 554.751731 241.358711 
L 554.878556 238.466471 
L 554.941915 239.067355 
L 555.068524 241.964754 
L 555.258168 236.425914 
L 555.321311 238.664625 
L 555.384418 239.222556 
L 555.447489 237.644016 
L 555.636488 240.16512 
L 555.825167 235.065569 
L 555.887989 234.405259 
L 556.013526 236.485044 
L 556.076242 235.86676 
L 556.138922 236.003894 
L 556.264176 237.129107 
L 556.326751 240.265763 
L 556.38929 238.603396 
L 556.514263 237.505318 
L 556.639096 240.069837 
L 556.70146 239.990479 
L 556.763789 239.442134 
L 556.826083 241.124629 
L 556.888342 239.866455 
L 556.950567 238.267609 
L 557.012756 239.763425 
L 557.074911 238.78189 
L 557.199117 236.829032 
L 557.261168 238.854889 
L 557.323184 238.619014 
L 557.694557 232.801911 
L 557.941451 239.236472 
L 558.00309 239.929631 
L 558.064694 239.254438 
L 558.249301 241.209926 
L 558.433603 245.223979 
L 558.494969 244.205395 
L 558.556301 244.204142 
L 558.6176 244.465548 
L 558.678865 245.2574 
L 558.923587 238.802494 
L 558.984683 240.479812 
L 559.045746 240.106565 
L 559.106775 237.549421 
L 559.167771 238.703449 
L 559.228734 240.822369 
L 559.289663 239.535069 
L 559.411421 237.149895 
L 559.593809 240.094797 
L 559.654538 239.954638 
L 559.715235 240.230796 
L 559.775898 239.208719 
L 559.957689 241.740661 
L 560.139184 240.107543 
L 560.199617 242.476361 
L 560.260016 242.234284 
L 560.320383 242.545 
L 560.441019 244.927081 
L 560.621728 241.933688 
L 560.681899 242.526807 
L 560.742037 241.086335 
L 560.802143 241.882526 
L 560.862216 243.405557 
L 560.922258 242.205196 
L 560.982266 241.955396 
L 561.102186 245.065509 
L 561.162098 243.960204 
L 561.162098 243.960204 
" clip-path="url(#p61a216421f)" style="fill: none; stroke: #ff7f0e; stroke-linecap: square"/>
   </g>
   <g id="patch_3">
    <path d="M 48.982813 294.590247 
L 48.982813 22.318125 
" style="fill: none; stroke: #000000; stroke-width: 0.8; stroke-linejoin: miter; stroke-linecap: square"/>
   </g>
   <g id="patch_4">
    <path d="M 561.197812 294.590247 
L 561.197812 22.318125 
" style="fill: none; stroke: #000000; stroke-width: 0.8; stroke-linejoin: miter; stroke-linecap: square"/>
   </g>
   <g id="patch_5">
    <path d="M 48.982813 294.590247 
L 561.197812 294.590247 
" style="fill: none; stroke: #000000; stroke-width: 0.8; stroke-linejoin: miter; stroke-linecap: square"/>
   </g>
   <g id="patch_6">
    <path d="M 48.982813 22.318125 
L 561.197812 22.318125 
" style="fill: none; stroke: #000000; stroke-width: 0.8; stroke-linejoin: miter; stroke-linecap: square"/>
   </g>
   <g id="text_14">
    <!-- Honda Odysee Blower Setting 2 - Narrow Band SPL (dBA) -->
    <g transform="translate(133.554062 16.318125) scale(0.12 -0.12)">
     <defs>
      <path id="DejaVuSans-6f" d="M 1959 3097 
Q 1497 3097 1228 2736 
Q 959 2375 959 1747 
Q 959 1119 1226 758 
Q 1494 397 1959 397 
Q 2419 397 2687 759 
Q 2956 1122 2956 1747 
Q 2956 2369 2687 2733 
Q 2419 3097 1959 3097 
z
M 1959 3584 
Q 2709 3584 3137 3096 
Q 3566 2609 3566 1747 
Q 3566 888 3137 398 
Q 2709 -91 1959 -91 
Q 1206 -91 779 398 
Q 353 888 353 1747 
Q 353 2609 779 3096 
Q 1206 3584 1959 3584 
z
" transform="scale(0.015625)"/>
      <path id="DejaVuSans-61" d="M 2194 1759 
Q 1497 1759 1228 1600 
Q 959 1441 959 1056 
Q 959 750 1161 570 
Q 1363 391 1709 391 
Q 2188 391 2477 730 
Q 2766 1069 2766 1631 
L 2766 1759 
L 2194 1759 
z
M 3341 1997 
L 3341 0 
L 2766 0 
L 2766 531 
Q 2569 213 2275 61 
Q 1981 -91 1556 -91 
Q 1019 -91 701 211 
Q 384 513 384 1019 
Q 384 1609 779 1909 
Q 1175 2209 1959 2209 
L 2766 2209 
L 2766 2266 
Q 2766 2663 2505 2880 
Q 2244 3097 1772 3097 
Q 1472 3097 1187 3025 
Q 903 2953 641 2809 
L 641 3341 
Q 956 3463 1253 3523 
Q 1550 3584 1831 3584 
Q 2591 3584 2966 3190 
Q 3341 2797 3341 1997 
z
" transform="scale(0.015625)"/>
      <path id="DejaVuSans-4f" d="M 2522 4238 
Q 1834 4238 1429 3725 
Q 1025 3213 1025 2328 
Q 1025 1447 1429 934 
Q 1834 422 2522 422 
Q 3209 422 3611 934 
Q 4013 1447 4013 2328 
Q 4013 3213 3611 3725 
Q 3209 4238 2522 4238 
z
M 2522 4750 
Q 3503 4750 4090 4092 
Q 4678 3434 4678 2328 
Q 4678 1225 4090 567 
Q 3503 -91 2522 -91 
Q 1538 -91 948 565 
Q 359 1222 359 2328 
Q 359 3434 948 4092 
Q 1538 4750 2522 4750 
z
" transform="scale(0.015625)"/>
      <path id="DejaVuSans-73" d="M 2834 3397 
L 2834 2853 
Q 2591 2978 2328 3040 
Q 2066 3103 1784 3103 
Q 1356 3103 1142 2972 
Q 928 2841 928 2578 
Q 928 2378 1081 2264 
Q 1234 2150 1697 2047 
L 1894 2003 
Q 2506 1872 2764 1633 
Q 3022 1394 3022 966 
Q 3022 478 2636 193 
Q 2250 -91 1575 -91 
Q 1294 -91 989 -36 
Q 684 19 347 128 
L 347 722 
Q 666 556 975 473 
Q 1284 391 1588 391 
Q 1994 391 2212 530 
Q 2431 669 2431 922 
Q 2431 1156 2273 1281 
Q 2116 1406 1581 1522 
L 1381 1569 
Q 847 1681 609 1914 
Q 372 2147 372 2553 
Q 372 3047 722 3315 
Q 1072 3584 1716 3584 
Q 2034 3584 2315 3537 
Q 2597 3491 2834 3397 
z
" transform="scale(0.015625)"/>
      <path id="DejaVuSans-6c" d="M 603 4863 
L 1178 4863 
L 1178 0 
L 603 0 
L 603 4863 
z
" transform="scale(0.015625)"/>
      <path id="DejaVuSans-77" d="M 269 3500 
L 844 3500 
L 1563 769 
L 2278 3500 
L 2956 3500 
L 3675 769 
L 4391 3500 
L 4966 3500 
L 4050 0 
L 3372 0 
L 2619 2869 
L 1863 0 
L 1184 0 
L 269 3500 
z
" transform="scale(0.015625)"/>
      <path id="DejaVuSans-74" d="M 1172 4494 
L 1172 3500 
L 2356 3500 
L 2356 3053 
L 1172 3053 
L 1172 1153 
Q 1172 725 1289 603 
Q 1406 481 1766 481 
L 2356 481 
L 2356 0 
L 1766 0 
Q 1100 0 847 248 
Q 594 497 594 1153 
L 594 3053 
L 172 3053 
L 172 3500 
L 594 3500 
L 594 4494 
L 1172 4494 
z
" transform="scale(0.015625)"/>
      <path id="DejaVuSans-69" d="M 603 3500 
L 1178 3500 
L 1178 0 
L 603 0 
L 603 3500 
z
M 603 4863 
L 1178 4863 
L 1178 4134 
L 603 4134 
L 603 4863 
z
" transform="scale(0.015625)"/>
      <path id="DejaVuSans-67" d="M 2906 1791 
Q 2906 2416 2648 2759 
Q 2391 3103 1925 3103 
Q 1463 3103 1205 2759 
Q 947 2416 947 1791 
Q 947 1169 1205 825 
Q 1463 481 1925 481 
Q 2391 481 2648 825 
Q 2906 1169 2906 1791 
z
M 3481 434 
Q 3481 -459 3084 -895 
Q 2688 -1331 1869 -1331 
Q 1566 -1331 1297 -1286 
Q 1028 -1241 775 -1147 
L 775 -588 
Q 1028 -725 1275 -790 
Q 1522 -856 1778 -856 
Q 2344 -856 2625 -561 
Q 2906 -266 2906 331 
L 2906 616 
Q 2728 306 2450 153 
Q 2172 0 1784 0 
Q 1141 0 747 490 
Q 353 981 353 1791 
Q 353 2603 747 3093 
Q 1141 3584 1784 3584 
Q 2172 3584 2450 3431 
Q 2728 3278 2906 2969 
L 2906 3500 
L 3481 3500 
L 3481 434 
z
" transform="scale(0.015625)"/>
      <path id="DejaVuSans-2d" d="M 313 2009 
L 1997 2009 
L 1997 1497 
L 313 1497 
L 313 2009 
z
" transform="scale(0.015625)"/>
      <path id="DejaVuSans-4e" d="M 628 4666 
L 1478 4666 
L 3547 763 
L 3547 4666 
L 4159 4666 
L 4159 0 
L 3309 0 
L 1241 3903 
L 1241 0 
L 628 0 
L 628 4666 
z
" transform="scale(0.015625)"/>
     </defs>
     <use xlink:href="#DejaVuSans-48"/>
     <use xlink:href="#DejaVuSans-6f" transform="translate(75.195312 0)"/>
     <use xlink:href="#DejaVuSans-6e" transform="translate(136.376953 0)"/>
     <use xlink:href="#DejaVuSans-64" transform="translate(199.755859 0)"/>
     <use xlink:href="#DejaVuSans-61" transform="translate(263.232422 0)"/>
     <use xlink:href="#DejaVuSans-20" transform="translate(324.511719 0)"/>
     <use xlink:href="#DejaVuSans-4f" transform="translate(356.298828 0)"/>
     <use xlink:href="#DejaVuSans-64" transform="translate(435.009766 0)"/>
     <use xlink:href="#DejaVuSans-79" transform="translate(498.486328 0)"/>
     <use xlink:href="#DejaVuSans-73" transform="translate(557.666016 0)"/>
     <use xlink:href="#DejaVuSans-65" transform="translate(609.765625 0)"/>
     <use xlink:href="#DejaVuSans-65" transform="translate(671.289062 0)"/>
     <use xlink:href="#DejaVuSans-20" transform="translate(732.8125 0)"/>
     <use xlink:href="#DejaVuSans-42" transform="translate(764.599609 0)"/>
     <use xlink:href="#DejaVuSans-6c" transform="translate(833.203125 0)"/>
     <use xlink:href="#DejaVuSans-6f" transform="translate(860.986328 0)"/>
     <use xlink:href="#DejaVuSans-77" transform="translate(922.167969 0)"/>
     <use xlink:href="#DejaVuSans-65" transform="translate(1003.955078 0)"/>
     <use xlink:href="#DejaVuSans-72" transform="translate(1065.478516 0)"/>
     <use xlink:href="#DejaVuSans-20" transform="translate(1106.591797 0)"/>
     <use xlink:href="#DejaVuSans-53" transform="translate(1138.378906 0)"/>
     <use xlink:href="#DejaVuSans-65" transform="translate(1201.855469 0)"/>
     <use xlink:href="#DejaVuSans-74" transform="translate(1263.378906 0)"/>
     <use xlink:href="#DejaVuSans-74" transform="translate(1302.587891 0)"/>
     <use xlink:href="#DejaVuSans-69" transform="translate(1341.796875 0)"/>
     <use xlink:href="#DejaVuSans-6e" transform="translate(1369.580078 0)"/>
     <use xlink:href="#DejaVuSans-67" transform="translate(1432.958984 0)"/>
     <use xlink:href="#DejaVuSans-20" transform="translate(1496.435547 0)"/>
     <use xlink:href="#DejaVuSans-32" transform="translate(1528.222656 0)"/>
     <use xlink:href="#DejaVuSans-20" transform="translate(1591.845703 0)"/>
     <use xlink:href="#DejaVuSans-2d" transform="translate(1623.632812 0)"/>
     <use xlink:href="#DejaVuSans-20" transform="translate(1659.716797 0)"/>
     <use xlink:href="#DejaVuSans-4e" transform="translate(1691.503906 0)"/>
     <use xlink:href="#DejaVuSans-61" transform="translate(1766.308594 0)"/>
     <use xlink:href="#DejaVuSans-72" transform="translate(1827.587891 0)"/>
     <use xlink:href="#DejaVuSans-72" transform="translate(1866.951172 0)"/>
     <use xlink:href="#DejaVuSans-6f" transform="translate(1905.814453 0)"/>
     <use xlink:href="#DejaVuSans-77" transform="translate(1966.996094 0)"/>
     <use xlink:href="#DejaVuSans-20" transform="translate(2048.783203 0)"/>
     <use xlink:href="#DejaVuSans-42" transform="translate(2080.570312 0)"/>
     <use xlink:href="#DejaVuSans-61" transform="translate(2149.173828 0)"/>
     <use xlink:href="#DejaVuSans-6e" transform="translate(2210.453125 0)"/>
     <use xlink:href="#DejaVuSans-64" transform="translate(2273.832031 0)"/>
     <use xlink:href="#DejaVuSans-20" transform="translate(2337.308594 0)"/>
     <use xlink:href="#DejaVuSans-53" transform="translate(2369.095703 0)"/>
     <use xlink:href="#DejaVuSans-50" transform="translate(2432.572266 0)"/>
     <use xlink:href="#DejaVuSans-4c" transform="translate(2492.875 0)"/>
     <use xlink:href="#DejaVuSans-20" transform="translate(2548.587891 0)"/>
     <use xlink:href="#DejaVuSans-28" transform="translate(2580.375 0)"/>
     <use xlink:href="#DejaVuSans-64" transform="translate(2619.388672 0)"/>
     <use xlink:href="#DejaVuSans-42" transform="translate(2682.865234 0)"/>
     <use xlink:href="#DejaVuSans-41" transform="translate(2751.46875 0)"/>
     <use xlink:href="#DejaVuSans-29" transform="translate(2819.876953 0)"/>
    </g>
   </g>
  </g>
 </g>
 <defs>
  <clipPath id="p61a216421f">
   <rect x="48.982813" y="22.318125" width="512.215" height="272.272122"/>
  </clipPath>
 </defs>
</svg>
