<?xml version="1.0" encoding="utf-8" standalone="no"?>
<!DOCTYPE svg PUBLIC "-//W3C//DTD SVG 1.1//EN"
  "http://www.w3.org/Graphics/SVG/1.1/DTD/svg11.dtd">
<svg xmlns:xlink="http://www.w3.org/1999/xlink" width="568.397812pt" height="351.806674pt" viewBox="0 0 568.397812 351.806674" xmlns="http://www.w3.org/2000/svg" version="1.1">
 <metadata>
  <rdf:RDF xmlns:dc="http://purl.org/dc/elements/1.1/" xmlns:cc="http://creativecommons.org/ns#" xmlns:rdf="http://www.w3.org/1999/02/22-rdf-syntax-ns#">
   <cc:Work>
    <dc:type rdf:resource="http://purl.org/dc/dcmitype/StillImage"/>
    <dc:date>2025-04-24T18:27:05.936277</dc:date>
    <dc:format>image/svg+xml</dc:format>
    <dc:creator>
     <cc:Agent>
      <dc:title>Matplotlib v3.10.0, https://matplotlib.org/</dc:title>
     </cc:Agent>
    </dc:creator>
   </cc:Work>
  </rdf:RDF>
 </metadata>
 <defs>
  <style type="text/css">*{stroke-linejoin: round; stroke-linecap: butt}</style>
 </defs>
 <g id="figure_1">
  <g id="patch_1">
   <path d="M 0 351.806674 
L 568.397812 351.806674 
L 568.397812 0 
L 0 0 
z
" style="fill: #ffffff"/>
  </g>
  <g id="axes_1">
   <g id="patch_2">
    <path d="M 48.982813 294.590247 
L 561.197812 294.590247 
L 561.197812 22.318125 
L 48.982813 22.318125 
z
" style="fill: #ffffff"/>
   </g>
   <g id="matplotlib.axis_1">
    <g id="xtick_1">
     <g id="line2d_1">
      <path d="M 48.982813 294.590247 
L 48.982813 22.318125 
" clip-path="url(#p0f0e5ff0b6)" style="fill: none; stroke-dasharray: 1.85,0.8; stroke-dashoffset: 0; stroke: #b0b0b0; stroke-width: 0.5"/>
     </g>
     <g id="line2d_2">
      <defs>
       <path id="m27938c20b2" d="M 0 0 
L 0 3.5 
" style="stroke: #000000; stroke-width: 0.8"/>
      </defs>
      <g>
       <use xlink:href="#m27938c20b2" x="48.982813" y="294.590247" style="stroke: #000000; stroke-width: 0.8"/>
      </g>
     </g>
     <g id="text_1">
      <!-- 100 -->
      <g transform="translate(34.015351 320.460054) rotate(-45) scale(0.1 -0.1)">
       <defs>
        <path id="DejaVuSans-31" d="M 794 531 
L 1825 531 
L 1825 4091 
L 703 3866 
L 703 4441 
L 1819 4666 
L 2450 4666 
L 2450 531 
L 3481 531 
L 3481 0 
L 794 0 
L 794 531 
z
" transform="scale(0.015625)"/>
        <path id="DejaVuSans-30" d="M 2034 4250 
Q 1547 4250 1301 3770 
Q 1056 3291 1056 2328 
Q 1056 1369 1301 889 
Q 1547 409 2034 409 
Q 2525 409 2770 889 
Q 3016 1369 3016 2328 
Q 3016 3291 2770 3770 
Q 2525 4250 2034 4250 
z
M 2034 4750 
Q 2819 4750 3233 4129 
Q 3647 3509 3647 2328 
Q 3647 1150 3233 529 
Q 2819 -91 2034 -91 
Q 1250 -91 836 529 
Q 422 1150 422 2328 
Q 422 3509 836 4129 
Q 1250 4750 2034 4750 
z
" transform="scale(0.015625)"/>
       </defs>
       <use xlink:href="#DejaVuSans-31"/>
       <use xlink:href="#DejaVuSans-30" transform="translate(63.623047 0)"/>
       <use xlink:href="#DejaVuSans-30" transform="translate(127.246094 0)"/>
      </g>
     </g>
    </g>
    <g id="xtick_2">
     <g id="line2d_3">
      <path d="M 305.090312 294.590247 
L 305.090312 22.318125 
" clip-path="url(#p0f0e5ff0b6)" style="fill: none; stroke-dasharray: 1.85,0.8; stroke-dashoffset: 0; stroke: #b0b0b0; stroke-width: 0.5"/>
     </g>
     <g id="line2d_4">
      <g>
       <use xlink:href="#m27938c20b2" x="305.090312" y="294.590247" style="stroke: #000000; stroke-width: 0.8"/>
      </g>
     </g>
     <g id="text_2">
      <!-- 1000 -->
      <g transform="translate(285.623884 324.959021) rotate(-45) scale(0.1 -0.1)">
       <use xlink:href="#DejaVuSans-31"/>
       <use xlink:href="#DejaVuSans-30" transform="translate(63.623047 0)"/>
       <use xlink:href="#DejaVuSans-30" transform="translate(127.246094 0)"/>
       <use xlink:href="#DejaVuSans-30" transform="translate(190.869141 0)"/>
      </g>
     </g>
    </g>
    <g id="xtick_3">
     <g id="line2d_5">
      <path d="M 561.197812 294.590247 
L 561.197812 22.318125 
" clip-path="url(#p0f0e5ff0b6)" style="fill: none; stroke-dasharray: 1.85,0.8; stroke-dashoffset: 0; stroke: #b0b0b0; stroke-width: 0.5"/>
     </g>
     <g id="line2d_6">
      <g>
       <use xlink:href="#m27938c20b2" x="561.197812" y="294.590247" style="stroke: #000000; stroke-width: 0.8"/>
      </g>
     </g>
     <g id="text_3">
      <!-- 10000 -->
      <g transform="translate(537.232417 329.457988) rotate(-45) scale(0.1 -0.1)">
       <use xlink:href="#DejaVuSans-31"/>
       <use xlink:href="#DejaVuSans-30" transform="translate(63.623047 0)"/>
       <use xlink:href="#DejaVuSans-30" transform="translate(127.246094 0)"/>
       <use xlink:href="#DejaVuSans-30" transform="translate(190.869141 0)"/>
       <use xlink:href="#DejaVuSans-30" transform="translate(254.492188 0)"/>
      </g>
     </g>
    </g>
    <g id="xtick_4">
     <g id="line2d_7">
      <path d="M 126.078852 294.590247 
L 126.078852 22.318125 
" clip-path="url(#p0f0e5ff0b6)" style="fill: none; stroke-dasharray: 1.85,0.8; stroke-dashoffset: 0; stroke: #b0b0b0; stroke-width: 0.5"/>
     </g>
     <g id="line2d_8">
      <defs>
       <path id="m5ee9c66415" d="M 0 0 
L 0 2 
" style="stroke: #000000; stroke-width: 0.6"/>
      </defs>
      <g>
       <use xlink:href="#m5ee9c66415" x="126.078852" y="294.590247" style="stroke: #000000; stroke-width: 0.6"/>
      </g>
     </g>
    </g>
    <g id="xtick_5">
     <g id="line2d_9">
      <path d="M 171.177144 294.590247 
L 171.177144 22.318125 
" clip-path="url(#p0f0e5ff0b6)" style="fill: none; stroke-dasharray: 1.85,0.8; stroke-dashoffset: 0; stroke: #b0b0b0; stroke-width: 0.5"/>
     </g>
     <g id="line2d_10">
      <g>
       <use xlink:href="#m5ee9c66415" x="171.177144" y="294.590247" style="stroke: #000000; stroke-width: 0.6"/>
      </g>
     </g>
    </g>
    <g id="xtick_6">
     <g id="line2d_11">
      <path d="M 203.174892 294.590247 
L 203.174892 22.318125 
" clip-path="url(#p0f0e5ff0b6)" style="fill: none; stroke-dasharray: 1.85,0.8; stroke-dashoffset: 0; stroke: #b0b0b0; stroke-width: 0.5"/>
     </g>
     <g id="line2d_12">
      <g>
       <use xlink:href="#m5ee9c66415" x="203.174892" y="294.590247" style="stroke: #000000; stroke-width: 0.6"/>
      </g>
     </g>
    </g>
    <g id="xtick_7">
     <g id="line2d_13">
      <path d="M 227.994273 294.590247 
L 227.994273 22.318125 
" clip-path="url(#p0f0e5ff0b6)" style="fill: none; stroke-dasharray: 1.85,0.8; stroke-dashoffset: 0; stroke: #b0b0b0; stroke-width: 0.5"/>
     </g>
     <g id="line2d_14">
      <g>
       <use xlink:href="#m5ee9c66415" x="227.994273" y="294.590247" style="stroke: #000000; stroke-width: 0.6"/>
      </g>
     </g>
    </g>
    <g id="xtick_8">
     <g id="line2d_15">
      <path d="M 248.273184 294.590247 
L 248.273184 22.318125 
" clip-path="url(#p0f0e5ff0b6)" style="fill: none; stroke-dasharray: 1.85,0.8; stroke-dashoffset: 0; stroke: #b0b0b0; stroke-width: 0.5"/>
     </g>
     <g id="line2d_16">
      <g>
       <use xlink:href="#m5ee9c66415" x="248.273184" y="294.590247" style="stroke: #000000; stroke-width: 0.6"/>
      </g>
     </g>
    </g>
    <g id="xtick_9">
     <g id="line2d_17">
      <path d="M 265.418759 294.590247 
L 265.418759 22.318125 
" clip-path="url(#p0f0e5ff0b6)" style="fill: none; stroke-dasharray: 1.85,0.8; stroke-dashoffset: 0; stroke: #b0b0b0; stroke-width: 0.5"/>
     </g>
     <g id="line2d_18">
      <g>
       <use xlink:href="#m5ee9c66415" x="265.418759" y="294.590247" style="stroke: #000000; stroke-width: 0.6"/>
      </g>
     </g>
    </g>
    <g id="xtick_10">
     <g id="line2d_19">
      <path d="M 280.270931 294.590247 
L 280.270931 22.318125 
" clip-path="url(#p0f0e5ff0b6)" style="fill: none; stroke-dasharray: 1.85,0.8; stroke-dashoffset: 0; stroke: #b0b0b0; stroke-width: 0.5"/>
     </g>
     <g id="line2d_20">
      <g>
       <use xlink:href="#m5ee9c66415" x="280.270931" y="294.590247" style="stroke: #000000; stroke-width: 0.6"/>
      </g>
     </g>
    </g>
    <g id="xtick_11">
     <g id="line2d_21">
      <path d="M 293.371476 294.590247 
L 293.371476 22.318125 
" clip-path="url(#p0f0e5ff0b6)" style="fill: none; stroke-dasharray: 1.85,0.8; stroke-dashoffset: 0; stroke: #b0b0b0; stroke-width: 0.5"/>
     </g>
     <g id="line2d_22">
      <g>
       <use xlink:href="#m5ee9c66415" x="293.371476" y="294.590247" style="stroke: #000000; stroke-width: 0.6"/>
      </g>
     </g>
    </g>
    <g id="xtick_12">
     <g id="line2d_23">
      <path d="M 382.186352 294.590247 
L 382.186352 22.318125 
" clip-path="url(#p0f0e5ff0b6)" style="fill: none; stroke-dasharray: 1.85,0.8; stroke-dashoffset: 0; stroke: #b0b0b0; stroke-width: 0.5"/>
     </g>
     <g id="line2d_24">
      <g>
       <use xlink:href="#m5ee9c66415" x="382.186352" y="294.590247" style="stroke: #000000; stroke-width: 0.6"/>
      </g>
     </g>
    </g>
    <g id="xtick_13">
     <g id="line2d_25">
      <path d="M 427.284644 294.590247 
L 427.284644 22.318125 
" clip-path="url(#p0f0e5ff0b6)" style="fill: none; stroke-dasharray: 1.85,0.8; stroke-dashoffset: 0; stroke: #b0b0b0; stroke-width: 0.5"/>
     </g>
     <g id="line2d_26">
      <g>
       <use xlink:href="#m5ee9c66415" x="427.284644" y="294.590247" style="stroke: #000000; stroke-width: 0.6"/>
      </g>
     </g>
    </g>
    <g id="xtick_14">
     <g id="line2d_27">
      <path d="M 459.282392 294.590247 
L 459.282392 22.318125 
" clip-path="url(#p0f0e5ff0b6)" style="fill: none; stroke-dasharray: 1.85,0.8; stroke-dashoffset: 0; stroke: #b0b0b0; stroke-width: 0.5"/>
     </g>
     <g id="line2d_28">
      <g>
       <use xlink:href="#m5ee9c66415" x="459.282392" y="294.590247" style="stroke: #000000; stroke-width: 0.6"/>
      </g>
     </g>
    </g>
    <g id="xtick_15">
     <g id="line2d_29">
      <path d="M 484.101773 294.590247 
L 484.101773 22.318125 
" clip-path="url(#p0f0e5ff0b6)" style="fill: none; stroke-dasharray: 1.85,0.8; stroke-dashoffset: 0; stroke: #b0b0b0; stroke-width: 0.5"/>
     </g>
     <g id="line2d_30">
      <g>
       <use xlink:href="#m5ee9c66415" x="484.101773" y="294.590247" style="stroke: #000000; stroke-width: 0.6"/>
      </g>
     </g>
    </g>
    <g id="xtick_16">
     <g id="line2d_31">
      <path d="M 504.380684 294.590247 
L 504.380684 22.318125 
" clip-path="url(#p0f0e5ff0b6)" style="fill: none; stroke-dasharray: 1.85,0.8; stroke-dashoffset: 0; stroke: #b0b0b0; stroke-width: 0.5"/>
     </g>
     <g id="line2d_32">
      <g>
       <use xlink:href="#m5ee9c66415" x="504.380684" y="294.590247" style="stroke: #000000; stroke-width: 0.6"/>
      </g>
     </g>
    </g>
    <g id="xtick_17">
     <g id="line2d_33">
      <path d="M 521.526259 294.590247 
L 521.526259 22.318125 
" clip-path="url(#p0f0e5ff0b6)" style="fill: none; stroke-dasharray: 1.85,0.8; stroke-dashoffset: 0; stroke: #b0b0b0; stroke-width: 0.5"/>
     </g>
     <g id="line2d_34">
      <g>
       <use xlink:href="#m5ee9c66415" x="521.526259" y="294.590247" style="stroke: #000000; stroke-width: 0.6"/>
      </g>
     </g>
    </g>
    <g id="xtick_18">
     <g id="line2d_35">
      <path d="M 536.378431 294.590247 
L 536.378431 22.318125 
" clip-path="url(#p0f0e5ff0b6)" style="fill: none; stroke-dasharray: 1.85,0.8; stroke-dashoffset: 0; stroke: #b0b0b0; stroke-width: 0.5"/>
     </g>
     <g id="line2d_36">
      <g>
       <use xlink:href="#m5ee9c66415" x="536.378431" y="294.590247" style="stroke: #000000; stroke-width: 0.6"/>
      </g>
     </g>
    </g>
    <g id="xtick_19">
     <g id="line2d_37">
      <path d="M 549.478976 294.590247 
L 549.478976 22.318125 
" clip-path="url(#p0f0e5ff0b6)" style="fill: none; stroke-dasharray: 1.85,0.8; stroke-dashoffset: 0; stroke: #b0b0b0; stroke-width: 0.5"/>
     </g>
     <g id="line2d_38">
      <g>
       <use xlink:href="#m5ee9c66415" x="549.478976" y="294.590247" style="stroke: #000000; stroke-width: 0.6"/>
      </g>
     </g>
    </g>
    <g id="text_4">
     <!-- Frequency (Hz) -->
     <g transform="translate(267.385625 342.526987) scale(0.1 -0.1)">
      <defs>
       <path id="DejaVuSans-46" d="M 628 4666 
L 3309 4666 
L 3309 4134 
L 1259 4134 
L 1259 2759 
L 3109 2759 
L 3109 2228 
L 1259 2228 
L 1259 0 
L 628 0 
L 628 4666 
z
" transform="scale(0.015625)"/>
       <path id="DejaVuSans-72" d="M 2631 2963 
Q 2534 3019 2420 3045 
Q 2306 3072 2169 3072 
Q 1681 3072 1420 2755 
Q 1159 2438 1159 1844 
L 1159 0 
L 581 0 
L 581 3500 
L 1159 3500 
L 1159 2956 
Q 1341 3275 1631 3429 
Q 1922 3584 2338 3584 
Q 2397 3584 2469 3576 
Q 2541 3569 2628 3553 
L 2631 2963 
z
" transform="scale(0.015625)"/>
       <path id="DejaVuSans-65" d="M 3597 1894 
L 3597 1613 
L 953 1613 
Q 991 1019 1311 708 
Q 1631 397 2203 397 
Q 2534 397 2845 478 
Q 3156 559 3463 722 
L 3463 178 
Q 3153 47 2828 -22 
Q 2503 -91 2169 -91 
Q 1331 -91 842 396 
Q 353 884 353 1716 
Q 353 2575 817 3079 
Q 1281 3584 2069 3584 
Q 2775 3584 3186 3129 
Q 3597 2675 3597 1894 
z
M 3022 2063 
Q 3016 2534 2758 2815 
Q 2500 3097 2075 3097 
Q 1594 3097 1305 2825 
Q 1016 2553 972 2059 
L 3022 2063 
z
" transform="scale(0.015625)"/>
       <path id="DejaVuSans-71" d="M 947 1747 
Q 947 1113 1208 752 
Q 1469 391 1925 391 
Q 2381 391 2643 752 
Q 2906 1113 2906 1747 
Q 2906 2381 2643 2742 
Q 2381 3103 1925 3103 
Q 1469 3103 1208 2742 
Q 947 2381 947 1747 
z
M 2906 525 
Q 2725 213 2448 61 
Q 2172 -91 1784 -91 
Q 1150 -91 751 415 
Q 353 922 353 1747 
Q 353 2572 751 3078 
Q 1150 3584 1784 3584 
Q 2172 3584 2448 3432 
Q 2725 3281 2906 2969 
L 2906 3500 
L 3481 3500 
L 3481 -1331 
L 2906 -1331 
L 2906 525 
z
" transform="scale(0.015625)"/>
       <path id="DejaVuSans-75" d="M 544 1381 
L 544 3500 
L 1119 3500 
L 1119 1403 
Q 1119 906 1312 657 
Q 1506 409 1894 409 
Q 2359 409 2629 706 
Q 2900 1003 2900 1516 
L 2900 3500 
L 3475 3500 
L 3475 0 
L 2900 0 
L 2900 538 
Q 2691 219 2414 64 
Q 2138 -91 1772 -91 
Q 1169 -91 856 284 
Q 544 659 544 1381 
z
M 1991 3584 
L 1991 3584 
z
" transform="scale(0.015625)"/>
       <path id="DejaVuSans-6e" d="M 3513 2113 
L 3513 0 
L 2938 0 
L 2938 2094 
Q 2938 2591 2744 2837 
Q 2550 3084 2163 3084 
Q 1697 3084 1428 2787 
Q 1159 2491 1159 1978 
L 1159 0 
L 581 0 
L 581 3500 
L 1159 3500 
L 1159 2956 
Q 1366 3272 1645 3428 
Q 1925 3584 2291 3584 
Q 2894 3584 3203 3211 
Q 3513 2838 3513 2113 
z
" transform="scale(0.015625)"/>
       <path id="DejaVuSans-63" d="M 3122 3366 
L 3122 2828 
Q 2878 2963 2633 3030 
Q 2388 3097 2138 3097 
Q 1578 3097 1268 2742 
Q 959 2388 959 1747 
Q 959 1106 1268 751 
Q 1578 397 2138 397 
Q 2388 397 2633 464 
Q 2878 531 3122 666 
L 3122 134 
Q 2881 22 2623 -34 
Q 2366 -91 2075 -91 
Q 1284 -91 818 406 
Q 353 903 353 1747 
Q 353 2603 823 3093 
Q 1294 3584 2113 3584 
Q 2378 3584 2631 3529 
Q 2884 3475 3122 3366 
z
" transform="scale(0.015625)"/>
       <path id="DejaVuSans-79" d="M 2059 -325 
Q 1816 -950 1584 -1140 
Q 1353 -1331 966 -1331 
L 506 -1331 
L 506 -850 
L 844 -850 
Q 1081 -850 1212 -737 
Q 1344 -625 1503 -206 
L 1606 56 
L 191 3500 
L 800 3500 
L 1894 763 
L 2988 3500 
L 3597 3500 
L 2059 -325 
z
" transform="scale(0.015625)"/>
       <path id="DejaVuSans-20" transform="scale(0.015625)"/>
       <path id="DejaVuSans-28" d="M 1984 4856 
Q 1566 4138 1362 3434 
Q 1159 2731 1159 2009 
Q 1159 1288 1364 580 
Q 1569 -128 1984 -844 
L 1484 -844 
Q 1016 -109 783 600 
Q 550 1309 550 2009 
Q 550 2706 781 3412 
Q 1013 4119 1484 4856 
L 1984 4856 
z
" transform="scale(0.015625)"/>
       <path id="DejaVuSans-48" d="M 628 4666 
L 1259 4666 
L 1259 2753 
L 3553 2753 
L 3553 4666 
L 4184 4666 
L 4184 0 
L 3553 0 
L 3553 2222 
L 1259 2222 
L 1259 0 
L 628 0 
L 628 4666 
z
" transform="scale(0.015625)"/>
       <path id="DejaVuSans-7a" d="M 353 3500 
L 3084 3500 
L 3084 2975 
L 922 459 
L 3084 459 
L 3084 0 
L 275 0 
L 275 525 
L 2438 3041 
L 353 3041 
L 353 3500 
z
" transform="scale(0.015625)"/>
       <path id="DejaVuSans-29" d="M 513 4856 
L 1013 4856 
Q 1481 4119 1714 3412 
Q 1947 2706 1947 2009 
Q 1947 1309 1714 600 
Q 1481 -109 1013 -844 
L 513 -844 
Q 928 -128 1133 580 
Q 1338 1288 1338 2009 
Q 1338 2731 1133 3434 
Q 928 4138 513 4856 
z
" transform="scale(0.015625)"/>
      </defs>
      <use xlink:href="#DejaVuSans-46"/>
      <use xlink:href="#DejaVuSans-72" transform="translate(50.269531 0)"/>
      <use xlink:href="#DejaVuSans-65" transform="translate(89.132812 0)"/>
      <use xlink:href="#DejaVuSans-71" transform="translate(150.65625 0)"/>
      <use xlink:href="#DejaVuSans-75" transform="translate(214.132812 0)"/>
      <use xlink:href="#DejaVuSans-65" transform="translate(277.511719 0)"/>
      <use xlink:href="#DejaVuSans-6e" transform="translate(339.035156 0)"/>
      <use xlink:href="#DejaVuSans-63" transform="translate(402.414062 0)"/>
      <use xlink:href="#DejaVuSans-79" transform="translate(457.394531 0)"/>
      <use xlink:href="#DejaVuSans-20" transform="translate(516.574219 0)"/>
      <use xlink:href="#DejaVuSans-28" transform="translate(548.361328 0)"/>
      <use xlink:href="#DejaVuSans-48" transform="translate(587.375 0)"/>
      <use xlink:href="#DejaVuSans-7a" transform="translate(662.570312 0)"/>
      <use xlink:href="#DejaVuSans-29" transform="translate(715.060547 0)"/>
     </g>
    </g>
   </g>
   <g id="matplotlib.axis_2">
    <g id="ytick_1">
     <g id="line2d_39">
      <path d="M 48.982813 294.590247 
L 561.197812 294.590247 
" clip-path="url(#p0f0e5ff0b6)" style="fill: none; stroke-dasharray: 1.85,0.8; stroke-dashoffset: 0; stroke: #b0b0b0; stroke-width: 0.5"/>
     </g>
     <g id="line2d_40">
      <defs>
       <path id="m5ba2ea9857" d="M 0 0 
L -3.5 0 
" style="stroke: #000000; stroke-width: 0.8"/>
      </defs>
      <g>
       <use xlink:href="#m5ba2ea9857" x="48.982813" y="294.590247" style="stroke: #000000; stroke-width: 0.8"/>
      </g>
     </g>
     <g id="text_5">
      <!-- −20 -->
      <g transform="translate(20.878125 298.389466) scale(0.1 -0.1)">
       <defs>
        <path id="DejaVuSans-2212" d="M 678 2272 
L 4684 2272 
L 4684 1741 
L 678 1741 
L 678 2272 
z
" transform="scale(0.015625)"/>
        <path id="DejaVuSans-32" d="M 1228 531 
L 3431 531 
L 3431 0 
L 469 0 
L 469 531 
Q 828 903 1448 1529 
Q 2069 2156 2228 2338 
Q 2531 2678 2651 2914 
Q 2772 3150 2772 3378 
Q 2772 3750 2511 3984 
Q 2250 4219 1831 4219 
Q 1534 4219 1204 4116 
Q 875 4013 500 3803 
L 500 4441 
Q 881 4594 1212 4672 
Q 1544 4750 1819 4750 
Q 2544 4750 2975 4387 
Q 3406 4025 3406 3419 
Q 3406 3131 3298 2873 
Q 3191 2616 2906 2266 
Q 2828 2175 2409 1742 
Q 1991 1309 1228 531 
z
" transform="scale(0.015625)"/>
       </defs>
       <use xlink:href="#DejaVuSans-2212"/>
       <use xlink:href="#DejaVuSans-32" transform="translate(83.789062 0)"/>
       <use xlink:href="#DejaVuSans-30" transform="translate(147.412109 0)"/>
      </g>
     </g>
    </g>
    <g id="ytick_2">
     <g id="line2d_41">
      <path d="M 48.982813 255.694229 
L 561.197812 255.694229 
" clip-path="url(#p0f0e5ff0b6)" style="fill: none; stroke-dasharray: 1.85,0.8; stroke-dashoffset: 0; stroke: #b0b0b0; stroke-width: 0.5"/>
     </g>
     <g id="line2d_42">
      <g>
       <use xlink:href="#m5ba2ea9857" x="48.982813" y="255.694229" style="stroke: #000000; stroke-width: 0.8"/>
      </g>
     </g>
     <g id="text_6">
      <!-- −10 -->
      <g transform="translate(20.878125 259.493448) scale(0.1 -0.1)">
       <use xlink:href="#DejaVuSans-2212"/>
       <use xlink:href="#DejaVuSans-31" transform="translate(83.789062 0)"/>
       <use xlink:href="#DejaVuSans-30" transform="translate(147.412109 0)"/>
      </g>
     </g>
    </g>
    <g id="ytick_3">
     <g id="line2d_43">
      <path d="M 48.982813 216.798212 
L 561.197812 216.798212 
" clip-path="url(#p0f0e5ff0b6)" style="fill: none; stroke-dasharray: 1.85,0.8; stroke-dashoffset: 0; stroke: #b0b0b0; stroke-width: 0.5"/>
     </g>
     <g id="line2d_44">
      <g>
       <use xlink:href="#m5ba2ea9857" x="48.982813" y="216.798212" style="stroke: #000000; stroke-width: 0.8"/>
      </g>
     </g>
     <g id="text_7">
      <!-- 0 -->
      <g transform="translate(35.620313 220.597431) scale(0.1 -0.1)">
       <use xlink:href="#DejaVuSans-30"/>
      </g>
     </g>
    </g>
    <g id="ytick_4">
     <g id="line2d_45">
      <path d="M 48.982813 177.902195 
L 561.197812 177.902195 
" clip-path="url(#p0f0e5ff0b6)" style="fill: none; stroke-dasharray: 1.85,0.8; stroke-dashoffset: 0; stroke: #b0b0b0; stroke-width: 0.5"/>
     </g>
     <g id="line2d_46">
      <g>
       <use xlink:href="#m5ba2ea9857" x="48.982813" y="177.902195" style="stroke: #000000; stroke-width: 0.8"/>
      </g>
     </g>
     <g id="text_8">
      <!-- 10 -->
      <g transform="translate(29.257813 181.701413) scale(0.1 -0.1)">
       <use xlink:href="#DejaVuSans-31"/>
       <use xlink:href="#DejaVuSans-30" transform="translate(63.623047 0)"/>
      </g>
     </g>
    </g>
    <g id="ytick_5">
     <g id="line2d_47">
      <path d="M 48.982813 139.006177 
L 561.197812 139.006177 
" clip-path="url(#p0f0e5ff0b6)" style="fill: none; stroke-dasharray: 1.85,0.8; stroke-dashoffset: 0; stroke: #b0b0b0; stroke-width: 0.5"/>
     </g>
     <g id="line2d_48">
      <g>
       <use xlink:href="#m5ba2ea9857" x="48.982813" y="139.006177" style="stroke: #000000; stroke-width: 0.8"/>
      </g>
     </g>
     <g id="text_9">
      <!-- 20 -->
      <g transform="translate(29.257813 142.805396) scale(0.1 -0.1)">
       <use xlink:href="#DejaVuSans-32"/>
       <use xlink:href="#DejaVuSans-30" transform="translate(63.623047 0)"/>
      </g>
     </g>
    </g>
    <g id="ytick_6">
     <g id="line2d_49">
      <path d="M 48.982813 100.11016 
L 561.197812 100.11016 
" clip-path="url(#p0f0e5ff0b6)" style="fill: none; stroke-dasharray: 1.85,0.8; stroke-dashoffset: 0; stroke: #b0b0b0; stroke-width: 0.5"/>
     </g>
     <g id="line2d_50">
      <g>
       <use xlink:href="#m5ba2ea9857" x="48.982813" y="100.11016" style="stroke: #000000; stroke-width: 0.8"/>
      </g>
     </g>
     <g id="text_10">
      <!-- 30 -->
      <g transform="translate(29.257813 103.909379) scale(0.1 -0.1)">
       <defs>
        <path id="DejaVuSans-33" d="M 2597 2516 
Q 3050 2419 3304 2112 
Q 3559 1806 3559 1356 
Q 3559 666 3084 287 
Q 2609 -91 1734 -91 
Q 1441 -91 1130 -33 
Q 819 25 488 141 
L 488 750 
Q 750 597 1062 519 
Q 1375 441 1716 441 
Q 2309 441 2620 675 
Q 2931 909 2931 1356 
Q 2931 1769 2642 2001 
Q 2353 2234 1838 2234 
L 1294 2234 
L 1294 2753 
L 1863 2753 
Q 2328 2753 2575 2939 
Q 2822 3125 2822 3475 
Q 2822 3834 2567 4026 
Q 2313 4219 1838 4219 
Q 1578 4219 1281 4162 
Q 984 4106 628 3988 
L 628 4550 
Q 988 4650 1302 4700 
Q 1616 4750 1894 4750 
Q 2613 4750 3031 4423 
Q 3450 4097 3450 3541 
Q 3450 3153 3228 2886 
Q 3006 2619 2597 2516 
z
" transform="scale(0.015625)"/>
       </defs>
       <use xlink:href="#DejaVuSans-33"/>
       <use xlink:href="#DejaVuSans-30" transform="translate(63.623047 0)"/>
      </g>
     </g>
    </g>
    <g id="ytick_7">
     <g id="line2d_51">
      <path d="M 48.982813 61.214142 
L 561.197812 61.214142 
" clip-path="url(#p0f0e5ff0b6)" style="fill: none; stroke-dasharray: 1.85,0.8; stroke-dashoffset: 0; stroke: #b0b0b0; stroke-width: 0.5"/>
     </g>
     <g id="line2d_52">
      <g>
       <use xlink:href="#m5ba2ea9857" x="48.982813" y="61.214142" style="stroke: #000000; stroke-width: 0.8"/>
      </g>
     </g>
     <g id="text_11">
      <!-- 40 -->
      <g transform="translate(29.257813 65.013361) scale(0.1 -0.1)">
       <defs>
        <path id="DejaVuSans-34" d="M 2419 4116 
L 825 1625 
L 2419 1625 
L 2419 4116 
z
M 2253 4666 
L 3047 4666 
L 3047 1625 
L 3713 1625 
L 3713 1100 
L 3047 1100 
L 3047 0 
L 2419 0 
L 2419 1100 
L 313 1100 
L 313 1709 
L 2253 4666 
z
" transform="scale(0.015625)"/>
       </defs>
       <use xlink:href="#DejaVuSans-34"/>
       <use xlink:href="#DejaVuSans-30" transform="translate(63.623047 0)"/>
      </g>
     </g>
    </g>
    <g id="ytick_8">
     <g id="line2d_53">
      <path d="M 48.982813 22.318125 
L 561.197812 22.318125 
" clip-path="url(#p0f0e5ff0b6)" style="fill: none; stroke-dasharray: 1.85,0.8; stroke-dashoffset: 0; stroke: #b0b0b0; stroke-width: 0.5"/>
     </g>
     <g id="line2d_54">
      <g>
       <use xlink:href="#m5ba2ea9857" x="48.982813" y="22.318125" style="stroke: #000000; stroke-width: 0.8"/>
      </g>
     </g>
     <g id="text_12">
      <!-- 50 -->
      <g transform="translate(29.257813 26.117344) scale(0.1 -0.1)">
       <defs>
        <path id="DejaVuSans-35" d="M 691 4666 
L 3169 4666 
L 3169 4134 
L 1269 4134 
L 1269 2991 
Q 1406 3038 1543 3061 
Q 1681 3084 1819 3084 
Q 2600 3084 3056 2656 
Q 3513 2228 3513 1497 
Q 3513 744 3044 326 
Q 2575 -91 1722 -91 
Q 1428 -91 1123 -41 
Q 819 9 494 109 
L 494 744 
Q 775 591 1075 516 
Q 1375 441 1709 441 
Q 2250 441 2565 725 
Q 2881 1009 2881 1497 
Q 2881 1984 2565 2268 
Q 2250 2553 1709 2553 
Q 1456 2553 1204 2497 
Q 953 2441 691 2322 
L 691 4666 
z
" transform="scale(0.015625)"/>
       </defs>
       <use xlink:href="#DejaVuSans-35"/>
       <use xlink:href="#DejaVuSans-30" transform="translate(63.623047 0)"/>
      </g>
     </g>
    </g>
    <g id="text_13">
     <!-- SPL (dBA) -->
     <g transform="translate(14.798438 182.944811) rotate(-90) scale(0.1 -0.1)">
      <defs>
       <path id="DejaVuSans-53" d="M 3425 4513 
L 3425 3897 
Q 3066 4069 2747 4153 
Q 2428 4238 2131 4238 
Q 1616 4238 1336 4038 
Q 1056 3838 1056 3469 
Q 1056 3159 1242 3001 
Q 1428 2844 1947 2747 
L 2328 2669 
Q 3034 2534 3370 2195 
Q 3706 1856 3706 1288 
Q 3706 609 3251 259 
Q 2797 -91 1919 -91 
Q 1588 -91 1214 -16 
Q 841 59 441 206 
L 441 856 
Q 825 641 1194 531 
Q 1563 422 1919 422 
Q 2459 422 2753 634 
Q 3047 847 3047 1241 
Q 3047 1584 2836 1778 
Q 2625 1972 2144 2069 
L 1759 2144 
Q 1053 2284 737 2584 
Q 422 2884 422 3419 
Q 422 4038 858 4394 
Q 1294 4750 2059 4750 
Q 2388 4750 2728 4690 
Q 3069 4631 3425 4513 
z
" transform="scale(0.015625)"/>
       <path id="DejaVuSans-50" d="M 1259 4147 
L 1259 2394 
L 2053 2394 
Q 2494 2394 2734 2622 
Q 2975 2850 2975 3272 
Q 2975 3691 2734 3919 
Q 2494 4147 2053 4147 
L 1259 4147 
z
M 628 4666 
L 2053 4666 
Q 2838 4666 3239 4311 
Q 3641 3956 3641 3272 
Q 3641 2581 3239 2228 
Q 2838 1875 2053 1875 
L 1259 1875 
L 1259 0 
L 628 0 
L 628 4666 
z
" transform="scale(0.015625)"/>
       <path id="DejaVuSans-4c" d="M 628 4666 
L 1259 4666 
L 1259 531 
L 3531 531 
L 3531 0 
L 628 0 
L 628 4666 
z
" transform="scale(0.015625)"/>
       <path id="DejaVuSans-64" d="M 2906 2969 
L 2906 4863 
L 3481 4863 
L 3481 0 
L 2906 0 
L 2906 525 
Q 2725 213 2448 61 
Q 2172 -91 1784 -91 
Q 1150 -91 751 415 
Q 353 922 353 1747 
Q 353 2572 751 3078 
Q 1150 3584 1784 3584 
Q 2172 3584 2448 3432 
Q 2725 3281 2906 2969 
z
M 947 1747 
Q 947 1113 1208 752 
Q 1469 391 1925 391 
Q 2381 391 2643 752 
Q 2906 1113 2906 1747 
Q 2906 2381 2643 2742 
Q 2381 3103 1925 3103 
Q 1469 3103 1208 2742 
Q 947 2381 947 1747 
z
" transform="scale(0.015625)"/>
       <path id="DejaVuSans-42" d="M 1259 2228 
L 1259 519 
L 2272 519 
Q 2781 519 3026 730 
Q 3272 941 3272 1375 
Q 3272 1813 3026 2020 
Q 2781 2228 2272 2228 
L 1259 2228 
z
M 1259 4147 
L 1259 2741 
L 2194 2741 
Q 2656 2741 2882 2914 
Q 3109 3088 3109 3444 
Q 3109 3797 2882 3972 
Q 2656 4147 2194 4147 
L 1259 4147 
z
M 628 4666 
L 2241 4666 
Q 2963 4666 3353 4366 
Q 3744 4066 3744 3513 
Q 3744 3084 3544 2831 
Q 3344 2578 2956 2516 
Q 3422 2416 3680 2098 
Q 3938 1781 3938 1306 
Q 3938 681 3513 340 
Q 3088 0 2303 0 
L 628 0 
L 628 4666 
z
" transform="scale(0.015625)"/>
       <path id="DejaVuSans-41" d="M 2188 4044 
L 1331 1722 
L 3047 1722 
L 2188 4044 
z
M 1831 4666 
L 2547 4666 
L 4325 0 
L 3669 0 
L 3244 1197 
L 1141 1197 
L 716 0 
L 50 0 
L 1831 4666 
z
" transform="scale(0.015625)"/>
      </defs>
      <use xlink:href="#DejaVuSans-53"/>
      <use xlink:href="#DejaVuSans-50" transform="translate(63.476562 0)"/>
      <use xlink:href="#DejaVuSans-4c" transform="translate(123.779297 0)"/>
      <use xlink:href="#DejaVuSans-20" transform="translate(179.492188 0)"/>
      <use xlink:href="#DejaVuSans-28" transform="translate(211.279297 0)"/>
      <use xlink:href="#DejaVuSans-64" transform="translate(250.292969 0)"/>
      <use xlink:href="#DejaVuSans-42" transform="translate(313.769531 0)"/>
      <use xlink:href="#DejaVuSans-41" transform="translate(382.373047 0)"/>
      <use xlink:href="#DejaVuSans-29" transform="translate(450.78125 0)"/>
     </g>
    </g>
   </g>
   <g id="line2d_55">
    <path d="M 51.493242 100.398961 
L 57.198394 126.541241 
L 62.625131 136.700621 
L 67.79937 138.3661 
L 72.743565 156.687162 
L 77.477304 157.288358 
L 82.017775 145.833065 
L 86.38014 149.003673 
L 90.577849 160.081767 
L 94.622879 165.440397 
L 98.525949 176.327539 
L 102.296685 175.402953 
L 105.943768 170.034442 
L 109.475052 167.344174 
L 112.897663 163.72979 
L 116.218091 156.060738 
L 119.44226 147.168456 
L 122.575596 156.607326 
L 125.623077 140.53586 
L 128.589281 135.103497 
L 131.478432 145.097303 
L 134.294433 145.616735 
L 137.040895 141.45558 
L 139.721171 126.940981 
L 142.338376 128.432391 
L 144.89541 147.303125 
L 147.394977 151.890514 
L 149.839605 158.503331 
L 152.231656 160.553083 
L 154.573344 159.443133 
L 156.866746 167.056606 
L 159.113814 175.237691 
L 161.316383 169.559964 
L 163.47618 161.615362 
L 165.594836 159.986224 
L 167.673888 172.295262 
L 169.714791 181.028483 
L 171.718919 179.079582 
L 173.687573 174.883003 
L 175.621988 161.86083 
L 177.523335 156.807126 
L 179.392725 161.663671 
L 181.231214 160.901241 
L 183.039808 165.54933 
L 184.819463 157.19237 
L 186.571091 151.202199 
L 189.993702 165.5189 
L 191.666306 155.222042 
L 193.31413 154.144792 
L 194.937897 151.554028 
L 196.5383 150.461324 
L 198.116001 153.794246 
L 199.671636 153.458209 
L 201.205813 147.931537 
L 202.719116 140.883585 
L 204.212106 133.295801 
L 205.685321 127.667237 
L 207.139277 138.81183 
L 208.574472 152.89105 
L 209.991384 153.093885 
L 212.77218 144.163853 
L 214.136935 150.414184 
L 215.485146 150.555128 
L 216.817211 148.56095 
L 218.133511 144.913736 
L 219.434416 147.71171 
L 220.720281 149.365911 
L 221.99145 150.19944 
L 223.248255 158.124861 
L 224.491017 163.003882 
L 225.720047 158.019201 
L 226.935645 153.929085 
L 228.1381 148.619224 
L 229.327695 140.629495 
L 230.504702 139.399257 
L 231.669383 136.269023 
L 232.821996 134.514508 
L 233.962786 147.221405 
L 235.091994 155.060602 
L 236.209854 158.168913 
L 237.31659 151.786858 
L 238.412422 148.577419 
L 239.497563 149.092644 
L 240.572219 147.898002 
L 241.636592 150.065838 
L 242.690875 151.653642 
L 243.735259 146.784938 
L 244.769928 146.805438 
L 245.79506 147.079754 
L 246.810831 141.370593 
L 247.817408 137.959934 
L 248.814958 142.530346 
L 249.803641 140.42822 
L 250.783613 141.319055 
L 251.755026 146.217657 
L 252.718028 161.724578 
L 253.672764 162.571444 
L 254.619375 158.533651 
L 255.557997 160.969843 
L 256.488765 164.08856 
L 257.411808 170.302936 
L 258.327254 169.403488 
L 259.235227 170.039687 
L 260.135848 168.249409 
L 261.029235 160.963941 
L 261.915503 161.429487 
L 262.794765 170.119468 
L 263.667131 174.944182 
L 264.532708 173.856163 
L 265.391601 176.593078 
L 266.243912 175.450259 
L 267.089742 176.131967 
L 267.929188 180.01501 
L 268.762346 186.007139 
L 269.589309 183.301349 
L 270.41017 181.014057 
L 271.225016 179.448895 
L 272.033937 172.386033 
L 272.837017 172.228968 
L 273.634339 176.473127 
L 274.425987 181.675049 
L 275.212041 180.453968 
L 275.992578 178.605148 
L 276.767675 178.731436 
L 277.537409 182.7479 
L 279.061078 178.366206 
L 279.815156 176.25527 
L 280.564156 173.182771 
L 281.308146 168.329584 
L 282.047192 154.633583 
L 282.78136 170.748785 
L 283.510714 183.621593 
L 284.235317 182.791256 
L 284.955229 181.112232 
L 285.670512 180.318275 
L 286.381224 176.829157 
L 287.087423 175.016407 
L 287.789168 179.28124 
L 288.486512 181.395115 
L 289.179512 181.248892 
L 289.86822 184.421302 
L 291.232974 186.963542 
L 291.909123 185.570883 
L 292.581186 181.388614 
L 293.249212 175.069817 
L 293.91325 171.542464 
L 295.881905 190.215178 
L 296.530455 192.750497 
L 297.175246 189.655736 
L 297.81632 183.4123 
L 298.453721 182.719483 
L 299.087489 180.787123 
L 299.717667 187.464161 
L 300.344294 189.038105 
L 300.967411 183.482939 
L 301.587057 181.573939 
L 302.816087 173.203968 
L 303.425546 175.105323 
L 304.031684 180.386894 
L 304.634537 167.723748 
L 305.23414 160.060351 
L 305.830528 188.972809 
L 306.423735 184.838013 
L 307.013795 170.895213 
L 307.600741 189.05688 
L 308.184607 194.504234 
L 308.765423 191.650522 
L 309.343222 191.244449 
L 309.918035 188.864295 
L 310.489893 182.29295 
L 311.058825 180.549971 
L 311.624863 177.248926 
L 312.188034 167.507121 
L 312.748368 161.109352 
L 313.305893 157.87245 
L 313.860638 162.529146 
L 314.412629 170.365476 
L 314.961895 172.191554 
L 315.508462 171.220695 
L 316.052356 174.089749 
L 317.132229 190.919459 
L 317.668259 193.94284 
L 318.201719 191.492003 
L 319.786915 196.388907 
L 320.310333 195.464751 
L 320.831299 195.149617 
L 321.349836 195.164998 
L 321.865968 191.615255 
L 322.379715 194.646459 
L 322.8911 184.782637 
L 323.400145 188.431813 
L 324.411298 177.169439 
L 324.913448 183.887972 
L 325.413341 192.178569 
L 325.910998 197.041001 
L 326.406438 193.919536 
L 326.899681 179.024565 
L 327.390746 176.235634 
L 327.879652 197.431778 
L 328.366419 194.277184 
L 328.851065 186.133783 
L 329.333609 194.023891 
L 329.814068 188.083783 
L 330.29246 191.042721 
L 330.768804 192.819493 
L 331.243116 191.360979 
L 331.715414 185.3579 
L 332.185716 181.510009 
L 332.654037 182.062245 
L 333.584804 188.987348 
L 334.047283 188.829385 
L 334.507847 186.181895 
L 334.966512 184.628943 
L 335.423294 182.61328 
L 335.878206 183.800395 
L 336.331266 180.344195 
L 336.782489 183.790206 
L 337.231887 184.361922 
L 337.679478 185.570879 
L 338.569291 184.04506 
L 339.011543 191.894531 
L 339.452042 193.450294 
L 339.890805 198.027423 
L 340.327843 198.161617 
L 340.76317 200.50374 
L 341.196801 198.621127 
L 341.628747 194.024099 
L 342.059023 196.966807 
L 342.48764 195.118088 
L 342.914612 196.436202 
L 343.339952 191.821426 
L 343.76367 189.246729 
L 344.185781 183.854181 
L 344.606296 181.326596 
L 345.025227 183.91309 
L 345.442586 181.081629 
L 345.858385 190.035334 
L 346.272636 192.511111 
L 346.685349 193.469113 
L 347.096536 193.916999 
L 347.506209 191.741998 
L 347.914379 194.474071 
L 348.321056 195.802699 
L 348.726251 198.511395 
L 349.129976 198.502377 
L 349.532241 200.953222 
L 349.933056 200.623464 
L 350.332432 197.469041 
L 350.730379 203.444853 
L 351.126907 202.710037 
L 351.522027 198.563983 
L 351.915748 197.50715 
L 352.30808 196.057561 
L 352.699034 195.951687 
L 353.088617 193.094898 
L 353.476841 193.47742 
L 353.863715 190.566174 
L 354.249248 194.459929 
L 354.633449 192.610181 
L 355.778153 182.799203 
L 356.157118 182.224873 
L 356.534795 184.935032 
L 357.286326 194.335382 
L 357.660195 200.641685 
L 358.032812 201.420921 
L 358.404185 200.547848 
L 358.774322 198.516711 
L 359.143232 177.409464 
L 359.510922 184.633328 
L 359.8774 187.138052 
L 360.242675 184.266121 
L 360.606754 186.110519 
L 360.969645 187.343693 
L 361.331356 187.07556 
L 361.691895 183.037713 
L 362.051269 183.421035 
L 362.409485 184.062081 
L 362.766551 189.887777 
L 363.122475 193.091474 
L 363.477263 193.175241 
L 363.830924 197.677445 
L 364.183463 199.660108 
L 364.534889 199.140828 
L 364.885207 199.215567 
L 365.234426 200.970356 
L 365.582552 201.906469 
L 365.929591 203.762105 
L 366.275551 202.84886 
L 367.307021 194.58758 
L 367.989392 196.868451 
L 368.329014 198.533811 
L 368.667602 202.014757 
L 369.005162 201.878304 
L 369.341702 198.158579 
L 369.677225 200.163389 
L 370.01174 200.421087 
L 370.345252 199.653902 
L 370.677766 201.682266 
L 371.00929 202.562326 
L 371.339828 200.701352 
L 371.669387 201.160438 
L 372.32559 196.317411 
L 372.652246 196.409259 
L 372.977945 198.935528 
L 373.302692 198.53647 
L 373.626495 197.099316 
L 373.949357 198.869415 
L 374.271286 197.731929 
L 374.592285 195.317275 
L 374.91236 194.942443 
L 375.231517 196.580754 
L 375.54976 196.687047 
L 375.867096 196.989223 
L 376.183529 195.089249 
L 376.499064 194.881352 
L 377.127461 196.429577 
L 377.440334 199.608115 
L 378.063451 201.574084 
L 378.373705 198.287087 
L 378.683096 193.67902 
L 378.991629 193.354781 
L 379.299309 193.837277 
L 379.60614 194.056153 
L 379.912126 196.042061 
L 380.217273 195.123422 
L 380.521586 195.679361 
L 380.825068 195.512001 
L 381.127724 196.986502 
L 381.730577 204.26082 
L 382.33018 190.225331 
L 382.628773 187.922353 
L 382.926567 186.822678 
L 383.223566 188.112409 
L 383.519775 188.448853 
L 383.815196 170.508573 
L 384.109835 164.774904 
L 384.403695 187.535828 
L 384.696781 192.609076 
L 384.989097 190.226466 
L 385.280646 190.182746 
L 385.571434 190.418621 
L 385.861463 191.363232 
L 386.439262 194.090295 
L 386.72704 195.049939 
L 387.014075 195.174335 
L 387.300371 193.692581 
L 387.585932 189.958137 
L 387.870762 187.98711 
L 388.154865 189.700769 
L 388.720902 190.634984 
L 389.002844 192.075575 
L 389.564593 192.849005 
L 389.844407 191.435601 
L 390.123519 191.65723 
L 390.401933 193.494937 
L 390.679651 198.027299 
L 390.956677 200.249153 
L 391.233016 199.727247 
L 391.508669 202.036287 
L 391.783641 201.720444 
L 392.057935 204.509599 
L 392.331554 205.708885 
L 392.604501 209.698371 
L 392.876781 209.559326 
L 393.148395 206.938039 
L 393.419348 202.983836 
L 393.689642 201.075846 
L 393.959281 198.293929 
L 394.228268 197.899074 
L 394.496606 199.083426 
L 394.764299 198.975841 
L 395.031348 200.721963 
L 395.297758 203.479249 
L 395.563531 204.315776 
L 395.828671 205.5756 
L 396.09318 206.283676 
L 396.357062 209.290317 
L 396.620319 209.808926 
L 396.882955 209.688152 
L 397.144971 211.212942 
L 397.667161 207.184344 
L 397.927339 206.936191 
L 398.18691 212.731739 
L 398.445876 214.441893 
L 398.704241 210.712916 
L 398.962007 213.898143 
L 399.219177 215.27629 
L 399.475754 217.347829 
L 399.731741 217.408511 
L 399.98714 210.895311 
L 400.241953 209.199185 
L 400.749836 199.172948 
L 401.00291 199.481768 
L 401.758696 203.831783 
L 402.009488 205.367424 
L 402.509381 201.386922 
L 402.758488 205.744434 
L 403.007038 212.292154 
L 403.255033 215.715297 
L 403.502477 214.476977 
L 403.749372 216.432579 
L 403.99572 208.778563 
L 404.241524 182.157389 
L 404.731507 213.51012 
L 404.975692 213.33069 
L 405.462459 205.227175 
L 405.705046 204.014247 
L 405.947105 205.454073 
L 406.188638 204.980903 
L 406.429648 206.730013 
L 406.670137 206.422112 
L 406.910107 203.824188 
L 407.149561 202.623779 
L 407.3885 203.696459 
L 407.626927 203.911362 
L 408.102252 213.430563 
L 408.339156 215.252317 
L 408.575556 214.833516 
L 408.811454 215.161242 
L 409.046853 216.16181 
L 409.516162 214.591724 
L 409.750076 209.55579 
L 409.983499 207.675725 
L 410.216434 207.459626 
L 410.680844 213.398254 
L 410.912324 214.105962 
L 411.373843 213.400642 
L 411.603887 214.076578 
L 411.833456 215.290897 
L 412.062552 217.943945 
L 412.291177 217.509827 
L 412.519333 214.360817 
L 412.747022 215.825523 
L 412.974246 215.462305 
L 413.201007 210.197037 
L 413.653146 221.969779 
L 413.878528 220.03046 
L 414.103455 216.506434 
L 414.327927 217.295542 
L 414.551947 216.206425 
L 414.998639 218.075961 
L 415.221314 220.031116 
L 415.443544 220.066166 
L 415.665331 218.09019 
L 415.886676 217.636655 
L 416.107582 213.662691 
L 416.32805 213.310456 
L 416.548082 213.765635 
L 416.76768 215.985999 
L 417.205578 214.272029 
L 417.423882 210.998984 
L 417.641759 211.005183 
L 417.85921 212.593681 
L 418.076237 218.796544 
L 418.292841 220.055507 
L 418.509023 219.420037 
L 419.369578 214.823976 
L 419.58368 216.420028 
L 419.797371 221.410586 
L 420.010652 221.493863 
L 420.223525 217.098668 
L 420.435991 215.255164 
L 420.648052 214.883446 
L 421.070966 220.56852 
L 421.492277 212.975873 
L 421.702336 215.942229 
L 421.911999 210.877 
L 422.121267 212.27645 
L 422.538626 219.800736 
L 422.74672 220.262159 
L 422.954425 220.227738 
L 423.575223 212.212615 
L 423.781388 214.374535 
L 423.987172 217.945025 
L 424.192576 217.732987 
L 424.397601 219.747871 
L 424.602249 219.425886 
L 424.806521 216.460636 
L 425.010418 216.148297 
L 425.213943 219.069948 
L 425.417095 219.96344 
L 425.619878 220.17701 
L 425.822291 219.355629 
L 426.024337 217.210162 
L 426.226016 219.19636 
L 426.42733 218.655025 
L 426.628281 222.255207 
L 426.828869 218.63749 
L 427.029096 218.83866 
L 427.228963 220.260319 
L 427.428472 220.600488 
L 427.627623 219.95941 
L 428.420682 226.082759 
L 428.618067 224.831555 
L 429.011788 219.109556 
L 429.208127 219.480844 
L 429.40412 220.977628 
L 429.599768 220.027978 
L 429.990036 228.222966 
L 430.184657 225.129031 
L 430.378938 225.914787 
L 430.572881 223.410052 
L 430.766486 222.751354 
L 430.959755 220.714298 
L 431.345287 225.178265 
L 431.537554 223.315423 
L 431.729488 224.101517 
L 431.921092 226.210797 
L 432.303313 217.358684 
L 432.684225 224.369786 
L 432.874192 223.330561 
L 433.063836 223.081345 
L 433.253157 222.145441 
L 433.442156 218.484153 
L 433.630835 220.244981 
L 433.819194 225.580468 
L 434.007235 224.552522 
L 434.194958 225.016738 
L 434.382366 223.276605 
L 434.569457 223.812627 
L 434.756235 221.35016 
L 434.9427 221.58271 
L 435.314693 226.698838 
L 435.500225 228.322819 
L 436.05497 217.642735 
L 436.239271 219.386762 
L 436.423268 223.642088 
L 436.606961 222.929638 
L 436.790351 223.87102 
L 437.156227 217.404916 
L 437.520903 216.466377 
L 437.702793 216.148635 
L 437.884387 216.25379 
L 438.065685 216.87704 
L 438.246687 215.583198 
L 438.427396 212.725849 
L 438.607811 212.743526 
L 438.967766 220.08382 
L 439.147308 218.139107 
L 439.326561 217.516569 
L 439.505525 216.301143 
L 439.684201 214.307683 
L 439.862591 215.362312 
L 440.218515 218.147942 
L 440.39605 217.855261 
L 440.573303 215.523288 
L 440.750274 215.027613 
L 440.926963 215.079975 
L 441.103373 217.106627 
L 441.279503 220.594901 
L 441.630928 217.52648 
L 441.806225 220.65696 
L 441.981247 220.058943 
L 442.155993 216.989168 
L 442.504665 221.643515 
L 442.678591 219.953558 
L 442.852246 219.800864 
L 443.025631 219.299507 
L 443.544168 225.092149 
L 443.716478 224.58426 
L 444.060299 225.429298 
L 444.403061 221.830868 
L 444.74477 224.472911 
L 444.915231 222.61992 
L 445.085432 224.242106 
L 445.255372 227.412385 
L 445.425054 225.605041 
L 445.594476 226.218503 
L 445.763642 224.43363 
L 445.93255 226.126252 
L 446.101202 223.20592 
L 446.437741 225.077461 
L 446.773265 223.32412 
L 446.940648 221.570456 
L 447.10778 222.686831 
L 447.441291 225.295559 
L 447.607673 226.100933 
L 447.773806 226.158986 
L 447.939691 228.305456 
L 448.10533 227.644302 
L 448.270722 225.534333 
L 448.435868 226.183118 
L 448.765427 229.906165 
L 448.929841 228.50367 
L 449.257942 224.27569 
L 449.42163 223.194248 
L 449.585078 223.974035 
L 449.911254 231.195974 
L 450.073984 231.391329 
L 450.236477 230.625784 
L 450.560751 222.718569 
L 450.722535 223.654189 
L 451.045397 231.379559 
L 451.367325 227.466407 
L 451.52794 222.13677 
L 451.688324 221.871595 
L 451.848477 222.835295 
L 452.008399 222.088826 
L 452.327556 228.051859 
L 452.804581 218.33365 
L 453.121464 226.543902 
L 453.279568 227.312437 
L 453.437448 228.833467 
L 453.752536 220.894052 
L 454.223501 230.83294 
L 454.380047 231.249882 
L 454.536374 229.341991 
L 454.848368 223.746452 
L 455.004038 225.008556 
L 455.314726 230.528421 
L 455.469745 232.860254 
L 455.779136 223.76783 
L 455.933509 223.202182 
L 456.241615 229.811923 
L 456.395348 230.165702 
L 456.54887 229.999787 
L 456.702179 228.069368 
L 456.855278 223.675528 
L 457.008166 226.335941 
L 457.160844 231.073702 
L 457.313313 229.054559 
L 457.465573 232.50925 
L 457.617625 232.212495 
L 457.921107 225.075745 
L 458.223763 232.067179 
L 458.374783 232.40431 
L 458.525598 233.486273 
L 458.676209 233.558317 
L 458.97682 230.850592 
L 459.276621 236.258001 
L 459.575616 231.439448 
L 459.724813 229.92317 
L 460.022607 233.236102 
L 460.171206 231.715654 
L 460.319606 234.905615 
L 460.467809 231.754007 
L 460.615814 232.232806 
L 460.763623 235.767163 
L 461.058652 233.201749 
L 461.205874 233.858305 
L 461.499735 230.623919 
L 461.646374 235.463492 
L 461.792821 233.406267 
L 461.939075 233.821012 
L 462.231007 236.680751 
L 462.376686 231.238349 
L 462.522175 231.921505 
L 462.667473 237.43751 
L 462.812582 237.320118 
L 462.957502 235.660156 
L 463.246777 227.473712 
L 463.535301 235.449025 
L 463.679283 235.26878 
L 463.966689 234.609946 
L 464.110114 233.971825 
L 464.253355 230.705254 
L 464.681972 233.613166 
L 464.824478 233.675245 
L 465.108944 228.077718 
L 465.250905 229.362287 
L 465.392684 228.959172 
L 465.534283 230.346354 
L 465.675702 233.028581 
L 465.816942 233.292521 
L 465.958002 231.233491 
L 466.098884 226.083705 
L 466.239587 225.909737 
L 466.380113 230.503213 
L 466.520461 228.57057 
L 466.660633 233.40922 
L 466.800628 232.541617 
L 467.080091 225.186373 
L 467.219559 225.233672 
L 467.497972 232.190791 
L 467.636918 230.96524 
L 468.052717 226.061385 
L 468.329055 228.862491 
L 468.466967 231.832338 
L 468.74228 226.399339 
L 469.016912 223.824601 
L 469.427593 231.47615 
L 469.564151 231.008784 
L 469.700541 226.885405 
L 469.836764 226.882484 
L 469.97282 226.603387 
L 470.244435 232.614483 
L 470.379994 231.133162 
L 470.785682 223.745987 
L 471.055321 230.996987 
L 471.189896 230.890959 
L 471.324308 231.734609 
L 471.592646 226.374597 
L 471.726573 225.06825 
L 471.993943 230.347032 
L 472.127388 230.646514 
L 472.260673 232.463782 
L 472.526764 229.732556 
L 472.659571 228.232102 
L 472.79222 228.928764 
L 472.924711 232.037832 
L 473.057044 231.737128 
L 473.321239 229.714198 
L 473.453102 230.271534 
L 473.584808 229.275295 
L 473.847754 236.749242 
L 474.241011 231.698086 
L 474.371788 231.372254 
L 474.502412 229.040233 
L 475.023378 232.256924 
L 475.153239 229.651361 
L 475.282949 230.735786 
L 475.541916 235.400509 
L 475.929238 230.056754 
L 476.058047 228.809929 
L 476.186706 225.947888 
L 476.315217 229.488961 
L 476.44358 227.671396 
L 476.571794 223.468809 
L 476.699861 223.095831 
L 476.955553 230.254852 
L 477.083179 230.231545 
L 477.210659 234.040636 
L 477.337993 230.831827 
L 477.592224 233.850458 
L 477.845875 232.527818 
L 477.972484 234.205551 
L 478.09895 233.589632 
L 478.225271 228.212028 
L 478.351449 230.85614 
L 478.477484 230.64402 
L 478.729127 232.68194 
L 478.854735 232.705152 
L 478.980202 233.031414 
L 479.230711 231.521448 
L 479.480658 233.475198 
L 479.605421 233.310424 
L 479.730044 233.661002 
L 479.978872 229.727794 
L 480.103077 230.72702 
L 480.351073 237.438949 
L 480.474864 238.014146 
L 480.722033 231.382283 
L 480.845412 230.692634 
L 480.968654 234.857164 
L 481.21473 233.409401 
L 481.337563 228.106767 
L 481.460262 228.319747 
L 481.582825 230.149626 
L 481.705253 230.310255 
L 481.949706 233.701981 
L 482.193623 236.25409 
L 482.315381 235.381625 
L 482.558499 229.310568 
L 482.922181 236.31065 
L 483.043145 236.08989 
L 483.284678 232.169683 
L 483.405248 231.798412 
L 483.525688 230.910057 
L 483.766177 236.32718 
L 484.006147 233.152664 
L 484.2456 230.664579 
L 484.484539 235.956834 
L 484.722966 237.454703 
L 484.960883 231.15777 
L 485.198292 235.700523 
L 485.553458 230.133042 
L 485.671595 230.473227 
L 485.789607 224.604427 
L 485.907494 207.180017 
L 486.142893 236.004399 
L 486.377795 232.106697 
L 486.49506 232.036604 
L 486.612202 232.637747 
L 486.72922 233.840356 
L 486.962889 237.697478 
L 487.196067 233.249616 
L 487.544921 231.916813 
L 487.660962 234.643866 
L 487.776883 234.51293 
L 487.892684 234.951594 
L 488.008363 229.73243 
L 488.123923 230.898517 
L 488.354682 234.550138 
L 488.469883 235.260645 
L 488.584964 237.239336 
L 488.81477 232.124415 
L 488.929496 231.531801 
L 489.044102 233.376282 
L 489.272963 237.612426 
L 489.501353 234.002369 
L 489.615373 232.281203 
L 489.956732 236.959666 
L 490.070286 238.507096 
L 490.297046 230.537756 
L 490.523346 234.960472 
L 490.636323 235.240963 
L 490.749186 236.357859 
L 490.861934 235.523823 
L 491.087088 237.980857 
L 491.311787 235.445412 
L 491.423967 237.668039 
L 491.536033 234.466802 
L 491.759828 237.622713 
L 491.983174 235.86259 
L 492.206072 237.558579 
L 492.428524 235.881651 
L 492.539584 235.397097 
L 492.76137 233.752719 
L 492.982716 237.792681 
L 493.203622 237.040476 
L 493.31391 237.324724 
L 493.42409 235.110409 
L 493.644122 239.74494 
L 493.973355 236.188334 
L 494.082884 238.1455 
L 494.192305 237.679625 
L 494.301618 239.90585 
L 494.519922 217.144074 
L 494.737799 236.593856 
L 494.95525 234.058603 
L 495.172276 234.993797 
L 495.280631 234.490951 
L 495.497024 240.607 
L 495.712997 236.393586 
L 495.820827 235.152698 
L 495.928552 236.450453 
L 496.036172 235.877665 
L 496.143689 233.421038 
L 496.358411 237.432122 
L 496.465617 233.439615 
L 496.786616 235.549908 
L 496.89341 236.036269 
L 497.000102 237.758588 
L 497.106692 234.883231 
L 497.319564 237.251795 
L 497.425848 234.731973 
L 497.638112 238.368856 
L 497.849971 237.232765 
L 497.95575 235.997601 
L 498.061428 233.195022 
L 498.37786 238.857421 
L 498.483138 218.817383 
L 498.588317 219.672068 
L 498.693396 236.749951 
L 498.798375 235.994082 
L 499.008038 237.334223 
L 499.217307 240.47854 
L 499.426182 235.016785 
L 499.530473 235.01805 
L 499.634666 235.38964 
L 499.738761 236.307207 
L 499.842759 238.369656 
L 499.94666 237.595122 
L 500.154172 238.089498 
L 500.257783 237.248843 
L 500.464715 239.306351 
L 500.568037 240.013677 
L 500.671263 238.705637 
L 500.774393 239.22463 
L 500.980367 236.264128 
L 501.083212 237.773733 
L 501.185961 237.445556 
L 501.288615 238.330456 
L 501.391175 237.087733 
L 501.596012 241.313706 
L 501.698288 238.616261 
L 501.800471 243.836735 
L 501.90256 243.454219 
L 502.411605 234.532934 
L 502.614572 242.562996 
L 502.918331 237.55853 
L 503.322056 240.619368 
L 503.422758 242.898846 
L 503.62389 239.933388 
L 503.72432 239.78619 
L 503.924908 238.942623 
L 504.025067 241.416997 
L 504.225114 239.539406 
L 504.424802 240.950527 
L 504.624132 239.55187 
L 504.723663 239.870059 
L 504.922458 242.367401 
L 505.021723 238.490864 
L 505.120899 239.39977 
L 505.318987 242.355034 
L 505.417898 239.932437 
L 505.516722 239.950818 
L 505.615458 240.458554 
L 505.812667 238.578597 
L 506.009528 236.310639 
L 506.107827 237.44192 
L 506.20604 235.104908 
L 506.50016 242.751021 
L 506.695808 238.717305 
L 506.891113 241.430541 
L 507.280697 239.296038 
L 507.37788 239.925041 
L 507.571992 239.118827 
L 507.668921 239.06434 
L 507.765765 238.483007 
L 507.862526 237.090745 
L 508.055794 241.492115 
L 508.152303 240.687209 
L 508.248728 241.68057 
L 508.345069 241.326919 
L 508.537502 237.696326 
L 508.729602 241.545155 
L 509.017132 240.618759 
L 509.11281 239.108452 
L 509.208406 239.22338 
L 509.399353 241.487856 
L 509.494703 238.988261 
L 509.589971 239.017634 
L 509.685158 240.792811 
L 509.780264 238.96328 
L 509.875289 239.176333 
L 509.970232 239.414053 
L 510.065094 241.651957 
L 510.159876 241.443138 
L 510.443737 236.962851 
L 510.538196 237.713819 
L 510.821094 242.714698 
L 511.009294 241.728599 
L 511.103275 242.212708 
L 511.197176 241.589757 
L 511.384741 242.659143 
L 511.478405 242.19177 
L 511.57199 244.098962 
L 511.758925 238.339911 
L 511.852275 238.731459 
L 511.945546 241.4976 
L 512.038739 240.765771 
L 512.131854 236.864869 
L 512.224892 237.056402 
L 512.503538 243.897901 
L 512.688914 240.911279 
L 512.781487 240.721851 
L 512.873983 238.503888 
L 512.966402 238.813878 
L 513.058744 239.115361 
L 513.151009 239.0784 
L 513.427347 242.225616 
L 513.611192 240.52282 
L 513.886391 244.627163 
L 514.16091 241.153202 
L 514.252266 241.508512 
L 514.434754 243.176741 
L 514.525885 241.184576 
L 514.616942 242.728466 
L 514.707925 242.61811 
L 514.798833 242.703086 
L 514.889667 243.303261 
L 514.980427 240.886177 
L 515.071112 241.095868 
L 515.252262 241.010967 
L 515.433118 243.466415 
L 515.703851 239.641698 
L 515.793949 240.27247 
L 515.973926 242.11274 
L 516.153613 238.990576 
L 516.33301 241.851427 
L 516.4226 240.651906 
L 516.601564 244.132979 
L 516.690938 242.494931 
L 516.780241 237.408918 
L 517.047718 241.942615 
L 517.136735 240.751599 
L 517.22568 242.78689 
L 517.314554 240.200433 
L 517.49209 242.190505 
L 517.580752 241.037622 
L 517.669343 242.411299 
L 517.757863 241.0169 
L 517.846313 242.976472 
L 518.023003 239.805189 
L 518.199412 238.844951 
L 518.375542 241.150653 
L 518.463503 240.719146 
L 518.551394 241.482555 
L 518.726968 237.562931 
L 518.814651 242.445197 
L 518.902265 241.539986 
L 519.077286 240.891577 
L 519.252033 241.029408 
L 519.339303 238.882997 
L 519.513639 241.901301 
L 519.600704 237.522373 
L 519.687702 238.418358 
L 519.861492 239.670907 
L 519.948286 241.104717 
L 520.035012 240.714893 
L 520.12167 237.145041 
L 520.294785 243.005182 
L 520.381241 240.979414 
L 520.46763 241.628372 
L 520.553953 241.034628 
L 520.640208 242.661105 
L 520.812518 237.770133 
L 520.898573 238.120499 
L 521.156339 243.0285 
L 521.242128 242.845329 
L 521.413509 241.538947 
L 521.584626 242.243951 
L 521.670086 240.743816 
L 521.840809 242.92891 
L 521.926073 241.530933 
L 522.096404 242.968331 
L 522.266474 240.049685 
L 522.436285 244.778326 
L 522.521093 240.716973 
L 522.605837 241.463911 
L 522.690516 242.652874 
L 522.775131 240.424671 
L 522.859681 240.520612 
L 522.944167 244.085364 
L 523.197242 240.602812 
L 523.365638 240.613024 
L 523.449741 239.836192 
L 523.533781 240.085984 
L 523.701669 241.493591 
L 523.785518 242.270163 
L 523.953028 238.85628 
L 524.036688 238.888169 
L 524.120285 239.813288 
L 524.287291 243.350917 
L 524.454047 240.079329 
L 524.537331 243.197809 
L 524.703713 240.313571 
L 524.78681 240.836073 
L 524.869846 239.316948 
L 524.952819 241.180366 
L 525.035731 238.963585 
L 525.118581 240.027708 
L 525.201369 242.922477 
L 525.366761 239.04198 
L 525.449365 240.134494 
L 525.531908 237.008998 
L 525.614389 237.881896 
L 525.696809 240.617581 
L 525.861467 239.181796 
L 525.943704 242.306597 
L 526.190052 237.77251 
L 526.272047 238.617351 
L 526.435856 244.232522 
L 526.599423 241.074117 
L 526.681117 242.391859 
L 526.762751 241.845016 
L 527.007294 236.471477 
L 527.088688 236.547302 
L 527.332516 240.705448 
L 527.494772 238.96798 
L 527.818574 241.589038 
L 527.899378 240.776582 
L 527.980123 241.640846 
L 528.141437 239.621838 
L 528.222006 239.68156 
L 528.38297 238.482747 
L 528.463365 243.413506 
L 528.543701 242.225786 
L 528.704201 238.877871 
L 528.944517 245.187921 
L 529.104439 241.473149 
L 529.184314 243.518711 
L 529.343892 238.044191 
L 529.582831 242.241206 
L 529.741839 237.591707 
L 529.821258 238.93623 
L 529.90062 237.769095 
L 529.979926 238.899757 
L 530.059175 238.873023 
L 530.138368 238.854696 
L 530.217504 238.50781 
L 530.375608 242.756617 
L 530.533487 240.872152 
L 530.691143 242.23516 
L 530.927208 237.419641 
L 531.005786 237.847739 
L 531.162774 242.240002 
L 531.319541 240.314439 
L 531.476087 241.252741 
L 531.632413 239.225843 
L 531.78852 243.04607 
L 531.944408 239.336294 
L 532.02227 241.330417 
L 532.100078 241.070439 
L 532.25553 241.017291 
L 532.333175 241.705541 
L 532.410765 240.650492 
L 532.488302 240.731269 
L 532.565784 242.833885 
L 532.643213 242.098691 
L 532.720587 241.430002 
L 532.875176 245.155896 
L 532.952389 244.676935 
L 533.106655 242.181013 
L 533.183709 242.282632 
L 533.260708 240.909154 
L 533.337655 241.661263 
L 533.414548 243.650869 
L 533.491388 241.755031 
L 533.568175 242.040125 
L 533.644909 242.94612 
L 533.72159 242.90399 
L 533.798219 241.106604 
L 533.874794 242.853315 
L 533.951317 241.163746 
L 534.027788 241.794316 
L 534.104205 242.863253 
L 534.180571 242.17322 
L 534.256884 242.665042 
L 534.409353 240.320728 
L 534.561613 244.012242 
L 534.713665 240.536921 
L 535.017147 246.688005 
L 535.395339 241.93204 
L 535.470823 242.99141 
L 535.546256 242.835966 
L 535.621638 241.541618 
L 535.696969 243.138657 
L 535.772249 242.290868 
L 535.847478 245.199863 
L 535.997783 242.168296 
L 536.07286 243.442461 
L 536.147886 242.299039 
L 536.222861 245.697191 
L 536.372661 243.37467 
L 536.447485 246.160868 
L 536.522259 242.544446 
L 536.596982 244.717234 
L 536.671656 244.338545 
L 536.746279 242.829915 
L 536.820852 243.528209 
L 536.969849 245.615118 
L 537.044273 242.443435 
L 537.192971 245.252103 
L 537.34147 243.428944 
L 537.415646 243.437528 
L 537.489772 244.060984 
L 537.563848 243.64077 
L 537.711854 242.069296 
L 538.007275 246.015588 
L 538.228327 242.286937 
L 538.301914 242.861683 
L 538.448941 241.631047 
L 538.522382 243.051938 
L 538.595774 242.312975 
L 538.742414 244.223029 
L 538.815661 243.308781 
L 538.962011 239.854039 
L 539.108169 243.7346 
L 539.181176 245.090358 
L 539.254135 244.599423 
L 539.39991 243.330546 
L 539.472726 242.106526 
L 539.545494 244.282974 
L 539.618214 244.261521 
L 539.690887 241.859133 
L 539.763513 242.994494 
L 539.836091 243.98035 
L 539.908622 241.456276 
L 540.053542 244.652803 
L 540.198273 240.148003 
L 540.631341 244.821431 
L 540.703355 239.279626 
L 540.775323 240.939606 
L 540.847244 243.452041 
L 540.919119 236.308731 
L 540.990947 238.155232 
L 541.134465 243.764051 
L 541.206154 245.475274 
L 541.277797 245.034388 
L 541.49245 241.193409 
L 541.635323 245.478464 
L 541.778012 241.349811 
L 541.849288 241.459666 
L 542.133935 243.798193 
L 542.204984 244.950887 
L 542.275987 244.776503 
L 542.417857 241.525975 
L 542.488724 241.49274 
L 542.771742 245.108733 
L 542.912981 240.881048 
L 543.054042 245.809512 
L 543.194923 244.142119 
L 543.265297 244.070667 
L 543.405912 248.131518 
L 543.546349 242.353386 
L 543.616501 242.477956 
L 543.686609 242.305779 
L 543.756673 244.000327 
L 543.826692 243.739813 
L 543.896668 240.652133 
L 543.966599 240.929133 
L 544.17613 244.120138 
L 544.245886 244.025943 
L 544.385267 240.981728 
L 544.454892 243.901961 
L 544.524474 242.091092 
L 544.594012 242.894618 
L 544.663507 243.822638 
L 544.732958 239.843761 
L 544.87173 243.738688 
L 544.941052 243.270377 
L 545.079565 244.343852 
L 545.148757 246.418903 
L 545.217906 245.94948 
L 545.287012 244.764826 
L 545.356075 239.671517 
L 545.425095 243.231685 
L 545.494072 242.014188 
L 545.563007 241.793308 
L 545.631899 243.341141 
L 545.769555 233.868165 
L 545.97572 245.820225 
L 546.044357 239.650124 
L 546.112952 241.740411 
L 546.181504 241.69426 
L 546.250014 239.432257 
L 546.386908 246.165735 
L 546.455291 245.783639 
L 546.591933 241.914326 
L 546.728406 243.869428 
L 546.864713 242.055421 
L 546.932804 242.851013 
L 547.000853 245.303886 
L 547.06886 244.854426 
L 547.20475 241.181114 
L 547.272633 242.679701 
L 547.340474 242.07428 
L 547.476033 243.130258 
L 547.746656 241.143696 
L 547.881722 245.072693 
L 547.949193 245.053742 
L 548.084012 242.419232 
L 548.151361 243.086976 
L 548.218668 245.929924 
L 548.285935 244.839413 
L 548.420348 242.137954 
L 548.554598 246.402513 
L 548.755669 243.156881 
L 548.822612 243.17064 
L 548.956378 241.244905 
L 549.0232 241.508035 
L 549.089983 245.063583 
L 549.156725 243.439308 
L 549.29009 244.558767 
L 549.356712 246.726797 
L 549.622803 242.391935 
L 549.689227 243.447661 
L 549.755611 242.142779 
L 549.88826 246.096515 
L 549.954525 243.376542 
L 550.02075 244.053446 
L 550.153084 242.166481 
L 550.219191 245.171923 
L 550.28526 244.612536 
L 550.351289 243.928544 
L 550.417279 245.290252 
L 550.48323 242.469999 
L 550.549141 242.863435 
L 550.615014 244.745595 
L 550.680848 243.932144 
L 550.746643 244.705967 
L 550.878115 242.736267 
L 551.009433 245.419755 
L 551.075034 242.225793 
L 551.140596 243.833209 
L 551.206119 245.37965 
L 551.337051 242.525511 
L 551.402459 242.889692 
L 551.467828 242.773525 
L 551.598452 246.555876 
L 551.728922 244.211679 
L 551.85924 243.270156 
L 551.924341 244.22567 
L 551.989405 247.142542 
L 552.05443 245.745253 
L 552.119418 243.938034 
L 552.184367 244.521456 
L 552.249279 244.431194 
L 552.314153 245.957468 
L 552.443787 242.522759 
L 552.508547 242.72935 
L 552.57327 242.789106 
L 552.637955 245.929403 
L 552.702603 244.675766 
L 552.767213 245.212088 
L 553.025278 242.614069 
L 553.154086 245.389062 
L 553.34702 242.011593 
L 553.411257 242.02408 
L 553.475456 244.771834 
L 553.539619 244.645949 
L 553.603745 242.852524 
L 553.795901 247.5751 
L 553.987725 242.627555 
L 554.051593 243.635971 
L 554.115424 244.73089 
L 554.242977 242.54093 
L 554.306699 244.431867 
L 554.370384 243.805568 
L 554.434032 242.922671 
L 554.561221 247.329021 
L 554.62476 247.104566 
L 554.878556 242.013205 
L 555.068524 245.806607 
L 555.131775 243.69105 
L 555.194989 244.629028 
L 555.258168 245.083479 
L 555.321311 244.651411 
L 555.384418 246.861069 
L 555.447489 245.287722 
L 555.510524 245.570452 
L 555.573524 245.030907 
L 555.76231 248.216691 
L 556.076242 241.891411 
L 556.138922 240.725917 
L 556.201567 245.457563 
L 556.264176 244.853677 
L 556.451794 242.978619 
L 556.70146 247.793125 
L 556.763789 247.177416 
L 556.826083 247.054825 
L 556.888342 245.400246 
L 556.950567 246.306175 
L 557.074911 243.627451 
L 557.137031 244.792869 
L 557.261168 248.356241 
L 557.385165 244.475954 
L 557.447113 244.800205 
L 557.509025 244.822836 
L 557.570903 246.22285 
L 557.694557 244.358517 
L 557.756332 245.725448 
L 557.818073 244.994097 
L 557.879779 244.579922 
L 557.941451 245.766079 
L 558.00309 244.337841 
L 558.064694 246.723147 
L 558.126264 243.649627 
L 558.187799 245.622273 
L 558.249301 247.111782 
L 558.494969 241.831163 
L 558.678865 248.466668 
L 558.862457 243.504304 
L 558.984683 246.201 
L 559.045746 246.37197 
L 559.106775 245.964182 
L 559.228734 243.94169 
L 559.289663 244.404104 
L 559.411421 244.736536 
L 559.47225 244.537467 
L 559.533046 246.077253 
L 559.593809 242.190258 
L 559.654538 244.006506 
L 559.836528 247.116571 
L 559.957689 244.660624 
L 560.018221 248.139559 
L 560.078719 247.123128 
L 560.139184 246.405268 
L 560.260016 248.141983 
L 560.501288 243.298847 
L 560.561524 246.380506 
L 560.621728 246.242484 
L 560.802143 244.39843 
L 560.982266 248.162493 
L 561.162098 244.748467 
L 561.162098 244.748467 
" clip-path="url(#p0f0e5ff0b6)" style="fill: none; stroke: #ff7f0e; stroke-linecap: square"/>
   </g>
   <g id="patch_3">
    <path d="M 48.982813 294.590247 
L 48.982813 22.318125 
" style="fill: none; stroke: #000000; stroke-width: 0.8; stroke-linejoin: miter; stroke-linecap: square"/>
   </g>
   <g id="patch_4">
    <path d="M 561.197812 294.590247 
L 561.197812 22.318125 
" style="fill: none; stroke: #000000; stroke-width: 0.8; stroke-linejoin: miter; stroke-linecap: square"/>
   </g>
   <g id="patch_5">
    <path d="M 48.982813 294.590247 
L 561.197812 294.590247 
" style="fill: none; stroke: #000000; stroke-width: 0.8; stroke-linejoin: miter; stroke-linecap: square"/>
   </g>
   <g id="patch_6">
    <path d="M 48.982813 22.318125 
L 561.197812 22.318125 
" style="fill: none; stroke: #000000; stroke-width: 0.8; stroke-linejoin: miter; stroke-linecap: square"/>
   </g>
   <g id="text_14">
    <!-- Honda Odysee Blower Setting Off - Narrow Band SPL (dBA) -->
    <g transform="translate(128.424062 16.318125) scale(0.12 -0.12)">
     <defs>
      <path id="DejaVuSans-6f" d="M 1959 3097 
Q 1497 3097 1228 2736 
Q 959 2375 959 1747 
Q 959 1119 1226 758 
Q 1494 397 1959 397 
Q 2419 397 2687 759 
Q 2956 1122 2956 1747 
Q 2956 2369 2687 2733 
Q 2419 3097 1959 3097 
z
M 1959 3584 
Q 2709 3584 3137 3096 
Q 3566 2609 3566 1747 
Q 3566 888 3137 398 
Q 2709 -91 1959 -91 
Q 1206 -91 779 398 
Q 353 888 353 1747 
Q 353 2609 779 3096 
Q 1206 3584 1959 3584 
z
" transform="scale(0.015625)"/>
      <path id="DejaVuSans-61" d="M 2194 1759 
Q 1497 1759 1228 1600 
Q 959 1441 959 1056 
Q 959 750 1161 570 
Q 1363 391 1709 391 
Q 2188 391 2477 730 
Q 2766 1069 2766 1631 
L 2766 1759 
L 2194 1759 
z
M 3341 1997 
L 3341 0 
L 2766 0 
L 2766 531 
Q 2569 213 2275 61 
Q 1981 -91 1556 -91 
Q 1019 -91 701 211 
Q 384 513 384 1019 
Q 384 1609 779 1909 
Q 1175 2209 1959 2209 
L 2766 2209 
L 2766 2266 
Q 2766 2663 2505 2880 
Q 2244 3097 1772 3097 
Q 1472 3097 1187 3025 
Q 903 2953 641 2809 
L 641 3341 
Q 956 3463 1253 3523 
Q 1550 3584 1831 3584 
Q 2591 3584 2966 3190 
Q 3341 2797 3341 1997 
z
" transform="scale(0.015625)"/>
      <path id="DejaVuSans-4f" d="M 2522 4238 
Q 1834 4238 1429 3725 
Q 1025 3213 1025 2328 
Q 1025 1447 1429 934 
Q 1834 422 2522 422 
Q 3209 422 3611 934 
Q 4013 1447 4013 2328 
Q 4013 3213 3611 3725 
Q 3209 4238 2522 4238 
z
M 2522 4750 
Q 3503 4750 4090 4092 
Q 4678 3434 4678 2328 
Q 4678 1225 4090 567 
Q 3503 -91 2522 -91 
Q 1538 -91 948 565 
Q 359 1222 359 2328 
Q 359 3434 948 4092 
Q 1538 4750 2522 4750 
z
" transform="scale(0.015625)"/>
      <path id="DejaVuSans-73" d="M 2834 3397 
L 2834 2853 
Q 2591 2978 2328 3040 
Q 2066 3103 1784 3103 
Q 1356 3103 1142 2972 
Q 928 2841 928 2578 
Q 928 2378 1081 2264 
Q 1234 2150 1697 2047 
L 1894 2003 
Q 2506 1872 2764 1633 
Q 3022 1394 3022 966 
Q 3022 478 2636 193 
Q 2250 -91 1575 -91 
Q 1294 -91 989 -36 
Q 684 19 347 128 
L 347 722 
Q 666 556 975 473 
Q 1284 391 1588 391 
Q 1994 391 2212 530 
Q 2431 669 2431 922 
Q 2431 1156 2273 1281 
Q 2116 1406 1581 1522 
L 1381 1569 
Q 847 1681 609 1914 
Q 372 2147 372 2553 
Q 372 3047 722 3315 
Q 1072 3584 1716 3584 
Q 2034 3584 2315 3537 
Q 2597 3491 2834 3397 
z
" transform="scale(0.015625)"/>
      <path id="DejaVuSans-6c" d="M 603 4863 
L 1178 4863 
L 1178 0 
L 603 0 
L 603 4863 
z
" transform="scale(0.015625)"/>
      <path id="DejaVuSans-77" d="M 269 3500 
L 844 3500 
L 1563 769 
L 2278 3500 
L 2956 3500 
L 3675 769 
L 4391 3500 
L 4966 3500 
L 4050 0 
L 3372 0 
L 2619 2869 
L 1863 0 
L 1184 0 
L 269 3500 
z
" transform="scale(0.015625)"/>
      <path id="DejaVuSans-74" d="M 1172 4494 
L 1172 3500 
L 2356 3500 
L 2356 3053 
L 1172 3053 
L 1172 1153 
Q 1172 725 1289 603 
Q 1406 481 1766 481 
L 2356 481 
L 2356 0 
L 1766 0 
Q 1100 0 847 248 
Q 594 497 594 1153 
L 594 3053 
L 172 3053 
L 172 3500 
L 594 3500 
L 594 4494 
L 1172 4494 
z
" transform="scale(0.015625)"/>
      <path id="DejaVuSans-69" d="M 603 3500 
L 1178 3500 
L 1178 0 
L 603 0 
L 603 3500 
z
M 603 4863 
L 1178 4863 
L 1178 4134 
L 603 4134 
L 603 4863 
z
" transform="scale(0.015625)"/>
      <path id="DejaVuSans-67" d="M 2906 1791 
Q 2906 2416 2648 2759 
Q 2391 3103 1925 3103 
Q 1463 3103 1205 2759 
Q 947 2416 947 1791 
Q 947 1169 1205 825 
Q 1463 481 1925 481 
Q 2391 481 2648 825 
Q 2906 1169 2906 1791 
z
M 3481 434 
Q 3481 -459 3084 -895 
Q 2688 -1331 1869 -1331 
Q 1566 -1331 1297 -1286 
Q 1028 -1241 775 -1147 
L 775 -588 
Q 1028 -725 1275 -790 
Q 1522 -856 1778 -856 
Q 2344 -856 2625 -561 
Q 2906 -266 2906 331 
L 2906 616 
Q 2728 306 2450 153 
Q 2172 0 1784 0 
Q 1141 0 747 490 
Q 353 981 353 1791 
Q 353 2603 747 3093 
Q 1141 3584 1784 3584 
Q 2172 3584 2450 3431 
Q 2728 3278 2906 2969 
L 2906 3500 
L 3481 3500 
L 3481 434 
z
" transform="scale(0.015625)"/>
      <path id="DejaVuSans-66" d="M 2375 4863 
L 2375 4384 
L 1825 4384 
Q 1516 4384 1395 4259 
Q 1275 4134 1275 3809 
L 1275 3500 
L 2222 3500 
L 2222 3053 
L 1275 3053 
L 1275 0 
L 697 0 
L 697 3053 
L 147 3053 
L 147 3500 
L 697 3500 
L 697 3744 
Q 697 4328 969 4595 
Q 1241 4863 1831 4863 
L 2375 4863 
z
" transform="scale(0.015625)"/>
      <path id="DejaVuSans-2d" d="M 313 2009 
L 1997 2009 
L 1997 1497 
L 313 1497 
L 313 2009 
z
" transform="scale(0.015625)"/>
      <path id="DejaVuSans-4e" d="M 628 4666 
L 1478 4666 
L 3547 763 
L 3547 4666 
L 4159 4666 
L 4159 0 
L 3309 0 
L 1241 3903 
L 1241 0 
L 628 0 
L 628 4666 
z
" transform="scale(0.015625)"/>
     </defs>
     <use xlink:href="#DejaVuSans-48"/>
     <use xlink:href="#DejaVuSans-6f" transform="translate(75.195312 0)"/>
     <use xlink:href="#DejaVuSans-6e" transform="translate(136.376953 0)"/>
     <use xlink:href="#DejaVuSans-64" transform="translate(199.755859 0)"/>
     <use xlink:href="#DejaVuSans-61" transform="translate(263.232422 0)"/>
     <use xlink:href="#DejaVuSans-20" transform="translate(324.511719 0)"/>
     <use xlink:href="#DejaVuSans-4f" transform="translate(356.298828 0)"/>
     <use xlink:href="#DejaVuSans-64" transform="translate(435.009766 0)"/>
     <use xlink:href="#DejaVuSans-79" transform="translate(498.486328 0)"/>
     <use xlink:href="#DejaVuSans-73" transform="translate(557.666016 0)"/>
     <use xlink:href="#DejaVuSans-65" transform="translate(609.765625 0)"/>
     <use xlink:href="#DejaVuSans-65" transform="translate(671.289062 0)"/>
     <use xlink:href="#DejaVuSans-20" transform="translate(732.8125 0)"/>
     <use xlink:href="#DejaVuSans-42" transform="translate(764.599609 0)"/>
     <use xlink:href="#DejaVuSans-6c" transform="translate(833.203125 0)"/>
     <use xlink:href="#DejaVuSans-6f" transform="translate(860.986328 0)"/>
     <use xlink:href="#DejaVuSans-77" transform="translate(922.167969 0)"/>
     <use xlink:href="#DejaVuSans-65" transform="translate(1003.955078 0)"/>
     <use xlink:href="#DejaVuSans-72" transform="translate(1065.478516 0)"/>
     <use xlink:href="#DejaVuSans-20" transform="translate(1106.591797 0)"/>
     <use xlink:href="#DejaVuSans-53" transform="translate(1138.378906 0)"/>
     <use xlink:href="#DejaVuSans-65" transform="translate(1201.855469 0)"/>
     <use xlink:href="#DejaVuSans-74" transform="translate(1263.378906 0)"/>
     <use xlink:href="#DejaVuSans-74" transform="translate(1302.587891 0)"/>
     <use xlink:href="#DejaVuSans-69" transform="translate(1341.796875 0)"/>
     <use xlink:href="#DejaVuSans-6e" transform="translate(1369.580078 0)"/>
     <use xlink:href="#DejaVuSans-67" transform="translate(1432.958984 0)"/>
     <use xlink:href="#DejaVuSans-20" transform="translate(1496.435547 0)"/>
     <use xlink:href="#DejaVuSans-4f" transform="translate(1528.222656 0)"/>
     <use xlink:href="#DejaVuSans-66" transform="translate(1606.933594 0)"/>
     <use xlink:href="#DejaVuSans-66" transform="translate(1642.138672 0)"/>
     <use xlink:href="#DejaVuSans-20" transform="translate(1677.34375 0)"/>
     <use xlink:href="#DejaVuSans-2d" transform="translate(1709.130859 0)"/>
     <use xlink:href="#DejaVuSans-20" transform="translate(1745.214844 0)"/>
     <use xlink:href="#DejaVuSans-4e" transform="translate(1777.001953 0)"/>
     <use xlink:href="#DejaVuSans-61" transform="translate(1851.806641 0)"/>
     <use xlink:href="#DejaVuSans-72" transform="translate(1913.085938 0)"/>
     <use xlink:href="#DejaVuSans-72" transform="translate(1952.449219 0)"/>
     <use xlink:href="#DejaVuSans-6f" transform="translate(1991.3125 0)"/>
     <use xlink:href="#DejaVuSans-77" transform="translate(2052.494141 0)"/>
     <use xlink:href="#DejaVuSans-20" transform="translate(2134.28125 0)"/>
     <use xlink:href="#DejaVuSans-42" transform="translate(2166.068359 0)"/>
     <use xlink:href="#DejaVuSans-61" transform="translate(2234.671875 0)"/>
     <use xlink:href="#DejaVuSans-6e" transform="translate(2295.951172 0)"/>
     <use xlink:href="#DejaVuSans-64" transform="translate(2359.330078 0)"/>
     <use xlink:href="#DejaVuSans-20" transform="translate(2422.806641 0)"/>
     <use xlink:href="#DejaVuSans-53" transform="translate(2454.59375 0)"/>
     <use xlink:href="#DejaVuSans-50" transform="translate(2518.070312 0)"/>
     <use xlink:href="#DejaVuSans-4c" transform="translate(2578.373047 0)"/>
     <use xlink:href="#DejaVuSans-20" transform="translate(2634.085938 0)"/>
     <use xlink:href="#DejaVuSans-28" transform="translate(2665.873047 0)"/>
     <use xlink:href="#DejaVuSans-64" transform="translate(2704.886719 0)"/>
     <use xlink:href="#DejaVuSans-42" transform="translate(2768.363281 0)"/>
     <use xlink:href="#DejaVuSans-41" transform="translate(2836.966797 0)"/>
     <use xlink:href="#DejaVuSans-29" transform="translate(2905.375 0)"/>
    </g>
   </g>
  </g>
 </g>
 <defs>
  <clipPath id="p0f0e5ff0b6">
   <rect x="48.982813" y="22.318125" width="512.215" height="272.272122"/>
  </clipPath>
 </defs>
</svg>
