<?xml version="1.0" encoding="utf-8" standalone="no"?>
<!DOCTYPE svg PUBLIC "-//W3C//DTD SVG 1.1//EN"
  "http://www.w3.org/Graphics/SVG/1.1/DTD/svg11.dtd">
<svg xmlns:xlink="http://www.w3.org/1999/xlink" width="568.397812pt" height="351.806674pt" viewBox="0 0 568.397812 351.806674" xmlns="http://www.w3.org/2000/svg" version="1.1">
 <metadata>
  <rdf:RDF xmlns:dc="http://purl.org/dc/elements/1.1/" xmlns:cc="http://creativecommons.org/ns#" xmlns:rdf="http://www.w3.org/1999/02/22-rdf-syntax-ns#">
   <cc:Work>
    <dc:type rdf:resource="http://purl.org/dc/dcmitype/StillImage"/>
    <dc:date>2025-04-24T18:27:04.899471</dc:date>
    <dc:format>image/svg+xml</dc:format>
    <dc:creator>
     <cc:Agent>
      <dc:title>Matplotlib v3.10.0, https://matplotlib.org/</dc:title>
     </cc:Agent>
    </dc:creator>
   </cc:Work>
  </rdf:RDF>
 </metadata>
 <defs>
  <style type="text/css">*{stroke-linejoin: round; stroke-linecap: butt}</style>
 </defs>
 <g id="figure_1">
  <g id="patch_1">
   <path d="M 0 351.806674 
L 568.397812 351.806674 
L 568.397812 0 
L 0 0 
z
" style="fill: #ffffff"/>
  </g>
  <g id="axes_1">
   <g id="patch_2">
    <path d="M 48.982813 294.590247 
L 561.197812 294.590247 
L 561.197812 22.318125 
L 48.982813 22.318125 
z
" style="fill: #ffffff"/>
   </g>
   <g id="matplotlib.axis_1">
    <g id="xtick_1">
     <g id="line2d_1">
      <path d="M 48.982813 294.590247 
L 48.982813 22.318125 
" clip-path="url(#pea94d98a4c)" style="fill: none; stroke-dasharray: 1.85,0.8; stroke-dashoffset: 0; stroke: #b0b0b0; stroke-width: 0.5"/>
     </g>
     <g id="line2d_2">
      <defs>
       <path id="md03bf8c50f" d="M 0 0 
L 0 3.5 
" style="stroke: #000000; stroke-width: 0.8"/>
      </defs>
      <g>
       <use xlink:href="#md03bf8c50f" x="48.982813" y="294.590247" style="stroke: #000000; stroke-width: 0.8"/>
      </g>
     </g>
     <g id="text_1">
      <!-- 100 -->
      <g transform="translate(34.015351 320.460054) rotate(-45) scale(0.1 -0.1)">
       <defs>
        <path id="DejaVuSans-31" d="M 794 531 
L 1825 531 
L 1825 4091 
L 703 3866 
L 703 4441 
L 1819 4666 
L 2450 4666 
L 2450 531 
L 3481 531 
L 3481 0 
L 794 0 
L 794 531 
z
" transform="scale(0.015625)"/>
        <path id="DejaVuSans-30" d="M 2034 4250 
Q 1547 4250 1301 3770 
Q 1056 3291 1056 2328 
Q 1056 1369 1301 889 
Q 1547 409 2034 409 
Q 2525 409 2770 889 
Q 3016 1369 3016 2328 
Q 3016 3291 2770 3770 
Q 2525 4250 2034 4250 
z
M 2034 4750 
Q 2819 4750 3233 4129 
Q 3647 3509 3647 2328 
Q 3647 1150 3233 529 
Q 2819 -91 2034 -91 
Q 1250 -91 836 529 
Q 422 1150 422 2328 
Q 422 3509 836 4129 
Q 1250 4750 2034 4750 
z
" transform="scale(0.015625)"/>
       </defs>
       <use xlink:href="#DejaVuSans-31"/>
       <use xlink:href="#DejaVuSans-30" transform="translate(63.623047 0)"/>
       <use xlink:href="#DejaVuSans-30" transform="translate(127.246094 0)"/>
      </g>
     </g>
    </g>
    <g id="xtick_2">
     <g id="line2d_3">
      <path d="M 305.090312 294.590247 
L 305.090312 22.318125 
" clip-path="url(#pea94d98a4c)" style="fill: none; stroke-dasharray: 1.85,0.8; stroke-dashoffset: 0; stroke: #b0b0b0; stroke-width: 0.5"/>
     </g>
     <g id="line2d_4">
      <g>
       <use xlink:href="#md03bf8c50f" x="305.090312" y="294.590247" style="stroke: #000000; stroke-width: 0.8"/>
      </g>
     </g>
     <g id="text_2">
      <!-- 1000 -->
      <g transform="translate(285.623884 324.959021) rotate(-45) scale(0.1 -0.1)">
       <use xlink:href="#DejaVuSans-31"/>
       <use xlink:href="#DejaVuSans-30" transform="translate(63.623047 0)"/>
       <use xlink:href="#DejaVuSans-30" transform="translate(127.246094 0)"/>
       <use xlink:href="#DejaVuSans-30" transform="translate(190.869141 0)"/>
      </g>
     </g>
    </g>
    <g id="xtick_3">
     <g id="line2d_5">
      <path d="M 561.197812 294.590247 
L 561.197812 22.318125 
" clip-path="url(#pea94d98a4c)" style="fill: none; stroke-dasharray: 1.85,0.8; stroke-dashoffset: 0; stroke: #b0b0b0; stroke-width: 0.5"/>
     </g>
     <g id="line2d_6">
      <g>
       <use xlink:href="#md03bf8c50f" x="561.197812" y="294.590247" style="stroke: #000000; stroke-width: 0.8"/>
      </g>
     </g>
     <g id="text_3">
      <!-- 10000 -->
      <g transform="translate(537.232417 329.457988) rotate(-45) scale(0.1 -0.1)">
       <use xlink:href="#DejaVuSans-31"/>
       <use xlink:href="#DejaVuSans-30" transform="translate(63.623047 0)"/>
       <use xlink:href="#DejaVuSans-30" transform="translate(127.246094 0)"/>
       <use xlink:href="#DejaVuSans-30" transform="translate(190.869141 0)"/>
       <use xlink:href="#DejaVuSans-30" transform="translate(254.492188 0)"/>
      </g>
     </g>
    </g>
    <g id="xtick_4">
     <g id="line2d_7">
      <path d="M 126.078852 294.590247 
L 126.078852 22.318125 
" clip-path="url(#pea94d98a4c)" style="fill: none; stroke-dasharray: 1.85,0.8; stroke-dashoffset: 0; stroke: #b0b0b0; stroke-width: 0.5"/>
     </g>
     <g id="line2d_8">
      <defs>
       <path id="m39147387a7" d="M 0 0 
L 0 2 
" style="stroke: #000000; stroke-width: 0.6"/>
      </defs>
      <g>
       <use xlink:href="#m39147387a7" x="126.078852" y="294.590247" style="stroke: #000000; stroke-width: 0.6"/>
      </g>
     </g>
    </g>
    <g id="xtick_5">
     <g id="line2d_9">
      <path d="M 171.177144 294.590247 
L 171.177144 22.318125 
" clip-path="url(#pea94d98a4c)" style="fill: none; stroke-dasharray: 1.85,0.8; stroke-dashoffset: 0; stroke: #b0b0b0; stroke-width: 0.5"/>
     </g>
     <g id="line2d_10">
      <g>
       <use xlink:href="#m39147387a7" x="171.177144" y="294.590247" style="stroke: #000000; stroke-width: 0.6"/>
      </g>
     </g>
    </g>
    <g id="xtick_6">
     <g id="line2d_11">
      <path d="M 203.174892 294.590247 
L 203.174892 22.318125 
" clip-path="url(#pea94d98a4c)" style="fill: none; stroke-dasharray: 1.85,0.8; stroke-dashoffset: 0; stroke: #b0b0b0; stroke-width: 0.5"/>
     </g>
     <g id="line2d_12">
      <g>
       <use xlink:href="#m39147387a7" x="203.174892" y="294.590247" style="stroke: #000000; stroke-width: 0.6"/>
      </g>
     </g>
    </g>
    <g id="xtick_7">
     <g id="line2d_13">
      <path d="M 227.994273 294.590247 
L 227.994273 22.318125 
" clip-path="url(#pea94d98a4c)" style="fill: none; stroke-dasharray: 1.85,0.8; stroke-dashoffset: 0; stroke: #b0b0b0; stroke-width: 0.5"/>
     </g>
     <g id="line2d_14">
      <g>
       <use xlink:href="#m39147387a7" x="227.994273" y="294.590247" style="stroke: #000000; stroke-width: 0.6"/>
      </g>
     </g>
    </g>
    <g id="xtick_8">
     <g id="line2d_15">
      <path d="M 248.273184 294.590247 
L 248.273184 22.318125 
" clip-path="url(#pea94d98a4c)" style="fill: none; stroke-dasharray: 1.85,0.8; stroke-dashoffset: 0; stroke: #b0b0b0; stroke-width: 0.5"/>
     </g>
     <g id="line2d_16">
      <g>
       <use xlink:href="#m39147387a7" x="248.273184" y="294.590247" style="stroke: #000000; stroke-width: 0.6"/>
      </g>
     </g>
    </g>
    <g id="xtick_9">
     <g id="line2d_17">
      <path d="M 265.418759 294.590247 
L 265.418759 22.318125 
" clip-path="url(#pea94d98a4c)" style="fill: none; stroke-dasharray: 1.85,0.8; stroke-dashoffset: 0; stroke: #b0b0b0; stroke-width: 0.5"/>
     </g>
     <g id="line2d_18">
      <g>
       <use xlink:href="#m39147387a7" x="265.418759" y="294.590247" style="stroke: #000000; stroke-width: 0.6"/>
      </g>
     </g>
    </g>
    <g id="xtick_10">
     <g id="line2d_19">
      <path d="M 280.270931 294.590247 
L 280.270931 22.318125 
" clip-path="url(#pea94d98a4c)" style="fill: none; stroke-dasharray: 1.85,0.8; stroke-dashoffset: 0; stroke: #b0b0b0; stroke-width: 0.5"/>
     </g>
     <g id="line2d_20">
      <g>
       <use xlink:href="#m39147387a7" x="280.270931" y="294.590247" style="stroke: #000000; stroke-width: 0.6"/>
      </g>
     </g>
    </g>
    <g id="xtick_11">
     <g id="line2d_21">
      <path d="M 293.371476 294.590247 
L 293.371476 22.318125 
" clip-path="url(#pea94d98a4c)" style="fill: none; stroke-dasharray: 1.85,0.8; stroke-dashoffset: 0; stroke: #b0b0b0; stroke-width: 0.5"/>
     </g>
     <g id="line2d_22">
      <g>
       <use xlink:href="#m39147387a7" x="293.371476" y="294.590247" style="stroke: #000000; stroke-width: 0.6"/>
      </g>
     </g>
    </g>
    <g id="xtick_12">
     <g id="line2d_23">
      <path d="M 382.186352 294.590247 
L 382.186352 22.318125 
" clip-path="url(#pea94d98a4c)" style="fill: none; stroke-dasharray: 1.85,0.8; stroke-dashoffset: 0; stroke: #b0b0b0; stroke-width: 0.5"/>
     </g>
     <g id="line2d_24">
      <g>
       <use xlink:href="#m39147387a7" x="382.186352" y="294.590247" style="stroke: #000000; stroke-width: 0.6"/>
      </g>
     </g>
    </g>
    <g id="xtick_13">
     <g id="line2d_25">
      <path d="M 427.284644 294.590247 
L 427.284644 22.318125 
" clip-path="url(#pea94d98a4c)" style="fill: none; stroke-dasharray: 1.85,0.8; stroke-dashoffset: 0; stroke: #b0b0b0; stroke-width: 0.5"/>
     </g>
     <g id="line2d_26">
      <g>
       <use xlink:href="#m39147387a7" x="427.284644" y="294.590247" style="stroke: #000000; stroke-width: 0.6"/>
      </g>
     </g>
    </g>
    <g id="xtick_14">
     <g id="line2d_27">
      <path d="M 459.282392 294.590247 
L 459.282392 22.318125 
" clip-path="url(#pea94d98a4c)" style="fill: none; stroke-dasharray: 1.85,0.8; stroke-dashoffset: 0; stroke: #b0b0b0; stroke-width: 0.5"/>
     </g>
     <g id="line2d_28">
      <g>
       <use xlink:href="#m39147387a7" x="459.282392" y="294.590247" style="stroke: #000000; stroke-width: 0.6"/>
      </g>
     </g>
    </g>
    <g id="xtick_15">
     <g id="line2d_29">
      <path d="M 484.101773 294.590247 
L 484.101773 22.318125 
" clip-path="url(#pea94d98a4c)" style="fill: none; stroke-dasharray: 1.85,0.8; stroke-dashoffset: 0; stroke: #b0b0b0; stroke-width: 0.5"/>
     </g>
     <g id="line2d_30">
      <g>
       <use xlink:href="#m39147387a7" x="484.101773" y="294.590247" style="stroke: #000000; stroke-width: 0.6"/>
      </g>
     </g>
    </g>
    <g id="xtick_16">
     <g id="line2d_31">
      <path d="M 504.380684 294.590247 
L 504.380684 22.318125 
" clip-path="url(#pea94d98a4c)" style="fill: none; stroke-dasharray: 1.85,0.8; stroke-dashoffset: 0; stroke: #b0b0b0; stroke-width: 0.5"/>
     </g>
     <g id="line2d_32">
      <g>
       <use xlink:href="#m39147387a7" x="504.380684" y="294.590247" style="stroke: #000000; stroke-width: 0.6"/>
      </g>
     </g>
    </g>
    <g id="xtick_17">
     <g id="line2d_33">
      <path d="M 521.526259 294.590247 
L 521.526259 22.318125 
" clip-path="url(#pea94d98a4c)" style="fill: none; stroke-dasharray: 1.85,0.8; stroke-dashoffset: 0; stroke: #b0b0b0; stroke-width: 0.5"/>
     </g>
     <g id="line2d_34">
      <g>
       <use xlink:href="#m39147387a7" x="521.526259" y="294.590247" style="stroke: #000000; stroke-width: 0.6"/>
      </g>
     </g>
    </g>
    <g id="xtick_18">
     <g id="line2d_35">
      <path d="M 536.378431 294.590247 
L 536.378431 22.318125 
" clip-path="url(#pea94d98a4c)" style="fill: none; stroke-dasharray: 1.85,0.8; stroke-dashoffset: 0; stroke: #b0b0b0; stroke-width: 0.5"/>
     </g>
     <g id="line2d_36">
      <g>
       <use xlink:href="#m39147387a7" x="536.378431" y="294.590247" style="stroke: #000000; stroke-width: 0.6"/>
      </g>
     </g>
    </g>
    <g id="xtick_19">
     <g id="line2d_37">
      <path d="M 549.478976 294.590247 
L 549.478976 22.318125 
" clip-path="url(#pea94d98a4c)" style="fill: none; stroke-dasharray: 1.85,0.8; stroke-dashoffset: 0; stroke: #b0b0b0; stroke-width: 0.5"/>
     </g>
     <g id="line2d_38">
      <g>
       <use xlink:href="#m39147387a7" x="549.478976" y="294.590247" style="stroke: #000000; stroke-width: 0.6"/>
      </g>
     </g>
    </g>
    <g id="text_4">
     <!-- Frequency (Hz) -->
     <g transform="translate(267.385625 342.526987) scale(0.1 -0.1)">
      <defs>
       <path id="DejaVuSans-46" d="M 628 4666 
L 3309 4666 
L 3309 4134 
L 1259 4134 
L 1259 2759 
L 3109 2759 
L 3109 2228 
L 1259 2228 
L 1259 0 
L 628 0 
L 628 4666 
z
" transform="scale(0.015625)"/>
       <path id="DejaVuSans-72" d="M 2631 2963 
Q 2534 3019 2420 3045 
Q 2306 3072 2169 3072 
Q 1681 3072 1420 2755 
Q 1159 2438 1159 1844 
L 1159 0 
L 581 0 
L 581 3500 
L 1159 3500 
L 1159 2956 
Q 1341 3275 1631 3429 
Q 1922 3584 2338 3584 
Q 2397 3584 2469 3576 
Q 2541 3569 2628 3553 
L 2631 2963 
z
" transform="scale(0.015625)"/>
       <path id="DejaVuSans-65" d="M 3597 1894 
L 3597 1613 
L 953 1613 
Q 991 1019 1311 708 
Q 1631 397 2203 397 
Q 2534 397 2845 478 
Q 3156 559 3463 722 
L 3463 178 
Q 3153 47 2828 -22 
Q 2503 -91 2169 -91 
Q 1331 -91 842 396 
Q 353 884 353 1716 
Q 353 2575 817 3079 
Q 1281 3584 2069 3584 
Q 2775 3584 3186 3129 
Q 3597 2675 3597 1894 
z
M 3022 2063 
Q 3016 2534 2758 2815 
Q 2500 3097 2075 3097 
Q 1594 3097 1305 2825 
Q 1016 2553 972 2059 
L 3022 2063 
z
" transform="scale(0.015625)"/>
       <path id="DejaVuSans-71" d="M 947 1747 
Q 947 1113 1208 752 
Q 1469 391 1925 391 
Q 2381 391 2643 752 
Q 2906 1113 2906 1747 
Q 2906 2381 2643 2742 
Q 2381 3103 1925 3103 
Q 1469 3103 1208 2742 
Q 947 2381 947 1747 
z
M 2906 525 
Q 2725 213 2448 61 
Q 2172 -91 1784 -91 
Q 1150 -91 751 415 
Q 353 922 353 1747 
Q 353 2572 751 3078 
Q 1150 3584 1784 3584 
Q 2172 3584 2448 3432 
Q 2725 3281 2906 2969 
L 2906 3500 
L 3481 3500 
L 3481 -1331 
L 2906 -1331 
L 2906 525 
z
" transform="scale(0.015625)"/>
       <path id="DejaVuSans-75" d="M 544 1381 
L 544 3500 
L 1119 3500 
L 1119 1403 
Q 1119 906 1312 657 
Q 1506 409 1894 409 
Q 2359 409 2629 706 
Q 2900 1003 2900 1516 
L 2900 3500 
L 3475 3500 
L 3475 0 
L 2900 0 
L 2900 538 
Q 2691 219 2414 64 
Q 2138 -91 1772 -91 
Q 1169 -91 856 284 
Q 544 659 544 1381 
z
M 1991 3584 
L 1991 3584 
z
" transform="scale(0.015625)"/>
       <path id="DejaVuSans-6e" d="M 3513 2113 
L 3513 0 
L 2938 0 
L 2938 2094 
Q 2938 2591 2744 2837 
Q 2550 3084 2163 3084 
Q 1697 3084 1428 2787 
Q 1159 2491 1159 1978 
L 1159 0 
L 581 0 
L 581 3500 
L 1159 3500 
L 1159 2956 
Q 1366 3272 1645 3428 
Q 1925 3584 2291 3584 
Q 2894 3584 3203 3211 
Q 3513 2838 3513 2113 
z
" transform="scale(0.015625)"/>
       <path id="DejaVuSans-63" d="M 3122 3366 
L 3122 2828 
Q 2878 2963 2633 3030 
Q 2388 3097 2138 3097 
Q 1578 3097 1268 2742 
Q 959 2388 959 1747 
Q 959 1106 1268 751 
Q 1578 397 2138 397 
Q 2388 397 2633 464 
Q 2878 531 3122 666 
L 3122 134 
Q 2881 22 2623 -34 
Q 2366 -91 2075 -91 
Q 1284 -91 818 406 
Q 353 903 353 1747 
Q 353 2603 823 3093 
Q 1294 3584 2113 3584 
Q 2378 3584 2631 3529 
Q 2884 3475 3122 3366 
z
" transform="scale(0.015625)"/>
       <path id="DejaVuSans-79" d="M 2059 -325 
Q 1816 -950 1584 -1140 
Q 1353 -1331 966 -1331 
L 506 -1331 
L 506 -850 
L 844 -850 
Q 1081 -850 1212 -737 
Q 1344 -625 1503 -206 
L 1606 56 
L 191 3500 
L 800 3500 
L 1894 763 
L 2988 3500 
L 3597 3500 
L 2059 -325 
z
" transform="scale(0.015625)"/>
       <path id="DejaVuSans-20" transform="scale(0.015625)"/>
       <path id="DejaVuSans-28" d="M 1984 4856 
Q 1566 4138 1362 3434 
Q 1159 2731 1159 2009 
Q 1159 1288 1364 580 
Q 1569 -128 1984 -844 
L 1484 -844 
Q 1016 -109 783 600 
Q 550 1309 550 2009 
Q 550 2706 781 3412 
Q 1013 4119 1484 4856 
L 1984 4856 
z
" transform="scale(0.015625)"/>
       <path id="DejaVuSans-48" d="M 628 4666 
L 1259 4666 
L 1259 2753 
L 3553 2753 
L 3553 4666 
L 4184 4666 
L 4184 0 
L 3553 0 
L 3553 2222 
L 1259 2222 
L 1259 0 
L 628 0 
L 628 4666 
z
" transform="scale(0.015625)"/>
       <path id="DejaVuSans-7a" d="M 353 3500 
L 3084 3500 
L 3084 2975 
L 922 459 
L 3084 459 
L 3084 0 
L 275 0 
L 275 525 
L 2438 3041 
L 353 3041 
L 353 3500 
z
" transform="scale(0.015625)"/>
       <path id="DejaVuSans-29" d="M 513 4856 
L 1013 4856 
Q 1481 4119 1714 3412 
Q 1947 2706 1947 2009 
Q 1947 1309 1714 600 
Q 1481 -109 1013 -844 
L 513 -844 
Q 928 -128 1133 580 
Q 1338 1288 1338 2009 
Q 1338 2731 1133 3434 
Q 928 4138 513 4856 
z
" transform="scale(0.015625)"/>
      </defs>
      <use xlink:href="#DejaVuSans-46"/>
      <use xlink:href="#DejaVuSans-72" transform="translate(50.269531 0)"/>
      <use xlink:href="#DejaVuSans-65" transform="translate(89.132812 0)"/>
      <use xlink:href="#DejaVuSans-71" transform="translate(150.65625 0)"/>
      <use xlink:href="#DejaVuSans-75" transform="translate(214.132812 0)"/>
      <use xlink:href="#DejaVuSans-65" transform="translate(277.511719 0)"/>
      <use xlink:href="#DejaVuSans-6e" transform="translate(339.035156 0)"/>
      <use xlink:href="#DejaVuSans-63" transform="translate(402.414062 0)"/>
      <use xlink:href="#DejaVuSans-79" transform="translate(457.394531 0)"/>
      <use xlink:href="#DejaVuSans-20" transform="translate(516.574219 0)"/>
      <use xlink:href="#DejaVuSans-28" transform="translate(548.361328 0)"/>
      <use xlink:href="#DejaVuSans-48" transform="translate(587.375 0)"/>
      <use xlink:href="#DejaVuSans-7a" transform="translate(662.570312 0)"/>
      <use xlink:href="#DejaVuSans-29" transform="translate(715.060547 0)"/>
     </g>
    </g>
   </g>
   <g id="matplotlib.axis_2">
    <g id="ytick_1">
     <g id="line2d_39">
      <path d="M 48.982813 294.590247 
L 561.197812 294.590247 
" clip-path="url(#pea94d98a4c)" style="fill: none; stroke-dasharray: 1.85,0.8; stroke-dashoffset: 0; stroke: #b0b0b0; stroke-width: 0.5"/>
     </g>
     <g id="line2d_40">
      <defs>
       <path id="m16c88a29ba" d="M 0 0 
L -3.5 0 
" style="stroke: #000000; stroke-width: 0.8"/>
      </defs>
      <g>
       <use xlink:href="#m16c88a29ba" x="48.982813" y="294.590247" style="stroke: #000000; stroke-width: 0.8"/>
      </g>
     </g>
     <g id="text_5">
      <!-- −20 -->
      <g transform="translate(20.878125 298.389466) scale(0.1 -0.1)">
       <defs>
        <path id="DejaVuSans-2212" d="M 678 2272 
L 4684 2272 
L 4684 1741 
L 678 1741 
L 678 2272 
z
" transform="scale(0.015625)"/>
        <path id="DejaVuSans-32" d="M 1228 531 
L 3431 531 
L 3431 0 
L 469 0 
L 469 531 
Q 828 903 1448 1529 
Q 2069 2156 2228 2338 
Q 2531 2678 2651 2914 
Q 2772 3150 2772 3378 
Q 2772 3750 2511 3984 
Q 2250 4219 1831 4219 
Q 1534 4219 1204 4116 
Q 875 4013 500 3803 
L 500 4441 
Q 881 4594 1212 4672 
Q 1544 4750 1819 4750 
Q 2544 4750 2975 4387 
Q 3406 4025 3406 3419 
Q 3406 3131 3298 2873 
Q 3191 2616 2906 2266 
Q 2828 2175 2409 1742 
Q 1991 1309 1228 531 
z
" transform="scale(0.015625)"/>
       </defs>
       <use xlink:href="#DejaVuSans-2212"/>
       <use xlink:href="#DejaVuSans-32" transform="translate(83.789062 0)"/>
       <use xlink:href="#DejaVuSans-30" transform="translate(147.412109 0)"/>
      </g>
     </g>
    </g>
    <g id="ytick_2">
     <g id="line2d_41">
      <path d="M 48.982813 255.694229 
L 561.197812 255.694229 
" clip-path="url(#pea94d98a4c)" style="fill: none; stroke-dasharray: 1.85,0.8; stroke-dashoffset: 0; stroke: #b0b0b0; stroke-width: 0.5"/>
     </g>
     <g id="line2d_42">
      <g>
       <use xlink:href="#m16c88a29ba" x="48.982813" y="255.694229" style="stroke: #000000; stroke-width: 0.8"/>
      </g>
     </g>
     <g id="text_6">
      <!-- −10 -->
      <g transform="translate(20.878125 259.493448) scale(0.1 -0.1)">
       <use xlink:href="#DejaVuSans-2212"/>
       <use xlink:href="#DejaVuSans-31" transform="translate(83.789062 0)"/>
       <use xlink:href="#DejaVuSans-30" transform="translate(147.412109 0)"/>
      </g>
     </g>
    </g>
    <g id="ytick_3">
     <g id="line2d_43">
      <path d="M 48.982813 216.798212 
L 561.197812 216.798212 
" clip-path="url(#pea94d98a4c)" style="fill: none; stroke-dasharray: 1.85,0.8; stroke-dashoffset: 0; stroke: #b0b0b0; stroke-width: 0.5"/>
     </g>
     <g id="line2d_44">
      <g>
       <use xlink:href="#m16c88a29ba" x="48.982813" y="216.798212" style="stroke: #000000; stroke-width: 0.8"/>
      </g>
     </g>
     <g id="text_7">
      <!-- 0 -->
      <g transform="translate(35.620313 220.597431) scale(0.1 -0.1)">
       <use xlink:href="#DejaVuSans-30"/>
      </g>
     </g>
    </g>
    <g id="ytick_4">
     <g id="line2d_45">
      <path d="M 48.982813 177.902195 
L 561.197812 177.902195 
" clip-path="url(#pea94d98a4c)" style="fill: none; stroke-dasharray: 1.85,0.8; stroke-dashoffset: 0; stroke: #b0b0b0; stroke-width: 0.5"/>
     </g>
     <g id="line2d_46">
      <g>
       <use xlink:href="#m16c88a29ba" x="48.982813" y="177.902195" style="stroke: #000000; stroke-width: 0.8"/>
      </g>
     </g>
     <g id="text_8">
      <!-- 10 -->
      <g transform="translate(29.257813 181.701413) scale(0.1 -0.1)">
       <use xlink:href="#DejaVuSans-31"/>
       <use xlink:href="#DejaVuSans-30" transform="translate(63.623047 0)"/>
      </g>
     </g>
    </g>
    <g id="ytick_5">
     <g id="line2d_47">
      <path d="M 48.982813 139.006177 
L 561.197812 139.006177 
" clip-path="url(#pea94d98a4c)" style="fill: none; stroke-dasharray: 1.85,0.8; stroke-dashoffset: 0; stroke: #b0b0b0; stroke-width: 0.5"/>
     </g>
     <g id="line2d_48">
      <g>
       <use xlink:href="#m16c88a29ba" x="48.982813" y="139.006177" style="stroke: #000000; stroke-width: 0.8"/>
      </g>
     </g>
     <g id="text_9">
      <!-- 20 -->
      <g transform="translate(29.257813 142.805396) scale(0.1 -0.1)">
       <use xlink:href="#DejaVuSans-32"/>
       <use xlink:href="#DejaVuSans-30" transform="translate(63.623047 0)"/>
      </g>
     </g>
    </g>
    <g id="ytick_6">
     <g id="line2d_49">
      <path d="M 48.982813 100.11016 
L 561.197812 100.11016 
" clip-path="url(#pea94d98a4c)" style="fill: none; stroke-dasharray: 1.85,0.8; stroke-dashoffset: 0; stroke: #b0b0b0; stroke-width: 0.5"/>
     </g>
     <g id="line2d_50">
      <g>
       <use xlink:href="#m16c88a29ba" x="48.982813" y="100.11016" style="stroke: #000000; stroke-width: 0.8"/>
      </g>
     </g>
     <g id="text_10">
      <!-- 30 -->
      <g transform="translate(29.257813 103.909379) scale(0.1 -0.1)">
       <defs>
        <path id="DejaVuSans-33" d="M 2597 2516 
Q 3050 2419 3304 2112 
Q 3559 1806 3559 1356 
Q 3559 666 3084 287 
Q 2609 -91 1734 -91 
Q 1441 -91 1130 -33 
Q 819 25 488 141 
L 488 750 
Q 750 597 1062 519 
Q 1375 441 1716 441 
Q 2309 441 2620 675 
Q 2931 909 2931 1356 
Q 2931 1769 2642 2001 
Q 2353 2234 1838 2234 
L 1294 2234 
L 1294 2753 
L 1863 2753 
Q 2328 2753 2575 2939 
Q 2822 3125 2822 3475 
Q 2822 3834 2567 4026 
Q 2313 4219 1838 4219 
Q 1578 4219 1281 4162 
Q 984 4106 628 3988 
L 628 4550 
Q 988 4650 1302 4700 
Q 1616 4750 1894 4750 
Q 2613 4750 3031 4423 
Q 3450 4097 3450 3541 
Q 3450 3153 3228 2886 
Q 3006 2619 2597 2516 
z
" transform="scale(0.015625)"/>
       </defs>
       <use xlink:href="#DejaVuSans-33"/>
       <use xlink:href="#DejaVuSans-30" transform="translate(63.623047 0)"/>
      </g>
     </g>
    </g>
    <g id="ytick_7">
     <g id="line2d_51">
      <path d="M 48.982813 61.214142 
L 561.197812 61.214142 
" clip-path="url(#pea94d98a4c)" style="fill: none; stroke-dasharray: 1.85,0.8; stroke-dashoffset: 0; stroke: #b0b0b0; stroke-width: 0.5"/>
     </g>
     <g id="line2d_52">
      <g>
       <use xlink:href="#m16c88a29ba" x="48.982813" y="61.214142" style="stroke: #000000; stroke-width: 0.8"/>
      </g>
     </g>
     <g id="text_11">
      <!-- 40 -->
      <g transform="translate(29.257813 65.013361) scale(0.1 -0.1)">
       <defs>
        <path id="DejaVuSans-34" d="M 2419 4116 
L 825 1625 
L 2419 1625 
L 2419 4116 
z
M 2253 4666 
L 3047 4666 
L 3047 1625 
L 3713 1625 
L 3713 1100 
L 3047 1100 
L 3047 0 
L 2419 0 
L 2419 1100 
L 313 1100 
L 313 1709 
L 2253 4666 
z
" transform="scale(0.015625)"/>
       </defs>
       <use xlink:href="#DejaVuSans-34"/>
       <use xlink:href="#DejaVuSans-30" transform="translate(63.623047 0)"/>
      </g>
     </g>
    </g>
    <g id="ytick_8">
     <g id="line2d_53">
      <path d="M 48.982813 22.318125 
L 561.197812 22.318125 
" clip-path="url(#pea94d98a4c)" style="fill: none; stroke-dasharray: 1.85,0.8; stroke-dashoffset: 0; stroke: #b0b0b0; stroke-width: 0.5"/>
     </g>
     <g id="line2d_54">
      <g>
       <use xlink:href="#m16c88a29ba" x="48.982813" y="22.318125" style="stroke: #000000; stroke-width: 0.8"/>
      </g>
     </g>
     <g id="text_12">
      <!-- 50 -->
      <g transform="translate(29.257813 26.117344) scale(0.1 -0.1)">
       <defs>
        <path id="DejaVuSans-35" d="M 691 4666 
L 3169 4666 
L 3169 4134 
L 1269 4134 
L 1269 2991 
Q 1406 3038 1543 3061 
Q 1681 3084 1819 3084 
Q 2600 3084 3056 2656 
Q 3513 2228 3513 1497 
Q 3513 744 3044 326 
Q 2575 -91 1722 -91 
Q 1428 -91 1123 -41 
Q 819 9 494 109 
L 494 744 
Q 775 591 1075 516 
Q 1375 441 1709 441 
Q 2250 441 2565 725 
Q 2881 1009 2881 1497 
Q 2881 1984 2565 2268 
Q 2250 2553 1709 2553 
Q 1456 2553 1204 2497 
Q 953 2441 691 2322 
L 691 4666 
z
" transform="scale(0.015625)"/>
       </defs>
       <use xlink:href="#DejaVuSans-35"/>
       <use xlink:href="#DejaVuSans-30" transform="translate(63.623047 0)"/>
      </g>
     </g>
    </g>
    <g id="text_13">
     <!-- SPL (dBA) -->
     <g transform="translate(14.798438 182.944811) rotate(-90) scale(0.1 -0.1)">
      <defs>
       <path id="DejaVuSans-53" d="M 3425 4513 
L 3425 3897 
Q 3066 4069 2747 4153 
Q 2428 4238 2131 4238 
Q 1616 4238 1336 4038 
Q 1056 3838 1056 3469 
Q 1056 3159 1242 3001 
Q 1428 2844 1947 2747 
L 2328 2669 
Q 3034 2534 3370 2195 
Q 3706 1856 3706 1288 
Q 3706 609 3251 259 
Q 2797 -91 1919 -91 
Q 1588 -91 1214 -16 
Q 841 59 441 206 
L 441 856 
Q 825 641 1194 531 
Q 1563 422 1919 422 
Q 2459 422 2753 634 
Q 3047 847 3047 1241 
Q 3047 1584 2836 1778 
Q 2625 1972 2144 2069 
L 1759 2144 
Q 1053 2284 737 2584 
Q 422 2884 422 3419 
Q 422 4038 858 4394 
Q 1294 4750 2059 4750 
Q 2388 4750 2728 4690 
Q 3069 4631 3425 4513 
z
" transform="scale(0.015625)"/>
       <path id="DejaVuSans-50" d="M 1259 4147 
L 1259 2394 
L 2053 2394 
Q 2494 2394 2734 2622 
Q 2975 2850 2975 3272 
Q 2975 3691 2734 3919 
Q 2494 4147 2053 4147 
L 1259 4147 
z
M 628 4666 
L 2053 4666 
Q 2838 4666 3239 4311 
Q 3641 3956 3641 3272 
Q 3641 2581 3239 2228 
Q 2838 1875 2053 1875 
L 1259 1875 
L 1259 0 
L 628 0 
L 628 4666 
z
" transform="scale(0.015625)"/>
       <path id="DejaVuSans-4c" d="M 628 4666 
L 1259 4666 
L 1259 531 
L 3531 531 
L 3531 0 
L 628 0 
L 628 4666 
z
" transform="scale(0.015625)"/>
       <path id="DejaVuSans-64" d="M 2906 2969 
L 2906 4863 
L 3481 4863 
L 3481 0 
L 2906 0 
L 2906 525 
Q 2725 213 2448 61 
Q 2172 -91 1784 -91 
Q 1150 -91 751 415 
Q 353 922 353 1747 
Q 353 2572 751 3078 
Q 1150 3584 1784 3584 
Q 2172 3584 2448 3432 
Q 2725 3281 2906 2969 
z
M 947 1747 
Q 947 1113 1208 752 
Q 1469 391 1925 391 
Q 2381 391 2643 752 
Q 2906 1113 2906 1747 
Q 2906 2381 2643 2742 
Q 2381 3103 1925 3103 
Q 1469 3103 1208 2742 
Q 947 2381 947 1747 
z
" transform="scale(0.015625)"/>
       <path id="DejaVuSans-42" d="M 1259 2228 
L 1259 519 
L 2272 519 
Q 2781 519 3026 730 
Q 3272 941 3272 1375 
Q 3272 1813 3026 2020 
Q 2781 2228 2272 2228 
L 1259 2228 
z
M 1259 4147 
L 1259 2741 
L 2194 2741 
Q 2656 2741 2882 2914 
Q 3109 3088 3109 3444 
Q 3109 3797 2882 3972 
Q 2656 4147 2194 4147 
L 1259 4147 
z
M 628 4666 
L 2241 4666 
Q 2963 4666 3353 4366 
Q 3744 4066 3744 3513 
Q 3744 3084 3544 2831 
Q 3344 2578 2956 2516 
Q 3422 2416 3680 2098 
Q 3938 1781 3938 1306 
Q 3938 681 3513 340 
Q 3088 0 2303 0 
L 628 0 
L 628 4666 
z
" transform="scale(0.015625)"/>
       <path id="DejaVuSans-41" d="M 2188 4044 
L 1331 1722 
L 3047 1722 
L 2188 4044 
z
M 1831 4666 
L 2547 4666 
L 4325 0 
L 3669 0 
L 3244 1197 
L 1141 1197 
L 716 0 
L 50 0 
L 1831 4666 
z
" transform="scale(0.015625)"/>
      </defs>
      <use xlink:href="#DejaVuSans-53"/>
      <use xlink:href="#DejaVuSans-50" transform="translate(63.476562 0)"/>
      <use xlink:href="#DejaVuSans-4c" transform="translate(123.779297 0)"/>
      <use xlink:href="#DejaVuSans-20" transform="translate(179.492188 0)"/>
      <use xlink:href="#DejaVuSans-28" transform="translate(211.279297 0)"/>
      <use xlink:href="#DejaVuSans-64" transform="translate(250.292969 0)"/>
      <use xlink:href="#DejaVuSans-42" transform="translate(313.769531 0)"/>
      <use xlink:href="#DejaVuSans-41" transform="translate(382.373047 0)"/>
      <use xlink:href="#DejaVuSans-29" transform="translate(450.78125 0)"/>
     </g>
    </g>
   </g>
   <g id="line2d_55">
    <path d="M 51.493242 123.546693 
L 57.198394 119.351331 
L 62.625131 118.381491 
L 67.79937 119.844346 
L 72.743565 123.960419 
L 77.477304 126.476947 
L 82.017775 126.619506 
L 86.38014 124.987109 
L 90.577849 123.762292 
L 94.622879 119.271182 
L 98.525949 123.607325 
L 102.296685 122.446966 
L 105.943768 121.0579 
L 109.475052 124.415776 
L 112.897663 126.501035 
L 116.218091 120.765951 
L 119.44226 114.371011 
L 122.575596 120.978749 
L 128.589281 125.152503 
L 131.478432 124.56245 
L 134.294433 119.593242 
L 137.040895 119.698073 
L 139.721171 114.713967 
L 142.338376 108.507085 
L 147.394977 99.666694 
L 149.839605 96.441017 
L 152.231656 92.228852 
L 154.573344 92.801447 
L 159.113814 96.865371 
L 161.316383 99.351143 
L 163.47618 95.357183 
L 165.594836 95.313551 
L 167.673888 92.922734 
L 169.714791 89.260642 
L 171.718919 92.128916 
L 173.687573 95.892294 
L 175.621988 98.534263 
L 177.523335 103.03234 
L 179.392725 103.463483 
L 181.231214 100.246683 
L 183.039808 95.989124 
L 184.819463 91.493822 
L 186.571091 88.621681 
L 188.295561 88.904801 
L 189.993702 91.104599 
L 191.666306 93.984627 
L 193.31413 96.285737 
L 194.937897 97.264632 
L 198.116001 101.22109 
L 199.671636 104.250515 
L 201.205813 107.692359 
L 202.719116 110.04508 
L 204.212106 110.377653 
L 205.685321 102.879276 
L 207.139277 100.09839 
L 208.574472 100.671739 
L 209.991384 101.937513 
L 211.390472 104.134793 
L 212.77218 106.028502 
L 215.485146 104.570526 
L 216.817211 105.705474 
L 218.133511 105.803374 
L 219.434416 103.055613 
L 220.720281 104.514743 
L 221.99145 107.029661 
L 223.248255 110.24046 
L 224.491017 111.00105 
L 225.720047 114.280976 
L 226.935645 109.410178 
L 228.1381 102.541236 
L 229.327695 98.813845 
L 230.504702 96.604112 
L 231.669383 93.291732 
L 232.821996 90.387657 
L 233.962786 89.986048 
L 235.091994 90.769674 
L 236.209854 89.19522 
L 237.31659 89.075163 
L 238.412422 91.488762 
L 239.497563 99.383733 
L 240.572219 105.464839 
L 241.636592 108.331601 
L 242.690875 108.146704 
L 243.735259 102.954661 
L 244.769928 96.277979 
L 245.79506 94.174142 
L 246.810831 92.768822 
L 247.817408 94.097603 
L 248.814958 96.955174 
L 250.783613 92.326491 
L 251.755026 92.944221 
L 253.672764 88.417781 
L 254.619375 89.175696 
L 255.557997 92.80148 
L 256.488765 97.34912 
L 257.411808 103.543422 
L 258.327254 107.930662 
L 259.235227 105.988343 
L 260.135848 101.959611 
L 261.029235 99.265934 
L 261.915503 99.499672 
L 262.794765 100.031987 
L 263.667131 102.34153 
L 264.532708 105.240504 
L 265.391601 106.695285 
L 266.243912 107.554437 
L 267.089742 109.273074 
L 267.929188 109.485768 
L 268.762346 109.282392 
L 269.589309 110.218591 
L 270.41017 109.462219 
L 271.225016 109.61318 
L 272.033937 110.856376 
L 272.837017 113.617493 
L 273.634339 117.921641 
L 274.425987 118.767551 
L 275.212041 119.930797 
L 276.767675 116.932079 
L 277.537409 112.380493 
L 278.301853 112.418955 
L 279.061078 104.51922 
L 279.815156 98.345334 
L 280.564156 95.009897 
L 281.308146 89.640079 
L 282.047192 88.182783 
L 282.78136 88.259687 
L 283.510714 88.694132 
L 284.235317 89.352532 
L 284.955229 88.789283 
L 285.670512 90.720276 
L 286.381224 93.639347 
L 287.087423 98.516747 
L 289.86822 124.352607 
L 290.55269 120.228799 
L 291.232974 115.260302 
L 291.909123 112.928404 
L 292.581186 114.892057 
L 293.249212 117.586431 
L 293.91325 116.787545 
L 296.530455 110.359782 
L 297.175246 110.847558 
L 297.81632 112.13828 
L 298.453721 108.671256 
L 299.087489 106.153772 
L 300.344294 103.420852 
L 300.967411 102.334882 
L 302.203269 97.355979 
L 302.816087 97.759043 
L 303.425546 96.68751 
L 304.031684 97.11052 
L 304.634537 99.97293 
L 305.23414 100.20183 
L 305.830528 103.674765 
L 306.423735 106.297347 
L 307.013795 107.903128 
L 307.600741 107.180779 
L 308.184607 108.261977 
L 308.765423 111.67753 
L 309.343222 112.430752 
L 309.918035 112.195189 
L 311.058825 113.078532 
L 311.624863 113.898112 
L 312.188034 118.204984 
L 312.748368 121.206037 
L 313.305893 119.539048 
L 314.961895 105.951418 
L 316.052356 100.216904 
L 316.593603 100.686033 
L 317.132229 102.610626 
L 318.201719 108.872891 
L 318.732632 110.851075 
L 319.261022 111.726815 
L 319.786915 111.886901 
L 320.310333 112.238514 
L 320.831299 112.443766 
L 321.349836 113.039328 
L 321.865968 114.380254 
L 322.379715 117.464399 
L 322.8911 117.635224 
L 323.400145 119.028276 
L 323.90687 116.156759 
L 324.411298 115.745653 
L 324.913448 118.253852 
L 325.413341 119.661589 
L 325.910998 125.585804 
L 326.406438 129.333784 
L 326.899681 131.358309 
L 327.390746 132.62703 
L 327.879652 129.109018 
L 328.366419 129.566261 
L 329.814068 139.270872 
L 330.29246 137.830771 
L 331.243116 131.47648 
L 332.185716 124.136575 
L 333.584804 116.475914 
L 334.047283 114.631976 
L 334.507847 113.986476 
L 334.966512 114.495363 
L 335.423294 111.684611 
L 336.331266 109.804999 
L 336.782489 106.497677 
L 337.231887 107.117854 
L 337.679478 109.812581 
L 338.125274 111.544408 
L 338.569291 112.293759 
L 339.011543 112.485846 
L 339.452042 114.612917 
L 339.890805 115.528173 
L 340.327843 116.044318 
L 340.76317 117.231774 
L 341.196801 115.134163 
L 341.628747 118.677488 
L 342.059023 123.657021 
L 342.48764 124.294259 
L 342.914612 125.170331 
L 343.76367 122.144572 
L 344.185781 119.245403 
L 345.025227 117.251431 
L 345.442586 119.354202 
L 345.858385 122.117046 
L 346.272636 126.256448 
L 346.685349 125.958147 
L 347.096536 122.565515 
L 347.506209 117.438473 
L 347.914379 118.30824 
L 348.321056 119.981993 
L 348.726251 120.662202 
L 349.532241 121.471268 
L 349.933056 122.404137 
L 350.332432 121.570942 
L 350.730379 117.56226 
L 351.522027 112.948322 
L 351.915748 112.523989 
L 352.699034 90.45848 
L 353.088617 110.588378 
L 353.476841 119.874828 
L 353.863715 120.680443 
L 354.633449 117.942691 
L 355.016327 118.323613 
L 355.397892 123.199129 
L 355.778153 124.810655 
L 356.157118 124.10015 
L 356.534795 124.565076 
L 356.911195 124.687244 
L 357.286326 124.56019 
L 358.032812 131.507589 
L 358.774322 139.863376 
L 359.143232 141.012224 
L 359.510922 138.661413 
L 359.8774 140.787333 
L 360.242675 139.229632 
L 360.606754 138.537531 
L 360.969645 141.573182 
L 361.331356 140.657445 
L 362.051269 139.739578 
L 362.409485 140.473893 
L 362.766551 141.603798 
L 363.122475 139.136871 
L 363.477263 137.643666 
L 363.830924 136.908649 
L 364.183463 139.376205 
L 364.534889 136.969188 
L 364.885207 132.635368 
L 365.234426 130.791905 
L 365.582552 132.081809 
L 365.929591 135.067122 
L 366.620439 138.00237 
L 366.96426 140.481493 
L 367.307021 139.793819 
L 367.989392 147.054684 
L 368.329014 149.163092 
L 368.667602 145.987035 
L 369.005162 145.539706 
L 369.341702 147.121714 
L 369.677225 146.492365 
L 370.01174 145.138275 
L 370.345252 144.541634 
L 370.677766 141.987568 
L 371.00929 142.862256 
L 371.339828 140.834893 
L 371.997973 142.731289 
L 372.32559 140.895479 
L 372.652246 137.677852 
L 372.977945 137.16994 
L 373.302692 134.967216 
L 373.626495 135.915246 
L 373.949357 134.968778 
L 374.271286 136.012689 
L 374.91236 131.152734 
L 375.231517 130.891378 
L 375.54976 131.613372 
L 375.867096 132.000567 
L 376.183529 129.621012 
L 376.499064 128.7099 
L 376.813707 126.913513 
L 377.127461 129.073157 
L 377.440334 129.536142 
L 377.752329 129.634852 
L 378.063451 130.589891 
L 378.373705 135.467577 
L 378.991629 140.90323 
L 379.299309 139.968704 
L 379.912126 137.414222 
L 380.217273 136.208768 
L 380.521586 136.357295 
L 380.825068 135.217981 
L 381.127724 136.226725 
L 381.429559 136.673579 
L 381.730577 138.089014 
L 382.030782 140.772687 
L 382.33018 140.937885 
L 382.926567 143.478244 
L 383.519775 141.088576 
L 383.815196 138.424225 
L 384.403695 130.837652 
L 384.696781 128.554126 
L 384.989097 128.574505 
L 385.571434 131.171219 
L 385.861463 131.884776 
L 386.439262 137.927787 
L 386.72704 137.031923 
L 387.014075 137.629226 
L 387.300371 138.613401 
L 387.870762 141.259037 
L 388.438244 143.474708 
L 388.720902 146.266542 
L 389.002844 144.430358 
L 389.284073 145.762858 
L 389.564593 149.33815 
L 389.844407 150.164014 
L 390.123519 151.851042 
L 390.401933 154.44894 
L 390.679651 154.733725 
L 390.956677 152.513249 
L 391.233016 151.944365 
L 391.783641 157.400256 
L 392.331554 160.865017 
L 392.604501 160.638237 
L 393.419348 164.067939 
L 393.689642 163.228971 
L 393.959281 163.411171 
L 394.228268 164.889093 
L 394.496606 162.741263 
L 394.764299 158.364859 
L 395.031348 156.955693 
L 395.297758 153.729843 
L 395.563531 148.800906 
L 395.828671 147.907754 
L 396.09318 148.241626 
L 396.357062 147.793944 
L 396.882955 149.853417 
L 397.144971 148.080687 
L 397.406372 148.084946 
L 397.667161 147.594728 
L 397.927339 149.790365 
L 398.18691 149.217623 
L 398.445876 149.717644 
L 398.704241 148.550748 
L 398.962007 148.242269 
L 399.475754 154.912794 
L 399.731741 154.249637 
L 399.98714 154.338927 
L 400.241953 153.421121 
L 400.496184 151.397582 
L 400.749836 146.307399 
L 401.00291 148.509708 
L 401.25541 148.339891 
L 401.507337 146.384064 
L 401.758696 146.568444 
L 402.009488 145.86066 
L 402.509381 149.515792 
L 402.758488 148.679411 
L 403.007038 148.512709 
L 403.502477 151.76988 
L 404.241524 161.772947 
L 404.486785 161.181373 
L 404.731507 158.658287 
L 404.975692 158.153881 
L 405.462459 151.520391 
L 405.705046 148.960143 
L 405.947105 149.509146 
L 406.188638 150.344064 
L 406.429648 149.97231 
L 406.670137 149.230914 
L 406.910107 147.300624 
L 407.3885 146.924396 
L 407.626927 148.111163 
L 407.864843 148.489092 
L 408.102252 149.163522 
L 408.339156 149.496173 
L 408.575556 150.036948 
L 408.811454 149.929101 
L 409.281755 147.44344 
L 409.516162 147.63717 
L 409.750076 148.232247 
L 409.983499 150.018 
L 410.216434 147.822914 
L 410.448881 147.77025 
L 410.680844 149.794339 
L 410.912324 150.720102 
L 411.143323 151.18505 
L 411.373843 148.120725 
L 411.603887 146.651106 
L 411.833456 147.4765 
L 412.747022 157.619667 
L 412.974246 157.396724 
L 413.201007 155.736319 
L 413.653146 155.002019 
L 413.878528 154.408149 
L 414.103455 157.222381 
L 414.327927 156.960542 
L 414.551947 157.148707 
L 414.998639 155.222062 
L 415.665331 162.1063 
L 415.886676 161.83346 
L 416.76768 156.772663 
L 416.986844 152.389894 
L 417.205578 154.956641 
L 417.423882 154.46533 
L 417.641759 151.584243 
L 418.076237 155.295128 
L 418.292841 159.152671 
L 418.724787 152.909844 
L 419.155063 146.173812 
L 419.369578 144.839515 
L 419.58368 142.696777 
L 419.797371 143.604603 
L 420.010652 143.307621 
L 420.223525 141.644393 
L 420.435991 144.183638 
L 420.648052 144.057035 
L 421.070966 148.12834 
L 421.492277 151.105884 
L 421.911999 150.188652 
L 422.121267 149.396464 
L 422.330142 150.454354 
L 422.538626 149.298499 
L 422.74672 151.931977 
L 422.954425 152.111752 
L 423.161743 153.686628 
L 423.368675 154.304359 
L 423.781388 152.142125 
L 424.192576 157.96404 
L 424.397601 159.369007 
L 424.602249 159.286563 
L 424.806521 158.711805 
L 425.010418 159.82504 
L 425.213943 156.728392 
L 425.417095 157.673366 
L 425.619878 157.912938 
L 425.822291 159.002523 
L 426.024337 158.723041 
L 426.226016 157.84305 
L 426.628281 155.167112 
L 426.828869 155.225842 
L 427.029096 153.453692 
L 427.228963 154.066816 
L 427.428472 156.765224 
L 427.627623 153.230507 
L 427.826419 153.309416 
L 428.420682 147.391593 
L 428.618067 146.588754 
L 429.011788 148.275874 
L 429.40412 145.348892 
L 429.599768 146.449008 
L 430.184657 153.741847 
L 430.378938 152.750853 
L 430.959755 146.124495 
L 431.152688 147.219486 
L 431.537554 151.740011 
L 432.112367 148.044574 
L 432.303313 148.95719 
L 432.684225 151.770455 
L 432.874192 151.43207 
L 433.063836 149.801411 
L 433.253157 152.570438 
L 433.630835 154.190154 
L 433.819194 153.189604 
L 434.007235 154.170886 
L 434.194958 157.596372 
L 434.382366 156.83689 
L 434.569457 158.564402 
L 434.756235 162.973757 
L 434.9427 162.991963 
L 435.314693 159.612881 
L 435.500225 159.900112 
L 436.05497 165.193323 
L 436.423268 160.676367 
L 436.606961 161.215657 
L 436.790351 162.798528 
L 436.973439 161.282255 
L 437.156227 162.481978 
L 437.520903 159.915154 
L 437.884387 161.379965 
L 438.065685 159.653199 
L 438.246687 160.921551 
L 438.427396 161.159069 
L 438.607811 160.500535 
L 438.787934 160.587466 
L 438.967766 160.213561 
L 439.326561 161.890803 
L 439.505525 161.99548 
L 439.684201 160.949729 
L 440.040695 156.10413 
L 440.218515 155.455295 
L 440.39605 153.253574 
L 440.750274 159.760768 
L 440.926963 161.353548 
L 441.103373 164.140956 
L 441.455354 162.258493 
L 441.806225 165.912223 
L 441.981247 165.515727 
L 442.155993 166.577946 
L 442.330466 165.198054 
L 442.504665 162.593841 
L 442.678591 162.435485 
L 442.852246 166.919706 
L 443.371591 168.529465 
L 443.544168 170.042794 
L 443.716478 167.835013 
L 444.060299 168.884454 
L 444.231812 167.548387 
L 444.403061 167.255547 
L 444.574047 167.702409 
L 444.74477 166.544991 
L 444.915231 167.447561 
L 445.255372 166.631247 
L 445.425054 164.492544 
L 445.594476 163.910036 
L 445.93255 161.159973 
L 446.101202 160.93051 
L 446.269599 163.097501 
L 446.437741 167.167137 
L 446.60563 167.607659 
L 446.773265 167.167252 
L 446.940648 165.72248 
L 447.10778 161.963318 
L 447.274661 161.891124 
L 447.939691 166.628477 
L 448.270722 170.836365 
L 448.60077 166.470122 
L 448.765427 168.732986 
L 448.929841 167.290844 
L 449.257942 161.234569 
L 449.42163 161.741112 
L 449.911254 169.041904 
L 450.073984 168.983595 
L 450.236477 167.958423 
L 450.560751 163.275489 
L 450.722535 164.110123 
L 450.884083 163.32299 
L 451.045397 163.673358 
L 451.206478 168.002492 
L 451.367325 168.061931 
L 451.52794 168.314931 
L 451.688324 168.852476 
L 452.008399 174.533376 
L 452.168092 175.762733 
L 452.327556 176.111821 
L 452.486792 175.100639 
L 452.6458 174.895638 
L 453.121464 170.331751 
L 453.279568 169.435828 
L 453.437448 170.598852 
L 453.595104 169.45215 
L 453.909746 172.821196 
L 454.066734 172.086497 
L 454.223501 172.961403 
L 454.380047 172.407785 
L 454.69248 169.645048 
L 455.314726 174.224304 
L 455.469745 173.385509 
L 455.624548 173.411378 
L 455.933509 169.009139 
L 456.702179 177.435194 
L 457.160844 174.344517 
L 457.313313 175.240857 
L 457.465573 177.522304 
L 457.617625 176.628157 
L 457.921107 176.379519 
L 458.223763 177.517051 
L 458.374783 175.237593 
L 458.525598 178.132332 
L 458.676209 178.299099 
L 458.826616 178.908072 
L 459.126822 177.961045 
L 459.426219 180.985108 
L 459.575616 178.310114 
L 459.724813 179.253888 
L 460.022607 177.237552 
L 460.171206 177.558874 
L 460.319606 177.20403 
L 460.467809 178.296406 
L 460.763623 178.253929 
L 460.911236 178.311215 
L 461.058652 179.254299 
L 461.205874 178.580833 
L 461.499735 183.341037 
L 461.646374 182.388375 
L 462.085136 170.909675 
L 462.231007 169.815016 
L 462.376686 170.851742 
L 462.522175 171.042972 
L 462.667473 174.086073 
L 462.957502 171.873325 
L 463.102234 172.041378 
L 463.246777 171.396849 
L 463.391133 169.766045 
L 463.966689 176.535667 
L 464.253355 174.771042 
L 464.396411 176.108821 
L 464.824478 183.584958 
L 464.966802 184.163314 
L 465.108944 183.517576 
L 465.392684 176.844526 
L 465.534283 176.781267 
L 465.675702 176.957533 
L 465.816942 178.016803 
L 465.958002 177.735263 
L 466.098884 175.945109 
L 466.239587 176.565728 
L 466.380113 179.147872 
L 466.660633 178.621364 
L 466.800628 177.130521 
L 467.080091 179.503732 
L 467.219559 179.955091 
L 467.497972 183.382509 
L 467.636918 184.708976 
L 467.775691 183.573708 
L 467.91429 185.014751 
L 468.052717 185.031805 
L 468.190972 185.593976 
L 468.329055 185.50046 
L 468.74228 179.420068 
L 468.879681 179.255321 
L 469.016912 179.326332 
L 469.153974 180.081903 
L 469.290868 182.076372 
L 469.427593 180.360435 
L 469.564151 181.265228 
L 469.700541 181.116348 
L 469.836764 180.431549 
L 469.97282 181.587459 
L 470.10871 181.447495 
L 470.244435 183.935884 
L 470.515388 180.565367 
L 470.650617 182.208643 
L 470.785682 181.36974 
L 470.920583 181.345349 
L 471.189896 183.954536 
L 471.324308 189.26684 
L 471.458558 186.913107 
L 471.592646 188.01837 
L 471.726573 187.957171 
L 471.860338 185.890707 
L 471.993943 186.339529 
L 472.127388 187.625955 
L 472.260673 184.56837 
L 472.526764 186.689741 
L 472.659571 184.947167 
L 472.79222 186.001443 
L 472.924711 185.346318 
L 473.18922 178.642763 
L 473.321239 179.094714 
L 473.584808 176.630648 
L 473.716359 175.370815 
L 473.847754 175.772095 
L 474.11008 180.366459 
L 474.241011 179.947141 
L 474.502412 183.026653 
L 474.632883 183.107932 
L 474.7632 180.885828 
L 475.023378 185.505615 
L 475.153239 186.413459 
L 475.412508 186.192243 
L 475.541916 186.252921 
L 475.671173 187.814917 
L 475.929238 184.784878 
L 476.058047 186.202597 
L 476.186706 185.748294 
L 476.44358 186.615759 
L 476.699861 184.006243 
L 476.827781 185.604994 
L 477.083179 181.93825 
L 477.210659 183.012344 
L 477.337993 182.96936 
L 477.592224 184.603518 
L 477.845875 186.911144 
L 478.09895 185.772 
L 478.225271 183.925373 
L 478.477484 185.936451 
L 478.603377 181.192832 
L 478.854735 185.493283 
L 478.980202 184.519617 
L 479.105527 187.702764 
L 479.230711 185.262959 
L 479.355755 185.261405 
L 479.605421 179.529449 
L 479.854527 183.364002 
L 480.103077 179.434173 
L 480.227144 180.831115 
L 480.351073 180.946751 
L 480.474864 182.925086 
L 480.722033 189.915434 
L 480.845412 189.463128 
L 480.968654 184.81869 
L 481.337563 192.470018 
L 481.460262 189.98955 
L 481.705253 194.039166 
L 481.827547 194.392749 
L 482.071732 196.883082 
L 482.315381 192.836877 
L 482.437006 193.574426 
L 482.558499 193.966271 
L 483.043145 183.881054 
L 483.284678 188.730673 
L 483.405248 187.213249 
L 483.645997 190.019103 
L 483.766177 188.080623 
L 484.2456 195.35295 
L 484.365134 193.858941 
L 484.484539 195.215134 
L 484.722966 193.252475 
L 484.841988 193.493263 
L 484.960883 194.441847 
L 485.079651 192.291037 
L 485.435195 195.528747 
L 485.553458 194.45644 
L 485.671595 194.746916 
L 485.907494 195.978388 
L 486.025255 195.922292 
L 486.260406 193.298915 
L 486.377795 193.326974 
L 486.49506 196.708744 
L 486.612202 196.702167 
L 486.72922 194.555029 
L 486.962889 197.520198 
L 487.079539 199.722038 
L 487.428758 195.859326 
L 487.544921 195.650532 
L 487.776883 198.448146 
L 488.239363 192.248389 
L 488.354682 192.941438 
L 488.584964 200.005731 
L 488.699927 199.605333 
L 489.158592 194.093379 
L 489.272963 194.423938 
L 489.387217 195.121762 
L 489.729276 200.983531 
L 489.843062 203.116436 
L 490.070286 198.519742 
L 490.183724 198.848324 
L 490.410254 195.349202 
L 490.523346 195.789456 
L 490.749186 193.866205 
L 490.861934 194.026471 
L 490.974568 193.870849 
L 491.087088 194.051135 
L 491.311787 191.23348 
L 491.423967 193.004419 
L 491.536033 192.148748 
L 491.983174 197.698809 
L 492.094679 197.041862 
L 492.206072 196.393469 
L 492.317354 196.921297 
L 492.650532 193.860026 
L 492.76137 194.834118 
L 493.203622 191.436712 
L 493.42409 194.981621 
L 493.644122 192.856262 
L 493.753975 191.827296 
L 493.863719 192.368485 
L 494.082884 194.259727 
L 494.410823 197.907386 
L 494.628914 195.138177 
L 494.737799 195.065963 
L 494.846577 193.282236 
L 494.95525 194.953107 
L 495.280631 192.538465 
L 495.38888 193.682638 
L 495.497024 192.815958 
L 495.605063 193.737966 
L 495.712997 192.896442 
L 495.820827 193.799833 
L 496.036172 199.208394 
L 496.143689 198.942426 
L 496.251102 195.30675 
L 496.358411 196.02157 
L 496.465617 194.166781 
L 496.57272 197.568956 
L 496.679719 194.563644 
L 496.89341 199.894479 
L 497.106692 195.655236 
L 497.213179 195.883389 
L 497.319564 197.155474 
L 497.425848 194.312131 
L 497.849971 199.730831 
L 498.061428 196.141338 
L 498.272483 196.643837 
L 498.483138 194.665869 
L 498.903256 201.006209 
L 499.112722 203.548161 
L 499.217307 203.602195 
L 499.321793 207.61041 
L 499.426182 206.367768 
L 499.530473 206.747483 
L 499.738761 209.477676 
L 499.842759 208.339433 
L 499.94666 210.653329 
L 500.050465 210.341561 
L 500.154172 208.428581 
L 500.257783 208.71749 
L 500.568037 202.775381 
L 500.671263 203.114618 
L 500.774393 199.882148 
L 501.083212 202.712478 
L 501.185961 201.851954 
L 501.288615 202.666021 
L 501.698288 198.938508 
L 501.800471 195.519282 
L 502.004556 198.059823 
L 502.208267 199.087605 
L 502.411605 201.437635 
L 502.715917 205.843872 
L 502.81717 205.288068 
L 503.019399 204.683538 
L 503.120376 205.48202 
L 503.221262 203.84265 
L 503.322056 204.862582 
L 503.422758 204.747917 
L 503.52337 201.273718 
L 503.62389 201.347061 
L 503.82466 206.177426 
L 504.025067 200.871773 
L 504.225114 202.61122 
L 504.325003 201.851986 
L 504.524511 204.338912 
L 504.624132 204.423698 
L 504.723663 203.638353 
L 504.922458 201.134425 
L 505.021723 202.43228 
L 505.219987 199.010215 
L 505.417898 200.349256 
L 505.516722 198.387436 
L 505.812667 204.406921 
L 506.009528 202.425028 
L 506.107827 205.709195 
L 506.20604 203.731489 
L 506.304166 204.730791 
L 506.402206 204.11686 
L 506.598027 204.912758 
L 506.695808 205.894757 
L 506.793503 204.972142 
L 506.891113 205.900503 
L 506.988637 204.112159 
L 507.280697 207.020994 
L 507.474978 204.047016 
L 507.668921 206.561214 
L 507.862526 204.530523 
L 507.959202 204.960983 
L 508.248728 203.13662 
L 508.345069 205.63183 
L 508.441327 205.069361 
L 508.537502 203.164271 
L 508.633593 203.405276 
L 508.729602 203.823479 
L 509.017132 211.239349 
L 509.208406 211.204077 
L 509.30392 211.692565 
L 509.399353 209.776676 
L 509.589971 210.795617 
L 509.780264 205.807591 
L 510.159876 201.59665 
L 510.443737 203.022431 
L 510.538196 203.166598 
L 511.009294 209.24396 
L 511.197176 211.539799 
L 511.478405 207.462049 
L 511.57199 210.465685 
L 511.665497 209.100053 
L 512.038739 213.223233 
L 512.317851 207.116406 
L 512.410733 208.864008 
L 512.503538 208.649782 
L 512.596265 209.208011 
L 512.688914 208.94118 
L 512.873983 206.461917 
L 512.966402 206.843631 
L 513.058744 207.346848 
L 513.243198 209.004253 
L 513.335311 208.24937 
L 513.427347 208.692787 
L 513.519308 208.644044 
L 513.703001 211.275962 
L 513.886391 208.649681 
L 513.977973 208.556162 
L 514.069479 208.640016 
L 514.252266 203.921174 
L 514.434754 208.649968 
L 514.525885 208.182013 
L 514.616942 208.703175 
L 514.798833 212.271713 
L 514.980427 205.413476 
L 515.161724 206.139081 
L 515.523435 210.514222 
L 515.61368 207.965006 
L 515.703851 208.850926 
L 515.793949 208.29178 
L 515.883974 206.740328 
L 515.973926 208.25618 
L 516.153613 205.351364 
L 516.243348 206.840081 
L 516.4226 206.025422 
L 516.601564 209.688136 
L 516.690938 208.241764 
L 516.780241 209.210044 
L 516.869471 207.963279 
L 516.95863 204.446269 
L 517.136735 207.316283 
L 517.22568 206.114351 
L 517.580752 202.385386 
L 517.669343 205.827136 
L 517.757863 204.360091 
L 518.023003 210.854794 
L 518.111243 209.550304 
L 518.199412 210.03005 
L 518.375542 213.194969 
L 518.463503 212.58859 
L 518.551394 212.309651 
L 518.726968 209.021963 
L 518.814651 209.373523 
L 519.077286 213.421976 
L 519.164694 210.976221 
L 519.339303 214.235283 
L 519.426505 215.707545 
L 519.513639 215.01108 
L 519.600704 212.461965 
L 519.774631 214.628944 
L 519.948286 211.702124 
L 520.12167 215.163174 
L 520.208261 216.100086 
L 520.294785 215.814384 
L 520.381241 214.023047 
L 520.46763 214.600965 
L 520.640208 210.692312 
L 520.898573 214.069937 
L 521.070483 215.171631 
L 521.156339 213.864025 
L 521.327852 214.959966 
L 521.413509 212.989966 
L 521.584626 214.018281 
L 521.670086 213.322766 
L 522.266474 220.46048 
L 522.436285 217.271988 
L 522.605837 213.476449 
L 522.944167 217.63149 
L 523.02859 216.91238 
L 523.112948 214.874031 
L 523.197242 215.064511 
L 523.281472 219.06275 
L 523.365638 218.494652 
L 523.617757 215.741926 
L 523.701669 216.035976 
L 523.869305 218.661747 
L 524.036688 215.854757 
L 524.120285 212.154451 
L 524.287291 216.416568 
L 524.3707 219.458121 
L 524.454047 217.567671 
L 524.537331 217.903853 
L 524.620553 218.518007 
L 524.703713 221.34589 
L 524.869846 218.299738 
L 525.118581 219.018572 
L 525.284096 224.064957 
L 525.449365 218.848843 
L 525.614389 219.571075 
L 525.861467 216.086663 
L 525.943704 216.5441 
L 526.025881 215.821175 
L 526.107997 216.7174 
L 526.272047 219.693081 
L 526.435856 217.196328 
L 526.681117 219.881804 
L 526.844325 216.55268 
L 526.925839 218.817286 
L 527.007294 217.354586 
L 527.088688 217.650096 
L 527.170024 217.651498 
L 527.494772 222.489165 
L 527.575811 220.394953 
L 527.656791 220.493038 
L 527.899378 222.398249 
L 527.980123 222.301446 
L 528.060809 224.607221 
L 528.141437 223.717774 
L 528.302517 220.835267 
L 528.38297 221.537495 
L 528.463365 219.246056 
L 528.864469 223.544743 
L 528.944517 224.151275 
L 529.024507 222.066619 
L 529.104439 222.790555 
L 529.264132 219.480869 
L 529.503242 225.324136 
L 529.662364 223.026755 
L 529.741839 224.499378 
L 529.821258 223.276717 
L 530.059175 226.512608 
L 530.138368 227.386291 
L 530.375608 223.401757 
L 530.454576 225.058738 
L 530.533487 224.422563 
L 530.691143 222.214272 
L 530.769887 223.343643 
L 530.927208 220.136919 
L 531.005786 222.776956 
L 531.084307 222.744173 
L 531.162774 221.159703 
L 531.319541 228.271874 
L 531.397841 227.591385 
L 531.476087 225.680444 
L 531.632413 227.470417 
L 531.710494 227.580795 
L 531.78852 226.522979 
L 531.866491 226.859225 
L 531.944408 227.519587 
L 532.02227 230.684017 
L 532.410765 222.757974 
L 532.488302 221.453298 
L 532.797908 229.864038 
L 532.952389 229.353557 
L 533.183709 223.660366 
L 533.260708 224.087024 
L 533.491388 226.315355 
L 533.568175 225.845212 
L 533.644909 226.754976 
L 533.798219 231.152437 
L 533.951317 229.595895 
L 534.104205 231.19341 
L 534.256884 225.420543 
L 534.333144 227.791377 
L 534.485509 225.73199 
L 534.561613 225.67531 
L 534.637665 225.823094 
L 534.713665 225.27319 
L 534.789613 228.533777 
L 534.941354 224.963785 
L 535.017147 225.977191 
L 535.244216 223.700662 
L 535.319803 224.897896 
L 535.470823 222.235461 
L 535.546256 222.394397 
L 535.621638 224.640552 
L 535.696969 221.652665 
L 535.772249 223.315115 
L 535.847478 227.848859 
L 535.922656 226.991941 
L 535.997783 226.493236 
L 536.147886 229.925563 
L 536.222861 229.738019 
L 536.297786 228.748533 
L 536.372661 229.86825 
L 536.522259 226.22754 
L 536.671656 230.855334 
L 536.746279 228.757557 
L 536.820852 229.763912 
L 536.895376 230.389803 
L 536.969849 234.674365 
L 537.192971 227.160107 
L 537.267245 227.493032 
L 537.415646 229.273948 
L 537.489772 227.665912 
L 537.563848 229.18643 
L 537.637876 228.63075 
L 537.711854 228.754073 
L 537.785783 228.635992 
L 537.859663 229.370131 
L 538.007275 226.958997 
L 538.228327 233.87458 
L 538.301914 233.287448 
L 538.448941 237.518587 
L 538.669118 228.063053 
L 538.742414 228.163198 
L 538.815661 230.196868 
L 538.88886 230.088312 
L 539.181176 226.22535 
L 539.327046 227.880373 
L 539.39991 227.981439 
L 539.618214 232.021524 
L 539.763513 232.51255 
L 539.836091 232.384486 
L 540.053542 228.194373 
L 540.125931 228.84601 
L 540.270568 230.293853 
L 540.342817 230.354577 
L 540.487172 231.565157 
L 540.55928 234.294089 
L 540.631341 234.243636 
L 540.703355 234.812069 
L 540.990947 231.127795 
L 541.062729 231.454803 
L 541.134465 232.722289 
L 541.206154 230.876121 
L 541.277797 231.347541 
L 541.420945 233.443518 
L 541.778012 228.935532 
L 541.991703 231.73739 
L 542.204984 238.994164 
L 542.346944 237.695194 
L 542.417857 238.807482 
L 542.488724 238.3214 
L 542.559546 237.853213 
L 542.771742 232.391917 
L 542.912981 232.772952 
L 543.124505 236.012267 
L 543.194923 235.728754 
L 543.265297 238.718162 
L 543.405912 235.331846 
L 543.546349 238.569162 
L 543.616501 237.982416 
L 543.686609 238.869526 
L 543.966599 233.213878 
L 544.036487 233.321731 
L 544.10633 232.947544 
L 544.17613 233.299837 
L 544.315599 228.39385 
L 544.594012 232.977013 
L 544.732958 232.041263 
L 544.802366 233.424178 
L 544.87173 232.911767 
L 544.941052 232.484558 
L 545.01033 232.696887 
L 545.079565 233.635339 
L 545.148757 233.412782 
L 545.287012 230.792622 
L 545.356075 231.539655 
L 545.631899 234.465109 
L 545.700748 233.302313 
L 545.769555 233.831459 
L 545.907041 236.49059 
L 545.97572 236.229848 
L 546.455291 229.360761 
L 546.728406 233.790272 
L 546.796581 232.184088 
L 547.000853 237.431857 
L 547.06886 237.386488 
L 547.272633 240.085605 
L 547.476033 235.328292 
L 547.543751 236.171718 
L 547.679062 232.164895 
L 547.881722 233.086629 
L 548.084012 235.005064 
L 548.151361 231.791487 
L 548.285935 236.130183 
L 548.353162 235.717458 
L 548.420348 235.306549 
L 548.487493 233.995289 
L 548.621662 236.668373 
L 548.688686 235.609157 
L 548.889515 239.210551 
L 548.956378 238.343612 
L 549.0232 240.144694 
L 549.223427 235.495208 
L 549.29009 237.393428 
L 549.423295 234.880788 
L 549.55634 237.702176 
L 549.689227 234.883812 
L 549.755611 235.517795 
L 549.821955 237.753476 
L 549.88826 237.185018 
L 549.954525 235.810586 
L 550.02075 236.706821 
L 550.086937 237.698552 
L 550.219191 236.348478 
L 550.351289 238.571232 
L 550.680848 232.285179 
L 550.878115 235.035614 
L 550.943794 234.481147 
L 551.075034 238.672708 
L 551.140596 236.231286 
L 551.206119 236.805058 
L 551.337051 239.789211 
L 551.467828 238.526096 
L 551.533159 238.716713 
L 551.598452 240.794742 
L 551.663706 237.618342 
L 551.728922 240.45339 
L 551.85924 237.590929 
L 552.119418 242.67529 
L 552.184367 243.701439 
L 552.378989 240.722014 
L 552.443787 240.047393 
L 552.508547 237.505397 
L 552.637955 240.510125 
L 552.702603 239.096661 
L 552.89632 232.234132 
L 553.025278 234.684945 
L 553.089701 233.421502 
L 553.154086 233.903975 
L 553.282746 238.243936 
L 553.411257 237.321497 
L 553.475456 237.422062 
L 553.731886 241.014447 
L 553.859879 238.423484 
L 553.987725 241.799436 
L 554.051593 241.06855 
L 554.115424 239.816868 
L 554.306699 241.378724 
L 554.370384 241.417719 
L 554.434032 240.205217 
L 554.561221 241.85998 
L 554.62476 241.29622 
L 554.688264 241.739967 
L 554.815162 245.580456 
L 555.005237 242.734029 
L 555.068524 243.032559 
L 555.194989 239.8946 
L 555.258168 240.366765 
L 555.447489 247.190176 
L 555.636488 241.427599 
L 555.699417 243.404616 
L 555.825167 239.807118 
L 555.887989 241.449285 
L 555.950775 239.574542 
L 556.076242 243.132225 
L 556.138922 243.031245 
L 556.264176 239.516898 
L 556.326751 239.572551 
L 556.576697 244.516186 
L 556.639096 244.453858 
L 556.70146 243.651341 
L 556.763789 240.947351 
L 556.826083 242.813452 
L 556.888342 242.675728 
L 557.137031 239.034672 
L 557.199117 240.498265 
L 557.261168 239.817912 
L 557.323184 240.163493 
L 557.447113 246.309133 
L 557.509025 244.357495 
L 557.694557 247.093778 
L 557.756332 245.293286 
L 557.818073 245.533033 
L 557.879779 247.731915 
L 557.941451 246.691321 
L 558.064694 244.981356 
L 558.187799 247.559062 
L 558.249301 246.515872 
L 558.310769 248.324921 
L 558.372203 247.808737 
L 558.6176 243.41427 
L 558.740096 245.805205 
L 558.862457 243.179748 
L 559.106775 248.041571 
L 559.167771 245.163257 
L 559.228734 245.268028 
L 559.411421 246.820219 
L 559.593809 244.531522 
L 559.654538 244.268478 
L 559.715235 244.491073 
L 559.836528 244.806467 
L 559.897125 246.993572 
L 560.018221 244.702948 
L 560.139184 245.944081 
L 560.199617 248.085734 
L 560.260016 247.288849 
L 560.380718 244.293789 
L 560.441019 245.451088 
L 560.501288 246.431256 
L 560.742037 242.951963 
L 560.802143 245.043127 
L 560.862216 244.359498 
L 561.162098 248.302591 
L 561.162098 248.302591 
" clip-path="url(#pea94d98a4c)" style="fill: none; stroke: #1f77b4; stroke-linecap: square"/>
   </g>
   <g id="patch_3">
    <path d="M 48.982813 294.590247 
L 48.982813 22.318125 
" style="fill: none; stroke: #000000; stroke-width: 0.8; stroke-linejoin: miter; stroke-linecap: square"/>
   </g>
   <g id="patch_4">
    <path d="M 561.197812 294.590247 
L 561.197812 22.318125 
" style="fill: none; stroke: #000000; stroke-width: 0.8; stroke-linejoin: miter; stroke-linecap: square"/>
   </g>
   <g id="patch_5">
    <path d="M 48.982813 294.590247 
L 561.197812 294.590247 
" style="fill: none; stroke: #000000; stroke-width: 0.8; stroke-linejoin: miter; stroke-linecap: square"/>
   </g>
   <g id="patch_6">
    <path d="M 48.982813 22.318125 
L 561.197812 22.318125 
" style="fill: none; stroke: #000000; stroke-width: 0.8; stroke-linejoin: miter; stroke-linecap: square"/>
   </g>
   <g id="text_14">
    <!-- Ford Explorer Blower Setting 5 - Narrow Band SPL (dBA) -->
    <g transform="translate(137.56375 16.318125) scale(0.12 -0.12)">
     <defs>
      <path id="DejaVuSans-6f" d="M 1959 3097 
Q 1497 3097 1228 2736 
Q 959 2375 959 1747 
Q 959 1119 1226 758 
Q 1494 397 1959 397 
Q 2419 397 2687 759 
Q 2956 1122 2956 1747 
Q 2956 2369 2687 2733 
Q 2419 3097 1959 3097 
z
M 1959 3584 
Q 2709 3584 3137 3096 
Q 3566 2609 3566 1747 
Q 3566 888 3137 398 
Q 2709 -91 1959 -91 
Q 1206 -91 779 398 
Q 353 888 353 1747 
Q 353 2609 779 3096 
Q 1206 3584 1959 3584 
z
" transform="scale(0.015625)"/>
      <path id="DejaVuSans-45" d="M 628 4666 
L 3578 4666 
L 3578 4134 
L 1259 4134 
L 1259 2753 
L 3481 2753 
L 3481 2222 
L 1259 2222 
L 1259 531 
L 3634 531 
L 3634 0 
L 628 0 
L 628 4666 
z
" transform="scale(0.015625)"/>
      <path id="DejaVuSans-78" d="M 3513 3500 
L 2247 1797 
L 3578 0 
L 2900 0 
L 1881 1375 
L 863 0 
L 184 0 
L 1544 1831 
L 300 3500 
L 978 3500 
L 1906 2253 
L 2834 3500 
L 3513 3500 
z
" transform="scale(0.015625)"/>
      <path id="DejaVuSans-70" d="M 1159 525 
L 1159 -1331 
L 581 -1331 
L 581 3500 
L 1159 3500 
L 1159 2969 
Q 1341 3281 1617 3432 
Q 1894 3584 2278 3584 
Q 2916 3584 3314 3078 
Q 3713 2572 3713 1747 
Q 3713 922 3314 415 
Q 2916 -91 2278 -91 
Q 1894 -91 1617 61 
Q 1341 213 1159 525 
z
M 3116 1747 
Q 3116 2381 2855 2742 
Q 2594 3103 2138 3103 
Q 1681 3103 1420 2742 
Q 1159 2381 1159 1747 
Q 1159 1113 1420 752 
Q 1681 391 2138 391 
Q 2594 391 2855 752 
Q 3116 1113 3116 1747 
z
" transform="scale(0.015625)"/>
      <path id="DejaVuSans-6c" d="M 603 4863 
L 1178 4863 
L 1178 0 
L 603 0 
L 603 4863 
z
" transform="scale(0.015625)"/>
      <path id="DejaVuSans-77" d="M 269 3500 
L 844 3500 
L 1563 769 
L 2278 3500 
L 2956 3500 
L 3675 769 
L 4391 3500 
L 4966 3500 
L 4050 0 
L 3372 0 
L 2619 2869 
L 1863 0 
L 1184 0 
L 269 3500 
z
" transform="scale(0.015625)"/>
      <path id="DejaVuSans-74" d="M 1172 4494 
L 1172 3500 
L 2356 3500 
L 2356 3053 
L 1172 3053 
L 1172 1153 
Q 1172 725 1289 603 
Q 1406 481 1766 481 
L 2356 481 
L 2356 0 
L 1766 0 
Q 1100 0 847 248 
Q 594 497 594 1153 
L 594 3053 
L 172 3053 
L 172 3500 
L 594 3500 
L 594 4494 
L 1172 4494 
z
" transform="scale(0.015625)"/>
      <path id="DejaVuSans-69" d="M 603 3500 
L 1178 3500 
L 1178 0 
L 603 0 
L 603 3500 
z
M 603 4863 
L 1178 4863 
L 1178 4134 
L 603 4134 
L 603 4863 
z
" transform="scale(0.015625)"/>
      <path id="DejaVuSans-67" d="M 2906 1791 
Q 2906 2416 2648 2759 
Q 2391 3103 1925 3103 
Q 1463 3103 1205 2759 
Q 947 2416 947 1791 
Q 947 1169 1205 825 
Q 1463 481 1925 481 
Q 2391 481 2648 825 
Q 2906 1169 2906 1791 
z
M 3481 434 
Q 3481 -459 3084 -895 
Q 2688 -1331 1869 -1331 
Q 1566 -1331 1297 -1286 
Q 1028 -1241 775 -1147 
L 775 -588 
Q 1028 -725 1275 -790 
Q 1522 -856 1778 -856 
Q 2344 -856 2625 -561 
Q 2906 -266 2906 331 
L 2906 616 
Q 2728 306 2450 153 
Q 2172 0 1784 0 
Q 1141 0 747 490 
Q 353 981 353 1791 
Q 353 2603 747 3093 
Q 1141 3584 1784 3584 
Q 2172 3584 2450 3431 
Q 2728 3278 2906 2969 
L 2906 3500 
L 3481 3500 
L 3481 434 
z
" transform="scale(0.015625)"/>
      <path id="DejaVuSans-2d" d="M 313 2009 
L 1997 2009 
L 1997 1497 
L 313 1497 
L 313 2009 
z
" transform="scale(0.015625)"/>
      <path id="DejaVuSans-4e" d="M 628 4666 
L 1478 4666 
L 3547 763 
L 3547 4666 
L 4159 4666 
L 4159 0 
L 3309 0 
L 1241 3903 
L 1241 0 
L 628 0 
L 628 4666 
z
" transform="scale(0.015625)"/>
      <path id="DejaVuSans-61" d="M 2194 1759 
Q 1497 1759 1228 1600 
Q 959 1441 959 1056 
Q 959 750 1161 570 
Q 1363 391 1709 391 
Q 2188 391 2477 730 
Q 2766 1069 2766 1631 
L 2766 1759 
L 2194 1759 
z
M 3341 1997 
L 3341 0 
L 2766 0 
L 2766 531 
Q 2569 213 2275 61 
Q 1981 -91 1556 -91 
Q 1019 -91 701 211 
Q 384 513 384 1019 
Q 384 1609 779 1909 
Q 1175 2209 1959 2209 
L 2766 2209 
L 2766 2266 
Q 2766 2663 2505 2880 
Q 2244 3097 1772 3097 
Q 1472 3097 1187 3025 
Q 903 2953 641 2809 
L 641 3341 
Q 956 3463 1253 3523 
Q 1550 3584 1831 3584 
Q 2591 3584 2966 3190 
Q 3341 2797 3341 1997 
z
" transform="scale(0.015625)"/>
     </defs>
     <use xlink:href="#DejaVuSans-46"/>
     <use xlink:href="#DejaVuSans-6f" transform="translate(53.894531 0)"/>
     <use xlink:href="#DejaVuSans-72" transform="translate(115.076172 0)"/>
     <use xlink:href="#DejaVuSans-64" transform="translate(154.439453 0)"/>
     <use xlink:href="#DejaVuSans-20" transform="translate(217.916016 0)"/>
     <use xlink:href="#DejaVuSans-45" transform="translate(249.703125 0)"/>
     <use xlink:href="#DejaVuSans-78" transform="translate(312.886719 0)"/>
     <use xlink:href="#DejaVuSans-70" transform="translate(372.066406 0)"/>
     <use xlink:href="#DejaVuSans-6c" transform="translate(435.542969 0)"/>
     <use xlink:href="#DejaVuSans-6f" transform="translate(463.326172 0)"/>
     <use xlink:href="#DejaVuSans-72" transform="translate(524.507812 0)"/>
     <use xlink:href="#DejaVuSans-65" transform="translate(563.371094 0)"/>
     <use xlink:href="#DejaVuSans-72" transform="translate(624.894531 0)"/>
     <use xlink:href="#DejaVuSans-20" transform="translate(666.007812 0)"/>
     <use xlink:href="#DejaVuSans-42" transform="translate(697.794922 0)"/>
     <use xlink:href="#DejaVuSans-6c" transform="translate(766.398438 0)"/>
     <use xlink:href="#DejaVuSans-6f" transform="translate(794.181641 0)"/>
     <use xlink:href="#DejaVuSans-77" transform="translate(855.363281 0)"/>
     <use xlink:href="#DejaVuSans-65" transform="translate(937.150391 0)"/>
     <use xlink:href="#DejaVuSans-72" transform="translate(998.673828 0)"/>
     <use xlink:href="#DejaVuSans-20" transform="translate(1039.787109 0)"/>
     <use xlink:href="#DejaVuSans-53" transform="translate(1071.574219 0)"/>
     <use xlink:href="#DejaVuSans-65" transform="translate(1135.050781 0)"/>
     <use xlink:href="#DejaVuSans-74" transform="translate(1196.574219 0)"/>
     <use xlink:href="#DejaVuSans-74" transform="translate(1235.783203 0)"/>
     <use xlink:href="#DejaVuSans-69" transform="translate(1274.992188 0)"/>
     <use xlink:href="#DejaVuSans-6e" transform="translate(1302.775391 0)"/>
     <use xlink:href="#DejaVuSans-67" transform="translate(1366.154297 0)"/>
     <use xlink:href="#DejaVuSans-20" transform="translate(1429.630859 0)"/>
     <use xlink:href="#DejaVuSans-35" transform="translate(1461.417969 0)"/>
     <use xlink:href="#DejaVuSans-20" transform="translate(1525.041016 0)"/>
     <use xlink:href="#DejaVuSans-2d" transform="translate(1556.828125 0)"/>
     <use xlink:href="#DejaVuSans-20" transform="translate(1592.912109 0)"/>
     <use xlink:href="#DejaVuSans-4e" transform="translate(1624.699219 0)"/>
     <use xlink:href="#DejaVuSans-61" transform="translate(1699.503906 0)"/>
     <use xlink:href="#DejaVuSans-72" transform="translate(1760.783203 0)"/>
     <use xlink:href="#DejaVuSans-72" transform="translate(1800.146484 0)"/>
     <use xlink:href="#DejaVuSans-6f" transform="translate(1839.009766 0)"/>
     <use xlink:href="#DejaVuSans-77" transform="translate(1900.191406 0)"/>
     <use xlink:href="#DejaVuSans-20" transform="translate(1981.978516 0)"/>
     <use xlink:href="#DejaVuSans-42" transform="translate(2013.765625 0)"/>
     <use xlink:href="#DejaVuSans-61" transform="translate(2082.369141 0)"/>
     <use xlink:href="#DejaVuSans-6e" transform="translate(2143.648438 0)"/>
     <use xlink:href="#DejaVuSans-64" transform="translate(2207.027344 0)"/>
     <use xlink:href="#DejaVuSans-20" transform="translate(2270.503906 0)"/>
     <use xlink:href="#DejaVuSans-53" transform="translate(2302.291016 0)"/>
     <use xlink:href="#DejaVuSans-50" transform="translate(2365.767578 0)"/>
     <use xlink:href="#DejaVuSans-4c" transform="translate(2426.070312 0)"/>
     <use xlink:href="#DejaVuSans-20" transform="translate(2481.783203 0)"/>
     <use xlink:href="#DejaVuSans-28" transform="translate(2513.570312 0)"/>
     <use xlink:href="#DejaVuSans-64" transform="translate(2552.583984 0)"/>
     <use xlink:href="#DejaVuSans-42" transform="translate(2616.060547 0)"/>
     <use xlink:href="#DejaVuSans-41" transform="translate(2684.664062 0)"/>
     <use xlink:href="#DejaVuSans-29" transform="translate(2753.072266 0)"/>
    </g>
   </g>
  </g>
 </g>
 <defs>
  <clipPath id="pea94d98a4c">
   <rect x="48.982813" y="22.318125" width="512.215" height="272.272122"/>
  </clipPath>
 </defs>
</svg>
