<?xml version="1.0" encoding="utf-8" standalone="no"?>
<!DOCTYPE svg PUBLIC "-//W3C//DTD SVG 1.1//EN"
  "http://www.w3.org/Graphics/SVG/1.1/DTD/svg11.dtd">
<svg xmlns:xlink="http://www.w3.org/1999/xlink" width="568.397812pt" height="351.806674pt" viewBox="0 0 568.397812 351.806674" xmlns="http://www.w3.org/2000/svg" version="1.1">
 <metadata>
  <rdf:RDF xmlns:dc="http://purl.org/dc/elements/1.1/" xmlns:cc="http://creativecommons.org/ns#" xmlns:rdf="http://www.w3.org/1999/02/22-rdf-syntax-ns#">
   <cc:Work>
    <dc:type rdf:resource="http://purl.org/dc/dcmitype/StillImage"/>
    <dc:date>2025-04-24T19:41:10.608166</dc:date>
    <dc:format>image/svg+xml</dc:format>
    <dc:creator>
     <cc:Agent>
      <dc:title>Matplotlib v3.10.0, https://matplotlib.org/</dc:title>
     </cc:Agent>
    </dc:creator>
   </cc:Work>
  </rdf:RDF>
 </metadata>
 <defs>
  <style type="text/css">*{stroke-linejoin: round; stroke-linecap: butt}</style>
 </defs>
 <g id="figure_1">
  <g id="patch_1">
   <path d="M 0 351.806674 
L 568.397812 351.806674 
L 568.397812 0 
L 0 0 
z
" style="fill: #ffffff"/>
  </g>
  <g id="axes_1">
   <g id="patch_2">
    <path d="M 48.982813 294.590247 
L 561.197812 294.590247 
L 561.197812 22.318125 
L 48.982813 22.318125 
z
" style="fill: #ffffff"/>
   </g>
   <g id="matplotlib.axis_1">
    <g id="xtick_1">
     <g id="line2d_1">
      <path d="M 48.982813 294.590247 
L 48.982813 22.318125 
" clip-path="url(#pcf824c9d63)" style="fill: none; stroke-dasharray: 1.85,0.8; stroke-dashoffset: 0; stroke: #b0b0b0; stroke-width: 0.5"/>
     </g>
     <g id="line2d_2">
      <defs>
       <path id="mfe59332f13" d="M 0 0 
L 0 3.5 
" style="stroke: #000000; stroke-width: 0.8"/>
      </defs>
      <g>
       <use xlink:href="#mfe59332f13" x="48.982813" y="294.590247" style="stroke: #000000; stroke-width: 0.8"/>
      </g>
     </g>
     <g id="text_1">
      <!-- 100 -->
      <g transform="translate(34.015351 320.460054) rotate(-45) scale(0.1 -0.1)">
       <defs>
        <path id="DejaVuSans-31" d="M 794 531 
L 1825 531 
L 1825 4091 
L 703 3866 
L 703 4441 
L 1819 4666 
L 2450 4666 
L 2450 531 
L 3481 531 
L 3481 0 
L 794 0 
L 794 531 
z
" transform="scale(0.015625)"/>
        <path id="DejaVuSans-30" d="M 2034 4250 
Q 1547 4250 1301 3770 
Q 1056 3291 1056 2328 
Q 1056 1369 1301 889 
Q 1547 409 2034 409 
Q 2525 409 2770 889 
Q 3016 1369 3016 2328 
Q 3016 3291 2770 3770 
Q 2525 4250 2034 4250 
z
M 2034 4750 
Q 2819 4750 3233 4129 
Q 3647 3509 3647 2328 
Q 3647 1150 3233 529 
Q 2819 -91 2034 -91 
Q 1250 -91 836 529 
Q 422 1150 422 2328 
Q 422 3509 836 4129 
Q 1250 4750 2034 4750 
z
" transform="scale(0.015625)"/>
       </defs>
       <use xlink:href="#DejaVuSans-31"/>
       <use xlink:href="#DejaVuSans-30" transform="translate(63.623047 0)"/>
       <use xlink:href="#DejaVuSans-30" transform="translate(127.246094 0)"/>
      </g>
     </g>
    </g>
    <g id="xtick_2">
     <g id="line2d_3">
      <path d="M 305.090312 294.590247 
L 305.090312 22.318125 
" clip-path="url(#pcf824c9d63)" style="fill: none; stroke-dasharray: 1.85,0.8; stroke-dashoffset: 0; stroke: #b0b0b0; stroke-width: 0.5"/>
     </g>
     <g id="line2d_4">
      <g>
       <use xlink:href="#mfe59332f13" x="305.090312" y="294.590247" style="stroke: #000000; stroke-width: 0.8"/>
      </g>
     </g>
     <g id="text_2">
      <!-- 1000 -->
      <g transform="translate(285.623884 324.959021) rotate(-45) scale(0.1 -0.1)">
       <use xlink:href="#DejaVuSans-31"/>
       <use xlink:href="#DejaVuSans-30" transform="translate(63.623047 0)"/>
       <use xlink:href="#DejaVuSans-30" transform="translate(127.246094 0)"/>
       <use xlink:href="#DejaVuSans-30" transform="translate(190.869141 0)"/>
      </g>
     </g>
    </g>
    <g id="xtick_3">
     <g id="line2d_5">
      <path d="M 561.197812 294.590247 
L 561.197812 22.318125 
" clip-path="url(#pcf824c9d63)" style="fill: none; stroke-dasharray: 1.85,0.8; stroke-dashoffset: 0; stroke: #b0b0b0; stroke-width: 0.5"/>
     </g>
     <g id="line2d_6">
      <g>
       <use xlink:href="#mfe59332f13" x="561.197812" y="294.590247" style="stroke: #000000; stroke-width: 0.8"/>
      </g>
     </g>
     <g id="text_3">
      <!-- 10000 -->
      <g transform="translate(537.232417 329.457988) rotate(-45) scale(0.1 -0.1)">
       <use xlink:href="#DejaVuSans-31"/>
       <use xlink:href="#DejaVuSans-30" transform="translate(63.623047 0)"/>
       <use xlink:href="#DejaVuSans-30" transform="translate(127.246094 0)"/>
       <use xlink:href="#DejaVuSans-30" transform="translate(190.869141 0)"/>
       <use xlink:href="#DejaVuSans-30" transform="translate(254.492188 0)"/>
      </g>
     </g>
    </g>
    <g id="xtick_4">
     <g id="line2d_7">
      <path d="M 126.078852 294.590247 
L 126.078852 22.318125 
" clip-path="url(#pcf824c9d63)" style="fill: none; stroke-dasharray: 1.85,0.8; stroke-dashoffset: 0; stroke: #b0b0b0; stroke-width: 0.5"/>
     </g>
     <g id="line2d_8">
      <defs>
       <path id="mfc1cff398c" d="M 0 0 
L 0 2 
" style="stroke: #000000; stroke-width: 0.6"/>
      </defs>
      <g>
       <use xlink:href="#mfc1cff398c" x="126.078852" y="294.590247" style="stroke: #000000; stroke-width: 0.6"/>
      </g>
     </g>
    </g>
    <g id="xtick_5">
     <g id="line2d_9">
      <path d="M 171.177144 294.590247 
L 171.177144 22.318125 
" clip-path="url(#pcf824c9d63)" style="fill: none; stroke-dasharray: 1.85,0.8; stroke-dashoffset: 0; stroke: #b0b0b0; stroke-width: 0.5"/>
     </g>
     <g id="line2d_10">
      <g>
       <use xlink:href="#mfc1cff398c" x="171.177144" y="294.590247" style="stroke: #000000; stroke-width: 0.6"/>
      </g>
     </g>
    </g>
    <g id="xtick_6">
     <g id="line2d_11">
      <path d="M 203.174892 294.590247 
L 203.174892 22.318125 
" clip-path="url(#pcf824c9d63)" style="fill: none; stroke-dasharray: 1.85,0.8; stroke-dashoffset: 0; stroke: #b0b0b0; stroke-width: 0.5"/>
     </g>
     <g id="line2d_12">
      <g>
       <use xlink:href="#mfc1cff398c" x="203.174892" y="294.590247" style="stroke: #000000; stroke-width: 0.6"/>
      </g>
     </g>
    </g>
    <g id="xtick_7">
     <g id="line2d_13">
      <path d="M 227.994273 294.590247 
L 227.994273 22.318125 
" clip-path="url(#pcf824c9d63)" style="fill: none; stroke-dasharray: 1.85,0.8; stroke-dashoffset: 0; stroke: #b0b0b0; stroke-width: 0.5"/>
     </g>
     <g id="line2d_14">
      <g>
       <use xlink:href="#mfc1cff398c" x="227.994273" y="294.590247" style="stroke: #000000; stroke-width: 0.6"/>
      </g>
     </g>
    </g>
    <g id="xtick_8">
     <g id="line2d_15">
      <path d="M 248.273184 294.590247 
L 248.273184 22.318125 
" clip-path="url(#pcf824c9d63)" style="fill: none; stroke-dasharray: 1.85,0.8; stroke-dashoffset: 0; stroke: #b0b0b0; stroke-width: 0.5"/>
     </g>
     <g id="line2d_16">
      <g>
       <use xlink:href="#mfc1cff398c" x="248.273184" y="294.590247" style="stroke: #000000; stroke-width: 0.6"/>
      </g>
     </g>
    </g>
    <g id="xtick_9">
     <g id="line2d_17">
      <path d="M 265.418759 294.590247 
L 265.418759 22.318125 
" clip-path="url(#pcf824c9d63)" style="fill: none; stroke-dasharray: 1.85,0.8; stroke-dashoffset: 0; stroke: #b0b0b0; stroke-width: 0.5"/>
     </g>
     <g id="line2d_18">
      <g>
       <use xlink:href="#mfc1cff398c" x="265.418759" y="294.590247" style="stroke: #000000; stroke-width: 0.6"/>
      </g>
     </g>
    </g>
    <g id="xtick_10">
     <g id="line2d_19">
      <path d="M 280.270931 294.590247 
L 280.270931 22.318125 
" clip-path="url(#pcf824c9d63)" style="fill: none; stroke-dasharray: 1.85,0.8; stroke-dashoffset: 0; stroke: #b0b0b0; stroke-width: 0.5"/>
     </g>
     <g id="line2d_20">
      <g>
       <use xlink:href="#mfc1cff398c" x="280.270931" y="294.590247" style="stroke: #000000; stroke-width: 0.6"/>
      </g>
     </g>
    </g>
    <g id="xtick_11">
     <g id="line2d_21">
      <path d="M 293.371476 294.590247 
L 293.371476 22.318125 
" clip-path="url(#pcf824c9d63)" style="fill: none; stroke-dasharray: 1.85,0.8; stroke-dashoffset: 0; stroke: #b0b0b0; stroke-width: 0.5"/>
     </g>
     <g id="line2d_22">
      <g>
       <use xlink:href="#mfc1cff398c" x="293.371476" y="294.590247" style="stroke: #000000; stroke-width: 0.6"/>
      </g>
     </g>
    </g>
    <g id="xtick_12">
     <g id="line2d_23">
      <path d="M 382.186352 294.590247 
L 382.186352 22.318125 
" clip-path="url(#pcf824c9d63)" style="fill: none; stroke-dasharray: 1.85,0.8; stroke-dashoffset: 0; stroke: #b0b0b0; stroke-width: 0.5"/>
     </g>
     <g id="line2d_24">
      <g>
       <use xlink:href="#mfc1cff398c" x="382.186352" y="294.590247" style="stroke: #000000; stroke-width: 0.6"/>
      </g>
     </g>
    </g>
    <g id="xtick_13">
     <g id="line2d_25">
      <path d="M 427.284644 294.590247 
L 427.284644 22.318125 
" clip-path="url(#pcf824c9d63)" style="fill: none; stroke-dasharray: 1.85,0.8; stroke-dashoffset: 0; stroke: #b0b0b0; stroke-width: 0.5"/>
     </g>
     <g id="line2d_26">
      <g>
       <use xlink:href="#mfc1cff398c" x="427.284644" y="294.590247" style="stroke: #000000; stroke-width: 0.6"/>
      </g>
     </g>
    </g>
    <g id="xtick_14">
     <g id="line2d_27">
      <path d="M 459.282392 294.590247 
L 459.282392 22.318125 
" clip-path="url(#pcf824c9d63)" style="fill: none; stroke-dasharray: 1.85,0.8; stroke-dashoffset: 0; stroke: #b0b0b0; stroke-width: 0.5"/>
     </g>
     <g id="line2d_28">
      <g>
       <use xlink:href="#mfc1cff398c" x="459.282392" y="294.590247" style="stroke: #000000; stroke-width: 0.6"/>
      </g>
     </g>
    </g>
    <g id="xtick_15">
     <g id="line2d_29">
      <path d="M 484.101773 294.590247 
L 484.101773 22.318125 
" clip-path="url(#pcf824c9d63)" style="fill: none; stroke-dasharray: 1.85,0.8; stroke-dashoffset: 0; stroke: #b0b0b0; stroke-width: 0.5"/>
     </g>
     <g id="line2d_30">
      <g>
       <use xlink:href="#mfc1cff398c" x="484.101773" y="294.590247" style="stroke: #000000; stroke-width: 0.6"/>
      </g>
     </g>
    </g>
    <g id="xtick_16">
     <g id="line2d_31">
      <path d="M 504.380684 294.590247 
L 504.380684 22.318125 
" clip-path="url(#pcf824c9d63)" style="fill: none; stroke-dasharray: 1.85,0.8; stroke-dashoffset: 0; stroke: #b0b0b0; stroke-width: 0.5"/>
     </g>
     <g id="line2d_32">
      <g>
       <use xlink:href="#mfc1cff398c" x="504.380684" y="294.590247" style="stroke: #000000; stroke-width: 0.6"/>
      </g>
     </g>
    </g>
    <g id="xtick_17">
     <g id="line2d_33">
      <path d="M 521.526259 294.590247 
L 521.526259 22.318125 
" clip-path="url(#pcf824c9d63)" style="fill: none; stroke-dasharray: 1.85,0.8; stroke-dashoffset: 0; stroke: #b0b0b0; stroke-width: 0.5"/>
     </g>
     <g id="line2d_34">
      <g>
       <use xlink:href="#mfc1cff398c" x="521.526259" y="294.590247" style="stroke: #000000; stroke-width: 0.6"/>
      </g>
     </g>
    </g>
    <g id="xtick_18">
     <g id="line2d_35">
      <path d="M 536.378431 294.590247 
L 536.378431 22.318125 
" clip-path="url(#pcf824c9d63)" style="fill: none; stroke-dasharray: 1.85,0.8; stroke-dashoffset: 0; stroke: #b0b0b0; stroke-width: 0.5"/>
     </g>
     <g id="line2d_36">
      <g>
       <use xlink:href="#mfc1cff398c" x="536.378431" y="294.590247" style="stroke: #000000; stroke-width: 0.6"/>
      </g>
     </g>
    </g>
    <g id="xtick_19">
     <g id="line2d_37">
      <path d="M 549.478976 294.590247 
L 549.478976 22.318125 
" clip-path="url(#pcf824c9d63)" style="fill: none; stroke-dasharray: 1.85,0.8; stroke-dashoffset: 0; stroke: #b0b0b0; stroke-width: 0.5"/>
     </g>
     <g id="line2d_38">
      <g>
       <use xlink:href="#mfc1cff398c" x="549.478976" y="294.590247" style="stroke: #000000; stroke-width: 0.6"/>
      </g>
     </g>
    </g>
    <g id="text_4">
     <!-- Frequency (Hz) -->
     <g transform="translate(267.385625 342.526987) scale(0.1 -0.1)">
      <defs>
       <path id="DejaVuSans-46" d="M 628 4666 
L 3309 4666 
L 3309 4134 
L 1259 4134 
L 1259 2759 
L 3109 2759 
L 3109 2228 
L 1259 2228 
L 1259 0 
L 628 0 
L 628 4666 
z
" transform="scale(0.015625)"/>
       <path id="DejaVuSans-72" d="M 2631 2963 
Q 2534 3019 2420 3045 
Q 2306 3072 2169 3072 
Q 1681 3072 1420 2755 
Q 1159 2438 1159 1844 
L 1159 0 
L 581 0 
L 581 3500 
L 1159 3500 
L 1159 2956 
Q 1341 3275 1631 3429 
Q 1922 3584 2338 3584 
Q 2397 3584 2469 3576 
Q 2541 3569 2628 3553 
L 2631 2963 
z
" transform="scale(0.015625)"/>
       <path id="DejaVuSans-65" d="M 3597 1894 
L 3597 1613 
L 953 1613 
Q 991 1019 1311 708 
Q 1631 397 2203 397 
Q 2534 397 2845 478 
Q 3156 559 3463 722 
L 3463 178 
Q 3153 47 2828 -22 
Q 2503 -91 2169 -91 
Q 1331 -91 842 396 
Q 353 884 353 1716 
Q 353 2575 817 3079 
Q 1281 3584 2069 3584 
Q 2775 3584 3186 3129 
Q 3597 2675 3597 1894 
z
M 3022 2063 
Q 3016 2534 2758 2815 
Q 2500 3097 2075 3097 
Q 1594 3097 1305 2825 
Q 1016 2553 972 2059 
L 3022 2063 
z
" transform="scale(0.015625)"/>
       <path id="DejaVuSans-71" d="M 947 1747 
Q 947 1113 1208 752 
Q 1469 391 1925 391 
Q 2381 391 2643 752 
Q 2906 1113 2906 1747 
Q 2906 2381 2643 2742 
Q 2381 3103 1925 3103 
Q 1469 3103 1208 2742 
Q 947 2381 947 1747 
z
M 2906 525 
Q 2725 213 2448 61 
Q 2172 -91 1784 -91 
Q 1150 -91 751 415 
Q 353 922 353 1747 
Q 353 2572 751 3078 
Q 1150 3584 1784 3584 
Q 2172 3584 2448 3432 
Q 2725 3281 2906 2969 
L 2906 3500 
L 3481 3500 
L 3481 -1331 
L 2906 -1331 
L 2906 525 
z
" transform="scale(0.015625)"/>
       <path id="DejaVuSans-75" d="M 544 1381 
L 544 3500 
L 1119 3500 
L 1119 1403 
Q 1119 906 1312 657 
Q 1506 409 1894 409 
Q 2359 409 2629 706 
Q 2900 1003 2900 1516 
L 2900 3500 
L 3475 3500 
L 3475 0 
L 2900 0 
L 2900 538 
Q 2691 219 2414 64 
Q 2138 -91 1772 -91 
Q 1169 -91 856 284 
Q 544 659 544 1381 
z
M 1991 3584 
L 1991 3584 
z
" transform="scale(0.015625)"/>
       <path id="DejaVuSans-6e" d="M 3513 2113 
L 3513 0 
L 2938 0 
L 2938 2094 
Q 2938 2591 2744 2837 
Q 2550 3084 2163 3084 
Q 1697 3084 1428 2787 
Q 1159 2491 1159 1978 
L 1159 0 
L 581 0 
L 581 3500 
L 1159 3500 
L 1159 2956 
Q 1366 3272 1645 3428 
Q 1925 3584 2291 3584 
Q 2894 3584 3203 3211 
Q 3513 2838 3513 2113 
z
" transform="scale(0.015625)"/>
       <path id="DejaVuSans-63" d="M 3122 3366 
L 3122 2828 
Q 2878 2963 2633 3030 
Q 2388 3097 2138 3097 
Q 1578 3097 1268 2742 
Q 959 2388 959 1747 
Q 959 1106 1268 751 
Q 1578 397 2138 397 
Q 2388 397 2633 464 
Q 2878 531 3122 666 
L 3122 134 
Q 2881 22 2623 -34 
Q 2366 -91 2075 -91 
Q 1284 -91 818 406 
Q 353 903 353 1747 
Q 353 2603 823 3093 
Q 1294 3584 2113 3584 
Q 2378 3584 2631 3529 
Q 2884 3475 3122 3366 
z
" transform="scale(0.015625)"/>
       <path id="DejaVuSans-79" d="M 2059 -325 
Q 1816 -950 1584 -1140 
Q 1353 -1331 966 -1331 
L 506 -1331 
L 506 -850 
L 844 -850 
Q 1081 -850 1212 -737 
Q 1344 -625 1503 -206 
L 1606 56 
L 191 3500 
L 800 3500 
L 1894 763 
L 2988 3500 
L 3597 3500 
L 2059 -325 
z
" transform="scale(0.015625)"/>
       <path id="DejaVuSans-20" transform="scale(0.015625)"/>
       <path id="DejaVuSans-28" d="M 1984 4856 
Q 1566 4138 1362 3434 
Q 1159 2731 1159 2009 
Q 1159 1288 1364 580 
Q 1569 -128 1984 -844 
L 1484 -844 
Q 1016 -109 783 600 
Q 550 1309 550 2009 
Q 550 2706 781 3412 
Q 1013 4119 1484 4856 
L 1984 4856 
z
" transform="scale(0.015625)"/>
       <path id="DejaVuSans-48" d="M 628 4666 
L 1259 4666 
L 1259 2753 
L 3553 2753 
L 3553 4666 
L 4184 4666 
L 4184 0 
L 3553 0 
L 3553 2222 
L 1259 2222 
L 1259 0 
L 628 0 
L 628 4666 
z
" transform="scale(0.015625)"/>
       <path id="DejaVuSans-7a" d="M 353 3500 
L 3084 3500 
L 3084 2975 
L 922 459 
L 3084 459 
L 3084 0 
L 275 0 
L 275 525 
L 2438 3041 
L 353 3041 
L 353 3500 
z
" transform="scale(0.015625)"/>
       <path id="DejaVuSans-29" d="M 513 4856 
L 1013 4856 
Q 1481 4119 1714 3412 
Q 1947 2706 1947 2009 
Q 1947 1309 1714 600 
Q 1481 -109 1013 -844 
L 513 -844 
Q 928 -128 1133 580 
Q 1338 1288 1338 2009 
Q 1338 2731 1133 3434 
Q 928 4138 513 4856 
z
" transform="scale(0.015625)"/>
      </defs>
      <use xlink:href="#DejaVuSans-46"/>
      <use xlink:href="#DejaVuSans-72" transform="translate(50.269531 0)"/>
      <use xlink:href="#DejaVuSans-65" transform="translate(89.132812 0)"/>
      <use xlink:href="#DejaVuSans-71" transform="translate(150.65625 0)"/>
      <use xlink:href="#DejaVuSans-75" transform="translate(214.132812 0)"/>
      <use xlink:href="#DejaVuSans-65" transform="translate(277.511719 0)"/>
      <use xlink:href="#DejaVuSans-6e" transform="translate(339.035156 0)"/>
      <use xlink:href="#DejaVuSans-63" transform="translate(402.414062 0)"/>
      <use xlink:href="#DejaVuSans-79" transform="translate(457.394531 0)"/>
      <use xlink:href="#DejaVuSans-20" transform="translate(516.574219 0)"/>
      <use xlink:href="#DejaVuSans-28" transform="translate(548.361328 0)"/>
      <use xlink:href="#DejaVuSans-48" transform="translate(587.375 0)"/>
      <use xlink:href="#DejaVuSans-7a" transform="translate(662.570312 0)"/>
      <use xlink:href="#DejaVuSans-29" transform="translate(715.060547 0)"/>
     </g>
    </g>
   </g>
   <g id="matplotlib.axis_2">
    <g id="ytick_1">
     <g id="line2d_39">
      <path d="M 48.982813 294.590247 
L 561.197812 294.590247 
" clip-path="url(#pcf824c9d63)" style="fill: none; stroke-dasharray: 1.85,0.8; stroke-dashoffset: 0; stroke: #b0b0b0; stroke-width: 0.5"/>
     </g>
     <g id="line2d_40">
      <defs>
       <path id="m12a67b7880" d="M 0 0 
L -3.5 0 
" style="stroke: #000000; stroke-width: 0.8"/>
      </defs>
      <g>
       <use xlink:href="#m12a67b7880" x="48.982813" y="294.590247" style="stroke: #000000; stroke-width: 0.8"/>
      </g>
     </g>
     <g id="text_5">
      <!-- −20 -->
      <g transform="translate(20.878125 298.389466) scale(0.1 -0.1)">
       <defs>
        <path id="DejaVuSans-2212" d="M 678 2272 
L 4684 2272 
L 4684 1741 
L 678 1741 
L 678 2272 
z
" transform="scale(0.015625)"/>
        <path id="DejaVuSans-32" d="M 1228 531 
L 3431 531 
L 3431 0 
L 469 0 
L 469 531 
Q 828 903 1448 1529 
Q 2069 2156 2228 2338 
Q 2531 2678 2651 2914 
Q 2772 3150 2772 3378 
Q 2772 3750 2511 3984 
Q 2250 4219 1831 4219 
Q 1534 4219 1204 4116 
Q 875 4013 500 3803 
L 500 4441 
Q 881 4594 1212 4672 
Q 1544 4750 1819 4750 
Q 2544 4750 2975 4387 
Q 3406 4025 3406 3419 
Q 3406 3131 3298 2873 
Q 3191 2616 2906 2266 
Q 2828 2175 2409 1742 
Q 1991 1309 1228 531 
z
" transform="scale(0.015625)"/>
       </defs>
       <use xlink:href="#DejaVuSans-2212"/>
       <use xlink:href="#DejaVuSans-32" transform="translate(83.789062 0)"/>
       <use xlink:href="#DejaVuSans-30" transform="translate(147.412109 0)"/>
      </g>
     </g>
    </g>
    <g id="ytick_2">
     <g id="line2d_41">
      <path d="M 48.982813 255.694229 
L 561.197812 255.694229 
" clip-path="url(#pcf824c9d63)" style="fill: none; stroke-dasharray: 1.85,0.8; stroke-dashoffset: 0; stroke: #b0b0b0; stroke-width: 0.5"/>
     </g>
     <g id="line2d_42">
      <g>
       <use xlink:href="#m12a67b7880" x="48.982813" y="255.694229" style="stroke: #000000; stroke-width: 0.8"/>
      </g>
     </g>
     <g id="text_6">
      <!-- −10 -->
      <g transform="translate(20.878125 259.493448) scale(0.1 -0.1)">
       <use xlink:href="#DejaVuSans-2212"/>
       <use xlink:href="#DejaVuSans-31" transform="translate(83.789062 0)"/>
       <use xlink:href="#DejaVuSans-30" transform="translate(147.412109 0)"/>
      </g>
     </g>
    </g>
    <g id="ytick_3">
     <g id="line2d_43">
      <path d="M 48.982813 216.798212 
L 561.197812 216.798212 
" clip-path="url(#pcf824c9d63)" style="fill: none; stroke-dasharray: 1.85,0.8; stroke-dashoffset: 0; stroke: #b0b0b0; stroke-width: 0.5"/>
     </g>
     <g id="line2d_44">
      <g>
       <use xlink:href="#m12a67b7880" x="48.982813" y="216.798212" style="stroke: #000000; stroke-width: 0.8"/>
      </g>
     </g>
     <g id="text_7">
      <!-- 0 -->
      <g transform="translate(35.620313 220.597431) scale(0.1 -0.1)">
       <use xlink:href="#DejaVuSans-30"/>
      </g>
     </g>
    </g>
    <g id="ytick_4">
     <g id="line2d_45">
      <path d="M 48.982813 177.902195 
L 561.197812 177.902195 
" clip-path="url(#pcf824c9d63)" style="fill: none; stroke-dasharray: 1.85,0.8; stroke-dashoffset: 0; stroke: #b0b0b0; stroke-width: 0.5"/>
     </g>
     <g id="line2d_46">
      <g>
       <use xlink:href="#m12a67b7880" x="48.982813" y="177.902195" style="stroke: #000000; stroke-width: 0.8"/>
      </g>
     </g>
     <g id="text_8">
      <!-- 10 -->
      <g transform="translate(29.257813 181.701413) scale(0.1 -0.1)">
       <use xlink:href="#DejaVuSans-31"/>
       <use xlink:href="#DejaVuSans-30" transform="translate(63.623047 0)"/>
      </g>
     </g>
    </g>
    <g id="ytick_5">
     <g id="line2d_47">
      <path d="M 48.982813 139.006177 
L 561.197812 139.006177 
" clip-path="url(#pcf824c9d63)" style="fill: none; stroke-dasharray: 1.85,0.8; stroke-dashoffset: 0; stroke: #b0b0b0; stroke-width: 0.5"/>
     </g>
     <g id="line2d_48">
      <g>
       <use xlink:href="#m12a67b7880" x="48.982813" y="139.006177" style="stroke: #000000; stroke-width: 0.8"/>
      </g>
     </g>
     <g id="text_9">
      <!-- 20 -->
      <g transform="translate(29.257813 142.805396) scale(0.1 -0.1)">
       <use xlink:href="#DejaVuSans-32"/>
       <use xlink:href="#DejaVuSans-30" transform="translate(63.623047 0)"/>
      </g>
     </g>
    </g>
    <g id="ytick_6">
     <g id="line2d_49">
      <path d="M 48.982813 100.11016 
L 561.197812 100.11016 
" clip-path="url(#pcf824c9d63)" style="fill: none; stroke-dasharray: 1.85,0.8; stroke-dashoffset: 0; stroke: #b0b0b0; stroke-width: 0.5"/>
     </g>
     <g id="line2d_50">
      <g>
       <use xlink:href="#m12a67b7880" x="48.982813" y="100.11016" style="stroke: #000000; stroke-width: 0.8"/>
      </g>
     </g>
     <g id="text_10">
      <!-- 30 -->
      <g transform="translate(29.257813 103.909379) scale(0.1 -0.1)">
       <defs>
        <path id="DejaVuSans-33" d="M 2597 2516 
Q 3050 2419 3304 2112 
Q 3559 1806 3559 1356 
Q 3559 666 3084 287 
Q 2609 -91 1734 -91 
Q 1441 -91 1130 -33 
Q 819 25 488 141 
L 488 750 
Q 750 597 1062 519 
Q 1375 441 1716 441 
Q 2309 441 2620 675 
Q 2931 909 2931 1356 
Q 2931 1769 2642 2001 
Q 2353 2234 1838 2234 
L 1294 2234 
L 1294 2753 
L 1863 2753 
Q 2328 2753 2575 2939 
Q 2822 3125 2822 3475 
Q 2822 3834 2567 4026 
Q 2313 4219 1838 4219 
Q 1578 4219 1281 4162 
Q 984 4106 628 3988 
L 628 4550 
Q 988 4650 1302 4700 
Q 1616 4750 1894 4750 
Q 2613 4750 3031 4423 
Q 3450 4097 3450 3541 
Q 3450 3153 3228 2886 
Q 3006 2619 2597 2516 
z
" transform="scale(0.015625)"/>
       </defs>
       <use xlink:href="#DejaVuSans-33"/>
       <use xlink:href="#DejaVuSans-30" transform="translate(63.623047 0)"/>
      </g>
     </g>
    </g>
    <g id="ytick_7">
     <g id="line2d_51">
      <path d="M 48.982813 61.214142 
L 561.197812 61.214142 
" clip-path="url(#pcf824c9d63)" style="fill: none; stroke-dasharray: 1.85,0.8; stroke-dashoffset: 0; stroke: #b0b0b0; stroke-width: 0.5"/>
     </g>
     <g id="line2d_52">
      <g>
       <use xlink:href="#m12a67b7880" x="48.982813" y="61.214142" style="stroke: #000000; stroke-width: 0.8"/>
      </g>
     </g>
     <g id="text_11">
      <!-- 40 -->
      <g transform="translate(29.257813 65.013361) scale(0.1 -0.1)">
       <defs>
        <path id="DejaVuSans-34" d="M 2419 4116 
L 825 1625 
L 2419 1625 
L 2419 4116 
z
M 2253 4666 
L 3047 4666 
L 3047 1625 
L 3713 1625 
L 3713 1100 
L 3047 1100 
L 3047 0 
L 2419 0 
L 2419 1100 
L 313 1100 
L 313 1709 
L 2253 4666 
z
" transform="scale(0.015625)"/>
       </defs>
       <use xlink:href="#DejaVuSans-34"/>
       <use xlink:href="#DejaVuSans-30" transform="translate(63.623047 0)"/>
      </g>
     </g>
    </g>
    <g id="ytick_8">
     <g id="line2d_53">
      <path d="M 48.982813 22.318125 
L 561.197812 22.318125 
" clip-path="url(#pcf824c9d63)" style="fill: none; stroke-dasharray: 1.85,0.8; stroke-dashoffset: 0; stroke: #b0b0b0; stroke-width: 0.5"/>
     </g>
     <g id="line2d_54">
      <g>
       <use xlink:href="#m12a67b7880" x="48.982813" y="22.318125" style="stroke: #000000; stroke-width: 0.8"/>
      </g>
     </g>
     <g id="text_12">
      <!-- 50 -->
      <g transform="translate(29.257813 26.117344) scale(0.1 -0.1)">
       <defs>
        <path id="DejaVuSans-35" d="M 691 4666 
L 3169 4666 
L 3169 4134 
L 1269 4134 
L 1269 2991 
Q 1406 3038 1543 3061 
Q 1681 3084 1819 3084 
Q 2600 3084 3056 2656 
Q 3513 2228 3513 1497 
Q 3513 744 3044 326 
Q 2575 -91 1722 -91 
Q 1428 -91 1123 -41 
Q 819 9 494 109 
L 494 744 
Q 775 591 1075 516 
Q 1375 441 1709 441 
Q 2250 441 2565 725 
Q 2881 1009 2881 1497 
Q 2881 1984 2565 2268 
Q 2250 2553 1709 2553 
Q 1456 2553 1204 2497 
Q 953 2441 691 2322 
L 691 4666 
z
" transform="scale(0.015625)"/>
       </defs>
       <use xlink:href="#DejaVuSans-35"/>
       <use xlink:href="#DejaVuSans-30" transform="translate(63.623047 0)"/>
      </g>
     </g>
    </g>
    <g id="text_13">
     <!-- SPL (dBA) -->
     <g transform="translate(14.798438 182.944811) rotate(-90) scale(0.1 -0.1)">
      <defs>
       <path id="DejaVuSans-53" d="M 3425 4513 
L 3425 3897 
Q 3066 4069 2747 4153 
Q 2428 4238 2131 4238 
Q 1616 4238 1336 4038 
Q 1056 3838 1056 3469 
Q 1056 3159 1242 3001 
Q 1428 2844 1947 2747 
L 2328 2669 
Q 3034 2534 3370 2195 
Q 3706 1856 3706 1288 
Q 3706 609 3251 259 
Q 2797 -91 1919 -91 
Q 1588 -91 1214 -16 
Q 841 59 441 206 
L 441 856 
Q 825 641 1194 531 
Q 1563 422 1919 422 
Q 2459 422 2753 634 
Q 3047 847 3047 1241 
Q 3047 1584 2836 1778 
Q 2625 1972 2144 2069 
L 1759 2144 
Q 1053 2284 737 2584 
Q 422 2884 422 3419 
Q 422 4038 858 4394 
Q 1294 4750 2059 4750 
Q 2388 4750 2728 4690 
Q 3069 4631 3425 4513 
z
" transform="scale(0.015625)"/>
       <path id="DejaVuSans-50" d="M 1259 4147 
L 1259 2394 
L 2053 2394 
Q 2494 2394 2734 2622 
Q 2975 2850 2975 3272 
Q 2975 3691 2734 3919 
Q 2494 4147 2053 4147 
L 1259 4147 
z
M 628 4666 
L 2053 4666 
Q 2838 4666 3239 4311 
Q 3641 3956 3641 3272 
Q 3641 2581 3239 2228 
Q 2838 1875 2053 1875 
L 1259 1875 
L 1259 0 
L 628 0 
L 628 4666 
z
" transform="scale(0.015625)"/>
       <path id="DejaVuSans-4c" d="M 628 4666 
L 1259 4666 
L 1259 531 
L 3531 531 
L 3531 0 
L 628 0 
L 628 4666 
z
" transform="scale(0.015625)"/>
       <path id="DejaVuSans-64" d="M 2906 2969 
L 2906 4863 
L 3481 4863 
L 3481 0 
L 2906 0 
L 2906 525 
Q 2725 213 2448 61 
Q 2172 -91 1784 -91 
Q 1150 -91 751 415 
Q 353 922 353 1747 
Q 353 2572 751 3078 
Q 1150 3584 1784 3584 
Q 2172 3584 2448 3432 
Q 2725 3281 2906 2969 
z
M 947 1747 
Q 947 1113 1208 752 
Q 1469 391 1925 391 
Q 2381 391 2643 752 
Q 2906 1113 2906 1747 
Q 2906 2381 2643 2742 
Q 2381 3103 1925 3103 
Q 1469 3103 1208 2742 
Q 947 2381 947 1747 
z
" transform="scale(0.015625)"/>
       <path id="DejaVuSans-42" d="M 1259 2228 
L 1259 519 
L 2272 519 
Q 2781 519 3026 730 
Q 3272 941 3272 1375 
Q 3272 1813 3026 2020 
Q 2781 2228 2272 2228 
L 1259 2228 
z
M 1259 4147 
L 1259 2741 
L 2194 2741 
Q 2656 2741 2882 2914 
Q 3109 3088 3109 3444 
Q 3109 3797 2882 3972 
Q 2656 4147 2194 4147 
L 1259 4147 
z
M 628 4666 
L 2241 4666 
Q 2963 4666 3353 4366 
Q 3744 4066 3744 3513 
Q 3744 3084 3544 2831 
Q 3344 2578 2956 2516 
Q 3422 2416 3680 2098 
Q 3938 1781 3938 1306 
Q 3938 681 3513 340 
Q 3088 0 2303 0 
L 628 0 
L 628 4666 
z
" transform="scale(0.015625)"/>
       <path id="DejaVuSans-41" d="M 2188 4044 
L 1331 1722 
L 3047 1722 
L 2188 4044 
z
M 1831 4666 
L 2547 4666 
L 4325 0 
L 3669 0 
L 3244 1197 
L 1141 1197 
L 716 0 
L 50 0 
L 1831 4666 
z
" transform="scale(0.015625)"/>
      </defs>
      <use xlink:href="#DejaVuSans-53"/>
      <use xlink:href="#DejaVuSans-50" transform="translate(63.476562 0)"/>
      <use xlink:href="#DejaVuSans-4c" transform="translate(123.779297 0)"/>
      <use xlink:href="#DejaVuSans-20" transform="translate(179.492188 0)"/>
      <use xlink:href="#DejaVuSans-28" transform="translate(211.279297 0)"/>
      <use xlink:href="#DejaVuSans-64" transform="translate(250.292969 0)"/>
      <use xlink:href="#DejaVuSans-42" transform="translate(313.769531 0)"/>
      <use xlink:href="#DejaVuSans-41" transform="translate(382.373047 0)"/>
      <use xlink:href="#DejaVuSans-29" transform="translate(450.78125 0)"/>
     </g>
    </g>
   </g>
   <g id="line2d_55">
    <path d="M 51.493242 175.261597 
L 57.198394 170.930115 
L 62.625131 158.425155 
L 67.79937 153.732594 
L 72.743565 175.002881 
L 77.477304 177.189124 
L 82.017775 170.508275 
L 86.38014 174.572689 
L 90.577849 169.932277 
L 94.622879 153.773016 
L 98.525949 176.701625 
L 102.296685 176.391227 
L 105.943768 176.919737 
L 109.475052 182.469085 
L 112.897663 180.345232 
L 116.218091 161.078744 
L 119.44226 144.90524 
L 122.575596 166.820736 
L 125.623077 180.298189 
L 128.589281 180.495332 
L 131.478432 169.81597 
L 134.294433 169.483992 
L 137.040895 162.132057 
L 139.721171 154.213803 
L 142.338376 156.392361 
L 144.89541 157.626451 
L 147.394977 158.380863 
L 149.839605 166.664038 
L 152.231656 168.552804 
L 154.573344 167.368041 
L 156.866746 159.658642 
L 159.113814 169.858329 
L 161.316383 161.994303 
L 163.47618 148.943771 
L 165.594836 155.420232 
L 167.673888 161.382432 
L 169.714791 164.402924 
L 171.718919 159.244282 
L 173.687573 160.269042 
L 175.621988 159.437009 
L 177.523335 155.162906 
L 179.392725 153.210244 
L 181.231214 159.311417 
L 183.039808 159.417521 
L 184.819463 156.85891 
L 186.571091 161.871035 
L 188.295561 162.659748 
L 189.993702 164.307791 
L 191.666306 154.495589 
L 193.31413 160.125167 
L 194.937897 148.098697 
L 196.5383 149.978535 
L 198.116001 151.579281 
L 199.671636 153.994355 
L 201.205813 160.244535 
L 202.719116 163.544805 
L 204.212106 174.308707 
L 207.139277 167.232702 
L 208.574472 163.160517 
L 209.991384 158.119815 
L 211.390472 157.934523 
L 212.77218 163.665752 
L 214.136935 162.480133 
L 215.485146 164.701614 
L 216.817211 162.272306 
L 218.133511 163.148706 
L 219.434416 165.885256 
L 220.720281 166.877431 
L 221.99145 168.387883 
L 223.248255 160.908614 
L 224.491017 154.862043 
L 225.720047 154.579595 
L 226.935645 160.257879 
L 228.1381 162.1268 
L 229.327695 157.441567 
L 230.504702 147.307253 
L 231.669383 140.114618 
L 232.821996 141.075243 
L 233.962786 144.569028 
L 235.091994 144.587265 
L 236.209854 148.935974 
L 237.31659 158.326138 
L 238.412422 165.000119 
L 239.497563 164.938785 
L 240.572219 168.732918 
L 241.636592 169.527795 
L 242.690875 167.895324 
L 243.735259 165.104693 
L 244.769928 171.616014 
L 245.79506 174.040482 
L 246.810831 172.859802 
L 247.817408 174.760459 
L 248.814958 171.286786 
L 249.803641 170.337161 
L 250.783613 180.659284 
L 251.755026 184.841881 
L 252.718028 182.773216 
L 253.672764 186.481222 
L 254.619375 188.357989 
L 255.557997 183.35897 
L 256.488765 180.2432 
L 257.411808 178.298592 
L 259.235227 180.922866 
L 260.135848 176.404212 
L 261.029235 174.47828 
L 261.915503 180.246034 
L 262.794765 185.030241 
L 263.667131 182.41862 
L 264.532708 180.778997 
L 266.243912 168.6212 
L 267.089742 170.193525 
L 267.929188 172.847975 
L 268.762346 171.458018 
L 269.589309 173.66628 
L 270.41017 177.872006 
L 271.225016 184.010316 
L 272.033937 188.708253 
L 272.837017 187.646268 
L 273.634339 187.912659 
L 274.425987 189.901607 
L 275.212041 191.307443 
L 275.992578 189.039165 
L 276.767675 187.789409 
L 278.301853 183.64677 
L 279.061078 184.035079 
L 279.815156 185.108925 
L 280.564156 185.250353 
L 282.047192 177.90199 
L 282.78136 176.656071 
L 283.510714 178.136115 
L 284.235317 173.620314 
L 284.955229 165.61383 
L 285.670512 169.534895 
L 286.381224 180.438206 
L 287.087423 189.205623 
L 287.789168 191.506577 
L 288.486512 188.389405 
L 289.179512 188.819449 
L 289.86822 193.442537 
L 290.55269 195.002083 
L 291.232974 199.566109 
L 291.909123 199.455395 
L 292.581186 195.175346 
L 294.573348 179.556956 
L 295.881905 175.742207 
L 296.530455 172.928192 
L 297.81632 171.881307 
L 298.453721 171.137478 
L 299.087489 172.029553 
L 299.717667 175.530384 
L 300.344294 176.920311 
L 300.967411 178.629545 
L 301.587057 179.503166 
L 302.816087 183.428537 
L 303.425546 188.006813 
L 304.031684 191.669683 
L 304.634537 192.646733 
L 305.23414 194.434621 
L 305.830528 194.571206 
L 306.423735 197.482039 
L 307.013795 199.181419 
L 308.184607 205.601762 
L 308.765423 196.872278 
L 309.343222 191.368134 
L 309.918035 190.160544 
L 310.489893 181.352004 
L 311.058825 177.785686 
L 311.624863 185.440972 
L 312.188034 195.117292 
L 312.748368 194.724858 
L 313.305893 191.43813 
L 313.860638 189.221016 
L 314.961895 189.03591 
L 315.508462 193.662884 
L 316.052356 196.727678 
L 316.593603 202.208104 
L 317.132229 201.198093 
L 317.668259 199.581475 
L 318.201719 201.072586 
L 318.732632 194.898118 
L 319.261022 196.708643 
L 319.786915 194.856684 
L 320.310333 190.80549 
L 320.831299 188.012112 
L 321.349836 189.571824 
L 321.865968 189.896697 
L 322.8911 203.682009 
L 323.400145 203.78721 
L 323.90687 210.35532 
L 324.411298 204.798454 
L 324.913448 209.671687 
L 325.413341 212.961345 
L 325.910998 213.895151 
L 326.406438 213.595775 
L 326.899681 216.779626 
L 327.390746 215.721537 
L 327.879652 212.043783 
L 328.366419 211.426869 
L 328.851065 216.057263 
L 329.333609 216.07015 
L 329.814068 216.295768 
L 330.29246 218.785484 
L 330.768804 212.211386 
L 331.243116 215.499467 
L 331.715414 213.399046 
L 332.185716 217.855051 
L 333.120394 214.116254 
L 333.584804 211.657767 
L 334.047283 212.882791 
L 334.507847 213.277674 
L 334.966512 217.703674 
L 335.423294 217.010016 
L 335.878206 218.083862 
L 336.782489 218.246974 
L 337.231887 218.185035 
L 337.679478 217.81206 
L 338.125274 217.608048 
L 338.569291 218.144121 
L 339.011543 218.261398 
L 339.890805 217.658675 
L 340.327843 222.224521 
L 340.76317 223.032283 
L 341.196801 221.667267 
L 341.628747 219.908947 
L 342.059023 220.450834 
L 342.48764 217.317947 
L 342.914612 221.283277 
L 343.76367 215.42602 
L 344.185781 216.579575 
L 344.606296 217.119408 
L 345.025227 216.144952 
L 345.442586 212.078939 
L 345.858385 211.853332 
L 346.272636 212.359438 
L 347.096536 211.43279 
L 347.506209 207.994835 
L 347.914379 207.042394 
L 348.321056 206.8355 
L 348.726251 202.698224 
L 349.129976 204.41097 
L 349.933056 217.946187 
L 350.332432 220.138394 
L 350.730379 221.413249 
L 351.126907 219.678405 
L 351.522027 222.24268 
L 352.30808 220.46713 
L 352.699034 219.769531 
L 353.476841 216.235441 
L 353.863715 216.606225 
L 354.249248 218.039896 
L 354.633449 222.631711 
L 355.016327 225.114978 
L 355.397892 224.490235 
L 355.778153 225.533098 
L 356.157118 230.87267 
L 356.534795 232.014223 
L 358.032812 220.789162 
L 358.404185 222.350563 
L 358.774322 224.64086 
L 359.143232 227.936865 
L 359.510922 226.223863 
L 360.242675 217.582944 
L 360.606754 216.681338 
L 360.969645 216.643518 
L 361.691895 220.227993 
L 362.051269 221.175147 
L 362.409485 224.615909 
L 363.122475 228.565334 
L 363.477263 227.470607 
L 363.830924 224.553835 
L 364.183463 223.71577 
L 364.534889 226.715031 
L 364.885207 224.877969 
L 365.234426 224.270159 
L 365.582552 224.980384 
L 365.929591 221.837096 
L 366.275551 222.236304 
L 366.620439 223.02794 
L 366.96426 226.499495 
L 367.307021 226.913958 
L 367.989392 224.966872 
L 368.329014 226.287135 
L 368.667602 228.754167 
L 369.005162 227.612493 
L 369.677225 223.973551 
L 370.01174 218.89696 
L 370.345252 217.976354 
L 371.00929 226.836549 
L 371.339828 228.95186 
L 371.669387 228.290344 
L 371.997973 226.097742 
L 372.32559 222.018005 
L 372.652246 222.782 
L 372.977945 226.963617 
L 373.626495 226.656633 
L 373.949357 228.847676 
L 374.592285 231.435533 
L 374.91236 230.489218 
L 375.231517 230.363925 
L 375.867096 234.400463 
L 376.183529 234.499331 
L 376.499064 236.148129 
L 376.813707 236.358532 
L 377.440334 231.909982 
L 377.752329 232.057953 
L 378.063451 230.981628 
L 378.373705 231.536547 
L 378.683096 233.750596 
L 378.991629 233.999326 
L 379.299309 232.943457 
L 379.912126 238.520246 
L 380.521586 235.953289 
L 380.825068 235.546602 
L 381.127724 232.74741 
L 381.429559 227.289323 
L 381.730577 228.119023 
L 382.030782 232.115951 
L 382.33018 230.245452 
L 382.628773 236.015548 
L 382.926567 236.57333 
L 383.519775 235.390379 
L 383.815196 232.857815 
L 384.109835 233.767648 
L 384.403695 233.546261 
L 384.696781 237.539122 
L 384.989097 238.429137 
L 385.280646 236.258257 
L 385.571434 235.3038 
L 385.861463 236.239889 
L 386.150737 234.632421 
L 386.439262 233.75603 
L 386.72704 235.119612 
L 387.300371 238.874864 
L 387.585932 235.78402 
L 387.870762 234.871662 
L 388.154865 235.371306 
L 388.438244 232.662595 
L 388.720902 228.500198 
L 389.002844 226.555638 
L 389.284073 228.790538 
L 389.564593 228.412575 
L 390.123519 231.578115 
L 390.401933 232.382292 
L 390.679651 231.439705 
L 390.956677 234.611291 
L 391.233016 235.331887 
L 391.508669 233.445758 
L 391.783641 233.91453 
L 392.057935 233.351859 
L 392.331554 235.195069 
L 392.604501 235.317482 
L 392.876781 237.158664 
L 393.148395 236.622219 
L 393.419348 236.627681 
L 393.689642 233.462884 
L 393.959281 235.064069 
L 394.496606 235.271779 
L 395.031348 236.036555 
L 395.297758 237.354292 
L 395.563531 237.60862 
L 395.828671 235.531189 
L 396.09318 236.551774 
L 396.357062 234.226597 
L 396.620319 235.384349 
L 396.882955 234.533123 
L 397.144971 234.572781 
L 397.667161 235.833774 
L 397.927339 234.232782 
L 398.18691 234.179151 
L 398.704241 236.760805 
L 399.475754 241.358504 
L 399.731741 240.485721 
L 400.241953 235.733744 
L 400.496184 234.53533 
L 400.749836 235.009619 
L 401.00291 236.680118 
L 401.25541 236.593838 
L 401.758696 239.822587 
L 402.009488 239.379631 
L 402.259715 241.023994 
L 402.509381 240.182311 
L 402.758488 239.976621 
L 403.007038 240.867782 
L 403.255033 239.975424 
L 403.502477 239.931745 
L 403.749372 239.459694 
L 404.241524 233.827231 
L 404.731507 241.098897 
L 404.975692 241.203074 
L 405.462459 235.846423 
L 405.705046 236.134115 
L 406.188638 239.038509 
L 406.670137 240.351108 
L 406.910107 241.797658 
L 407.149561 241.597546 
L 407.3885 239.693735 
L 407.626927 241.480003 
L 407.864843 242.111479 
L 408.102252 241.114298 
L 408.339156 241.669037 
L 408.575556 241.237891 
L 409.046853 244.232334 
L 409.516162 241.749585 
L 409.750076 243.071321 
L 409.983499 243.113618 
L 410.216434 242.623201 
L 410.448881 242.470889 
L 410.912324 238.562214 
L 411.143323 239.777233 
L 411.373843 241.618832 
L 411.603887 239.391304 
L 411.833456 239.98734 
L 412.062552 241.329394 
L 412.291177 240.787195 
L 412.519333 242.699366 
L 412.747022 243.619804 
L 412.974246 242.871815 
L 413.201007 242.644106 
L 413.653146 240.195103 
L 413.878528 239.49304 
L 414.103455 237.726445 
L 414.327927 240.815688 
L 414.551947 238.787286 
L 414.775517 238.868512 
L 414.998639 239.948234 
L 415.221314 239.21525 
L 415.443544 240.136258 
L 415.665331 240.324772 
L 415.886676 239.528041 
L 416.107582 240.047182 
L 416.32805 242.464514 
L 416.986844 242.331769 
L 417.205578 245.042594 
L 417.423882 244.579145 
L 417.641759 242.869135 
L 417.85921 243.373769 
L 418.076237 242.23416 
L 418.292841 242.235276 
L 418.509023 244.331777 
L 418.724787 242.421343 
L 418.940133 242.621835 
L 419.369578 241.080685 
L 419.58368 241.328975 
L 419.797371 238.459317 
L 420.435991 242.491606 
L 420.85971 240.421419 
L 421.070966 240.556413 
L 421.281821 242.35875 
L 421.702336 242.268707 
L 422.121267 244.611226 
L 422.330142 242.653602 
L 422.74672 245.176093 
L 423.161743 243.97642 
L 423.575223 246.394622 
L 423.781388 245.911819 
L 424.192576 243.920435 
L 424.602249 246.106686 
L 424.806521 244.770818 
L 425.010418 241.588047 
L 425.213943 243.808589 
L 425.417095 243.834463 
L 425.619878 241.581838 
L 425.822291 241.272979 
L 426.024337 243.462569 
L 426.226016 241.207041 
L 426.42733 243.913013 
L 426.828869 245.395033 
L 427.029096 244.516854 
L 427.228963 244.389012 
L 427.627623 246.284612 
L 427.826419 245.825744 
L 428.02486 243.252448 
L 428.420682 245.670004 
L 428.618067 244.389573 
L 428.815101 244.789767 
L 429.011788 246.564761 
L 429.208127 245.121705 
L 429.40412 242.005402 
L 429.599768 244.136048 
L 429.795073 243.229219 
L 430.184657 245.533356 
L 430.378938 244.507048 
L 430.572881 245.462157 
L 430.766486 244.187817 
L 430.959755 245.28646 
L 431.152688 245.344153 
L 431.537554 243.271119 
L 431.729488 242.79702 
L 431.921092 244.85514 
L 432.112367 244.109328 
L 432.303313 241.494946 
L 432.684225 241.081374 
L 432.874192 246.347497 
L 433.063836 246.182175 
L 433.253157 241.883851 
L 433.442156 243.834936 
L 433.630835 244.556357 
L 433.819194 242.670328 
L 434.194958 245.968245 
L 434.382366 244.979879 
L 434.569457 245.033201 
L 434.756235 246.956241 
L 434.9427 246.656207 
L 435.128852 245.386058 
L 435.314693 245.665069 
L 435.500225 248.274302 
L 435.685447 247.907657 
L 435.870362 248.177694 
L 436.239271 246.769562 
L 436.423268 246.883726 
L 436.606961 243.392039 
L 436.790351 242.371199 
L 436.973439 242.285424 
L 437.156227 241.633588 
L 437.520903 244.771546 
L 437.884387 241.519791 
L 438.246687 245.768534 
L 438.427396 246.239895 
L 438.787934 244.057277 
L 438.967766 244.575297 
L 439.326561 249.191043 
L 439.862591 245.971443 
L 440.040695 245.718216 
L 440.218515 244.587988 
L 440.39605 248.286249 
L 440.573303 248.374269 
L 440.750274 245.985428 
L 441.103373 246.776711 
L 441.279503 246.481025 
L 441.806225 241.410089 
L 442.155993 248.648745 
L 442.330466 246.638251 
L 442.504665 249.5394 
L 442.678591 247.883956 
L 443.025631 240.204246 
L 443.198745 241.548592 
L 443.371591 241.518849 
L 443.544168 242.397512 
L 443.716478 247.298511 
L 443.888522 247.271495 
L 444.060299 246.493837 
L 444.231812 246.974194 
L 444.403061 249.098439 
L 444.574047 248.057236 
L 444.74477 250.407496 
L 444.915231 247.459636 
L 445.255372 249.202934 
L 445.425054 248.950037 
L 445.594476 249.177757 
L 445.763642 244.737297 
L 445.93255 244.656136 
L 446.269599 247.688089 
L 446.437741 245.929021 
L 446.773265 247.385306 
L 446.940648 245.169416 
L 447.274661 248.030824 
L 447.441291 246.800809 
L 447.607673 246.427867 
L 447.773806 247.015949 
L 447.939691 249.917417 
L 448.10533 247.779385 
L 448.270722 248.460318 
L 448.435868 249.692696 
L 448.60077 249.268736 
L 448.765427 252.166651 
L 449.094012 248.559943 
L 449.257942 248.34367 
L 449.42163 247.588893 
L 449.585078 250.993281 
L 449.748285 249.912682 
L 449.911254 251.144753 
L 450.073984 253.501926 
L 450.560751 249.260845 
L 450.722535 244.313987 
L 450.884083 243.490117 
L 451.206478 252.381793 
L 451.367325 252.820542 
L 451.52794 251.506954 
L 451.688324 247.149436 
L 451.848477 246.377576 
L 452.168092 250.615131 
L 452.327556 249.865998 
L 452.486792 251.033577 
L 452.6458 253.615798 
L 452.804581 254.207743 
L 452.963135 252.005299 
L 453.121464 247.213078 
L 453.279568 246.213976 
L 453.437448 251.230397 
L 453.595104 246.789705 
L 453.752536 246.016364 
L 453.909746 250.333097 
L 454.223501 247.110795 
L 454.380047 247.507468 
L 454.536374 249.951373 
L 454.69248 250.478417 
L 454.848368 252.670795 
L 455.15949 250.017543 
L 455.314726 250.422598 
L 455.469745 247.065317 
L 455.779136 250.149739 
L 455.933509 248.115731 
L 456.087669 248.821808 
L 456.241615 248.421427 
L 456.54887 250.776776 
L 456.855278 247.214815 
L 457.313313 252.621559 
L 457.465573 253.327904 
L 457.617625 252.294073 
L 458.072538 247.360673 
L 458.223763 249.648669 
L 458.374783 249.686437 
L 458.525598 248.322976 
L 458.676209 249.013692 
L 458.826616 251.589306 
L 458.97682 251.254233 
L 459.126822 250.550551 
L 459.276621 246.270625 
L 459.575616 248.898381 
L 459.724813 243.185685 
L 459.87381 244.43074 
L 460.171206 251.570986 
L 460.467809 246.065785 
L 460.615814 250.561224 
L 460.911236 247.197633 
L 461.058652 252.92185 
L 461.205874 253.455223 
L 461.352902 253.057724 
L 461.499735 253.850306 
L 461.646374 252.772651 
L 461.792821 248.349238 
L 461.939075 249.202107 
L 462.085136 248.556006 
L 462.376686 250.662231 
L 462.522175 251.713184 
L 462.667473 250.178721 
L 462.812582 253.248368 
L 462.957502 252.485967 
L 463.246777 245.646215 
L 463.391133 245.089925 
L 463.679283 253.76062 
L 463.823079 254.178524 
L 463.966689 252.749628 
L 464.110114 252.937402 
L 464.253355 252.086433 
L 464.539283 256.381562 
L 464.966802 246.788862 
L 465.250905 251.237854 
L 465.392684 251.556264 
L 465.534283 254.128351 
L 465.816942 254.852548 
L 466.098884 253.700227 
L 466.239587 254.830073 
L 466.520461 243.958667 
L 466.660633 242.02221 
L 466.940447 257.431098 
L 467.080091 253.187398 
L 467.219559 253.113711 
L 467.358853 253.859048 
L 467.497972 253.54057 
L 467.636918 252.289499 
L 467.775691 253.804567 
L 467.91429 252.230713 
L 468.052717 252.120935 
L 468.329055 253.348892 
L 468.466967 253.170218 
L 468.74228 256.899499 
L 468.879681 256.831615 
L 469.016912 256.229383 
L 469.290868 253.920618 
L 469.427593 253.028258 
L 469.564151 253.947917 
L 469.700541 253.019141 
L 469.97282 257.808277 
L 470.10871 256.623917 
L 470.244435 253.372479 
L 470.379994 254.711885 
L 470.515388 252.001097 
L 470.650617 253.182094 
L 470.785682 257.97577 
L 470.920583 256.219202 
L 471.055321 257.651735 
L 471.189896 256.079596 
L 471.324308 256.12296 
L 471.458558 253.954462 
L 471.592646 254.642876 
L 471.726573 257.059683 
L 471.860338 256.626429 
L 471.993943 250.283197 
L 472.127388 250.347829 
L 472.260673 256.241326 
L 472.659571 254.090867 
L 472.79222 253.49039 
L 472.924711 257.763234 
L 473.057044 257.070198 
L 473.18922 254.826634 
L 473.321239 254.840161 
L 473.453102 249.772278 
L 473.584808 255.308578 
L 473.847754 256.245295 
L 473.978994 254.49041 
L 474.241011 245.097585 
L 474.502412 251.86915 
L 474.632883 252.593465 
L 474.893365 255.500815 
L 475.023378 256.125959 
L 475.282949 258.785657 
L 475.412508 259.585328 
L 475.671173 248.604009 
L 475.800281 247.339178 
L 476.186706 258.769429 
L 476.315217 258.225133 
L 476.571794 259.40762 
L 476.699861 256.54637 
L 476.827781 250.106823 
L 476.955553 252.450821 
L 477.083179 258.200341 
L 477.210659 258.612265 
L 477.465181 260.851155 
L 477.592224 259.333596 
L 477.719122 260.358506 
L 478.09895 249.325498 
L 478.351449 257.19529 
L 478.477484 256.481034 
L 478.603377 257.425961 
L 478.729127 260.812469 
L 478.980202 258.623726 
L 479.105527 262.317049 
L 479.230711 261.765956 
L 479.355755 260.379576 
L 479.605421 255.314542 
L 479.854527 259.73916 
L 479.978872 260.544622 
L 480.351073 254.234281 
L 480.474864 254.304373 
L 480.598517 260.324856 
L 480.845412 257.549381 
L 480.968654 257.679671 
L 481.21473 260.016043 
L 481.337563 261.796195 
L 481.460262 258.915347 
L 481.582825 249.00775 
L 481.705253 248.905422 
L 481.949706 252.958497 
L 482.071732 260.21271 
L 482.193623 259.849636 
L 482.315381 260.282887 
L 482.558499 253.409261 
L 482.679858 260.603438 
L 482.922181 251.059993 
L 483.284678 259.90832 
L 483.405248 260.619186 
L 483.525688 257.753657 
L 483.645997 259.643546 
L 483.886227 255.473075 
L 484.006147 262.693955 
L 484.2456 259.509982 
L 484.365134 258.175894 
L 484.484539 261.775244 
L 484.603817 260.798639 
L 484.722966 254.778581 
L 484.841988 255.043826 
L 484.960883 256.753757 
L 485.198292 263.222473 
L 485.553458 259.671572 
L 485.671595 259.475614 
L 486.025255 248.072606 
L 486.260406 257.3533 
L 486.377795 255.786195 
L 486.612202 259.36187 
L 486.72922 252.140139 
L 486.846116 260.66274 
L 486.962889 260.452562 
L 487.079539 257.465078 
L 487.196067 264.825477 
L 487.312473 262.056484 
L 487.544921 263.5487 
L 487.660962 264.308073 
L 487.776883 261.753884 
L 487.892684 262.63373 
L 488.008363 262.114154 
L 488.123923 256.549849 
L 488.354682 227.919573 
L 488.584964 258.622741 
L 488.699927 256.195876 
L 488.81477 260.129924 
L 488.929496 258.899229 
L 489.044102 255.967353 
L 489.272963 264.064044 
L 489.387217 263.77778 
L 489.501353 263.088266 
L 489.615373 261.272436 
L 489.729276 262.15606 
L 489.843062 261.556103 
L 489.956732 258.402033 
L 490.297046 262.075008 
L 490.410254 260.556978 
L 490.523346 256.51694 
L 490.636323 259.387315 
L 490.974568 257.755582 
L 491.311787 266.049646 
L 491.647987 263.132816 
L 491.759828 263.425246 
L 491.983174 261.935761 
L 492.094679 261.470485 
L 492.206072 259.86236 
L 492.317354 261.546252 
L 492.428524 265.063517 
L 492.650532 258.542162 
L 492.76137 259.417999 
L 492.982716 264.148004 
L 493.203622 262.079877 
L 493.31391 264.953681 
L 493.42409 259.316287 
L 493.53416 259.880779 
L 493.644122 261.759507 
L 493.753975 261.174185 
L 493.863719 257.110183 
L 494.192305 265.995568 
L 494.410823 262.860518 
L 494.519922 265.840569 
L 494.628914 265.443401 
L 494.737799 262.717919 
L 494.846577 264.49662 
L 495.172276 261.299589 
L 495.38888 257.482585 
L 495.497024 256.381797 
L 495.712997 268.799791 
L 495.820827 266.838981 
L 495.928552 263.378392 
L 496.036172 263.950893 
L 496.251102 266.730907 
L 496.358411 260.975799 
L 496.465617 261.132732 
L 496.57272 264.094464 
L 496.679719 262.957927 
L 496.89341 255.957806 
L 497.106692 267.234834 
L 497.213179 266.994415 
L 497.638112 262.68658 
L 497.849971 263.321747 
L 497.95575 266.177861 
L 498.167005 260.454849 
L 498.272483 265.839439 
L 498.483138 262.573415 
L 498.588317 266.805799 
L 498.798375 254.71985 
L 498.903256 257.385492 
L 499.112722 265.804668 
L 499.217307 265.933362 
L 499.321793 268.173854 
L 499.530473 257.502048 
L 499.842759 263.657143 
L 500.050465 257.280983 
L 500.257783 265.278565 
L 500.464715 257.6183 
L 500.671263 265.461963 
L 500.774393 257.117148 
L 501.288615 267.59559 
L 501.391175 265.548427 
L 501.596012 267.651133 
L 501.698288 267.472058 
L 501.800471 267.999287 
L 502.004556 265.38879 
L 502.106458 263.06511 
L 502.208267 270.381967 
L 502.309982 269.099222 
L 502.411605 265.529679 
L 502.513135 265.900164 
L 502.614572 265.150326 
L 502.715917 260.780965 
L 502.918331 270.473223 
L 503.322056 261.175186 
L 503.422758 268.765032 
L 503.72432 258.833702 
L 503.924908 263.945967 
L 504.025067 267.415352 
L 504.125135 266.470043 
L 504.325003 261.159987 
L 504.424802 261.14772 
L 504.524511 261.990196 
L 504.723663 268.983821 
L 504.922458 265.683704 
L 505.120899 270.907824 
L 505.516722 263.135303 
L 505.615458 263.827857 
L 505.714106 262.447925 
L 505.812667 264.360328 
L 505.911141 262.960408 
L 506.107827 269.930888 
L 506.20604 268.230028 
L 506.402206 258.14393 
L 506.598027 267.772355 
L 506.695808 261.478741 
L 506.793503 262.364332 
L 507.086075 272.535207 
L 507.183429 271.946443 
L 507.280697 271.440356 
L 507.37788 270.204863 
L 507.571992 265.004597 
L 507.668921 266.703092 
L 507.862526 272.935992 
L 507.959202 271.054181 
L 508.055794 271.511031 
L 508.248728 261.947084 
L 508.345069 273.024003 
L 508.441327 272.68244 
L 508.729602 267.537668 
L 508.825528 267.778388 
L 508.921371 264.107229 
L 509.208406 273.112877 
L 509.30392 272.822982 
L 509.399353 272.244917 
L 509.494703 272.757515 
L 509.589971 270.741782 
L 509.685158 270.927372 
L 509.875289 267.905561 
L 509.970232 266.378165 
L 510.159876 274.076745 
L 510.254576 269.6257 
L 510.443737 271.951401 
L 510.632575 271.094246 
L 510.726875 272.779615 
L 510.821094 267.796055 
L 510.915234 269.135781 
L 511.009294 273.775584 
L 511.103275 272.925046 
L 511.197176 262.924075 
L 511.290998 264.568621 
L 511.384741 268.143763 
L 511.478405 267.765831 
L 511.852275 272.523471 
L 511.945546 271.424496 
L 512.131854 264.003114 
L 512.410733 274.577153 
L 512.596265 269.302373 
L 512.781487 274.124494 
L 512.873983 274.569742 
L 513.151009 270.258155 
L 513.243198 274.911921 
L 513.335311 274.367703 
L 513.519308 265.453233 
L 513.703001 272.956768 
L 513.794734 274.894153 
L 513.886391 274.742941 
L 513.977973 272.271448 
L 514.069479 273.042999 
L 514.252266 270.405464 
L 514.434754 276.337354 
L 514.707925 271.300216 
L 514.798833 271.089208 
L 514.980427 273.992129 
L 515.161724 271.796854 
L 515.252262 273.77129 
L 515.342727 273.455982 
L 515.433118 272.342238 
L 515.523435 275.807492 
L 515.61368 271.861046 
L 515.703851 272.929824 
L 515.793949 272.378721 
L 515.883974 272.78759 
L 515.973926 270.240033 
L 516.063806 272.596773 
L 516.153613 272.51836 
L 516.243348 268.441894 
L 516.33301 269.153246 
L 516.4226 271.796048 
L 516.512118 270.862305 
L 516.601564 272.53839 
L 516.780241 271.446908 
L 516.95863 265.920032 
L 517.136735 260.235069 
L 517.314554 272.332348 
L 517.403357 270.841007 
L 517.49209 271.073272 
L 517.580752 269.148832 
L 517.669343 269.524767 
L 517.846313 275.442709 
L 518.023003 266.093832 
L 518.199412 278.572857 
L 518.287512 277.641194 
L 518.463503 270.219045 
L 518.814651 275.845673 
L 518.98981 266.119043 
L 519.077286 266.349102 
L 519.164694 262.781531 
L 519.339303 276.450066 
L 519.426505 268.600185 
L 519.513639 270.278548 
L 519.687702 276.964918 
L 519.861492 269.088988 
L 519.948286 271.147756 
L 520.035012 276.020228 
L 520.12167 273.531565 
L 520.294785 276.688289 
L 520.553953 270.316172 
L 520.640208 275.771328 
L 520.726396 274.96847 
L 520.898573 279.178392 
L 521.156339 271.037717 
L 521.242128 272.10331 
L 521.327852 276.07065 
L 521.413509 275.525244 
L 521.499101 273.197069 
L 521.670086 277.697701 
L 521.755481 278.493554 
L 521.840809 278.219702 
L 522.011271 274.79488 
L 522.181471 276.050824 
L 522.266474 275.34469 
L 522.351412 273.087673 
L 522.436285 274.325344 
L 522.605837 271.026156 
L 522.690516 271.80456 
L 522.775131 277.549399 
L 522.944167 270.5152 
L 523.02859 272.825436 
L 523.197242 278.465891 
L 523.281472 276.742409 
L 523.365638 278.701366 
L 523.449741 276.59725 
L 523.533781 277.100025 
L 523.617757 278.252365 
L 523.869305 274.606554 
L 524.036688 276.327068 
L 524.120285 276.25329 
L 524.203819 273.796678 
L 524.454047 279.43356 
L 524.537331 279.524328 
L 524.620553 279.334668 
L 524.703713 277.848384 
L 524.78681 279.092411 
L 524.869846 278.301606 
L 525.118581 274.320701 
L 525.284096 281.086682 
L 525.366761 280.226646 
L 525.449365 277.654705 
L 525.531908 280.511334 
L 525.614389 275.044314 
L 525.696809 275.132515 
L 525.861467 279.663841 
L 526.107997 271.458636 
L 526.272047 276.911523 
L 526.435856 281.568657 
L 526.599423 275.942603 
L 526.681117 276.377444 
L 526.762751 273.611837 
L 526.925839 282.024085 
L 527.007294 282.641477 
L 527.088688 281.510674 
L 527.170024 281.766453 
L 527.332516 274.727176 
L 527.413674 279.964745 
L 527.656791 268.604308 
L 527.899378 280.863942 
L 528.141437 277.982393 
L 528.222006 278.691589 
L 528.302517 278.212381 
L 528.38297 280.197714 
L 528.463365 280.042749 
L 528.543701 279.032099 
L 528.62398 279.119917 
L 528.704201 278.926568 
L 528.864469 280.434234 
L 528.944517 280.483373 
L 529.184314 270.091284 
L 529.343892 279.893672 
L 529.423596 280.565399 
L 529.582831 277.765783 
L 529.741839 283.359784 
L 529.821258 279.001096 
L 529.90062 279.026201 
L 529.979926 278.24108 
L 530.217504 281.819984 
L 530.375608 276.453579 
L 530.454576 282.129546 
L 530.533487 280.992094 
L 530.691143 284.075859 
L 530.848576 280.441565 
L 531.005786 281.643624 
L 531.084307 271.284457 
L 531.162774 272.851001 
L 531.476087 283.689704 
L 531.554278 280.274231 
L 531.632413 284.090069 
L 531.866491 271.81467 
L 531.944408 273.385977 
L 532.100078 283.231692 
L 532.177831 282.60021 
L 532.333175 274.702908 
L 532.488302 284.889754 
L 532.565784 284.683546 
L 532.643213 280.213299 
L 532.720587 282.539172 
L 532.797908 279.031957 
L 532.952389 285.413236 
L 533.029549 282.409236 
L 533.106655 283.445265 
L 533.183709 283.342808 
L 533.260708 279.90417 
L 533.337655 281.180376 
L 533.491388 275.582419 
L 533.568175 278.03075 
L 533.644909 282.347833 
L 533.72159 278.379605 
L 533.798219 279.944161 
L 533.951317 281.646203 
L 534.104205 274.614049 
L 534.180571 284.482343 
L 534.333144 271.174035 
L 534.409353 273.812665 
L 534.637665 283.799413 
L 534.713665 283.805656 
L 534.789613 288.283758 
L 534.941354 285.327868 
L 535.017147 285.92511 
L 535.168578 277.198675 
L 535.244216 277.399703 
L 535.319803 275.754602 
L 535.470823 284.768483 
L 535.546256 284.61212 
L 535.621638 283.623099 
L 535.696969 272.022968 
L 535.772249 276.087719 
L 535.922656 285.453748 
L 535.997783 286.082915 
L 536.07286 283.321147 
L 536.222861 272.400396 
L 536.297786 277.48203 
L 536.372661 274.76129 
L 536.447485 275.794957 
L 536.596982 284.90318 
L 536.671656 284.684528 
L 536.746279 283.343917 
L 536.820852 284.400837 
L 536.895376 283.826867 
L 536.969849 280.205424 
L 537.118647 288.596157 
L 537.267245 277.451828 
L 537.34147 278.035454 
L 537.415646 278.387766 
L 537.489772 284.761648 
L 537.563848 284.276054 
L 537.637876 280.75498 
L 537.711854 283.269008 
L 537.785783 278.471425 
L 538.007275 285.676814 
L 538.301914 273.859619 
L 538.669118 288.798317 
L 538.742414 285.333712 
L 538.88886 271.437408 
L 539.108169 284.924607 
L 539.181176 284.929989 
L 539.254135 286.568525 
L 539.327046 283.26144 
L 539.472726 287.881903 
L 539.618214 283.248819 
L 539.763513 288.574189 
L 539.908622 279.093587 
L 539.981105 282.974248 
L 540.053542 287.074246 
L 540.125931 286.244821 
L 540.270568 284.589453 
L 540.342817 289.21727 
L 540.415018 288.606389 
L 540.631341 283.849858 
L 540.775323 278.957767 
L 540.919119 291.567743 
L 541.134465 277.803469 
L 541.277797 287.760951 
L 541.349394 280.692327 
L 541.563909 291.618951 
L 541.778012 279.969254 
L 541.849288 281.190808 
L 542.133935 293.361563 
L 542.417857 281.745869 
L 542.488724 282.173906 
L 542.630323 291.099563 
L 542.771742 285.781738 
L 542.842384 285.175309 
L 542.912981 282.412321 
L 543.054042 289.258405 
L 543.124505 287.742916 
L 543.265297 291.020353 
L 543.546349 279.767598 
L 543.756673 290.333096 
L 543.826692 286.966909 
L 543.896668 291.134815 
L 543.966599 289.351991 
L 544.17613 280.947136 
L 544.245886 278.682399 
L 544.315599 279.686666 
L 544.385267 279.090906 
L 544.594012 294.793228 
L 544.663507 293.457791 
L 544.941052 279.660728 
L 545.01033 290.722553 
L 545.079565 287.49798 
L 545.148757 283.323028 
L 545.217906 283.439243 
L 545.356075 294.030891 
L 545.425095 289.49863 
L 545.494072 291.153406 
L 545.631899 295.576711 
L 545.700748 286.618928 
L 545.769555 287.590558 
L 545.838319 292.779236 
L 545.907041 281.76217 
L 545.97572 283.909699 
L 546.044357 282.445832 
L 546.112952 284.855308 
L 546.181504 294.348549 
L 546.318482 276.533275 
L 546.386908 287.969692 
L 546.455291 287.098728 
L 546.728406 292.750563 
L 546.864713 285.806824 
L 546.932804 286.904483 
L 547.136826 294.981485 
L 547.272633 280.972686 
L 547.340474 281.359223 
L 547.476033 290.939994 
L 547.543751 289.977085 
L 547.611427 287.858294 
L 547.746656 290.469486 
L 547.81421 285.698385 
L 547.881722 286.918052 
L 547.949193 292.835823 
L 548.016623 292.634134 
L 548.218668 281.49272 
L 548.285935 285.78077 
L 548.353162 291.3913 
L 548.487493 278.755414 
L 548.554598 281.140488 
L 548.688686 296.13945 
L 548.822612 290.235556 
L 548.956378 294.871747 
L 549.089983 285.092665 
L 549.156725 296.839845 
L 549.29009 286.560068 
L 549.356712 293.816879 
L 549.423295 290.211167 
L 549.489837 294.550486 
L 549.55634 290.233076 
L 549.622803 291.063327 
L 549.689227 293.200537 
L 549.821955 286.16957 
L 549.88826 289.308746 
L 550.02075 284.424622 
L 550.153084 292.24804 
L 550.219191 286.278989 
L 550.28526 286.603867 
L 550.351289 294.247003 
L 550.417279 292.882707 
L 550.48323 293.022476 
L 550.549141 288.771133 
L 550.615014 290.91236 
L 550.680848 293.5132 
L 550.878115 286.653523 
L 551.009433 294.562566 
L 551.271604 285.27332 
L 551.337051 283.129164 
L 551.402459 293.300381 
L 551.467828 286.292774 
L 551.533159 286.191951 
L 551.598452 291.939656 
L 551.728922 281.484608 
L 551.7941 281.499052 
L 551.924341 291.09758 
L 551.989405 289.049566 
L 552.05443 286.132369 
L 552.119418 293.140108 
L 552.184367 290.210507 
L 552.249279 290.452016 
L 552.314153 289.214238 
L 552.378989 293.967111 
L 552.443787 291.226318 
L 552.637955 281.852726 
L 552.702603 283.284439 
L 552.960818 291.138793 
L 553.025278 292.06743 
L 553.282746 282.021217 
L 553.411257 295.668075 
L 553.475456 291.871321 
L 553.539619 284.09289 
L 553.603745 287.16743 
L 553.667834 297.581095 
L 553.731886 291.759782 
L 553.859879 297.931228 
L 553.987725 292.472514 
L 554.051593 297.136482 
L 554.115424 295.287937 
L 554.242977 280.640283 
L 554.306699 282.035969 
L 554.370384 294.148155 
L 554.434032 291.929452 
L 554.497645 291.160869 
L 554.688264 293.435625 
L 554.941915 281.450607 
L 555.068524 296.491051 
L 555.131775 290.782291 
L 555.194989 286.00777 
L 555.321311 298.07625 
L 555.384418 290.400975 
L 555.447489 294.418962 
L 555.573524 283.605153 
L 555.699417 291.029238 
L 555.887989 287.992777 
L 555.950775 288.511497 
L 556.076242 294.722063 
L 556.201567 281.32183 
L 556.264176 294.728756 
L 556.326751 287.866025 
L 556.38929 287.996371 
L 556.451794 298.65875 
L 556.514263 296.596836 
L 556.763789 291.30086 
L 556.888342 296.830848 
L 557.137031 282.939496 
L 557.323184 299.113815 
L 557.447113 295.420073 
L 557.570903 288.846171 
L 557.632747 292.75924 
L 557.694557 289.652855 
L 557.756332 288.442634 
L 557.879779 291.750099 
L 558.126264 279.548022 
L 558.187799 280.531861 
L 558.310769 297.237394 
L 558.372203 295.929532 
L 558.556301 291.437762 
L 558.740096 300.478812 
L 558.862457 287.424769 
L 558.923587 296.120856 
L 558.984683 295.665345 
L 559.045746 292.679453 
L 559.167771 298.808466 
L 559.289663 291.876347 
L 559.350559 291.824639 
L 559.533046 299.383005 
L 559.593809 296.906122 
L 559.715235 282.396619 
L 559.957689 298.347318 
L 560.078719 287.947656 
L 560.139184 289.954727 
L 560.260016 291.798752 
L 560.320383 297.66546 
L 560.441019 283.267161 
L 560.621728 299.331487 
L 560.742037 283.860589 
L 560.802143 289.635435 
L 561.042243 302.126898 
L 561.162098 288.920546 
L 561.162098 288.920546 
" clip-path="url(#pcf824c9d63)" style="fill: none; stroke: #1f77b4; stroke-linecap: square"/>
   </g>
   <g id="patch_3">
    <path d="M 48.982813 294.590247 
L 48.982813 22.318125 
" style="fill: none; stroke: #000000; stroke-width: 0.8; stroke-linejoin: miter; stroke-linecap: square"/>
   </g>
   <g id="patch_4">
    <path d="M 561.197812 294.590247 
L 561.197812 22.318125 
" style="fill: none; stroke: #000000; stroke-width: 0.8; stroke-linejoin: miter; stroke-linecap: square"/>
   </g>
   <g id="patch_5">
    <path d="M 48.982813 294.590247 
L 561.197812 294.590247 
" style="fill: none; stroke: #000000; stroke-width: 0.8; stroke-linejoin: miter; stroke-linecap: square"/>
   </g>
   <g id="patch_6">
    <path d="M 48.982813 22.318125 
L 561.197812 22.318125 
" style="fill: none; stroke: #000000; stroke-width: 0.8; stroke-linejoin: miter; stroke-linecap: square"/>
   </g>
   <g id="text_14">
    <!-- Ford Explorer Blower Setting Off - Narrow Band SPL (dBA) -->
    <g transform="translate(132.43375 16.318125) scale(0.12 -0.12)">
     <defs>
      <path id="DejaVuSans-6f" d="M 1959 3097 
Q 1497 3097 1228 2736 
Q 959 2375 959 1747 
Q 959 1119 1226 758 
Q 1494 397 1959 397 
Q 2419 397 2687 759 
Q 2956 1122 2956 1747 
Q 2956 2369 2687 2733 
Q 2419 3097 1959 3097 
z
M 1959 3584 
Q 2709 3584 3137 3096 
Q 3566 2609 3566 1747 
Q 3566 888 3137 398 
Q 2709 -91 1959 -91 
Q 1206 -91 779 398 
Q 353 888 353 1747 
Q 353 2609 779 3096 
Q 1206 3584 1959 3584 
z
" transform="scale(0.015625)"/>
      <path id="DejaVuSans-45" d="M 628 4666 
L 3578 4666 
L 3578 4134 
L 1259 4134 
L 1259 2753 
L 3481 2753 
L 3481 2222 
L 1259 2222 
L 1259 531 
L 3634 531 
L 3634 0 
L 628 0 
L 628 4666 
z
" transform="scale(0.015625)"/>
      <path id="DejaVuSans-78" d="M 3513 3500 
L 2247 1797 
L 3578 0 
L 2900 0 
L 1881 1375 
L 863 0 
L 184 0 
L 1544 1831 
L 300 3500 
L 978 3500 
L 1906 2253 
L 2834 3500 
L 3513 3500 
z
" transform="scale(0.015625)"/>
      <path id="DejaVuSans-70" d="M 1159 525 
L 1159 -1331 
L 581 -1331 
L 581 3500 
L 1159 3500 
L 1159 2969 
Q 1341 3281 1617 3432 
Q 1894 3584 2278 3584 
Q 2916 3584 3314 3078 
Q 3713 2572 3713 1747 
Q 3713 922 3314 415 
Q 2916 -91 2278 -91 
Q 1894 -91 1617 61 
Q 1341 213 1159 525 
z
M 3116 1747 
Q 3116 2381 2855 2742 
Q 2594 3103 2138 3103 
Q 1681 3103 1420 2742 
Q 1159 2381 1159 1747 
Q 1159 1113 1420 752 
Q 1681 391 2138 391 
Q 2594 391 2855 752 
Q 3116 1113 3116 1747 
z
" transform="scale(0.015625)"/>
      <path id="DejaVuSans-6c" d="M 603 4863 
L 1178 4863 
L 1178 0 
L 603 0 
L 603 4863 
z
" transform="scale(0.015625)"/>
      <path id="DejaVuSans-77" d="M 269 3500 
L 844 3500 
L 1563 769 
L 2278 3500 
L 2956 3500 
L 3675 769 
L 4391 3500 
L 4966 3500 
L 4050 0 
L 3372 0 
L 2619 2869 
L 1863 0 
L 1184 0 
L 269 3500 
z
" transform="scale(0.015625)"/>
      <path id="DejaVuSans-74" d="M 1172 4494 
L 1172 3500 
L 2356 3500 
L 2356 3053 
L 1172 3053 
L 1172 1153 
Q 1172 725 1289 603 
Q 1406 481 1766 481 
L 2356 481 
L 2356 0 
L 1766 0 
Q 1100 0 847 248 
Q 594 497 594 1153 
L 594 3053 
L 172 3053 
L 172 3500 
L 594 3500 
L 594 4494 
L 1172 4494 
z
" transform="scale(0.015625)"/>
      <path id="DejaVuSans-69" d="M 603 3500 
L 1178 3500 
L 1178 0 
L 603 0 
L 603 3500 
z
M 603 4863 
L 1178 4863 
L 1178 4134 
L 603 4134 
L 603 4863 
z
" transform="scale(0.015625)"/>
      <path id="DejaVuSans-67" d="M 2906 1791 
Q 2906 2416 2648 2759 
Q 2391 3103 1925 3103 
Q 1463 3103 1205 2759 
Q 947 2416 947 1791 
Q 947 1169 1205 825 
Q 1463 481 1925 481 
Q 2391 481 2648 825 
Q 2906 1169 2906 1791 
z
M 3481 434 
Q 3481 -459 3084 -895 
Q 2688 -1331 1869 -1331 
Q 1566 -1331 1297 -1286 
Q 1028 -1241 775 -1147 
L 775 -588 
Q 1028 -725 1275 -790 
Q 1522 -856 1778 -856 
Q 2344 -856 2625 -561 
Q 2906 -266 2906 331 
L 2906 616 
Q 2728 306 2450 153 
Q 2172 0 1784 0 
Q 1141 0 747 490 
Q 353 981 353 1791 
Q 353 2603 747 3093 
Q 1141 3584 1784 3584 
Q 2172 3584 2450 3431 
Q 2728 3278 2906 2969 
L 2906 3500 
L 3481 3500 
L 3481 434 
z
" transform="scale(0.015625)"/>
      <path id="DejaVuSans-4f" d="M 2522 4238 
Q 1834 4238 1429 3725 
Q 1025 3213 1025 2328 
Q 1025 1447 1429 934 
Q 1834 422 2522 422 
Q 3209 422 3611 934 
Q 4013 1447 4013 2328 
Q 4013 3213 3611 3725 
Q 3209 4238 2522 4238 
z
M 2522 4750 
Q 3503 4750 4090 4092 
Q 4678 3434 4678 2328 
Q 4678 1225 4090 567 
Q 3503 -91 2522 -91 
Q 1538 -91 948 565 
Q 359 1222 359 2328 
Q 359 3434 948 4092 
Q 1538 4750 2522 4750 
z
" transform="scale(0.015625)"/>
      <path id="DejaVuSans-66" d="M 2375 4863 
L 2375 4384 
L 1825 4384 
Q 1516 4384 1395 4259 
Q 1275 4134 1275 3809 
L 1275 3500 
L 2222 3500 
L 2222 3053 
L 1275 3053 
L 1275 0 
L 697 0 
L 697 3053 
L 147 3053 
L 147 3500 
L 697 3500 
L 697 3744 
Q 697 4328 969 4595 
Q 1241 4863 1831 4863 
L 2375 4863 
z
" transform="scale(0.015625)"/>
      <path id="DejaVuSans-2d" d="M 313 2009 
L 1997 2009 
L 1997 1497 
L 313 1497 
L 313 2009 
z
" transform="scale(0.015625)"/>
      <path id="DejaVuSans-4e" d="M 628 4666 
L 1478 4666 
L 3547 763 
L 3547 4666 
L 4159 4666 
L 4159 0 
L 3309 0 
L 1241 3903 
L 1241 0 
L 628 0 
L 628 4666 
z
" transform="scale(0.015625)"/>
      <path id="DejaVuSans-61" d="M 2194 1759 
Q 1497 1759 1228 1600 
Q 959 1441 959 1056 
Q 959 750 1161 570 
Q 1363 391 1709 391 
Q 2188 391 2477 730 
Q 2766 1069 2766 1631 
L 2766 1759 
L 2194 1759 
z
M 3341 1997 
L 3341 0 
L 2766 0 
L 2766 531 
Q 2569 213 2275 61 
Q 1981 -91 1556 -91 
Q 1019 -91 701 211 
Q 384 513 384 1019 
Q 384 1609 779 1909 
Q 1175 2209 1959 2209 
L 2766 2209 
L 2766 2266 
Q 2766 2663 2505 2880 
Q 2244 3097 1772 3097 
Q 1472 3097 1187 3025 
Q 903 2953 641 2809 
L 641 3341 
Q 956 3463 1253 3523 
Q 1550 3584 1831 3584 
Q 2591 3584 2966 3190 
Q 3341 2797 3341 1997 
z
" transform="scale(0.015625)"/>
     </defs>
     <use xlink:href="#DejaVuSans-46"/>
     <use xlink:href="#DejaVuSans-6f" transform="translate(53.894531 0)"/>
     <use xlink:href="#DejaVuSans-72" transform="translate(115.076172 0)"/>
     <use xlink:href="#DejaVuSans-64" transform="translate(154.439453 0)"/>
     <use xlink:href="#DejaVuSans-20" transform="translate(217.916016 0)"/>
     <use xlink:href="#DejaVuSans-45" transform="translate(249.703125 0)"/>
     <use xlink:href="#DejaVuSans-78" transform="translate(312.886719 0)"/>
     <use xlink:href="#DejaVuSans-70" transform="translate(372.066406 0)"/>
     <use xlink:href="#DejaVuSans-6c" transform="translate(435.542969 0)"/>
     <use xlink:href="#DejaVuSans-6f" transform="translate(463.326172 0)"/>
     <use xlink:href="#DejaVuSans-72" transform="translate(524.507812 0)"/>
     <use xlink:href="#DejaVuSans-65" transform="translate(563.371094 0)"/>
     <use xlink:href="#DejaVuSans-72" transform="translate(624.894531 0)"/>
     <use xlink:href="#DejaVuSans-20" transform="translate(666.007812 0)"/>
     <use xlink:href="#DejaVuSans-42" transform="translate(697.794922 0)"/>
     <use xlink:href="#DejaVuSans-6c" transform="translate(766.398438 0)"/>
     <use xlink:href="#DejaVuSans-6f" transform="translate(794.181641 0)"/>
     <use xlink:href="#DejaVuSans-77" transform="translate(855.363281 0)"/>
     <use xlink:href="#DejaVuSans-65" transform="translate(937.150391 0)"/>
     <use xlink:href="#DejaVuSans-72" transform="translate(998.673828 0)"/>
     <use xlink:href="#DejaVuSans-20" transform="translate(1039.787109 0)"/>
     <use xlink:href="#DejaVuSans-53" transform="translate(1071.574219 0)"/>
     <use xlink:href="#DejaVuSans-65" transform="translate(1135.050781 0)"/>
     <use xlink:href="#DejaVuSans-74" transform="translate(1196.574219 0)"/>
     <use xlink:href="#DejaVuSans-74" transform="translate(1235.783203 0)"/>
     <use xlink:href="#DejaVuSans-69" transform="translate(1274.992188 0)"/>
     <use xlink:href="#DejaVuSans-6e" transform="translate(1302.775391 0)"/>
     <use xlink:href="#DejaVuSans-67" transform="translate(1366.154297 0)"/>
     <use xlink:href="#DejaVuSans-20" transform="translate(1429.630859 0)"/>
     <use xlink:href="#DejaVuSans-4f" transform="translate(1461.417969 0)"/>
     <use xlink:href="#DejaVuSans-66" transform="translate(1540.128906 0)"/>
     <use xlink:href="#DejaVuSans-66" transform="translate(1575.333984 0)"/>
     <use xlink:href="#DejaVuSans-20" transform="translate(1610.539062 0)"/>
     <use xlink:href="#DejaVuSans-2d" transform="translate(1642.326172 0)"/>
     <use xlink:href="#DejaVuSans-20" transform="translate(1678.410156 0)"/>
     <use xlink:href="#DejaVuSans-4e" transform="translate(1710.197266 0)"/>
     <use xlink:href="#DejaVuSans-61" transform="translate(1785.001953 0)"/>
     <use xlink:href="#DejaVuSans-72" transform="translate(1846.28125 0)"/>
     <use xlink:href="#DejaVuSans-72" transform="translate(1885.644531 0)"/>
     <use xlink:href="#DejaVuSans-6f" transform="translate(1924.507812 0)"/>
     <use xlink:href="#DejaVuSans-77" transform="translate(1985.689453 0)"/>
     <use xlink:href="#DejaVuSans-20" transform="translate(2067.476562 0)"/>
     <use xlink:href="#DejaVuSans-42" transform="translate(2099.263672 0)"/>
     <use xlink:href="#DejaVuSans-61" transform="translate(2167.867188 0)"/>
     <use xlink:href="#DejaVuSans-6e" transform="translate(2229.146484 0)"/>
     <use xlink:href="#DejaVuSans-64" transform="translate(2292.525391 0)"/>
     <use xlink:href="#DejaVuSans-20" transform="translate(2356.001953 0)"/>
     <use xlink:href="#DejaVuSans-53" transform="translate(2387.789062 0)"/>
     <use xlink:href="#DejaVuSans-50" transform="translate(2451.265625 0)"/>
     <use xlink:href="#DejaVuSans-4c" transform="translate(2511.568359 0)"/>
     <use xlink:href="#DejaVuSans-20" transform="translate(2567.28125 0)"/>
     <use xlink:href="#DejaVuSans-28" transform="translate(2599.068359 0)"/>
     <use xlink:href="#DejaVuSans-64" transform="translate(2638.082031 0)"/>
     <use xlink:href="#DejaVuSans-42" transform="translate(2701.558594 0)"/>
     <use xlink:href="#DejaVuSans-41" transform="translate(2770.162109 0)"/>
     <use xlink:href="#DejaVuSans-29" transform="translate(2838.570312 0)"/>
    </g>
   </g>
  </g>
 </g>
 <defs>
  <clipPath id="pcf824c9d63">
   <rect x="48.982813" y="22.318125" width="512.215" height="272.272122"/>
  </clipPath>
 </defs>
</svg>
