<?xml version="1.0" encoding="utf-8" standalone="no"?>
<!DOCTYPE svg PUBLIC "-//W3C//DTD SVG 1.1//EN"
  "http://www.w3.org/Graphics/SVG/1.1/DTD/svg11.dtd">
<svg xmlns:xlink="http://www.w3.org/1999/xlink" width="568.397812pt" height="351.806674pt" viewBox="0 0 568.397812 351.806674" xmlns="http://www.w3.org/2000/svg" version="1.1">
 <metadata>
  <rdf:RDF xmlns:dc="http://purl.org/dc/elements/1.1/" xmlns:cc="http://creativecommons.org/ns#" xmlns:rdf="http://www.w3.org/1999/02/22-rdf-syntax-ns#">
   <cc:Work>
    <dc:type rdf:resource="http://purl.org/dc/dcmitype/StillImage"/>
    <dc:date>2025-04-24T21:37:02.045771</dc:date>
    <dc:format>image/svg+xml</dc:format>
    <dc:creator>
     <cc:Agent>
      <dc:title>Matplotlib v3.10.0, https://matplotlib.org/</dc:title>
     </cc:Agent>
    </dc:creator>
   </cc:Work>
  </rdf:RDF>
 </metadata>
 <defs>
  <style type="text/css">*{stroke-linejoin: round; stroke-linecap: butt}</style>
 </defs>
 <g id="figure_1">
  <g id="patch_1">
   <path d="M 0 351.806674 
L 568.397812 351.806674 
L 568.397812 0 
L 0 0 
z
" style="fill: #ffffff"/>
  </g>
  <g id="axes_1">
   <g id="patch_2">
    <path d="M 48.982813 294.590247 
L 561.197812 294.590247 
L 561.197812 22.318125 
L 48.982813 22.318125 
z
" style="fill: #ffffff"/>
   </g>
   <g id="matplotlib.axis_1">
    <g id="xtick_1">
     <g id="line2d_1">
      <path d="M 48.982813 294.590247 
L 48.982813 22.318125 
" clip-path="url(#p826564c11e)" style="fill: none; stroke-dasharray: 1.85,0.8; stroke-dashoffset: 0; stroke: #b0b0b0; stroke-width: 0.5"/>
     </g>
     <g id="line2d_2">
      <defs>
       <path id="mc25cee3c75" d="M 0 0 
L 0 3.5 
" style="stroke: #000000; stroke-width: 0.8"/>
      </defs>
      <g>
       <use xlink:href="#mc25cee3c75" x="48.982813" y="294.590247" style="stroke: #000000; stroke-width: 0.8"/>
      </g>
     </g>
     <g id="text_1">
      <!-- 100 -->
      <g transform="translate(34.015351 320.460054) rotate(-45) scale(0.1 -0.1)">
       <defs>
        <path id="DejaVuSans-31" d="M 794 531 
L 1825 531 
L 1825 4091 
L 703 3866 
L 703 4441 
L 1819 4666 
L 2450 4666 
L 2450 531 
L 3481 531 
L 3481 0 
L 794 0 
L 794 531 
z
" transform="scale(0.015625)"/>
        <path id="DejaVuSans-30" d="M 2034 4250 
Q 1547 4250 1301 3770 
Q 1056 3291 1056 2328 
Q 1056 1369 1301 889 
Q 1547 409 2034 409 
Q 2525 409 2770 889 
Q 3016 1369 3016 2328 
Q 3016 3291 2770 3770 
Q 2525 4250 2034 4250 
z
M 2034 4750 
Q 2819 4750 3233 4129 
Q 3647 3509 3647 2328 
Q 3647 1150 3233 529 
Q 2819 -91 2034 -91 
Q 1250 -91 836 529 
Q 422 1150 422 2328 
Q 422 3509 836 4129 
Q 1250 4750 2034 4750 
z
" transform="scale(0.015625)"/>
       </defs>
       <use xlink:href="#DejaVuSans-31"/>
       <use xlink:href="#DejaVuSans-30" transform="translate(63.623047 0)"/>
       <use xlink:href="#DejaVuSans-30" transform="translate(127.246094 0)"/>
      </g>
     </g>
    </g>
    <g id="xtick_2">
     <g id="line2d_3">
      <path d="M 305.090312 294.590247 
L 305.090312 22.318125 
" clip-path="url(#p826564c11e)" style="fill: none; stroke-dasharray: 1.85,0.8; stroke-dashoffset: 0; stroke: #b0b0b0; stroke-width: 0.5"/>
     </g>
     <g id="line2d_4">
      <g>
       <use xlink:href="#mc25cee3c75" x="305.090312" y="294.590247" style="stroke: #000000; stroke-width: 0.8"/>
      </g>
     </g>
     <g id="text_2">
      <!-- 1000 -->
      <g transform="translate(285.623884 324.959021) rotate(-45) scale(0.1 -0.1)">
       <use xlink:href="#DejaVuSans-31"/>
       <use xlink:href="#DejaVuSans-30" transform="translate(63.623047 0)"/>
       <use xlink:href="#DejaVuSans-30" transform="translate(127.246094 0)"/>
       <use xlink:href="#DejaVuSans-30" transform="translate(190.869141 0)"/>
      </g>
     </g>
    </g>
    <g id="xtick_3">
     <g id="line2d_5">
      <path d="M 561.197812 294.590247 
L 561.197812 22.318125 
" clip-path="url(#p826564c11e)" style="fill: none; stroke-dasharray: 1.85,0.8; stroke-dashoffset: 0; stroke: #b0b0b0; stroke-width: 0.5"/>
     </g>
     <g id="line2d_6">
      <g>
       <use xlink:href="#mc25cee3c75" x="561.197812" y="294.590247" style="stroke: #000000; stroke-width: 0.8"/>
      </g>
     </g>
     <g id="text_3">
      <!-- 10000 -->
      <g transform="translate(537.232417 329.457988) rotate(-45) scale(0.1 -0.1)">
       <use xlink:href="#DejaVuSans-31"/>
       <use xlink:href="#DejaVuSans-30" transform="translate(63.623047 0)"/>
       <use xlink:href="#DejaVuSans-30" transform="translate(127.246094 0)"/>
       <use xlink:href="#DejaVuSans-30" transform="translate(190.869141 0)"/>
       <use xlink:href="#DejaVuSans-30" transform="translate(254.492188 0)"/>
      </g>
     </g>
    </g>
    <g id="xtick_4">
     <g id="line2d_7">
      <path d="M 126.078852 294.590247 
L 126.078852 22.318125 
" clip-path="url(#p826564c11e)" style="fill: none; stroke-dasharray: 1.85,0.8; stroke-dashoffset: 0; stroke: #b0b0b0; stroke-width: 0.5"/>
     </g>
     <g id="line2d_8">
      <defs>
       <path id="m5d4a9dacf2" d="M 0 0 
L 0 2 
" style="stroke: #000000; stroke-width: 0.6"/>
      </defs>
      <g>
       <use xlink:href="#m5d4a9dacf2" x="126.078852" y="294.590247" style="stroke: #000000; stroke-width: 0.6"/>
      </g>
     </g>
    </g>
    <g id="xtick_5">
     <g id="line2d_9">
      <path d="M 171.177144 294.590247 
L 171.177144 22.318125 
" clip-path="url(#p826564c11e)" style="fill: none; stroke-dasharray: 1.85,0.8; stroke-dashoffset: 0; stroke: #b0b0b0; stroke-width: 0.5"/>
     </g>
     <g id="line2d_10">
      <g>
       <use xlink:href="#m5d4a9dacf2" x="171.177144" y="294.590247" style="stroke: #000000; stroke-width: 0.6"/>
      </g>
     </g>
    </g>
    <g id="xtick_6">
     <g id="line2d_11">
      <path d="M 203.174892 294.590247 
L 203.174892 22.318125 
" clip-path="url(#p826564c11e)" style="fill: none; stroke-dasharray: 1.85,0.8; stroke-dashoffset: 0; stroke: #b0b0b0; stroke-width: 0.5"/>
     </g>
     <g id="line2d_12">
      <g>
       <use xlink:href="#m5d4a9dacf2" x="203.174892" y="294.590247" style="stroke: #000000; stroke-width: 0.6"/>
      </g>
     </g>
    </g>
    <g id="xtick_7">
     <g id="line2d_13">
      <path d="M 227.994273 294.590247 
L 227.994273 22.318125 
" clip-path="url(#p826564c11e)" style="fill: none; stroke-dasharray: 1.85,0.8; stroke-dashoffset: 0; stroke: #b0b0b0; stroke-width: 0.5"/>
     </g>
     <g id="line2d_14">
      <g>
       <use xlink:href="#m5d4a9dacf2" x="227.994273" y="294.590247" style="stroke: #000000; stroke-width: 0.6"/>
      </g>
     </g>
    </g>
    <g id="xtick_8">
     <g id="line2d_15">
      <path d="M 248.273184 294.590247 
L 248.273184 22.318125 
" clip-path="url(#p826564c11e)" style="fill: none; stroke-dasharray: 1.85,0.8; stroke-dashoffset: 0; stroke: #b0b0b0; stroke-width: 0.5"/>
     </g>
     <g id="line2d_16">
      <g>
       <use xlink:href="#m5d4a9dacf2" x="248.273184" y="294.590247" style="stroke: #000000; stroke-width: 0.6"/>
      </g>
     </g>
    </g>
    <g id="xtick_9">
     <g id="line2d_17">
      <path d="M 265.418759 294.590247 
L 265.418759 22.318125 
" clip-path="url(#p826564c11e)" style="fill: none; stroke-dasharray: 1.85,0.8; stroke-dashoffset: 0; stroke: #b0b0b0; stroke-width: 0.5"/>
     </g>
     <g id="line2d_18">
      <g>
       <use xlink:href="#m5d4a9dacf2" x="265.418759" y="294.590247" style="stroke: #000000; stroke-width: 0.6"/>
      </g>
     </g>
    </g>
    <g id="xtick_10">
     <g id="line2d_19">
      <path d="M 280.270931 294.590247 
L 280.270931 22.318125 
" clip-path="url(#p826564c11e)" style="fill: none; stroke-dasharray: 1.85,0.8; stroke-dashoffset: 0; stroke: #b0b0b0; stroke-width: 0.5"/>
     </g>
     <g id="line2d_20">
      <g>
       <use xlink:href="#m5d4a9dacf2" x="280.270931" y="294.590247" style="stroke: #000000; stroke-width: 0.6"/>
      </g>
     </g>
    </g>
    <g id="xtick_11">
     <g id="line2d_21">
      <path d="M 293.371476 294.590247 
L 293.371476 22.318125 
" clip-path="url(#p826564c11e)" style="fill: none; stroke-dasharray: 1.85,0.8; stroke-dashoffset: 0; stroke: #b0b0b0; stroke-width: 0.5"/>
     </g>
     <g id="line2d_22">
      <g>
       <use xlink:href="#m5d4a9dacf2" x="293.371476" y="294.590247" style="stroke: #000000; stroke-width: 0.6"/>
      </g>
     </g>
    </g>
    <g id="xtick_12">
     <g id="line2d_23">
      <path d="M 382.186352 294.590247 
L 382.186352 22.318125 
" clip-path="url(#p826564c11e)" style="fill: none; stroke-dasharray: 1.85,0.8; stroke-dashoffset: 0; stroke: #b0b0b0; stroke-width: 0.5"/>
     </g>
     <g id="line2d_24">
      <g>
       <use xlink:href="#m5d4a9dacf2" x="382.186352" y="294.590247" style="stroke: #000000; stroke-width: 0.6"/>
      </g>
     </g>
    </g>
    <g id="xtick_13">
     <g id="line2d_25">
      <path d="M 427.284644 294.590247 
L 427.284644 22.318125 
" clip-path="url(#p826564c11e)" style="fill: none; stroke-dasharray: 1.85,0.8; stroke-dashoffset: 0; stroke: #b0b0b0; stroke-width: 0.5"/>
     </g>
     <g id="line2d_26">
      <g>
       <use xlink:href="#m5d4a9dacf2" x="427.284644" y="294.590247" style="stroke: #000000; stroke-width: 0.6"/>
      </g>
     </g>
    </g>
    <g id="xtick_14">
     <g id="line2d_27">
      <path d="M 459.282392 294.590247 
L 459.282392 22.318125 
" clip-path="url(#p826564c11e)" style="fill: none; stroke-dasharray: 1.85,0.8; stroke-dashoffset: 0; stroke: #b0b0b0; stroke-width: 0.5"/>
     </g>
     <g id="line2d_28">
      <g>
       <use xlink:href="#m5d4a9dacf2" x="459.282392" y="294.590247" style="stroke: #000000; stroke-width: 0.6"/>
      </g>
     </g>
    </g>
    <g id="xtick_15">
     <g id="line2d_29">
      <path d="M 484.101773 294.590247 
L 484.101773 22.318125 
" clip-path="url(#p826564c11e)" style="fill: none; stroke-dasharray: 1.85,0.8; stroke-dashoffset: 0; stroke: #b0b0b0; stroke-width: 0.5"/>
     </g>
     <g id="line2d_30">
      <g>
       <use xlink:href="#m5d4a9dacf2" x="484.101773" y="294.590247" style="stroke: #000000; stroke-width: 0.6"/>
      </g>
     </g>
    </g>
    <g id="xtick_16">
     <g id="line2d_31">
      <path d="M 504.380684 294.590247 
L 504.380684 22.318125 
" clip-path="url(#p826564c11e)" style="fill: none; stroke-dasharray: 1.85,0.8; stroke-dashoffset: 0; stroke: #b0b0b0; stroke-width: 0.5"/>
     </g>
     <g id="line2d_32">
      <g>
       <use xlink:href="#m5d4a9dacf2" x="504.380684" y="294.590247" style="stroke: #000000; stroke-width: 0.6"/>
      </g>
     </g>
    </g>
    <g id="xtick_17">
     <g id="line2d_33">
      <path d="M 521.526259 294.590247 
L 521.526259 22.318125 
" clip-path="url(#p826564c11e)" style="fill: none; stroke-dasharray: 1.85,0.8; stroke-dashoffset: 0; stroke: #b0b0b0; stroke-width: 0.5"/>
     </g>
     <g id="line2d_34">
      <g>
       <use xlink:href="#m5d4a9dacf2" x="521.526259" y="294.590247" style="stroke: #000000; stroke-width: 0.6"/>
      </g>
     </g>
    </g>
    <g id="xtick_18">
     <g id="line2d_35">
      <path d="M 536.378431 294.590247 
L 536.378431 22.318125 
" clip-path="url(#p826564c11e)" style="fill: none; stroke-dasharray: 1.85,0.8; stroke-dashoffset: 0; stroke: #b0b0b0; stroke-width: 0.5"/>
     </g>
     <g id="line2d_36">
      <g>
       <use xlink:href="#m5d4a9dacf2" x="536.378431" y="294.590247" style="stroke: #000000; stroke-width: 0.6"/>
      </g>
     </g>
    </g>
    <g id="xtick_19">
     <g id="line2d_37">
      <path d="M 549.478976 294.590247 
L 549.478976 22.318125 
" clip-path="url(#p826564c11e)" style="fill: none; stroke-dasharray: 1.85,0.8; stroke-dashoffset: 0; stroke: #b0b0b0; stroke-width: 0.5"/>
     </g>
     <g id="line2d_38">
      <g>
       <use xlink:href="#m5d4a9dacf2" x="549.478976" y="294.590247" style="stroke: #000000; stroke-width: 0.6"/>
      </g>
     </g>
    </g>
    <g id="text_4">
     <!-- Frequency (Hz) -->
     <g transform="translate(267.385625 342.526987) scale(0.1 -0.1)">
      <defs>
       <path id="DejaVuSans-46" d="M 628 4666 
L 3309 4666 
L 3309 4134 
L 1259 4134 
L 1259 2759 
L 3109 2759 
L 3109 2228 
L 1259 2228 
L 1259 0 
L 628 0 
L 628 4666 
z
" transform="scale(0.015625)"/>
       <path id="DejaVuSans-72" d="M 2631 2963 
Q 2534 3019 2420 3045 
Q 2306 3072 2169 3072 
Q 1681 3072 1420 2755 
Q 1159 2438 1159 1844 
L 1159 0 
L 581 0 
L 581 3500 
L 1159 3500 
L 1159 2956 
Q 1341 3275 1631 3429 
Q 1922 3584 2338 3584 
Q 2397 3584 2469 3576 
Q 2541 3569 2628 3553 
L 2631 2963 
z
" transform="scale(0.015625)"/>
       <path id="DejaVuSans-65" d="M 3597 1894 
L 3597 1613 
L 953 1613 
Q 991 1019 1311 708 
Q 1631 397 2203 397 
Q 2534 397 2845 478 
Q 3156 559 3463 722 
L 3463 178 
Q 3153 47 2828 -22 
Q 2503 -91 2169 -91 
Q 1331 -91 842 396 
Q 353 884 353 1716 
Q 353 2575 817 3079 
Q 1281 3584 2069 3584 
Q 2775 3584 3186 3129 
Q 3597 2675 3597 1894 
z
M 3022 2063 
Q 3016 2534 2758 2815 
Q 2500 3097 2075 3097 
Q 1594 3097 1305 2825 
Q 1016 2553 972 2059 
L 3022 2063 
z
" transform="scale(0.015625)"/>
       <path id="DejaVuSans-71" d="M 947 1747 
Q 947 1113 1208 752 
Q 1469 391 1925 391 
Q 2381 391 2643 752 
Q 2906 1113 2906 1747 
Q 2906 2381 2643 2742 
Q 2381 3103 1925 3103 
Q 1469 3103 1208 2742 
Q 947 2381 947 1747 
z
M 2906 525 
Q 2725 213 2448 61 
Q 2172 -91 1784 -91 
Q 1150 -91 751 415 
Q 353 922 353 1747 
Q 353 2572 751 3078 
Q 1150 3584 1784 3584 
Q 2172 3584 2448 3432 
Q 2725 3281 2906 2969 
L 2906 3500 
L 3481 3500 
L 3481 -1331 
L 2906 -1331 
L 2906 525 
z
" transform="scale(0.015625)"/>
       <path id="DejaVuSans-75" d="M 544 1381 
L 544 3500 
L 1119 3500 
L 1119 1403 
Q 1119 906 1312 657 
Q 1506 409 1894 409 
Q 2359 409 2629 706 
Q 2900 1003 2900 1516 
L 2900 3500 
L 3475 3500 
L 3475 0 
L 2900 0 
L 2900 538 
Q 2691 219 2414 64 
Q 2138 -91 1772 -91 
Q 1169 -91 856 284 
Q 544 659 544 1381 
z
M 1991 3584 
L 1991 3584 
z
" transform="scale(0.015625)"/>
       <path id="DejaVuSans-6e" d="M 3513 2113 
L 3513 0 
L 2938 0 
L 2938 2094 
Q 2938 2591 2744 2837 
Q 2550 3084 2163 3084 
Q 1697 3084 1428 2787 
Q 1159 2491 1159 1978 
L 1159 0 
L 581 0 
L 581 3500 
L 1159 3500 
L 1159 2956 
Q 1366 3272 1645 3428 
Q 1925 3584 2291 3584 
Q 2894 3584 3203 3211 
Q 3513 2838 3513 2113 
z
" transform="scale(0.015625)"/>
       <path id="DejaVuSans-63" d="M 3122 3366 
L 3122 2828 
Q 2878 2963 2633 3030 
Q 2388 3097 2138 3097 
Q 1578 3097 1268 2742 
Q 959 2388 959 1747 
Q 959 1106 1268 751 
Q 1578 397 2138 397 
Q 2388 397 2633 464 
Q 2878 531 3122 666 
L 3122 134 
Q 2881 22 2623 -34 
Q 2366 -91 2075 -91 
Q 1284 -91 818 406 
Q 353 903 353 1747 
Q 353 2603 823 3093 
Q 1294 3584 2113 3584 
Q 2378 3584 2631 3529 
Q 2884 3475 3122 3366 
z
" transform="scale(0.015625)"/>
       <path id="DejaVuSans-79" d="M 2059 -325 
Q 1816 -950 1584 -1140 
Q 1353 -1331 966 -1331 
L 506 -1331 
L 506 -850 
L 844 -850 
Q 1081 -850 1212 -737 
Q 1344 -625 1503 -206 
L 1606 56 
L 191 3500 
L 800 3500 
L 1894 763 
L 2988 3500 
L 3597 3500 
L 2059 -325 
z
" transform="scale(0.015625)"/>
       <path id="DejaVuSans-20" transform="scale(0.015625)"/>
       <path id="DejaVuSans-28" d="M 1984 4856 
Q 1566 4138 1362 3434 
Q 1159 2731 1159 2009 
Q 1159 1288 1364 580 
Q 1569 -128 1984 -844 
L 1484 -844 
Q 1016 -109 783 600 
Q 550 1309 550 2009 
Q 550 2706 781 3412 
Q 1013 4119 1484 4856 
L 1984 4856 
z
" transform="scale(0.015625)"/>
       <path id="DejaVuSans-48" d="M 628 4666 
L 1259 4666 
L 1259 2753 
L 3553 2753 
L 3553 4666 
L 4184 4666 
L 4184 0 
L 3553 0 
L 3553 2222 
L 1259 2222 
L 1259 0 
L 628 0 
L 628 4666 
z
" transform="scale(0.015625)"/>
       <path id="DejaVuSans-7a" d="M 353 3500 
L 3084 3500 
L 3084 2975 
L 922 459 
L 3084 459 
L 3084 0 
L 275 0 
L 275 525 
L 2438 3041 
L 353 3041 
L 353 3500 
z
" transform="scale(0.015625)"/>
       <path id="DejaVuSans-29" d="M 513 4856 
L 1013 4856 
Q 1481 4119 1714 3412 
Q 1947 2706 1947 2009 
Q 1947 1309 1714 600 
Q 1481 -109 1013 -844 
L 513 -844 
Q 928 -128 1133 580 
Q 1338 1288 1338 2009 
Q 1338 2731 1133 3434 
Q 928 4138 513 4856 
z
" transform="scale(0.015625)"/>
      </defs>
      <use xlink:href="#DejaVuSans-46"/>
      <use xlink:href="#DejaVuSans-72" transform="translate(50.269531 0)"/>
      <use xlink:href="#DejaVuSans-65" transform="translate(89.132812 0)"/>
      <use xlink:href="#DejaVuSans-71" transform="translate(150.65625 0)"/>
      <use xlink:href="#DejaVuSans-75" transform="translate(214.132812 0)"/>
      <use xlink:href="#DejaVuSans-65" transform="translate(277.511719 0)"/>
      <use xlink:href="#DejaVuSans-6e" transform="translate(339.035156 0)"/>
      <use xlink:href="#DejaVuSans-63" transform="translate(402.414062 0)"/>
      <use xlink:href="#DejaVuSans-79" transform="translate(457.394531 0)"/>
      <use xlink:href="#DejaVuSans-20" transform="translate(516.574219 0)"/>
      <use xlink:href="#DejaVuSans-28" transform="translate(548.361328 0)"/>
      <use xlink:href="#DejaVuSans-48" transform="translate(587.375 0)"/>
      <use xlink:href="#DejaVuSans-7a" transform="translate(662.570312 0)"/>
      <use xlink:href="#DejaVuSans-29" transform="translate(715.060547 0)"/>
     </g>
    </g>
   </g>
   <g id="matplotlib.axis_2">
    <g id="ytick_1">
     <g id="line2d_39">
      <path d="M 48.982813 294.590247 
L 561.197812 294.590247 
" clip-path="url(#p826564c11e)" style="fill: none; stroke-dasharray: 1.85,0.8; stroke-dashoffset: 0; stroke: #b0b0b0; stroke-width: 0.5"/>
     </g>
     <g id="line2d_40">
      <defs>
       <path id="m358632677a" d="M 0 0 
L -3.5 0 
" style="stroke: #000000; stroke-width: 0.8"/>
      </defs>
      <g>
       <use xlink:href="#m358632677a" x="48.982813" y="294.590247" style="stroke: #000000; stroke-width: 0.8"/>
      </g>
     </g>
     <g id="text_5">
      <!-- −20 -->
      <g transform="translate(20.878125 298.389466) scale(0.1 -0.1)">
       <defs>
        <path id="DejaVuSans-2212" d="M 678 2272 
L 4684 2272 
L 4684 1741 
L 678 1741 
L 678 2272 
z
" transform="scale(0.015625)"/>
        <path id="DejaVuSans-32" d="M 1228 531 
L 3431 531 
L 3431 0 
L 469 0 
L 469 531 
Q 828 903 1448 1529 
Q 2069 2156 2228 2338 
Q 2531 2678 2651 2914 
Q 2772 3150 2772 3378 
Q 2772 3750 2511 3984 
Q 2250 4219 1831 4219 
Q 1534 4219 1204 4116 
Q 875 4013 500 3803 
L 500 4441 
Q 881 4594 1212 4672 
Q 1544 4750 1819 4750 
Q 2544 4750 2975 4387 
Q 3406 4025 3406 3419 
Q 3406 3131 3298 2873 
Q 3191 2616 2906 2266 
Q 2828 2175 2409 1742 
Q 1991 1309 1228 531 
z
" transform="scale(0.015625)"/>
       </defs>
       <use xlink:href="#DejaVuSans-2212"/>
       <use xlink:href="#DejaVuSans-32" transform="translate(83.789062 0)"/>
       <use xlink:href="#DejaVuSans-30" transform="translate(147.412109 0)"/>
      </g>
     </g>
    </g>
    <g id="ytick_2">
     <g id="line2d_41">
      <path d="M 48.982813 255.694229 
L 561.197812 255.694229 
" clip-path="url(#p826564c11e)" style="fill: none; stroke-dasharray: 1.85,0.8; stroke-dashoffset: 0; stroke: #b0b0b0; stroke-width: 0.5"/>
     </g>
     <g id="line2d_42">
      <g>
       <use xlink:href="#m358632677a" x="48.982813" y="255.694229" style="stroke: #000000; stroke-width: 0.8"/>
      </g>
     </g>
     <g id="text_6">
      <!-- −10 -->
      <g transform="translate(20.878125 259.493448) scale(0.1 -0.1)">
       <use xlink:href="#DejaVuSans-2212"/>
       <use xlink:href="#DejaVuSans-31" transform="translate(83.789062 0)"/>
       <use xlink:href="#DejaVuSans-30" transform="translate(147.412109 0)"/>
      </g>
     </g>
    </g>
    <g id="ytick_3">
     <g id="line2d_43">
      <path d="M 48.982813 216.798212 
L 561.197812 216.798212 
" clip-path="url(#p826564c11e)" style="fill: none; stroke-dasharray: 1.85,0.8; stroke-dashoffset: 0; stroke: #b0b0b0; stroke-width: 0.5"/>
     </g>
     <g id="line2d_44">
      <g>
       <use xlink:href="#m358632677a" x="48.982813" y="216.798212" style="stroke: #000000; stroke-width: 0.8"/>
      </g>
     </g>
     <g id="text_7">
      <!-- 0 -->
      <g transform="translate(35.620313 220.597431) scale(0.1 -0.1)">
       <use xlink:href="#DejaVuSans-30"/>
      </g>
     </g>
    </g>
    <g id="ytick_4">
     <g id="line2d_45">
      <path d="M 48.982813 177.902195 
L 561.197812 177.902195 
" clip-path="url(#p826564c11e)" style="fill: none; stroke-dasharray: 1.85,0.8; stroke-dashoffset: 0; stroke: #b0b0b0; stroke-width: 0.5"/>
     </g>
     <g id="line2d_46">
      <g>
       <use xlink:href="#m358632677a" x="48.982813" y="177.902195" style="stroke: #000000; stroke-width: 0.8"/>
      </g>
     </g>
     <g id="text_8">
      <!-- 10 -->
      <g transform="translate(29.257813 181.701413) scale(0.1 -0.1)">
       <use xlink:href="#DejaVuSans-31"/>
       <use xlink:href="#DejaVuSans-30" transform="translate(63.623047 0)"/>
      </g>
     </g>
    </g>
    <g id="ytick_5">
     <g id="line2d_47">
      <path d="M 48.982813 139.006177 
L 561.197812 139.006177 
" clip-path="url(#p826564c11e)" style="fill: none; stroke-dasharray: 1.85,0.8; stroke-dashoffset: 0; stroke: #b0b0b0; stroke-width: 0.5"/>
     </g>
     <g id="line2d_48">
      <g>
       <use xlink:href="#m358632677a" x="48.982813" y="139.006177" style="stroke: #000000; stroke-width: 0.8"/>
      </g>
     </g>
     <g id="text_9">
      <!-- 20 -->
      <g transform="translate(29.257813 142.805396) scale(0.1 -0.1)">
       <use xlink:href="#DejaVuSans-32"/>
       <use xlink:href="#DejaVuSans-30" transform="translate(63.623047 0)"/>
      </g>
     </g>
    </g>
    <g id="ytick_6">
     <g id="line2d_49">
      <path d="M 48.982813 100.11016 
L 561.197812 100.11016 
" clip-path="url(#p826564c11e)" style="fill: none; stroke-dasharray: 1.85,0.8; stroke-dashoffset: 0; stroke: #b0b0b0; stroke-width: 0.5"/>
     </g>
     <g id="line2d_50">
      <g>
       <use xlink:href="#m358632677a" x="48.982813" y="100.11016" style="stroke: #000000; stroke-width: 0.8"/>
      </g>
     </g>
     <g id="text_10">
      <!-- 30 -->
      <g transform="translate(29.257813 103.909379) scale(0.1 -0.1)">
       <defs>
        <path id="DejaVuSans-33" d="M 2597 2516 
Q 3050 2419 3304 2112 
Q 3559 1806 3559 1356 
Q 3559 666 3084 287 
Q 2609 -91 1734 -91 
Q 1441 -91 1130 -33 
Q 819 25 488 141 
L 488 750 
Q 750 597 1062 519 
Q 1375 441 1716 441 
Q 2309 441 2620 675 
Q 2931 909 2931 1356 
Q 2931 1769 2642 2001 
Q 2353 2234 1838 2234 
L 1294 2234 
L 1294 2753 
L 1863 2753 
Q 2328 2753 2575 2939 
Q 2822 3125 2822 3475 
Q 2822 3834 2567 4026 
Q 2313 4219 1838 4219 
Q 1578 4219 1281 4162 
Q 984 4106 628 3988 
L 628 4550 
Q 988 4650 1302 4700 
Q 1616 4750 1894 4750 
Q 2613 4750 3031 4423 
Q 3450 4097 3450 3541 
Q 3450 3153 3228 2886 
Q 3006 2619 2597 2516 
z
" transform="scale(0.015625)"/>
       </defs>
       <use xlink:href="#DejaVuSans-33"/>
       <use xlink:href="#DejaVuSans-30" transform="translate(63.623047 0)"/>
      </g>
     </g>
    </g>
    <g id="ytick_7">
     <g id="line2d_51">
      <path d="M 48.982813 61.214142 
L 561.197812 61.214142 
" clip-path="url(#p826564c11e)" style="fill: none; stroke-dasharray: 1.85,0.8; stroke-dashoffset: 0; stroke: #b0b0b0; stroke-width: 0.5"/>
     </g>
     <g id="line2d_52">
      <g>
       <use xlink:href="#m358632677a" x="48.982813" y="61.214142" style="stroke: #000000; stroke-width: 0.8"/>
      </g>
     </g>
     <g id="text_11">
      <!-- 40 -->
      <g transform="translate(29.257813 65.013361) scale(0.1 -0.1)">
       <defs>
        <path id="DejaVuSans-34" d="M 2419 4116 
L 825 1625 
L 2419 1625 
L 2419 4116 
z
M 2253 4666 
L 3047 4666 
L 3047 1625 
L 3713 1625 
L 3713 1100 
L 3047 1100 
L 3047 0 
L 2419 0 
L 2419 1100 
L 313 1100 
L 313 1709 
L 2253 4666 
z
" transform="scale(0.015625)"/>
       </defs>
       <use xlink:href="#DejaVuSans-34"/>
       <use xlink:href="#DejaVuSans-30" transform="translate(63.623047 0)"/>
      </g>
     </g>
    </g>
    <g id="ytick_8">
     <g id="line2d_53">
      <path d="M 48.982813 22.318125 
L 561.197812 22.318125 
" clip-path="url(#p826564c11e)" style="fill: none; stroke-dasharray: 1.85,0.8; stroke-dashoffset: 0; stroke: #b0b0b0; stroke-width: 0.5"/>
     </g>
     <g id="line2d_54">
      <g>
       <use xlink:href="#m358632677a" x="48.982813" y="22.318125" style="stroke: #000000; stroke-width: 0.8"/>
      </g>
     </g>
     <g id="text_12">
      <!-- 50 -->
      <g transform="translate(29.257813 26.117344) scale(0.1 -0.1)">
       <defs>
        <path id="DejaVuSans-35" d="M 691 4666 
L 3169 4666 
L 3169 4134 
L 1269 4134 
L 1269 2991 
Q 1406 3038 1543 3061 
Q 1681 3084 1819 3084 
Q 2600 3084 3056 2656 
Q 3513 2228 3513 1497 
Q 3513 744 3044 326 
Q 2575 -91 1722 -91 
Q 1428 -91 1123 -41 
Q 819 9 494 109 
L 494 744 
Q 775 591 1075 516 
Q 1375 441 1709 441 
Q 2250 441 2565 725 
Q 2881 1009 2881 1497 
Q 2881 1984 2565 2268 
Q 2250 2553 1709 2553 
Q 1456 2553 1204 2497 
Q 953 2441 691 2322 
L 691 4666 
z
" transform="scale(0.015625)"/>
       </defs>
       <use xlink:href="#DejaVuSans-35"/>
       <use xlink:href="#DejaVuSans-30" transform="translate(63.623047 0)"/>
      </g>
     </g>
    </g>
    <g id="text_13">
     <!-- SPL (dBA) -->
     <g transform="translate(14.798438 182.944811) rotate(-90) scale(0.1 -0.1)">
      <defs>
       <path id="DejaVuSans-53" d="M 3425 4513 
L 3425 3897 
Q 3066 4069 2747 4153 
Q 2428 4238 2131 4238 
Q 1616 4238 1336 4038 
Q 1056 3838 1056 3469 
Q 1056 3159 1242 3001 
Q 1428 2844 1947 2747 
L 2328 2669 
Q 3034 2534 3370 2195 
Q 3706 1856 3706 1288 
Q 3706 609 3251 259 
Q 2797 -91 1919 -91 
Q 1588 -91 1214 -16 
Q 841 59 441 206 
L 441 856 
Q 825 641 1194 531 
Q 1563 422 1919 422 
Q 2459 422 2753 634 
Q 3047 847 3047 1241 
Q 3047 1584 2836 1778 
Q 2625 1972 2144 2069 
L 1759 2144 
Q 1053 2284 737 2584 
Q 422 2884 422 3419 
Q 422 4038 858 4394 
Q 1294 4750 2059 4750 
Q 2388 4750 2728 4690 
Q 3069 4631 3425 4513 
z
" transform="scale(0.015625)"/>
       <path id="DejaVuSans-50" d="M 1259 4147 
L 1259 2394 
L 2053 2394 
Q 2494 2394 2734 2622 
Q 2975 2850 2975 3272 
Q 2975 3691 2734 3919 
Q 2494 4147 2053 4147 
L 1259 4147 
z
M 628 4666 
L 2053 4666 
Q 2838 4666 3239 4311 
Q 3641 3956 3641 3272 
Q 3641 2581 3239 2228 
Q 2838 1875 2053 1875 
L 1259 1875 
L 1259 0 
L 628 0 
L 628 4666 
z
" transform="scale(0.015625)"/>
       <path id="DejaVuSans-4c" d="M 628 4666 
L 1259 4666 
L 1259 531 
L 3531 531 
L 3531 0 
L 628 0 
L 628 4666 
z
" transform="scale(0.015625)"/>
       <path id="DejaVuSans-64" d="M 2906 2969 
L 2906 4863 
L 3481 4863 
L 3481 0 
L 2906 0 
L 2906 525 
Q 2725 213 2448 61 
Q 2172 -91 1784 -91 
Q 1150 -91 751 415 
Q 353 922 353 1747 
Q 353 2572 751 3078 
Q 1150 3584 1784 3584 
Q 2172 3584 2448 3432 
Q 2725 3281 2906 2969 
z
M 947 1747 
Q 947 1113 1208 752 
Q 1469 391 1925 391 
Q 2381 391 2643 752 
Q 2906 1113 2906 1747 
Q 2906 2381 2643 2742 
Q 2381 3103 1925 3103 
Q 1469 3103 1208 2742 
Q 947 2381 947 1747 
z
" transform="scale(0.015625)"/>
       <path id="DejaVuSans-42" d="M 1259 2228 
L 1259 519 
L 2272 519 
Q 2781 519 3026 730 
Q 3272 941 3272 1375 
Q 3272 1813 3026 2020 
Q 2781 2228 2272 2228 
L 1259 2228 
z
M 1259 4147 
L 1259 2741 
L 2194 2741 
Q 2656 2741 2882 2914 
Q 3109 3088 3109 3444 
Q 3109 3797 2882 3972 
Q 2656 4147 2194 4147 
L 1259 4147 
z
M 628 4666 
L 2241 4666 
Q 2963 4666 3353 4366 
Q 3744 4066 3744 3513 
Q 3744 3084 3544 2831 
Q 3344 2578 2956 2516 
Q 3422 2416 3680 2098 
Q 3938 1781 3938 1306 
Q 3938 681 3513 340 
Q 3088 0 2303 0 
L 628 0 
L 628 4666 
z
" transform="scale(0.015625)"/>
       <path id="DejaVuSans-41" d="M 2188 4044 
L 1331 1722 
L 3047 1722 
L 2188 4044 
z
M 1831 4666 
L 2547 4666 
L 4325 0 
L 3669 0 
L 3244 1197 
L 1141 1197 
L 716 0 
L 50 0 
L 1831 4666 
z
" transform="scale(0.015625)"/>
      </defs>
      <use xlink:href="#DejaVuSans-53"/>
      <use xlink:href="#DejaVuSans-50" transform="translate(63.476562 0)"/>
      <use xlink:href="#DejaVuSans-4c" transform="translate(123.779297 0)"/>
      <use xlink:href="#DejaVuSans-20" transform="translate(179.492188 0)"/>
      <use xlink:href="#DejaVuSans-28" transform="translate(211.279297 0)"/>
      <use xlink:href="#DejaVuSans-64" transform="translate(250.292969 0)"/>
      <use xlink:href="#DejaVuSans-42" transform="translate(313.769531 0)"/>
      <use xlink:href="#DejaVuSans-41" transform="translate(382.373047 0)"/>
      <use xlink:href="#DejaVuSans-29" transform="translate(450.78125 0)"/>
     </g>
    </g>
   </g>
   <g id="line2d_55">
    <path d="M 51.493242 151.136894 
L 57.198394 148.588822 
L 62.625131 144.645486 
L 67.79937 142.13556 
L 72.743565 154.924819 
L 77.477304 158.03392 
L 82.017775 154.064384 
L 86.38014 157.104453 
L 90.577849 155.065822 
L 94.622879 145.594412 
L 98.525949 153.473857 
L 102.296685 149.546055 
L 105.943768 151.017884 
L 109.475052 159.188111 
L 112.897663 156.892291 
L 116.218091 146.269859 
L 119.44226 136.999337 
L 122.575596 144.68432 
L 125.623077 143.913474 
L 128.589281 141.954797 
L 134.294433 141.592868 
L 137.040895 141.609519 
L 139.721171 133.688596 
L 142.338376 127.764282 
L 144.89541 120.39332 
L 147.394977 121.802515 
L 149.839605 124.216644 
L 152.231656 121.439057 
L 154.573344 119.472306 
L 156.866746 120.173541 
L 159.113814 120.587811 
L 161.316383 117.632672 
L 163.47618 119.866451 
L 165.594836 124.655248 
L 167.673888 122.553009 
L 169.714791 126.819504 
L 171.718919 127.013144 
L 173.687573 129.468581 
L 175.621988 130.421311 
L 177.523335 132.608412 
L 179.392725 132.464948 
L 181.231214 126.832702 
L 183.039808 123.347412 
L 184.819463 124.731799 
L 186.571091 122.696012 
L 188.295561 119.852479 
L 189.993702 122.523149 
L 191.666306 124.468614 
L 193.31413 119.738098 
L 196.5383 121.455938 
L 198.116001 128.942351 
L 199.671636 131.570148 
L 201.205813 135.832978 
L 202.719116 140.503147 
L 204.212106 147.371749 
L 205.685321 143.968772 
L 207.139277 136.387032 
L 208.574472 132.95313 
L 209.991384 132.824078 
L 211.390472 136.054623 
L 212.77218 138.759979 
L 214.136935 139.659408 
L 215.485146 142.315956 
L 216.817211 141.105949 
L 218.133511 138.916149 
L 220.720281 130.858136 
L 221.99145 133.4185 
L 223.248255 135.358648 
L 224.491017 133.937452 
L 226.935645 136.326941 
L 228.1381 135.543336 
L 229.327695 133.613303 
L 230.504702 129.627508 
L 231.669383 124.395621 
L 232.821996 123.168186 
L 233.962786 123.322887 
L 235.091994 123.849998 
L 236.209854 126.543584 
L 237.31659 127.073737 
L 238.412422 127.934715 
L 239.497563 128.113626 
L 241.636592 131.721305 
L 242.690875 130.624059 
L 243.735259 130.138099 
L 244.769928 125.821791 
L 245.79506 130.353296 
L 246.810831 130.786182 
L 247.817408 130.144078 
L 248.814958 134.318953 
L 249.803641 134.615836 
L 250.783613 136.559551 
L 251.755026 137.492938 
L 252.718028 133.099065 
L 253.672764 133.868124 
L 254.619375 133.998167 
L 255.557997 132.708802 
L 256.488765 135.309622 
L 257.411808 137.048759 
L 258.327254 135.936837 
L 259.235227 138.121284 
L 260.135848 137.412701 
L 261.029235 139.001215 
L 261.915503 142.643088 
L 262.794765 146.93053 
L 263.667131 146.446155 
L 264.532708 146.375788 
L 265.391601 145.593007 
L 266.243912 141.873155 
L 267.089742 136.52232 
L 267.929188 140.018274 
L 268.762346 141.427262 
L 269.589309 145.179144 
L 270.41017 145.403987 
L 271.225016 147.610941 
L 272.033937 148.595307 
L 272.837017 150.893787 
L 273.634339 154.102249 
L 274.425987 156.362812 
L 275.212041 158.14802 
L 275.992578 159.270946 
L 276.767675 156.461514 
L 277.537409 152.955286 
L 278.301853 151.068594 
L 279.061078 144.314949 
L 279.815156 142.044776 
L 280.564156 139.11264 
L 281.308146 134.997331 
L 282.047192 132.161246 
L 282.78136 128.400731 
L 283.510714 127.238514 
L 284.235317 126.540528 
L 284.955229 126.071127 
L 285.670512 126.961453 
L 286.381224 132.695861 
L 287.087423 139.535689 
L 287.789168 144.379933 
L 288.486512 152.260045 
L 289.86822 163.278594 
L 290.55269 161.99362 
L 291.232974 158.206095 
L 291.909123 155.289753 
L 292.581186 153.808059 
L 293.249212 153.836096 
L 293.91325 152.754019 
L 294.573348 148.703837 
L 295.229551 145.967178 
L 296.530455 138.759659 
L 297.175246 140.495861 
L 298.453721 143.263939 
L 299.717667 139.553618 
L 300.344294 138.972419 
L 300.967411 138.793057 
L 301.587057 129.868577 
L 302.203269 128.336361 
L 302.816087 135.945165 
L 303.425546 139.39673 
L 304.031684 137.869151 
L 304.634537 140.319404 
L 305.830528 150.753123 
L 306.423735 153.634193 
L 307.013795 155.309151 
L 307.600741 156.339825 
L 308.184607 156.916897 
L 308.765423 159.883818 
L 309.343222 160.141432 
L 309.918035 161.673078 
L 310.489893 161.792893 
L 311.058825 161.224434 
L 312.188034 166.803224 
L 312.748368 165.663916 
L 313.305893 166.012239 
L 313.860638 164.095026 
L 314.412629 160.59254 
L 314.961895 157.993582 
L 316.052356 156.333589 
L 316.593603 157.1544 
L 317.132229 156.95215 
L 317.668259 157.231966 
L 318.201719 157.736402 
L 318.732632 157.07863 
L 319.261022 160.034117 
L 319.786915 161.124377 
L 320.310333 161.386343 
L 320.831299 161.842798 
L 321.349836 162.585277 
L 321.865968 162.20213 
L 322.379715 165.760246 
L 322.8911 167.596393 
L 323.400145 167.078561 
L 323.90687 167.779327 
L 324.411298 169.899999 
L 324.913448 169.673352 
L 325.413341 174.197648 
L 325.910998 176.349688 
L 326.406438 179.110045 
L 326.899681 183.498832 
L 327.390746 181.905487 
L 327.879652 181.320523 
L 328.851065 181.525892 
L 329.814068 186.886264 
L 330.29246 186.25746 
L 330.768804 182.35233 
L 331.243116 180.438628 
L 332.185716 177.623465 
L 332.654037 175.035905 
L 333.120394 174.478501 
L 333.584804 172.7735 
L 334.047283 169.328789 
L 334.507847 169.497161 
L 336.331266 166.164087 
L 336.782489 165.472231 
L 337.231887 166.983232 
L 337.679478 169.67827 
L 338.569291 172.276782 
L 339.011543 171.046503 
L 339.452042 170.792811 
L 340.327843 176.26335 
L 341.196801 175.105225 
L 341.628747 175.675412 
L 342.059023 176.587675 
L 342.48764 178.622773 
L 342.914612 176.847829 
L 343.339952 175.748775 
L 344.185781 169.387263 
L 344.606296 171.359224 
L 345.025227 171.445454 
L 345.858385 177.866859 
L 346.272636 179.550449 
L 347.096536 170.95766 
L 347.506209 168.648052 
L 347.914379 168.170262 
L 348.321056 169.667477 
L 348.726251 171.78507 
L 349.129976 171.740922 
L 349.933056 180.361731 
L 351.126907 170.255756 
L 351.522027 169.448918 
L 351.915748 170.469743 
L 352.30808 175.580975 
L 352.699034 177.67707 
L 353.088617 182.259821 
L 353.476841 178.241465 
L 353.863715 179.748841 
L 354.249248 177.060316 
L 354.633449 178.197569 
L 355.397892 182.691618 
L 355.778153 182.490462 
L 356.911195 177.838835 
L 357.286326 176.850277 
L 357.660195 177.98824 
L 358.404185 186.197703 
L 358.774322 187.524829 
L 359.143232 184.915178 
L 359.510922 184.037033 
L 359.8774 183.832789 
L 360.242675 185.887342 
L 360.606754 189.165797 
L 360.969645 188.276801 
L 361.691895 184.251285 
L 362.051269 185.783606 
L 362.409485 185.965574 
L 362.766551 184.570497 
L 363.830924 177.821814 
L 364.183463 178.169961 
L 364.534889 179.060883 
L 364.885207 178.663308 
L 365.582552 182.83311 
L 365.929591 186.294744 
L 366.275551 188.389775 
L 366.620439 193.227582 
L 366.96426 194.710861 
L 367.307021 195.031908 
L 367.64873 199.247776 
L 367.989392 199.90385 
L 368.329014 196.909089 
L 368.667602 199.005738 
L 369.005162 196.73685 
L 369.341702 199.621011 
L 369.677225 198.975547 
L 370.01174 196.860822 
L 370.345252 196.793824 
L 370.677766 198.045379 
L 371.00929 198.223677 
L 371.339828 195.366238 
L 371.669387 194.177778 
L 371.997973 194.128265 
L 372.32559 193.12236 
L 372.977945 192.604155 
L 373.949357 189.707431 
L 374.271286 190.888178 
L 374.592285 190.369985 
L 374.91236 191.871078 
L 375.231517 192.306206 
L 375.54976 189.310211 
L 375.867096 188.563751 
L 376.183529 189.185374 
L 376.499064 187.781534 
L 376.813707 187.390538 
L 377.127461 187.366085 
L 377.440334 189.642823 
L 377.752329 193.154549 
L 378.063451 193.16615 
L 378.373705 194.945379 
L 378.683096 195.91556 
L 378.991629 195.93291 
L 379.299309 198.520011 
L 379.60614 198.003978 
L 379.912126 199.445432 
L 380.217273 199.02246 
L 380.521586 198.106356 
L 380.825068 198.653488 
L 381.127724 196.472168 
L 381.429559 192.475233 
L 381.730577 191.938624 
L 382.030782 193.236787 
L 382.33018 197.415424 
L 382.628773 198.872807 
L 382.926567 201.677573 
L 383.223566 202.502322 
L 383.519775 202.277067 
L 383.815196 199.44057 
L 384.109835 197.701409 
L 384.696781 191.879005 
L 384.989097 192.806349 
L 385.280646 191.248563 
L 386.439262 200.95606 
L 386.72704 201.045032 
L 387.014075 202.129394 
L 387.585932 206.438407 
L 387.870762 205.507946 
L 388.154865 208.30799 
L 388.438244 209.625207 
L 388.720902 210.123557 
L 389.002844 207.976967 
L 389.564593 212.031151 
L 389.844407 213.087711 
L 390.123519 209.751662 
L 390.401933 208.275439 
L 390.679651 210.384186 
L 390.956677 211.429653 
L 391.233016 211.800407 
L 391.508669 213.2348 
L 391.783641 216.174869 
L 392.057935 215.172678 
L 392.604501 216.143702 
L 393.148395 214.448533 
L 393.419348 217.705282 
L 393.689642 217.253727 
L 393.959281 217.521125 
L 394.496606 214.126904 
L 394.764299 214.059681 
L 395.563531 205.539585 
L 395.828671 205.254424 
L 396.09318 205.370537 
L 396.357062 206.050337 
L 397.144971 198.342288 
L 397.667161 200.723405 
L 397.927339 201.628079 
L 398.18691 204.949688 
L 398.445876 201.889829 
L 398.704241 203.640966 
L 399.219177 211.384817 
L 399.731741 219.630746 
L 399.98714 220.131155 
L 400.749836 211.325667 
L 401.00291 206.009858 
L 401.507337 208.201407 
L 402.009488 204.952447 
L 402.259715 204.864071 
L 402.509381 207.75821 
L 402.758488 208.442511 
L 403.007038 206.697884 
L 403.255033 207.266888 
L 403.502477 210.127321 
L 403.749372 215.763163 
L 403.99572 218.637945 
L 404.241524 219.020471 
L 404.486785 218.223989 
L 404.731507 215.558162 
L 405.462459 203.764448 
L 405.705046 207.688909 
L 406.188638 210.902876 
L 406.429648 209.749596 
L 406.670137 206.926594 
L 406.910107 206.548441 
L 407.149561 206.939876 
L 407.3885 207.76002 
L 407.626927 209.70149 
L 407.864843 209.918401 
L 408.102252 209.821005 
L 408.339156 210.893046 
L 408.575556 210.890883 
L 408.811454 209.738375 
L 409.046853 206.587162 
L 409.516162 208.75563 
L 409.750076 207.35065 
L 409.983499 206.654569 
L 410.216434 206.890332 
L 410.680844 210.29858 
L 410.912324 209.432637 
L 411.143323 207.968778 
L 411.373843 207.82195 
L 411.603887 208.090711 
L 411.833456 205.132296 
L 412.519333 215.40957 
L 412.747022 215.113702 
L 412.974246 214.23188 
L 413.201007 212.470906 
L 413.878528 214.297429 
L 414.103455 215.63113 
L 414.327927 218.128501 
L 414.551947 214.679157 
L 414.775517 215.072745 
L 414.998639 218.578898 
L 415.443544 219.417166 
L 415.886676 214.873618 
L 416.107582 214.668387 
L 416.32805 213.426218 
L 416.548082 214.337301 
L 416.76768 214.277177 
L 416.986844 216.635921 
L 417.423882 218.877598 
L 417.641759 217.020013 
L 417.85921 218.07539 
L 418.076237 221.083206 
L 418.292841 218.855114 
L 418.724787 216.68279 
L 418.940133 213.931246 
L 419.155063 209.641221 
L 419.369578 208.293657 
L 419.58368 207.945177 
L 419.797371 207.876895 
L 420.223525 211.721589 
L 420.435991 211.800929 
L 420.648052 215.016214 
L 420.85971 215.091912 
L 421.070966 213.657141 
L 421.281821 213.546132 
L 421.702336 216.558794 
L 422.121267 217.884252 
L 422.330142 216.861396 
L 422.538626 219.645681 
L 422.74672 220.931929 
L 422.954425 221.472827 
L 423.161743 221.057054 
L 423.368675 221.610833 
L 423.575223 221.824478 
L 423.781388 222.856302 
L 423.987172 221.041378 
L 424.192576 220.34925 
L 424.397601 219.258613 
L 425.010418 225.242474 
L 425.213943 222.751939 
L 425.417095 222.491152 
L 425.619878 223.841376 
L 425.822291 224.178813 
L 426.226016 221.666829 
L 426.42733 222.002311 
L 426.628281 222.628255 
L 426.828869 222.596412 
L 427.228963 220.502528 
L 427.428472 220.906468 
L 427.627623 221.982524 
L 427.826419 221.45837 
L 428.222947 218.184233 
L 428.420682 217.326912 
L 428.618067 217.989232 
L 428.815101 221.963196 
L 429.011788 221.075839 
L 429.208127 219.357423 
L 429.40412 216.022711 
L 429.795073 219.943512 
L 429.990036 219.807642 
L 430.184657 218.437072 
L 430.378938 218.5086 
L 430.572881 218.768746 
L 430.766486 218.016542 
L 430.959755 216.444289 
L 431.345287 216.728281 
L 431.537554 216.292436 
L 431.729488 217.882965 
L 432.112367 215.072513 
L 432.303313 218.520974 
L 432.493932 218.98935 
L 432.684225 216.143939 
L 432.874192 217.774008 
L 433.253157 216.80513 
L 433.630835 223.508941 
L 433.819194 224.351463 
L 434.007235 226.217901 
L 434.194958 226.541158 
L 434.382366 224.936018 
L 434.569457 226.823544 
L 434.756235 229.968907 
L 434.9427 230.629228 
L 435.128852 230.161289 
L 435.314693 232.010925 
L 435.685447 226.762191 
L 436.05497 232.39976 
L 436.239271 231.482089 
L 436.423268 227.883698 
L 436.606961 228.237603 
L 436.973439 224.637371 
L 437.156227 227.276111 
L 437.338714 226.220176 
L 437.702793 222.335494 
L 438.065685 224.862964 
L 438.427396 221.897717 
L 438.787934 226.189598 
L 438.967766 225.791006 
L 439.326561 229.753509 
L 439.505525 225.875853 
L 439.684201 224.974235 
L 439.862591 225.950135 
L 440.218515 221.204796 
L 440.39605 221.474166 
L 440.573303 220.807747 
L 440.750274 225.24156 
L 440.926963 225.122546 
L 441.103373 223.860905 
L 441.455354 226.053221 
L 441.630928 231.710621 
L 442.155993 227.934667 
L 442.330466 225.570418 
L 442.504665 227.375687 
L 442.678591 225.707571 
L 442.852246 227.101938 
L 443.025631 231.853286 
L 443.198745 229.626539 
L 443.371591 229.672674 
L 443.544168 232.562347 
L 443.716478 231.65265 
L 444.060299 227.819851 
L 444.231812 228.635243 
L 444.403061 228.841568 
L 444.574047 229.695045 
L 444.74477 227.36385 
L 444.915231 230.059577 
L 445.085432 230.564906 
L 445.255372 229.544556 
L 445.425054 231.290503 
L 445.594476 231.153062 
L 445.763642 229.668357 
L 446.101202 225.025048 
L 446.269599 225.80694 
L 446.60563 231.377011 
L 446.773265 232.087475 
L 446.940648 229.429458 
L 447.10778 229.019628 
L 447.274661 230.271933 
L 447.441291 229.605572 
L 447.773806 233.153249 
L 447.939691 232.210546 
L 448.10533 233.58174 
L 448.270722 231.430907 
L 448.435868 230.89814 
L 448.765427 234.209531 
L 449.42163 227.275226 
L 449.585078 231.188993 
L 449.748285 231.004437 
L 449.911254 231.306691 
L 450.073984 232.434653 
L 450.236477 229.143652 
L 450.398732 229.738829 
L 450.560751 233.556734 
L 450.722535 232.102365 
L 451.045397 234.432258 
L 451.206478 235.619784 
L 451.367325 234.700027 
L 451.688324 228.948472 
L 451.848477 230.908553 
L 452.168092 229.680214 
L 452.486792 232.484346 
L 452.6458 231.780974 
L 452.804581 233.110321 
L 452.963135 231.955534 
L 453.121464 233.226603 
L 453.279568 233.337858 
L 453.437448 233.213956 
L 453.595104 231.720971 
L 453.752536 233.10259 
L 453.909746 232.41203 
L 454.066734 231.048095 
L 454.223501 232.670372 
L 454.380047 232.023816 
L 454.536374 234.836135 
L 454.848368 233.159845 
L 455.004038 232.427563 
L 455.15949 233.031695 
L 455.314726 234.408913 
L 455.779136 232.289271 
L 455.933509 232.711963 
L 456.395348 240.394689 
L 456.54887 240.685865 
L 456.702179 238.795478 
L 456.855278 238.500481 
L 457.160844 234.817272 
L 457.313313 236.647937 
L 457.465573 236.589221 
L 457.617625 236.822703 
L 457.76947 236.71354 
L 457.921107 234.771173 
L 458.072538 238.528174 
L 458.374783 234.873888 
L 458.525598 234.911194 
L 458.826616 231.880332 
L 458.97682 231.997305 
L 459.126822 231.851547 
L 459.276621 229.112157 
L 459.575616 237.316107 
L 459.724813 237.330302 
L 459.87381 239.565354 
L 460.022607 238.899245 
L 460.171206 237.724342 
L 460.319606 233.531115 
L 460.467809 235.452206 
L 460.615814 235.284109 
L 460.763623 234.276512 
L 460.911236 238.262693 
L 461.058652 237.982322 
L 461.205874 235.055166 
L 461.499735 243.011254 
L 461.646374 242.366562 
L 461.939075 232.789972 
L 462.085136 233.97982 
L 462.231007 237.150304 
L 462.376686 237.69804 
L 462.667473 240.14829 
L 462.812582 241.377354 
L 463.102234 238.186152 
L 463.246777 239.693288 
L 463.391133 238.043939 
L 463.679283 233.212993 
L 463.823079 232.883468 
L 463.966689 236.016854 
L 464.110114 235.890242 
L 464.396411 238.320014 
L 464.539283 238.379867 
L 464.681972 237.163874 
L 464.824478 238.564965 
L 465.108944 243.150994 
L 465.250905 243.382916 
L 465.675702 236.846606 
L 465.958002 240.350694 
L 466.239587 236.869542 
L 466.380113 237.304703 
L 466.800628 241.281291 
L 466.940447 242.008337 
L 467.080091 243.844038 
L 467.219559 238.836061 
L 467.358853 238.508961 
L 467.497972 238.838179 
L 467.636918 239.568525 
L 467.775691 239.675024 
L 467.91429 236.576988 
L 468.190972 241.322899 
L 468.329055 237.539197 
L 468.466967 237.155406 
L 468.604709 237.267863 
L 468.74228 236.44084 
L 468.879681 234.548013 
L 469.016912 235.048692 
L 469.153974 236.880886 
L 469.290868 235.455512 
L 469.700541 242.647086 
L 469.836764 243.619238 
L 470.10871 237.555755 
L 470.244435 241.689519 
L 470.515388 236.915568 
L 470.785682 240.172782 
L 470.920583 241.446984 
L 471.055321 248.967165 
L 471.189896 247.26668 
L 471.324308 247.935427 
L 471.458558 245.481361 
L 471.592646 245.223607 
L 471.726573 246.22799 
L 471.993943 246.32291 
L 472.260673 238.821714 
L 472.526764 243.573179 
L 472.659571 243.366986 
L 472.924711 234.881407 
L 473.057044 236.249762 
L 473.18922 235.683866 
L 473.453102 241.276178 
L 473.584808 240.798987 
L 473.847754 240.196829 
L 473.978994 240.607947 
L 474.11008 239.045194 
L 474.371788 240.431413 
L 474.632883 236.179486 
L 474.7632 241.058239 
L 474.893365 239.667674 
L 475.282949 247.625899 
L 475.541916 241.877237 
L 475.671173 242.164349 
L 475.929238 244.910641 
L 476.058047 244.696038 
L 476.315217 248.758651 
L 476.44358 248.860484 
L 476.571794 249.483399 
L 476.699861 247.467538 
L 476.827781 247.363254 
L 476.955553 246.936766 
L 477.210659 244.687989 
L 477.465181 245.745828 
L 477.592224 244.635592 
L 478.09895 234.977252 
L 478.351449 240.174513 
L 478.477484 244.767063 
L 478.854735 242.343749 
L 479.105527 243.708498 
L 479.355755 239.360199 
L 479.854527 244.470264 
L 480.103077 240.531415 
L 480.227144 242.448684 
L 480.351073 242.313799 
L 480.598517 245.026371 
L 480.722033 244.858851 
L 480.845412 243.789327 
L 481.09176 243.908336 
L 481.337563 248.075399 
L 481.460262 247.618757 
L 481.582825 248.285513 
L 481.827547 251.71099 
L 481.949706 250.093167 
L 482.193623 243.240103 
L 482.315381 244.879826 
L 482.437006 244.902618 
L 482.679858 248.835666 
L 482.801086 245.737295 
L 483.043145 246.9926 
L 483.163977 245.548544 
L 483.525688 251.370408 
L 483.766177 249.975894 
L 483.886227 250.393524 
L 484.125938 246.970051 
L 484.484539 253.508086 
L 484.603817 250.344949 
L 484.722966 250.956701 
L 484.960883 249.093167 
L 485.079651 251.576837 
L 485.435195 247.362396 
L 485.671595 250.746772 
L 485.907494 249.38097 
L 486.025255 249.869388 
L 486.377795 257.358987 
L 486.612202 250.53065 
L 486.846116 254.619392 
L 486.962889 252.818293 
L 487.079539 254.043278 
L 487.428758 251.010853 
L 487.544921 247.372189 
L 488.008363 255.274115 
L 488.123923 256.515072 
L 488.354682 225.199951 
L 488.584964 251.411493 
L 488.699927 246.214855 
L 488.81477 249.578275 
L 489.044102 248.137106 
L 489.158592 249.56276 
L 489.272963 253.186325 
L 489.501353 250.33394 
L 489.615373 251.511309 
L 489.729276 250.541705 
L 489.843062 251.158766 
L 489.956732 250.449023 
L 490.183724 246.288427 
L 490.410254 245.895358 
L 490.523346 250.08301 
L 490.636323 249.67622 
L 490.861934 254.018424 
L 490.974568 254.251673 
L 491.199494 250.07638 
L 491.311787 250.053111 
L 491.536033 252.533278 
L 491.647987 252.502589 
L 491.871557 247.412345 
L 491.983174 246.394445 
L 492.317354 250.848272 
L 492.539584 242.590659 
L 492.650532 244.127294 
L 492.872098 252.279764 
L 492.982716 251.679687 
L 493.203622 254.493742 
L 493.31391 254.029991 
L 493.53416 248.308627 
L 493.644122 249.791961 
L 493.863719 257.319097 
L 493.973355 255.48105 
L 494.192305 257.078197 
L 494.301618 254.402738 
L 494.410823 257.100302 
L 494.519922 257.005222 
L 494.846577 241.868605 
L 495.38888 257.562797 
L 495.605063 256.680182 
L 495.712997 254.15476 
L 495.928552 255.903923 
L 496.358411 259.871106 
L 496.57272 252.049612 
L 496.786616 252.749388 
L 497.000102 256.037748 
L 497.106692 253.38807 
L 497.319564 254.253194 
L 497.532031 248.430341 
L 497.638112 248.399404 
L 497.95575 259.86417 
L 498.167005 256.663918 
L 498.272483 255.035226 
L 498.37786 255.933275 
L 498.483138 258.356406 
L 498.588317 257.770499 
L 498.693396 259.950488 
L 498.798375 258.573099 
L 498.903256 250.978447 
L 499.112722 253.824865 
L 499.321793 261.384616 
L 499.426182 262.278268 
L 499.738761 259.888245 
L 499.842759 256.763687 
L 499.94666 258.015029 
L 500.050465 256.533608 
L 500.257783 257.623817 
L 500.361297 253.479957 
L 500.568037 261.917168 
L 500.774393 255.207217 
L 500.980367 259.378102 
L 501.083212 259.275124 
L 501.391175 262.981512 
L 501.596012 260.946623 
L 501.698288 262.516756 
L 501.90256 256.720149 
L 502.106458 260.666575 
L 502.208267 258.171348 
L 502.309982 258.363202 
L 502.715917 252.676731 
L 502.81717 258.619665 
L 502.918331 257.395433 
L 503.120376 263.312575 
L 503.221262 260.115312 
L 503.322056 260.453186 
L 503.422758 262.590017 
L 503.52337 261.750626 
L 503.62389 262.526711 
L 503.82466 255.094291 
L 503.924908 255.127505 
L 504.125135 270.08663 
L 504.325003 265.276664 
L 504.424802 264.363514 
L 504.624132 259.70728 
L 504.723663 262.10191 
L 504.922458 260.780367 
L 505.318987 246.269148 
L 505.516722 261.033047 
L 505.714106 255.557617 
L 505.812667 255.304787 
L 506.107827 262.610082 
L 506.20604 258.536853 
L 506.50016 264.195524 
L 506.695808 258.589051 
L 506.793503 259.229017 
L 506.988637 268.611049 
L 507.280697 264.811133 
L 507.37788 263.712321 
L 507.571992 267.240897 
L 507.668921 267.242082 
L 507.862526 260.616317 
L 508.055794 265.927387 
L 508.152303 261.126043 
L 508.248728 261.940705 
L 508.345069 264.347212 
L 508.441327 263.965376 
L 508.633593 260.921774 
L 509.017132 266.042783 
L 509.208406 264.631911 
L 509.399353 267.043994 
L 509.494703 264.283465 
L 509.589971 264.971628 
L 509.780264 261.695571 
L 509.875289 264.107626 
L 509.970232 258.096736 
L 510.159876 265.425326 
L 510.254576 264.327413 
L 510.538196 254.064763 
L 510.632575 254.096558 
L 510.726875 253.569572 
L 510.821094 254.8305 
L 511.009294 264.671703 
L 511.103275 263.6446 
L 511.290998 260.866125 
L 511.478405 259.383031 
L 511.665497 266.775169 
L 511.852275 255.68959 
L 511.945546 257.283082 
L 512.038739 261.954921 
L 512.131854 259.65028 
L 512.224892 260.761541 
L 512.410733 268.251715 
L 512.596265 264.716471 
L 512.688914 267.210308 
L 512.781487 267.082603 
L 512.873983 266.774303 
L 513.151009 259.361708 
L 513.335311 264.210977 
L 513.519308 263.5014 
L 513.611192 265.871704 
L 513.794734 262.472963 
L 513.886391 259.901664 
L 513.977973 260.889039 
L 514.16091 266.232101 
L 514.252266 267.818727 
L 514.343548 265.809722 
L 514.525885 259.459282 
L 514.707925 263.57861 
L 514.798833 264.080049 
L 514.889667 263.777206 
L 515.071112 266.512618 
L 515.161724 263.845831 
L 515.252262 265.534047 
L 515.433118 264.092949 
L 515.61368 268.118724 
L 515.703851 265.48138 
L 515.793949 265.782758 
L 515.973926 262.988279 
L 516.153613 268.647187 
L 516.243348 267.158259 
L 516.4226 262.387494 
L 516.512118 264.379646 
L 516.601564 261.50781 
L 516.690938 265.546469 
L 516.780241 265.267887 
L 516.95863 263.592833 
L 517.136735 262.563008 
L 517.22568 267.919085 
L 517.580752 262.223178 
L 517.757863 263.67201 
L 517.934693 268.964558 
L 518.199412 262.446047 
L 518.375542 265.773143 
L 518.551394 270.499839 
L 518.639215 269.835843 
L 518.814651 274.558449 
L 519.077286 266.761559 
L 519.426505 273.759268 
L 519.774631 262.968179 
L 520.208261 256.030675 
L 520.381241 267.143034 
L 520.46763 265.483996 
L 520.553953 264.539845 
L 520.812518 270.855723 
L 520.898573 269.434357 
L 520.984561 270.131098 
L 521.070483 272.715286 
L 521.156339 271.278355 
L 521.242128 272.250174 
L 521.327852 272.185144 
L 521.413509 272.916667 
L 521.670086 267.985657 
L 521.755481 268.866498 
L 521.840809 271.067004 
L 521.926073 270.195766 
L 522.011271 270.730639 
L 522.181471 273.443523 
L 522.351412 274.504876 
L 522.436285 274.751869 
L 522.605837 272.707409 
L 522.775131 274.615756 
L 522.944167 271.810526 
L 523.112948 267.329881 
L 523.197242 268.070125 
L 523.533781 277.18884 
L 523.869305 259.543962 
L 524.036688 269.989818 
L 524.120285 269.003018 
L 524.203819 266.78455 
L 524.454047 273.785373 
L 524.537331 274.844145 
L 524.620553 273.762775 
L 524.78681 269.199878 
L 524.869846 272.625638 
L 524.952819 271.920865 
L 525.118581 274.426579 
L 525.201369 273.910681 
L 525.284096 274.554166 
L 525.449365 268.637955 
L 525.614389 275.149096 
L 525.779168 268.494871 
L 526.025881 273.660335 
L 526.107997 274.516112 
L 526.190052 270.508024 
L 526.272047 271.32835 
L 526.353981 271.291482 
L 526.599423 263.804335 
L 526.844325 272.132631 
L 527.088688 270.850295 
L 527.2513 264.095505 
L 527.332516 265.117837 
L 527.575811 272.102925 
L 527.656791 274.442954 
L 527.737712 274.438008 
L 527.899378 272.225996 
L 527.980123 275.407217 
L 528.060809 274.092426 
L 528.141437 274.185527 
L 528.302517 271.793997 
L 528.38297 274.84598 
L 528.463365 273.940998 
L 528.543701 275.458777 
L 528.62398 273.952527 
L 528.784364 276.837117 
L 528.864469 275.75598 
L 529.024507 276.624786 
L 529.104439 276.288009 
L 529.184314 276.453404 
L 529.423596 266.459894 
L 529.503242 269.046014 
L 529.582831 266.910527 
L 529.662364 270.384387 
L 529.741839 270.132434 
L 529.821258 270.980306 
L 529.90062 275.468367 
L 529.979926 272.08675 
L 530.138368 261.62901 
L 530.375608 272.296898 
L 530.454576 272.753809 
L 530.612343 277.525939 
L 530.769887 273.29303 
L 530.848576 277.345185 
L 530.927208 277.253963 
L 531.084307 273.731632 
L 531.162774 274.741553 
L 531.241185 275.055654 
L 531.319541 279.47596 
L 531.476087 273.624792 
L 531.632413 264.898218 
L 531.710494 265.820392 
L 531.866491 273.634241 
L 532.02227 266.368986 
L 532.177831 276.874927 
L 532.25553 281.077529 
L 532.565784 268.008014 
L 532.797908 276.100987 
L 532.875176 275.652999 
L 533.029549 271.523326 
L 533.260708 275.405126 
L 533.491388 278.83201 
L 533.568175 277.022561 
L 533.644909 278.036458 
L 533.72159 277.485844 
L 533.798219 278.438228 
L 533.951317 275.553449 
L 534.027788 275.490181 
L 534.180571 278.18563 
L 534.333144 273.909891 
L 534.485509 280.35019 
L 534.561613 279.085162 
L 534.637665 278.876488 
L 534.789613 277.148754 
L 534.865509 277.847801 
L 534.941354 279.911353 
L 535.168578 275.755208 
L 535.319803 279.597793 
L 535.395339 278.244794 
L 535.470823 281.073315 
L 535.546256 280.01055 
L 535.772249 265.473427 
L 535.847478 269.150268 
L 535.997783 279.871486 
L 536.07286 280.771801 
L 536.372661 270.466089 
L 536.522259 275.271326 
L 536.671656 265.25109 
L 536.746279 265.862285 
L 537.118647 282.860068 
L 537.192971 280.175161 
L 537.34147 273.381892 
L 537.415646 275.519115 
L 537.489772 275.824067 
L 537.563848 273.565079 
L 537.637876 274.116733 
L 537.711854 276.769581 
L 537.785783 273.908047 
L 538.081008 281.445573 
L 538.154692 285.253555 
L 538.301914 279.216515 
L 538.448941 269.906274 
L 538.742414 282.90823 
L 539.035114 269.946374 
L 539.39991 285.21813 
L 539.472726 282.20632 
L 539.545494 282.480582 
L 539.618214 285.411465 
L 539.690887 284.440824 
L 539.763513 283.454816 
L 539.981105 286.276753 
L 540.053542 285.130185 
L 540.125931 287.091011 
L 540.198273 286.311325 
L 540.487172 273.722815 
L 540.631341 269.575234 
L 540.703355 269.846703 
L 541.062729 281.320952 
L 541.134465 286.670983 
L 541.206154 286.650859 
L 541.277797 280.75031 
L 541.349394 281.563474 
L 541.563909 285.66902 
L 541.70669 275.940484 
L 541.778012 277.135146 
L 541.849288 275.071196 
L 541.920518 276.462434 
L 542.062842 285.190635 
L 542.204984 280.099269 
L 542.275987 281.899065 
L 542.417857 275.873481 
L 542.488724 276.151627 
L 542.559546 276.848167 
L 542.630323 274.814909 
L 542.701055 275.083898 
L 542.771742 275.135991 
L 543.124505 285.169412 
L 543.335627 275.779691 
L 543.405912 276.403746 
L 543.616501 287.541808 
L 543.756673 283.247046 
L 543.896668 286.266282 
L 544.036487 284.572737 
L 544.10633 284.700119 
L 544.17613 287.401304 
L 544.315599 277.914665 
L 544.454892 268.280164 
L 544.524474 270.683515 
L 544.732958 288.453899 
L 544.87173 284.030928 
L 544.941052 284.349013 
L 545.148757 285.582031 
L 545.217906 282.48456 
L 545.287012 285.431211 
L 545.356075 282.896868 
L 545.494072 287.433756 
L 545.563007 286.434345 
L 545.700748 289.666493 
L 545.769555 285.153326 
L 545.838319 285.878452 
L 545.907041 289.099955 
L 545.97572 288.355918 
L 546.112952 283.368279 
L 546.181504 283.298031 
L 546.250014 283.005668 
L 546.455291 290.571867 
L 546.591933 282.969847 
L 546.66019 283.810387 
L 546.796581 277.926788 
L 546.864713 278.713447 
L 546.932804 278.306833 
L 547.000853 278.483935 
L 547.06886 278.677392 
L 547.136826 278.346016 
L 547.408274 287.496982 
L 547.611427 277.404426 
L 547.746656 281.834952 
L 547.881722 277.416906 
L 547.949193 279.734828 
L 548.084012 290.021746 
L 548.218668 283.134003 
L 548.285935 285.074675 
L 548.487493 288.427815 
L 548.554598 287.162587 
L 548.621662 288.250642 
L 548.956378 275.917356 
L 549.089983 264.012396 
L 549.223427 273.556458 
L 549.356712 284.874315 
L 549.622803 269.408128 
L 550.219191 292.466497 
L 550.417279 282.562497 
L 550.48323 285.9326 
L 550.549141 285.503408 
L 550.746643 269.742221 
L 550.878115 277.809242 
L 550.943794 287.732922 
L 551.009433 285.472158 
L 551.075034 284.065391 
L 551.271604 289.193665 
L 551.337051 288.750234 
L 551.402459 288.956334 
L 551.467828 291.161781 
L 551.533159 286.300237 
L 551.598452 287.805857 
L 551.7941 289.556369 
L 551.85924 288.623165 
L 551.924341 291.114345 
L 552.119418 286.505688 
L 552.184367 287.464977 
L 552.249279 286.501251 
L 552.378989 279.103048 
L 552.443787 280.258236 
L 552.508547 286.159336 
L 552.637955 278.102181 
L 552.767213 284.985841 
L 552.831785 284.658821 
L 552.89632 285.57683 
L 553.025278 291.970571 
L 553.089701 290.372568 
L 553.154086 288.566722 
L 553.282746 290.856206 
L 553.411257 288.602384 
L 553.475456 288.886608 
L 553.539619 291.59555 
L 553.603745 289.673244 
L 553.667834 289.079475 
L 553.731886 289.628653 
L 553.795901 289.041743 
L 554.051593 277.975374 
L 554.115424 275.100597 
L 554.179219 275.919185 
L 554.242977 276.515119 
L 554.370384 269.593768 
L 554.434032 270.561629 
L 554.497645 268.856045 
L 554.688264 288.268503 
L 554.751731 282.942657 
L 554.815162 276.230595 
L 554.878556 276.732245 
L 555.258168 290.472572 
L 555.321311 290.301259 
L 555.384418 292.026618 
L 555.447489 290.196134 
L 555.636488 278.032595 
L 555.699417 279.023854 
L 555.825167 286.321795 
L 555.887989 286.056078 
L 556.013526 294.20871 
L 556.138922 280.293427 
L 556.201567 281.21601 
L 556.38929 291.655573 
L 556.639096 280.927424 
L 556.70146 272.271128 
L 556.763789 272.675657 
L 556.826083 271.751416 
L 557.074911 286.267513 
L 557.137031 284.448631 
L 557.261168 286.478858 
L 557.447113 294.884911 
L 557.756332 277.301694 
L 557.879779 287.547244 
L 557.941451 283.700851 
L 558.00309 277.880343 
L 558.064694 282.439337 
L 558.187799 280.372119 
L 558.433603 289.775933 
L 558.494969 290.0879 
L 558.740096 269.589458 
L 558.801293 270.23309 
L 558.862457 270.129437 
L 559.045746 293.585858 
L 559.106775 283.670487 
L 559.167771 272.733132 
L 559.228734 275.361815 
L 559.350559 291.220716 
L 559.411421 290.178306 
L 559.47225 290.647046 
L 559.533046 288.687137 
L 559.593809 289.537715 
L 559.654538 293.469393 
L 559.715235 292.763982 
L 559.957689 287.656017 
L 560.078719 294.078781 
L 560.139184 293.019297 
L 560.199617 289.861414 
L 560.260016 291.429917 
L 560.320383 291.212207 
L 560.380718 285.756955 
L 560.441019 286.310242 
L 560.501288 287.923299 
L 560.802143 264.475169 
L 560.922258 269.287209 
L 561.162098 282.913819 
L 561.162098 282.913819 
" clip-path="url(#p826564c11e)" style="fill: none; stroke: #1f77b4; stroke-linecap: square"/>
   </g>
   <g id="patch_3">
    <path d="M 48.982813 294.590247 
L 48.982813 22.318125 
" style="fill: none; stroke: #000000; stroke-width: 0.8; stroke-linejoin: miter; stroke-linecap: square"/>
   </g>
   <g id="patch_4">
    <path d="M 561.197812 294.590247 
L 561.197812 22.318125 
" style="fill: none; stroke: #000000; stroke-width: 0.8; stroke-linejoin: miter; stroke-linecap: square"/>
   </g>
   <g id="patch_5">
    <path d="M 48.982813 294.590247 
L 561.197812 294.590247 
" style="fill: none; stroke: #000000; stroke-width: 0.8; stroke-linejoin: miter; stroke-linecap: square"/>
   </g>
   <g id="patch_6">
    <path d="M 48.982813 22.318125 
L 561.197812 22.318125 
" style="fill: none; stroke: #000000; stroke-width: 0.8; stroke-linejoin: miter; stroke-linecap: square"/>
   </g>
   <g id="text_14">
    <!-- Ford Explorer Blower Setting 2 - Narrow Band SPL (dBA) -->
    <g transform="translate(137.56375 16.318125) scale(0.12 -0.12)">
     <defs>
      <path id="DejaVuSans-6f" d="M 1959 3097 
Q 1497 3097 1228 2736 
Q 959 2375 959 1747 
Q 959 1119 1226 758 
Q 1494 397 1959 397 
Q 2419 397 2687 759 
Q 2956 1122 2956 1747 
Q 2956 2369 2687 2733 
Q 2419 3097 1959 3097 
z
M 1959 3584 
Q 2709 3584 3137 3096 
Q 3566 2609 3566 1747 
Q 3566 888 3137 398 
Q 2709 -91 1959 -91 
Q 1206 -91 779 398 
Q 353 888 353 1747 
Q 353 2609 779 3096 
Q 1206 3584 1959 3584 
z
" transform="scale(0.015625)"/>
      <path id="DejaVuSans-45" d="M 628 4666 
L 3578 4666 
L 3578 4134 
L 1259 4134 
L 1259 2753 
L 3481 2753 
L 3481 2222 
L 1259 2222 
L 1259 531 
L 3634 531 
L 3634 0 
L 628 0 
L 628 4666 
z
" transform="scale(0.015625)"/>
      <path id="DejaVuSans-78" d="M 3513 3500 
L 2247 1797 
L 3578 0 
L 2900 0 
L 1881 1375 
L 863 0 
L 184 0 
L 1544 1831 
L 300 3500 
L 978 3500 
L 1906 2253 
L 2834 3500 
L 3513 3500 
z
" transform="scale(0.015625)"/>
      <path id="DejaVuSans-70" d="M 1159 525 
L 1159 -1331 
L 581 -1331 
L 581 3500 
L 1159 3500 
L 1159 2969 
Q 1341 3281 1617 3432 
Q 1894 3584 2278 3584 
Q 2916 3584 3314 3078 
Q 3713 2572 3713 1747 
Q 3713 922 3314 415 
Q 2916 -91 2278 -91 
Q 1894 -91 1617 61 
Q 1341 213 1159 525 
z
M 3116 1747 
Q 3116 2381 2855 2742 
Q 2594 3103 2138 3103 
Q 1681 3103 1420 2742 
Q 1159 2381 1159 1747 
Q 1159 1113 1420 752 
Q 1681 391 2138 391 
Q 2594 391 2855 752 
Q 3116 1113 3116 1747 
z
" transform="scale(0.015625)"/>
      <path id="DejaVuSans-6c" d="M 603 4863 
L 1178 4863 
L 1178 0 
L 603 0 
L 603 4863 
z
" transform="scale(0.015625)"/>
      <path id="DejaVuSans-77" d="M 269 3500 
L 844 3500 
L 1563 769 
L 2278 3500 
L 2956 3500 
L 3675 769 
L 4391 3500 
L 4966 3500 
L 4050 0 
L 3372 0 
L 2619 2869 
L 1863 0 
L 1184 0 
L 269 3500 
z
" transform="scale(0.015625)"/>
      <path id="DejaVuSans-74" d="M 1172 4494 
L 1172 3500 
L 2356 3500 
L 2356 3053 
L 1172 3053 
L 1172 1153 
Q 1172 725 1289 603 
Q 1406 481 1766 481 
L 2356 481 
L 2356 0 
L 1766 0 
Q 1100 0 847 248 
Q 594 497 594 1153 
L 594 3053 
L 172 3053 
L 172 3500 
L 594 3500 
L 594 4494 
L 1172 4494 
z
" transform="scale(0.015625)"/>
      <path id="DejaVuSans-69" d="M 603 3500 
L 1178 3500 
L 1178 0 
L 603 0 
L 603 3500 
z
M 603 4863 
L 1178 4863 
L 1178 4134 
L 603 4134 
L 603 4863 
z
" transform="scale(0.015625)"/>
      <path id="DejaVuSans-67" d="M 2906 1791 
Q 2906 2416 2648 2759 
Q 2391 3103 1925 3103 
Q 1463 3103 1205 2759 
Q 947 2416 947 1791 
Q 947 1169 1205 825 
Q 1463 481 1925 481 
Q 2391 481 2648 825 
Q 2906 1169 2906 1791 
z
M 3481 434 
Q 3481 -459 3084 -895 
Q 2688 -1331 1869 -1331 
Q 1566 -1331 1297 -1286 
Q 1028 -1241 775 -1147 
L 775 -588 
Q 1028 -725 1275 -790 
Q 1522 -856 1778 -856 
Q 2344 -856 2625 -561 
Q 2906 -266 2906 331 
L 2906 616 
Q 2728 306 2450 153 
Q 2172 0 1784 0 
Q 1141 0 747 490 
Q 353 981 353 1791 
Q 353 2603 747 3093 
Q 1141 3584 1784 3584 
Q 2172 3584 2450 3431 
Q 2728 3278 2906 2969 
L 2906 3500 
L 3481 3500 
L 3481 434 
z
" transform="scale(0.015625)"/>
      <path id="DejaVuSans-2d" d="M 313 2009 
L 1997 2009 
L 1997 1497 
L 313 1497 
L 313 2009 
z
" transform="scale(0.015625)"/>
      <path id="DejaVuSans-4e" d="M 628 4666 
L 1478 4666 
L 3547 763 
L 3547 4666 
L 4159 4666 
L 4159 0 
L 3309 0 
L 1241 3903 
L 1241 0 
L 628 0 
L 628 4666 
z
" transform="scale(0.015625)"/>
      <path id="DejaVuSans-61" d="M 2194 1759 
Q 1497 1759 1228 1600 
Q 959 1441 959 1056 
Q 959 750 1161 570 
Q 1363 391 1709 391 
Q 2188 391 2477 730 
Q 2766 1069 2766 1631 
L 2766 1759 
L 2194 1759 
z
M 3341 1997 
L 3341 0 
L 2766 0 
L 2766 531 
Q 2569 213 2275 61 
Q 1981 -91 1556 -91 
Q 1019 -91 701 211 
Q 384 513 384 1019 
Q 384 1609 779 1909 
Q 1175 2209 1959 2209 
L 2766 2209 
L 2766 2266 
Q 2766 2663 2505 2880 
Q 2244 3097 1772 3097 
Q 1472 3097 1187 3025 
Q 903 2953 641 2809 
L 641 3341 
Q 956 3463 1253 3523 
Q 1550 3584 1831 3584 
Q 2591 3584 2966 3190 
Q 3341 2797 3341 1997 
z
" transform="scale(0.015625)"/>
     </defs>
     <use xlink:href="#DejaVuSans-46"/>
     <use xlink:href="#DejaVuSans-6f" transform="translate(53.894531 0)"/>
     <use xlink:href="#DejaVuSans-72" transform="translate(115.076172 0)"/>
     <use xlink:href="#DejaVuSans-64" transform="translate(154.439453 0)"/>
     <use xlink:href="#DejaVuSans-20" transform="translate(217.916016 0)"/>
     <use xlink:href="#DejaVuSans-45" transform="translate(249.703125 0)"/>
     <use xlink:href="#DejaVuSans-78" transform="translate(312.886719 0)"/>
     <use xlink:href="#DejaVuSans-70" transform="translate(372.066406 0)"/>
     <use xlink:href="#DejaVuSans-6c" transform="translate(435.542969 0)"/>
     <use xlink:href="#DejaVuSans-6f" transform="translate(463.326172 0)"/>
     <use xlink:href="#DejaVuSans-72" transform="translate(524.507812 0)"/>
     <use xlink:href="#DejaVuSans-65" transform="translate(563.371094 0)"/>
     <use xlink:href="#DejaVuSans-72" transform="translate(624.894531 0)"/>
     <use xlink:href="#DejaVuSans-20" transform="translate(666.007812 0)"/>
     <use xlink:href="#DejaVuSans-42" transform="translate(697.794922 0)"/>
     <use xlink:href="#DejaVuSans-6c" transform="translate(766.398438 0)"/>
     <use xlink:href="#DejaVuSans-6f" transform="translate(794.181641 0)"/>
     <use xlink:href="#DejaVuSans-77" transform="translate(855.363281 0)"/>
     <use xlink:href="#DejaVuSans-65" transform="translate(937.150391 0)"/>
     <use xlink:href="#DejaVuSans-72" transform="translate(998.673828 0)"/>
     <use xlink:href="#DejaVuSans-20" transform="translate(1039.787109 0)"/>
     <use xlink:href="#DejaVuSans-53" transform="translate(1071.574219 0)"/>
     <use xlink:href="#DejaVuSans-65" transform="translate(1135.050781 0)"/>
     <use xlink:href="#DejaVuSans-74" transform="translate(1196.574219 0)"/>
     <use xlink:href="#DejaVuSans-74" transform="translate(1235.783203 0)"/>
     <use xlink:href="#DejaVuSans-69" transform="translate(1274.992188 0)"/>
     <use xlink:href="#DejaVuSans-6e" transform="translate(1302.775391 0)"/>
     <use xlink:href="#DejaVuSans-67" transform="translate(1366.154297 0)"/>
     <use xlink:href="#DejaVuSans-20" transform="translate(1429.630859 0)"/>
     <use xlink:href="#DejaVuSans-32" transform="translate(1461.417969 0)"/>
     <use xlink:href="#DejaVuSans-20" transform="translate(1525.041016 0)"/>
     <use xlink:href="#DejaVuSans-2d" transform="translate(1556.828125 0)"/>
     <use xlink:href="#DejaVuSans-20" transform="translate(1592.912109 0)"/>
     <use xlink:href="#DejaVuSans-4e" transform="translate(1624.699219 0)"/>
     <use xlink:href="#DejaVuSans-61" transform="translate(1699.503906 0)"/>
     <use xlink:href="#DejaVuSans-72" transform="translate(1760.783203 0)"/>
     <use xlink:href="#DejaVuSans-72" transform="translate(1800.146484 0)"/>
     <use xlink:href="#DejaVuSans-6f" transform="translate(1839.009766 0)"/>
     <use xlink:href="#DejaVuSans-77" transform="translate(1900.191406 0)"/>
     <use xlink:href="#DejaVuSans-20" transform="translate(1981.978516 0)"/>
     <use xlink:href="#DejaVuSans-42" transform="translate(2013.765625 0)"/>
     <use xlink:href="#DejaVuSans-61" transform="translate(2082.369141 0)"/>
     <use xlink:href="#DejaVuSans-6e" transform="translate(2143.648438 0)"/>
     <use xlink:href="#DejaVuSans-64" transform="translate(2207.027344 0)"/>
     <use xlink:href="#DejaVuSans-20" transform="translate(2270.503906 0)"/>
     <use xlink:href="#DejaVuSans-53" transform="translate(2302.291016 0)"/>
     <use xlink:href="#DejaVuSans-50" transform="translate(2365.767578 0)"/>
     <use xlink:href="#DejaVuSans-4c" transform="translate(2426.070312 0)"/>
     <use xlink:href="#DejaVuSans-20" transform="translate(2481.783203 0)"/>
     <use xlink:href="#DejaVuSans-28" transform="translate(2513.570312 0)"/>
     <use xlink:href="#DejaVuSans-64" transform="translate(2552.583984 0)"/>
     <use xlink:href="#DejaVuSans-42" transform="translate(2616.060547 0)"/>
     <use xlink:href="#DejaVuSans-41" transform="translate(2684.664062 0)"/>
     <use xlink:href="#DejaVuSans-29" transform="translate(2753.072266 0)"/>
    </g>
   </g>
  </g>
 </g>
 <defs>
  <clipPath id="p826564c11e">
   <rect x="48.982813" y="22.318125" width="512.215" height="272.272122"/>
  </clipPath>
 </defs>
</svg>
