<?xml version="1.0" encoding="utf-8" standalone="no"?>
<!DOCTYPE svg PUBLIC "-//W3C//DTD SVG 1.1//EN"
  "http://www.w3.org/Graphics/SVG/1.1/DTD/svg11.dtd">
<svg xmlns:xlink="http://www.w3.org/1999/xlink" width="568.397812pt" height="351.806674pt" viewBox="0 0 568.397812 351.806674" xmlns="http://www.w3.org/2000/svg" version="1.1">
 <metadata>
  <rdf:RDF xmlns:dc="http://purl.org/dc/elements/1.1/" xmlns:cc="http://creativecommons.org/ns#" xmlns:rdf="http://www.w3.org/1999/02/22-rdf-syntax-ns#">
   <cc:Work>
    <dc:type rdf:resource="http://purl.org/dc/dcmitype/StillImage"/>
    <dc:date>2025-04-24T19:41:11.848872</dc:date>
    <dc:format>image/svg+xml</dc:format>
    <dc:creator>
     <cc:Agent>
      <dc:title>Matplotlib v3.10.0, https://matplotlib.org/</dc:title>
     </cc:Agent>
    </dc:creator>
   </cc:Work>
  </rdf:RDF>
 </metadata>
 <defs>
  <style type="text/css">*{stroke-linejoin: round; stroke-linecap: butt}</style>
 </defs>
 <g id="figure_1">
  <g id="patch_1">
   <path d="M 0 351.806674 
L 568.397812 351.806674 
L 568.397812 0 
L 0 0 
z
" style="fill: #ffffff"/>
  </g>
  <g id="axes_1">
   <g id="patch_2">
    <path d="M 48.982813 294.590247 
L 561.197812 294.590247 
L 561.197812 22.318125 
L 48.982813 22.318125 
z
" style="fill: #ffffff"/>
   </g>
   <g id="matplotlib.axis_1">
    <g id="xtick_1">
     <g id="line2d_1">
      <path d="M 48.982813 294.590247 
L 48.982813 22.318125 
" clip-path="url(#pdfd99dcaf9)" style="fill: none; stroke-dasharray: 1.85,0.8; stroke-dashoffset: 0; stroke: #b0b0b0; stroke-width: 0.5"/>
     </g>
     <g id="line2d_2">
      <defs>
       <path id="m54a18e73f5" d="M 0 0 
L 0 3.5 
" style="stroke: #000000; stroke-width: 0.8"/>
      </defs>
      <g>
       <use xlink:href="#m54a18e73f5" x="48.982813" y="294.590247" style="stroke: #000000; stroke-width: 0.8"/>
      </g>
     </g>
     <g id="text_1">
      <!-- 100 -->
      <g transform="translate(34.015351 320.460054) rotate(-45) scale(0.1 -0.1)">
       <defs>
        <path id="DejaVuSans-31" d="M 794 531 
L 1825 531 
L 1825 4091 
L 703 3866 
L 703 4441 
L 1819 4666 
L 2450 4666 
L 2450 531 
L 3481 531 
L 3481 0 
L 794 0 
L 794 531 
z
" transform="scale(0.015625)"/>
        <path id="DejaVuSans-30" d="M 2034 4250 
Q 1547 4250 1301 3770 
Q 1056 3291 1056 2328 
Q 1056 1369 1301 889 
Q 1547 409 2034 409 
Q 2525 409 2770 889 
Q 3016 1369 3016 2328 
Q 3016 3291 2770 3770 
Q 2525 4250 2034 4250 
z
M 2034 4750 
Q 2819 4750 3233 4129 
Q 3647 3509 3647 2328 
Q 3647 1150 3233 529 
Q 2819 -91 2034 -91 
Q 1250 -91 836 529 
Q 422 1150 422 2328 
Q 422 3509 836 4129 
Q 1250 4750 2034 4750 
z
" transform="scale(0.015625)"/>
       </defs>
       <use xlink:href="#DejaVuSans-31"/>
       <use xlink:href="#DejaVuSans-30" transform="translate(63.623047 0)"/>
       <use xlink:href="#DejaVuSans-30" transform="translate(127.246094 0)"/>
      </g>
     </g>
    </g>
    <g id="xtick_2">
     <g id="line2d_3">
      <path d="M 305.090312 294.590247 
L 305.090312 22.318125 
" clip-path="url(#pdfd99dcaf9)" style="fill: none; stroke-dasharray: 1.85,0.8; stroke-dashoffset: 0; stroke: #b0b0b0; stroke-width: 0.5"/>
     </g>
     <g id="line2d_4">
      <g>
       <use xlink:href="#m54a18e73f5" x="305.090312" y="294.590247" style="stroke: #000000; stroke-width: 0.8"/>
      </g>
     </g>
     <g id="text_2">
      <!-- 1000 -->
      <g transform="translate(285.623884 324.959021) rotate(-45) scale(0.1 -0.1)">
       <use xlink:href="#DejaVuSans-31"/>
       <use xlink:href="#DejaVuSans-30" transform="translate(63.623047 0)"/>
       <use xlink:href="#DejaVuSans-30" transform="translate(127.246094 0)"/>
       <use xlink:href="#DejaVuSans-30" transform="translate(190.869141 0)"/>
      </g>
     </g>
    </g>
    <g id="xtick_3">
     <g id="line2d_5">
      <path d="M 561.197812 294.590247 
L 561.197812 22.318125 
" clip-path="url(#pdfd99dcaf9)" style="fill: none; stroke-dasharray: 1.85,0.8; stroke-dashoffset: 0; stroke: #b0b0b0; stroke-width: 0.5"/>
     </g>
     <g id="line2d_6">
      <g>
       <use xlink:href="#m54a18e73f5" x="561.197812" y="294.590247" style="stroke: #000000; stroke-width: 0.8"/>
      </g>
     </g>
     <g id="text_3">
      <!-- 10000 -->
      <g transform="translate(537.232417 329.457988) rotate(-45) scale(0.1 -0.1)">
       <use xlink:href="#DejaVuSans-31"/>
       <use xlink:href="#DejaVuSans-30" transform="translate(63.623047 0)"/>
       <use xlink:href="#DejaVuSans-30" transform="translate(127.246094 0)"/>
       <use xlink:href="#DejaVuSans-30" transform="translate(190.869141 0)"/>
       <use xlink:href="#DejaVuSans-30" transform="translate(254.492188 0)"/>
      </g>
     </g>
    </g>
    <g id="xtick_4">
     <g id="line2d_7">
      <path d="M 126.078852 294.590247 
L 126.078852 22.318125 
" clip-path="url(#pdfd99dcaf9)" style="fill: none; stroke-dasharray: 1.85,0.8; stroke-dashoffset: 0; stroke: #b0b0b0; stroke-width: 0.5"/>
     </g>
     <g id="line2d_8">
      <defs>
       <path id="me99145f1eb" d="M 0 0 
L 0 2 
" style="stroke: #000000; stroke-width: 0.6"/>
      </defs>
      <g>
       <use xlink:href="#me99145f1eb" x="126.078852" y="294.590247" style="stroke: #000000; stroke-width: 0.6"/>
      </g>
     </g>
    </g>
    <g id="xtick_5">
     <g id="line2d_9">
      <path d="M 171.177144 294.590247 
L 171.177144 22.318125 
" clip-path="url(#pdfd99dcaf9)" style="fill: none; stroke-dasharray: 1.85,0.8; stroke-dashoffset: 0; stroke: #b0b0b0; stroke-width: 0.5"/>
     </g>
     <g id="line2d_10">
      <g>
       <use xlink:href="#me99145f1eb" x="171.177144" y="294.590247" style="stroke: #000000; stroke-width: 0.6"/>
      </g>
     </g>
    </g>
    <g id="xtick_6">
     <g id="line2d_11">
      <path d="M 203.174892 294.590247 
L 203.174892 22.318125 
" clip-path="url(#pdfd99dcaf9)" style="fill: none; stroke-dasharray: 1.85,0.8; stroke-dashoffset: 0; stroke: #b0b0b0; stroke-width: 0.5"/>
     </g>
     <g id="line2d_12">
      <g>
       <use xlink:href="#me99145f1eb" x="203.174892" y="294.590247" style="stroke: #000000; stroke-width: 0.6"/>
      </g>
     </g>
    </g>
    <g id="xtick_7">
     <g id="line2d_13">
      <path d="M 227.994273 294.590247 
L 227.994273 22.318125 
" clip-path="url(#pdfd99dcaf9)" style="fill: none; stroke-dasharray: 1.85,0.8; stroke-dashoffset: 0; stroke: #b0b0b0; stroke-width: 0.5"/>
     </g>
     <g id="line2d_14">
      <g>
       <use xlink:href="#me99145f1eb" x="227.994273" y="294.590247" style="stroke: #000000; stroke-width: 0.6"/>
      </g>
     </g>
    </g>
    <g id="xtick_8">
     <g id="line2d_15">
      <path d="M 248.273184 294.590247 
L 248.273184 22.318125 
" clip-path="url(#pdfd99dcaf9)" style="fill: none; stroke-dasharray: 1.85,0.8; stroke-dashoffset: 0; stroke: #b0b0b0; stroke-width: 0.5"/>
     </g>
     <g id="line2d_16">
      <g>
       <use xlink:href="#me99145f1eb" x="248.273184" y="294.590247" style="stroke: #000000; stroke-width: 0.6"/>
      </g>
     </g>
    </g>
    <g id="xtick_9">
     <g id="line2d_17">
      <path d="M 265.418759 294.590247 
L 265.418759 22.318125 
" clip-path="url(#pdfd99dcaf9)" style="fill: none; stroke-dasharray: 1.85,0.8; stroke-dashoffset: 0; stroke: #b0b0b0; stroke-width: 0.5"/>
     </g>
     <g id="line2d_18">
      <g>
       <use xlink:href="#me99145f1eb" x="265.418759" y="294.590247" style="stroke: #000000; stroke-width: 0.6"/>
      </g>
     </g>
    </g>
    <g id="xtick_10">
     <g id="line2d_19">
      <path d="M 280.270931 294.590247 
L 280.270931 22.318125 
" clip-path="url(#pdfd99dcaf9)" style="fill: none; stroke-dasharray: 1.85,0.8; stroke-dashoffset: 0; stroke: #b0b0b0; stroke-width: 0.5"/>
     </g>
     <g id="line2d_20">
      <g>
       <use xlink:href="#me99145f1eb" x="280.270931" y="294.590247" style="stroke: #000000; stroke-width: 0.6"/>
      </g>
     </g>
    </g>
    <g id="xtick_11">
     <g id="line2d_21">
      <path d="M 293.371476 294.590247 
L 293.371476 22.318125 
" clip-path="url(#pdfd99dcaf9)" style="fill: none; stroke-dasharray: 1.85,0.8; stroke-dashoffset: 0; stroke: #b0b0b0; stroke-width: 0.5"/>
     </g>
     <g id="line2d_22">
      <g>
       <use xlink:href="#me99145f1eb" x="293.371476" y="294.590247" style="stroke: #000000; stroke-width: 0.6"/>
      </g>
     </g>
    </g>
    <g id="xtick_12">
     <g id="line2d_23">
      <path d="M 382.186352 294.590247 
L 382.186352 22.318125 
" clip-path="url(#pdfd99dcaf9)" style="fill: none; stroke-dasharray: 1.85,0.8; stroke-dashoffset: 0; stroke: #b0b0b0; stroke-width: 0.5"/>
     </g>
     <g id="line2d_24">
      <g>
       <use xlink:href="#me99145f1eb" x="382.186352" y="294.590247" style="stroke: #000000; stroke-width: 0.6"/>
      </g>
     </g>
    </g>
    <g id="xtick_13">
     <g id="line2d_25">
      <path d="M 427.284644 294.590247 
L 427.284644 22.318125 
" clip-path="url(#pdfd99dcaf9)" style="fill: none; stroke-dasharray: 1.85,0.8; stroke-dashoffset: 0; stroke: #b0b0b0; stroke-width: 0.5"/>
     </g>
     <g id="line2d_26">
      <g>
       <use xlink:href="#me99145f1eb" x="427.284644" y="294.590247" style="stroke: #000000; stroke-width: 0.6"/>
      </g>
     </g>
    </g>
    <g id="xtick_14">
     <g id="line2d_27">
      <path d="M 459.282392 294.590247 
L 459.282392 22.318125 
" clip-path="url(#pdfd99dcaf9)" style="fill: none; stroke-dasharray: 1.85,0.8; stroke-dashoffset: 0; stroke: #b0b0b0; stroke-width: 0.5"/>
     </g>
     <g id="line2d_28">
      <g>
       <use xlink:href="#me99145f1eb" x="459.282392" y="294.590247" style="stroke: #000000; stroke-width: 0.6"/>
      </g>
     </g>
    </g>
    <g id="xtick_15">
     <g id="line2d_29">
      <path d="M 484.101773 294.590247 
L 484.101773 22.318125 
" clip-path="url(#pdfd99dcaf9)" style="fill: none; stroke-dasharray: 1.85,0.8; stroke-dashoffset: 0; stroke: #b0b0b0; stroke-width: 0.5"/>
     </g>
     <g id="line2d_30">
      <g>
       <use xlink:href="#me99145f1eb" x="484.101773" y="294.590247" style="stroke: #000000; stroke-width: 0.6"/>
      </g>
     </g>
    </g>
    <g id="xtick_16">
     <g id="line2d_31">
      <path d="M 504.380684 294.590247 
L 504.380684 22.318125 
" clip-path="url(#pdfd99dcaf9)" style="fill: none; stroke-dasharray: 1.85,0.8; stroke-dashoffset: 0; stroke: #b0b0b0; stroke-width: 0.5"/>
     </g>
     <g id="line2d_32">
      <g>
       <use xlink:href="#me99145f1eb" x="504.380684" y="294.590247" style="stroke: #000000; stroke-width: 0.6"/>
      </g>
     </g>
    </g>
    <g id="xtick_17">
     <g id="line2d_33">
      <path d="M 521.526259 294.590247 
L 521.526259 22.318125 
" clip-path="url(#pdfd99dcaf9)" style="fill: none; stroke-dasharray: 1.85,0.8; stroke-dashoffset: 0; stroke: #b0b0b0; stroke-width: 0.5"/>
     </g>
     <g id="line2d_34">
      <g>
       <use xlink:href="#me99145f1eb" x="521.526259" y="294.590247" style="stroke: #000000; stroke-width: 0.6"/>
      </g>
     </g>
    </g>
    <g id="xtick_18">
     <g id="line2d_35">
      <path d="M 536.378431 294.590247 
L 536.378431 22.318125 
" clip-path="url(#pdfd99dcaf9)" style="fill: none; stroke-dasharray: 1.85,0.8; stroke-dashoffset: 0; stroke: #b0b0b0; stroke-width: 0.5"/>
     </g>
     <g id="line2d_36">
      <g>
       <use xlink:href="#me99145f1eb" x="536.378431" y="294.590247" style="stroke: #000000; stroke-width: 0.6"/>
      </g>
     </g>
    </g>
    <g id="xtick_19">
     <g id="line2d_37">
      <path d="M 549.478976 294.590247 
L 549.478976 22.318125 
" clip-path="url(#pdfd99dcaf9)" style="fill: none; stroke-dasharray: 1.85,0.8; stroke-dashoffset: 0; stroke: #b0b0b0; stroke-width: 0.5"/>
     </g>
     <g id="line2d_38">
      <g>
       <use xlink:href="#me99145f1eb" x="549.478976" y="294.590247" style="stroke: #000000; stroke-width: 0.6"/>
      </g>
     </g>
    </g>
    <g id="text_4">
     <!-- Frequency (Hz) -->
     <g transform="translate(267.385625 342.526987) scale(0.1 -0.1)">
      <defs>
       <path id="DejaVuSans-46" d="M 628 4666 
L 3309 4666 
L 3309 4134 
L 1259 4134 
L 1259 2759 
L 3109 2759 
L 3109 2228 
L 1259 2228 
L 1259 0 
L 628 0 
L 628 4666 
z
" transform="scale(0.015625)"/>
       <path id="DejaVuSans-72" d="M 2631 2963 
Q 2534 3019 2420 3045 
Q 2306 3072 2169 3072 
Q 1681 3072 1420 2755 
Q 1159 2438 1159 1844 
L 1159 0 
L 581 0 
L 581 3500 
L 1159 3500 
L 1159 2956 
Q 1341 3275 1631 3429 
Q 1922 3584 2338 3584 
Q 2397 3584 2469 3576 
Q 2541 3569 2628 3553 
L 2631 2963 
z
" transform="scale(0.015625)"/>
       <path id="DejaVuSans-65" d="M 3597 1894 
L 3597 1613 
L 953 1613 
Q 991 1019 1311 708 
Q 1631 397 2203 397 
Q 2534 397 2845 478 
Q 3156 559 3463 722 
L 3463 178 
Q 3153 47 2828 -22 
Q 2503 -91 2169 -91 
Q 1331 -91 842 396 
Q 353 884 353 1716 
Q 353 2575 817 3079 
Q 1281 3584 2069 3584 
Q 2775 3584 3186 3129 
Q 3597 2675 3597 1894 
z
M 3022 2063 
Q 3016 2534 2758 2815 
Q 2500 3097 2075 3097 
Q 1594 3097 1305 2825 
Q 1016 2553 972 2059 
L 3022 2063 
z
" transform="scale(0.015625)"/>
       <path id="DejaVuSans-71" d="M 947 1747 
Q 947 1113 1208 752 
Q 1469 391 1925 391 
Q 2381 391 2643 752 
Q 2906 1113 2906 1747 
Q 2906 2381 2643 2742 
Q 2381 3103 1925 3103 
Q 1469 3103 1208 2742 
Q 947 2381 947 1747 
z
M 2906 525 
Q 2725 213 2448 61 
Q 2172 -91 1784 -91 
Q 1150 -91 751 415 
Q 353 922 353 1747 
Q 353 2572 751 3078 
Q 1150 3584 1784 3584 
Q 2172 3584 2448 3432 
Q 2725 3281 2906 2969 
L 2906 3500 
L 3481 3500 
L 3481 -1331 
L 2906 -1331 
L 2906 525 
z
" transform="scale(0.015625)"/>
       <path id="DejaVuSans-75" d="M 544 1381 
L 544 3500 
L 1119 3500 
L 1119 1403 
Q 1119 906 1312 657 
Q 1506 409 1894 409 
Q 2359 409 2629 706 
Q 2900 1003 2900 1516 
L 2900 3500 
L 3475 3500 
L 3475 0 
L 2900 0 
L 2900 538 
Q 2691 219 2414 64 
Q 2138 -91 1772 -91 
Q 1169 -91 856 284 
Q 544 659 544 1381 
z
M 1991 3584 
L 1991 3584 
z
" transform="scale(0.015625)"/>
       <path id="DejaVuSans-6e" d="M 3513 2113 
L 3513 0 
L 2938 0 
L 2938 2094 
Q 2938 2591 2744 2837 
Q 2550 3084 2163 3084 
Q 1697 3084 1428 2787 
Q 1159 2491 1159 1978 
L 1159 0 
L 581 0 
L 581 3500 
L 1159 3500 
L 1159 2956 
Q 1366 3272 1645 3428 
Q 1925 3584 2291 3584 
Q 2894 3584 3203 3211 
Q 3513 2838 3513 2113 
z
" transform="scale(0.015625)"/>
       <path id="DejaVuSans-63" d="M 3122 3366 
L 3122 2828 
Q 2878 2963 2633 3030 
Q 2388 3097 2138 3097 
Q 1578 3097 1268 2742 
Q 959 2388 959 1747 
Q 959 1106 1268 751 
Q 1578 397 2138 397 
Q 2388 397 2633 464 
Q 2878 531 3122 666 
L 3122 134 
Q 2881 22 2623 -34 
Q 2366 -91 2075 -91 
Q 1284 -91 818 406 
Q 353 903 353 1747 
Q 353 2603 823 3093 
Q 1294 3584 2113 3584 
Q 2378 3584 2631 3529 
Q 2884 3475 3122 3366 
z
" transform="scale(0.015625)"/>
       <path id="DejaVuSans-79" d="M 2059 -325 
Q 1816 -950 1584 -1140 
Q 1353 -1331 966 -1331 
L 506 -1331 
L 506 -850 
L 844 -850 
Q 1081 -850 1212 -737 
Q 1344 -625 1503 -206 
L 1606 56 
L 191 3500 
L 800 3500 
L 1894 763 
L 2988 3500 
L 3597 3500 
L 2059 -325 
z
" transform="scale(0.015625)"/>
       <path id="DejaVuSans-20" transform="scale(0.015625)"/>
       <path id="DejaVuSans-28" d="M 1984 4856 
Q 1566 4138 1362 3434 
Q 1159 2731 1159 2009 
Q 1159 1288 1364 580 
Q 1569 -128 1984 -844 
L 1484 -844 
Q 1016 -109 783 600 
Q 550 1309 550 2009 
Q 550 2706 781 3412 
Q 1013 4119 1484 4856 
L 1984 4856 
z
" transform="scale(0.015625)"/>
       <path id="DejaVuSans-48" d="M 628 4666 
L 1259 4666 
L 1259 2753 
L 3553 2753 
L 3553 4666 
L 4184 4666 
L 4184 0 
L 3553 0 
L 3553 2222 
L 1259 2222 
L 1259 0 
L 628 0 
L 628 4666 
z
" transform="scale(0.015625)"/>
       <path id="DejaVuSans-7a" d="M 353 3500 
L 3084 3500 
L 3084 2975 
L 922 459 
L 3084 459 
L 3084 0 
L 275 0 
L 275 525 
L 2438 3041 
L 353 3041 
L 353 3500 
z
" transform="scale(0.015625)"/>
       <path id="DejaVuSans-29" d="M 513 4856 
L 1013 4856 
Q 1481 4119 1714 3412 
Q 1947 2706 1947 2009 
Q 1947 1309 1714 600 
Q 1481 -109 1013 -844 
L 513 -844 
Q 928 -128 1133 580 
Q 1338 1288 1338 2009 
Q 1338 2731 1133 3434 
Q 928 4138 513 4856 
z
" transform="scale(0.015625)"/>
      </defs>
      <use xlink:href="#DejaVuSans-46"/>
      <use xlink:href="#DejaVuSans-72" transform="translate(50.269531 0)"/>
      <use xlink:href="#DejaVuSans-65" transform="translate(89.132812 0)"/>
      <use xlink:href="#DejaVuSans-71" transform="translate(150.65625 0)"/>
      <use xlink:href="#DejaVuSans-75" transform="translate(214.132812 0)"/>
      <use xlink:href="#DejaVuSans-65" transform="translate(277.511719 0)"/>
      <use xlink:href="#DejaVuSans-6e" transform="translate(339.035156 0)"/>
      <use xlink:href="#DejaVuSans-63" transform="translate(402.414062 0)"/>
      <use xlink:href="#DejaVuSans-79" transform="translate(457.394531 0)"/>
      <use xlink:href="#DejaVuSans-20" transform="translate(516.574219 0)"/>
      <use xlink:href="#DejaVuSans-28" transform="translate(548.361328 0)"/>
      <use xlink:href="#DejaVuSans-48" transform="translate(587.375 0)"/>
      <use xlink:href="#DejaVuSans-7a" transform="translate(662.570312 0)"/>
      <use xlink:href="#DejaVuSans-29" transform="translate(715.060547 0)"/>
     </g>
    </g>
   </g>
   <g id="matplotlib.axis_2">
    <g id="ytick_1">
     <g id="line2d_39">
      <path d="M 48.982813 294.590247 
L 561.197812 294.590247 
" clip-path="url(#pdfd99dcaf9)" style="fill: none; stroke-dasharray: 1.85,0.8; stroke-dashoffset: 0; stroke: #b0b0b0; stroke-width: 0.5"/>
     </g>
     <g id="line2d_40">
      <defs>
       <path id="m1caa72c2be" d="M 0 0 
L -3.5 0 
" style="stroke: #000000; stroke-width: 0.8"/>
      </defs>
      <g>
       <use xlink:href="#m1caa72c2be" x="48.982813" y="294.590247" style="stroke: #000000; stroke-width: 0.8"/>
      </g>
     </g>
     <g id="text_5">
      <!-- −20 -->
      <g transform="translate(20.878125 298.389466) scale(0.1 -0.1)">
       <defs>
        <path id="DejaVuSans-2212" d="M 678 2272 
L 4684 2272 
L 4684 1741 
L 678 1741 
L 678 2272 
z
" transform="scale(0.015625)"/>
        <path id="DejaVuSans-32" d="M 1228 531 
L 3431 531 
L 3431 0 
L 469 0 
L 469 531 
Q 828 903 1448 1529 
Q 2069 2156 2228 2338 
Q 2531 2678 2651 2914 
Q 2772 3150 2772 3378 
Q 2772 3750 2511 3984 
Q 2250 4219 1831 4219 
Q 1534 4219 1204 4116 
Q 875 4013 500 3803 
L 500 4441 
Q 881 4594 1212 4672 
Q 1544 4750 1819 4750 
Q 2544 4750 2975 4387 
Q 3406 4025 3406 3419 
Q 3406 3131 3298 2873 
Q 3191 2616 2906 2266 
Q 2828 2175 2409 1742 
Q 1991 1309 1228 531 
z
" transform="scale(0.015625)"/>
       </defs>
       <use xlink:href="#DejaVuSans-2212"/>
       <use xlink:href="#DejaVuSans-32" transform="translate(83.789062 0)"/>
       <use xlink:href="#DejaVuSans-30" transform="translate(147.412109 0)"/>
      </g>
     </g>
    </g>
    <g id="ytick_2">
     <g id="line2d_41">
      <path d="M 48.982813 255.694229 
L 561.197812 255.694229 
" clip-path="url(#pdfd99dcaf9)" style="fill: none; stroke-dasharray: 1.85,0.8; stroke-dashoffset: 0; stroke: #b0b0b0; stroke-width: 0.5"/>
     </g>
     <g id="line2d_42">
      <g>
       <use xlink:href="#m1caa72c2be" x="48.982813" y="255.694229" style="stroke: #000000; stroke-width: 0.8"/>
      </g>
     </g>
     <g id="text_6">
      <!-- −10 -->
      <g transform="translate(20.878125 259.493448) scale(0.1 -0.1)">
       <use xlink:href="#DejaVuSans-2212"/>
       <use xlink:href="#DejaVuSans-31" transform="translate(83.789062 0)"/>
       <use xlink:href="#DejaVuSans-30" transform="translate(147.412109 0)"/>
      </g>
     </g>
    </g>
    <g id="ytick_3">
     <g id="line2d_43">
      <path d="M 48.982813 216.798212 
L 561.197812 216.798212 
" clip-path="url(#pdfd99dcaf9)" style="fill: none; stroke-dasharray: 1.85,0.8; stroke-dashoffset: 0; stroke: #b0b0b0; stroke-width: 0.5"/>
     </g>
     <g id="line2d_44">
      <g>
       <use xlink:href="#m1caa72c2be" x="48.982813" y="216.798212" style="stroke: #000000; stroke-width: 0.8"/>
      </g>
     </g>
     <g id="text_7">
      <!-- 0 -->
      <g transform="translate(35.620313 220.597431) scale(0.1 -0.1)">
       <use xlink:href="#DejaVuSans-30"/>
      </g>
     </g>
    </g>
    <g id="ytick_4">
     <g id="line2d_45">
      <path d="M 48.982813 177.902195 
L 561.197812 177.902195 
" clip-path="url(#pdfd99dcaf9)" style="fill: none; stroke-dasharray: 1.85,0.8; stroke-dashoffset: 0; stroke: #b0b0b0; stroke-width: 0.5"/>
     </g>
     <g id="line2d_46">
      <g>
       <use xlink:href="#m1caa72c2be" x="48.982813" y="177.902195" style="stroke: #000000; stroke-width: 0.8"/>
      </g>
     </g>
     <g id="text_8">
      <!-- 10 -->
      <g transform="translate(29.257813 181.701413) scale(0.1 -0.1)">
       <use xlink:href="#DejaVuSans-31"/>
       <use xlink:href="#DejaVuSans-30" transform="translate(63.623047 0)"/>
      </g>
     </g>
    </g>
    <g id="ytick_5">
     <g id="line2d_47">
      <path d="M 48.982813 139.006177 
L 561.197812 139.006177 
" clip-path="url(#pdfd99dcaf9)" style="fill: none; stroke-dasharray: 1.85,0.8; stroke-dashoffset: 0; stroke: #b0b0b0; stroke-width: 0.5"/>
     </g>
     <g id="line2d_48">
      <g>
       <use xlink:href="#m1caa72c2be" x="48.982813" y="139.006177" style="stroke: #000000; stroke-width: 0.8"/>
      </g>
     </g>
     <g id="text_9">
      <!-- 20 -->
      <g transform="translate(29.257813 142.805396) scale(0.1 -0.1)">
       <use xlink:href="#DejaVuSans-32"/>
       <use xlink:href="#DejaVuSans-30" transform="translate(63.623047 0)"/>
      </g>
     </g>
    </g>
    <g id="ytick_6">
     <g id="line2d_49">
      <path d="M 48.982813 100.11016 
L 561.197812 100.11016 
" clip-path="url(#pdfd99dcaf9)" style="fill: none; stroke-dasharray: 1.85,0.8; stroke-dashoffset: 0; stroke: #b0b0b0; stroke-width: 0.5"/>
     </g>
     <g id="line2d_50">
      <g>
       <use xlink:href="#m1caa72c2be" x="48.982813" y="100.11016" style="stroke: #000000; stroke-width: 0.8"/>
      </g>
     </g>
     <g id="text_10">
      <!-- 30 -->
      <g transform="translate(29.257813 103.909379) scale(0.1 -0.1)">
       <defs>
        <path id="DejaVuSans-33" d="M 2597 2516 
Q 3050 2419 3304 2112 
Q 3559 1806 3559 1356 
Q 3559 666 3084 287 
Q 2609 -91 1734 -91 
Q 1441 -91 1130 -33 
Q 819 25 488 141 
L 488 750 
Q 750 597 1062 519 
Q 1375 441 1716 441 
Q 2309 441 2620 675 
Q 2931 909 2931 1356 
Q 2931 1769 2642 2001 
Q 2353 2234 1838 2234 
L 1294 2234 
L 1294 2753 
L 1863 2753 
Q 2328 2753 2575 2939 
Q 2822 3125 2822 3475 
Q 2822 3834 2567 4026 
Q 2313 4219 1838 4219 
Q 1578 4219 1281 4162 
Q 984 4106 628 3988 
L 628 4550 
Q 988 4650 1302 4700 
Q 1616 4750 1894 4750 
Q 2613 4750 3031 4423 
Q 3450 4097 3450 3541 
Q 3450 3153 3228 2886 
Q 3006 2619 2597 2516 
z
" transform="scale(0.015625)"/>
       </defs>
       <use xlink:href="#DejaVuSans-33"/>
       <use xlink:href="#DejaVuSans-30" transform="translate(63.623047 0)"/>
      </g>
     </g>
    </g>
    <g id="ytick_7">
     <g id="line2d_51">
      <path d="M 48.982813 61.214142 
L 561.197812 61.214142 
" clip-path="url(#pdfd99dcaf9)" style="fill: none; stroke-dasharray: 1.85,0.8; stroke-dashoffset: 0; stroke: #b0b0b0; stroke-width: 0.5"/>
     </g>
     <g id="line2d_52">
      <g>
       <use xlink:href="#m1caa72c2be" x="48.982813" y="61.214142" style="stroke: #000000; stroke-width: 0.8"/>
      </g>
     </g>
     <g id="text_11">
      <!-- 40 -->
      <g transform="translate(29.257813 65.013361) scale(0.1 -0.1)">
       <defs>
        <path id="DejaVuSans-34" d="M 2419 4116 
L 825 1625 
L 2419 1625 
L 2419 4116 
z
M 2253 4666 
L 3047 4666 
L 3047 1625 
L 3713 1625 
L 3713 1100 
L 3047 1100 
L 3047 0 
L 2419 0 
L 2419 1100 
L 313 1100 
L 313 1709 
L 2253 4666 
z
" transform="scale(0.015625)"/>
       </defs>
       <use xlink:href="#DejaVuSans-34"/>
       <use xlink:href="#DejaVuSans-30" transform="translate(63.623047 0)"/>
      </g>
     </g>
    </g>
    <g id="ytick_8">
     <g id="line2d_53">
      <path d="M 48.982813 22.318125 
L 561.197812 22.318125 
" clip-path="url(#pdfd99dcaf9)" style="fill: none; stroke-dasharray: 1.85,0.8; stroke-dashoffset: 0; stroke: #b0b0b0; stroke-width: 0.5"/>
     </g>
     <g id="line2d_54">
      <g>
       <use xlink:href="#m1caa72c2be" x="48.982813" y="22.318125" style="stroke: #000000; stroke-width: 0.8"/>
      </g>
     </g>
     <g id="text_12">
      <!-- 50 -->
      <g transform="translate(29.257813 26.117344) scale(0.1 -0.1)">
       <defs>
        <path id="DejaVuSans-35" d="M 691 4666 
L 3169 4666 
L 3169 4134 
L 1269 4134 
L 1269 2991 
Q 1406 3038 1543 3061 
Q 1681 3084 1819 3084 
Q 2600 3084 3056 2656 
Q 3513 2228 3513 1497 
Q 3513 744 3044 326 
Q 2575 -91 1722 -91 
Q 1428 -91 1123 -41 
Q 819 9 494 109 
L 494 744 
Q 775 591 1075 516 
Q 1375 441 1709 441 
Q 2250 441 2565 725 
Q 2881 1009 2881 1497 
Q 2881 1984 2565 2268 
Q 2250 2553 1709 2553 
Q 1456 2553 1204 2497 
Q 953 2441 691 2322 
L 691 4666 
z
" transform="scale(0.015625)"/>
       </defs>
       <use xlink:href="#DejaVuSans-35"/>
       <use xlink:href="#DejaVuSans-30" transform="translate(63.623047 0)"/>
      </g>
     </g>
    </g>
    <g id="text_13">
     <!-- SPL (dBA) -->
     <g transform="translate(14.798438 182.944811) rotate(-90) scale(0.1 -0.1)">
      <defs>
       <path id="DejaVuSans-53" d="M 3425 4513 
L 3425 3897 
Q 3066 4069 2747 4153 
Q 2428 4238 2131 4238 
Q 1616 4238 1336 4038 
Q 1056 3838 1056 3469 
Q 1056 3159 1242 3001 
Q 1428 2844 1947 2747 
L 2328 2669 
Q 3034 2534 3370 2195 
Q 3706 1856 3706 1288 
Q 3706 609 3251 259 
Q 2797 -91 1919 -91 
Q 1588 -91 1214 -16 
Q 841 59 441 206 
L 441 856 
Q 825 641 1194 531 
Q 1563 422 1919 422 
Q 2459 422 2753 634 
Q 3047 847 3047 1241 
Q 3047 1584 2836 1778 
Q 2625 1972 2144 2069 
L 1759 2144 
Q 1053 2284 737 2584 
Q 422 2884 422 3419 
Q 422 4038 858 4394 
Q 1294 4750 2059 4750 
Q 2388 4750 2728 4690 
Q 3069 4631 3425 4513 
z
" transform="scale(0.015625)"/>
       <path id="DejaVuSans-50" d="M 1259 4147 
L 1259 2394 
L 2053 2394 
Q 2494 2394 2734 2622 
Q 2975 2850 2975 3272 
Q 2975 3691 2734 3919 
Q 2494 4147 2053 4147 
L 1259 4147 
z
M 628 4666 
L 2053 4666 
Q 2838 4666 3239 4311 
Q 3641 3956 3641 3272 
Q 3641 2581 3239 2228 
Q 2838 1875 2053 1875 
L 1259 1875 
L 1259 0 
L 628 0 
L 628 4666 
z
" transform="scale(0.015625)"/>
       <path id="DejaVuSans-4c" d="M 628 4666 
L 1259 4666 
L 1259 531 
L 3531 531 
L 3531 0 
L 628 0 
L 628 4666 
z
" transform="scale(0.015625)"/>
       <path id="DejaVuSans-64" d="M 2906 2969 
L 2906 4863 
L 3481 4863 
L 3481 0 
L 2906 0 
L 2906 525 
Q 2725 213 2448 61 
Q 2172 -91 1784 -91 
Q 1150 -91 751 415 
Q 353 922 353 1747 
Q 353 2572 751 3078 
Q 1150 3584 1784 3584 
Q 2172 3584 2448 3432 
Q 2725 3281 2906 2969 
z
M 947 1747 
Q 947 1113 1208 752 
Q 1469 391 1925 391 
Q 2381 391 2643 752 
Q 2906 1113 2906 1747 
Q 2906 2381 2643 2742 
Q 2381 3103 1925 3103 
Q 1469 3103 1208 2742 
Q 947 2381 947 1747 
z
" transform="scale(0.015625)"/>
       <path id="DejaVuSans-42" d="M 1259 2228 
L 1259 519 
L 2272 519 
Q 2781 519 3026 730 
Q 3272 941 3272 1375 
Q 3272 1813 3026 2020 
Q 2781 2228 2272 2228 
L 1259 2228 
z
M 1259 4147 
L 1259 2741 
L 2194 2741 
Q 2656 2741 2882 2914 
Q 3109 3088 3109 3444 
Q 3109 3797 2882 3972 
Q 2656 4147 2194 4147 
L 1259 4147 
z
M 628 4666 
L 2241 4666 
Q 2963 4666 3353 4366 
Q 3744 4066 3744 3513 
Q 3744 3084 3544 2831 
Q 3344 2578 2956 2516 
Q 3422 2416 3680 2098 
Q 3938 1781 3938 1306 
Q 3938 681 3513 340 
Q 3088 0 2303 0 
L 628 0 
L 628 4666 
z
" transform="scale(0.015625)"/>
       <path id="DejaVuSans-41" d="M 2188 4044 
L 1331 1722 
L 3047 1722 
L 2188 4044 
z
M 1831 4666 
L 2547 4666 
L 4325 0 
L 3669 0 
L 3244 1197 
L 1141 1197 
L 716 0 
L 50 0 
L 1831 4666 
z
" transform="scale(0.015625)"/>
      </defs>
      <use xlink:href="#DejaVuSans-53"/>
      <use xlink:href="#DejaVuSans-50" transform="translate(63.476562 0)"/>
      <use xlink:href="#DejaVuSans-4c" transform="translate(123.779297 0)"/>
      <use xlink:href="#DejaVuSans-20" transform="translate(179.492188 0)"/>
      <use xlink:href="#DejaVuSans-28" transform="translate(211.279297 0)"/>
      <use xlink:href="#DejaVuSans-64" transform="translate(250.292969 0)"/>
      <use xlink:href="#DejaVuSans-42" transform="translate(313.769531 0)"/>
      <use xlink:href="#DejaVuSans-41" transform="translate(382.373047 0)"/>
      <use xlink:href="#DejaVuSans-29" transform="translate(450.78125 0)"/>
     </g>
    </g>
   </g>
   <g id="line2d_55">
    <path d="M 51.493242 136.280086 
L 57.198394 132.221257 
L 62.625131 133.971027 
L 67.79937 134.031618 
L 72.743565 139.66686 
L 77.477304 140.062008 
L 82.017775 139.03261 
L 86.38014 140.34074 
L 90.577849 139.33257 
L 94.622879 133.122801 
L 98.525949 136.601901 
L 102.296685 135.954246 
L 105.943768 133.880127 
L 109.475052 136.031935 
L 112.897663 140.061066 
L 116.218091 136.187319 
L 119.44226 129.998342 
L 122.575596 134.677927 
L 125.623077 137.053718 
L 128.589281 140.753287 
L 131.478432 141.436837 
L 134.294433 135.775113 
L 137.040895 132.756692 
L 139.721171 129.355202 
L 142.338376 122.27938 
L 144.89541 114.29267 
L 147.394977 112.922029 
L 149.839605 110.550112 
L 152.231656 106.850278 
L 154.573344 107.791112 
L 156.866746 107.605588 
L 159.113814 108.317829 
L 161.316383 109.466651 
L 163.47618 107.661783 
L 165.594836 104.724688 
L 167.673888 103.882819 
L 169.714791 101.887841 
L 171.718919 102.913724 
L 173.687573 106.568488 
L 175.621988 112.213747 
L 177.523335 116.302482 
L 179.392725 118.989439 
L 181.231214 116.286393 
L 183.039808 109.854807 
L 184.819463 106.303224 
L 186.571091 104.750701 
L 188.295561 104.159971 
L 189.993702 105.482104 
L 191.666306 108.569847 
L 193.31413 109.076194 
L 194.937897 111.563722 
L 196.5383 112.98696 
L 198.116001 113.724899 
L 199.671636 116.966887 
L 201.205813 121.011079 
L 202.719116 123.257652 
L 204.212106 121.605467 
L 205.685321 117.459821 
L 207.139277 115.211624 
L 208.574472 116.111431 
L 209.991384 115.66212 
L 211.390472 116.753357 
L 212.77218 120.349743 
L 214.136935 117.641722 
L 215.485146 118.203922 
L 216.817211 116.877678 
L 218.133511 115.335201 
L 219.434416 115.04981 
L 220.720281 116.624465 
L 221.99145 118.561972 
L 223.248255 119.781532 
L 224.491017 119.977282 
L 225.720047 122.057776 
L 226.935645 119.45549 
L 228.1381 116.581333 
L 229.327695 111.898741 
L 230.504702 106.708629 
L 231.669383 102.700749 
L 232.821996 102.246885 
L 233.962786 102.513942 
L 235.091994 99.946999 
L 236.209854 100.822807 
L 237.31659 103.535777 
L 239.497563 108.10308 
L 240.572219 113.233474 
L 241.636592 117.1595 
L 242.690875 114.51059 
L 243.735259 109.870295 
L 244.769928 109.537437 
L 245.79506 108.916032 
L 246.810831 108.549792 
L 247.817408 110.370339 
L 248.814958 110.521584 
L 250.783613 108.446132 
L 251.755026 108.411852 
L 253.672764 104.96016 
L 254.619375 104.134097 
L 256.488765 112.309287 
L 258.327254 118.739803 
L 259.235227 120.017121 
L 260.135848 119.707685 
L 261.029235 117.357709 
L 261.915503 115.748965 
L 262.794765 116.768061 
L 263.667131 118.579112 
L 265.391601 125.317921 
L 267.089742 121.252269 
L 267.929188 120.260902 
L 268.762346 120.554722 
L 269.589309 120.357351 
L 270.41017 122.094743 
L 271.225016 123.167629 
L 272.033937 124.665618 
L 272.837017 126.54425 
L 273.634339 130.145998 
L 274.425987 133.112745 
L 275.212041 134.161795 
L 275.992578 133.427047 
L 276.767675 130.583877 
L 277.537409 124.849774 
L 279.061078 118.407723 
L 280.564156 106.317627 
L 282.047192 100.698716 
L 282.78136 100.41018 
L 283.510714 99.728182 
L 284.235317 98.356108 
L 285.670512 100.321454 
L 286.381224 102.242232 
L 287.087423 106.98544 
L 288.486512 126.240146 
L 289.179512 131.644482 
L 289.86822 134.76413 
L 290.55269 135.697174 
L 291.909123 125.660891 
L 292.581186 125.246674 
L 293.249212 128.140068 
L 293.91325 129.235418 
L 294.573348 125.861182 
L 295.229551 123.357355 
L 295.881905 121.611094 
L 297.175246 123.194624 
L 297.81632 122.171784 
L 298.453721 120.919919 
L 299.087489 116.488331 
L 299.717667 114.328539 
L 300.967411 108.83324 
L 301.587057 107.502978 
L 302.203269 108.624303 
L 302.816087 108.667194 
L 303.425546 106.901573 
L 304.634537 113.591006 
L 305.23414 114.70274 
L 306.423735 117.977471 
L 307.600741 123.698116 
L 308.184607 124.036806 
L 308.765423 125.035838 
L 309.343222 127.510287 
L 309.918035 130.68203 
L 310.489893 131.117588 
L 311.058825 131.040549 
L 311.624863 132.171604 
L 312.188034 132.60893 
L 312.748368 136.025586 
L 313.860638 131.049284 
L 314.412629 127.714553 
L 315.508462 119.624389 
L 316.052356 118.777442 
L 316.593603 120.0776 
L 317.668259 124.742018 
L 318.201719 124.293606 
L 318.732632 124.836558 
L 319.261022 127.576394 
L 319.786915 125.03407 
L 320.310333 123.352215 
L 321.349836 129.02957 
L 321.865968 128.48742 
L 322.379715 129.008717 
L 322.8911 131.586327 
L 323.400145 133.095173 
L 323.90687 131.427817 
L 324.411298 131.435521 
L 324.913448 133.328964 
L 325.413341 135.830893 
L 325.910998 141.162251 
L 326.406438 145.018487 
L 327.390746 149.982098 
L 328.366419 150.978032 
L 328.851065 153.558963 
L 329.333609 152.392134 
L 329.814068 152.568436 
L 330.29246 151.675669 
L 331.243116 140.940885 
L 331.715414 138.29396 
L 332.185716 134.147006 
L 332.654037 131.827502 
L 333.120394 131.722765 
L 333.584804 131.458621 
L 334.047283 126.873428 
L 334.507847 102.253111 
L 334.966512 106.296491 
L 335.423294 127.056477 
L 335.878206 125.786892 
L 336.331266 125.625511 
L 336.782489 124.212989 
L 337.231887 125.138142 
L 337.679478 126.678186 
L 338.125274 126.988149 
L 338.569291 128.980481 
L 339.011543 129.679927 
L 339.452042 133.811625 
L 339.890805 135.681471 
L 340.327843 135.964135 
L 340.76317 133.276233 
L 341.196801 132.220196 
L 342.059023 139.765694 
L 342.48764 139.16491 
L 342.914612 140.504542 
L 343.339952 137.113987 
L 344.185781 134.459398 
L 344.606296 131.219961 
L 345.025227 133.699148 
L 345.858385 142.362193 
L 346.272636 143.688375 
L 347.914379 128.662994 
L 348.321056 129.270988 
L 348.726251 132.802462 
L 349.532241 135.980353 
L 349.933056 136.790129 
L 350.730379 131.731745 
L 351.126907 132.004137 
L 351.522027 134.418908 
L 351.915748 135.861689 
L 352.30808 138.480078 
L 352.699034 142.250274 
L 353.088617 144.109662 
L 353.476841 142.593856 
L 353.863715 143.685006 
L 354.249248 139.686763 
L 354.633449 137.612493 
L 355.016327 138.372398 
L 355.397892 140.105535 
L 355.778153 142.887933 
L 356.157118 144.71947 
L 356.911195 140.186447 
L 357.286326 140.376742 
L 357.660195 140.951024 
L 358.404185 149.769751 
L 358.774322 150.560851 
L 359.143232 155.265425 
L 359.510922 156.767058 
L 359.8774 156.239709 
L 360.242675 154.247711 
L 360.606754 153.65695 
L 360.969645 153.731602 
L 361.331356 155.976584 
L 361.691895 155.720465 
L 362.051269 152.198902 
L 362.409485 155.541588 
L 362.766551 153.161944 
L 363.122475 148.922895 
L 363.477263 148.740983 
L 363.830924 150.003857 
L 364.534889 143.749285 
L 365.234426 140.887296 
L 366.275551 150.46999 
L 366.620439 155.550064 
L 366.96426 158.131712 
L 367.307021 159.807554 
L 367.64873 160.457194 
L 368.667602 163.362135 
L 369.005162 162.374922 
L 369.341702 162.030822 
L 369.677225 164.449217 
L 370.01174 161.60166 
L 370.345252 161.119774 
L 371.669387 155.260543 
L 371.997973 156.180878 
L 372.32559 154.422464 
L 372.652246 153.802639 
L 372.977945 154.255852 
L 373.302692 153.920626 
L 373.626495 153.394564 
L 373.949357 155.697154 
L 374.271286 155.349774 
L 374.592285 152.354049 
L 374.91236 151.532458 
L 375.231517 152.506218 
L 375.54976 151.919026 
L 375.867096 148.922882 
L 376.183529 147.116266 
L 376.499064 147.861365 
L 376.813707 146.668423 
L 377.127461 149.336259 
L 377.440334 149.913463 
L 377.752329 151.451453 
L 378.063451 155.545875 
L 378.373705 155.62275 
L 378.683096 156.069072 
L 378.991629 159.898185 
L 379.299309 161.167286 
L 379.60614 161.062318 
L 379.912126 160.720848 
L 380.825068 153.433873 
L 381.127724 151.563728 
L 381.429559 151.759407 
L 381.730577 151.64594 
L 382.030782 153.883119 
L 382.33018 157.451983 
L 382.628773 159.219298 
L 382.926567 159.279693 
L 383.223566 162.894095 
L 383.519775 164.923783 
L 384.109835 155.715745 
L 384.403695 153.65185 
L 384.696781 150.619588 
L 384.989097 150.741691 
L 385.280646 151.523061 
L 385.571434 153.708011 
L 385.861463 156.949965 
L 386.150737 156.939442 
L 386.72704 158.804311 
L 387.585932 163.999542 
L 387.870762 167.631689 
L 388.438244 169.794153 
L 388.720902 172.339207 
L 389.002844 173.288612 
L 389.564593 179.38446 
L 389.844407 177.954674 
L 390.123519 177.77367 
L 390.401933 177.010365 
L 390.679651 175.857529 
L 390.956677 172.579957 
L 391.233016 174.338035 
L 391.508669 174.450391 
L 391.783641 175.504921 
L 392.057935 177.398686 
L 392.331554 176.91719 
L 392.604501 178.102125 
L 392.876781 180.257957 
L 393.419348 177.872384 
L 393.689642 177.332963 
L 393.959281 176.471034 
L 394.228268 176.522048 
L 394.496606 178.491194 
L 394.764299 174.678681 
L 395.031348 172.860115 
L 395.563531 165.884061 
L 395.828671 165.150059 
L 396.09318 166.379501 
L 396.357062 166.822817 
L 396.882955 162.83779 
L 397.144971 161.897599 
L 397.406372 162.20478 
L 397.667161 162.166992 
L 397.927339 162.698883 
L 398.18691 164.349683 
L 398.445876 163.996217 
L 398.704241 165.434957 
L 398.962007 170.416044 
L 399.475754 174.894752 
L 399.98714 182.023346 
L 400.496184 175.459332 
L 400.749836 175.340798 
L 401.507337 168.670929 
L 401.758696 168.376737 
L 402.009488 163.997702 
L 402.259715 163.657385 
L 402.758488 166.975339 
L 403.007038 166.397425 
L 403.255033 163.889096 
L 404.241524 179.397763 
L 404.486785 178.643717 
L 404.975692 169.765264 
L 405.219342 167.968791 
L 405.462459 167.570665 
L 405.705046 167.972696 
L 406.188638 171.988667 
L 406.429648 172.514536 
L 406.670137 171.533777 
L 406.910107 168.71017 
L 407.149561 168.26224 
L 407.626927 168.461894 
L 407.864843 171.155357 
L 408.102252 171.693371 
L 408.339156 172.871232 
L 408.575556 172.951626 
L 409.046853 164.073399 
L 409.281755 165.30919 
L 409.516162 164.273503 
L 409.750076 161.860214 
L 409.983499 161.80331 
L 410.216434 162.504947 
L 410.448881 164.731706 
L 410.680844 163.775683 
L 410.912324 165.330232 
L 411.143323 163.830973 
L 411.373843 163.626338 
L 411.603887 163.994661 
L 411.833456 166.452821 
L 412.291177 168.900249 
L 412.519333 172.055964 
L 412.747022 172.699649 
L 412.974246 172.846043 
L 413.201007 170.548452 
L 413.427306 170.806451 
L 414.103455 176.116888 
L 414.327927 176.615952 
L 414.551947 174.172689 
L 414.998639 178.279715 
L 415.221314 179.174479 
L 415.443544 180.672793 
L 415.665331 180.782931 
L 415.886676 180.747015 
L 416.107582 181.052644 
L 416.32805 181.550815 
L 416.548082 180.058257 
L 416.76768 176.009326 
L 416.986844 175.987995 
L 417.205578 175.767609 
L 417.423882 174.613973 
L 417.641759 171.458832 
L 417.85921 172.607331 
L 418.076237 176.15945 
L 418.292841 177.680715 
L 418.509023 176.875767 
L 418.724787 176.683355 
L 419.155063 168.506886 
L 419.58368 166.918976 
L 419.797371 163.937146 
L 420.010652 165.374981 
L 420.223525 168.642807 
L 420.435991 169.352243 
L 420.648052 172.245044 
L 421.070966 173.08821 
L 421.281821 171.778823 
L 421.492277 173.164166 
L 421.702336 175.630432 
L 421.911999 176.397913 
L 422.121267 172.106292 
L 422.330142 172.546965 
L 422.74672 179.105357 
L 422.954425 177.19828 
L 423.161743 177.8293 
L 423.368675 183.552756 
L 423.575223 183.772574 
L 423.781388 183.151189 
L 423.987172 184.064968 
L 424.192576 186.586822 
L 424.397601 187.366057 
L 424.602249 186.731504 
L 424.806521 186.703277 
L 425.010418 186.232087 
L 425.417095 181.566027 
L 425.619878 180.872393 
L 425.822291 178.059055 
L 426.024337 178.830882 
L 426.42733 175.423774 
L 426.628281 177.168473 
L 426.828869 175.447158 
L 427.428472 180.250441 
L 428.420682 169.219769 
L 428.618067 172.157355 
L 429.011788 173.83127 
L 429.40412 172.667148 
L 429.795073 176.112282 
L 429.990036 175.836021 
L 430.378938 173.148768 
L 430.572881 172.046963 
L 430.766486 171.903163 
L 430.959755 172.09125 
L 431.152688 173.291972 
L 431.345287 178.472212 
L 431.537554 178.046546 
L 431.729488 176.670258 
L 431.921092 176.959314 
L 432.112367 180.197621 
L 432.303313 180.074716 
L 432.874192 182.780946 
L 433.063836 182.406916 
L 433.253157 183.04327 
L 433.442156 183.051122 
L 433.630835 182.043013 
L 433.819194 179.92768 
L 434.382366 180.91386 
L 434.756235 183.917018 
L 435.128852 190.20625 
L 435.314693 190.251391 
L 435.500225 188.257448 
L 435.685447 187.991613 
L 435.870362 190.96115 
L 436.05497 190.974696 
L 436.423268 190.118279 
L 436.606961 187.388978 
L 436.973439 189.006052 
L 437.156227 186.843448 
L 437.520903 184.833631 
L 437.702793 185.091915 
L 437.884387 183.392723 
L 438.065685 184.760376 
L 438.246687 183.169544 
L 438.427396 182.886559 
L 438.607811 182.215618 
L 438.787934 182.974695 
L 439.147308 186.66604 
L 439.326561 186.656862 
L 439.684201 180.588196 
L 440.040695 175.509645 
L 440.218515 176.019662 
L 440.39605 175.801109 
L 440.750274 179.666431 
L 440.926963 181.99566 
L 441.103373 181.818565 
L 441.279503 181.809426 
L 441.455354 183.417106 
L 441.806225 188.183927 
L 441.981247 188.370817 
L 442.330466 182.931689 
L 442.504665 183.201293 
L 442.852246 186.338041 
L 443.371591 194.422505 
L 443.544168 195.491716 
L 443.716478 195.733598 
L 444.231812 189.104797 
L 444.574047 187.541836 
L 445.085432 192.114462 
L 445.255372 190.45393 
L 445.425054 190.108033 
L 445.594476 188.364358 
L 445.93255 183.427877 
L 446.269599 186.729994 
L 446.60563 191.71368 
L 446.773265 190.041693 
L 446.940648 189.70918 
L 447.10778 187.173678 
L 447.274661 186.993914 
L 447.441291 183.863848 
L 447.607673 183.203527 
L 447.939691 187.033604 
L 448.10533 186.439813 
L 448.435868 188.935681 
L 448.929841 185.304053 
L 449.094012 183.283768 
L 449.257942 184.69916 
L 449.42163 183.575193 
L 449.585078 183.717967 
L 449.748285 184.844495 
L 450.073984 189.762275 
L 450.236477 190.046406 
L 450.560751 188.200493 
L 450.884083 188.752592 
L 451.206478 190.606322 
L 451.367325 190.523144 
L 451.52794 191.654354 
L 451.688324 191.810185 
L 451.848477 194.124348 
L 452.168092 195.37556 
L 452.327556 198.514954 
L 452.486792 198.790733 
L 452.6458 196.794469 
L 452.804581 196.950009 
L 453.121464 192.595944 
L 453.279568 191.144796 
L 453.595104 193.308365 
L 453.752536 193.961516 
L 453.909746 193.605839 
L 454.066734 189.034924 
L 454.223501 189.501526 
L 454.380047 192.744155 
L 454.69248 194.55622 
L 454.848368 197.868901 
L 455.004038 197.491801 
L 455.15949 197.408653 
L 455.314726 198.53218 
L 455.469745 196.859536 
L 455.624548 190.968919 
L 455.779136 189.442254 
L 455.933509 192.684071 
L 456.087669 193.208535 
L 456.395348 197.830536 
L 456.54887 196.783359 
L 456.702179 196.580634 
L 456.855278 198.0366 
L 457.008166 197.000269 
L 457.160844 197.223882 
L 457.465573 200.435085 
L 457.617625 196.914581 
L 457.76947 196.051457 
L 458.374783 201.751705 
L 458.525598 200.274917 
L 458.97682 204.921795 
L 459.575616 202.358658 
L 459.87381 197.223025 
L 460.022607 197.538578 
L 460.319606 196.226081 
L 460.467809 196.775694 
L 460.615814 197.989935 
L 460.763623 198.187247 
L 461.058652 203.228532 
L 461.352902 205.392771 
L 461.646374 199.021412 
L 461.939075 193.062988 
L 462.085136 196.735651 
L 462.231007 196.550361 
L 462.376686 196.672999 
L 462.667473 200.246577 
L 463.102234 195.587844 
L 463.246777 198.020644 
L 463.391133 196.75722 
L 463.535301 196.515738 
L 463.823079 199.614926 
L 463.966689 200.135908 
L 464.253355 191.328291 
L 464.396411 191.872284 
L 464.966802 201.541055 
L 465.108944 201.007995 
L 465.250905 201.468031 
L 465.675702 196.215056 
L 465.816942 195.163163 
L 465.958002 196.370614 
L 466.098884 199.89756 
L 466.239587 199.082757 
L 466.520461 192.233483 
L 467.219559 203.212754 
L 467.358853 203.215201 
L 467.497972 202.335562 
L 467.636918 202.602707 
L 467.775691 204.026821 
L 467.91429 207.07374 
L 468.052717 207.588006 
L 468.190972 207.660445 
L 468.329055 206.078803 
L 468.74228 197.847927 
L 468.879681 197.847524 
L 469.016912 198.611331 
L 469.153974 200.046264 
L 469.290868 199.224992 
L 469.564151 200.421734 
L 469.700541 200.252201 
L 469.97282 203.394951 
L 470.10871 201.02931 
L 470.379994 203.058899 
L 470.515388 200.088305 
L 470.650617 199.943108 
L 470.920583 207.388725 
L 471.055321 208.763806 
L 471.189896 208.042069 
L 471.324308 205.057931 
L 471.458558 205.597155 
L 471.592646 208.101994 
L 471.860338 206.447917 
L 471.993943 205.893479 
L 472.127388 203.396093 
L 472.526764 208.597655 
L 472.659571 208.402173 
L 472.79222 207.754364 
L 473.584808 197.908138 
L 473.716359 198.973008 
L 473.847754 198.447621 
L 473.978994 199.076643 
L 474.371788 204.12498 
L 474.502412 202.915606 
L 474.632883 203.035762 
L 475.023378 207.79735 
L 475.153239 207.929869 
L 475.282949 207.731281 
L 475.800281 203.620447 
L 476.058047 200.738424 
L 476.315217 206.605648 
L 476.44358 206.076735 
L 476.571794 204.853401 
L 476.955553 206.871095 
L 477.083179 206.488304 
L 477.210659 205.467532 
L 477.337993 202.560136 
L 477.465181 202.950361 
L 477.592224 206.66791 
L 477.719122 207.118458 
L 477.845875 207.060884 
L 478.09895 204.509406 
L 478.351449 208.474255 
L 478.477484 206.423836 
L 478.603377 206.703062 
L 478.729127 202.851079 
L 478.980202 190.062906 
L 479.230711 204.554104 
L 479.480658 202.68683 
L 479.730044 204.162647 
L 479.854527 203.781264 
L 480.103077 205.153406 
L 480.227144 205.332412 
L 480.351073 209.234529 
L 480.474864 208.229042 
L 481.09176 214.781637 
L 481.21473 212.723309 
L 481.337563 214.685397 
L 481.460262 214.288343 
L 481.705253 212.464564 
L 481.827547 212.81628 
L 482.071732 215.643308 
L 482.193623 215.198007 
L 482.801086 207.799524 
L 483.043145 209.025831 
L 483.163977 207.346898 
L 483.645997 213.336269 
L 483.886227 211.681671 
L 484.006147 211.322884 
L 484.125938 211.925206 
L 484.365134 216.965439 
L 484.484539 217.850683 
L 484.722966 215.880101 
L 485.198292 211.30398 
L 485.316807 215.721105 
L 485.553458 214.851146 
L 485.789607 216.3276 
L 485.907494 215.813629 
L 486.142893 211.77101 
L 486.377795 219.845898 
L 486.846116 219.435459 
L 487.079539 222.426199 
L 487.196067 220.843498 
L 487.312473 220.810867 
L 487.428758 221.143667 
L 487.544921 223.501788 
L 487.776883 220.815075 
L 487.892684 220.547022 
L 488.008363 219.657666 
L 488.354682 210.985837 
L 488.584964 220.544691 
L 488.81477 215.724893 
L 488.929496 216.187295 
L 489.044102 220.206234 
L 489.272963 217.007525 
L 489.501353 220.92298 
L 489.729276 221.819778 
L 489.956732 220.137687 
L 490.183724 222.714006 
L 490.297046 222.472896 
L 490.523346 216.565876 
L 490.636323 217.684012 
L 490.749186 216.680909 
L 490.974568 212.762746 
L 491.087088 215.414329 
L 491.199494 214.717127 
L 491.423967 216.123738 
L 491.536033 215.711831 
L 491.871557 220.167922 
L 491.983174 219.701625 
L 492.094679 220.641476 
L 492.206072 218.363258 
L 492.317354 219.570561 
L 492.428524 219.122197 
L 492.650532 214.197879 
L 492.76137 217.035401 
L 493.093224 216.144842 
L 493.203622 216.223962 
L 493.42409 214.814222 
L 493.53416 214.922631 
L 493.644122 217.769869 
L 493.753975 217.706893 
L 493.863719 216.697431 
L 493.973355 216.856651 
L 494.192305 223.279122 
L 494.301618 223.288479 
L 494.410823 223.116291 
L 494.628914 221.188676 
L 495.063816 215.691234 
L 495.172276 216.454092 
L 495.38888 215.412734 
L 495.605063 220.445683 
L 495.712997 220.77209 
L 495.820827 220.487313 
L 495.928552 220.762071 
L 496.036172 221.616397 
L 496.251102 219.642253 
L 496.57272 221.788783 
L 496.786616 220.40847 
L 496.89341 221.810759 
L 497.106692 218.824886 
L 497.319564 219.438897 
L 497.425848 218.609854 
L 497.532031 219.929405 
L 497.638112 217.886007 
L 497.744092 219.29187 
L 497.849971 217.031892 
L 498.061428 218.576195 
L 498.167005 218.159109 
L 498.272483 216.553475 
L 498.37786 217.548386 
L 498.588317 220.597906 
L 498.693396 222.17347 
L 498.798375 225.874384 
L 498.903256 224.232864 
L 499.008038 224.627198 
L 499.321793 228.389032 
L 499.426182 228.215855 
L 499.530473 229.913274 
L 499.634666 227.729494 
L 499.738761 228.514056 
L 499.94666 231.104038 
L 500.050465 230.14683 
L 500.257783 231.144424 
L 500.361297 231.683979 
L 500.568037 228.864157 
L 500.671263 229.291027 
L 500.774393 227.808777 
L 500.877428 228.625744 
L 500.980367 228.406965 
L 501.083212 225.984626 
L 501.185961 230.329416 
L 501.391175 227.990857 
L 501.596012 225.882073 
L 501.698288 226.496838 
L 501.800471 224.506123 
L 501.90256 224.728299 
L 502.004556 227.082658 
L 502.208267 224.770517 
L 502.411605 229.941597 
L 502.513135 229.508 
L 502.614572 227.308671 
L 502.715917 228.302915 
L 502.81717 230.459077 
L 502.918331 227.149174 
L 503.019399 227.599493 
L 503.120376 231.947881 
L 503.322056 230.542464 
L 503.422758 230.035105 
L 503.52337 228.70655 
L 503.72432 229.978089 
L 503.82466 228.234101 
L 504.125135 231.110043 
L 504.225114 231.649011 
L 504.325003 231.011447 
L 504.424802 233.734857 
L 504.524511 229.850802 
L 504.624132 230.826023 
L 505.021723 227.929362 
L 505.219987 229.119583 
L 505.318987 225.518154 
L 505.417898 226.296396 
L 505.615458 230.639974 
L 505.812667 228.534249 
L 506.107827 232.022051 
L 506.304166 228.97786 
L 506.598027 230.909809 
L 506.695808 233.434183 
L 506.793503 231.107065 
L 506.891113 231.445898 
L 506.988637 232.739274 
L 507.086075 232.105154 
L 507.183429 233.168117 
L 507.280697 232.295097 
L 507.37788 232.764269 
L 507.474978 234.953609 
L 507.765765 232.432093 
L 507.862526 232.079297 
L 507.959202 233.099109 
L 508.055794 232.06341 
L 508.152303 229.014398 
L 508.345069 232.549617 
L 508.441327 233.335179 
L 508.633593 228.212378 
L 508.825528 234.268796 
L 509.017132 231.874993 
L 509.11281 231.217878 
L 509.399353 234.482792 
L 509.494703 231.668256 
L 509.589971 231.815406 
L 509.685158 231.601243 
L 509.875289 229.797838 
L 510.065094 230.353143 
L 510.159876 232.20486 
L 510.349197 230.382295 
L 510.443737 230.553398 
L 510.538196 229.809829 
L 510.821094 236.928308 
L 511.103275 233.402585 
L 511.197176 236.091755 
L 511.384741 234.517662 
L 511.478405 232.748851 
L 511.665497 236.223016 
L 511.758925 235.274333 
L 511.852275 237.179854 
L 512.038739 235.759609 
L 512.131854 237.58553 
L 512.224892 234.496877 
L 512.410733 236.432544 
L 512.503538 237.099585 
L 512.596265 234.451192 
L 512.688914 235.087145 
L 512.781487 238.706099 
L 513.058744 230.116503 
L 513.151009 230.375463 
L 513.335311 234.465072 
L 513.427347 234.308779 
L 513.519308 232.724545 
L 513.703001 234.469766 
L 513.886391 231.68873 
L 513.977973 235.099209 
L 514.16091 232.431244 
L 514.252266 234.606211 
L 514.343548 232.177717 
L 514.434754 232.428227 
L 514.616942 235.953651 
L 514.798833 234.037691 
L 514.889667 236.143947 
L 515.161724 230.745013 
L 515.252262 230.085648 
L 515.342727 232.185969 
L 515.433118 229.722386 
L 515.523435 230.061377 
L 515.61368 229.634452 
L 515.703851 231.692068 
L 515.973926 229.100887 
L 516.063806 230.987541 
L 516.243348 229.44053 
L 516.33301 232.433406 
L 516.512118 230.189327 
L 516.780241 237.856805 
L 516.869471 236.226814 
L 517.047718 236.560021 
L 517.314554 230.544116 
L 517.580752 232.202244 
L 517.669343 234.903862 
L 517.846313 232.273361 
L 517.934693 232.916954 
L 518.023003 233.06477 
L 518.111243 236.685344 
L 518.199412 234.081648 
L 518.375542 236.263633 
L 518.639215 234.49724 
L 518.726968 234.417881 
L 518.814651 233.107329 
L 519.077286 237.336477 
L 519.339303 240.538761 
L 519.600704 241.656144 
L 519.774631 233.719545 
L 519.861492 234.392056 
L 519.948286 234.611964 
L 520.035012 233.171874 
L 520.381241 237.106549 
L 520.46763 236.446295 
L 520.640208 234.671411 
L 520.812518 235.948127 
L 520.898573 235.319029 
L 520.984561 235.347335 
L 521.070483 236.113079 
L 521.156339 234.874498 
L 521.242128 236.115443 
L 521.413509 232.045016 
L 521.499101 233.347523 
L 521.584626 231.505464 
L 521.755481 233.550478 
L 521.840809 235.780394 
L 521.926073 234.975391 
L 522.096404 239.405662 
L 522.181471 240.187089 
L 522.521093 236.548335 
L 522.605837 236.298777 
L 522.775131 236.559729 
L 522.859681 235.066379 
L 522.944167 235.568847 
L 523.02859 238.683017 
L 523.112948 238.510056 
L 523.197242 239.414317 
L 523.365638 242.66976 
L 523.533781 235.723624 
L 523.617757 235.815846 
L 523.701669 235.742041 
L 523.785518 233.738929 
L 523.869305 234.019131 
L 523.953028 235.40949 
L 524.036688 235.328495 
L 524.120285 233.40473 
L 524.620553 243.059752 
L 524.78681 240.546648 
L 524.869846 236.186974 
L 525.035731 240.135312 
L 525.118581 239.321111 
L 525.284096 242.300106 
L 525.366761 241.814188 
L 525.531908 239.285539 
L 525.614389 242.156685 
L 525.696809 241.262633 
L 525.861467 242.896432 
L 526.272047 234.99714 
L 526.435856 236.098785 
L 526.51767 235.495127 
L 526.599423 235.665676 
L 526.681117 236.56268 
L 526.762751 236.426213 
L 526.844325 234.64046 
L 526.925839 235.174256 
L 527.088688 240.542965 
L 527.170024 240.391538 
L 527.2513 241.628687 
L 527.332516 241.107637 
L 527.494772 244.261906 
L 527.575811 244.30393 
L 527.656791 242.137614 
L 527.737712 242.166469 
L 527.818574 244.043777 
L 527.980123 241.644494 
L 528.060809 242.007517 
L 528.222006 240.052056 
L 528.38297 237.584684 
L 528.543701 238.854999 
L 528.704201 243.723342 
L 528.784364 242.33619 
L 528.944517 243.438441 
L 529.104439 240.205656 
L 529.264132 245.799361 
L 529.343892 245.296151 
L 529.503242 240.968009 
L 529.582831 243.239247 
L 529.741839 240.081585 
L 529.90062 243.247159 
L 530.059175 244.995665 
L 530.217504 247.386126 
L 530.454576 243.441552 
L 530.533487 243.497049 
L 530.612343 239.531457 
L 530.691143 241.004556 
L 530.927208 236.064636 
L 531.005786 237.103484 
L 531.084307 236.960752 
L 531.162774 236.796929 
L 531.241185 236.128418 
L 531.397841 239.397765 
L 531.476087 239.860878 
L 531.710494 242.808026 
L 531.866491 245.28468 
L 531.944408 248.283518 
L 532.100078 244.551948 
L 532.410765 248.168847 
L 532.565784 244.503956 
L 532.643213 248.279848 
L 532.720587 248.114956 
L 532.797908 244.302886 
L 532.875176 246.117257 
L 532.952389 245.315339 
L 533.029549 246.915788 
L 533.106655 244.810777 
L 533.183709 244.901594 
L 533.414548 242.195769 
L 533.491388 243.15633 
L 533.72159 247.55975 
L 533.798219 247.023922 
L 533.951317 248.08358 
L 534.104205 245.489754 
L 534.180571 242.152834 
L 534.333144 245.232624 
L 534.485509 243.44589 
L 534.561613 245.098094 
L 534.637665 249.317954 
L 534.713665 249.302414 
L 534.941354 245.315854 
L 535.017147 245.913391 
L 535.168578 242.99349 
L 535.244216 244.03445 
L 535.621638 241.231897 
L 535.847478 252.086165 
L 535.922656 254.350999 
L 536.147886 245.701134 
L 536.222861 247.721729 
L 536.372661 247.318843 
L 536.447485 247.376932 
L 536.596982 251.707164 
L 536.746279 250.353019 
L 536.820852 250.593247 
L 537.044273 248.887221 
L 537.192971 245.244981 
L 537.34147 249.192361 
L 537.415646 248.942621 
L 537.489772 245.366252 
L 537.563848 245.374517 
L 537.785783 250.329534 
L 537.933493 244.368423 
L 538.081008 247.518537 
L 538.154692 245.77139 
L 538.375452 252.602156 
L 538.448941 252.677979 
L 538.669118 248.925033 
L 538.742414 249.928581 
L 538.962011 247.013236 
L 539.035114 245.191618 
L 539.254135 249.948248 
L 539.327046 245.352896 
L 539.39991 246.803447 
L 539.618214 253.341808 
L 539.690887 253.822735 
L 539.763513 255.507829 
L 539.836091 253.888461 
L 539.908622 254.854293 
L 540.053542 247.168201 
L 540.125931 249.171132 
L 540.342817 256.120521 
L 540.415018 254.494892 
L 540.487172 256.671801 
L 540.55928 255.589417 
L 540.703355 258.551658 
L 540.847244 252.640347 
L 540.990947 254.848959 
L 541.062729 256.547946 
L 541.206154 253.463423 
L 541.349394 258.850825 
L 541.420945 257.06251 
L 541.563909 252.327953 
L 541.635323 253.692233 
L 541.778012 249.870306 
L 541.849288 250.079097 
L 541.991703 251.15231 
L 542.062842 254.948118 
L 542.133935 254.926553 
L 542.346944 251.684668 
L 542.417857 253.801197 
L 542.488724 252.726415 
L 542.559546 252.637718 
L 542.630323 252.771291 
L 542.842384 254.822635 
L 542.912981 254.914766 
L 543.054042 255.584645 
L 543.124505 252.807217 
L 543.335627 260.786124 
L 543.546349 255.291524 
L 543.686609 259.169572 
L 543.896668 252.303758 
L 543.966599 249.25742 
L 544.10633 255.70616 
L 544.245886 252.364705 
L 544.315599 252.472628 
L 544.385267 252.364492 
L 544.663507 250.059408 
L 544.732958 251.000636 
L 544.802366 250.665145 
L 544.87173 251.288055 
L 545.01033 258.475499 
L 545.079565 256.949717 
L 545.148757 256.417466 
L 545.217906 256.501632 
L 545.287012 258.617226 
L 545.425095 249.342572 
L 545.563007 254.680908 
L 545.700748 254.191917 
L 545.769555 255.101411 
L 545.838319 255.050231 
L 545.907041 258.63279 
L 545.97572 258.3051 
L 546.044357 257.299868 
L 546.112952 257.951944 
L 546.250014 251.813567 
L 546.318482 252.628599 
L 546.386908 252.415115 
L 546.591933 249.20852 
L 546.796581 254.48846 
L 546.864713 253.275568 
L 546.932804 255.715793 
L 547.000853 253.386342 
L 547.20475 259.361187 
L 547.340474 257.173108 
L 547.543751 263.500418 
L 547.611427 261.225448 
L 547.679062 260.506505 
L 547.881722 253.202093 
L 548.151361 262.147393 
L 548.218668 258.006911 
L 548.285935 260.718608 
L 548.353162 258.991477 
L 548.420348 257.870226 
L 548.621662 264.473184 
L 548.822612 255.319647 
L 549.0232 264.539366 
L 549.223427 261.622239 
L 549.29009 256.499755 
L 549.356712 258.770167 
L 549.489837 257.681173 
L 549.622803 260.094442 
L 549.689227 260.289228 
L 549.755611 259.015268 
L 549.821955 259.65587 
L 549.88826 259.805794 
L 550.02075 257.991313 
L 550.086937 258.585573 
L 550.219191 259.854792 
L 550.28526 256.79247 
L 550.48323 260.368542 
L 550.549141 260.135177 
L 550.680848 254.846187 
L 550.746643 260.590268 
L 550.812398 259.693849 
L 550.878115 256.369103 
L 550.943794 259.758159 
L 551.009433 258.545021 
L 551.140596 260.655161 
L 551.206119 259.85553 
L 551.271604 261.602367 
L 551.337051 261.555247 
L 551.402459 260.006946 
L 551.467828 260.133312 
L 551.533159 260.308289 
L 551.598452 260.100695 
L 551.663706 262.13335 
L 551.728922 255.562423 
L 551.7941 257.327001 
L 551.85924 257.972994 
L 552.119418 267.640532 
L 552.184367 268.418804 
L 552.508547 262.850038 
L 552.57327 264.949408 
L 552.702603 260.495406 
L 552.767213 261.854503 
L 552.831785 261.741801 
L 552.89632 258.020192 
L 552.960818 259.958591 
L 553.089701 258.40348 
L 553.282746 262.509881 
L 553.475456 258.403095 
L 553.603745 266.560542 
L 553.667834 260.342351 
L 553.731886 263.114417 
L 553.859879 260.487728 
L 553.92382 266.857963 
L 553.987725 266.051818 
L 554.051593 264.720899 
L 554.115424 266.834808 
L 554.179219 266.621287 
L 554.242977 262.040188 
L 554.306699 263.481872 
L 554.370384 263.597962 
L 554.434032 260.141444 
L 554.688264 267.292958 
L 554.751731 266.778787 
L 554.815162 262.751624 
L 554.878556 263.117896 
L 555.068524 268.844734 
L 555.131775 267.251523 
L 555.258168 258.578709 
L 555.384418 265.640287 
L 555.447489 260.774525 
L 555.510524 262.620576 
L 555.699417 270.290325 
L 555.825167 263.164196 
L 555.950775 264.700981 
L 556.013526 263.840812 
L 556.201567 266.54878 
L 556.264176 267.264169 
L 556.38929 262.307376 
L 556.514263 267.42147 
L 556.576697 261.610885 
L 556.70146 272.350659 
L 556.763789 264.894641 
L 556.826083 266.185664 
L 556.950567 272.171471 
L 557.012756 270.450839 
L 557.074911 263.80203 
L 557.137031 264.576414 
L 557.199117 264.977011 
L 557.323184 269.249002 
L 557.447113 265.119835 
L 557.570903 269.132305 
L 557.756332 269.668137 
L 557.818073 269.504092 
L 558.00309 267.852464 
L 558.064694 269.005742 
L 558.187799 261.950639 
L 558.249301 265.677602 
L 558.310769 265.685007 
L 558.372203 265.33515 
L 558.433603 266.189788 
L 558.494969 268.616835 
L 558.678865 263.496793 
L 558.740096 265.467025 
L 558.801293 265.464177 
L 558.923587 260.552863 
L 559.167771 267.111766 
L 559.289663 265.776855 
L 559.350559 267.60505 
L 559.411421 267.328821 
L 559.47225 262.969986 
L 559.533046 263.605833 
L 559.593809 269.831946 
L 559.654538 269.729652 
L 559.775898 266.86679 
L 559.836528 267.835157 
L 559.897125 265.469029 
L 559.957689 269.21403 
L 560.018221 266.607481 
L 560.078719 266.921869 
L 560.199617 264.685298 
L 560.260016 260.036618 
L 560.320383 269.454895 
L 560.380718 265.811945 
L 560.441019 265.90562 
L 560.501288 270.222779 
L 560.621728 263.221564 
L 560.681899 266.143306 
L 560.742037 265.663009 
L 560.802143 263.906618 
L 560.862216 264.931103 
L 560.982266 268.543076 
L 561.102186 265.752461 
L 561.162098 262.309482 
L 561.162098 262.309482 
" clip-path="url(#pdfd99dcaf9)" style="fill: none; stroke: #1f77b4; stroke-linecap: square"/>
   </g>
   <g id="patch_3">
    <path d="M 48.982813 294.590247 
L 48.982813 22.318125 
" style="fill: none; stroke: #000000; stroke-width: 0.8; stroke-linejoin: miter; stroke-linecap: square"/>
   </g>
   <g id="patch_4">
    <path d="M 561.197812 294.590247 
L 561.197812 22.318125 
" style="fill: none; stroke: #000000; stroke-width: 0.8; stroke-linejoin: miter; stroke-linecap: square"/>
   </g>
   <g id="patch_5">
    <path d="M 48.982813 294.590247 
L 561.197812 294.590247 
" style="fill: none; stroke: #000000; stroke-width: 0.8; stroke-linejoin: miter; stroke-linecap: square"/>
   </g>
   <g id="patch_6">
    <path d="M 48.982813 22.318125 
L 561.197812 22.318125 
" style="fill: none; stroke: #000000; stroke-width: 0.8; stroke-linejoin: miter; stroke-linecap: square"/>
   </g>
   <g id="text_14">
    <!-- Ford Explorer Blower Setting 4 - Narrow Band SPL (dBA) -->
    <g transform="translate(137.56375 16.318125) scale(0.12 -0.12)">
     <defs>
      <path id="DejaVuSans-6f" d="M 1959 3097 
Q 1497 3097 1228 2736 
Q 959 2375 959 1747 
Q 959 1119 1226 758 
Q 1494 397 1959 397 
Q 2419 397 2687 759 
Q 2956 1122 2956 1747 
Q 2956 2369 2687 2733 
Q 2419 3097 1959 3097 
z
M 1959 3584 
Q 2709 3584 3137 3096 
Q 3566 2609 3566 1747 
Q 3566 888 3137 398 
Q 2709 -91 1959 -91 
Q 1206 -91 779 398 
Q 353 888 353 1747 
Q 353 2609 779 3096 
Q 1206 3584 1959 3584 
z
" transform="scale(0.015625)"/>
      <path id="DejaVuSans-45" d="M 628 4666 
L 3578 4666 
L 3578 4134 
L 1259 4134 
L 1259 2753 
L 3481 2753 
L 3481 2222 
L 1259 2222 
L 1259 531 
L 3634 531 
L 3634 0 
L 628 0 
L 628 4666 
z
" transform="scale(0.015625)"/>
      <path id="DejaVuSans-78" d="M 3513 3500 
L 2247 1797 
L 3578 0 
L 2900 0 
L 1881 1375 
L 863 0 
L 184 0 
L 1544 1831 
L 300 3500 
L 978 3500 
L 1906 2253 
L 2834 3500 
L 3513 3500 
z
" transform="scale(0.015625)"/>
      <path id="DejaVuSans-70" d="M 1159 525 
L 1159 -1331 
L 581 -1331 
L 581 3500 
L 1159 3500 
L 1159 2969 
Q 1341 3281 1617 3432 
Q 1894 3584 2278 3584 
Q 2916 3584 3314 3078 
Q 3713 2572 3713 1747 
Q 3713 922 3314 415 
Q 2916 -91 2278 -91 
Q 1894 -91 1617 61 
Q 1341 213 1159 525 
z
M 3116 1747 
Q 3116 2381 2855 2742 
Q 2594 3103 2138 3103 
Q 1681 3103 1420 2742 
Q 1159 2381 1159 1747 
Q 1159 1113 1420 752 
Q 1681 391 2138 391 
Q 2594 391 2855 752 
Q 3116 1113 3116 1747 
z
" transform="scale(0.015625)"/>
      <path id="DejaVuSans-6c" d="M 603 4863 
L 1178 4863 
L 1178 0 
L 603 0 
L 603 4863 
z
" transform="scale(0.015625)"/>
      <path id="DejaVuSans-77" d="M 269 3500 
L 844 3500 
L 1563 769 
L 2278 3500 
L 2956 3500 
L 3675 769 
L 4391 3500 
L 4966 3500 
L 4050 0 
L 3372 0 
L 2619 2869 
L 1863 0 
L 1184 0 
L 269 3500 
z
" transform="scale(0.015625)"/>
      <path id="DejaVuSans-74" d="M 1172 4494 
L 1172 3500 
L 2356 3500 
L 2356 3053 
L 1172 3053 
L 1172 1153 
Q 1172 725 1289 603 
Q 1406 481 1766 481 
L 2356 481 
L 2356 0 
L 1766 0 
Q 1100 0 847 248 
Q 594 497 594 1153 
L 594 3053 
L 172 3053 
L 172 3500 
L 594 3500 
L 594 4494 
L 1172 4494 
z
" transform="scale(0.015625)"/>
      <path id="DejaVuSans-69" d="M 603 3500 
L 1178 3500 
L 1178 0 
L 603 0 
L 603 3500 
z
M 603 4863 
L 1178 4863 
L 1178 4134 
L 603 4134 
L 603 4863 
z
" transform="scale(0.015625)"/>
      <path id="DejaVuSans-67" d="M 2906 1791 
Q 2906 2416 2648 2759 
Q 2391 3103 1925 3103 
Q 1463 3103 1205 2759 
Q 947 2416 947 1791 
Q 947 1169 1205 825 
Q 1463 481 1925 481 
Q 2391 481 2648 825 
Q 2906 1169 2906 1791 
z
M 3481 434 
Q 3481 -459 3084 -895 
Q 2688 -1331 1869 -1331 
Q 1566 -1331 1297 -1286 
Q 1028 -1241 775 -1147 
L 775 -588 
Q 1028 -725 1275 -790 
Q 1522 -856 1778 -856 
Q 2344 -856 2625 -561 
Q 2906 -266 2906 331 
L 2906 616 
Q 2728 306 2450 153 
Q 2172 0 1784 0 
Q 1141 0 747 490 
Q 353 981 353 1791 
Q 353 2603 747 3093 
Q 1141 3584 1784 3584 
Q 2172 3584 2450 3431 
Q 2728 3278 2906 2969 
L 2906 3500 
L 3481 3500 
L 3481 434 
z
" transform="scale(0.015625)"/>
      <path id="DejaVuSans-2d" d="M 313 2009 
L 1997 2009 
L 1997 1497 
L 313 1497 
L 313 2009 
z
" transform="scale(0.015625)"/>
      <path id="DejaVuSans-4e" d="M 628 4666 
L 1478 4666 
L 3547 763 
L 3547 4666 
L 4159 4666 
L 4159 0 
L 3309 0 
L 1241 3903 
L 1241 0 
L 628 0 
L 628 4666 
z
" transform="scale(0.015625)"/>
      <path id="DejaVuSans-61" d="M 2194 1759 
Q 1497 1759 1228 1600 
Q 959 1441 959 1056 
Q 959 750 1161 570 
Q 1363 391 1709 391 
Q 2188 391 2477 730 
Q 2766 1069 2766 1631 
L 2766 1759 
L 2194 1759 
z
M 3341 1997 
L 3341 0 
L 2766 0 
L 2766 531 
Q 2569 213 2275 61 
Q 1981 -91 1556 -91 
Q 1019 -91 701 211 
Q 384 513 384 1019 
Q 384 1609 779 1909 
Q 1175 2209 1959 2209 
L 2766 2209 
L 2766 2266 
Q 2766 2663 2505 2880 
Q 2244 3097 1772 3097 
Q 1472 3097 1187 3025 
Q 903 2953 641 2809 
L 641 3341 
Q 956 3463 1253 3523 
Q 1550 3584 1831 3584 
Q 2591 3584 2966 3190 
Q 3341 2797 3341 1997 
z
" transform="scale(0.015625)"/>
     </defs>
     <use xlink:href="#DejaVuSans-46"/>
     <use xlink:href="#DejaVuSans-6f" transform="translate(53.894531 0)"/>
     <use xlink:href="#DejaVuSans-72" transform="translate(115.076172 0)"/>
     <use xlink:href="#DejaVuSans-64" transform="translate(154.439453 0)"/>
     <use xlink:href="#DejaVuSans-20" transform="translate(217.916016 0)"/>
     <use xlink:href="#DejaVuSans-45" transform="translate(249.703125 0)"/>
     <use xlink:href="#DejaVuSans-78" transform="translate(312.886719 0)"/>
     <use xlink:href="#DejaVuSans-70" transform="translate(372.066406 0)"/>
     <use xlink:href="#DejaVuSans-6c" transform="translate(435.542969 0)"/>
     <use xlink:href="#DejaVuSans-6f" transform="translate(463.326172 0)"/>
     <use xlink:href="#DejaVuSans-72" transform="translate(524.507812 0)"/>
     <use xlink:href="#DejaVuSans-65" transform="translate(563.371094 0)"/>
     <use xlink:href="#DejaVuSans-72" transform="translate(624.894531 0)"/>
     <use xlink:href="#DejaVuSans-20" transform="translate(666.007812 0)"/>
     <use xlink:href="#DejaVuSans-42" transform="translate(697.794922 0)"/>
     <use xlink:href="#DejaVuSans-6c" transform="translate(766.398438 0)"/>
     <use xlink:href="#DejaVuSans-6f" transform="translate(794.181641 0)"/>
     <use xlink:href="#DejaVuSans-77" transform="translate(855.363281 0)"/>
     <use xlink:href="#DejaVuSans-65" transform="translate(937.150391 0)"/>
     <use xlink:href="#DejaVuSans-72" transform="translate(998.673828 0)"/>
     <use xlink:href="#DejaVuSans-20" transform="translate(1039.787109 0)"/>
     <use xlink:href="#DejaVuSans-53" transform="translate(1071.574219 0)"/>
     <use xlink:href="#DejaVuSans-65" transform="translate(1135.050781 0)"/>
     <use xlink:href="#DejaVuSans-74" transform="translate(1196.574219 0)"/>
     <use xlink:href="#DejaVuSans-74" transform="translate(1235.783203 0)"/>
     <use xlink:href="#DejaVuSans-69" transform="translate(1274.992188 0)"/>
     <use xlink:href="#DejaVuSans-6e" transform="translate(1302.775391 0)"/>
     <use xlink:href="#DejaVuSans-67" transform="translate(1366.154297 0)"/>
     <use xlink:href="#DejaVuSans-20" transform="translate(1429.630859 0)"/>
     <use xlink:href="#DejaVuSans-34" transform="translate(1461.417969 0)"/>
     <use xlink:href="#DejaVuSans-20" transform="translate(1525.041016 0)"/>
     <use xlink:href="#DejaVuSans-2d" transform="translate(1556.828125 0)"/>
     <use xlink:href="#DejaVuSans-20" transform="translate(1592.912109 0)"/>
     <use xlink:href="#DejaVuSans-4e" transform="translate(1624.699219 0)"/>
     <use xlink:href="#DejaVuSans-61" transform="translate(1699.503906 0)"/>
     <use xlink:href="#DejaVuSans-72" transform="translate(1760.783203 0)"/>
     <use xlink:href="#DejaVuSans-72" transform="translate(1800.146484 0)"/>
     <use xlink:href="#DejaVuSans-6f" transform="translate(1839.009766 0)"/>
     <use xlink:href="#DejaVuSans-77" transform="translate(1900.191406 0)"/>
     <use xlink:href="#DejaVuSans-20" transform="translate(1981.978516 0)"/>
     <use xlink:href="#DejaVuSans-42" transform="translate(2013.765625 0)"/>
     <use xlink:href="#DejaVuSans-61" transform="translate(2082.369141 0)"/>
     <use xlink:href="#DejaVuSans-6e" transform="translate(2143.648438 0)"/>
     <use xlink:href="#DejaVuSans-64" transform="translate(2207.027344 0)"/>
     <use xlink:href="#DejaVuSans-20" transform="translate(2270.503906 0)"/>
     <use xlink:href="#DejaVuSans-53" transform="translate(2302.291016 0)"/>
     <use xlink:href="#DejaVuSans-50" transform="translate(2365.767578 0)"/>
     <use xlink:href="#DejaVuSans-4c" transform="translate(2426.070312 0)"/>
     <use xlink:href="#DejaVuSans-20" transform="translate(2481.783203 0)"/>
     <use xlink:href="#DejaVuSans-28" transform="translate(2513.570312 0)"/>
     <use xlink:href="#DejaVuSans-64" transform="translate(2552.583984 0)"/>
     <use xlink:href="#DejaVuSans-42" transform="translate(2616.060547 0)"/>
     <use xlink:href="#DejaVuSans-41" transform="translate(2684.664062 0)"/>
     <use xlink:href="#DejaVuSans-29" transform="translate(2753.072266 0)"/>
    </g>
   </g>
  </g>
 </g>
 <defs>
  <clipPath id="pdfd99dcaf9">
   <rect x="48.982813" y="22.318125" width="512.215" height="272.272122"/>
  </clipPath>
 </defs>
</svg>
