<?xml version="1.0" encoding="utf-8" standalone="no"?>
<!DOCTYPE svg PUBLIC "-//W3C//DTD SVG 1.1//EN"
  "http://www.w3.org/Graphics/SVG/1.1/DTD/svg11.dtd">
<svg xmlns:xlink="http://www.w3.org/1999/xlink" width="568.397812pt" height="351.806674pt" viewBox="0 0 568.397812 351.806674" xmlns="http://www.w3.org/2000/svg" version="1.1">
 <metadata>
  <rdf:RDF xmlns:dc="http://purl.org/dc/elements/1.1/" xmlns:cc="http://creativecommons.org/ns#" xmlns:rdf="http://www.w3.org/1999/02/22-rdf-syntax-ns#">
   <cc:Work>
    <dc:type rdf:resource="http://purl.org/dc/dcmitype/StillImage"/>
    <dc:date>2025-04-24T18:27:05.502779</dc:date>
    <dc:format>image/svg+xml</dc:format>
    <dc:creator>
     <cc:Agent>
      <dc:title>Matplotlib v3.10.0, https://matplotlib.org/</dc:title>
     </cc:Agent>
    </dc:creator>
   </cc:Work>
  </rdf:RDF>
 </metadata>
 <defs>
  <style type="text/css">*{stroke-linejoin: round; stroke-linecap: butt}</style>
 </defs>
 <g id="figure_1">
  <g id="patch_1">
   <path d="M 0 351.806674 
L 568.397812 351.806674 
L 568.397812 0 
L 0 0 
z
" style="fill: #ffffff"/>
  </g>
  <g id="axes_1">
   <g id="patch_2">
    <path d="M 48.982813 294.590247 
L 561.197812 294.590247 
L 561.197812 22.318125 
L 48.982813 22.318125 
z
" style="fill: #ffffff"/>
   </g>
   <g id="matplotlib.axis_1">
    <g id="xtick_1">
     <g id="line2d_1">
      <path d="M 48.982813 294.590247 
L 48.982813 22.318125 
" clip-path="url(#p3065fa8111)" style="fill: none; stroke-dasharray: 1.85,0.8; stroke-dashoffset: 0; stroke: #b0b0b0; stroke-width: 0.5"/>
     </g>
     <g id="line2d_2">
      <defs>
       <path id="m96816b46e2" d="M 0 0 
L 0 3.5 
" style="stroke: #000000; stroke-width: 0.8"/>
      </defs>
      <g>
       <use xlink:href="#m96816b46e2" x="48.982813" y="294.590247" style="stroke: #000000; stroke-width: 0.8"/>
      </g>
     </g>
     <g id="text_1">
      <!-- 100 -->
      <g transform="translate(34.015351 320.460054) rotate(-45) scale(0.1 -0.1)">
       <defs>
        <path id="DejaVuSans-31" d="M 794 531 
L 1825 531 
L 1825 4091 
L 703 3866 
L 703 4441 
L 1819 4666 
L 2450 4666 
L 2450 531 
L 3481 531 
L 3481 0 
L 794 0 
L 794 531 
z
" transform="scale(0.015625)"/>
        <path id="DejaVuSans-30" d="M 2034 4250 
Q 1547 4250 1301 3770 
Q 1056 3291 1056 2328 
Q 1056 1369 1301 889 
Q 1547 409 2034 409 
Q 2525 409 2770 889 
Q 3016 1369 3016 2328 
Q 3016 3291 2770 3770 
Q 2525 4250 2034 4250 
z
M 2034 4750 
Q 2819 4750 3233 4129 
Q 3647 3509 3647 2328 
Q 3647 1150 3233 529 
Q 2819 -91 2034 -91 
Q 1250 -91 836 529 
Q 422 1150 422 2328 
Q 422 3509 836 4129 
Q 1250 4750 2034 4750 
z
" transform="scale(0.015625)"/>
       </defs>
       <use xlink:href="#DejaVuSans-31"/>
       <use xlink:href="#DejaVuSans-30" transform="translate(63.623047 0)"/>
       <use xlink:href="#DejaVuSans-30" transform="translate(127.246094 0)"/>
      </g>
     </g>
    </g>
    <g id="xtick_2">
     <g id="line2d_3">
      <path d="M 305.090312 294.590247 
L 305.090312 22.318125 
" clip-path="url(#p3065fa8111)" style="fill: none; stroke-dasharray: 1.85,0.8; stroke-dashoffset: 0; stroke: #b0b0b0; stroke-width: 0.5"/>
     </g>
     <g id="line2d_4">
      <g>
       <use xlink:href="#m96816b46e2" x="305.090312" y="294.590247" style="stroke: #000000; stroke-width: 0.8"/>
      </g>
     </g>
     <g id="text_2">
      <!-- 1000 -->
      <g transform="translate(285.623884 324.959021) rotate(-45) scale(0.1 -0.1)">
       <use xlink:href="#DejaVuSans-31"/>
       <use xlink:href="#DejaVuSans-30" transform="translate(63.623047 0)"/>
       <use xlink:href="#DejaVuSans-30" transform="translate(127.246094 0)"/>
       <use xlink:href="#DejaVuSans-30" transform="translate(190.869141 0)"/>
      </g>
     </g>
    </g>
    <g id="xtick_3">
     <g id="line2d_5">
      <path d="M 561.197812 294.590247 
L 561.197812 22.318125 
" clip-path="url(#p3065fa8111)" style="fill: none; stroke-dasharray: 1.85,0.8; stroke-dashoffset: 0; stroke: #b0b0b0; stroke-width: 0.5"/>
     </g>
     <g id="line2d_6">
      <g>
       <use xlink:href="#m96816b46e2" x="561.197812" y="294.590247" style="stroke: #000000; stroke-width: 0.8"/>
      </g>
     </g>
     <g id="text_3">
      <!-- 10000 -->
      <g transform="translate(537.232417 329.457988) rotate(-45) scale(0.1 -0.1)">
       <use xlink:href="#DejaVuSans-31"/>
       <use xlink:href="#DejaVuSans-30" transform="translate(63.623047 0)"/>
       <use xlink:href="#DejaVuSans-30" transform="translate(127.246094 0)"/>
       <use xlink:href="#DejaVuSans-30" transform="translate(190.869141 0)"/>
       <use xlink:href="#DejaVuSans-30" transform="translate(254.492188 0)"/>
      </g>
     </g>
    </g>
    <g id="xtick_4">
     <g id="line2d_7">
      <path d="M 126.078852 294.590247 
L 126.078852 22.318125 
" clip-path="url(#p3065fa8111)" style="fill: none; stroke-dasharray: 1.85,0.8; stroke-dashoffset: 0; stroke: #b0b0b0; stroke-width: 0.5"/>
     </g>
     <g id="line2d_8">
      <defs>
       <path id="m3c141bff41" d="M 0 0 
L 0 2 
" style="stroke: #000000; stroke-width: 0.6"/>
      </defs>
      <g>
       <use xlink:href="#m3c141bff41" x="126.078852" y="294.590247" style="stroke: #000000; stroke-width: 0.6"/>
      </g>
     </g>
    </g>
    <g id="xtick_5">
     <g id="line2d_9">
      <path d="M 171.177144 294.590247 
L 171.177144 22.318125 
" clip-path="url(#p3065fa8111)" style="fill: none; stroke-dasharray: 1.85,0.8; stroke-dashoffset: 0; stroke: #b0b0b0; stroke-width: 0.5"/>
     </g>
     <g id="line2d_10">
      <g>
       <use xlink:href="#m3c141bff41" x="171.177144" y="294.590247" style="stroke: #000000; stroke-width: 0.6"/>
      </g>
     </g>
    </g>
    <g id="xtick_6">
     <g id="line2d_11">
      <path d="M 203.174892 294.590247 
L 203.174892 22.318125 
" clip-path="url(#p3065fa8111)" style="fill: none; stroke-dasharray: 1.85,0.8; stroke-dashoffset: 0; stroke: #b0b0b0; stroke-width: 0.5"/>
     </g>
     <g id="line2d_12">
      <g>
       <use xlink:href="#m3c141bff41" x="203.174892" y="294.590247" style="stroke: #000000; stroke-width: 0.6"/>
      </g>
     </g>
    </g>
    <g id="xtick_7">
     <g id="line2d_13">
      <path d="M 227.994273 294.590247 
L 227.994273 22.318125 
" clip-path="url(#p3065fa8111)" style="fill: none; stroke-dasharray: 1.85,0.8; stroke-dashoffset: 0; stroke: #b0b0b0; stroke-width: 0.5"/>
     </g>
     <g id="line2d_14">
      <g>
       <use xlink:href="#m3c141bff41" x="227.994273" y="294.590247" style="stroke: #000000; stroke-width: 0.6"/>
      </g>
     </g>
    </g>
    <g id="xtick_8">
     <g id="line2d_15">
      <path d="M 248.273184 294.590247 
L 248.273184 22.318125 
" clip-path="url(#p3065fa8111)" style="fill: none; stroke-dasharray: 1.85,0.8; stroke-dashoffset: 0; stroke: #b0b0b0; stroke-width: 0.5"/>
     </g>
     <g id="line2d_16">
      <g>
       <use xlink:href="#m3c141bff41" x="248.273184" y="294.590247" style="stroke: #000000; stroke-width: 0.6"/>
      </g>
     </g>
    </g>
    <g id="xtick_9">
     <g id="line2d_17">
      <path d="M 265.418759 294.590247 
L 265.418759 22.318125 
" clip-path="url(#p3065fa8111)" style="fill: none; stroke-dasharray: 1.85,0.8; stroke-dashoffset: 0; stroke: #b0b0b0; stroke-width: 0.5"/>
     </g>
     <g id="line2d_18">
      <g>
       <use xlink:href="#m3c141bff41" x="265.418759" y="294.590247" style="stroke: #000000; stroke-width: 0.6"/>
      </g>
     </g>
    </g>
    <g id="xtick_10">
     <g id="line2d_19">
      <path d="M 280.270931 294.590247 
L 280.270931 22.318125 
" clip-path="url(#p3065fa8111)" style="fill: none; stroke-dasharray: 1.85,0.8; stroke-dashoffset: 0; stroke: #b0b0b0; stroke-width: 0.5"/>
     </g>
     <g id="line2d_20">
      <g>
       <use xlink:href="#m3c141bff41" x="280.270931" y="294.590247" style="stroke: #000000; stroke-width: 0.6"/>
      </g>
     </g>
    </g>
    <g id="xtick_11">
     <g id="line2d_21">
      <path d="M 293.371476 294.590247 
L 293.371476 22.318125 
" clip-path="url(#p3065fa8111)" style="fill: none; stroke-dasharray: 1.85,0.8; stroke-dashoffset: 0; stroke: #b0b0b0; stroke-width: 0.5"/>
     </g>
     <g id="line2d_22">
      <g>
       <use xlink:href="#m3c141bff41" x="293.371476" y="294.590247" style="stroke: #000000; stroke-width: 0.6"/>
      </g>
     </g>
    </g>
    <g id="xtick_12">
     <g id="line2d_23">
      <path d="M 382.186352 294.590247 
L 382.186352 22.318125 
" clip-path="url(#p3065fa8111)" style="fill: none; stroke-dasharray: 1.85,0.8; stroke-dashoffset: 0; stroke: #b0b0b0; stroke-width: 0.5"/>
     </g>
     <g id="line2d_24">
      <g>
       <use xlink:href="#m3c141bff41" x="382.186352" y="294.590247" style="stroke: #000000; stroke-width: 0.6"/>
      </g>
     </g>
    </g>
    <g id="xtick_13">
     <g id="line2d_25">
      <path d="M 427.284644 294.590247 
L 427.284644 22.318125 
" clip-path="url(#p3065fa8111)" style="fill: none; stroke-dasharray: 1.85,0.8; stroke-dashoffset: 0; stroke: #b0b0b0; stroke-width: 0.5"/>
     </g>
     <g id="line2d_26">
      <g>
       <use xlink:href="#m3c141bff41" x="427.284644" y="294.590247" style="stroke: #000000; stroke-width: 0.6"/>
      </g>
     </g>
    </g>
    <g id="xtick_14">
     <g id="line2d_27">
      <path d="M 459.282392 294.590247 
L 459.282392 22.318125 
" clip-path="url(#p3065fa8111)" style="fill: none; stroke-dasharray: 1.85,0.8; stroke-dashoffset: 0; stroke: #b0b0b0; stroke-width: 0.5"/>
     </g>
     <g id="line2d_28">
      <g>
       <use xlink:href="#m3c141bff41" x="459.282392" y="294.590247" style="stroke: #000000; stroke-width: 0.6"/>
      </g>
     </g>
    </g>
    <g id="xtick_15">
     <g id="line2d_29">
      <path d="M 484.101773 294.590247 
L 484.101773 22.318125 
" clip-path="url(#p3065fa8111)" style="fill: none; stroke-dasharray: 1.85,0.8; stroke-dashoffset: 0; stroke: #b0b0b0; stroke-width: 0.5"/>
     </g>
     <g id="line2d_30">
      <g>
       <use xlink:href="#m3c141bff41" x="484.101773" y="294.590247" style="stroke: #000000; stroke-width: 0.6"/>
      </g>
     </g>
    </g>
    <g id="xtick_16">
     <g id="line2d_31">
      <path d="M 504.380684 294.590247 
L 504.380684 22.318125 
" clip-path="url(#p3065fa8111)" style="fill: none; stroke-dasharray: 1.85,0.8; stroke-dashoffset: 0; stroke: #b0b0b0; stroke-width: 0.5"/>
     </g>
     <g id="line2d_32">
      <g>
       <use xlink:href="#m3c141bff41" x="504.380684" y="294.590247" style="stroke: #000000; stroke-width: 0.6"/>
      </g>
     </g>
    </g>
    <g id="xtick_17">
     <g id="line2d_33">
      <path d="M 521.526259 294.590247 
L 521.526259 22.318125 
" clip-path="url(#p3065fa8111)" style="fill: none; stroke-dasharray: 1.85,0.8; stroke-dashoffset: 0; stroke: #b0b0b0; stroke-width: 0.5"/>
     </g>
     <g id="line2d_34">
      <g>
       <use xlink:href="#m3c141bff41" x="521.526259" y="294.590247" style="stroke: #000000; stroke-width: 0.6"/>
      </g>
     </g>
    </g>
    <g id="xtick_18">
     <g id="line2d_35">
      <path d="M 536.378431 294.590247 
L 536.378431 22.318125 
" clip-path="url(#p3065fa8111)" style="fill: none; stroke-dasharray: 1.85,0.8; stroke-dashoffset: 0; stroke: #b0b0b0; stroke-width: 0.5"/>
     </g>
     <g id="line2d_36">
      <g>
       <use xlink:href="#m3c141bff41" x="536.378431" y="294.590247" style="stroke: #000000; stroke-width: 0.6"/>
      </g>
     </g>
    </g>
    <g id="xtick_19">
     <g id="line2d_37">
      <path d="M 549.478976 294.590247 
L 549.478976 22.318125 
" clip-path="url(#p3065fa8111)" style="fill: none; stroke-dasharray: 1.85,0.8; stroke-dashoffset: 0; stroke: #b0b0b0; stroke-width: 0.5"/>
     </g>
     <g id="line2d_38">
      <g>
       <use xlink:href="#m3c141bff41" x="549.478976" y="294.590247" style="stroke: #000000; stroke-width: 0.6"/>
      </g>
     </g>
    </g>
    <g id="text_4">
     <!-- Frequency (Hz) -->
     <g transform="translate(267.385625 342.526987) scale(0.1 -0.1)">
      <defs>
       <path id="DejaVuSans-46" d="M 628 4666 
L 3309 4666 
L 3309 4134 
L 1259 4134 
L 1259 2759 
L 3109 2759 
L 3109 2228 
L 1259 2228 
L 1259 0 
L 628 0 
L 628 4666 
z
" transform="scale(0.015625)"/>
       <path id="DejaVuSans-72" d="M 2631 2963 
Q 2534 3019 2420 3045 
Q 2306 3072 2169 3072 
Q 1681 3072 1420 2755 
Q 1159 2438 1159 1844 
L 1159 0 
L 581 0 
L 581 3500 
L 1159 3500 
L 1159 2956 
Q 1341 3275 1631 3429 
Q 1922 3584 2338 3584 
Q 2397 3584 2469 3576 
Q 2541 3569 2628 3553 
L 2631 2963 
z
" transform="scale(0.015625)"/>
       <path id="DejaVuSans-65" d="M 3597 1894 
L 3597 1613 
L 953 1613 
Q 991 1019 1311 708 
Q 1631 397 2203 397 
Q 2534 397 2845 478 
Q 3156 559 3463 722 
L 3463 178 
Q 3153 47 2828 -22 
Q 2503 -91 2169 -91 
Q 1331 -91 842 396 
Q 353 884 353 1716 
Q 353 2575 817 3079 
Q 1281 3584 2069 3584 
Q 2775 3584 3186 3129 
Q 3597 2675 3597 1894 
z
M 3022 2063 
Q 3016 2534 2758 2815 
Q 2500 3097 2075 3097 
Q 1594 3097 1305 2825 
Q 1016 2553 972 2059 
L 3022 2063 
z
" transform="scale(0.015625)"/>
       <path id="DejaVuSans-71" d="M 947 1747 
Q 947 1113 1208 752 
Q 1469 391 1925 391 
Q 2381 391 2643 752 
Q 2906 1113 2906 1747 
Q 2906 2381 2643 2742 
Q 2381 3103 1925 3103 
Q 1469 3103 1208 2742 
Q 947 2381 947 1747 
z
M 2906 525 
Q 2725 213 2448 61 
Q 2172 -91 1784 -91 
Q 1150 -91 751 415 
Q 353 922 353 1747 
Q 353 2572 751 3078 
Q 1150 3584 1784 3584 
Q 2172 3584 2448 3432 
Q 2725 3281 2906 2969 
L 2906 3500 
L 3481 3500 
L 3481 -1331 
L 2906 -1331 
L 2906 525 
z
" transform="scale(0.015625)"/>
       <path id="DejaVuSans-75" d="M 544 1381 
L 544 3500 
L 1119 3500 
L 1119 1403 
Q 1119 906 1312 657 
Q 1506 409 1894 409 
Q 2359 409 2629 706 
Q 2900 1003 2900 1516 
L 2900 3500 
L 3475 3500 
L 3475 0 
L 2900 0 
L 2900 538 
Q 2691 219 2414 64 
Q 2138 -91 1772 -91 
Q 1169 -91 856 284 
Q 544 659 544 1381 
z
M 1991 3584 
L 1991 3584 
z
" transform="scale(0.015625)"/>
       <path id="DejaVuSans-6e" d="M 3513 2113 
L 3513 0 
L 2938 0 
L 2938 2094 
Q 2938 2591 2744 2837 
Q 2550 3084 2163 3084 
Q 1697 3084 1428 2787 
Q 1159 2491 1159 1978 
L 1159 0 
L 581 0 
L 581 3500 
L 1159 3500 
L 1159 2956 
Q 1366 3272 1645 3428 
Q 1925 3584 2291 3584 
Q 2894 3584 3203 3211 
Q 3513 2838 3513 2113 
z
" transform="scale(0.015625)"/>
       <path id="DejaVuSans-63" d="M 3122 3366 
L 3122 2828 
Q 2878 2963 2633 3030 
Q 2388 3097 2138 3097 
Q 1578 3097 1268 2742 
Q 959 2388 959 1747 
Q 959 1106 1268 751 
Q 1578 397 2138 397 
Q 2388 397 2633 464 
Q 2878 531 3122 666 
L 3122 134 
Q 2881 22 2623 -34 
Q 2366 -91 2075 -91 
Q 1284 -91 818 406 
Q 353 903 353 1747 
Q 353 2603 823 3093 
Q 1294 3584 2113 3584 
Q 2378 3584 2631 3529 
Q 2884 3475 3122 3366 
z
" transform="scale(0.015625)"/>
       <path id="DejaVuSans-79" d="M 2059 -325 
Q 1816 -950 1584 -1140 
Q 1353 -1331 966 -1331 
L 506 -1331 
L 506 -850 
L 844 -850 
Q 1081 -850 1212 -737 
Q 1344 -625 1503 -206 
L 1606 56 
L 191 3500 
L 800 3500 
L 1894 763 
L 2988 3500 
L 3597 3500 
L 2059 -325 
z
" transform="scale(0.015625)"/>
       <path id="DejaVuSans-20" transform="scale(0.015625)"/>
       <path id="DejaVuSans-28" d="M 1984 4856 
Q 1566 4138 1362 3434 
Q 1159 2731 1159 2009 
Q 1159 1288 1364 580 
Q 1569 -128 1984 -844 
L 1484 -844 
Q 1016 -109 783 600 
Q 550 1309 550 2009 
Q 550 2706 781 3412 
Q 1013 4119 1484 4856 
L 1984 4856 
z
" transform="scale(0.015625)"/>
       <path id="DejaVuSans-48" d="M 628 4666 
L 1259 4666 
L 1259 2753 
L 3553 2753 
L 3553 4666 
L 4184 4666 
L 4184 0 
L 3553 0 
L 3553 2222 
L 1259 2222 
L 1259 0 
L 628 0 
L 628 4666 
z
" transform="scale(0.015625)"/>
       <path id="DejaVuSans-7a" d="M 353 3500 
L 3084 3500 
L 3084 2975 
L 922 459 
L 3084 459 
L 3084 0 
L 275 0 
L 275 525 
L 2438 3041 
L 353 3041 
L 353 3500 
z
" transform="scale(0.015625)"/>
       <path id="DejaVuSans-29" d="M 513 4856 
L 1013 4856 
Q 1481 4119 1714 3412 
Q 1947 2706 1947 2009 
Q 1947 1309 1714 600 
Q 1481 -109 1013 -844 
L 513 -844 
Q 928 -128 1133 580 
Q 1338 1288 1338 2009 
Q 1338 2731 1133 3434 
Q 928 4138 513 4856 
z
" transform="scale(0.015625)"/>
      </defs>
      <use xlink:href="#DejaVuSans-46"/>
      <use xlink:href="#DejaVuSans-72" transform="translate(50.269531 0)"/>
      <use xlink:href="#DejaVuSans-65" transform="translate(89.132812 0)"/>
      <use xlink:href="#DejaVuSans-71" transform="translate(150.65625 0)"/>
      <use xlink:href="#DejaVuSans-75" transform="translate(214.132812 0)"/>
      <use xlink:href="#DejaVuSans-65" transform="translate(277.511719 0)"/>
      <use xlink:href="#DejaVuSans-6e" transform="translate(339.035156 0)"/>
      <use xlink:href="#DejaVuSans-63" transform="translate(402.414062 0)"/>
      <use xlink:href="#DejaVuSans-79" transform="translate(457.394531 0)"/>
      <use xlink:href="#DejaVuSans-20" transform="translate(516.574219 0)"/>
      <use xlink:href="#DejaVuSans-28" transform="translate(548.361328 0)"/>
      <use xlink:href="#DejaVuSans-48" transform="translate(587.375 0)"/>
      <use xlink:href="#DejaVuSans-7a" transform="translate(662.570312 0)"/>
      <use xlink:href="#DejaVuSans-29" transform="translate(715.060547 0)"/>
     </g>
    </g>
   </g>
   <g id="matplotlib.axis_2">
    <g id="ytick_1">
     <g id="line2d_39">
      <path d="M 48.982813 294.590247 
L 561.197812 294.590247 
" clip-path="url(#p3065fa8111)" style="fill: none; stroke-dasharray: 1.85,0.8; stroke-dashoffset: 0; stroke: #b0b0b0; stroke-width: 0.5"/>
     </g>
     <g id="line2d_40">
      <defs>
       <path id="mc2e213a247" d="M 0 0 
L -3.5 0 
" style="stroke: #000000; stroke-width: 0.8"/>
      </defs>
      <g>
       <use xlink:href="#mc2e213a247" x="48.982813" y="294.590247" style="stroke: #000000; stroke-width: 0.8"/>
      </g>
     </g>
     <g id="text_5">
      <!-- −20 -->
      <g transform="translate(20.878125 298.389466) scale(0.1 -0.1)">
       <defs>
        <path id="DejaVuSans-2212" d="M 678 2272 
L 4684 2272 
L 4684 1741 
L 678 1741 
L 678 2272 
z
" transform="scale(0.015625)"/>
        <path id="DejaVuSans-32" d="M 1228 531 
L 3431 531 
L 3431 0 
L 469 0 
L 469 531 
Q 828 903 1448 1529 
Q 2069 2156 2228 2338 
Q 2531 2678 2651 2914 
Q 2772 3150 2772 3378 
Q 2772 3750 2511 3984 
Q 2250 4219 1831 4219 
Q 1534 4219 1204 4116 
Q 875 4013 500 3803 
L 500 4441 
Q 881 4594 1212 4672 
Q 1544 4750 1819 4750 
Q 2544 4750 2975 4387 
Q 3406 4025 3406 3419 
Q 3406 3131 3298 2873 
Q 3191 2616 2906 2266 
Q 2828 2175 2409 1742 
Q 1991 1309 1228 531 
z
" transform="scale(0.015625)"/>
       </defs>
       <use xlink:href="#DejaVuSans-2212"/>
       <use xlink:href="#DejaVuSans-32" transform="translate(83.789062 0)"/>
       <use xlink:href="#DejaVuSans-30" transform="translate(147.412109 0)"/>
      </g>
     </g>
    </g>
    <g id="ytick_2">
     <g id="line2d_41">
      <path d="M 48.982813 255.694229 
L 561.197812 255.694229 
" clip-path="url(#p3065fa8111)" style="fill: none; stroke-dasharray: 1.85,0.8; stroke-dashoffset: 0; stroke: #b0b0b0; stroke-width: 0.5"/>
     </g>
     <g id="line2d_42">
      <g>
       <use xlink:href="#mc2e213a247" x="48.982813" y="255.694229" style="stroke: #000000; stroke-width: 0.8"/>
      </g>
     </g>
     <g id="text_6">
      <!-- −10 -->
      <g transform="translate(20.878125 259.493448) scale(0.1 -0.1)">
       <use xlink:href="#DejaVuSans-2212"/>
       <use xlink:href="#DejaVuSans-31" transform="translate(83.789062 0)"/>
       <use xlink:href="#DejaVuSans-30" transform="translate(147.412109 0)"/>
      </g>
     </g>
    </g>
    <g id="ytick_3">
     <g id="line2d_43">
      <path d="M 48.982813 216.798212 
L 561.197812 216.798212 
" clip-path="url(#p3065fa8111)" style="fill: none; stroke-dasharray: 1.85,0.8; stroke-dashoffset: 0; stroke: #b0b0b0; stroke-width: 0.5"/>
     </g>
     <g id="line2d_44">
      <g>
       <use xlink:href="#mc2e213a247" x="48.982813" y="216.798212" style="stroke: #000000; stroke-width: 0.8"/>
      </g>
     </g>
     <g id="text_7">
      <!-- 0 -->
      <g transform="translate(35.620313 220.597431) scale(0.1 -0.1)">
       <use xlink:href="#DejaVuSans-30"/>
      </g>
     </g>
    </g>
    <g id="ytick_4">
     <g id="line2d_45">
      <path d="M 48.982813 177.902195 
L 561.197812 177.902195 
" clip-path="url(#p3065fa8111)" style="fill: none; stroke-dasharray: 1.85,0.8; stroke-dashoffset: 0; stroke: #b0b0b0; stroke-width: 0.5"/>
     </g>
     <g id="line2d_46">
      <g>
       <use xlink:href="#mc2e213a247" x="48.982813" y="177.902195" style="stroke: #000000; stroke-width: 0.8"/>
      </g>
     </g>
     <g id="text_8">
      <!-- 10 -->
      <g transform="translate(29.257813 181.701413) scale(0.1 -0.1)">
       <use xlink:href="#DejaVuSans-31"/>
       <use xlink:href="#DejaVuSans-30" transform="translate(63.623047 0)"/>
      </g>
     </g>
    </g>
    <g id="ytick_5">
     <g id="line2d_47">
      <path d="M 48.982813 139.006177 
L 561.197812 139.006177 
" clip-path="url(#p3065fa8111)" style="fill: none; stroke-dasharray: 1.85,0.8; stroke-dashoffset: 0; stroke: #b0b0b0; stroke-width: 0.5"/>
     </g>
     <g id="line2d_48">
      <g>
       <use xlink:href="#mc2e213a247" x="48.982813" y="139.006177" style="stroke: #000000; stroke-width: 0.8"/>
      </g>
     </g>
     <g id="text_9">
      <!-- 20 -->
      <g transform="translate(29.257813 142.805396) scale(0.1 -0.1)">
       <use xlink:href="#DejaVuSans-32"/>
       <use xlink:href="#DejaVuSans-30" transform="translate(63.623047 0)"/>
      </g>
     </g>
    </g>
    <g id="ytick_6">
     <g id="line2d_49">
      <path d="M 48.982813 100.11016 
L 561.197812 100.11016 
" clip-path="url(#p3065fa8111)" style="fill: none; stroke-dasharray: 1.85,0.8; stroke-dashoffset: 0; stroke: #b0b0b0; stroke-width: 0.5"/>
     </g>
     <g id="line2d_50">
      <g>
       <use xlink:href="#mc2e213a247" x="48.982813" y="100.11016" style="stroke: #000000; stroke-width: 0.8"/>
      </g>
     </g>
     <g id="text_10">
      <!-- 30 -->
      <g transform="translate(29.257813 103.909379) scale(0.1 -0.1)">
       <defs>
        <path id="DejaVuSans-33" d="M 2597 2516 
Q 3050 2419 3304 2112 
Q 3559 1806 3559 1356 
Q 3559 666 3084 287 
Q 2609 -91 1734 -91 
Q 1441 -91 1130 -33 
Q 819 25 488 141 
L 488 750 
Q 750 597 1062 519 
Q 1375 441 1716 441 
Q 2309 441 2620 675 
Q 2931 909 2931 1356 
Q 2931 1769 2642 2001 
Q 2353 2234 1838 2234 
L 1294 2234 
L 1294 2753 
L 1863 2753 
Q 2328 2753 2575 2939 
Q 2822 3125 2822 3475 
Q 2822 3834 2567 4026 
Q 2313 4219 1838 4219 
Q 1578 4219 1281 4162 
Q 984 4106 628 3988 
L 628 4550 
Q 988 4650 1302 4700 
Q 1616 4750 1894 4750 
Q 2613 4750 3031 4423 
Q 3450 4097 3450 3541 
Q 3450 3153 3228 2886 
Q 3006 2619 2597 2516 
z
" transform="scale(0.015625)"/>
       </defs>
       <use xlink:href="#DejaVuSans-33"/>
       <use xlink:href="#DejaVuSans-30" transform="translate(63.623047 0)"/>
      </g>
     </g>
    </g>
    <g id="ytick_7">
     <g id="line2d_51">
      <path d="M 48.982813 61.214142 
L 561.197812 61.214142 
" clip-path="url(#p3065fa8111)" style="fill: none; stroke-dasharray: 1.85,0.8; stroke-dashoffset: 0; stroke: #b0b0b0; stroke-width: 0.5"/>
     </g>
     <g id="line2d_52">
      <g>
       <use xlink:href="#mc2e213a247" x="48.982813" y="61.214142" style="stroke: #000000; stroke-width: 0.8"/>
      </g>
     </g>
     <g id="text_11">
      <!-- 40 -->
      <g transform="translate(29.257813 65.013361) scale(0.1 -0.1)">
       <defs>
        <path id="DejaVuSans-34" d="M 2419 4116 
L 825 1625 
L 2419 1625 
L 2419 4116 
z
M 2253 4666 
L 3047 4666 
L 3047 1625 
L 3713 1625 
L 3713 1100 
L 3047 1100 
L 3047 0 
L 2419 0 
L 2419 1100 
L 313 1100 
L 313 1709 
L 2253 4666 
z
" transform="scale(0.015625)"/>
       </defs>
       <use xlink:href="#DejaVuSans-34"/>
       <use xlink:href="#DejaVuSans-30" transform="translate(63.623047 0)"/>
      </g>
     </g>
    </g>
    <g id="ytick_8">
     <g id="line2d_53">
      <path d="M 48.982813 22.318125 
L 561.197812 22.318125 
" clip-path="url(#p3065fa8111)" style="fill: none; stroke-dasharray: 1.85,0.8; stroke-dashoffset: 0; stroke: #b0b0b0; stroke-width: 0.5"/>
     </g>
     <g id="line2d_54">
      <g>
       <use xlink:href="#mc2e213a247" x="48.982813" y="22.318125" style="stroke: #000000; stroke-width: 0.8"/>
      </g>
     </g>
     <g id="text_12">
      <!-- 50 -->
      <g transform="translate(29.257813 26.117344) scale(0.1 -0.1)">
       <defs>
        <path id="DejaVuSans-35" d="M 691 4666 
L 3169 4666 
L 3169 4134 
L 1269 4134 
L 1269 2991 
Q 1406 3038 1543 3061 
Q 1681 3084 1819 3084 
Q 2600 3084 3056 2656 
Q 3513 2228 3513 1497 
Q 3513 744 3044 326 
Q 2575 -91 1722 -91 
Q 1428 -91 1123 -41 
Q 819 9 494 109 
L 494 744 
Q 775 591 1075 516 
Q 1375 441 1709 441 
Q 2250 441 2565 725 
Q 2881 1009 2881 1497 
Q 2881 1984 2565 2268 
Q 2250 2553 1709 2553 
Q 1456 2553 1204 2497 
Q 953 2441 691 2322 
L 691 4666 
z
" transform="scale(0.015625)"/>
       </defs>
       <use xlink:href="#DejaVuSans-35"/>
       <use xlink:href="#DejaVuSans-30" transform="translate(63.623047 0)"/>
      </g>
     </g>
    </g>
    <g id="text_13">
     <!-- SPL (dBA) -->
     <g transform="translate(14.798438 182.944811) rotate(-90) scale(0.1 -0.1)">
      <defs>
       <path id="DejaVuSans-53" d="M 3425 4513 
L 3425 3897 
Q 3066 4069 2747 4153 
Q 2428 4238 2131 4238 
Q 1616 4238 1336 4038 
Q 1056 3838 1056 3469 
Q 1056 3159 1242 3001 
Q 1428 2844 1947 2747 
L 2328 2669 
Q 3034 2534 3370 2195 
Q 3706 1856 3706 1288 
Q 3706 609 3251 259 
Q 2797 -91 1919 -91 
Q 1588 -91 1214 -16 
Q 841 59 441 206 
L 441 856 
Q 825 641 1194 531 
Q 1563 422 1919 422 
Q 2459 422 2753 634 
Q 3047 847 3047 1241 
Q 3047 1584 2836 1778 
Q 2625 1972 2144 2069 
L 1759 2144 
Q 1053 2284 737 2584 
Q 422 2884 422 3419 
Q 422 4038 858 4394 
Q 1294 4750 2059 4750 
Q 2388 4750 2728 4690 
Q 3069 4631 3425 4513 
z
" transform="scale(0.015625)"/>
       <path id="DejaVuSans-50" d="M 1259 4147 
L 1259 2394 
L 2053 2394 
Q 2494 2394 2734 2622 
Q 2975 2850 2975 3272 
Q 2975 3691 2734 3919 
Q 2494 4147 2053 4147 
L 1259 4147 
z
M 628 4666 
L 2053 4666 
Q 2838 4666 3239 4311 
Q 3641 3956 3641 3272 
Q 3641 2581 3239 2228 
Q 2838 1875 2053 1875 
L 1259 1875 
L 1259 0 
L 628 0 
L 628 4666 
z
" transform="scale(0.015625)"/>
       <path id="DejaVuSans-4c" d="M 628 4666 
L 1259 4666 
L 1259 531 
L 3531 531 
L 3531 0 
L 628 0 
L 628 4666 
z
" transform="scale(0.015625)"/>
       <path id="DejaVuSans-64" d="M 2906 2969 
L 2906 4863 
L 3481 4863 
L 3481 0 
L 2906 0 
L 2906 525 
Q 2725 213 2448 61 
Q 2172 -91 1784 -91 
Q 1150 -91 751 415 
Q 353 922 353 1747 
Q 353 2572 751 3078 
Q 1150 3584 1784 3584 
Q 2172 3584 2448 3432 
Q 2725 3281 2906 2969 
z
M 947 1747 
Q 947 1113 1208 752 
Q 1469 391 1925 391 
Q 2381 391 2643 752 
Q 2906 1113 2906 1747 
Q 2906 2381 2643 2742 
Q 2381 3103 1925 3103 
Q 1469 3103 1208 2742 
Q 947 2381 947 1747 
z
" transform="scale(0.015625)"/>
       <path id="DejaVuSans-42" d="M 1259 2228 
L 1259 519 
L 2272 519 
Q 2781 519 3026 730 
Q 3272 941 3272 1375 
Q 3272 1813 3026 2020 
Q 2781 2228 2272 2228 
L 1259 2228 
z
M 1259 4147 
L 1259 2741 
L 2194 2741 
Q 2656 2741 2882 2914 
Q 3109 3088 3109 3444 
Q 3109 3797 2882 3972 
Q 2656 4147 2194 4147 
L 1259 4147 
z
M 628 4666 
L 2241 4666 
Q 2963 4666 3353 4366 
Q 3744 4066 3744 3513 
Q 3744 3084 3544 2831 
Q 3344 2578 2956 2516 
Q 3422 2416 3680 2098 
Q 3938 1781 3938 1306 
Q 3938 681 3513 340 
Q 3088 0 2303 0 
L 628 0 
L 628 4666 
z
" transform="scale(0.015625)"/>
       <path id="DejaVuSans-41" d="M 2188 4044 
L 1331 1722 
L 3047 1722 
L 2188 4044 
z
M 1831 4666 
L 2547 4666 
L 4325 0 
L 3669 0 
L 3244 1197 
L 1141 1197 
L 716 0 
L 50 0 
L 1831 4666 
z
" transform="scale(0.015625)"/>
      </defs>
      <use xlink:href="#DejaVuSans-53"/>
      <use xlink:href="#DejaVuSans-50" transform="translate(63.476562 0)"/>
      <use xlink:href="#DejaVuSans-4c" transform="translate(123.779297 0)"/>
      <use xlink:href="#DejaVuSans-20" transform="translate(179.492188 0)"/>
      <use xlink:href="#DejaVuSans-28" transform="translate(211.279297 0)"/>
      <use xlink:href="#DejaVuSans-64" transform="translate(250.292969 0)"/>
      <use xlink:href="#DejaVuSans-42" transform="translate(313.769531 0)"/>
      <use xlink:href="#DejaVuSans-41" transform="translate(382.373047 0)"/>
      <use xlink:href="#DejaVuSans-29" transform="translate(450.78125 0)"/>
     </g>
    </g>
   </g>
   <g id="line2d_55">
    <path d="M 51.493242 93.656939 
L 57.198394 90.590173 
L 62.625131 91.935898 
L 67.79937 93.571996 
L 72.743565 96.629596 
L 77.477304 97.296626 
L 82.017775 96.168339 
L 86.38014 93.773759 
L 90.577849 93.807995 
L 94.622879 92.642984 
L 98.525949 92.015676 
L 102.296685 93.067183 
L 105.943768 93.31367 
L 109.475052 96.358678 
L 112.897663 98.335951 
L 116.218091 97.670803 
L 119.44226 98.926083 
L 122.575596 93.745205 
L 125.623077 97.700684 
L 128.589281 101.923996 
L 131.478432 102.17783 
L 134.294433 99.79569 
L 137.040895 94.854203 
L 139.721171 92.942279 
L 142.338376 86.589483 
L 144.89541 80.819699 
L 147.394977 74.24987 
L 149.839605 71.898264 
L 152.231656 68.548479 
L 154.573344 70.198998 
L 156.866746 71.127425 
L 159.113814 71.314118 
L 161.316383 72.539978 
L 163.47618 69.287621 
L 165.594836 66.541471 
L 167.673888 61.897944 
L 169.714791 61.56005 
L 171.718919 64.354523 
L 173.687573 70.035159 
L 175.621988 72.212472 
L 177.523335 75.014546 
L 179.392725 75.738779 
L 181.231214 74.554261 
L 183.039808 70.364883 
L 184.819463 67.565794 
L 186.571091 65.623423 
L 188.295561 66.946439 
L 189.993702 69.508659 
L 191.666306 67.871128 
L 193.31413 70.287483 
L 194.937897 73.790185 
L 196.5383 76.581117 
L 198.116001 76.287852 
L 199.671636 76.772353 
L 202.719116 82.064276 
L 204.212106 83.714153 
L 207.139277 79.459335 
L 209.991384 77.269573 
L 211.390472 81.463973 
L 212.77218 80.228046 
L 214.136935 80.507395 
L 216.817211 78.220891 
L 219.434416 73.763637 
L 220.720281 76.921842 
L 221.99145 78.555314 
L 223.248255 77.235334 
L 224.491017 78.1136 
L 225.720047 78.500032 
L 226.935645 74.11471 
L 228.1381 70.775185 
L 229.327695 68.273205 
L 230.504702 66.707295 
L 231.669383 66.85479 
L 232.821996 64.987597 
L 233.962786 64.860858 
L 235.091994 64.450898 
L 236.209854 65.688357 
L 237.31659 66.42544 
L 238.412422 67.396316 
L 239.497563 68.834042 
L 241.636592 78.834418 
L 242.690875 79.104802 
L 243.735259 71.821759 
L 244.769928 68.44383 
L 245.79506 68.591119 
L 246.810831 69.583283 
L 247.817408 72.502141 
L 248.814958 72.268732 
L 249.803641 71.696561 
L 250.783613 71.645755 
L 251.755026 70.743576 
L 252.718028 72.000711 
L 253.672764 69.869126 
L 254.619375 68.937343 
L 255.557997 71.437442 
L 257.411808 83.813468 
L 258.327254 86.299265 
L 259.235227 84.822045 
L 260.135848 79.882725 
L 261.029235 78.153779 
L 261.915503 79.822807 
L 262.794765 80.597394 
L 263.667131 82.552193 
L 264.532708 85.315078 
L 265.391601 85.923638 
L 266.243912 84.316921 
L 267.089742 84.188892 
L 267.929188 82.828647 
L 268.762346 81.118361 
L 269.589309 78.145834 
L 270.41017 77.967919 
L 271.225016 80.871135 
L 272.033937 85.326474 
L 272.837017 85.182093 
L 273.634339 88.526664 
L 274.425987 88.098481 
L 275.992578 90.616546 
L 277.537409 85.027281 
L 278.301853 81.908927 
L 279.061078 78.05398 
L 280.564156 66.000816 
L 282.047192 62.033333 
L 282.78136 60.549153 
L 283.510714 61.840384 
L 284.235317 62.798921 
L 284.955229 61.704838 
L 285.670512 61.51123 
L 287.087423 69.533885 
L 287.789168 73.450715 
L 288.486512 78.275798 
L 289.179512 85.65077 
L 289.86822 89.639693 
L 290.55269 90.931203 
L 291.232974 89.859872 
L 291.909123 88.09145 
L 292.581186 86.870168 
L 293.249212 84.476935 
L 293.91325 82.731721 
L 294.573348 84.215893 
L 295.229551 86.472506 
L 295.881905 85.062763 
L 296.530455 85.887034 
L 297.175246 83.953483 
L 297.81632 81.560565 
L 298.453721 78.107902 
L 299.087489 76.785886 
L 299.717667 76.524454 
L 300.344294 70.957287 
L 300.967411 69.902041 
L 301.587057 69.189249 
L 302.203269 69.399198 
L 303.425546 69.027486 
L 304.031684 68.771936 
L 304.634537 69.393255 
L 305.23414 70.821214 
L 307.013795 80.644698 
L 307.600741 79.605105 
L 308.184607 80.498502 
L 308.765423 81.043147 
L 309.343222 84.000622 
L 309.918035 83.736824 
L 310.489893 85.039328 
L 311.058825 84.817137 
L 311.624863 85.498161 
L 312.748368 90.484717 
L 313.305893 90.912599 
L 313.860638 87.116256 
L 314.961895 78.440347 
L 315.508462 76.841606 
L 316.593603 75.823481 
L 317.132229 78.574668 
L 317.668259 78.913415 
L 318.201719 77.36772 
L 318.732632 81.585778 
L 319.261022 82.770438 
L 319.786915 83.071319 
L 320.310333 82.132872 
L 320.831299 83.47003 
L 321.349836 85.789074 
L 321.865968 84.024538 
L 322.379715 85.693451 
L 322.8911 86.066917 
L 323.400145 86.81806 
L 323.90687 86.590048 
L 325.413341 90.916798 
L 326.406438 99.456641 
L 326.899681 100.089248 
L 327.390746 103.90283 
L 327.879652 105.595492 
L 328.366419 104.722184 
L 329.333609 109.687232 
L 329.814068 109.860477 
L 331.715414 92.249193 
L 332.185716 88.630143 
L 332.654037 87.092644 
L 333.120394 89.27819 
L 333.584804 88.344868 
L 334.047283 89.166038 
L 334.507847 87.730847 
L 334.966512 88.125011 
L 335.423294 86.069938 
L 335.878206 84.642689 
L 336.331266 81.525397 
L 336.782489 79.729781 
L 337.231887 80.859705 
L 337.679478 82.909722 
L 338.125274 82.155083 
L 338.569291 81.974069 
L 339.011543 84.839677 
L 339.452042 85.956529 
L 339.890805 88.328347 
L 340.327843 86.807333 
L 340.76317 86.572315 
L 341.196801 84.154715 
L 341.628747 85.360843 
L 342.48764 94.935502 
L 342.914612 96.621351 
L 343.339952 97.503788 
L 344.185781 92.726643 
L 344.606296 90.385164 
L 345.025227 89.008939 
L 345.442586 89.807386 
L 345.858385 93.708149 
L 346.272636 100.619196 
L 346.685349 103.874766 
L 347.096536 101.473317 
L 348.321056 92.255359 
L 348.726251 91.175112 
L 349.129976 92.621374 
L 349.532241 88.906608 
L 349.933056 87.590875 
L 350.332432 88.563175 
L 350.730379 88.008875 
L 351.126907 87.683385 
L 351.522027 89.518049 
L 351.915748 91.982399 
L 352.30808 95.773912 
L 352.699034 96.412177 
L 353.088617 96.04399 
L 353.476841 94.237409 
L 353.863715 93.314749 
L 354.249248 93.038591 
L 354.633449 93.383644 
L 355.016327 93.120896 
L 355.778153 94.509261 
L 356.157118 93.763038 
L 356.534795 94.009244 
L 356.911195 91.429905 
L 357.286326 90.692148 
L 357.660195 92.15681 
L 358.404185 99.485536 
L 359.143232 109.796428 
L 359.510922 110.068838 
L 359.8774 108.38457 
L 360.242675 109.030437 
L 360.606754 109.126852 
L 360.969645 106.50694 
L 361.331356 106.196181 
L 361.691895 105.706534 
L 362.051269 106.635543 
L 362.409485 108.006038 
L 362.766551 107.114699 
L 363.122475 106.631578 
L 363.477263 104.707576 
L 363.830924 103.872406 
L 364.183463 103.691843 
L 364.534889 103.261009 
L 364.885207 100.566049 
L 365.234426 99.718402 
L 365.582552 98.068696 
L 365.929591 98.841067 
L 366.275551 102.499885 
L 366.620439 103.161453 
L 366.96426 104.378501 
L 367.64873 112.549529 
L 367.989392 113.170974 
L 368.329014 117.524912 
L 368.667602 115.354493 
L 369.005162 116.810746 
L 369.341702 113.716547 
L 369.677225 112.205013 
L 370.01174 112.469918 
L 370.345252 112.38399 
L 371.00929 104.867926 
L 371.339828 104.890636 
L 371.669387 105.391769 
L 371.997973 103.92679 
L 372.32559 105.390074 
L 372.652246 106.132482 
L 372.977945 104.723361 
L 373.302692 99.863688 
L 373.949357 103.280667 
L 374.271286 103.67913 
L 374.592285 103.3308 
L 374.91236 102.790691 
L 375.231517 104.751885 
L 375.54976 104.118431 
L 376.183529 95.43899 
L 376.499064 94.204406 
L 376.813707 93.879005 
L 377.127461 91.895534 
L 377.440334 92.679175 
L 378.063451 97.251465 
L 378.373705 97.802821 
L 379.299309 107.590734 
L 379.912126 102.842964 
L 380.217273 102.765991 
L 380.521586 102.848325 
L 380.825068 103.673237 
L 381.127724 102.20175 
L 381.429559 101.460447 
L 381.730577 97.919863 
L 382.030782 98.734751 
L 382.33018 105.027662 
L 382.628773 106.88317 
L 382.926567 109.748878 
L 383.223566 110.207844 
L 383.519775 109.509658 
L 383.815196 107.427136 
L 384.109835 103.05202 
L 384.403695 100.97278 
L 384.696781 97.86716 
L 385.280646 94.677045 
L 385.571434 95.558165 
L 385.861463 98.044156 
L 386.439262 105.495097 
L 386.72704 107.397717 
L 387.300371 105.500447 
L 387.585932 107.7304 
L 388.154865 113.535389 
L 388.438244 114.09737 
L 389.002844 117.917164 
L 389.844407 125.685657 
L 390.123519 125.141633 
L 390.679651 129.445471 
L 391.233016 122.234782 
L 391.508669 124.245855 
L 391.783641 125.210235 
L 392.057935 128.788427 
L 392.331554 130.025785 
L 392.876781 126.648004 
L 393.148395 126.33059 
L 393.419348 124.699195 
L 393.689642 123.832242 
L 393.959281 122.487886 
L 394.496606 126.430917 
L 394.764299 126.624001 
L 395.031348 127.658334 
L 395.297758 123.169323 
L 395.563531 121.000277 
L 395.828671 117.667135 
L 396.09318 117.776453 
L 396.357062 118.136886 
L 396.620319 120.286895 
L 396.882955 121.174847 
L 397.927339 112.268789 
L 398.18691 110.719668 
L 398.445876 111.521934 
L 399.219177 115.461618 
L 399.475754 119.356852 
L 399.731741 118.314178 
L 399.98714 120.204933 
L 400.241953 120.735732 
L 400.496184 122.070814 
L 400.749836 119.835275 
L 401.00291 118.912775 
L 401.25541 117.328038 
L 401.507337 118.509454 
L 402.259715 110.149098 
L 402.509381 110.856823 
L 402.758488 112.625101 
L 403.007038 110.645507 
L 403.255033 110.69964 
L 403.502477 109.051508 
L 403.749372 110.266467 
L 403.99572 109.527214 
L 404.486785 117.176516 
L 404.731507 114.40528 
L 405.219342 113.359016 
L 405.462459 110.654971 
L 405.705046 111.70259 
L 406.429648 119.484764 
L 406.670137 119.050654 
L 406.910107 118.997026 
L 407.149561 118.429359 
L 407.3885 117.084982 
L 407.626927 116.801343 
L 407.864843 116.713485 
L 408.102252 119.555788 
L 408.339156 118.170207 
L 408.811454 122.02912 
L 409.281755 117.345321 
L 409.516162 116.725564 
L 410.216434 106.006475 
L 410.448881 106.476305 
L 410.680844 106.277253 
L 410.912324 105.619303 
L 411.143323 105.459273 
L 411.373843 102.342812 
L 411.603887 101.770855 
L 411.833456 103.523545 
L 412.062552 106.221253 
L 412.291177 111.192876 
L 412.519333 112.799157 
L 412.747022 113.205526 
L 413.201007 118.345819 
L 413.427306 116.810004 
L 413.878528 119.191722 
L 414.327927 121.531311 
L 414.775517 124.940443 
L 414.998639 123.569133 
L 415.665331 125.575079 
L 415.886676 127.540588 
L 416.107582 125.974833 
L 416.32805 125.758006 
L 416.548082 127.503378 
L 416.76768 128.119702 
L 417.205578 124.936123 
L 417.641759 120.3722 
L 417.85921 119.977523 
L 418.076237 118.887888 
L 418.292841 120.160892 
L 418.724787 119.155698 
L 419.369578 112.497761 
L 419.58368 111.612484 
L 419.797371 113.882145 
L 420.010652 114.518154 
L 420.223525 112.735511 
L 420.435991 115.115014 
L 420.648052 115.634948 
L 420.85971 116.561824 
L 421.070966 118.161887 
L 421.281821 118.516394 
L 421.492277 118.47041 
L 421.702336 120.54443 
L 421.911999 120.548958 
L 422.330142 119.309348 
L 422.538626 119.749164 
L 423.161743 121.823127 
L 423.368675 120.908363 
L 423.575223 121.021439 
L 423.781388 121.705054 
L 423.987172 122.811396 
L 424.192576 125.656001 
L 424.397601 125.04391 
L 424.602249 124.924903 
L 424.806521 127.049443 
L 425.010418 126.568638 
L 425.213943 125.502996 
L 425.417095 123.698881 
L 425.822291 124.911058 
L 426.024337 123.824733 
L 426.226016 121.954745 
L 426.828869 113.443308 
L 427.228963 115.865528 
L 427.627623 114.524205 
L 427.826419 114.330515 
L 428.02486 114.442215 
L 428.222947 112.426281 
L 428.420682 109.176151 
L 428.618067 110.142136 
L 428.815101 108.744944 
L 429.011788 109.362171 
L 429.40412 114.960402 
L 429.599768 113.079659 
L 429.795073 114.225646 
L 429.990036 116.485498 
L 430.184657 115.917703 
L 431.152688 107.916799 
L 431.345287 108.865474 
L 431.537554 114.419099 
L 431.729488 116.28276 
L 431.921092 116.009885 
L 432.112367 113.449725 
L 432.303313 112.931695 
L 432.684225 119.312526 
L 432.874192 119.986336 
L 433.253157 114.867696 
L 433.630835 110.62912 
L 433.819194 110.694149 
L 434.007235 113.541654 
L 434.194958 114.15546 
L 434.382366 115.29867 
L 434.569457 117.362201 
L 434.756235 116.210047 
L 435.128852 121.116052 
L 435.500225 127.297244 
L 435.685447 126.128567 
L 435.870362 127.205089 
L 436.05497 126.526636 
L 436.606961 119.163967 
L 436.790351 121.880704 
L 436.973439 120.139817 
L 437.702793 123.983961 
L 437.884387 126.72734 
L 438.065685 125.840709 
L 438.427396 121.755101 
L 438.607811 122.290492 
L 438.967766 119.482484 
L 439.147308 121.624594 
L 439.505525 116.614458 
L 439.684201 118.650373 
L 440.040695 115.259632 
L 440.218515 115.676944 
L 440.39605 114.427472 
L 440.750274 118.360691 
L 441.103373 124.778622 
L 441.279503 123.341177 
L 441.455354 124.149731 
L 441.630928 124.305807 
L 441.806225 122.801986 
L 441.981247 124.484781 
L 442.155993 123.646591 
L 442.330466 123.714498 
L 442.678591 126.40542 
L 442.852246 126.503068 
L 443.025631 126.838314 
L 443.198745 128.153166 
L 443.544168 138.44076 
L 443.716478 137.608222 
L 444.231812 127.96601 
L 444.403061 127.39888 
L 444.574047 127.685409 
L 444.915231 124.12126 
L 445.255372 129.173741 
L 445.594476 124.889885 
L 445.763642 124.297191 
L 445.93255 121.004919 
L 446.101202 120.15753 
L 446.269599 122.566816 
L 446.437741 123.354667 
L 446.60563 125.838595 
L 446.773265 123.65453 
L 446.940648 125.86332 
L 447.10778 124.879544 
L 447.274661 125.601047 
L 447.441291 124.720189 
L 447.607673 122.18009 
L 447.939691 125.946716 
L 448.10533 127.142411 
L 448.435868 122.610037 
L 448.60077 124.214473 
L 448.929841 121.721414 
L 449.094012 121.235522 
L 449.257942 123.352882 
L 449.42163 120.856076 
L 449.748285 124.309009 
L 449.911254 124.389618 
L 450.073984 125.661032 
L 450.398732 124.215221 
L 450.560751 121.589398 
L 450.722535 121.217318 
L 450.884083 123.377624 
L 451.045397 123.668556 
L 451.206478 120.503248 
L 451.367325 121.62468 
L 451.688324 129.54243 
L 452.008399 135.388113 
L 452.327556 133.659603 
L 452.963135 139.17824 
L 453.121464 139.40002 
L 453.595104 137.686601 
L 453.752536 138.29601 
L 453.909746 137.269143 
L 454.066734 138.792938 
L 454.223501 136.660135 
L 454.536374 129.396271 
L 454.69248 131.95744 
L 454.848368 131.015126 
L 455.004038 132.088257 
L 455.314726 129.488186 
L 455.469745 131.766218 
L 455.624548 131.676978 
L 455.779136 129.479469 
L 455.933509 129.285301 
L 456.087669 131.326411 
L 456.241615 131.379884 
L 456.54887 136.02296 
L 456.702179 136.098949 
L 457.008166 137.24711 
L 457.160844 139.037401 
L 457.313313 139.343882 
L 457.465573 141.581649 
L 457.617625 140.675156 
L 457.921107 144.406335 
L 458.072538 142.436862 
L 458.374783 145.325832 
L 458.676209 143.312715 
L 458.826616 142.183899 
L 458.97682 144.439305 
L 459.126822 141.425429 
L 459.276621 142.056736 
L 460.022607 137.605646 
L 460.171206 138.479462 
L 460.319606 137.799288 
L 460.615814 139.896874 
L 460.763623 138.679028 
L 461.058652 140.030932 
L 461.205874 139.566085 
L 461.352902 138.357056 
L 461.499735 138.262556 
L 461.792821 135.862971 
L 462.085136 133.03921 
L 462.376686 136.003555 
L 462.812582 132.675226 
L 462.957502 134.755007 
L 463.246777 130.313611 
L 463.535301 135.58438 
L 463.679283 135.449658 
L 463.823079 135.822365 
L 463.966689 137.294409 
L 464.396411 133.808185 
L 464.539283 134.050246 
L 464.824478 137.219283 
L 464.966802 137.115341 
L 465.108944 136.36402 
L 465.250905 139.390376 
L 465.534283 138.521725 
L 465.675702 136.237849 
L 465.958002 135.868127 
L 466.098884 136.982291 
L 466.239587 137.00807 
L 466.520461 138.856925 
L 466.800628 133.748517 
L 466.940447 134.266828 
L 467.080091 134.147222 
L 467.219559 135.119235 
L 467.358853 134.140347 
L 467.497972 136.085469 
L 467.636918 143.091377 
L 467.91429 139.980039 
L 468.052717 143.121665 
L 468.190972 142.627102 
L 468.604709 137.824072 
L 468.879681 133.418041 
L 469.016912 133.507123 
L 469.153974 132.490338 
L 469.427593 136.30581 
L 469.564151 137.001953 
L 469.700541 137.086383 
L 469.836764 140.8062 
L 469.97282 139.658626 
L 470.10871 137.057508 
L 470.379994 138.216099 
L 470.515388 138.924827 
L 470.650617 141.000118 
L 470.920583 141.47061 
L 471.324308 143.350329 
L 471.458558 143.311271 
L 471.592646 144.135273 
L 471.993943 140.680035 
L 472.260673 144.374743 
L 472.393798 144.402453 
L 472.526764 144.908336 
L 472.659571 147.48043 
L 472.924711 145.759993 
L 473.18922 149.284718 
L 473.321239 148.694318 
L 473.584808 145.704051 
L 473.716359 146.109419 
L 473.847754 143.522812 
L 473.978994 143.803181 
L 474.11008 144.599584 
L 474.241011 144.164298 
L 474.502412 147.086356 
L 474.632883 146.455339 
L 474.7632 146.61865 
L 474.893365 147.329338 
L 475.023378 147.272724 
L 475.412508 149.875097 
L 475.541916 149.741347 
L 475.671173 149.981721 
L 475.800281 148.664688 
L 476.058047 145.095267 
L 476.186706 147.445188 
L 476.315217 146.072329 
L 476.699861 139.915266 
L 476.827781 139.362915 
L 476.955553 141.709434 
L 477.083179 141.045556 
L 477.337993 137.380905 
L 477.465181 137.257185 
L 477.592224 137.737426 
L 477.719122 139.879613 
L 477.972484 148.750343 
L 478.225271 147.139091 
L 478.351449 149.089484 
L 478.603377 147.074953 
L 478.729127 145.396422 
L 478.854735 146.072632 
L 478.980202 147.883968 
L 479.105527 144.620454 
L 479.230711 147.118525 
L 479.355755 147.384315 
L 479.605421 142.699724 
L 479.730044 142.819548 
L 479.978872 146.27766 
L 480.103077 142.929747 
L 480.351073 144.735162 
L 480.474864 144.550641 
L 480.598517 144.720633 
L 480.845412 148.293626 
L 480.968654 147.63295 
L 481.09176 147.59366 
L 481.582825 155.597634 
L 481.827547 154.314853 
L 481.949706 152.948026 
L 482.193623 155.089277 
L 482.801086 149.115092 
L 482.922181 149.698076 
L 483.043145 148.710804 
L 483.163977 143.605851 
L 483.284678 145.265342 
L 483.405248 144.757414 
L 483.525688 143.155044 
L 483.645997 143.580455 
L 483.886227 145.957098 
L 484.125938 152.117324 
L 484.365134 149.737722 
L 484.484539 151.056497 
L 484.722966 149.942849 
L 484.960883 152.390009 
L 485.079651 150.888673 
L 485.316807 154.070389 
L 485.435195 151.518576 
L 485.553458 151.397125 
L 485.671595 152.247902 
L 485.789607 148.67615 
L 485.907494 148.80655 
L 486.142893 151.706764 
L 486.377795 152.86689 
L 486.72922 160.299668 
L 486.846116 157.416059 
L 486.962889 158.100944 
L 487.079539 158.063427 
L 487.196067 159.108918 
L 487.428758 156.401079 
L 487.544921 156.211663 
L 487.660962 156.347591 
L 487.776883 155.810192 
L 487.892684 156.001155 
L 488.008363 156.996061 
L 488.239363 156.538878 
L 488.354682 155.142518 
L 488.699927 160.936363 
L 488.929496 158.029658 
L 489.272963 160.564916 
L 489.387217 159.10051 
L 489.615373 160.490735 
L 489.729276 160.398723 
L 490.070286 163.021307 
L 490.749186 155.247177 
L 490.861934 157.511065 
L 491.087088 156.343438 
L 491.199494 156.481889 
L 491.423967 154.629827 
L 491.536033 155.636578 
L 491.759828 154.340066 
L 492.094679 160.171304 
L 492.206072 160.348004 
L 492.317354 161.594923 
L 492.650532 156.676037 
L 492.76137 157.776039 
L 492.982716 154.496233 
L 493.093224 155.879162 
L 493.203622 155.072802 
L 493.42409 156.064324 
L 493.53416 155.389215 
L 493.644122 153.131503 
L 493.863719 154.828659 
L 493.973355 155.80223 
L 494.082884 155.758897 
L 494.301618 158.946925 
L 494.410823 158.860677 
L 494.519922 157.904238 
L 494.737799 154.002582 
L 494.95525 155.71363 
L 495.172276 152.208299 
L 495.38888 154.711034 
L 495.605063 151.956798 
L 495.820827 156.597741 
L 495.928552 156.219794 
L 496.143689 157.786873 
L 496.358411 158.12457 
L 496.465617 157.79002 
L 496.57272 158.850721 
L 496.786616 161.278997 
L 497.000102 160.131103 
L 497.106692 160.283015 
L 497.319564 154.565976 
L 497.425848 156.798478 
L 497.532031 155.289168 
L 497.744092 156.767899 
L 497.95575 155.120163 
L 498.167005 157.932808 
L 498.272483 154.960803 
L 498.483138 158.633637 
L 498.588317 158.437725 
L 498.693396 158.939752 
L 498.798375 160.177054 
L 498.903256 159.445647 
L 499.112722 164.678406 
L 499.321793 166.374287 
L 499.426182 166.911154 
L 499.634666 169.584055 
L 499.738761 169.787725 
L 499.842759 169.396768 
L 499.94666 171.370405 
L 500.361297 169.426014 
L 500.568037 164.425179 
L 500.671263 164.357098 
L 500.774393 165.373831 
L 501.185961 156.95402 
L 501.391175 166.65547 
L 501.493641 163.792869 
L 501.698288 167.418082 
L 501.800471 165.783051 
L 501.90256 166.175716 
L 502.004556 165.725373 
L 502.309982 163.424775 
L 502.411605 163.783353 
L 502.513135 163.485845 
L 502.614572 163.927381 
L 503.019399 168.541627 
L 503.221262 165.891378 
L 503.322056 168.130163 
L 503.422758 167.875399 
L 503.52337 167.946599 
L 503.62389 167.583419 
L 503.72432 166.598192 
L 503.82466 167.287846 
L 503.924908 167.150874 
L 504.225114 163.540027 
L 504.325003 163.828453 
L 504.424802 163.225351 
L 504.524511 164.859921 
L 504.624132 161.987147 
L 504.723663 162.142066 
L 504.823105 164.696002 
L 505.021723 161.494335 
L 505.219987 164.876432 
L 505.318987 166.20811 
L 505.417898 166.14437 
L 505.516722 164.785937 
L 505.615458 166.166989 
L 505.714106 165.94481 
L 506.009528 163.453576 
L 506.20604 164.989103 
L 506.304166 162.105831 
L 506.402206 162.332603 
L 506.50016 164.267789 
L 506.695808 160.65947 
L 506.891113 168.370708 
L 506.988637 166.970216 
L 507.086075 168.141606 
L 507.183429 167.761901 
L 507.280697 167.882588 
L 507.474978 170.758949 
L 507.668921 164.552228 
L 507.862526 167.832318 
L 508.055794 163.540101 
L 508.152303 163.598566 
L 508.248728 163.91367 
L 508.441327 168.704677 
L 508.537502 167.914576 
L 508.825528 163.8525 
L 508.921371 163.2844 
L 509.11281 168.148682 
L 509.208406 172.142204 
L 509.30392 171.491427 
L 509.494703 169.207522 
L 509.685158 167.215086 
L 509.780264 163.643227 
L 509.970232 165.150175 
L 510.065094 161.800367 
L 510.349197 163.651256 
L 510.538196 162.622918 
L 510.632575 164.331781 
L 510.726875 164.120989 
L 510.821094 162.77239 
L 511.009294 166.655979 
L 511.103275 165.993196 
L 511.197176 166.027911 
L 511.478405 170.472667 
L 511.57199 170.191932 
L 511.665497 170.662402 
L 511.758925 170.244755 
L 511.852275 170.46751 
L 511.945546 170.169975 
L 512.224892 166.690729 
L 512.317851 166.051034 
L 512.503538 166.865346 
L 512.596265 169.106166 
L 512.688914 167.937566 
L 512.873983 169.483248 
L 513.058744 165.588558 
L 513.335311 170.753909 
L 513.427347 170.725844 
L 513.794734 164.488722 
L 513.886391 163.377478 
L 513.977973 163.669205 
L 514.069479 164.363777 
L 514.16091 161.387435 
L 514.343548 166.680371 
L 514.434754 167.239206 
L 514.616942 164.8469 
L 514.798833 169.100552 
L 514.889667 168.234651 
L 514.980427 169.121434 
L 515.252262 165.539749 
L 515.433118 167.894747 
L 515.61368 165.490711 
L 515.703851 166.284222 
L 515.883974 169.427488 
L 515.973926 164.895246 
L 516.063806 166.385083 
L 516.153613 164.551884 
L 516.33301 166.965259 
L 516.4226 166.697095 
L 516.780241 171.922964 
L 517.047718 166.205239 
L 517.136735 166.743283 
L 517.22568 165.679818 
L 517.314554 162.90694 
L 517.49209 165.583138 
L 517.669343 161.570481 
L 517.757863 163.19071 
L 517.846313 162.769014 
L 517.934693 163.564488 
L 518.199412 168.766658 
L 518.287512 167.962772 
L 518.463503 173.158923 
L 518.551394 172.909152 
L 518.639215 169.963835 
L 518.726968 170.313253 
L 518.902265 165.630553 
L 518.98981 166.121423 
L 519.077286 166.186606 
L 519.252033 166.79224 
L 519.339303 169.666208 
L 519.426505 167.026064 
L 519.513639 167.286394 
L 519.600704 169.355111 
L 519.687702 169.140319 
L 519.774631 167.947255 
L 519.861492 170.486227 
L 520.035012 169.623988 
L 520.12167 171.129561 
L 520.294785 169.466123 
L 520.381241 169.757341 
L 520.553953 171.582035 
L 520.640208 169.914611 
L 520.726396 170.101248 
L 520.812518 169.955825 
L 520.898573 167.694705 
L 521.070483 168.626299 
L 521.156339 167.997071 
L 521.242128 168.342268 
L 521.413509 170.811327 
L 521.499101 170.087752 
L 521.584626 170.402081 
L 521.670086 169.141099 
L 521.926073 174.213273 
L 522.011271 172.303493 
L 522.181471 173.966554 
L 522.436285 177.100197 
L 522.690516 171.284711 
L 522.859681 170.118233 
L 523.112948 174.502528 
L 523.197242 173.302838 
L 523.281472 173.350641 
L 523.533781 175.155049 
L 523.701669 168.254755 
L 523.785518 168.509106 
L 523.869305 171.103505 
L 523.953028 169.962118 
L 524.036688 171.839456 
L 524.120285 171.481087 
L 524.203819 172.257897 
L 524.287291 171.939548 
L 524.3707 173.671199 
L 524.454047 171.255377 
L 524.620553 173.016177 
L 524.952819 170.681778 
L 525.035731 172.576987 
L 525.118581 170.939707 
L 525.449365 178.53414 
L 525.696809 179.006628 
L 525.779168 178.628459 
L 525.861467 178.953923 
L 526.025881 177.201969 
L 526.107997 176.648465 
L 526.272047 173.055399 
L 526.435856 174.691764 
L 526.599423 170.137641 
L 526.762751 173.163801 
L 526.925839 178.251615 
L 527.007294 176.966378 
L 527.2513 175.046706 
L 527.332516 176.760088 
L 527.494772 175.654081 
L 527.575811 177.148711 
L 527.656791 175.845828 
L 527.737712 178.273339 
L 527.980123 173.07332 
L 528.060809 175.944172 
L 528.141437 173.098613 
L 528.222006 173.479422 
L 528.302517 174.269993 
L 528.38297 173.338507 
L 528.543701 176.170928 
L 528.704201 179.616105 
L 528.864469 178.029351 
L 529.024507 179.65826 
L 529.104439 179.163611 
L 529.184314 180.78814 
L 529.343892 178.026209 
L 529.423596 179.758742 
L 529.503242 179.351537 
L 529.582831 176.507376 
L 529.662364 176.992848 
L 529.821258 180.195504 
L 529.90062 180.512819 
L 529.979926 181.726925 
L 530.059175 181.258834 
L 530.138368 178.974619 
L 530.296584 181.280456 
L 530.375608 181.283508 
L 530.612343 182.444271 
L 530.691143 182.462624 
L 530.769887 183.591256 
L 530.927208 182.382185 
L 531.005786 183.162028 
L 531.084307 183.032117 
L 531.241185 180.334302 
L 531.397841 182.657126 
L 531.476087 181.720278 
L 531.554278 182.654609 
L 531.632413 182.27184 
L 531.710494 179.785746 
L 531.78852 180.400459 
L 531.866491 179.94102 
L 531.944408 180.920038 
L 532.02227 179.730149 
L 532.100078 180.40886 
L 532.177831 179.170819 
L 532.333175 181.420009 
L 532.488302 180.013365 
L 532.565784 180.292703 
L 532.643213 179.797046 
L 532.720587 180.162571 
L 532.797908 179.617366 
L 532.875176 180.397761 
L 532.952389 180.276504 
L 533.029549 178.736418 
L 533.106655 181.387526 
L 533.260708 179.196418 
L 533.337655 179.022775 
L 533.414548 179.074554 
L 533.491388 180.055679 
L 533.568175 178.382203 
L 533.644909 179.019574 
L 533.874794 181.723043 
L 533.951317 180.808029 
L 534.409353 185.55139 
L 534.485509 184.97598 
L 534.637665 180.905868 
L 534.865509 185.361711 
L 535.244216 178.843084 
L 535.319803 179.339208 
L 535.470823 182.178607 
L 535.546256 180.229201 
L 535.621638 181.03453 
L 535.696969 183.285198 
L 535.772249 182.974383 
L 535.847478 181.494371 
L 535.922656 182.245791 
L 535.997783 182.079158 
L 536.07286 182.555409 
L 536.222861 187.575078 
L 536.297786 186.057011 
L 536.372661 186.521532 
L 536.447485 186.351951 
L 536.671656 183.267449 
L 536.895376 186.470528 
L 536.969849 186.983892 
L 537.118647 185.477463 
L 537.192971 180.276329 
L 537.267245 181.87464 
L 537.415646 183.759329 
L 537.489772 181.275219 
L 537.563848 183.610742 
L 537.637876 182.867275 
L 537.711854 178.677559 
L 537.785783 179.043928 
L 538.228327 186.600959 
L 538.301914 186.452485 
L 538.375452 189.019933 
L 538.448941 185.676715 
L 538.522382 185.706011 
L 538.669118 186.588875 
L 538.742414 185.811876 
L 538.88886 187.209572 
L 538.962011 186.611199 
L 539.181176 189.028509 
L 539.254135 188.959203 
L 539.327046 190.576408 
L 539.39991 190.147115 
L 539.472726 189.928405 
L 539.618214 187.062815 
L 539.908622 193.276786 
L 539.981105 192.8499 
L 540.053542 190.620953 
L 540.125931 192.054536 
L 540.198273 191.950085 
L 540.270568 191.221236 
L 540.415018 192.118761 
L 540.55928 191.167974 
L 540.631341 191.235987 
L 540.703355 194.663988 
L 540.775323 194.512767 
L 540.847244 193.644653 
L 540.919119 191.333846 
L 541.062729 193.65069 
L 541.134465 192.780482 
L 541.206154 190.243209 
L 541.277797 190.860602 
L 541.349394 193.070584 
L 541.420945 190.788438 
L 541.49245 191.263637 
L 541.70669 192.483463 
L 541.778012 189.540584 
L 541.849288 189.624445 
L 542.062842 188.053506 
L 542.346944 193.002285 
L 542.488724 189.048431 
L 542.559546 190.267199 
L 542.630323 194.388836 
L 542.701055 194.119069 
L 542.771742 193.82482 
L 542.842384 192.481969 
L 542.912981 194.832983 
L 542.983534 194.112105 
L 543.054042 194.258936 
L 543.194923 191.537149 
L 543.265297 193.4148 
L 543.335627 192.695985 
L 543.405912 192.744219 
L 543.476153 195.125475 
L 543.686609 192.268196 
L 543.756673 192.130831 
L 543.826692 193.375207 
L 543.896668 192.224257 
L 543.966599 194.005382 
L 544.036487 193.803008 
L 544.10633 193.392259 
L 544.17613 195.071844 
L 544.245886 194.646383 
L 544.524474 189.020308 
L 544.594012 190.246649 
L 544.663507 188.635591 
L 544.732958 189.54643 
L 544.802366 190.288541 
L 544.87173 189.548344 
L 544.941052 192.377699 
L 545.01033 190.324881 
L 545.079565 191.182887 
L 545.217906 193.498259 
L 545.356075 191.046155 
L 545.563007 194.965023 
L 545.631899 194.777235 
L 545.907041 192.360382 
L 545.97572 192.139435 
L 546.181504 190.287786 
L 546.250014 190.203714 
L 546.318482 188.100565 
L 546.386908 189.230129 
L 546.591933 190.492512 
L 546.66019 189.630814 
L 546.864713 193.78931 
L 547.000853 187.789255 
L 547.476033 197.762884 
L 547.611427 194.462687 
L 547.81421 191.520925 
L 548.016623 194.335691 
L 548.151361 192.904816 
L 548.218668 193.330411 
L 548.285935 196.313077 
L 548.353162 195.309514 
L 548.420348 194.161797 
L 548.554598 200.142453 
L 548.621662 203.639073 
L 548.688686 203.304945 
L 548.889515 200.678114 
L 549.089983 198.669954 
L 549.156725 199.34958 
L 549.356712 197.220642 
L 549.489837 197.057222 
L 549.55634 197.151553 
L 549.689227 195.80906 
L 549.755611 198.143705 
L 549.88826 193.982492 
L 549.954525 196.970357 
L 550.02075 196.804334 
L 550.086937 194.881388 
L 550.351289 202.548168 
L 550.417279 199.081764 
L 550.48323 199.859521 
L 550.549141 199.641589 
L 550.746643 196.813554 
L 550.812398 196.843925 
L 550.878115 198.35094 
L 550.943794 196.304103 
L 551.009433 197.703879 
L 551.075034 199.197015 
L 551.140596 198.343578 
L 551.206119 197.469489 
L 551.271604 195.068967 
L 551.533159 200.954024 
L 551.598452 201.119062 
L 551.7941 203.93685 
L 551.989405 202.918949 
L 552.05443 204.432868 
L 552.249279 199.771786 
L 552.314153 199.893914 
L 552.378989 201.659697 
L 552.443787 201.002968 
L 552.57327 199.246026 
L 552.702603 197.544972 
L 552.767213 195.951912 
L 552.831785 196.198068 
L 552.89632 197.536936 
L 553.025278 195.976118 
L 553.089701 196.930487 
L 553.154086 195.883203 
L 553.539619 200.755994 
L 553.603745 199.077441 
L 553.859879 203.279555 
L 554.051593 198.933475 
L 554.115424 199.683806 
L 554.179219 203.453365 
L 554.242977 201.984936 
L 554.434032 198.451645 
L 554.497645 199.190298 
L 554.561221 198.832657 
L 554.62476 198.219484 
L 554.751731 202.487945 
L 554.815162 204.699189 
L 554.878556 203.813103 
L 555.194989 202.077994 
L 555.321311 204.330651 
L 555.384418 204.268665 
L 555.447489 204.08104 
L 555.636488 202.498641 
L 555.76231 205.434308 
L 555.825167 205.167639 
L 555.950775 202.841412 
L 556.013526 204.389984 
L 556.076242 203.68413 
L 556.138922 204.53991 
L 556.201567 203.978399 
L 556.264176 202.311901 
L 556.326751 202.780065 
L 556.38929 202.103272 
L 556.451794 202.476632 
L 556.514263 202.514986 
L 556.639096 200.961257 
L 556.70146 201.233756 
L 556.763789 201.036708 
L 556.888342 199.710363 
L 556.950567 199.980797 
L 557.012756 200.126447 
L 557.074911 198.887684 
L 557.137031 200.557164 
L 557.261168 197.706158 
L 557.570903 203.563616 
L 557.756332 206.155561 
L 557.879779 204.809048 
L 558.00309 206.577673 
L 558.126264 201.963657 
L 558.187799 203.383065 
L 558.249301 201.328661 
L 558.310769 201.71573 
L 558.372203 204.131081 
L 558.433603 203.8612 
L 558.556301 202.309168 
L 558.6176 202.556594 
L 558.678865 205.512757 
L 558.740096 203.968633 
L 558.801293 203.394181 
L 558.923587 206.022323 
L 559.045746 204.203775 
L 559.106775 206.150187 
L 559.167771 204.640056 
L 559.228734 204.140099 
L 559.47225 207.342349 
L 559.593809 201.813415 
L 559.654538 202.014968 
L 559.715235 202.579894 
L 559.897125 200.766091 
L 559.957689 200.652472 
L 560.139184 207.645487 
L 560.199617 207.422313 
L 560.320383 203.952593 
L 560.380718 203.963889 
L 560.441019 204.291762 
L 560.501288 205.668778 
L 560.802143 197.749856 
L 560.862216 199.262767 
L 560.982266 200.330528 
L 561.042243 199.454994 
L 561.102186 200.103054 
L 561.162098 200.028257 
L 561.162098 200.028257 
" clip-path="url(#p3065fa8111)" style="fill: none; stroke: #1f77b4; stroke-linecap: square"/>
   </g>
   <g id="patch_3">
    <path d="M 48.982813 294.590247 
L 48.982813 22.318125 
" style="fill: none; stroke: #000000; stroke-width: 0.8; stroke-linejoin: miter; stroke-linecap: square"/>
   </g>
   <g id="patch_4">
    <path d="M 561.197812 294.590247 
L 561.197812 22.318125 
" style="fill: none; stroke: #000000; stroke-width: 0.8; stroke-linejoin: miter; stroke-linecap: square"/>
   </g>
   <g id="patch_5">
    <path d="M 48.982813 294.590247 
L 561.197812 294.590247 
" style="fill: none; stroke: #000000; stroke-width: 0.8; stroke-linejoin: miter; stroke-linecap: square"/>
   </g>
   <g id="patch_6">
    <path d="M 48.982813 22.318125 
L 561.197812 22.318125 
" style="fill: none; stroke: #000000; stroke-width: 0.8; stroke-linejoin: miter; stroke-linecap: square"/>
   </g>
   <g id="text_14">
    <!-- Ford Explorer Blower Setting 7 - Narrow Band SPL (dBA) -->
    <g transform="translate(137.56375 16.318125) scale(0.12 -0.12)">
     <defs>
      <path id="DejaVuSans-6f" d="M 1959 3097 
Q 1497 3097 1228 2736 
Q 959 2375 959 1747 
Q 959 1119 1226 758 
Q 1494 397 1959 397 
Q 2419 397 2687 759 
Q 2956 1122 2956 1747 
Q 2956 2369 2687 2733 
Q 2419 3097 1959 3097 
z
M 1959 3584 
Q 2709 3584 3137 3096 
Q 3566 2609 3566 1747 
Q 3566 888 3137 398 
Q 2709 -91 1959 -91 
Q 1206 -91 779 398 
Q 353 888 353 1747 
Q 353 2609 779 3096 
Q 1206 3584 1959 3584 
z
" transform="scale(0.015625)"/>
      <path id="DejaVuSans-45" d="M 628 4666 
L 3578 4666 
L 3578 4134 
L 1259 4134 
L 1259 2753 
L 3481 2753 
L 3481 2222 
L 1259 2222 
L 1259 531 
L 3634 531 
L 3634 0 
L 628 0 
L 628 4666 
z
" transform="scale(0.015625)"/>
      <path id="DejaVuSans-78" d="M 3513 3500 
L 2247 1797 
L 3578 0 
L 2900 0 
L 1881 1375 
L 863 0 
L 184 0 
L 1544 1831 
L 300 3500 
L 978 3500 
L 1906 2253 
L 2834 3500 
L 3513 3500 
z
" transform="scale(0.015625)"/>
      <path id="DejaVuSans-70" d="M 1159 525 
L 1159 -1331 
L 581 -1331 
L 581 3500 
L 1159 3500 
L 1159 2969 
Q 1341 3281 1617 3432 
Q 1894 3584 2278 3584 
Q 2916 3584 3314 3078 
Q 3713 2572 3713 1747 
Q 3713 922 3314 415 
Q 2916 -91 2278 -91 
Q 1894 -91 1617 61 
Q 1341 213 1159 525 
z
M 3116 1747 
Q 3116 2381 2855 2742 
Q 2594 3103 2138 3103 
Q 1681 3103 1420 2742 
Q 1159 2381 1159 1747 
Q 1159 1113 1420 752 
Q 1681 391 2138 391 
Q 2594 391 2855 752 
Q 3116 1113 3116 1747 
z
" transform="scale(0.015625)"/>
      <path id="DejaVuSans-6c" d="M 603 4863 
L 1178 4863 
L 1178 0 
L 603 0 
L 603 4863 
z
" transform="scale(0.015625)"/>
      <path id="DejaVuSans-77" d="M 269 3500 
L 844 3500 
L 1563 769 
L 2278 3500 
L 2956 3500 
L 3675 769 
L 4391 3500 
L 4966 3500 
L 4050 0 
L 3372 0 
L 2619 2869 
L 1863 0 
L 1184 0 
L 269 3500 
z
" transform="scale(0.015625)"/>
      <path id="DejaVuSans-74" d="M 1172 4494 
L 1172 3500 
L 2356 3500 
L 2356 3053 
L 1172 3053 
L 1172 1153 
Q 1172 725 1289 603 
Q 1406 481 1766 481 
L 2356 481 
L 2356 0 
L 1766 0 
Q 1100 0 847 248 
Q 594 497 594 1153 
L 594 3053 
L 172 3053 
L 172 3500 
L 594 3500 
L 594 4494 
L 1172 4494 
z
" transform="scale(0.015625)"/>
      <path id="DejaVuSans-69" d="M 603 3500 
L 1178 3500 
L 1178 0 
L 603 0 
L 603 3500 
z
M 603 4863 
L 1178 4863 
L 1178 4134 
L 603 4134 
L 603 4863 
z
" transform="scale(0.015625)"/>
      <path id="DejaVuSans-67" d="M 2906 1791 
Q 2906 2416 2648 2759 
Q 2391 3103 1925 3103 
Q 1463 3103 1205 2759 
Q 947 2416 947 1791 
Q 947 1169 1205 825 
Q 1463 481 1925 481 
Q 2391 481 2648 825 
Q 2906 1169 2906 1791 
z
M 3481 434 
Q 3481 -459 3084 -895 
Q 2688 -1331 1869 -1331 
Q 1566 -1331 1297 -1286 
Q 1028 -1241 775 -1147 
L 775 -588 
Q 1028 -725 1275 -790 
Q 1522 -856 1778 -856 
Q 2344 -856 2625 -561 
Q 2906 -266 2906 331 
L 2906 616 
Q 2728 306 2450 153 
Q 2172 0 1784 0 
Q 1141 0 747 490 
Q 353 981 353 1791 
Q 353 2603 747 3093 
Q 1141 3584 1784 3584 
Q 2172 3584 2450 3431 
Q 2728 3278 2906 2969 
L 2906 3500 
L 3481 3500 
L 3481 434 
z
" transform="scale(0.015625)"/>
      <path id="DejaVuSans-37" d="M 525 4666 
L 3525 4666 
L 3525 4397 
L 1831 0 
L 1172 0 
L 2766 4134 
L 525 4134 
L 525 4666 
z
" transform="scale(0.015625)"/>
      <path id="DejaVuSans-2d" d="M 313 2009 
L 1997 2009 
L 1997 1497 
L 313 1497 
L 313 2009 
z
" transform="scale(0.015625)"/>
      <path id="DejaVuSans-4e" d="M 628 4666 
L 1478 4666 
L 3547 763 
L 3547 4666 
L 4159 4666 
L 4159 0 
L 3309 0 
L 1241 3903 
L 1241 0 
L 628 0 
L 628 4666 
z
" transform="scale(0.015625)"/>
      <path id="DejaVuSans-61" d="M 2194 1759 
Q 1497 1759 1228 1600 
Q 959 1441 959 1056 
Q 959 750 1161 570 
Q 1363 391 1709 391 
Q 2188 391 2477 730 
Q 2766 1069 2766 1631 
L 2766 1759 
L 2194 1759 
z
M 3341 1997 
L 3341 0 
L 2766 0 
L 2766 531 
Q 2569 213 2275 61 
Q 1981 -91 1556 -91 
Q 1019 -91 701 211 
Q 384 513 384 1019 
Q 384 1609 779 1909 
Q 1175 2209 1959 2209 
L 2766 2209 
L 2766 2266 
Q 2766 2663 2505 2880 
Q 2244 3097 1772 3097 
Q 1472 3097 1187 3025 
Q 903 2953 641 2809 
L 641 3341 
Q 956 3463 1253 3523 
Q 1550 3584 1831 3584 
Q 2591 3584 2966 3190 
Q 3341 2797 3341 1997 
z
" transform="scale(0.015625)"/>
     </defs>
     <use xlink:href="#DejaVuSans-46"/>
     <use xlink:href="#DejaVuSans-6f" transform="translate(53.894531 0)"/>
     <use xlink:href="#DejaVuSans-72" transform="translate(115.076172 0)"/>
     <use xlink:href="#DejaVuSans-64" transform="translate(154.439453 0)"/>
     <use xlink:href="#DejaVuSans-20" transform="translate(217.916016 0)"/>
     <use xlink:href="#DejaVuSans-45" transform="translate(249.703125 0)"/>
     <use xlink:href="#DejaVuSans-78" transform="translate(312.886719 0)"/>
     <use xlink:href="#DejaVuSans-70" transform="translate(372.066406 0)"/>
     <use xlink:href="#DejaVuSans-6c" transform="translate(435.542969 0)"/>
     <use xlink:href="#DejaVuSans-6f" transform="translate(463.326172 0)"/>
     <use xlink:href="#DejaVuSans-72" transform="translate(524.507812 0)"/>
     <use xlink:href="#DejaVuSans-65" transform="translate(563.371094 0)"/>
     <use xlink:href="#DejaVuSans-72" transform="translate(624.894531 0)"/>
     <use xlink:href="#DejaVuSans-20" transform="translate(666.007812 0)"/>
     <use xlink:href="#DejaVuSans-42" transform="translate(697.794922 0)"/>
     <use xlink:href="#DejaVuSans-6c" transform="translate(766.398438 0)"/>
     <use xlink:href="#DejaVuSans-6f" transform="translate(794.181641 0)"/>
     <use xlink:href="#DejaVuSans-77" transform="translate(855.363281 0)"/>
     <use xlink:href="#DejaVuSans-65" transform="translate(937.150391 0)"/>
     <use xlink:href="#DejaVuSans-72" transform="translate(998.673828 0)"/>
     <use xlink:href="#DejaVuSans-20" transform="translate(1039.787109 0)"/>
     <use xlink:href="#DejaVuSans-53" transform="translate(1071.574219 0)"/>
     <use xlink:href="#DejaVuSans-65" transform="translate(1135.050781 0)"/>
     <use xlink:href="#DejaVuSans-74" transform="translate(1196.574219 0)"/>
     <use xlink:href="#DejaVuSans-74" transform="translate(1235.783203 0)"/>
     <use xlink:href="#DejaVuSans-69" transform="translate(1274.992188 0)"/>
     <use xlink:href="#DejaVuSans-6e" transform="translate(1302.775391 0)"/>
     <use xlink:href="#DejaVuSans-67" transform="translate(1366.154297 0)"/>
     <use xlink:href="#DejaVuSans-20" transform="translate(1429.630859 0)"/>
     <use xlink:href="#DejaVuSans-37" transform="translate(1461.417969 0)"/>
     <use xlink:href="#DejaVuSans-20" transform="translate(1525.041016 0)"/>
     <use xlink:href="#DejaVuSans-2d" transform="translate(1556.828125 0)"/>
     <use xlink:href="#DejaVuSans-20" transform="translate(1592.912109 0)"/>
     <use xlink:href="#DejaVuSans-4e" transform="translate(1624.699219 0)"/>
     <use xlink:href="#DejaVuSans-61" transform="translate(1699.503906 0)"/>
     <use xlink:href="#DejaVuSans-72" transform="translate(1760.783203 0)"/>
     <use xlink:href="#DejaVuSans-72" transform="translate(1800.146484 0)"/>
     <use xlink:href="#DejaVuSans-6f" transform="translate(1839.009766 0)"/>
     <use xlink:href="#DejaVuSans-77" transform="translate(1900.191406 0)"/>
     <use xlink:href="#DejaVuSans-20" transform="translate(1981.978516 0)"/>
     <use xlink:href="#DejaVuSans-42" transform="translate(2013.765625 0)"/>
     <use xlink:href="#DejaVuSans-61" transform="translate(2082.369141 0)"/>
     <use xlink:href="#DejaVuSans-6e" transform="translate(2143.648438 0)"/>
     <use xlink:href="#DejaVuSans-64" transform="translate(2207.027344 0)"/>
     <use xlink:href="#DejaVuSans-20" transform="translate(2270.503906 0)"/>
     <use xlink:href="#DejaVuSans-53" transform="translate(2302.291016 0)"/>
     <use xlink:href="#DejaVuSans-50" transform="translate(2365.767578 0)"/>
     <use xlink:href="#DejaVuSans-4c" transform="translate(2426.070312 0)"/>
     <use xlink:href="#DejaVuSans-20" transform="translate(2481.783203 0)"/>
     <use xlink:href="#DejaVuSans-28" transform="translate(2513.570312 0)"/>
     <use xlink:href="#DejaVuSans-64" transform="translate(2552.583984 0)"/>
     <use xlink:href="#DejaVuSans-42" transform="translate(2616.060547 0)"/>
     <use xlink:href="#DejaVuSans-41" transform="translate(2684.664062 0)"/>
     <use xlink:href="#DejaVuSans-29" transform="translate(2753.072266 0)"/>
    </g>
   </g>
  </g>
 </g>
 <defs>
  <clipPath id="p3065fa8111">
   <rect x="48.982813" y="22.318125" width="512.215" height="272.272122"/>
  </clipPath>
 </defs>
</svg>
