<?xml version="1.0" encoding="utf-8" standalone="no"?>
<!DOCTYPE svg PUBLIC "-//W3C//DTD SVG 1.1//EN"
  "http://www.w3.org/Graphics/SVG/1.1/DTD/svg11.dtd">
<svg xmlns:xlink="http://www.w3.org/1999/xlink" width="568.397812pt" height="351.806674pt" viewBox="0 0 568.397812 351.806674" xmlns="http://www.w3.org/2000/svg" version="1.1">
 <metadata>
  <rdf:RDF xmlns:dc="http://purl.org/dc/elements/1.1/" xmlns:cc="http://creativecommons.org/ns#" xmlns:rdf="http://www.w3.org/1999/02/22-rdf-syntax-ns#">
   <cc:Work>
    <dc:type rdf:resource="http://purl.org/dc/dcmitype/StillImage"/>
    <dc:date>2025-04-24T19:41:12.434894</dc:date>
    <dc:format>image/svg+xml</dc:format>
    <dc:creator>
     <cc:Agent>
      <dc:title>Matplotlib v3.10.0, https://matplotlib.org/</dc:title>
     </cc:Agent>
    </dc:creator>
   </cc:Work>
  </rdf:RDF>
 </metadata>
 <defs>
  <style type="text/css">*{stroke-linejoin: round; stroke-linecap: butt}</style>
 </defs>
 <g id="figure_1">
  <g id="patch_1">
   <path d="M 0 351.806674 
L 568.397812 351.806674 
L 568.397812 0 
L 0 0 
z
" style="fill: #ffffff"/>
  </g>
  <g id="axes_1">
   <g id="patch_2">
    <path d="M 48.982813 294.590247 
L 561.197812 294.590247 
L 561.197812 22.318125 
L 48.982813 22.318125 
z
" style="fill: #ffffff"/>
   </g>
   <g id="matplotlib.axis_1">
    <g id="xtick_1">
     <g id="line2d_1">
      <path d="M 48.982813 294.590247 
L 48.982813 22.318125 
" clip-path="url(#p8733bf6120)" style="fill: none; stroke-dasharray: 1.85,0.8; stroke-dashoffset: 0; stroke: #b0b0b0; stroke-width: 0.5"/>
     </g>
     <g id="line2d_2">
      <defs>
       <path id="m0b083cb217" d="M 0 0 
L 0 3.5 
" style="stroke: #000000; stroke-width: 0.8"/>
      </defs>
      <g>
       <use xlink:href="#m0b083cb217" x="48.982813" y="294.590247" style="stroke: #000000; stroke-width: 0.8"/>
      </g>
     </g>
     <g id="text_1">
      <!-- 100 -->
      <g transform="translate(34.015351 320.460054) rotate(-45) scale(0.1 -0.1)">
       <defs>
        <path id="DejaVuSans-31" d="M 794 531 
L 1825 531 
L 1825 4091 
L 703 3866 
L 703 4441 
L 1819 4666 
L 2450 4666 
L 2450 531 
L 3481 531 
L 3481 0 
L 794 0 
L 794 531 
z
" transform="scale(0.015625)"/>
        <path id="DejaVuSans-30" d="M 2034 4250 
Q 1547 4250 1301 3770 
Q 1056 3291 1056 2328 
Q 1056 1369 1301 889 
Q 1547 409 2034 409 
Q 2525 409 2770 889 
Q 3016 1369 3016 2328 
Q 3016 3291 2770 3770 
Q 2525 4250 2034 4250 
z
M 2034 4750 
Q 2819 4750 3233 4129 
Q 3647 3509 3647 2328 
Q 3647 1150 3233 529 
Q 2819 -91 2034 -91 
Q 1250 -91 836 529 
Q 422 1150 422 2328 
Q 422 3509 836 4129 
Q 1250 4750 2034 4750 
z
" transform="scale(0.015625)"/>
       </defs>
       <use xlink:href="#DejaVuSans-31"/>
       <use xlink:href="#DejaVuSans-30" transform="translate(63.623047 0)"/>
       <use xlink:href="#DejaVuSans-30" transform="translate(127.246094 0)"/>
      </g>
     </g>
    </g>
    <g id="xtick_2">
     <g id="line2d_3">
      <path d="M 305.090312 294.590247 
L 305.090312 22.318125 
" clip-path="url(#p8733bf6120)" style="fill: none; stroke-dasharray: 1.85,0.8; stroke-dashoffset: 0; stroke: #b0b0b0; stroke-width: 0.5"/>
     </g>
     <g id="line2d_4">
      <g>
       <use xlink:href="#m0b083cb217" x="305.090312" y="294.590247" style="stroke: #000000; stroke-width: 0.8"/>
      </g>
     </g>
     <g id="text_2">
      <!-- 1000 -->
      <g transform="translate(285.623884 324.959021) rotate(-45) scale(0.1 -0.1)">
       <use xlink:href="#DejaVuSans-31"/>
       <use xlink:href="#DejaVuSans-30" transform="translate(63.623047 0)"/>
       <use xlink:href="#DejaVuSans-30" transform="translate(127.246094 0)"/>
       <use xlink:href="#DejaVuSans-30" transform="translate(190.869141 0)"/>
      </g>
     </g>
    </g>
    <g id="xtick_3">
     <g id="line2d_5">
      <path d="M 561.197812 294.590247 
L 561.197812 22.318125 
" clip-path="url(#p8733bf6120)" style="fill: none; stroke-dasharray: 1.85,0.8; stroke-dashoffset: 0; stroke: #b0b0b0; stroke-width: 0.5"/>
     </g>
     <g id="line2d_6">
      <g>
       <use xlink:href="#m0b083cb217" x="561.197812" y="294.590247" style="stroke: #000000; stroke-width: 0.8"/>
      </g>
     </g>
     <g id="text_3">
      <!-- 10000 -->
      <g transform="translate(537.232417 329.457988) rotate(-45) scale(0.1 -0.1)">
       <use xlink:href="#DejaVuSans-31"/>
       <use xlink:href="#DejaVuSans-30" transform="translate(63.623047 0)"/>
       <use xlink:href="#DejaVuSans-30" transform="translate(127.246094 0)"/>
       <use xlink:href="#DejaVuSans-30" transform="translate(190.869141 0)"/>
       <use xlink:href="#DejaVuSans-30" transform="translate(254.492188 0)"/>
      </g>
     </g>
    </g>
    <g id="xtick_4">
     <g id="line2d_7">
      <path d="M 126.078852 294.590247 
L 126.078852 22.318125 
" clip-path="url(#p8733bf6120)" style="fill: none; stroke-dasharray: 1.85,0.8; stroke-dashoffset: 0; stroke: #b0b0b0; stroke-width: 0.5"/>
     </g>
     <g id="line2d_8">
      <defs>
       <path id="mdb270ba4b5" d="M 0 0 
L 0 2 
" style="stroke: #000000; stroke-width: 0.6"/>
      </defs>
      <g>
       <use xlink:href="#mdb270ba4b5" x="126.078852" y="294.590247" style="stroke: #000000; stroke-width: 0.6"/>
      </g>
     </g>
    </g>
    <g id="xtick_5">
     <g id="line2d_9">
      <path d="M 171.177144 294.590247 
L 171.177144 22.318125 
" clip-path="url(#p8733bf6120)" style="fill: none; stroke-dasharray: 1.85,0.8; stroke-dashoffset: 0; stroke: #b0b0b0; stroke-width: 0.5"/>
     </g>
     <g id="line2d_10">
      <g>
       <use xlink:href="#mdb270ba4b5" x="171.177144" y="294.590247" style="stroke: #000000; stroke-width: 0.6"/>
      </g>
     </g>
    </g>
    <g id="xtick_6">
     <g id="line2d_11">
      <path d="M 203.174892 294.590247 
L 203.174892 22.318125 
" clip-path="url(#p8733bf6120)" style="fill: none; stroke-dasharray: 1.85,0.8; stroke-dashoffset: 0; stroke: #b0b0b0; stroke-width: 0.5"/>
     </g>
     <g id="line2d_12">
      <g>
       <use xlink:href="#mdb270ba4b5" x="203.174892" y="294.590247" style="stroke: #000000; stroke-width: 0.6"/>
      </g>
     </g>
    </g>
    <g id="xtick_7">
     <g id="line2d_13">
      <path d="M 227.994273 294.590247 
L 227.994273 22.318125 
" clip-path="url(#p8733bf6120)" style="fill: none; stroke-dasharray: 1.85,0.8; stroke-dashoffset: 0; stroke: #b0b0b0; stroke-width: 0.5"/>
     </g>
     <g id="line2d_14">
      <g>
       <use xlink:href="#mdb270ba4b5" x="227.994273" y="294.590247" style="stroke: #000000; stroke-width: 0.6"/>
      </g>
     </g>
    </g>
    <g id="xtick_8">
     <g id="line2d_15">
      <path d="M 248.273184 294.590247 
L 248.273184 22.318125 
" clip-path="url(#p8733bf6120)" style="fill: none; stroke-dasharray: 1.85,0.8; stroke-dashoffset: 0; stroke: #b0b0b0; stroke-width: 0.5"/>
     </g>
     <g id="line2d_16">
      <g>
       <use xlink:href="#mdb270ba4b5" x="248.273184" y="294.590247" style="stroke: #000000; stroke-width: 0.6"/>
      </g>
     </g>
    </g>
    <g id="xtick_9">
     <g id="line2d_17">
      <path d="M 265.418759 294.590247 
L 265.418759 22.318125 
" clip-path="url(#p8733bf6120)" style="fill: none; stroke-dasharray: 1.85,0.8; stroke-dashoffset: 0; stroke: #b0b0b0; stroke-width: 0.5"/>
     </g>
     <g id="line2d_18">
      <g>
       <use xlink:href="#mdb270ba4b5" x="265.418759" y="294.590247" style="stroke: #000000; stroke-width: 0.6"/>
      </g>
     </g>
    </g>
    <g id="xtick_10">
     <g id="line2d_19">
      <path d="M 280.270931 294.590247 
L 280.270931 22.318125 
" clip-path="url(#p8733bf6120)" style="fill: none; stroke-dasharray: 1.85,0.8; stroke-dashoffset: 0; stroke: #b0b0b0; stroke-width: 0.5"/>
     </g>
     <g id="line2d_20">
      <g>
       <use xlink:href="#mdb270ba4b5" x="280.270931" y="294.590247" style="stroke: #000000; stroke-width: 0.6"/>
      </g>
     </g>
    </g>
    <g id="xtick_11">
     <g id="line2d_21">
      <path d="M 293.371476 294.590247 
L 293.371476 22.318125 
" clip-path="url(#p8733bf6120)" style="fill: none; stroke-dasharray: 1.85,0.8; stroke-dashoffset: 0; stroke: #b0b0b0; stroke-width: 0.5"/>
     </g>
     <g id="line2d_22">
      <g>
       <use xlink:href="#mdb270ba4b5" x="293.371476" y="294.590247" style="stroke: #000000; stroke-width: 0.6"/>
      </g>
     </g>
    </g>
    <g id="xtick_12">
     <g id="line2d_23">
      <path d="M 382.186352 294.590247 
L 382.186352 22.318125 
" clip-path="url(#p8733bf6120)" style="fill: none; stroke-dasharray: 1.85,0.8; stroke-dashoffset: 0; stroke: #b0b0b0; stroke-width: 0.5"/>
     </g>
     <g id="line2d_24">
      <g>
       <use xlink:href="#mdb270ba4b5" x="382.186352" y="294.590247" style="stroke: #000000; stroke-width: 0.6"/>
      </g>
     </g>
    </g>
    <g id="xtick_13">
     <g id="line2d_25">
      <path d="M 427.284644 294.590247 
L 427.284644 22.318125 
" clip-path="url(#p8733bf6120)" style="fill: none; stroke-dasharray: 1.85,0.8; stroke-dashoffset: 0; stroke: #b0b0b0; stroke-width: 0.5"/>
     </g>
     <g id="line2d_26">
      <g>
       <use xlink:href="#mdb270ba4b5" x="427.284644" y="294.590247" style="stroke: #000000; stroke-width: 0.6"/>
      </g>
     </g>
    </g>
    <g id="xtick_14">
     <g id="line2d_27">
      <path d="M 459.282392 294.590247 
L 459.282392 22.318125 
" clip-path="url(#p8733bf6120)" style="fill: none; stroke-dasharray: 1.85,0.8; stroke-dashoffset: 0; stroke: #b0b0b0; stroke-width: 0.5"/>
     </g>
     <g id="line2d_28">
      <g>
       <use xlink:href="#mdb270ba4b5" x="459.282392" y="294.590247" style="stroke: #000000; stroke-width: 0.6"/>
      </g>
     </g>
    </g>
    <g id="xtick_15">
     <g id="line2d_29">
      <path d="M 484.101773 294.590247 
L 484.101773 22.318125 
" clip-path="url(#p8733bf6120)" style="fill: none; stroke-dasharray: 1.85,0.8; stroke-dashoffset: 0; stroke: #b0b0b0; stroke-width: 0.5"/>
     </g>
     <g id="line2d_30">
      <g>
       <use xlink:href="#mdb270ba4b5" x="484.101773" y="294.590247" style="stroke: #000000; stroke-width: 0.6"/>
      </g>
     </g>
    </g>
    <g id="xtick_16">
     <g id="line2d_31">
      <path d="M 504.380684 294.590247 
L 504.380684 22.318125 
" clip-path="url(#p8733bf6120)" style="fill: none; stroke-dasharray: 1.85,0.8; stroke-dashoffset: 0; stroke: #b0b0b0; stroke-width: 0.5"/>
     </g>
     <g id="line2d_32">
      <g>
       <use xlink:href="#mdb270ba4b5" x="504.380684" y="294.590247" style="stroke: #000000; stroke-width: 0.6"/>
      </g>
     </g>
    </g>
    <g id="xtick_17">
     <g id="line2d_33">
      <path d="M 521.526259 294.590247 
L 521.526259 22.318125 
" clip-path="url(#p8733bf6120)" style="fill: none; stroke-dasharray: 1.85,0.8; stroke-dashoffset: 0; stroke: #b0b0b0; stroke-width: 0.5"/>
     </g>
     <g id="line2d_34">
      <g>
       <use xlink:href="#mdb270ba4b5" x="521.526259" y="294.590247" style="stroke: #000000; stroke-width: 0.6"/>
      </g>
     </g>
    </g>
    <g id="xtick_18">
     <g id="line2d_35">
      <path d="M 536.378431 294.590247 
L 536.378431 22.318125 
" clip-path="url(#p8733bf6120)" style="fill: none; stroke-dasharray: 1.85,0.8; stroke-dashoffset: 0; stroke: #b0b0b0; stroke-width: 0.5"/>
     </g>
     <g id="line2d_36">
      <g>
       <use xlink:href="#mdb270ba4b5" x="536.378431" y="294.590247" style="stroke: #000000; stroke-width: 0.6"/>
      </g>
     </g>
    </g>
    <g id="xtick_19">
     <g id="line2d_37">
      <path d="M 549.478976 294.590247 
L 549.478976 22.318125 
" clip-path="url(#p8733bf6120)" style="fill: none; stroke-dasharray: 1.85,0.8; stroke-dashoffset: 0; stroke: #b0b0b0; stroke-width: 0.5"/>
     </g>
     <g id="line2d_38">
      <g>
       <use xlink:href="#mdb270ba4b5" x="549.478976" y="294.590247" style="stroke: #000000; stroke-width: 0.6"/>
      </g>
     </g>
    </g>
    <g id="text_4">
     <!-- Frequency (Hz) -->
     <g transform="translate(267.385625 342.526987) scale(0.1 -0.1)">
      <defs>
       <path id="DejaVuSans-46" d="M 628 4666 
L 3309 4666 
L 3309 4134 
L 1259 4134 
L 1259 2759 
L 3109 2759 
L 3109 2228 
L 1259 2228 
L 1259 0 
L 628 0 
L 628 4666 
z
" transform="scale(0.015625)"/>
       <path id="DejaVuSans-72" d="M 2631 2963 
Q 2534 3019 2420 3045 
Q 2306 3072 2169 3072 
Q 1681 3072 1420 2755 
Q 1159 2438 1159 1844 
L 1159 0 
L 581 0 
L 581 3500 
L 1159 3500 
L 1159 2956 
Q 1341 3275 1631 3429 
Q 1922 3584 2338 3584 
Q 2397 3584 2469 3576 
Q 2541 3569 2628 3553 
L 2631 2963 
z
" transform="scale(0.015625)"/>
       <path id="DejaVuSans-65" d="M 3597 1894 
L 3597 1613 
L 953 1613 
Q 991 1019 1311 708 
Q 1631 397 2203 397 
Q 2534 397 2845 478 
Q 3156 559 3463 722 
L 3463 178 
Q 3153 47 2828 -22 
Q 2503 -91 2169 -91 
Q 1331 -91 842 396 
Q 353 884 353 1716 
Q 353 2575 817 3079 
Q 1281 3584 2069 3584 
Q 2775 3584 3186 3129 
Q 3597 2675 3597 1894 
z
M 3022 2063 
Q 3016 2534 2758 2815 
Q 2500 3097 2075 3097 
Q 1594 3097 1305 2825 
Q 1016 2553 972 2059 
L 3022 2063 
z
" transform="scale(0.015625)"/>
       <path id="DejaVuSans-71" d="M 947 1747 
Q 947 1113 1208 752 
Q 1469 391 1925 391 
Q 2381 391 2643 752 
Q 2906 1113 2906 1747 
Q 2906 2381 2643 2742 
Q 2381 3103 1925 3103 
Q 1469 3103 1208 2742 
Q 947 2381 947 1747 
z
M 2906 525 
Q 2725 213 2448 61 
Q 2172 -91 1784 -91 
Q 1150 -91 751 415 
Q 353 922 353 1747 
Q 353 2572 751 3078 
Q 1150 3584 1784 3584 
Q 2172 3584 2448 3432 
Q 2725 3281 2906 2969 
L 2906 3500 
L 3481 3500 
L 3481 -1331 
L 2906 -1331 
L 2906 525 
z
" transform="scale(0.015625)"/>
       <path id="DejaVuSans-75" d="M 544 1381 
L 544 3500 
L 1119 3500 
L 1119 1403 
Q 1119 906 1312 657 
Q 1506 409 1894 409 
Q 2359 409 2629 706 
Q 2900 1003 2900 1516 
L 2900 3500 
L 3475 3500 
L 3475 0 
L 2900 0 
L 2900 538 
Q 2691 219 2414 64 
Q 2138 -91 1772 -91 
Q 1169 -91 856 284 
Q 544 659 544 1381 
z
M 1991 3584 
L 1991 3584 
z
" transform="scale(0.015625)"/>
       <path id="DejaVuSans-6e" d="M 3513 2113 
L 3513 0 
L 2938 0 
L 2938 2094 
Q 2938 2591 2744 2837 
Q 2550 3084 2163 3084 
Q 1697 3084 1428 2787 
Q 1159 2491 1159 1978 
L 1159 0 
L 581 0 
L 581 3500 
L 1159 3500 
L 1159 2956 
Q 1366 3272 1645 3428 
Q 1925 3584 2291 3584 
Q 2894 3584 3203 3211 
Q 3513 2838 3513 2113 
z
" transform="scale(0.015625)"/>
       <path id="DejaVuSans-63" d="M 3122 3366 
L 3122 2828 
Q 2878 2963 2633 3030 
Q 2388 3097 2138 3097 
Q 1578 3097 1268 2742 
Q 959 2388 959 1747 
Q 959 1106 1268 751 
Q 1578 397 2138 397 
Q 2388 397 2633 464 
Q 2878 531 3122 666 
L 3122 134 
Q 2881 22 2623 -34 
Q 2366 -91 2075 -91 
Q 1284 -91 818 406 
Q 353 903 353 1747 
Q 353 2603 823 3093 
Q 1294 3584 2113 3584 
Q 2378 3584 2631 3529 
Q 2884 3475 3122 3366 
z
" transform="scale(0.015625)"/>
       <path id="DejaVuSans-79" d="M 2059 -325 
Q 1816 -950 1584 -1140 
Q 1353 -1331 966 -1331 
L 506 -1331 
L 506 -850 
L 844 -850 
Q 1081 -850 1212 -737 
Q 1344 -625 1503 -206 
L 1606 56 
L 191 3500 
L 800 3500 
L 1894 763 
L 2988 3500 
L 3597 3500 
L 2059 -325 
z
" transform="scale(0.015625)"/>
       <path id="DejaVuSans-20" transform="scale(0.015625)"/>
       <path id="DejaVuSans-28" d="M 1984 4856 
Q 1566 4138 1362 3434 
Q 1159 2731 1159 2009 
Q 1159 1288 1364 580 
Q 1569 -128 1984 -844 
L 1484 -844 
Q 1016 -109 783 600 
Q 550 1309 550 2009 
Q 550 2706 781 3412 
Q 1013 4119 1484 4856 
L 1984 4856 
z
" transform="scale(0.015625)"/>
       <path id="DejaVuSans-48" d="M 628 4666 
L 1259 4666 
L 1259 2753 
L 3553 2753 
L 3553 4666 
L 4184 4666 
L 4184 0 
L 3553 0 
L 3553 2222 
L 1259 2222 
L 1259 0 
L 628 0 
L 628 4666 
z
" transform="scale(0.015625)"/>
       <path id="DejaVuSans-7a" d="M 353 3500 
L 3084 3500 
L 3084 2975 
L 922 459 
L 3084 459 
L 3084 0 
L 275 0 
L 275 525 
L 2438 3041 
L 353 3041 
L 353 3500 
z
" transform="scale(0.015625)"/>
       <path id="DejaVuSans-29" d="M 513 4856 
L 1013 4856 
Q 1481 4119 1714 3412 
Q 1947 2706 1947 2009 
Q 1947 1309 1714 600 
Q 1481 -109 1013 -844 
L 513 -844 
Q 928 -128 1133 580 
Q 1338 1288 1338 2009 
Q 1338 2731 1133 3434 
Q 928 4138 513 4856 
z
" transform="scale(0.015625)"/>
      </defs>
      <use xlink:href="#DejaVuSans-46"/>
      <use xlink:href="#DejaVuSans-72" transform="translate(50.269531 0)"/>
      <use xlink:href="#DejaVuSans-65" transform="translate(89.132812 0)"/>
      <use xlink:href="#DejaVuSans-71" transform="translate(150.65625 0)"/>
      <use xlink:href="#DejaVuSans-75" transform="translate(214.132812 0)"/>
      <use xlink:href="#DejaVuSans-65" transform="translate(277.511719 0)"/>
      <use xlink:href="#DejaVuSans-6e" transform="translate(339.035156 0)"/>
      <use xlink:href="#DejaVuSans-63" transform="translate(402.414062 0)"/>
      <use xlink:href="#DejaVuSans-79" transform="translate(457.394531 0)"/>
      <use xlink:href="#DejaVuSans-20" transform="translate(516.574219 0)"/>
      <use xlink:href="#DejaVuSans-28" transform="translate(548.361328 0)"/>
      <use xlink:href="#DejaVuSans-48" transform="translate(587.375 0)"/>
      <use xlink:href="#DejaVuSans-7a" transform="translate(662.570312 0)"/>
      <use xlink:href="#DejaVuSans-29" transform="translate(715.060547 0)"/>
     </g>
    </g>
   </g>
   <g id="matplotlib.axis_2">
    <g id="ytick_1">
     <g id="line2d_39">
      <path d="M 48.982813 294.590247 
L 561.197812 294.590247 
" clip-path="url(#p8733bf6120)" style="fill: none; stroke-dasharray: 1.85,0.8; stroke-dashoffset: 0; stroke: #b0b0b0; stroke-width: 0.5"/>
     </g>
     <g id="line2d_40">
      <defs>
       <path id="mb508529c75" d="M 0 0 
L -3.5 0 
" style="stroke: #000000; stroke-width: 0.8"/>
      </defs>
      <g>
       <use xlink:href="#mb508529c75" x="48.982813" y="294.590247" style="stroke: #000000; stroke-width: 0.8"/>
      </g>
     </g>
     <g id="text_5">
      <!-- −20 -->
      <g transform="translate(20.878125 298.389466) scale(0.1 -0.1)">
       <defs>
        <path id="DejaVuSans-2212" d="M 678 2272 
L 4684 2272 
L 4684 1741 
L 678 1741 
L 678 2272 
z
" transform="scale(0.015625)"/>
        <path id="DejaVuSans-32" d="M 1228 531 
L 3431 531 
L 3431 0 
L 469 0 
L 469 531 
Q 828 903 1448 1529 
Q 2069 2156 2228 2338 
Q 2531 2678 2651 2914 
Q 2772 3150 2772 3378 
Q 2772 3750 2511 3984 
Q 2250 4219 1831 4219 
Q 1534 4219 1204 4116 
Q 875 4013 500 3803 
L 500 4441 
Q 881 4594 1212 4672 
Q 1544 4750 1819 4750 
Q 2544 4750 2975 4387 
Q 3406 4025 3406 3419 
Q 3406 3131 3298 2873 
Q 3191 2616 2906 2266 
Q 2828 2175 2409 1742 
Q 1991 1309 1228 531 
z
" transform="scale(0.015625)"/>
       </defs>
       <use xlink:href="#DejaVuSans-2212"/>
       <use xlink:href="#DejaVuSans-32" transform="translate(83.789062 0)"/>
       <use xlink:href="#DejaVuSans-30" transform="translate(147.412109 0)"/>
      </g>
     </g>
    </g>
    <g id="ytick_2">
     <g id="line2d_41">
      <path d="M 48.982813 255.694229 
L 561.197812 255.694229 
" clip-path="url(#p8733bf6120)" style="fill: none; stroke-dasharray: 1.85,0.8; stroke-dashoffset: 0; stroke: #b0b0b0; stroke-width: 0.5"/>
     </g>
     <g id="line2d_42">
      <g>
       <use xlink:href="#mb508529c75" x="48.982813" y="255.694229" style="stroke: #000000; stroke-width: 0.8"/>
      </g>
     </g>
     <g id="text_6">
      <!-- −10 -->
      <g transform="translate(20.878125 259.493448) scale(0.1 -0.1)">
       <use xlink:href="#DejaVuSans-2212"/>
       <use xlink:href="#DejaVuSans-31" transform="translate(83.789062 0)"/>
       <use xlink:href="#DejaVuSans-30" transform="translate(147.412109 0)"/>
      </g>
     </g>
    </g>
    <g id="ytick_3">
     <g id="line2d_43">
      <path d="M 48.982813 216.798212 
L 561.197812 216.798212 
" clip-path="url(#p8733bf6120)" style="fill: none; stroke-dasharray: 1.85,0.8; stroke-dashoffset: 0; stroke: #b0b0b0; stroke-width: 0.5"/>
     </g>
     <g id="line2d_44">
      <g>
       <use xlink:href="#mb508529c75" x="48.982813" y="216.798212" style="stroke: #000000; stroke-width: 0.8"/>
      </g>
     </g>
     <g id="text_7">
      <!-- 0 -->
      <g transform="translate(35.620313 220.597431) scale(0.1 -0.1)">
       <use xlink:href="#DejaVuSans-30"/>
      </g>
     </g>
    </g>
    <g id="ytick_4">
     <g id="line2d_45">
      <path d="M 48.982813 177.902195 
L 561.197812 177.902195 
" clip-path="url(#p8733bf6120)" style="fill: none; stroke-dasharray: 1.85,0.8; stroke-dashoffset: 0; stroke: #b0b0b0; stroke-width: 0.5"/>
     </g>
     <g id="line2d_46">
      <g>
       <use xlink:href="#mb508529c75" x="48.982813" y="177.902195" style="stroke: #000000; stroke-width: 0.8"/>
      </g>
     </g>
     <g id="text_8">
      <!-- 10 -->
      <g transform="translate(29.257813 181.701413) scale(0.1 -0.1)">
       <use xlink:href="#DejaVuSans-31"/>
       <use xlink:href="#DejaVuSans-30" transform="translate(63.623047 0)"/>
      </g>
     </g>
    </g>
    <g id="ytick_5">
     <g id="line2d_47">
      <path d="M 48.982813 139.006177 
L 561.197812 139.006177 
" clip-path="url(#p8733bf6120)" style="fill: none; stroke-dasharray: 1.85,0.8; stroke-dashoffset: 0; stroke: #b0b0b0; stroke-width: 0.5"/>
     </g>
     <g id="line2d_48">
      <g>
       <use xlink:href="#mb508529c75" x="48.982813" y="139.006177" style="stroke: #000000; stroke-width: 0.8"/>
      </g>
     </g>
     <g id="text_9">
      <!-- 20 -->
      <g transform="translate(29.257813 142.805396) scale(0.1 -0.1)">
       <use xlink:href="#DejaVuSans-32"/>
       <use xlink:href="#DejaVuSans-30" transform="translate(63.623047 0)"/>
      </g>
     </g>
    </g>
    <g id="ytick_6">
     <g id="line2d_49">
      <path d="M 48.982813 100.11016 
L 561.197812 100.11016 
" clip-path="url(#p8733bf6120)" style="fill: none; stroke-dasharray: 1.85,0.8; stroke-dashoffset: 0; stroke: #b0b0b0; stroke-width: 0.5"/>
     </g>
     <g id="line2d_50">
      <g>
       <use xlink:href="#mb508529c75" x="48.982813" y="100.11016" style="stroke: #000000; stroke-width: 0.8"/>
      </g>
     </g>
     <g id="text_10">
      <!-- 30 -->
      <g transform="translate(29.257813 103.909379) scale(0.1 -0.1)">
       <defs>
        <path id="DejaVuSans-33" d="M 2597 2516 
Q 3050 2419 3304 2112 
Q 3559 1806 3559 1356 
Q 3559 666 3084 287 
Q 2609 -91 1734 -91 
Q 1441 -91 1130 -33 
Q 819 25 488 141 
L 488 750 
Q 750 597 1062 519 
Q 1375 441 1716 441 
Q 2309 441 2620 675 
Q 2931 909 2931 1356 
Q 2931 1769 2642 2001 
Q 2353 2234 1838 2234 
L 1294 2234 
L 1294 2753 
L 1863 2753 
Q 2328 2753 2575 2939 
Q 2822 3125 2822 3475 
Q 2822 3834 2567 4026 
Q 2313 4219 1838 4219 
Q 1578 4219 1281 4162 
Q 984 4106 628 3988 
L 628 4550 
Q 988 4650 1302 4700 
Q 1616 4750 1894 4750 
Q 2613 4750 3031 4423 
Q 3450 4097 3450 3541 
Q 3450 3153 3228 2886 
Q 3006 2619 2597 2516 
z
" transform="scale(0.015625)"/>
       </defs>
       <use xlink:href="#DejaVuSans-33"/>
       <use xlink:href="#DejaVuSans-30" transform="translate(63.623047 0)"/>
      </g>
     </g>
    </g>
    <g id="ytick_7">
     <g id="line2d_51">
      <path d="M 48.982813 61.214142 
L 561.197812 61.214142 
" clip-path="url(#p8733bf6120)" style="fill: none; stroke-dasharray: 1.85,0.8; stroke-dashoffset: 0; stroke: #b0b0b0; stroke-width: 0.5"/>
     </g>
     <g id="line2d_52">
      <g>
       <use xlink:href="#mb508529c75" x="48.982813" y="61.214142" style="stroke: #000000; stroke-width: 0.8"/>
      </g>
     </g>
     <g id="text_11">
      <!-- 40 -->
      <g transform="translate(29.257813 65.013361) scale(0.1 -0.1)">
       <defs>
        <path id="DejaVuSans-34" d="M 2419 4116 
L 825 1625 
L 2419 1625 
L 2419 4116 
z
M 2253 4666 
L 3047 4666 
L 3047 1625 
L 3713 1625 
L 3713 1100 
L 3047 1100 
L 3047 0 
L 2419 0 
L 2419 1100 
L 313 1100 
L 313 1709 
L 2253 4666 
z
" transform="scale(0.015625)"/>
       </defs>
       <use xlink:href="#DejaVuSans-34"/>
       <use xlink:href="#DejaVuSans-30" transform="translate(63.623047 0)"/>
      </g>
     </g>
    </g>
    <g id="ytick_8">
     <g id="line2d_53">
      <path d="M 48.982813 22.318125 
L 561.197812 22.318125 
" clip-path="url(#p8733bf6120)" style="fill: none; stroke-dasharray: 1.85,0.8; stroke-dashoffset: 0; stroke: #b0b0b0; stroke-width: 0.5"/>
     </g>
     <g id="line2d_54">
      <g>
       <use xlink:href="#mb508529c75" x="48.982813" y="22.318125" style="stroke: #000000; stroke-width: 0.8"/>
      </g>
     </g>
     <g id="text_12">
      <!-- 50 -->
      <g transform="translate(29.257813 26.117344) scale(0.1 -0.1)">
       <defs>
        <path id="DejaVuSans-35" d="M 691 4666 
L 3169 4666 
L 3169 4134 
L 1269 4134 
L 1269 2991 
Q 1406 3038 1543 3061 
Q 1681 3084 1819 3084 
Q 2600 3084 3056 2656 
Q 3513 2228 3513 1497 
Q 3513 744 3044 326 
Q 2575 -91 1722 -91 
Q 1428 -91 1123 -41 
Q 819 9 494 109 
L 494 744 
Q 775 591 1075 516 
Q 1375 441 1709 441 
Q 2250 441 2565 725 
Q 2881 1009 2881 1497 
Q 2881 1984 2565 2268 
Q 2250 2553 1709 2553 
Q 1456 2553 1204 2497 
Q 953 2441 691 2322 
L 691 4666 
z
" transform="scale(0.015625)"/>
       </defs>
       <use xlink:href="#DejaVuSans-35"/>
       <use xlink:href="#DejaVuSans-30" transform="translate(63.623047 0)"/>
      </g>
     </g>
    </g>
    <g id="text_13">
     <!-- SPL (dBA) -->
     <g transform="translate(14.798438 182.944811) rotate(-90) scale(0.1 -0.1)">
      <defs>
       <path id="DejaVuSans-53" d="M 3425 4513 
L 3425 3897 
Q 3066 4069 2747 4153 
Q 2428 4238 2131 4238 
Q 1616 4238 1336 4038 
Q 1056 3838 1056 3469 
Q 1056 3159 1242 3001 
Q 1428 2844 1947 2747 
L 2328 2669 
Q 3034 2534 3370 2195 
Q 3706 1856 3706 1288 
Q 3706 609 3251 259 
Q 2797 -91 1919 -91 
Q 1588 -91 1214 -16 
Q 841 59 441 206 
L 441 856 
Q 825 641 1194 531 
Q 1563 422 1919 422 
Q 2459 422 2753 634 
Q 3047 847 3047 1241 
Q 3047 1584 2836 1778 
Q 2625 1972 2144 2069 
L 1759 2144 
Q 1053 2284 737 2584 
Q 422 2884 422 3419 
Q 422 4038 858 4394 
Q 1294 4750 2059 4750 
Q 2388 4750 2728 4690 
Q 3069 4631 3425 4513 
z
" transform="scale(0.015625)"/>
       <path id="DejaVuSans-50" d="M 1259 4147 
L 1259 2394 
L 2053 2394 
Q 2494 2394 2734 2622 
Q 2975 2850 2975 3272 
Q 2975 3691 2734 3919 
Q 2494 4147 2053 4147 
L 1259 4147 
z
M 628 4666 
L 2053 4666 
Q 2838 4666 3239 4311 
Q 3641 3956 3641 3272 
Q 3641 2581 3239 2228 
Q 2838 1875 2053 1875 
L 1259 1875 
L 1259 0 
L 628 0 
L 628 4666 
z
" transform="scale(0.015625)"/>
       <path id="DejaVuSans-4c" d="M 628 4666 
L 1259 4666 
L 1259 531 
L 3531 531 
L 3531 0 
L 628 0 
L 628 4666 
z
" transform="scale(0.015625)"/>
       <path id="DejaVuSans-64" d="M 2906 2969 
L 2906 4863 
L 3481 4863 
L 3481 0 
L 2906 0 
L 2906 525 
Q 2725 213 2448 61 
Q 2172 -91 1784 -91 
Q 1150 -91 751 415 
Q 353 922 353 1747 
Q 353 2572 751 3078 
Q 1150 3584 1784 3584 
Q 2172 3584 2448 3432 
Q 2725 3281 2906 2969 
z
M 947 1747 
Q 947 1113 1208 752 
Q 1469 391 1925 391 
Q 2381 391 2643 752 
Q 2906 1113 2906 1747 
Q 2906 2381 2643 2742 
Q 2381 3103 1925 3103 
Q 1469 3103 1208 2742 
Q 947 2381 947 1747 
z
" transform="scale(0.015625)"/>
       <path id="DejaVuSans-42" d="M 1259 2228 
L 1259 519 
L 2272 519 
Q 2781 519 3026 730 
Q 3272 941 3272 1375 
Q 3272 1813 3026 2020 
Q 2781 2228 2272 2228 
L 1259 2228 
z
M 1259 4147 
L 1259 2741 
L 2194 2741 
Q 2656 2741 2882 2914 
Q 3109 3088 3109 3444 
Q 3109 3797 2882 3972 
Q 2656 4147 2194 4147 
L 1259 4147 
z
M 628 4666 
L 2241 4666 
Q 2963 4666 3353 4366 
Q 3744 4066 3744 3513 
Q 3744 3084 3544 2831 
Q 3344 2578 2956 2516 
Q 3422 2416 3680 2098 
Q 3938 1781 3938 1306 
Q 3938 681 3513 340 
Q 3088 0 2303 0 
L 628 0 
L 628 4666 
z
" transform="scale(0.015625)"/>
       <path id="DejaVuSans-41" d="M 2188 4044 
L 1331 1722 
L 3047 1722 
L 2188 4044 
z
M 1831 4666 
L 2547 4666 
L 4325 0 
L 3669 0 
L 3244 1197 
L 1141 1197 
L 716 0 
L 50 0 
L 1831 4666 
z
" transform="scale(0.015625)"/>
      </defs>
      <use xlink:href="#DejaVuSans-53"/>
      <use xlink:href="#DejaVuSans-50" transform="translate(63.476562 0)"/>
      <use xlink:href="#DejaVuSans-4c" transform="translate(123.779297 0)"/>
      <use xlink:href="#DejaVuSans-20" transform="translate(179.492188 0)"/>
      <use xlink:href="#DejaVuSans-28" transform="translate(211.279297 0)"/>
      <use xlink:href="#DejaVuSans-64" transform="translate(250.292969 0)"/>
      <use xlink:href="#DejaVuSans-42" transform="translate(313.769531 0)"/>
      <use xlink:href="#DejaVuSans-41" transform="translate(382.373047 0)"/>
      <use xlink:href="#DejaVuSans-29" transform="translate(450.78125 0)"/>
     </g>
    </g>
   </g>
   <g id="line2d_55">
    <path d="M 51.493242 106.25758 
L 57.198394 102.786992 
L 62.625131 100.869053 
L 67.79937 102.234217 
L 72.743565 104.499621 
L 77.477304 105.246937 
L 86.38014 103.936024 
L 90.577849 102.800011 
L 94.622879 103.886454 
L 98.525949 105.976779 
L 102.296685 104.884602 
L 105.943768 104.322573 
L 109.475052 102.16627 
L 112.897663 106.901297 
L 116.218091 113.698167 
L 119.44226 107.500154 
L 122.575596 107.343809 
L 125.623077 108.440446 
L 128.589281 112.38175 
L 131.478432 114.353552 
L 134.294433 111.48816 
L 137.040895 106.138268 
L 139.721171 101.81935 
L 142.338376 93.549855 
L 144.89541 87.788959 
L 147.394977 86.496363 
L 149.839605 81.196159 
L 152.231656 76.51441 
L 156.866746 77.268892 
L 159.113814 78.968493 
L 161.316383 78.67609 
L 163.47618 81.335721 
L 165.594836 78.059585 
L 167.673888 75.613839 
L 169.714791 75.453746 
L 171.718919 76.263725 
L 173.687573 80.822491 
L 175.621988 82.722577 
L 177.523335 86.479291 
L 179.392725 89.803983 
L 181.231214 84.175887 
L 183.039808 78.020576 
L 184.819463 76.611094 
L 186.571091 77.058047 
L 188.295561 78.173382 
L 189.993702 79.616365 
L 191.666306 80.156318 
L 194.937897 84.050453 
L 196.5383 87.950601 
L 201.205813 94.619909 
L 202.719116 96.69119 
L 204.212106 94.48681 
L 205.685321 91.186981 
L 207.139277 86.340102 
L 208.574472 86.371283 
L 209.991384 86.671973 
L 211.390472 87.9761 
L 212.77218 89.105521 
L 214.136935 90.465553 
L 215.485146 87.872022 
L 216.817211 89.833149 
L 218.133511 88.217594 
L 219.434416 85.715547 
L 221.99145 87.159105 
L 223.248255 84.006497 
L 224.491017 90.141567 
L 225.720047 92.14232 
L 226.935645 88.784429 
L 228.1381 82.872236 
L 229.327695 81.122361 
L 230.504702 80.347818 
L 231.669383 77.289666 
L 232.821996 76.250176 
L 233.962786 75.394627 
L 235.091994 72.711373 
L 236.209854 72.690585 
L 237.31659 75.008531 
L 238.412422 78.07922 
L 240.572219 87.928496 
L 241.636592 90.267085 
L 242.690875 89.045453 
L 243.735259 85.571786 
L 244.769928 81.055941 
L 245.79506 79.016189 
L 246.810831 79.508395 
L 247.817408 79.183345 
L 248.814958 79.464565 
L 249.803641 77.989863 
L 250.783613 77.908107 
L 251.755026 79.575496 
L 252.718028 78.634077 
L 253.672764 76.670009 
L 254.619375 77.585974 
L 255.557997 82.147658 
L 256.488765 87.80597 
L 257.411808 90.898805 
L 258.327254 95.351819 
L 259.235227 92.82905 
L 260.135848 89.967241 
L 261.029235 85.485021 
L 261.915503 82.476091 
L 262.794765 84.535573 
L 263.667131 85.881497 
L 265.391601 92.756513 
L 266.243912 93.814041 
L 267.089742 95.188355 
L 267.929188 93.427259 
L 268.762346 90.584574 
L 269.589309 90.617604 
L 270.41017 89.923999 
L 271.225016 91.213081 
L 272.033937 93.998504 
L 272.837017 96.181824 
L 273.634339 99.926655 
L 274.425987 101.637139 
L 275.212041 100.427101 
L 275.992578 98.28721 
L 276.767675 98.276238 
L 280.564156 76.513192 
L 282.047192 70.769328 
L 282.78136 69.573931 
L 283.510714 69.557996 
L 284.235317 70.90783 
L 284.955229 69.136144 
L 286.381224 74.6427 
L 287.789168 87.562746 
L 289.179512 99.799923 
L 289.86822 101.646633 
L 290.55269 104.300861 
L 291.232974 101.88803 
L 291.909123 97.349328 
L 292.581186 94.261131 
L 293.249212 96.083172 
L 293.91325 99.48683 
L 294.573348 98.716154 
L 295.229551 96.563728 
L 295.881905 95.944966 
L 296.530455 95.041523 
L 297.175246 95.613637 
L 297.81632 92.756212 
L 298.453721 90.849218 
L 299.717667 83.668147 
L 300.344294 80.996781 
L 300.967411 79.019392 
L 301.587057 80.080667 
L 302.816087 78.178858 
L 303.425546 77.884868 
L 304.031684 74.904932 
L 304.634537 79.713111 
L 305.23414 81.166769 
L 306.423735 87.331738 
L 307.600741 90.495737 
L 308.184607 91.731928 
L 308.765423 94.621945 
L 309.343222 95.96305 
L 309.918035 96.346485 
L 310.489893 97.556506 
L 311.058825 99.679449 
L 311.624863 97.145274 
L 312.748368 101.173736 
L 313.305893 100.560219 
L 313.860638 96.34385 
L 314.412629 93.515024 
L 314.961895 90.049711 
L 315.508462 88.058338 
L 316.052356 87.495055 
L 316.593603 85.854223 
L 317.132229 89.636567 
L 317.668259 92.479588 
L 318.201719 93.604843 
L 318.732632 93.58849 
L 319.261022 92.253524 
L 319.786915 95.537633 
L 320.310333 95.37972 
L 320.831299 95.79883 
L 321.349836 97.614222 
L 321.865968 97.863943 
L 322.379715 98.39374 
L 322.8911 98.629215 
L 323.400145 97.794824 
L 323.90687 99.462572 
L 324.411298 99.52918 
L 324.913448 100.95043 
L 325.413341 103.74521 
L 325.910998 108.064984 
L 326.406438 113.509278 
L 326.899681 115.538789 
L 327.390746 116.567199 
L 327.879652 116.090669 
L 328.366419 116.878286 
L 328.851065 115.74725 
L 329.333609 117.750369 
L 329.814068 117.926908 
L 330.768804 113.585299 
L 331.715414 100.552166 
L 332.185716 99.684597 
L 332.654037 98.445613 
L 334.047283 95.672723 
L 334.507847 96.315039 
L 334.966512 95.078024 
L 335.423294 95.064763 
L 335.878206 93.951832 
L 336.331266 91.696872 
L 336.782489 90.101746 
L 337.231887 91.195972 
L 337.679478 94.994128 
L 338.125274 95.351809 
L 339.011543 98.346319 
L 339.452042 100.352731 
L 339.890805 101.786159 
L 340.327843 100.680492 
L 340.76317 97.074555 
L 341.628747 99.389295 
L 342.059023 103.824004 
L 342.48764 105.972593 
L 342.914612 109.490627 
L 343.339952 110.454731 
L 343.76367 108.83947 
L 344.606296 101.876825 
L 345.025227 102.361607 
L 345.442586 102.146825 
L 345.858385 104.08274 
L 346.272636 106.945525 
L 346.685349 106.861568 
L 347.096536 106.194064 
L 347.506209 102.352112 
L 347.914379 100.62219 
L 348.321056 97.946092 
L 348.726251 99.378628 
L 349.129976 98.196386 
L 349.532241 98.647796 
L 349.933056 98.389304 
L 350.332432 97.39361 
L 350.730379 97.797408 
L 351.522027 96.594141 
L 351.915748 96.657168 
L 352.30808 101.270375 
L 352.699034 104.487453 
L 353.088617 104.92474 
L 353.476841 103.665656 
L 353.863715 103.592819 
L 354.633449 100.799843 
L 355.016327 102.524642 
L 355.397892 103.542295 
L 355.778153 103.854593 
L 356.534795 102.506693 
L 356.911195 102.267537 
L 357.286326 102.655276 
L 357.660195 102.772868 
L 358.032812 105.820053 
L 358.404185 111.682413 
L 359.143232 114.83359 
L 359.8774 121.368582 
L 360.242675 121.506973 
L 360.606754 118.576912 
L 360.969645 116.859885 
L 361.331356 119.034508 
L 361.691895 118.782722 
L 362.051269 119.649338 
L 362.766551 118.911892 
L 363.122475 117.772459 
L 363.477263 116.211563 
L 363.830924 116.050201 
L 364.534889 109.111495 
L 364.885207 108.044644 
L 365.582552 104.961098 
L 365.929591 107.667157 
L 366.275551 111.594653 
L 367.307021 119.716632 
L 367.989392 126.36117 
L 368.329014 124.858216 
L 368.667602 126.56366 
L 369.005162 126.869159 
L 369.677225 119.735923 
L 370.345252 126.332393 
L 371.00929 116.883665 
L 371.339828 117.215784 
L 371.669387 117.362177 
L 371.997973 118.091199 
L 372.32559 115.959826 
L 372.652246 117.016389 
L 373.302692 114.860386 
L 373.626495 114.14553 
L 373.949357 114.471833 
L 374.271286 115.865859 
L 374.592285 115.846955 
L 376.183529 105.731841 
L 376.499064 104.671317 
L 376.813707 105.221663 
L 377.127461 104.206497 
L 377.440334 105.666481 
L 378.683096 114.053793 
L 378.991629 117.419646 
L 379.299309 117.752077 
L 379.60614 116.382969 
L 379.912126 117.062659 
L 380.217273 118.713456 
L 380.521586 115.121675 
L 381.127724 111.599308 
L 381.429559 111.129522 
L 381.730577 113.280873 
L 382.628773 115.80848 
L 382.926567 117.733522 
L 383.223566 118.882353 
L 383.519775 119.014837 
L 384.109835 110.574175 
L 384.403695 110.140431 
L 384.989097 104.928881 
L 385.280646 105.434594 
L 385.571434 108.880289 
L 386.72704 116.617034 
L 387.014075 117.248553 
L 387.585932 120.835888 
L 387.870762 121.138645 
L 388.154865 124.011572 
L 388.438244 124.947165 
L 389.002844 131.932274 
L 389.284073 132.113822 
L 389.564593 134.020412 
L 389.844407 138.922773 
L 390.401933 135.565982 
L 390.679651 135.591968 
L 390.956677 137.37101 
L 391.233016 135.363942 
L 392.057935 135.076151 
L 392.331554 135.633883 
L 393.148395 140.664772 
L 393.419348 140.191719 
L 393.689642 140.547572 
L 393.959281 138.005845 
L 394.228268 139.256334 
L 394.496606 139.195065 
L 394.764299 134.475197 
L 395.031348 132.559329 
L 395.297758 132.387038 
L 395.828671 125.031062 
L 396.09318 124.519424 
L 396.357062 128.256225 
L 396.620319 126.578979 
L 396.882955 126.97343 
L 397.144971 128.527628 
L 397.406372 124.493998 
L 398.18691 121.106382 
L 398.445876 122.112308 
L 399.475754 133.249941 
L 399.731741 137.640489 
L 399.98714 139.547121 
L 400.241953 138.794639 
L 400.496184 135.442833 
L 400.749836 134.820296 
L 401.00291 136.597153 
L 401.507337 133.453612 
L 401.758696 129.173519 
L 402.259715 126.013846 
L 402.509381 125.151685 
L 402.758488 128.490561 
L 403.007038 129.261923 
L 403.255033 126.242174 
L 403.502477 127.665014 
L 403.99572 134.893905 
L 404.241524 134.442139 
L 404.486785 132.702367 
L 404.731507 132.944752 
L 404.975692 130.420437 
L 405.219342 129.483835 
L 405.462459 126.869293 
L 405.705046 126.224943 
L 405.947105 126.734446 
L 406.188638 127.772581 
L 406.429648 129.441242 
L 406.670137 133.484958 
L 406.910107 132.885102 
L 407.149561 131.263454 
L 407.3885 126.759787 
L 407.864843 130.15999 
L 408.339156 134.594953 
L 408.575556 135.201256 
L 408.811454 134.364167 
L 409.046853 132.643422 
L 409.516162 126.546606 
L 409.750076 124.31588 
L 409.983499 123.22829 
L 410.216434 123.474443 
L 410.448881 124.373498 
L 410.680844 123.535731 
L 410.912324 121.904785 
L 411.143323 123.441516 
L 411.373843 122.27009 
L 411.833456 124.838633 
L 412.062552 126.391767 
L 412.519333 131.127458 
L 412.747022 131.466817 
L 412.974246 133.718855 
L 413.653146 131.785749 
L 414.327927 140.440921 
L 414.551947 138.669984 
L 414.775517 139.110993 
L 414.998639 138.577449 
L 415.221314 138.840367 
L 415.665331 143.302662 
L 415.886676 143.578785 
L 416.107582 143.569497 
L 416.32805 143.151889 
L 416.548082 141.532082 
L 416.76768 138.218446 
L 416.986844 136.999596 
L 417.205578 137.311467 
L 417.641759 131.201641 
L 417.85921 130.574369 
L 418.292841 136.39705 
L 418.509023 138.467374 
L 418.724787 137.651781 
L 418.940133 133.438493 
L 419.155063 131.934769 
L 419.58368 126.595755 
L 419.797371 125.372363 
L 420.010652 129.121251 
L 420.223525 128.404044 
L 420.435991 129.150335 
L 420.648052 131.39654 
L 420.85971 135.220648 
L 421.070966 135.827389 
L 421.281821 135.228935 
L 421.492277 135.979939 
L 421.702336 134.15492 
L 421.911999 134.670814 
L 422.121267 132.349957 
L 422.330142 132.651188 
L 422.538626 133.930698 
L 422.74672 133.809117 
L 422.954425 134.048127 
L 423.368675 135.963537 
L 423.781388 139.699686 
L 423.987172 139.081059 
L 424.192576 144.328979 
L 424.397601 143.578543 
L 424.602249 141.850097 
L 424.806521 142.881721 
L 425.213943 135.84463 
L 425.417095 136.791421 
L 425.619878 137.076213 
L 425.822291 136.447243 
L 426.024337 138.417445 
L 426.226016 137.212272 
L 426.42733 135.224654 
L 426.828869 133.552008 
L 427.029096 134.51349 
L 427.826419 131.23155 
L 428.02486 129.500738 
L 428.420682 124.682355 
L 428.618067 124.324114 
L 428.815101 127.19653 
L 429.011788 127.708186 
L 429.208127 127.867922 
L 429.40412 130.878563 
L 429.599768 132.049628 
L 429.795073 130.293727 
L 429.990036 130.850987 
L 430.378938 126.437047 
L 430.572881 126.862362 
L 430.766486 126.515019 
L 430.959755 124.848428 
L 431.152688 125.061381 
L 431.345287 129.641972 
L 431.537554 131.400408 
L 431.729488 131.755436 
L 431.921092 130.018678 
L 432.112367 132.307284 
L 432.303313 130.517875 
L 432.684225 137.3041 
L 432.874192 135.324491 
L 433.063836 135.121689 
L 433.253157 132.867848 
L 433.442156 132.483422 
L 433.630835 135.170807 
L 433.819194 134.755572 
L 434.194958 132.003972 
L 434.569457 138.304715 
L 434.756235 139.114337 
L 435.314693 145.22582 
L 435.685447 143.670889 
L 435.870362 143.638206 
L 436.239271 141.36964 
L 436.606961 142.101851 
L 436.790351 141.084099 
L 436.973439 142.392528 
L 437.156227 138.16544 
L 437.338714 138.508607 
L 437.520903 138.582824 
L 437.702793 139.450908 
L 437.884387 140.923173 
L 438.065685 139.04346 
L 438.427396 141.180558 
L 438.607811 141.051577 
L 438.787934 139.893303 
L 439.147308 140.887637 
L 439.505525 135.561401 
L 439.684201 134.040578 
L 439.862591 134.340476 
L 440.218515 130.960796 
L 440.39605 131.301443 
L 440.926963 141.340314 
L 441.103373 140.564605 
L 441.279503 138.781445 
L 441.455354 138.54929 
L 441.806225 142.573485 
L 441.981247 143.341123 
L 442.330466 141.000958 
L 442.504665 141.468671 
L 443.371591 150.151812 
L 443.544168 150.518312 
L 443.716478 151.238682 
L 443.888522 148.75031 
L 444.060299 148.517846 
L 444.403061 144.065391 
L 444.574047 145.114605 
L 444.74477 144.763077 
L 444.915231 145.065139 
L 445.085432 148.053279 
L 445.425054 144.244281 
L 445.594476 145.009834 
L 445.763642 143.432094 
L 446.101202 138.209316 
L 446.269599 138.665166 
L 446.60563 144.896403 
L 446.773265 146.075117 
L 446.940648 143.550249 
L 447.10778 142.753987 
L 447.441291 138.685567 
L 447.773806 142.544416 
L 447.939691 143.024234 
L 448.270722 142.131264 
L 448.435868 142.595705 
L 448.60077 142.410275 
L 449.094012 138.01388 
L 449.42163 140.881866 
L 449.748285 140.710522 
L 450.236477 147.394624 
L 450.560751 144.940451 
L 450.722535 144.464386 
L 450.884083 146.629088 
L 451.206478 142.32009 
L 451.367325 142.940779 
L 451.52794 146.618989 
L 451.848477 147.884257 
L 452.327556 157.040123 
L 452.6458 156.216903 
L 452.804581 154.533225 
L 452.963135 150.940225 
L 453.121464 152.944543 
L 453.437448 150.736398 
L 453.595104 153.227443 
L 453.752536 151.134174 
L 453.909746 151.929779 
L 454.066734 151.58457 
L 454.380047 148.065517 
L 454.536374 147.091714 
L 454.69248 145.193101 
L 455.314726 150.319987 
L 455.469745 150.685829 
L 455.624548 152.862592 
L 455.779136 152.987032 
L 455.933509 153.372955 
L 456.087669 153.123902 
L 456.395348 155.770479 
L 456.702179 152.335582 
L 456.855278 155.331192 
L 457.160844 154.877695 
L 457.313313 157.060664 
L 457.465573 154.831585 
L 457.76947 161.06095 
L 457.921107 159.031988 
L 458.072538 158.787569 
L 458.525598 159.14064 
L 458.826616 156.541438 
L 458.97682 159.189713 
L 459.126822 158.542858 
L 459.276621 159.6893 
L 459.426219 159.506599 
L 459.575616 160.382492 
L 459.724813 158.828971 
L 460.022607 153.7299 
L 460.319606 156.836473 
L 460.467809 157.254034 
L 460.615814 159.080739 
L 460.763623 156.194313 
L 460.911236 156.499332 
L 461.058652 156.177237 
L 461.352902 158.756068 
L 461.499735 155.010676 
L 461.646374 154.895569 
L 461.939075 150.368945 
L 462.085136 151.569922 
L 462.231007 154.159661 
L 462.376686 151.501541 
L 462.522175 152.770875 
L 462.812582 150.857018 
L 462.957502 150.625302 
L 463.102234 148.800362 
L 463.823079 154.293045 
L 463.966689 153.333555 
L 464.253355 147.627157 
L 464.396411 147.220831 
L 464.681972 152.935296 
L 464.966802 155.508571 
L 465.250905 152.805278 
L 465.534283 149.106611 
L 465.675702 150.664055 
L 465.816942 150.196174 
L 465.958002 151.248242 
L 466.098884 153.526989 
L 466.380113 151.648298 
L 466.520461 152.919637 
L 466.660633 151.378632 
L 466.800628 151.160176 
L 466.940447 151.456102 
L 467.358853 154.423566 
L 467.497972 157.677877 
L 467.636918 157.838459 
L 467.775691 157.39344 
L 468.190972 161.759574 
L 468.604709 155.339326 
L 468.74228 155.118719 
L 468.879681 154.518519 
L 469.016912 152.721293 
L 469.153974 152.64993 
L 469.427593 157.289667 
L 469.564151 157.330995 
L 469.700541 157.076622 
L 469.97282 158.743855 
L 470.10871 157.604365 
L 470.244435 159.195314 
L 470.379994 157.775627 
L 470.515388 161.651603 
L 470.650617 160.980531 
L 470.785682 160.946364 
L 470.920583 161.904166 
L 471.055321 161.957536 
L 471.324308 157.605513 
L 471.592646 161.957459 
L 471.726573 160.595176 
L 471.860338 163.017453 
L 471.993943 162.456636 
L 472.127388 160.949398 
L 472.260673 163.18304 
L 472.393798 161.811116 
L 472.526764 162.063836 
L 472.659571 164.83835 
L 473.057044 162.863413 
L 473.453102 158.800608 
L 473.584808 156.642459 
L 473.716359 156.851643 
L 473.978994 155.207225 
L 474.7632 162.495091 
L 474.893365 162.572446 
L 475.153239 166.212886 
L 475.282949 166.139708 
L 475.412508 166.37543 
L 475.671173 161.370569 
L 475.800281 162.318089 
L 475.929238 161.831743 
L 476.186706 159.590551 
L 476.315217 159.365677 
L 476.571794 160.396941 
L 476.827781 162.099391 
L 477.210659 156.447368 
L 477.337993 158.069611 
L 477.465181 156.58949 
L 477.972484 161.673701 
L 478.09895 160.361364 
L 478.225271 161.20186 
L 478.477484 159.609289 
L 478.603377 161.382219 
L 478.729127 161.533971 
L 478.854735 161.416341 
L 478.980202 162.213906 
L 479.105527 160.863618 
L 479.355755 161.786367 
L 479.480658 160.384326 
L 479.605421 162.407628 
L 479.730044 161.147195 
L 479.854527 161.83522 
L 480.103077 166.348164 
L 480.227144 163.340373 
L 480.351073 164.324067 
L 480.474864 167.319494 
L 480.598517 167.015601 
L 480.845412 170.214302 
L 480.968654 168.484782 
L 481.21473 168.040307 
L 481.337563 169.434474 
L 481.460262 167.548162 
L 481.705253 170.529884 
L 481.827547 170.326671 
L 482.071732 168.777333 
L 482.193623 169.137597 
L 482.437006 167.490131 
L 482.558499 167.515629 
L 482.679858 167.279792 
L 482.922181 163.07339 
L 483.284678 161.358406 
L 483.405248 162.576337 
L 483.525688 161.49827 
L 483.766177 164.746602 
L 484.006147 165.885183 
L 484.2456 168.625116 
L 484.365134 166.816812 
L 484.484539 166.868922 
L 484.722966 169.180726 
L 484.841988 170.429527 
L 484.960883 170.423191 
L 485.079651 168.081475 
L 485.198292 169.780925 
L 485.316807 168.252694 
L 485.435195 169.248979 
L 485.553458 168.950306 
L 485.671595 170.744164 
L 486.142893 167.628013 
L 486.377795 174.672308 
L 486.612202 176.086049 
L 486.72922 174.625775 
L 486.846116 175.607672 
L 486.962889 175.505332 
L 487.196067 177.424667 
L 487.428758 173.790659 
L 487.660962 175.775299 
L 487.776883 175.804729 
L 487.892684 175.355241 
L 488.123923 172.358571 
L 488.469883 175.332431 
L 488.584964 176.49986 
L 489.044102 172.075174 
L 489.272963 176.475452 
L 489.387217 174.012532 
L 489.501353 174.945515 
L 489.615373 174.103092 
L 489.956732 178.030772 
L 490.183724 179.749893 
L 490.523346 171.046066 
L 490.636323 170.358815 
L 490.749186 170.46153 
L 490.861934 173.170991 
L 491.087088 171.708392 
L 491.311787 170.710572 
L 491.423967 169.555407 
L 491.536033 169.644508 
L 491.759828 174.30184 
L 491.983174 177.983192 
L 492.094679 177.463252 
L 492.206072 177.681112 
L 492.317354 176.626592 
L 492.650532 171.174885 
L 492.76137 170.620581 
L 492.872098 170.687981 
L 492.982716 169.740438 
L 493.093224 170.497545 
L 493.203622 169.681777 
L 493.31391 171.148763 
L 493.53416 167.64966 
L 493.753975 169.984607 
L 493.973355 172.47085 
L 494.082884 171.601416 
L 494.301618 175.150562 
L 494.410823 175.51256 
L 494.628914 173.826116 
L 494.737799 174.326961 
L 494.846577 175.763182 
L 494.95525 175.131665 
L 495.172276 171.504489 
L 495.280631 171.685657 
L 495.38888 174.658864 
L 495.605063 172.771947 
L 495.820827 175.450793 
L 496.036172 174.062134 
L 496.143689 174.663633 
L 496.358411 177.673148 
L 496.465617 177.672979 
L 496.679719 175.404734 
L 496.89341 179.666512 
L 497.000102 179.065404 
L 497.319564 170.620467 
L 497.425848 171.976746 
L 497.744092 175.944051 
L 497.849971 176.318529 
L 498.061428 173.578905 
L 498.167005 174.346635 
L 498.37786 173.212823 
L 498.483138 176.147261 
L 498.588317 175.966838 
L 498.693396 176.520324 
L 498.903256 179.228422 
L 499.008038 180.093763 
L 499.217307 184.149316 
L 499.530473 187.040793 
L 499.634666 184.668965 
L 499.738761 185.839333 
L 499.842759 189.573898 
L 499.94666 189.200724 
L 500.154172 185.272763 
L 500.257783 186.060066 
L 500.361297 185.787822 
L 500.464715 185.896526 
L 500.568037 185.219173 
L 500.671263 182.527345 
L 500.774393 183.269612 
L 500.877428 185.458088 
L 501.185961 181.014727 
L 501.391175 185.744376 
L 501.493641 183.603213 
L 501.596012 187.294738 
L 501.800471 181.26938 
L 502.208267 185.390909 
L 502.309982 184.441807 
L 502.614572 186.447319 
L 502.715917 186.399248 
L 502.81717 185.323442 
L 502.918331 185.575255 
L 503.120376 187.790403 
L 503.322056 185.883056 
L 503.422758 188.398844 
L 503.52337 188.217266 
L 503.72432 182.444242 
L 503.82466 182.081966 
L 503.924908 181.144207 
L 504.025067 181.439374 
L 504.225114 186.406692 
L 504.424802 185.015009 
L 504.624132 181.596116 
L 504.723663 181.87831 
L 504.922458 184.804846 
L 505.021723 181.675502 
L 505.318987 186.854524 
L 505.417898 184.370884 
L 505.615458 186.983504 
L 505.812667 184.59791 
L 505.911141 185.393281 
L 506.009528 185.162695 
L 506.107827 185.47022 
L 506.304166 179.706999 
L 506.402206 180.863347 
L 506.50016 179.903887 
L 506.891113 186.844181 
L 506.988637 186.290475 
L 507.086075 185.942279 
L 507.183429 187.637147 
L 507.280697 187.576575 
L 507.37788 187.7003 
L 507.474978 185.376885 
L 507.668921 187.11009 
L 507.862526 183.896602 
L 508.055794 186.071642 
L 508.248728 187.279356 
L 508.345069 185.624827 
L 508.441327 186.245455 
L 508.537502 185.058801 
L 508.633593 186.607272 
L 508.825528 185.039153 
L 509.017132 188.570112 
L 509.208406 189.451779 
L 509.30392 189.218209 
L 509.399353 187.143173 
L 509.494703 188.036384 
L 509.589971 185.401508 
L 509.685158 185.858982 
L 510.254576 179.685396 
L 510.443737 182.371921 
L 510.538196 183.527956 
L 510.632575 183.019065 
L 511.009294 189.552703 
L 511.103275 188.13596 
L 511.290998 186.103612 
L 511.384741 186.994025 
L 511.57199 190.797365 
L 511.665497 191.628421 
L 511.852275 185.717296 
L 512.038739 188.819774 
L 512.131854 187.706269 
L 512.224892 187.72794 
L 512.317851 188.686112 
L 512.503538 192.593452 
L 512.688914 191.594571 
L 512.873983 186.387255 
L 512.966402 186.855742 
L 513.151009 184.220542 
L 513.427347 186.469692 
L 513.519308 184.39638 
L 513.977973 188.380398 
L 514.069479 184.91182 
L 514.16091 187.603786 
L 514.252266 187.238342 
L 514.434754 184.514091 
L 514.525885 185.451974 
L 514.707925 188.067095 
L 514.798833 187.635481 
L 514.889667 188.744381 
L 515.342727 182.781512 
L 515.703851 186.551326 
L 515.883974 181.10392 
L 515.973926 182.392017 
L 516.063806 184.834872 
L 516.243348 182.551498 
L 516.33301 184.108593 
L 516.4226 183.609616 
L 516.690938 189.144874 
L 516.780241 188.084045 
L 516.869471 188.119045 
L 517.047718 181.853029 
L 517.136735 182.774094 
L 517.22568 181.986281 
L 517.403357 179.826874 
L 517.580752 180.477947 
L 517.757863 183.247033 
L 517.934693 184.896554 
L 518.023003 184.664969 
L 518.199412 191.60023 
L 518.287512 191.376681 
L 518.375542 189.164679 
L 518.463503 189.354221 
L 518.551394 189.358888 
L 518.726968 185.146693 
L 518.814651 187.8283 
L 518.902265 186.975999 
L 519.077286 190.181077 
L 519.164694 189.738198 
L 519.252033 189.75226 
L 519.339303 190.556613 
L 519.513639 189.411915 
L 519.600704 190.385285 
L 519.687702 189.695748 
L 519.774631 190.605717 
L 520.12167 187.224021 
L 520.208261 189.223163 
L 520.381241 185.898126 
L 520.553953 188.821046 
L 520.640208 186.330488 
L 520.726396 186.347411 
L 520.812518 187.022122 
L 520.898573 186.086123 
L 521.070483 188.399016 
L 521.242128 185.427025 
L 521.413509 189.140426 
L 521.499101 188.150164 
L 521.584626 187.889353 
L 521.755481 184.609253 
L 521.926073 189.352249 
L 522.011271 189.470838 
L 522.266474 196.850007 
L 522.436285 191.640388 
L 522.521093 191.432786 
L 522.605837 187.660151 
L 522.690516 189.011851 
L 522.775131 187.700552 
L 522.859681 188.113013 
L 523.02859 193.659998 
L 523.197242 192.815359 
L 523.281472 194.289806 
L 523.449741 190.205283 
L 523.533781 191.052081 
L 523.617757 186.361146 
L 523.785518 189.781373 
L 523.953028 188.67032 
L 524.036688 189.240134 
L 524.203819 190.965777 
L 524.3707 190.283762 
L 524.454047 190.805974 
L 524.703713 194.699127 
L 524.78681 194.823442 
L 524.952819 192.135304 
L 525.035731 192.291359 
L 525.531908 197.940091 
L 525.614389 197.173756 
L 525.696809 197.611445 
L 526.190052 190.953276 
L 526.353981 187.023762 
L 526.51767 190.45217 
L 526.599423 190.269936 
L 526.681117 190.679075 
L 526.762751 191.690095 
L 526.844325 194.235098 
L 526.925839 193.469499 
L 527.007294 193.319072 
L 527.170024 195.621323 
L 527.2513 193.188112 
L 527.413674 196.041554 
L 527.494772 195.340798 
L 527.575811 195.646844 
L 527.737712 191.757771 
L 527.899378 193.279979 
L 528.060809 191.084482 
L 528.141437 192.9454 
L 528.222006 192.305969 
L 528.543701 194.710458 
L 528.62398 197.303731 
L 528.704201 195.62534 
L 528.864469 199.517476 
L 528.944517 199.382839 
L 529.024507 200.968956 
L 529.184314 197.030829 
L 529.264132 197.593014 
L 529.423596 195.055383 
L 529.741839 197.431554 
L 529.90062 199.90213 
L 529.979926 199.753133 
L 530.059175 197.72854 
L 530.138368 198.584 
L 530.217504 201.444686 
L 530.296584 200.867996 
L 530.375608 200.097414 
L 530.454576 200.14065 
L 530.533487 201.096586 
L 530.691143 196.262028 
L 530.769887 200.344121 
L 530.848576 199.249334 
L 530.927208 196.020898 
L 531.005786 197.09019 
L 531.084307 195.6562 
L 531.162774 195.790402 
L 531.241185 195.433693 
L 531.319541 194.325877 
L 531.476087 196.956914 
L 531.554278 194.383213 
L 531.632413 194.530025 
L 531.710494 193.508736 
L 531.866491 196.709825 
L 532.02227 195.373042 
L 532.100078 196.180071 
L 532.177831 195.707534 
L 532.25553 195.895573 
L 532.488302 201.333769 
L 532.643213 203.194245 
L 532.875176 199.787071 
L 533.029549 201.812293 
L 533.183709 197.006186 
L 533.337655 199.122334 
L 533.414548 197.57856 
L 533.644909 199.9631 
L 533.798219 199.778104 
L 533.874794 201.911421 
L 533.951317 201.191849 
L 534.180571 202.975404 
L 534.256884 203.187568 
L 534.333144 201.805427 
L 534.409353 201.899487 
L 534.485509 201.089227 
L 534.561613 202.068928 
L 534.789613 199.76517 
L 535.017147 195.647099 
L 535.244216 198.050217 
L 535.395339 199.921303 
L 535.470823 199.635521 
L 535.546256 197.786536 
L 535.997783 208.061223 
L 536.372661 199.886429 
L 536.447485 201.105355 
L 536.671656 207.341925 
L 536.820852 202.956843 
L 536.895376 204.126087 
L 536.969849 205.397391 
L 537.044273 204.872154 
L 537.192971 203.214092 
L 537.267245 203.657382 
L 537.563848 201.269802 
L 537.637876 201.647649 
L 537.785783 203.990029 
L 538.007275 201.4093 
L 538.154692 203.79923 
L 538.228327 205.385277 
L 538.301914 203.72488 
L 538.375452 203.745207 
L 538.448941 203.800703 
L 538.522382 205.365221 
L 538.669118 201.590249 
L 538.742414 206.203471 
L 538.815661 204.681952 
L 538.962011 203.072682 
L 539.035114 203.426681 
L 539.181176 207.317432 
L 539.39991 202.816276 
L 539.690887 209.620772 
L 539.836091 208.458414 
L 539.981105 211.063773 
L 540.125931 207.634845 
L 540.198273 208.809043 
L 540.342817 207.379598 
L 540.487172 209.392151 
L 540.55928 208.660143 
L 540.631341 210.045649 
L 540.703355 208.720558 
L 540.775323 209.394162 
L 540.847244 209.213919 
L 540.919119 209.91056 
L 540.990947 209.001706 
L 541.062729 212.439014 
L 541.134465 212.002485 
L 541.277797 207.151693 
L 541.349394 208.915861 
L 541.420945 208.057865 
L 541.778012 203.727548 
L 541.849288 203.68425 
L 541.991703 207.300099 
L 542.133935 205.619251 
L 542.204984 205.83079 
L 542.346944 203.451226 
L 542.417857 203.441578 
L 542.559546 205.420271 
L 542.701055 203.758587 
L 542.912981 208.996711 
L 543.054042 207.976818 
L 543.405912 214.634684 
L 543.616501 209.189655 
L 543.686609 211.877195 
L 543.966599 204.207306 
L 544.036487 204.480213 
L 544.10633 203.871974 
L 544.17613 204.274392 
L 544.245886 206.495522 
L 544.315599 206.103511 
L 544.454892 203.456863 
L 544.663507 207.079892 
L 544.732958 206.595072 
L 544.802366 206.642749 
L 545.01033 209.463052 
L 545.079565 208.696539 
L 545.148757 208.607341 
L 545.356075 204.58305 
L 545.494072 210.168638 
L 545.563007 209.654182 
L 545.700748 208.694569 
L 545.769555 210.15089 
L 545.838319 210.126031 
L 546.044357 207.816028 
L 546.112952 207.192035 
L 546.250014 209.231043 
L 546.66019 202.656227 
L 546.864713 207.624647 
L 546.932804 207.064553 
L 547.000853 205.447071 
L 547.272633 211.992525 
L 547.340474 213.373539 
L 547.408274 212.700256 
L 547.476033 210.540331 
L 547.611427 212.533967 
L 547.679062 212.208966 
L 547.746656 209.027745 
L 547.81421 209.641556 
L 547.949193 207.796694 
L 548.016623 208.12343 
L 548.285935 215.028428 
L 548.353162 213.187761 
L 548.420348 213.273433 
L 548.621662 216.821704 
L 548.755669 217.757248 
L 548.822612 214.877844 
L 548.889515 216.015914 
L 548.956378 214.989234 
L 549.0232 215.101109 
L 549.089983 216.582768 
L 549.156725 215.968284 
L 549.29009 211.645113 
L 549.423295 214.304344 
L 549.55634 212.077935 
L 549.755611 213.884733 
L 549.954525 212.863352 
L 550.02075 211.049191 
L 550.417279 218.262219 
L 550.615014 212.659675 
L 550.680848 215.482399 
L 550.746643 214.513478 
L 550.812398 214.244751 
L 550.943794 217.260269 
L 551.009433 217.098471 
L 551.075034 216.139833 
L 551.140596 217.221997 
L 551.206119 216.658403 
L 551.337051 213.674584 
L 551.402459 213.515295 
L 551.533159 214.245952 
L 551.728922 219.636934 
L 551.85924 216.693962 
L 552.119418 223.880642 
L 552.184367 223.191915 
L 552.443787 219.211738 
L 552.637955 222.740495 
L 552.960818 214.718053 
L 553.025278 215.746431 
L 553.089701 213.785855 
L 553.154086 214.506951 
L 553.282746 216.458374 
L 553.34702 215.933529 
L 553.411257 214.865243 
L 553.475456 215.603828 
L 553.539619 219.939327 
L 553.603745 219.80327 
L 553.667834 217.725498 
L 553.731886 219.868417 
L 553.795901 219.805067 
L 553.859879 217.658576 
L 553.92382 217.820139 
L 553.987725 217.31796 
L 554.306699 222.895372 
L 554.370384 222.087639 
L 554.497645 220.7078 
L 554.561221 219.398592 
L 554.62476 220.044724 
L 554.878556 226.941858 
L 554.941915 226.23445 
L 555.068524 222.531997 
L 555.194989 226.336845 
L 555.321311 223.222365 
L 555.573524 227.946746 
L 555.887989 220.389908 
L 555.950775 222.302805 
L 556.013526 222.212322 
L 556.138922 221.015846 
L 556.201567 222.241887 
L 556.264176 221.730531 
L 556.326751 222.055869 
L 556.38929 222.041962 
L 556.451794 221.883718 
L 556.514263 218.421337 
L 556.576697 220.11454 
L 556.70146 224.305656 
L 556.888342 219.046051 
L 556.950567 220.375534 
L 557.012756 220.16781 
L 557.074911 222.831085 
L 557.137031 220.997752 
L 557.199117 219.711692 
L 557.261168 220.671818 
L 557.509025 225.299598 
L 557.570903 229.612302 
L 557.632747 227.334303 
L 557.694557 227.836403 
L 557.756332 230.806426 
L 557.818073 229.335537 
L 558.00309 223.675398 
L 558.064694 223.797492 
L 558.126264 226.184759 
L 558.187799 224.414609 
L 558.249301 221.606687 
L 558.494969 227.212188 
L 558.556301 225.270883 
L 558.6176 226.427442 
L 558.678865 228.511031 
L 558.740096 228.022308 
L 558.923587 223.99345 
L 558.984683 224.00969 
L 559.045746 226.076344 
L 559.106775 224.535732 
L 559.167771 223.894966 
L 559.411421 230.780625 
L 559.47225 230.842906 
L 559.533046 230.485462 
L 559.836528 224.292283 
L 560.139184 232.198303 
L 560.199617 230.862453 
L 560.260016 229.57554 
L 560.320383 229.921601 
L 560.441019 231.699459 
L 560.681899 221.009892 
L 560.802143 226.7445 
L 560.862216 226.432261 
L 560.922258 227.058149 
L 560.982266 226.799684 
L 561.042243 226.808 
L 561.102186 228.162186 
L 561.162098 226.161103 
L 561.162098 226.161103 
" clip-path="url(#p8733bf6120)" style="fill: none; stroke: #1f77b4; stroke-linecap: square"/>
   </g>
   <g id="patch_3">
    <path d="M 48.982813 294.590247 
L 48.982813 22.318125 
" style="fill: none; stroke: #000000; stroke-width: 0.8; stroke-linejoin: miter; stroke-linecap: square"/>
   </g>
   <g id="patch_4">
    <path d="M 561.197812 294.590247 
L 561.197812 22.318125 
" style="fill: none; stroke: #000000; stroke-width: 0.8; stroke-linejoin: miter; stroke-linecap: square"/>
   </g>
   <g id="patch_5">
    <path d="M 48.982813 294.590247 
L 561.197812 294.590247 
" style="fill: none; stroke: #000000; stroke-width: 0.8; stroke-linejoin: miter; stroke-linecap: square"/>
   </g>
   <g id="patch_6">
    <path d="M 48.982813 22.318125 
L 561.197812 22.318125 
" style="fill: none; stroke: #000000; stroke-width: 0.8; stroke-linejoin: miter; stroke-linecap: square"/>
   </g>
   <g id="text_14">
    <!-- Ford Explorer Blower Setting 6 - Narrow Band SPL (dBA) -->
    <g transform="translate(137.56375 16.318125) scale(0.12 -0.12)">
     <defs>
      <path id="DejaVuSans-6f" d="M 1959 3097 
Q 1497 3097 1228 2736 
Q 959 2375 959 1747 
Q 959 1119 1226 758 
Q 1494 397 1959 397 
Q 2419 397 2687 759 
Q 2956 1122 2956 1747 
Q 2956 2369 2687 2733 
Q 2419 3097 1959 3097 
z
M 1959 3584 
Q 2709 3584 3137 3096 
Q 3566 2609 3566 1747 
Q 3566 888 3137 398 
Q 2709 -91 1959 -91 
Q 1206 -91 779 398 
Q 353 888 353 1747 
Q 353 2609 779 3096 
Q 1206 3584 1959 3584 
z
" transform="scale(0.015625)"/>
      <path id="DejaVuSans-45" d="M 628 4666 
L 3578 4666 
L 3578 4134 
L 1259 4134 
L 1259 2753 
L 3481 2753 
L 3481 2222 
L 1259 2222 
L 1259 531 
L 3634 531 
L 3634 0 
L 628 0 
L 628 4666 
z
" transform="scale(0.015625)"/>
      <path id="DejaVuSans-78" d="M 3513 3500 
L 2247 1797 
L 3578 0 
L 2900 0 
L 1881 1375 
L 863 0 
L 184 0 
L 1544 1831 
L 300 3500 
L 978 3500 
L 1906 2253 
L 2834 3500 
L 3513 3500 
z
" transform="scale(0.015625)"/>
      <path id="DejaVuSans-70" d="M 1159 525 
L 1159 -1331 
L 581 -1331 
L 581 3500 
L 1159 3500 
L 1159 2969 
Q 1341 3281 1617 3432 
Q 1894 3584 2278 3584 
Q 2916 3584 3314 3078 
Q 3713 2572 3713 1747 
Q 3713 922 3314 415 
Q 2916 -91 2278 -91 
Q 1894 -91 1617 61 
Q 1341 213 1159 525 
z
M 3116 1747 
Q 3116 2381 2855 2742 
Q 2594 3103 2138 3103 
Q 1681 3103 1420 2742 
Q 1159 2381 1159 1747 
Q 1159 1113 1420 752 
Q 1681 391 2138 391 
Q 2594 391 2855 752 
Q 3116 1113 3116 1747 
z
" transform="scale(0.015625)"/>
      <path id="DejaVuSans-6c" d="M 603 4863 
L 1178 4863 
L 1178 0 
L 603 0 
L 603 4863 
z
" transform="scale(0.015625)"/>
      <path id="DejaVuSans-77" d="M 269 3500 
L 844 3500 
L 1563 769 
L 2278 3500 
L 2956 3500 
L 3675 769 
L 4391 3500 
L 4966 3500 
L 4050 0 
L 3372 0 
L 2619 2869 
L 1863 0 
L 1184 0 
L 269 3500 
z
" transform="scale(0.015625)"/>
      <path id="DejaVuSans-74" d="M 1172 4494 
L 1172 3500 
L 2356 3500 
L 2356 3053 
L 1172 3053 
L 1172 1153 
Q 1172 725 1289 603 
Q 1406 481 1766 481 
L 2356 481 
L 2356 0 
L 1766 0 
Q 1100 0 847 248 
Q 594 497 594 1153 
L 594 3053 
L 172 3053 
L 172 3500 
L 594 3500 
L 594 4494 
L 1172 4494 
z
" transform="scale(0.015625)"/>
      <path id="DejaVuSans-69" d="M 603 3500 
L 1178 3500 
L 1178 0 
L 603 0 
L 603 3500 
z
M 603 4863 
L 1178 4863 
L 1178 4134 
L 603 4134 
L 603 4863 
z
" transform="scale(0.015625)"/>
      <path id="DejaVuSans-67" d="M 2906 1791 
Q 2906 2416 2648 2759 
Q 2391 3103 1925 3103 
Q 1463 3103 1205 2759 
Q 947 2416 947 1791 
Q 947 1169 1205 825 
Q 1463 481 1925 481 
Q 2391 481 2648 825 
Q 2906 1169 2906 1791 
z
M 3481 434 
Q 3481 -459 3084 -895 
Q 2688 -1331 1869 -1331 
Q 1566 -1331 1297 -1286 
Q 1028 -1241 775 -1147 
L 775 -588 
Q 1028 -725 1275 -790 
Q 1522 -856 1778 -856 
Q 2344 -856 2625 -561 
Q 2906 -266 2906 331 
L 2906 616 
Q 2728 306 2450 153 
Q 2172 0 1784 0 
Q 1141 0 747 490 
Q 353 981 353 1791 
Q 353 2603 747 3093 
Q 1141 3584 1784 3584 
Q 2172 3584 2450 3431 
Q 2728 3278 2906 2969 
L 2906 3500 
L 3481 3500 
L 3481 434 
z
" transform="scale(0.015625)"/>
      <path id="DejaVuSans-36" d="M 2113 2584 
Q 1688 2584 1439 2293 
Q 1191 2003 1191 1497 
Q 1191 994 1439 701 
Q 1688 409 2113 409 
Q 2538 409 2786 701 
Q 3034 994 3034 1497 
Q 3034 2003 2786 2293 
Q 2538 2584 2113 2584 
z
M 3366 4563 
L 3366 3988 
Q 3128 4100 2886 4159 
Q 2644 4219 2406 4219 
Q 1781 4219 1451 3797 
Q 1122 3375 1075 2522 
Q 1259 2794 1537 2939 
Q 1816 3084 2150 3084 
Q 2853 3084 3261 2657 
Q 3669 2231 3669 1497 
Q 3669 778 3244 343 
Q 2819 -91 2113 -91 
Q 1303 -91 875 529 
Q 447 1150 447 2328 
Q 447 3434 972 4092 
Q 1497 4750 2381 4750 
Q 2619 4750 2861 4703 
Q 3103 4656 3366 4563 
z
" transform="scale(0.015625)"/>
      <path id="DejaVuSans-2d" d="M 313 2009 
L 1997 2009 
L 1997 1497 
L 313 1497 
L 313 2009 
z
" transform="scale(0.015625)"/>
      <path id="DejaVuSans-4e" d="M 628 4666 
L 1478 4666 
L 3547 763 
L 3547 4666 
L 4159 4666 
L 4159 0 
L 3309 0 
L 1241 3903 
L 1241 0 
L 628 0 
L 628 4666 
z
" transform="scale(0.015625)"/>
      <path id="DejaVuSans-61" d="M 2194 1759 
Q 1497 1759 1228 1600 
Q 959 1441 959 1056 
Q 959 750 1161 570 
Q 1363 391 1709 391 
Q 2188 391 2477 730 
Q 2766 1069 2766 1631 
L 2766 1759 
L 2194 1759 
z
M 3341 1997 
L 3341 0 
L 2766 0 
L 2766 531 
Q 2569 213 2275 61 
Q 1981 -91 1556 -91 
Q 1019 -91 701 211 
Q 384 513 384 1019 
Q 384 1609 779 1909 
Q 1175 2209 1959 2209 
L 2766 2209 
L 2766 2266 
Q 2766 2663 2505 2880 
Q 2244 3097 1772 3097 
Q 1472 3097 1187 3025 
Q 903 2953 641 2809 
L 641 3341 
Q 956 3463 1253 3523 
Q 1550 3584 1831 3584 
Q 2591 3584 2966 3190 
Q 3341 2797 3341 1997 
z
" transform="scale(0.015625)"/>
     </defs>
     <use xlink:href="#DejaVuSans-46"/>
     <use xlink:href="#DejaVuSans-6f" transform="translate(53.894531 0)"/>
     <use xlink:href="#DejaVuSans-72" transform="translate(115.076172 0)"/>
     <use xlink:href="#DejaVuSans-64" transform="translate(154.439453 0)"/>
     <use xlink:href="#DejaVuSans-20" transform="translate(217.916016 0)"/>
     <use xlink:href="#DejaVuSans-45" transform="translate(249.703125 0)"/>
     <use xlink:href="#DejaVuSans-78" transform="translate(312.886719 0)"/>
     <use xlink:href="#DejaVuSans-70" transform="translate(372.066406 0)"/>
     <use xlink:href="#DejaVuSans-6c" transform="translate(435.542969 0)"/>
     <use xlink:href="#DejaVuSans-6f" transform="translate(463.326172 0)"/>
     <use xlink:href="#DejaVuSans-72" transform="translate(524.507812 0)"/>
     <use xlink:href="#DejaVuSans-65" transform="translate(563.371094 0)"/>
     <use xlink:href="#DejaVuSans-72" transform="translate(624.894531 0)"/>
     <use xlink:href="#DejaVuSans-20" transform="translate(666.007812 0)"/>
     <use xlink:href="#DejaVuSans-42" transform="translate(697.794922 0)"/>
     <use xlink:href="#DejaVuSans-6c" transform="translate(766.398438 0)"/>
     <use xlink:href="#DejaVuSans-6f" transform="translate(794.181641 0)"/>
     <use xlink:href="#DejaVuSans-77" transform="translate(855.363281 0)"/>
     <use xlink:href="#DejaVuSans-65" transform="translate(937.150391 0)"/>
     <use xlink:href="#DejaVuSans-72" transform="translate(998.673828 0)"/>
     <use xlink:href="#DejaVuSans-20" transform="translate(1039.787109 0)"/>
     <use xlink:href="#DejaVuSans-53" transform="translate(1071.574219 0)"/>
     <use xlink:href="#DejaVuSans-65" transform="translate(1135.050781 0)"/>
     <use xlink:href="#DejaVuSans-74" transform="translate(1196.574219 0)"/>
     <use xlink:href="#DejaVuSans-74" transform="translate(1235.783203 0)"/>
     <use xlink:href="#DejaVuSans-69" transform="translate(1274.992188 0)"/>
     <use xlink:href="#DejaVuSans-6e" transform="translate(1302.775391 0)"/>
     <use xlink:href="#DejaVuSans-67" transform="translate(1366.154297 0)"/>
     <use xlink:href="#DejaVuSans-20" transform="translate(1429.630859 0)"/>
     <use xlink:href="#DejaVuSans-36" transform="translate(1461.417969 0)"/>
     <use xlink:href="#DejaVuSans-20" transform="translate(1525.041016 0)"/>
     <use xlink:href="#DejaVuSans-2d" transform="translate(1556.828125 0)"/>
     <use xlink:href="#DejaVuSans-20" transform="translate(1592.912109 0)"/>
     <use xlink:href="#DejaVuSans-4e" transform="translate(1624.699219 0)"/>
     <use xlink:href="#DejaVuSans-61" transform="translate(1699.503906 0)"/>
     <use xlink:href="#DejaVuSans-72" transform="translate(1760.783203 0)"/>
     <use xlink:href="#DejaVuSans-72" transform="translate(1800.146484 0)"/>
     <use xlink:href="#DejaVuSans-6f" transform="translate(1839.009766 0)"/>
     <use xlink:href="#DejaVuSans-77" transform="translate(1900.191406 0)"/>
     <use xlink:href="#DejaVuSans-20" transform="translate(1981.978516 0)"/>
     <use xlink:href="#DejaVuSans-42" transform="translate(2013.765625 0)"/>
     <use xlink:href="#DejaVuSans-61" transform="translate(2082.369141 0)"/>
     <use xlink:href="#DejaVuSans-6e" transform="translate(2143.648438 0)"/>
     <use xlink:href="#DejaVuSans-64" transform="translate(2207.027344 0)"/>
     <use xlink:href="#DejaVuSans-20" transform="translate(2270.503906 0)"/>
     <use xlink:href="#DejaVuSans-53" transform="translate(2302.291016 0)"/>
     <use xlink:href="#DejaVuSans-50" transform="translate(2365.767578 0)"/>
     <use xlink:href="#DejaVuSans-4c" transform="translate(2426.070312 0)"/>
     <use xlink:href="#DejaVuSans-20" transform="translate(2481.783203 0)"/>
     <use xlink:href="#DejaVuSans-28" transform="translate(2513.570312 0)"/>
     <use xlink:href="#DejaVuSans-64" transform="translate(2552.583984 0)"/>
     <use xlink:href="#DejaVuSans-42" transform="translate(2616.060547 0)"/>
     <use xlink:href="#DejaVuSans-41" transform="translate(2684.664062 0)"/>
     <use xlink:href="#DejaVuSans-29" transform="translate(2753.072266 0)"/>
    </g>
   </g>
  </g>
 </g>
 <defs>
  <clipPath id="p8733bf6120">
   <rect x="48.982813" y="22.318125" width="512.215" height="272.272122"/>
  </clipPath>
 </defs>
</svg>
