<?xml version="1.0" encoding="utf-8" standalone="no"?>
<!DOCTYPE svg PUBLIC "-//W3C//DTD SVG 1.1//EN"
  "http://www.w3.org/Graphics/SVG/1.1/DTD/svg11.dtd">
<svg xmlns:xlink="http://www.w3.org/1999/xlink" width="568.397812pt" height="351.806674pt" viewBox="0 0 568.397812 351.806674" xmlns="http://www.w3.org/2000/svg" version="1.1">
 <metadata>
  <rdf:RDF xmlns:dc="http://purl.org/dc/elements/1.1/" xmlns:cc="http://creativecommons.org/ns#" xmlns:rdf="http://www.w3.org/1999/02/22-rdf-syntax-ns#">
   <cc:Work>
    <dc:type rdf:resource="http://purl.org/dc/dcmitype/StillImage"/>
    <dc:date>2025-04-24T19:41:10.923723</dc:date>
    <dc:format>image/svg+xml</dc:format>
    <dc:creator>
     <cc:Agent>
      <dc:title>Matplotlib v3.10.0, https://matplotlib.org/</dc:title>
     </cc:Agent>
    </dc:creator>
   </cc:Work>
  </rdf:RDF>
 </metadata>
 <defs>
  <style type="text/css">*{stroke-linejoin: round; stroke-linecap: butt}</style>
 </defs>
 <g id="figure_1">
  <g id="patch_1">
   <path d="M 0 351.806674 
L 568.397812 351.806674 
L 568.397812 0 
L 0 0 
z
" style="fill: #ffffff"/>
  </g>
  <g id="axes_1">
   <g id="patch_2">
    <path d="M 48.982813 294.590247 
L 561.197812 294.590247 
L 561.197812 22.318125 
L 48.982813 22.318125 
z
" style="fill: #ffffff"/>
   </g>
   <g id="matplotlib.axis_1">
    <g id="xtick_1">
     <g id="line2d_1">
      <path d="M 48.982813 294.590247 
L 48.982813 22.318125 
" clip-path="url(#p08811f2531)" style="fill: none; stroke-dasharray: 1.85,0.8; stroke-dashoffset: 0; stroke: #b0b0b0; stroke-width: 0.5"/>
     </g>
     <g id="line2d_2">
      <defs>
       <path id="mefb78e1964" d="M 0 0 
L 0 3.5 
" style="stroke: #000000; stroke-width: 0.8"/>
      </defs>
      <g>
       <use xlink:href="#mefb78e1964" x="48.982813" y="294.590247" style="stroke: #000000; stroke-width: 0.8"/>
      </g>
     </g>
     <g id="text_1">
      <!-- 100 -->
      <g transform="translate(34.015351 320.460054) rotate(-45) scale(0.1 -0.1)">
       <defs>
        <path id="DejaVuSans-31" d="M 794 531 
L 1825 531 
L 1825 4091 
L 703 3866 
L 703 4441 
L 1819 4666 
L 2450 4666 
L 2450 531 
L 3481 531 
L 3481 0 
L 794 0 
L 794 531 
z
" transform="scale(0.015625)"/>
        <path id="DejaVuSans-30" d="M 2034 4250 
Q 1547 4250 1301 3770 
Q 1056 3291 1056 2328 
Q 1056 1369 1301 889 
Q 1547 409 2034 409 
Q 2525 409 2770 889 
Q 3016 1369 3016 2328 
Q 3016 3291 2770 3770 
Q 2525 4250 2034 4250 
z
M 2034 4750 
Q 2819 4750 3233 4129 
Q 3647 3509 3647 2328 
Q 3647 1150 3233 529 
Q 2819 -91 2034 -91 
Q 1250 -91 836 529 
Q 422 1150 422 2328 
Q 422 3509 836 4129 
Q 1250 4750 2034 4750 
z
" transform="scale(0.015625)"/>
       </defs>
       <use xlink:href="#DejaVuSans-31"/>
       <use xlink:href="#DejaVuSans-30" transform="translate(63.623047 0)"/>
       <use xlink:href="#DejaVuSans-30" transform="translate(127.246094 0)"/>
      </g>
     </g>
    </g>
    <g id="xtick_2">
     <g id="line2d_3">
      <path d="M 305.090312 294.590247 
L 305.090312 22.318125 
" clip-path="url(#p08811f2531)" style="fill: none; stroke-dasharray: 1.85,0.8; stroke-dashoffset: 0; stroke: #b0b0b0; stroke-width: 0.5"/>
     </g>
     <g id="line2d_4">
      <g>
       <use xlink:href="#mefb78e1964" x="305.090312" y="294.590247" style="stroke: #000000; stroke-width: 0.8"/>
      </g>
     </g>
     <g id="text_2">
      <!-- 1000 -->
      <g transform="translate(285.623884 324.959021) rotate(-45) scale(0.1 -0.1)">
       <use xlink:href="#DejaVuSans-31"/>
       <use xlink:href="#DejaVuSans-30" transform="translate(63.623047 0)"/>
       <use xlink:href="#DejaVuSans-30" transform="translate(127.246094 0)"/>
       <use xlink:href="#DejaVuSans-30" transform="translate(190.869141 0)"/>
      </g>
     </g>
    </g>
    <g id="xtick_3">
     <g id="line2d_5">
      <path d="M 561.197812 294.590247 
L 561.197812 22.318125 
" clip-path="url(#p08811f2531)" style="fill: none; stroke-dasharray: 1.85,0.8; stroke-dashoffset: 0; stroke: #b0b0b0; stroke-width: 0.5"/>
     </g>
     <g id="line2d_6">
      <g>
       <use xlink:href="#mefb78e1964" x="561.197812" y="294.590247" style="stroke: #000000; stroke-width: 0.8"/>
      </g>
     </g>
     <g id="text_3">
      <!-- 10000 -->
      <g transform="translate(537.232417 329.457988) rotate(-45) scale(0.1 -0.1)">
       <use xlink:href="#DejaVuSans-31"/>
       <use xlink:href="#DejaVuSans-30" transform="translate(63.623047 0)"/>
       <use xlink:href="#DejaVuSans-30" transform="translate(127.246094 0)"/>
       <use xlink:href="#DejaVuSans-30" transform="translate(190.869141 0)"/>
       <use xlink:href="#DejaVuSans-30" transform="translate(254.492188 0)"/>
      </g>
     </g>
    </g>
    <g id="xtick_4">
     <g id="line2d_7">
      <path d="M 126.078852 294.590247 
L 126.078852 22.318125 
" clip-path="url(#p08811f2531)" style="fill: none; stroke-dasharray: 1.85,0.8; stroke-dashoffset: 0; stroke: #b0b0b0; stroke-width: 0.5"/>
     </g>
     <g id="line2d_8">
      <defs>
       <path id="md0fa5d4274" d="M 0 0 
L 0 2 
" style="stroke: #000000; stroke-width: 0.6"/>
      </defs>
      <g>
       <use xlink:href="#md0fa5d4274" x="126.078852" y="294.590247" style="stroke: #000000; stroke-width: 0.6"/>
      </g>
     </g>
    </g>
    <g id="xtick_5">
     <g id="line2d_9">
      <path d="M 171.177144 294.590247 
L 171.177144 22.318125 
" clip-path="url(#p08811f2531)" style="fill: none; stroke-dasharray: 1.85,0.8; stroke-dashoffset: 0; stroke: #b0b0b0; stroke-width: 0.5"/>
     </g>
     <g id="line2d_10">
      <g>
       <use xlink:href="#md0fa5d4274" x="171.177144" y="294.590247" style="stroke: #000000; stroke-width: 0.6"/>
      </g>
     </g>
    </g>
    <g id="xtick_6">
     <g id="line2d_11">
      <path d="M 203.174892 294.590247 
L 203.174892 22.318125 
" clip-path="url(#p08811f2531)" style="fill: none; stroke-dasharray: 1.85,0.8; stroke-dashoffset: 0; stroke: #b0b0b0; stroke-width: 0.5"/>
     </g>
     <g id="line2d_12">
      <g>
       <use xlink:href="#md0fa5d4274" x="203.174892" y="294.590247" style="stroke: #000000; stroke-width: 0.6"/>
      </g>
     </g>
    </g>
    <g id="xtick_7">
     <g id="line2d_13">
      <path d="M 227.994273 294.590247 
L 227.994273 22.318125 
" clip-path="url(#p08811f2531)" style="fill: none; stroke-dasharray: 1.85,0.8; stroke-dashoffset: 0; stroke: #b0b0b0; stroke-width: 0.5"/>
     </g>
     <g id="line2d_14">
      <g>
       <use xlink:href="#md0fa5d4274" x="227.994273" y="294.590247" style="stroke: #000000; stroke-width: 0.6"/>
      </g>
     </g>
    </g>
    <g id="xtick_8">
     <g id="line2d_15">
      <path d="M 248.273184 294.590247 
L 248.273184 22.318125 
" clip-path="url(#p08811f2531)" style="fill: none; stroke-dasharray: 1.85,0.8; stroke-dashoffset: 0; stroke: #b0b0b0; stroke-width: 0.5"/>
     </g>
     <g id="line2d_16">
      <g>
       <use xlink:href="#md0fa5d4274" x="248.273184" y="294.590247" style="stroke: #000000; stroke-width: 0.6"/>
      </g>
     </g>
    </g>
    <g id="xtick_9">
     <g id="line2d_17">
      <path d="M 265.418759 294.590247 
L 265.418759 22.318125 
" clip-path="url(#p08811f2531)" style="fill: none; stroke-dasharray: 1.85,0.8; stroke-dashoffset: 0; stroke: #b0b0b0; stroke-width: 0.5"/>
     </g>
     <g id="line2d_18">
      <g>
       <use xlink:href="#md0fa5d4274" x="265.418759" y="294.590247" style="stroke: #000000; stroke-width: 0.6"/>
      </g>
     </g>
    </g>
    <g id="xtick_10">
     <g id="line2d_19">
      <path d="M 280.270931 294.590247 
L 280.270931 22.318125 
" clip-path="url(#p08811f2531)" style="fill: none; stroke-dasharray: 1.85,0.8; stroke-dashoffset: 0; stroke: #b0b0b0; stroke-width: 0.5"/>
     </g>
     <g id="line2d_20">
      <g>
       <use xlink:href="#md0fa5d4274" x="280.270931" y="294.590247" style="stroke: #000000; stroke-width: 0.6"/>
      </g>
     </g>
    </g>
    <g id="xtick_11">
     <g id="line2d_21">
      <path d="M 293.371476 294.590247 
L 293.371476 22.318125 
" clip-path="url(#p08811f2531)" style="fill: none; stroke-dasharray: 1.85,0.8; stroke-dashoffset: 0; stroke: #b0b0b0; stroke-width: 0.5"/>
     </g>
     <g id="line2d_22">
      <g>
       <use xlink:href="#md0fa5d4274" x="293.371476" y="294.590247" style="stroke: #000000; stroke-width: 0.6"/>
      </g>
     </g>
    </g>
    <g id="xtick_12">
     <g id="line2d_23">
      <path d="M 382.186352 294.590247 
L 382.186352 22.318125 
" clip-path="url(#p08811f2531)" style="fill: none; stroke-dasharray: 1.85,0.8; stroke-dashoffset: 0; stroke: #b0b0b0; stroke-width: 0.5"/>
     </g>
     <g id="line2d_24">
      <g>
       <use xlink:href="#md0fa5d4274" x="382.186352" y="294.590247" style="stroke: #000000; stroke-width: 0.6"/>
      </g>
     </g>
    </g>
    <g id="xtick_13">
     <g id="line2d_25">
      <path d="M 427.284644 294.590247 
L 427.284644 22.318125 
" clip-path="url(#p08811f2531)" style="fill: none; stroke-dasharray: 1.85,0.8; stroke-dashoffset: 0; stroke: #b0b0b0; stroke-width: 0.5"/>
     </g>
     <g id="line2d_26">
      <g>
       <use xlink:href="#md0fa5d4274" x="427.284644" y="294.590247" style="stroke: #000000; stroke-width: 0.6"/>
      </g>
     </g>
    </g>
    <g id="xtick_14">
     <g id="line2d_27">
      <path d="M 459.282392 294.590247 
L 459.282392 22.318125 
" clip-path="url(#p08811f2531)" style="fill: none; stroke-dasharray: 1.85,0.8; stroke-dashoffset: 0; stroke: #b0b0b0; stroke-width: 0.5"/>
     </g>
     <g id="line2d_28">
      <g>
       <use xlink:href="#md0fa5d4274" x="459.282392" y="294.590247" style="stroke: #000000; stroke-width: 0.6"/>
      </g>
     </g>
    </g>
    <g id="xtick_15">
     <g id="line2d_29">
      <path d="M 484.101773 294.590247 
L 484.101773 22.318125 
" clip-path="url(#p08811f2531)" style="fill: none; stroke-dasharray: 1.85,0.8; stroke-dashoffset: 0; stroke: #b0b0b0; stroke-width: 0.5"/>
     </g>
     <g id="line2d_30">
      <g>
       <use xlink:href="#md0fa5d4274" x="484.101773" y="294.590247" style="stroke: #000000; stroke-width: 0.6"/>
      </g>
     </g>
    </g>
    <g id="xtick_16">
     <g id="line2d_31">
      <path d="M 504.380684 294.590247 
L 504.380684 22.318125 
" clip-path="url(#p08811f2531)" style="fill: none; stroke-dasharray: 1.85,0.8; stroke-dashoffset: 0; stroke: #b0b0b0; stroke-width: 0.5"/>
     </g>
     <g id="line2d_32">
      <g>
       <use xlink:href="#md0fa5d4274" x="504.380684" y="294.590247" style="stroke: #000000; stroke-width: 0.6"/>
      </g>
     </g>
    </g>
    <g id="xtick_17">
     <g id="line2d_33">
      <path d="M 521.526259 294.590247 
L 521.526259 22.318125 
" clip-path="url(#p08811f2531)" style="fill: none; stroke-dasharray: 1.85,0.8; stroke-dashoffset: 0; stroke: #b0b0b0; stroke-width: 0.5"/>
     </g>
     <g id="line2d_34">
      <g>
       <use xlink:href="#md0fa5d4274" x="521.526259" y="294.590247" style="stroke: #000000; stroke-width: 0.6"/>
      </g>
     </g>
    </g>
    <g id="xtick_18">
     <g id="line2d_35">
      <path d="M 536.378431 294.590247 
L 536.378431 22.318125 
" clip-path="url(#p08811f2531)" style="fill: none; stroke-dasharray: 1.85,0.8; stroke-dashoffset: 0; stroke: #b0b0b0; stroke-width: 0.5"/>
     </g>
     <g id="line2d_36">
      <g>
       <use xlink:href="#md0fa5d4274" x="536.378431" y="294.590247" style="stroke: #000000; stroke-width: 0.6"/>
      </g>
     </g>
    </g>
    <g id="xtick_19">
     <g id="line2d_37">
      <path d="M 549.478976 294.590247 
L 549.478976 22.318125 
" clip-path="url(#p08811f2531)" style="fill: none; stroke-dasharray: 1.85,0.8; stroke-dashoffset: 0; stroke: #b0b0b0; stroke-width: 0.5"/>
     </g>
     <g id="line2d_38">
      <g>
       <use xlink:href="#md0fa5d4274" x="549.478976" y="294.590247" style="stroke: #000000; stroke-width: 0.6"/>
      </g>
     </g>
    </g>
    <g id="text_4">
     <!-- Frequency (Hz) -->
     <g transform="translate(267.385625 342.526987) scale(0.1 -0.1)">
      <defs>
       <path id="DejaVuSans-46" d="M 628 4666 
L 3309 4666 
L 3309 4134 
L 1259 4134 
L 1259 2759 
L 3109 2759 
L 3109 2228 
L 1259 2228 
L 1259 0 
L 628 0 
L 628 4666 
z
" transform="scale(0.015625)"/>
       <path id="DejaVuSans-72" d="M 2631 2963 
Q 2534 3019 2420 3045 
Q 2306 3072 2169 3072 
Q 1681 3072 1420 2755 
Q 1159 2438 1159 1844 
L 1159 0 
L 581 0 
L 581 3500 
L 1159 3500 
L 1159 2956 
Q 1341 3275 1631 3429 
Q 1922 3584 2338 3584 
Q 2397 3584 2469 3576 
Q 2541 3569 2628 3553 
L 2631 2963 
z
" transform="scale(0.015625)"/>
       <path id="DejaVuSans-65" d="M 3597 1894 
L 3597 1613 
L 953 1613 
Q 991 1019 1311 708 
Q 1631 397 2203 397 
Q 2534 397 2845 478 
Q 3156 559 3463 722 
L 3463 178 
Q 3153 47 2828 -22 
Q 2503 -91 2169 -91 
Q 1331 -91 842 396 
Q 353 884 353 1716 
Q 353 2575 817 3079 
Q 1281 3584 2069 3584 
Q 2775 3584 3186 3129 
Q 3597 2675 3597 1894 
z
M 3022 2063 
Q 3016 2534 2758 2815 
Q 2500 3097 2075 3097 
Q 1594 3097 1305 2825 
Q 1016 2553 972 2059 
L 3022 2063 
z
" transform="scale(0.015625)"/>
       <path id="DejaVuSans-71" d="M 947 1747 
Q 947 1113 1208 752 
Q 1469 391 1925 391 
Q 2381 391 2643 752 
Q 2906 1113 2906 1747 
Q 2906 2381 2643 2742 
Q 2381 3103 1925 3103 
Q 1469 3103 1208 2742 
Q 947 2381 947 1747 
z
M 2906 525 
Q 2725 213 2448 61 
Q 2172 -91 1784 -91 
Q 1150 -91 751 415 
Q 353 922 353 1747 
Q 353 2572 751 3078 
Q 1150 3584 1784 3584 
Q 2172 3584 2448 3432 
Q 2725 3281 2906 2969 
L 2906 3500 
L 3481 3500 
L 3481 -1331 
L 2906 -1331 
L 2906 525 
z
" transform="scale(0.015625)"/>
       <path id="DejaVuSans-75" d="M 544 1381 
L 544 3500 
L 1119 3500 
L 1119 1403 
Q 1119 906 1312 657 
Q 1506 409 1894 409 
Q 2359 409 2629 706 
Q 2900 1003 2900 1516 
L 2900 3500 
L 3475 3500 
L 3475 0 
L 2900 0 
L 2900 538 
Q 2691 219 2414 64 
Q 2138 -91 1772 -91 
Q 1169 -91 856 284 
Q 544 659 544 1381 
z
M 1991 3584 
L 1991 3584 
z
" transform="scale(0.015625)"/>
       <path id="DejaVuSans-6e" d="M 3513 2113 
L 3513 0 
L 2938 0 
L 2938 2094 
Q 2938 2591 2744 2837 
Q 2550 3084 2163 3084 
Q 1697 3084 1428 2787 
Q 1159 2491 1159 1978 
L 1159 0 
L 581 0 
L 581 3500 
L 1159 3500 
L 1159 2956 
Q 1366 3272 1645 3428 
Q 1925 3584 2291 3584 
Q 2894 3584 3203 3211 
Q 3513 2838 3513 2113 
z
" transform="scale(0.015625)"/>
       <path id="DejaVuSans-63" d="M 3122 3366 
L 3122 2828 
Q 2878 2963 2633 3030 
Q 2388 3097 2138 3097 
Q 1578 3097 1268 2742 
Q 959 2388 959 1747 
Q 959 1106 1268 751 
Q 1578 397 2138 397 
Q 2388 397 2633 464 
Q 2878 531 3122 666 
L 3122 134 
Q 2881 22 2623 -34 
Q 2366 -91 2075 -91 
Q 1284 -91 818 406 
Q 353 903 353 1747 
Q 353 2603 823 3093 
Q 1294 3584 2113 3584 
Q 2378 3584 2631 3529 
Q 2884 3475 3122 3366 
z
" transform="scale(0.015625)"/>
       <path id="DejaVuSans-79" d="M 2059 -325 
Q 1816 -950 1584 -1140 
Q 1353 -1331 966 -1331 
L 506 -1331 
L 506 -850 
L 844 -850 
Q 1081 -850 1212 -737 
Q 1344 -625 1503 -206 
L 1606 56 
L 191 3500 
L 800 3500 
L 1894 763 
L 2988 3500 
L 3597 3500 
L 2059 -325 
z
" transform="scale(0.015625)"/>
       <path id="DejaVuSans-20" transform="scale(0.015625)"/>
       <path id="DejaVuSans-28" d="M 1984 4856 
Q 1566 4138 1362 3434 
Q 1159 2731 1159 2009 
Q 1159 1288 1364 580 
Q 1569 -128 1984 -844 
L 1484 -844 
Q 1016 -109 783 600 
Q 550 1309 550 2009 
Q 550 2706 781 3412 
Q 1013 4119 1484 4856 
L 1984 4856 
z
" transform="scale(0.015625)"/>
       <path id="DejaVuSans-48" d="M 628 4666 
L 1259 4666 
L 1259 2753 
L 3553 2753 
L 3553 4666 
L 4184 4666 
L 4184 0 
L 3553 0 
L 3553 2222 
L 1259 2222 
L 1259 0 
L 628 0 
L 628 4666 
z
" transform="scale(0.015625)"/>
       <path id="DejaVuSans-7a" d="M 353 3500 
L 3084 3500 
L 3084 2975 
L 922 459 
L 3084 459 
L 3084 0 
L 275 0 
L 275 525 
L 2438 3041 
L 353 3041 
L 353 3500 
z
" transform="scale(0.015625)"/>
       <path id="DejaVuSans-29" d="M 513 4856 
L 1013 4856 
Q 1481 4119 1714 3412 
Q 1947 2706 1947 2009 
Q 1947 1309 1714 600 
Q 1481 -109 1013 -844 
L 513 -844 
Q 928 -128 1133 580 
Q 1338 1288 1338 2009 
Q 1338 2731 1133 3434 
Q 928 4138 513 4856 
z
" transform="scale(0.015625)"/>
      </defs>
      <use xlink:href="#DejaVuSans-46"/>
      <use xlink:href="#DejaVuSans-72" transform="translate(50.269531 0)"/>
      <use xlink:href="#DejaVuSans-65" transform="translate(89.132812 0)"/>
      <use xlink:href="#DejaVuSans-71" transform="translate(150.65625 0)"/>
      <use xlink:href="#DejaVuSans-75" transform="translate(214.132812 0)"/>
      <use xlink:href="#DejaVuSans-65" transform="translate(277.511719 0)"/>
      <use xlink:href="#DejaVuSans-6e" transform="translate(339.035156 0)"/>
      <use xlink:href="#DejaVuSans-63" transform="translate(402.414062 0)"/>
      <use xlink:href="#DejaVuSans-79" transform="translate(457.394531 0)"/>
      <use xlink:href="#DejaVuSans-20" transform="translate(516.574219 0)"/>
      <use xlink:href="#DejaVuSans-28" transform="translate(548.361328 0)"/>
      <use xlink:href="#DejaVuSans-48" transform="translate(587.375 0)"/>
      <use xlink:href="#DejaVuSans-7a" transform="translate(662.570312 0)"/>
      <use xlink:href="#DejaVuSans-29" transform="translate(715.060547 0)"/>
     </g>
    </g>
   </g>
   <g id="matplotlib.axis_2">
    <g id="ytick_1">
     <g id="line2d_39">
      <path d="M 48.982813 294.590247 
L 561.197812 294.590247 
" clip-path="url(#p08811f2531)" style="fill: none; stroke-dasharray: 1.85,0.8; stroke-dashoffset: 0; stroke: #b0b0b0; stroke-width: 0.5"/>
     </g>
     <g id="line2d_40">
      <defs>
       <path id="mcf31289fc9" d="M 0 0 
L -3.5 0 
" style="stroke: #000000; stroke-width: 0.8"/>
      </defs>
      <g>
       <use xlink:href="#mcf31289fc9" x="48.982813" y="294.590247" style="stroke: #000000; stroke-width: 0.8"/>
      </g>
     </g>
     <g id="text_5">
      <!-- −20 -->
      <g transform="translate(20.878125 298.389466) scale(0.1 -0.1)">
       <defs>
        <path id="DejaVuSans-2212" d="M 678 2272 
L 4684 2272 
L 4684 1741 
L 678 1741 
L 678 2272 
z
" transform="scale(0.015625)"/>
        <path id="DejaVuSans-32" d="M 1228 531 
L 3431 531 
L 3431 0 
L 469 0 
L 469 531 
Q 828 903 1448 1529 
Q 2069 2156 2228 2338 
Q 2531 2678 2651 2914 
Q 2772 3150 2772 3378 
Q 2772 3750 2511 3984 
Q 2250 4219 1831 4219 
Q 1534 4219 1204 4116 
Q 875 4013 500 3803 
L 500 4441 
Q 881 4594 1212 4672 
Q 1544 4750 1819 4750 
Q 2544 4750 2975 4387 
Q 3406 4025 3406 3419 
Q 3406 3131 3298 2873 
Q 3191 2616 2906 2266 
Q 2828 2175 2409 1742 
Q 1991 1309 1228 531 
z
" transform="scale(0.015625)"/>
       </defs>
       <use xlink:href="#DejaVuSans-2212"/>
       <use xlink:href="#DejaVuSans-32" transform="translate(83.789062 0)"/>
       <use xlink:href="#DejaVuSans-30" transform="translate(147.412109 0)"/>
      </g>
     </g>
    </g>
    <g id="ytick_2">
     <g id="line2d_41">
      <path d="M 48.982813 255.694229 
L 561.197812 255.694229 
" clip-path="url(#p08811f2531)" style="fill: none; stroke-dasharray: 1.85,0.8; stroke-dashoffset: 0; stroke: #b0b0b0; stroke-width: 0.5"/>
     </g>
     <g id="line2d_42">
      <g>
       <use xlink:href="#mcf31289fc9" x="48.982813" y="255.694229" style="stroke: #000000; stroke-width: 0.8"/>
      </g>
     </g>
     <g id="text_6">
      <!-- −10 -->
      <g transform="translate(20.878125 259.493448) scale(0.1 -0.1)">
       <use xlink:href="#DejaVuSans-2212"/>
       <use xlink:href="#DejaVuSans-31" transform="translate(83.789062 0)"/>
       <use xlink:href="#DejaVuSans-30" transform="translate(147.412109 0)"/>
      </g>
     </g>
    </g>
    <g id="ytick_3">
     <g id="line2d_43">
      <path d="M 48.982813 216.798212 
L 561.197812 216.798212 
" clip-path="url(#p08811f2531)" style="fill: none; stroke-dasharray: 1.85,0.8; stroke-dashoffset: 0; stroke: #b0b0b0; stroke-width: 0.5"/>
     </g>
     <g id="line2d_44">
      <g>
       <use xlink:href="#mcf31289fc9" x="48.982813" y="216.798212" style="stroke: #000000; stroke-width: 0.8"/>
      </g>
     </g>
     <g id="text_7">
      <!-- 0 -->
      <g transform="translate(35.620313 220.597431) scale(0.1 -0.1)">
       <use xlink:href="#DejaVuSans-30"/>
      </g>
     </g>
    </g>
    <g id="ytick_4">
     <g id="line2d_45">
      <path d="M 48.982813 177.902195 
L 561.197812 177.902195 
" clip-path="url(#p08811f2531)" style="fill: none; stroke-dasharray: 1.85,0.8; stroke-dashoffset: 0; stroke: #b0b0b0; stroke-width: 0.5"/>
     </g>
     <g id="line2d_46">
      <g>
       <use xlink:href="#mcf31289fc9" x="48.982813" y="177.902195" style="stroke: #000000; stroke-width: 0.8"/>
      </g>
     </g>
     <g id="text_8">
      <!-- 10 -->
      <g transform="translate(29.257813 181.701413) scale(0.1 -0.1)">
       <use xlink:href="#DejaVuSans-31"/>
       <use xlink:href="#DejaVuSans-30" transform="translate(63.623047 0)"/>
      </g>
     </g>
    </g>
    <g id="ytick_5">
     <g id="line2d_47">
      <path d="M 48.982813 139.006177 
L 561.197812 139.006177 
" clip-path="url(#p08811f2531)" style="fill: none; stroke-dasharray: 1.85,0.8; stroke-dashoffset: 0; stroke: #b0b0b0; stroke-width: 0.5"/>
     </g>
     <g id="line2d_48">
      <g>
       <use xlink:href="#mcf31289fc9" x="48.982813" y="139.006177" style="stroke: #000000; stroke-width: 0.8"/>
      </g>
     </g>
     <g id="text_9">
      <!-- 20 -->
      <g transform="translate(29.257813 142.805396) scale(0.1 -0.1)">
       <use xlink:href="#DejaVuSans-32"/>
       <use xlink:href="#DejaVuSans-30" transform="translate(63.623047 0)"/>
      </g>
     </g>
    </g>
    <g id="ytick_6">
     <g id="line2d_49">
      <path d="M 48.982813 100.11016 
L 561.197812 100.11016 
" clip-path="url(#p08811f2531)" style="fill: none; stroke-dasharray: 1.85,0.8; stroke-dashoffset: 0; stroke: #b0b0b0; stroke-width: 0.5"/>
     </g>
     <g id="line2d_50">
      <g>
       <use xlink:href="#mcf31289fc9" x="48.982813" y="100.11016" style="stroke: #000000; stroke-width: 0.8"/>
      </g>
     </g>
     <g id="text_10">
      <!-- 30 -->
      <g transform="translate(29.257813 103.909379) scale(0.1 -0.1)">
       <defs>
        <path id="DejaVuSans-33" d="M 2597 2516 
Q 3050 2419 3304 2112 
Q 3559 1806 3559 1356 
Q 3559 666 3084 287 
Q 2609 -91 1734 -91 
Q 1441 -91 1130 -33 
Q 819 25 488 141 
L 488 750 
Q 750 597 1062 519 
Q 1375 441 1716 441 
Q 2309 441 2620 675 
Q 2931 909 2931 1356 
Q 2931 1769 2642 2001 
Q 2353 2234 1838 2234 
L 1294 2234 
L 1294 2753 
L 1863 2753 
Q 2328 2753 2575 2939 
Q 2822 3125 2822 3475 
Q 2822 3834 2567 4026 
Q 2313 4219 1838 4219 
Q 1578 4219 1281 4162 
Q 984 4106 628 3988 
L 628 4550 
Q 988 4650 1302 4700 
Q 1616 4750 1894 4750 
Q 2613 4750 3031 4423 
Q 3450 4097 3450 3541 
Q 3450 3153 3228 2886 
Q 3006 2619 2597 2516 
z
" transform="scale(0.015625)"/>
       </defs>
       <use xlink:href="#DejaVuSans-33"/>
       <use xlink:href="#DejaVuSans-30" transform="translate(63.623047 0)"/>
      </g>
     </g>
    </g>
    <g id="ytick_7">
     <g id="line2d_51">
      <path d="M 48.982813 61.214142 
L 561.197812 61.214142 
" clip-path="url(#p08811f2531)" style="fill: none; stroke-dasharray: 1.85,0.8; stroke-dashoffset: 0; stroke: #b0b0b0; stroke-width: 0.5"/>
     </g>
     <g id="line2d_52">
      <g>
       <use xlink:href="#mcf31289fc9" x="48.982813" y="61.214142" style="stroke: #000000; stroke-width: 0.8"/>
      </g>
     </g>
     <g id="text_11">
      <!-- 40 -->
      <g transform="translate(29.257813 65.013361) scale(0.1 -0.1)">
       <defs>
        <path id="DejaVuSans-34" d="M 2419 4116 
L 825 1625 
L 2419 1625 
L 2419 4116 
z
M 2253 4666 
L 3047 4666 
L 3047 1625 
L 3713 1625 
L 3713 1100 
L 3047 1100 
L 3047 0 
L 2419 0 
L 2419 1100 
L 313 1100 
L 313 1709 
L 2253 4666 
z
" transform="scale(0.015625)"/>
       </defs>
       <use xlink:href="#DejaVuSans-34"/>
       <use xlink:href="#DejaVuSans-30" transform="translate(63.623047 0)"/>
      </g>
     </g>
    </g>
    <g id="ytick_8">
     <g id="line2d_53">
      <path d="M 48.982813 22.318125 
L 561.197812 22.318125 
" clip-path="url(#p08811f2531)" style="fill: none; stroke-dasharray: 1.85,0.8; stroke-dashoffset: 0; stroke: #b0b0b0; stroke-width: 0.5"/>
     </g>
     <g id="line2d_54">
      <g>
       <use xlink:href="#mcf31289fc9" x="48.982813" y="22.318125" style="stroke: #000000; stroke-width: 0.8"/>
      </g>
     </g>
     <g id="text_12">
      <!-- 50 -->
      <g transform="translate(29.257813 26.117344) scale(0.1 -0.1)">
       <defs>
        <path id="DejaVuSans-35" d="M 691 4666 
L 3169 4666 
L 3169 4134 
L 1269 4134 
L 1269 2991 
Q 1406 3038 1543 3061 
Q 1681 3084 1819 3084 
Q 2600 3084 3056 2656 
Q 3513 2228 3513 1497 
Q 3513 744 3044 326 
Q 2575 -91 1722 -91 
Q 1428 -91 1123 -41 
Q 819 9 494 109 
L 494 744 
Q 775 591 1075 516 
Q 1375 441 1709 441 
Q 2250 441 2565 725 
Q 2881 1009 2881 1497 
Q 2881 1984 2565 2268 
Q 2250 2553 1709 2553 
Q 1456 2553 1204 2497 
Q 953 2441 691 2322 
L 691 4666 
z
" transform="scale(0.015625)"/>
       </defs>
       <use xlink:href="#DejaVuSans-35"/>
       <use xlink:href="#DejaVuSans-30" transform="translate(63.623047 0)"/>
      </g>
     </g>
    </g>
    <g id="text_13">
     <!-- SPL (dBA) -->
     <g transform="translate(14.798438 182.944811) rotate(-90) scale(0.1 -0.1)">
      <defs>
       <path id="DejaVuSans-53" d="M 3425 4513 
L 3425 3897 
Q 3066 4069 2747 4153 
Q 2428 4238 2131 4238 
Q 1616 4238 1336 4038 
Q 1056 3838 1056 3469 
Q 1056 3159 1242 3001 
Q 1428 2844 1947 2747 
L 2328 2669 
Q 3034 2534 3370 2195 
Q 3706 1856 3706 1288 
Q 3706 609 3251 259 
Q 2797 -91 1919 -91 
Q 1588 -91 1214 -16 
Q 841 59 441 206 
L 441 856 
Q 825 641 1194 531 
Q 1563 422 1919 422 
Q 2459 422 2753 634 
Q 3047 847 3047 1241 
Q 3047 1584 2836 1778 
Q 2625 1972 2144 2069 
L 1759 2144 
Q 1053 2284 737 2584 
Q 422 2884 422 3419 
Q 422 4038 858 4394 
Q 1294 4750 2059 4750 
Q 2388 4750 2728 4690 
Q 3069 4631 3425 4513 
z
" transform="scale(0.015625)"/>
       <path id="DejaVuSans-50" d="M 1259 4147 
L 1259 2394 
L 2053 2394 
Q 2494 2394 2734 2622 
Q 2975 2850 2975 3272 
Q 2975 3691 2734 3919 
Q 2494 4147 2053 4147 
L 1259 4147 
z
M 628 4666 
L 2053 4666 
Q 2838 4666 3239 4311 
Q 3641 3956 3641 3272 
Q 3641 2581 3239 2228 
Q 2838 1875 2053 1875 
L 1259 1875 
L 1259 0 
L 628 0 
L 628 4666 
z
" transform="scale(0.015625)"/>
       <path id="DejaVuSans-4c" d="M 628 4666 
L 1259 4666 
L 1259 531 
L 3531 531 
L 3531 0 
L 628 0 
L 628 4666 
z
" transform="scale(0.015625)"/>
       <path id="DejaVuSans-64" d="M 2906 2969 
L 2906 4863 
L 3481 4863 
L 3481 0 
L 2906 0 
L 2906 525 
Q 2725 213 2448 61 
Q 2172 -91 1784 -91 
Q 1150 -91 751 415 
Q 353 922 353 1747 
Q 353 2572 751 3078 
Q 1150 3584 1784 3584 
Q 2172 3584 2448 3432 
Q 2725 3281 2906 2969 
z
M 947 1747 
Q 947 1113 1208 752 
Q 1469 391 1925 391 
Q 2381 391 2643 752 
Q 2906 1113 2906 1747 
Q 2906 2381 2643 2742 
Q 2381 3103 1925 3103 
Q 1469 3103 1208 2742 
Q 947 2381 947 1747 
z
" transform="scale(0.015625)"/>
       <path id="DejaVuSans-42" d="M 1259 2228 
L 1259 519 
L 2272 519 
Q 2781 519 3026 730 
Q 3272 941 3272 1375 
Q 3272 1813 3026 2020 
Q 2781 2228 2272 2228 
L 1259 2228 
z
M 1259 4147 
L 1259 2741 
L 2194 2741 
Q 2656 2741 2882 2914 
Q 3109 3088 3109 3444 
Q 3109 3797 2882 3972 
Q 2656 4147 2194 4147 
L 1259 4147 
z
M 628 4666 
L 2241 4666 
Q 2963 4666 3353 4366 
Q 3744 4066 3744 3513 
Q 3744 3084 3544 2831 
Q 3344 2578 2956 2516 
Q 3422 2416 3680 2098 
Q 3938 1781 3938 1306 
Q 3938 681 3513 340 
Q 3088 0 2303 0 
L 628 0 
L 628 4666 
z
" transform="scale(0.015625)"/>
       <path id="DejaVuSans-41" d="M 2188 4044 
L 1331 1722 
L 3047 1722 
L 2188 4044 
z
M 1831 4666 
L 2547 4666 
L 4325 0 
L 3669 0 
L 3244 1197 
L 1141 1197 
L 716 0 
L 50 0 
L 1831 4666 
z
" transform="scale(0.015625)"/>
      </defs>
      <use xlink:href="#DejaVuSans-53"/>
      <use xlink:href="#DejaVuSans-50" transform="translate(63.476562 0)"/>
      <use xlink:href="#DejaVuSans-4c" transform="translate(123.779297 0)"/>
      <use xlink:href="#DejaVuSans-20" transform="translate(179.492188 0)"/>
      <use xlink:href="#DejaVuSans-28" transform="translate(211.279297 0)"/>
      <use xlink:href="#DejaVuSans-64" transform="translate(250.292969 0)"/>
      <use xlink:href="#DejaVuSans-42" transform="translate(313.769531 0)"/>
      <use xlink:href="#DejaVuSans-41" transform="translate(382.373047 0)"/>
      <use xlink:href="#DejaVuSans-29" transform="translate(450.78125 0)"/>
     </g>
    </g>
   </g>
   <g id="line2d_55">
    <path d="M 51.493242 150.262111 
L 57.198394 149.632682 
L 62.625131 148.279763 
L 67.79937 141.654821 
L 72.743565 152.173385 
L 77.477304 161.576854 
L 82.017775 160.470173 
L 86.38014 159.824152 
L 90.577849 157.268426 
L 94.622879 144.334504 
L 98.525949 155.064704 
L 102.296685 155.026535 
L 105.943768 154.781633 
L 109.475052 157.225846 
L 112.897663 154.906283 
L 116.218091 150.432519 
L 119.44226 140.754526 
L 122.575596 150.731301 
L 125.623077 150.508589 
L 128.589281 143.118928 
L 131.478432 150.240002 
L 134.294433 150.092943 
L 137.040895 137.599051 
L 139.721171 130.4751 
L 142.338376 128.629792 
L 144.89541 125.007061 
L 147.394977 124.863908 
L 149.839605 123.634712 
L 152.231656 123.570011 
L 154.573344 128.538423 
L 156.866746 129.631461 
L 159.113814 134.57187 
L 161.316383 134.817271 
L 163.47618 134.107274 
L 165.594836 135.450351 
L 167.673888 137.403971 
L 169.714791 137.803346 
L 171.718919 135.992418 
L 173.687573 136.74706 
L 175.621988 141.457337 
L 177.523335 142.216281 
L 179.392725 139.698336 
L 181.231214 140.22411 
L 183.039808 136.560653 
L 184.819463 136.132207 
L 186.571091 138.687231 
L 188.295561 135.826105 
L 189.993702 138.204234 
L 191.666306 134.209756 
L 193.31413 134.825428 
L 194.937897 134.488786 
L 196.5383 138.488881 
L 198.116001 140.718385 
L 199.671636 142.333532 
L 201.205813 146.622679 
L 202.719116 149.439417 
L 204.212106 151.034424 
L 205.685321 149.742726 
L 207.139277 147.090738 
L 208.574472 145.719803 
L 209.991384 145.126421 
L 211.390472 145.043065 
L 212.77218 148.449202 
L 214.136935 150.963563 
L 215.485146 151.878141 
L 216.817211 149.860314 
L 218.133511 149.678642 
L 219.434416 147.072151 
L 220.720281 145.792768 
L 221.99145 147.070388 
L 223.248255 142.98841 
L 224.491017 142.811318 
L 225.720047 145.697421 
L 226.935645 148.96684 
L 228.1381 146.605904 
L 229.327695 143.985031 
L 230.504702 135.136491 
L 231.669383 132.587033 
L 232.821996 132.090391 
L 233.962786 132.907877 
L 235.091994 133.881988 
L 236.209854 134.571255 
L 237.31659 139.691262 
L 238.412422 143.375575 
L 239.497563 144.235391 
L 240.572219 147.058816 
L 241.636592 147.771996 
L 242.690875 146.608661 
L 243.735259 145.669563 
L 244.769928 143.621694 
L 245.79506 143.899954 
L 246.810831 142.968134 
L 247.817408 144.340747 
L 248.814958 144.482658 
L 249.803641 143.863819 
L 250.783613 144.440277 
L 251.755026 144.480911 
L 252.718028 143.155463 
L 253.672764 141.421201 
L 254.619375 143.664275 
L 255.557997 143.3017 
L 256.488765 141.255843 
L 257.411808 141.647244 
L 258.327254 144.582944 
L 259.235227 145.526903 
L 260.135848 145.911858 
L 261.029235 149.45452 
L 261.915503 153.765956 
L 262.794765 153.314907 
L 263.667131 154.679093 
L 264.532708 155.108668 
L 266.243912 150.885961 
L 267.089742 150.878284 
L 267.929188 150.468522 
L 268.762346 150.200115 
L 269.589309 153.228244 
L 270.41017 153.448574 
L 271.225016 153.43653 
L 272.033937 156.008141 
L 272.837017 157.271901 
L 274.425987 162.250631 
L 275.212041 164.221575 
L 275.992578 167.095521 
L 276.767675 165.049758 
L 277.537409 161.472545 
L 278.301853 160.39139 
L 279.815156 150.064703 
L 280.564156 147.169188 
L 281.308146 147.386386 
L 282.047192 141.31584 
L 282.78136 138.730972 
L 283.510714 138.763451 
L 284.235317 137.193575 
L 284.955229 131.215312 
L 285.670512 115.841226 
L 286.381224 126.538859 
L 287.087423 147.173759 
L 289.179512 167.724758 
L 289.86822 172.595544 
L 290.55269 172.123967 
L 292.581186 160.607713 
L 293.249212 158.89793 
L 294.573348 148.323699 
L 295.229551 146.557985 
L 295.881905 144.170084 
L 296.530455 140.336103 
L 297.81632 143.356897 
L 298.453721 144.947036 
L 299.087489 148.526175 
L 299.717667 148.578532 
L 300.344294 147.583153 
L 300.967411 144.341655 
L 301.587057 144.986303 
L 302.203269 147.617833 
L 302.816087 151.063966 
L 303.425546 153.037162 
L 304.031684 153.859514 
L 304.634537 156.734359 
L 305.23414 157.169291 
L 305.830528 156.705486 
L 306.423735 164.509807 
L 307.013795 169.519881 
L 307.600741 159.086067 
L 308.184607 157.85538 
L 308.765423 170.226969 
L 309.343222 168.463756 
L 309.918035 167.372103 
L 310.489893 167.295377 
L 311.058825 165.552635 
L 311.624863 169.003939 
L 312.188034 174.862918 
L 312.748368 177.382637 
L 313.305893 177.0803 
L 313.860638 175.269171 
L 314.412629 172.846423 
L 314.961895 173.357524 
L 315.508462 173.125496 
L 316.052356 172.698038 
L 316.593603 172.664704 
L 317.132229 174.530972 
L 317.668259 171.674995 
L 318.201719 172.641534 
L 318.732632 171.941685 
L 319.261022 174.186985 
L 319.786915 174.169907 
L 320.310333 172.797743 
L 320.831299 173.054275 
L 321.349836 175.43537 
L 321.865968 174.723625 
L 322.379715 175.918936 
L 322.8911 180.728279 
L 323.400145 181.75024 
L 323.90687 183.35192 
L 324.411298 181.979363 
L 324.913448 182.487684 
L 325.413341 183.561783 
L 325.910998 187.477333 
L 326.406438 188.305472 
L 326.899681 189.660969 
L 327.879652 188.944909 
L 328.366419 189.701666 
L 329.333609 192.465639 
L 329.814068 190.684853 
L 330.29246 192.897279 
L 330.768804 189.375585 
L 331.243116 190.936888 
L 331.715414 189.34825 
L 332.185716 189.314974 
L 332.654037 188.960835 
L 333.120394 186.892425 
L 333.584804 183.595699 
L 334.047283 183.958627 
L 334.507847 187.011823 
L 334.966512 187.706003 
L 335.423294 184.453832 
L 335.878206 184.974234 
L 336.331266 184.281335 
L 336.782489 181.335019 
L 337.231887 182.495018 
L 337.679478 184.627413 
L 338.125274 184.909866 
L 338.569291 187.412494 
L 339.011543 188.953502 
L 339.452042 189.273052 
L 339.890805 189.133553 
L 340.327843 188.014564 
L 340.76317 186.380729 
L 341.196801 185.896354 
L 342.059023 190.444618 
L 342.48764 190.743355 
L 342.914612 189.386894 
L 343.339952 189.544733 
L 343.76367 187.909025 
L 344.185781 187.686303 
L 344.606296 185.780412 
L 345.025227 186.436559 
L 345.442586 188.562683 
L 345.858385 192.449038 
L 346.272636 192.39787 
L 346.685349 190.569034 
L 347.506209 179.028236 
L 347.914379 176.847859 
L 348.321056 177.22735 
L 348.726251 176.774527 
L 349.933056 189.885425 
L 350.730379 186.442148 
L 351.126907 183.112998 
L 351.522027 183.95008 
L 351.915748 187.435443 
L 352.699034 189.957274 
L 353.088617 193.809153 
L 353.476841 193.819813 
L 353.863715 192.399545 
L 354.249248 188.403111 
L 354.633449 186.434396 
L 355.016327 187.746201 
L 355.397892 191.940461 
L 355.778153 191.594102 
L 356.911195 183.165967 
L 357.286326 182.125327 
L 357.660195 182.482919 
L 358.404185 193.660775 
L 358.774322 193.474667 
L 359.510922 190.64139 
L 360.242675 186.210715 
L 360.606754 188.638854 
L 360.969645 190.12216 
L 361.331356 187.67254 
L 361.691895 184.148965 
L 362.051269 181.768833 
L 362.409485 182.005256 
L 362.766551 181.528541 
L 363.122475 183.260844 
L 363.477263 181.982547 
L 363.830924 179.43431 
L 364.534889 183.015947 
L 364.885207 183.658852 
L 365.582552 191.026195 
L 366.275551 194.689398 
L 366.620439 195.562051 
L 366.96426 198.389265 
L 367.307021 199.618639 
L 367.64873 199.352768 
L 367.989392 200.439133 
L 368.667602 205.453235 
L 369.005162 205.702888 
L 369.341702 210.451844 
L 369.677225 211.128919 
L 370.01174 205.123285 
L 370.677766 205.074181 
L 371.00929 204.519114 
L 371.339828 205.814914 
L 371.669387 204.655922 
L 371.997973 204.062638 
L 372.32559 202.577919 
L 372.652246 204.724932 
L 373.302692 199.437263 
L 373.626495 199.446546 
L 373.949357 201.584112 
L 374.271286 201.545146 
L 374.592285 205.065018 
L 374.91236 204.890022 
L 375.231517 205.61202 
L 375.54976 205.727539 
L 375.867096 201.577705 
L 376.183529 200.08657 
L 376.499064 199.671304 
L 376.813707 200.558213 
L 377.127461 200.114418 
L 377.440334 202.270645 
L 378.063451 204.556094 
L 378.683096 202.315363 
L 378.991629 202.836335 
L 379.299309 205.964448 
L 379.60614 205.659407 
L 379.912126 209.698608 
L 380.217273 210.47342 
L 380.521586 209.553306 
L 380.825068 209.485986 
L 381.127724 205.814252 
L 381.429559 198.989468 
L 381.730577 197.528947 
L 382.030782 199.126297 
L 382.33018 201.527767 
L 382.628773 201.749382 
L 382.926567 204.903694 
L 383.223566 209.987086 
L 383.519775 210.859404 
L 384.109835 210.207591 
L 384.696781 206.737253 
L 385.280646 204.936387 
L 385.861463 214.631106 
L 386.150737 214.018469 
L 386.439262 214.620768 
L 386.72704 216.028805 
L 387.014075 214.682376 
L 387.300371 218.232872 
L 387.585932 220.076019 
L 387.870762 219.796724 
L 388.154865 219.321533 
L 388.438244 220.737422 
L 388.720902 218.832877 
L 389.284073 217.888097 
L 389.564593 213.791048 
L 389.844407 215.047262 
L 390.123519 220.407144 
L 390.679651 217.858324 
L 390.956677 217.764379 
L 391.233016 220.199407 
L 391.508669 219.905393 
L 391.783641 217.720328 
L 392.057935 219.288969 
L 392.331554 222.050483 
L 392.876781 221.754157 
L 393.148395 223.891572 
L 393.419348 221.777388 
L 393.689642 221.184103 
L 393.959281 224.781514 
L 394.228268 221.985421 
L 394.496606 222.397621 
L 394.764299 221.750451 
L 395.031348 221.97708 
L 395.828671 218.335182 
L 396.09318 219.612252 
L 396.357062 218.959925 
L 396.620319 217.806834 
L 397.144971 214.34523 
L 397.406372 214.171851 
L 397.667161 215.753682 
L 397.927339 215.955435 
L 398.18691 214.49003 
L 398.445876 216.029667 
L 398.704241 221.467929 
L 398.962007 223.431662 
L 399.219177 223.078193 
L 399.475754 223.629886 
L 399.731741 222.24054 
L 399.98714 224.331727 
L 400.241953 222.656191 
L 400.496184 223.063806 
L 400.749836 221.3818 
L 401.00291 220.995264 
L 401.25541 221.247076 
L 401.507337 218.850331 
L 401.758696 220.098868 
L 402.009488 218.482158 
L 402.259715 219.047235 
L 402.509381 218.761874 
L 402.758488 218.124348 
L 403.007038 218.641454 
L 403.255033 216.816163 
L 403.502477 219.477091 
L 403.749372 224.516634 
L 403.99572 225.124136 
L 404.241524 223.097648 
L 404.486785 224.789473 
L 404.731507 223.805257 
L 404.975692 221.367031 
L 405.219342 216.644955 
L 405.462459 215.114068 
L 405.705046 216.716702 
L 405.947105 216.818498 
L 406.429648 216.327986 
L 406.670137 219.87034 
L 406.910107 221.674951 
L 407.149561 218.633252 
L 407.864843 223.682787 
L 408.102252 219.594688 
L 408.339156 218.143909 
L 408.811454 221.778388 
L 409.046853 220.167116 
L 409.281755 219.412438 
L 409.516162 221.748992 
L 410.216434 214.683811 
L 410.448881 216.398107 
L 410.912324 218.370658 
L 411.143323 217.515591 
L 411.373843 217.63065 
L 411.603887 219.214322 
L 411.833456 218.821042 
L 412.062552 219.295624 
L 412.291177 217.737022 
L 412.747022 227.627632 
L 412.974246 226.846672 
L 413.201007 222.541104 
L 413.427306 221.682391 
L 413.653146 224.81018 
L 413.878528 225.678236 
L 414.103455 225.059894 
L 414.327927 226.361173 
L 414.551947 223.693033 
L 414.775517 224.476612 
L 414.998639 223.406893 
L 415.221314 224.154382 
L 415.443544 225.547462 
L 415.886676 217.455283 
L 416.107582 217.985995 
L 416.32805 222.06488 
L 416.548082 217.90442 
L 416.76768 219.090866 
L 416.986844 222.860349 
L 417.205578 221.217209 
L 417.641759 225.281558 
L 418.076237 226.114978 
L 418.509023 222.592684 
L 418.724787 223.379646 
L 418.940133 226.447992 
L 419.369578 222.516527 
L 419.58368 221.107153 
L 419.797371 221.008576 
L 420.223525 222.784958 
L 420.435991 221.298127 
L 421.070966 224.768469 
L 421.281821 224.889607 
L 421.492277 227.742602 
L 421.702336 227.635547 
L 421.911999 228.675627 
L 422.121267 227.453085 
L 422.330142 228.678014 
L 422.538626 226.3999 
L 422.954425 228.492492 
L 423.161743 229.05161 
L 423.368675 228.086755 
L 423.781388 230.647703 
L 423.987172 230.219356 
L 424.192576 228.123677 
L 424.397601 227.825371 
L 425.010418 232.498915 
L 425.417095 229.343923 
L 425.619878 229.501587 
L 425.822291 231.076543 
L 426.024337 230.048827 
L 426.226016 229.834573 
L 426.42733 228.376715 
L 426.828869 229.619905 
L 427.228963 235.372052 
L 428.02486 228.473731 
L 428.222947 223.650454 
L 428.618067 229.743056 
L 428.815101 228.018325 
L 429.011788 231.642354 
L 429.208127 232.14508 
L 429.40412 227.971564 
L 429.599768 227.472325 
L 429.795073 228.403555 
L 429.990036 228.116967 
L 430.184657 230.480796 
L 430.572881 226.89764 
L 430.959755 229.32518 
L 431.152688 227.839755 
L 431.537554 227.165262 
L 431.729488 228.927435 
L 432.112367 224.550539 
L 432.493932 230.09293 
L 432.684225 230.921738 
L 432.874192 228.08959 
L 433.063836 227.398596 
L 433.253157 230.481678 
L 433.442156 231.108385 
L 433.630835 231.304138 
L 433.819194 230.237263 
L 434.007235 233.505533 
L 434.382366 230.44159 
L 434.756235 234.628405 
L 434.9427 235.580107 
L 435.314693 230.965851 
L 435.500225 231.372609 
L 435.685447 232.934775 
L 435.870362 231.612432 
L 436.05497 235.080777 
L 436.239271 233.621234 
L 436.423268 234.096073 
L 436.606961 233.250265 
L 436.790351 230.046483 
L 436.973439 228.889694 
L 437.156227 228.78495 
L 437.338714 229.091889 
L 437.520903 228.028739 
L 438.065685 229.610211 
L 438.246687 227.495224 
L 438.427396 228.31589 
L 438.607811 231.934518 
L 438.967766 234.069315 
L 439.147308 233.622553 
L 439.326561 235.331486 
L 439.505525 229.609092 
L 439.684201 229.820181 
L 440.040695 226.549302 
L 440.218515 227.097659 
L 440.39605 228.865868 
L 440.573303 232.336873 
L 440.750274 231.080323 
L 440.926963 229.002174 
L 441.103373 229.701305 
L 441.279503 229.764154 
L 441.455354 232.446765 
L 441.630928 232.763443 
L 441.981247 229.419067 
L 442.330466 231.185637 
L 442.504665 230.694276 
L 442.678591 229.83769 
L 442.852246 229.837826 
L 443.025631 229.263819 
L 443.198745 230.174199 
L 443.371591 229.729027 
L 443.544168 233.434178 
L 443.716478 234.604006 
L 444.403061 229.027782 
L 444.574047 232.06806 
L 444.74477 230.226149 
L 445.085432 229.501936 
L 445.255372 228.40568 
L 445.594476 231.066857 
L 445.93255 228.776285 
L 446.101202 227.139474 
L 446.269599 229.249276 
L 446.60563 235.516449 
L 446.773265 237.147384 
L 446.940648 237.501794 
L 447.274661 232.204894 
L 447.441291 239.624995 
L 447.773806 234.60992 
L 448.10533 241.048192 
L 448.270722 239.709247 
L 448.435868 235.056568 
L 448.60077 235.426662 
L 448.929841 239.189156 
L 449.094012 238.676971 
L 449.42163 231.010695 
L 449.585078 232.220651 
L 449.911254 237.37743 
L 450.073984 235.368711 
L 450.398732 236.515631 
L 450.722535 233.852584 
L 451.045397 240.333192 
L 451.206478 236.124386 
L 451.367325 235.996898 
L 451.688324 234.387217 
L 451.848477 234.641407 
L 452.008399 232.320127 
L 452.168092 231.716649 
L 452.327556 237.233871 
L 452.486792 238.518849 
L 452.804581 236.718036 
L 453.121464 231.165149 
L 453.279568 232.583691 
L 453.595104 237.480235 
L 453.752536 237.143241 
L 453.909746 237.105861 
L 454.066734 232.946454 
L 454.380047 239.12265 
L 454.536374 236.200281 
L 454.69248 237.423062 
L 454.848368 236.543394 
L 455.004038 238.232614 
L 455.15949 242.714033 
L 455.469745 241.929915 
L 455.624548 243.209005 
L 455.779136 242.936297 
L 456.087669 234.290878 
L 456.241615 238.696267 
L 456.395348 239.543749 
L 456.54887 242.663634 
L 456.702179 239.79444 
L 456.855278 239.871511 
L 457.008166 238.482074 
L 457.160844 238.376915 
L 457.313313 239.399107 
L 457.465573 238.247358 
L 457.617625 238.409144 
L 457.76947 240.357284 
L 457.921107 232.551758 
L 458.223763 239.783472 
L 458.374783 239.767136 
L 458.525598 237.772397 
L 458.676209 238.271348 
L 458.826616 241.436555 
L 458.97682 241.230064 
L 459.126822 240.336192 
L 459.276621 229.028561 
L 459.575616 242.555136 
L 459.87381 244.361389 
L 460.022607 244.030284 
L 460.319606 238.284593 
L 460.467809 239.030985 
L 460.615814 238.08528 
L 460.763623 242.606254 
L 460.911236 243.6744 
L 461.205874 238.245441 
L 461.352902 238.819246 
L 461.499735 235.039103 
L 461.646374 240.983008 
L 461.792821 237.794889 
L 462.085136 236.913553 
L 462.667473 242.154905 
L 462.812582 245.343787 
L 462.957502 245.90529 
L 463.102234 245.489128 
L 463.246777 241.659871 
L 463.391133 243.095061 
L 463.535301 247.616139 
L 463.823079 237.175849 
L 464.110114 243.023414 
L 464.253355 243.735564 
L 464.396411 237.210275 
L 464.539283 238.181637 
L 464.824478 245.764458 
L 465.250905 239.719265 
L 465.534283 242.553289 
L 465.675702 241.993074 
L 465.816942 240.729182 
L 465.958002 242.809529 
L 466.380113 238.158195 
L 466.520461 240.65818 
L 466.660633 240.539751 
L 466.800628 242.747224 
L 467.080091 238.922447 
L 467.358853 241.992932 
L 467.497972 245.661688 
L 467.636918 245.444741 
L 467.91429 240.643041 
L 468.052717 241.928179 
L 468.190972 244.659026 
L 468.466967 233.399019 
L 468.604709 232.808493 
L 468.74228 238.090225 
L 468.879681 235.931062 
L 469.016912 235.896396 
L 469.153974 240.176654 
L 469.290868 240.648574 
L 469.427593 240.49136 
L 469.564151 239.29858 
L 469.700541 244.226941 
L 469.836764 242.24272 
L 469.97282 242.915903 
L 470.10871 245.451491 
L 470.379994 242.331496 
L 470.515388 246.170463 
L 470.650617 245.840451 
L 470.785682 243.521761 
L 470.920583 244.645299 
L 471.055321 248.45592 
L 471.189896 247.696411 
L 471.458558 244.864886 
L 471.592646 245.018671 
L 471.726573 249.744957 
L 471.860338 250.021119 
L 471.993943 247.6115 
L 472.127388 248.647583 
L 472.526764 241.346818 
L 472.79222 243.26992 
L 472.924711 241.890061 
L 473.057044 243.172332 
L 473.18922 242.392177 
L 473.321239 243.346618 
L 473.453102 240.704718 
L 473.716359 245.248712 
L 473.847754 245.203349 
L 473.978994 246.354748 
L 474.11008 244.849922 
L 474.241011 246.334626 
L 474.371788 244.980014 
L 474.502412 241.553004 
L 474.632883 244.531927 
L 474.7632 243.980306 
L 474.893365 244.492997 
L 475.023378 246.579324 
L 475.153239 244.253362 
L 475.282949 244.123204 
L 475.412508 248.511485 
L 475.541916 247.708788 
L 475.929238 243.130538 
L 476.058047 243.035972 
L 476.315217 247.591459 
L 476.571794 250.780892 
L 476.699861 250.176716 
L 477.083179 243.799452 
L 477.465181 247.927708 
L 477.592224 247.0441 
L 477.719122 246.957408 
L 477.845875 247.392713 
L 478.09895 250.118363 
L 478.351449 245.410575 
L 478.477484 246.018943 
L 478.603377 249.905619 
L 479.105527 244.673387 
L 479.230711 244.316017 
L 479.480658 247.12299 
L 479.605421 246.413586 
L 479.730044 242.434356 
L 479.854527 242.530243 
L 479.978872 244.183915 
L 480.103077 243.825137 
L 480.351073 248.690906 
L 480.474864 245.634883 
L 480.845412 248.399385 
L 480.968654 247.594221 
L 481.21473 250.021101 
L 481.337563 249.434737 
L 481.460262 245.020359 
L 481.582825 247.375996 
L 481.705253 245.21417 
L 481.827547 246.001459 
L 482.071732 242.586883 
L 482.193623 241.755594 
L 482.437006 244.672191 
L 482.558499 245.167953 
L 482.801086 249.19631 
L 482.922181 249.318346 
L 483.043145 251.205929 
L 483.163977 249.860719 
L 483.405248 253.756801 
L 483.645997 247.303811 
L 483.886227 252.002901 
L 484.006147 251.152962 
L 484.125938 252.318311 
L 484.2456 251.987174 
L 484.365134 251.264811 
L 484.484539 253.936214 
L 484.722966 251.779386 
L 484.841988 252.170036 
L 484.960883 249.11323 
L 485.198292 251.150674 
L 485.435195 256.137416 
L 485.553458 255.076708 
L 485.671595 251.27167 
L 485.907494 255.792531 
L 486.142893 253.282994 
L 486.377795 246.285734 
L 486.49506 250.306235 
L 486.612202 244.520597 
L 486.72922 246.403369 
L 486.846116 252.477933 
L 486.962889 251.994592 
L 487.079539 255.620461 
L 487.312473 252.675111 
L 487.428758 257.352584 
L 487.660962 252.702092 
L 487.776883 252.047683 
L 487.892684 248.297382 
L 488.008363 248.840924 
L 488.123923 254.319928 
L 488.354682 222.979378 
L 488.584964 252.593547 
L 488.699927 255.480641 
L 488.929496 249.263064 
L 489.158592 254.511859 
L 489.501353 255.998896 
L 489.615373 252.205117 
L 489.843062 255.894768 
L 490.070286 253.951312 
L 490.183724 255.834202 
L 490.297046 248.597966 
L 490.523346 255.76853 
L 490.636323 255.332895 
L 490.749186 256.63482 
L 490.974568 253.141134 
L 491.087088 254.997507 
L 491.199494 252.586258 
L 491.311787 252.721782 
L 491.423967 256.679258 
L 491.647987 252.270676 
L 491.759828 254.396947 
L 491.871557 253.240633 
L 491.983174 253.35752 
L 492.094679 251.604662 
L 492.317354 256.092758 
L 492.539584 253.29923 
L 492.650532 255.906938 
L 492.76137 252.631375 
L 492.872098 253.43701 
L 493.093224 256.775174 
L 493.203622 254.399286 
L 493.31391 254.427792 
L 493.42409 257.121354 
L 493.644122 253.483033 
L 493.973355 260.569236 
L 494.192305 257.348303 
L 494.410823 257.424741 
L 494.519922 254.230073 
L 494.628914 255.623013 
L 494.737799 260.210028 
L 494.95525 252.606056 
L 495.063816 254.925935 
L 495.172276 254.758174 
L 495.280631 250.432196 
L 495.497024 256.578487 
L 495.605063 256.922423 
L 495.712997 256.350647 
L 495.820827 256.837216 
L 496.036172 260.299463 
L 496.143689 256.88827 
L 496.251102 257.374521 
L 496.358411 259.65857 
L 496.679719 252.729768 
L 496.786616 257.962656 
L 496.89341 252.016126 
L 497.000102 258.956046 
L 497.106692 258.327794 
L 497.319564 255.724704 
L 497.425848 256.216601 
L 497.532031 258.130191 
L 497.638112 257.655252 
L 497.744092 255.428203 
L 497.849971 258.299976 
L 497.95575 257.518845 
L 498.061428 258.734038 
L 498.272483 254.053327 
L 498.483138 260.574191 
L 498.588317 259.960566 
L 498.693396 261.722668 
L 498.903256 257.584733 
L 499.112722 261.029229 
L 499.217307 258.778914 
L 499.426182 252.528717 
L 499.530473 251.483928 
L 499.738761 258.478373 
L 499.94666 263.181381 
L 500.050465 263.957034 
L 500.154172 260.346095 
L 500.257783 260.888341 
L 500.464715 259.890477 
L 500.568037 260.224219 
L 500.671263 261.008707 
L 500.774393 253.925986 
L 501.083212 261.318982 
L 501.288615 254.341737 
L 501.493641 261.704432 
L 501.596012 259.517992 
L 501.698288 261.216738 
L 501.800471 259.868017 
L 501.90256 260.701152 
L 502.004556 259.594508 
L 502.106458 260.499711 
L 502.208267 263.181225 
L 502.309982 259.12915 
L 502.411605 262.4936 
L 502.715917 257.902107 
L 502.81717 261.395763 
L 502.918331 260.588761 
L 503.120376 257.278189 
L 503.322056 261.294243 
L 503.422758 260.909919 
L 503.62389 262.012615 
L 503.72432 261.896492 
L 503.82466 261.546354 
L 504.025067 262.708732 
L 504.125135 256.561547 
L 504.325003 260.257888 
L 504.424802 263.80995 
L 504.524511 260.892773 
L 504.823105 267.488355 
L 504.922458 265.101178 
L 505.021723 259.684374 
L 505.318987 264.39165 
L 505.615458 268.058635 
L 505.714106 266.72387 
L 506.009528 258.385358 
L 506.304166 264.296311 
L 506.402206 262.246332 
L 506.695808 267.739666 
L 506.793503 264.391927 
L 506.891113 265.070186 
L 507.086075 260.624846 
L 507.280697 265.993012 
L 507.37788 265.341644 
L 507.474978 265.860232 
L 507.668921 256.063573 
L 507.862526 263.632368 
L 508.055794 265.791916 
L 508.248728 258.788116 
L 508.441327 266.196635 
L 508.537502 264.54699 
L 508.633593 265.045634 
L 508.729602 266.743761 
L 508.825528 261.617469 
L 508.921371 262.554115 
L 509.017132 266.976665 
L 509.208406 264.100012 
L 509.30392 264.277445 
L 509.399353 265.115067 
L 509.494703 263.19076 
L 509.685158 266.434948 
L 509.875289 264.778672 
L 509.970232 261.395472 
L 510.159876 265.801933 
L 510.349197 254.460512 
L 510.443737 255.601997 
L 510.632575 267.352694 
L 510.726875 267.267486 
L 510.821094 264.078841 
L 510.915234 264.477263 
L 511.103275 261.044833 
L 511.290998 263.080938 
L 511.384741 262.6841 
L 511.478405 259.993987 
L 511.665497 267.284279 
L 511.758925 267.872331 
L 511.852275 270.159445 
L 511.945546 261.821773 
L 512.131854 268.423635 
L 512.224892 265.989617 
L 512.317851 258.059769 
L 512.503538 266.768958 
L 512.596265 262.769861 
L 512.688914 265.742123 
L 512.781487 265.234428 
L 513.058744 268.803664 
L 513.335311 264.956924 
L 513.427347 263.783955 
L 513.519308 266.479345 
L 513.886391 262.91187 
L 513.977973 258.421032 
L 514.16091 264.21789 
L 514.252266 264.85986 
L 514.434754 268.161567 
L 514.525885 266.600673 
L 514.616942 267.359979 
L 514.798833 263.188397 
L 514.889667 263.566958 
L 514.980427 267.218263 
L 515.071112 266.029596 
L 515.161724 259.753309 
L 515.342727 266.075439 
L 515.433118 266.93083 
L 515.61368 259.975197 
L 515.793949 265.966895 
L 515.883974 262.503316 
L 515.973926 263.230637 
L 516.153613 265.367086 
L 516.33301 262.477577 
L 516.4226 262.571215 
L 516.601564 264.989346 
L 516.780241 267.308597 
L 516.95863 266.543866 
L 517.047718 268.0446 
L 517.136735 262.047402 
L 517.22568 262.154419 
L 517.314554 266.182588 
L 517.580752 261.19392 
L 517.669343 265.916458 
L 517.757863 265.845873 
L 517.934693 261.25156 
L 518.111243 269.048254 
L 518.199412 263.156712 
L 518.287512 265.436242 
L 518.463503 258.928391 
L 518.726968 265.574221 
L 518.814651 265.563803 
L 518.98981 262.055961 
L 519.077286 267.122619 
L 519.164694 264.379309 
L 519.252033 264.777341 
L 519.339303 264.532462 
L 519.426505 266.015261 
L 519.513639 263.809747 
L 519.600704 263.908797 
L 519.687702 263.098242 
L 519.948286 270.037395 
L 520.035012 269.035845 
L 520.208261 269.775236 
L 520.294785 269.859642 
L 520.553953 267.441733 
L 520.726396 269.273483 
L 520.812518 267.718806 
L 520.898573 267.936405 
L 520.984561 274.477343 
L 521.156339 265.924781 
L 521.327852 270.79637 
L 521.413509 269.359755 
L 521.499101 265.989886 
L 521.584626 266.971078 
L 521.670086 269.903126 
L 521.755481 268.578975 
L 521.840809 269.090064 
L 521.926073 271.100744 
L 522.096404 268.149667 
L 522.181471 268.336549 
L 522.266474 268.08457 
L 522.351412 269.244664 
L 522.436285 268.362568 
L 522.775131 271.277136 
L 522.859681 267.279991 
L 523.02859 273.075627 
L 523.112948 271.677016 
L 523.365638 273.987682 
L 523.533781 269.459583 
L 523.701669 273.563217 
L 523.785518 272.250475 
L 524.036688 265.181706 
L 524.120285 266.477352 
L 524.203819 264.603592 
L 524.3707 271.496204 
L 524.454047 268.936366 
L 524.537331 271.407301 
L 524.620553 271.358869 
L 524.952819 275.89822 
L 525.035731 274.543445 
L 525.118581 275.070297 
L 525.201369 278.569257 
L 525.366761 273.63327 
L 525.449365 273.71709 
L 525.531908 275.216668 
L 525.614389 274.785574 
L 525.861467 270.161957 
L 525.943704 270.848634 
L 526.025881 271.893763 
L 526.190052 266.684448 
L 526.272047 268.53555 
L 526.435856 273.35628 
L 526.681117 269.294095 
L 526.844325 273.054641 
L 526.925839 272.172684 
L 527.007294 273.735534 
L 527.170024 265.931682 
L 527.2513 270.626326 
L 527.332516 266.452811 
L 527.494772 271.813441 
L 527.575811 271.460456 
L 527.656791 272.007647 
L 527.737712 269.068619 
L 527.818574 269.299276 
L 528.060809 274.790571 
L 528.141437 273.354203 
L 528.222006 269.594892 
L 528.302517 270.587606 
L 528.38297 270.465518 
L 528.543701 275.886489 
L 528.62398 272.707617 
L 528.704201 274.957941 
L 528.784364 274.093723 
L 528.864469 273.575644 
L 528.944517 273.679627 
L 529.104439 269.560558 
L 529.423596 273.918875 
L 529.503242 273.761922 
L 529.582831 269.690954 
L 529.741839 274.999804 
L 529.90062 269.522714 
L 530.059175 274.442202 
L 530.138368 273.904379 
L 530.375608 273.400763 
L 530.454576 274.98038 
L 530.533487 274.557215 
L 530.612343 273.298129 
L 530.769887 275.307742 
L 530.848576 273.05553 
L 530.927208 273.834653 
L 531.005786 273.929381 
L 531.084307 272.829267 
L 531.162774 274.134103 
L 531.241185 273.328997 
L 531.319541 271.282876 
L 531.397841 272.119448 
L 531.554278 277.413503 
L 531.632413 277.110113 
L 531.78852 267.263671 
L 531.866491 269.656505 
L 531.944408 274.169911 
L 532.02227 272.807934 
L 532.100078 274.054779 
L 532.177831 277.116483 
L 532.333175 271.957588 
L 532.410765 273.167951 
L 532.488302 272.705729 
L 532.565784 270.920851 
L 532.797908 275.067274 
L 532.952389 273.566528 
L 533.029549 273.170572 
L 533.106655 271.420001 
L 533.260708 276.832863 
L 533.337655 275.4155 
L 533.414548 276.589421 
L 533.568175 272.961319 
L 533.798219 280.059422 
L 534.027788 273.681143 
L 534.104205 274.629837 
L 534.180571 278.22679 
L 534.333144 274.570315 
L 534.409353 277.827796 
L 534.561613 275.719031 
L 534.637665 278.905096 
L 534.713665 278.058913 
L 534.789613 273.524598 
L 534.865509 277.403831 
L 534.941354 275.699536 
L 535.017147 277.817429 
L 535.168578 269.719873 
L 535.244216 272.223674 
L 535.470823 275.11956 
L 535.546256 269.619355 
L 535.772249 278.520385 
L 535.847478 274.26371 
L 535.922656 275.827731 
L 536.07286 274.745964 
L 536.222861 282.424654 
L 536.372661 270.72097 
L 536.596982 280.39277 
L 536.671656 279.25359 
L 536.746279 276.189379 
L 536.820852 277.412778 
L 537.044273 281.419251 
L 537.118647 282.040467 
L 537.267245 280.778398 
L 537.415646 277.260964 
L 537.563848 278.145139 
L 537.637876 278.100494 
L 537.711854 279.547931 
L 537.859663 272.227389 
L 538.154692 280.932919 
L 538.228327 281.616065 
L 538.375452 277.174824 
L 538.522382 281.988819 
L 538.595774 280.867933 
L 538.669118 281.031696 
L 538.815661 282.807209 
L 538.962011 271.470702 
L 539.108169 277.171872 
L 539.327046 281.283877 
L 539.545494 275.152444 
L 539.618214 280.455692 
L 539.690887 279.007693 
L 539.836091 284.182496 
L 539.908622 280.401555 
L 539.981105 281.346737 
L 540.053542 280.939528 
L 540.270568 277.551211 
L 540.342817 278.160459 
L 540.55928 285.597442 
L 540.775323 278.576353 
L 540.847244 276.295158 
L 540.919119 277.574442 
L 540.990947 277.317142 
L 541.062729 278.046487 
L 541.206154 282.323222 
L 541.277797 280.701554 
L 541.349394 284.885773 
L 541.49245 278.812824 
L 541.563909 282.540026 
L 541.635323 282.173791 
L 541.70669 278.609599 
L 541.778012 281.597274 
L 541.920518 277.605763 
L 542.062842 281.314417 
L 542.204984 281.43089 
L 542.275987 280.719084 
L 542.346944 285.199872 
L 542.559546 279.52776 
L 542.701055 282.075842 
L 542.771742 277.443661 
L 542.842384 279.914175 
L 542.983534 283.218148 
L 543.054042 281.20607 
L 543.124505 284.232862 
L 543.194923 283.974453 
L 543.405912 279.707943 
L 543.616501 284.620188 
L 543.686609 283.471395 
L 543.826692 279.292581 
L 543.966599 286.206439 
L 544.10633 275.896912 
L 544.17613 280.887485 
L 544.245886 276.911584 
L 544.315599 277.316647 
L 544.454892 282.735243 
L 544.524474 280.905649 
L 544.594012 277.325007 
L 544.732958 280.957058 
L 544.802366 281.35413 
L 544.87173 282.484901 
L 544.941052 280.97131 
L 545.01033 275.569424 
L 545.217906 285.177265 
L 545.356075 274.6474 
L 545.563007 282.949013 
L 545.631899 280.20455 
L 545.769555 283.923523 
L 545.97572 278.225598 
L 546.181504 285.872987 
L 546.250014 285.9948 
L 546.318482 285.411205 
L 546.523633 274.439104 
L 546.728406 283.85735 
L 546.864713 284.121771 
L 547.06886 277.868086 
L 547.136826 281.648074 
L 547.20475 281.111377 
L 547.272633 280.338436 
L 547.408274 285.509334 
L 547.476033 284.568943 
L 547.543751 284.782452 
L 547.611427 283.258949 
L 547.746656 275.283773 
L 547.949193 285.058638 
L 548.016623 286.894038 
L 548.151361 280.152383 
L 548.218668 281.925418 
L 548.353162 284.311812 
L 548.420348 284.026813 
L 548.755669 276.739889 
L 548.956378 287.281337 
L 549.0232 283.91378 
L 549.089983 288.25982 
L 549.156725 287.52901 
L 549.223427 283.774823 
L 549.29009 286.081199 
L 549.489837 279.838655 
L 549.55634 285.827927 
L 549.622803 283.967546 
L 549.755611 275.769498 
L 549.821955 286.234558 
L 549.88826 284.985174 
L 549.954525 284.184777 
L 550.219191 287.414247 
L 550.28526 286.50935 
L 550.351289 282.567097 
L 550.417279 283.297818 
L 550.48323 282.423525 
L 550.615014 285.62888 
L 550.746643 278.901533 
L 550.812398 281.042858 
L 551.075034 289.222159 
L 551.206119 285.049866 
L 551.271604 285.164442 
L 551.337051 287.189874 
L 551.533159 282.616045 
L 551.728922 287.564631 
L 551.85924 283.283807 
L 551.989405 283.900901 
L 552.05443 283.925802 
L 552.119418 284.270334 
L 552.184367 283.813964 
L 552.314153 287.659047 
L 552.378989 281.180555 
L 552.443787 282.310371 
L 552.637955 284.819574 
L 552.702603 284.470293 
L 552.831785 276.608061 
L 553.025278 286.531356 
L 553.154086 287.762816 
L 553.218435 282.808332 
L 553.411257 290.25497 
L 553.475456 291.040887 
L 553.731886 283.204187 
L 553.859879 287.642115 
L 553.92382 283.137272 
L 554.051593 290.145542 
L 554.306699 281.626779 
L 554.370384 272.196557 
L 554.434032 277.849409 
L 554.497645 284.09648 
L 554.561221 282.424345 
L 554.688264 279.394221 
L 554.815162 282.796344 
L 554.941915 281.228549 
L 555.131775 286.104127 
L 555.258168 282.316579 
L 555.384418 286.890298 
L 555.447489 286.866506 
L 555.510524 284.89403 
L 555.573524 279.123115 
L 555.636488 285.544719 
L 555.699417 284.97776 
L 555.76231 283.649364 
L 555.825167 284.252329 
L 555.887989 285.837074 
L 555.950775 285.503815 
L 556.013526 284.656494 
L 556.201567 287.543022 
L 556.264176 290.169322 
L 556.326751 288.95959 
L 556.576697 283.305939 
L 556.70146 289.045304 
L 556.826083 289.813497 
L 556.888342 285.902708 
L 556.950567 286.422827 
L 557.137031 288.129707 
L 557.261168 286.454555 
L 557.323184 282.222364 
L 557.447113 291.92818 
L 557.694557 279.147473 
L 557.818073 286.008458 
L 557.879779 284.251475 
L 557.941451 282.53651 
L 558.00309 282.663912 
L 558.064694 284.176709 
L 558.126264 283.754023 
L 558.187799 283.243944 
L 558.249301 280.310735 
L 558.310769 282.38523 
L 558.433603 284.480166 
L 558.494969 287.912729 
L 558.678865 280.303758 
L 558.740096 287.479246 
L 558.801293 283.761646 
L 558.862457 287.127035 
L 558.923587 285.010212 
L 559.045746 287.021471 
L 559.167771 282.223029 
L 559.289663 286.753143 
L 559.411421 285.279947 
L 559.47225 285.440989 
L 559.593809 289.415601 
L 559.654538 288.430647 
L 559.836528 290.314971 
L 560.018221 284.182651 
L 560.139184 285.769648 
L 560.320383 288.752391 
L 560.380718 288.230423 
L 560.621728 281.702158 
L 560.681899 287.051129 
L 560.742037 286.875096 
L 560.802143 283.579508 
L 560.862216 284.217651 
L 560.982266 289.449005 
L 561.042243 289.098486 
L 561.102186 288.94947 
L 561.162098 287.458118 
L 561.162098 287.458118 
" clip-path="url(#p08811f2531)" style="fill: none; stroke: #1f77b4; stroke-linecap: square"/>
   </g>
   <g id="patch_3">
    <path d="M 48.982813 294.590247 
L 48.982813 22.318125 
" style="fill: none; stroke: #000000; stroke-width: 0.8; stroke-linejoin: miter; stroke-linecap: square"/>
   </g>
   <g id="patch_4">
    <path d="M 561.197812 294.590247 
L 561.197812 22.318125 
" style="fill: none; stroke: #000000; stroke-width: 0.8; stroke-linejoin: miter; stroke-linecap: square"/>
   </g>
   <g id="patch_5">
    <path d="M 48.982813 294.590247 
L 561.197812 294.590247 
" style="fill: none; stroke: #000000; stroke-width: 0.8; stroke-linejoin: miter; stroke-linecap: square"/>
   </g>
   <g id="patch_6">
    <path d="M 48.982813 22.318125 
L 561.197812 22.318125 
" style="fill: none; stroke: #000000; stroke-width: 0.8; stroke-linejoin: miter; stroke-linecap: square"/>
   </g>
   <g id="text_14">
    <!-- Ford Explorer Blower Setting 1 - Narrow Band SPL (dBA) -->
    <g transform="translate(137.56375 16.318125) scale(0.12 -0.12)">
     <defs>
      <path id="DejaVuSans-6f" d="M 1959 3097 
Q 1497 3097 1228 2736 
Q 959 2375 959 1747 
Q 959 1119 1226 758 
Q 1494 397 1959 397 
Q 2419 397 2687 759 
Q 2956 1122 2956 1747 
Q 2956 2369 2687 2733 
Q 2419 3097 1959 3097 
z
M 1959 3584 
Q 2709 3584 3137 3096 
Q 3566 2609 3566 1747 
Q 3566 888 3137 398 
Q 2709 -91 1959 -91 
Q 1206 -91 779 398 
Q 353 888 353 1747 
Q 353 2609 779 3096 
Q 1206 3584 1959 3584 
z
" transform="scale(0.015625)"/>
      <path id="DejaVuSans-45" d="M 628 4666 
L 3578 4666 
L 3578 4134 
L 1259 4134 
L 1259 2753 
L 3481 2753 
L 3481 2222 
L 1259 2222 
L 1259 531 
L 3634 531 
L 3634 0 
L 628 0 
L 628 4666 
z
" transform="scale(0.015625)"/>
      <path id="DejaVuSans-78" d="M 3513 3500 
L 2247 1797 
L 3578 0 
L 2900 0 
L 1881 1375 
L 863 0 
L 184 0 
L 1544 1831 
L 300 3500 
L 978 3500 
L 1906 2253 
L 2834 3500 
L 3513 3500 
z
" transform="scale(0.015625)"/>
      <path id="DejaVuSans-70" d="M 1159 525 
L 1159 -1331 
L 581 -1331 
L 581 3500 
L 1159 3500 
L 1159 2969 
Q 1341 3281 1617 3432 
Q 1894 3584 2278 3584 
Q 2916 3584 3314 3078 
Q 3713 2572 3713 1747 
Q 3713 922 3314 415 
Q 2916 -91 2278 -91 
Q 1894 -91 1617 61 
Q 1341 213 1159 525 
z
M 3116 1747 
Q 3116 2381 2855 2742 
Q 2594 3103 2138 3103 
Q 1681 3103 1420 2742 
Q 1159 2381 1159 1747 
Q 1159 1113 1420 752 
Q 1681 391 2138 391 
Q 2594 391 2855 752 
Q 3116 1113 3116 1747 
z
" transform="scale(0.015625)"/>
      <path id="DejaVuSans-6c" d="M 603 4863 
L 1178 4863 
L 1178 0 
L 603 0 
L 603 4863 
z
" transform="scale(0.015625)"/>
      <path id="DejaVuSans-77" d="M 269 3500 
L 844 3500 
L 1563 769 
L 2278 3500 
L 2956 3500 
L 3675 769 
L 4391 3500 
L 4966 3500 
L 4050 0 
L 3372 0 
L 2619 2869 
L 1863 0 
L 1184 0 
L 269 3500 
z
" transform="scale(0.015625)"/>
      <path id="DejaVuSans-74" d="M 1172 4494 
L 1172 3500 
L 2356 3500 
L 2356 3053 
L 1172 3053 
L 1172 1153 
Q 1172 725 1289 603 
Q 1406 481 1766 481 
L 2356 481 
L 2356 0 
L 1766 0 
Q 1100 0 847 248 
Q 594 497 594 1153 
L 594 3053 
L 172 3053 
L 172 3500 
L 594 3500 
L 594 4494 
L 1172 4494 
z
" transform="scale(0.015625)"/>
      <path id="DejaVuSans-69" d="M 603 3500 
L 1178 3500 
L 1178 0 
L 603 0 
L 603 3500 
z
M 603 4863 
L 1178 4863 
L 1178 4134 
L 603 4134 
L 603 4863 
z
" transform="scale(0.015625)"/>
      <path id="DejaVuSans-67" d="M 2906 1791 
Q 2906 2416 2648 2759 
Q 2391 3103 1925 3103 
Q 1463 3103 1205 2759 
Q 947 2416 947 1791 
Q 947 1169 1205 825 
Q 1463 481 1925 481 
Q 2391 481 2648 825 
Q 2906 1169 2906 1791 
z
M 3481 434 
Q 3481 -459 3084 -895 
Q 2688 -1331 1869 -1331 
Q 1566 -1331 1297 -1286 
Q 1028 -1241 775 -1147 
L 775 -588 
Q 1028 -725 1275 -790 
Q 1522 -856 1778 -856 
Q 2344 -856 2625 -561 
Q 2906 -266 2906 331 
L 2906 616 
Q 2728 306 2450 153 
Q 2172 0 1784 0 
Q 1141 0 747 490 
Q 353 981 353 1791 
Q 353 2603 747 3093 
Q 1141 3584 1784 3584 
Q 2172 3584 2450 3431 
Q 2728 3278 2906 2969 
L 2906 3500 
L 3481 3500 
L 3481 434 
z
" transform="scale(0.015625)"/>
      <path id="DejaVuSans-2d" d="M 313 2009 
L 1997 2009 
L 1997 1497 
L 313 1497 
L 313 2009 
z
" transform="scale(0.015625)"/>
      <path id="DejaVuSans-4e" d="M 628 4666 
L 1478 4666 
L 3547 763 
L 3547 4666 
L 4159 4666 
L 4159 0 
L 3309 0 
L 1241 3903 
L 1241 0 
L 628 0 
L 628 4666 
z
" transform="scale(0.015625)"/>
      <path id="DejaVuSans-61" d="M 2194 1759 
Q 1497 1759 1228 1600 
Q 959 1441 959 1056 
Q 959 750 1161 570 
Q 1363 391 1709 391 
Q 2188 391 2477 730 
Q 2766 1069 2766 1631 
L 2766 1759 
L 2194 1759 
z
M 3341 1997 
L 3341 0 
L 2766 0 
L 2766 531 
Q 2569 213 2275 61 
Q 1981 -91 1556 -91 
Q 1019 -91 701 211 
Q 384 513 384 1019 
Q 384 1609 779 1909 
Q 1175 2209 1959 2209 
L 2766 2209 
L 2766 2266 
Q 2766 2663 2505 2880 
Q 2244 3097 1772 3097 
Q 1472 3097 1187 3025 
Q 903 2953 641 2809 
L 641 3341 
Q 956 3463 1253 3523 
Q 1550 3584 1831 3584 
Q 2591 3584 2966 3190 
Q 3341 2797 3341 1997 
z
" transform="scale(0.015625)"/>
     </defs>
     <use xlink:href="#DejaVuSans-46"/>
     <use xlink:href="#DejaVuSans-6f" transform="translate(53.894531 0)"/>
     <use xlink:href="#DejaVuSans-72" transform="translate(115.076172 0)"/>
     <use xlink:href="#DejaVuSans-64" transform="translate(154.439453 0)"/>
     <use xlink:href="#DejaVuSans-20" transform="translate(217.916016 0)"/>
     <use xlink:href="#DejaVuSans-45" transform="translate(249.703125 0)"/>
     <use xlink:href="#DejaVuSans-78" transform="translate(312.886719 0)"/>
     <use xlink:href="#DejaVuSans-70" transform="translate(372.066406 0)"/>
     <use xlink:href="#DejaVuSans-6c" transform="translate(435.542969 0)"/>
     <use xlink:href="#DejaVuSans-6f" transform="translate(463.326172 0)"/>
     <use xlink:href="#DejaVuSans-72" transform="translate(524.507812 0)"/>
     <use xlink:href="#DejaVuSans-65" transform="translate(563.371094 0)"/>
     <use xlink:href="#DejaVuSans-72" transform="translate(624.894531 0)"/>
     <use xlink:href="#DejaVuSans-20" transform="translate(666.007812 0)"/>
     <use xlink:href="#DejaVuSans-42" transform="translate(697.794922 0)"/>
     <use xlink:href="#DejaVuSans-6c" transform="translate(766.398438 0)"/>
     <use xlink:href="#DejaVuSans-6f" transform="translate(794.181641 0)"/>
     <use xlink:href="#DejaVuSans-77" transform="translate(855.363281 0)"/>
     <use xlink:href="#DejaVuSans-65" transform="translate(937.150391 0)"/>
     <use xlink:href="#DejaVuSans-72" transform="translate(998.673828 0)"/>
     <use xlink:href="#DejaVuSans-20" transform="translate(1039.787109 0)"/>
     <use xlink:href="#DejaVuSans-53" transform="translate(1071.574219 0)"/>
     <use xlink:href="#DejaVuSans-65" transform="translate(1135.050781 0)"/>
     <use xlink:href="#DejaVuSans-74" transform="translate(1196.574219 0)"/>
     <use xlink:href="#DejaVuSans-74" transform="translate(1235.783203 0)"/>
     <use xlink:href="#DejaVuSans-69" transform="translate(1274.992188 0)"/>
     <use xlink:href="#DejaVuSans-6e" transform="translate(1302.775391 0)"/>
     <use xlink:href="#DejaVuSans-67" transform="translate(1366.154297 0)"/>
     <use xlink:href="#DejaVuSans-20" transform="translate(1429.630859 0)"/>
     <use xlink:href="#DejaVuSans-31" transform="translate(1461.417969 0)"/>
     <use xlink:href="#DejaVuSans-20" transform="translate(1525.041016 0)"/>
     <use xlink:href="#DejaVuSans-2d" transform="translate(1556.828125 0)"/>
     <use xlink:href="#DejaVuSans-20" transform="translate(1592.912109 0)"/>
     <use xlink:href="#DejaVuSans-4e" transform="translate(1624.699219 0)"/>
     <use xlink:href="#DejaVuSans-61" transform="translate(1699.503906 0)"/>
     <use xlink:href="#DejaVuSans-72" transform="translate(1760.783203 0)"/>
     <use xlink:href="#DejaVuSans-72" transform="translate(1800.146484 0)"/>
     <use xlink:href="#DejaVuSans-6f" transform="translate(1839.009766 0)"/>
     <use xlink:href="#DejaVuSans-77" transform="translate(1900.191406 0)"/>
     <use xlink:href="#DejaVuSans-20" transform="translate(1981.978516 0)"/>
     <use xlink:href="#DejaVuSans-42" transform="translate(2013.765625 0)"/>
     <use xlink:href="#DejaVuSans-61" transform="translate(2082.369141 0)"/>
     <use xlink:href="#DejaVuSans-6e" transform="translate(2143.648438 0)"/>
     <use xlink:href="#DejaVuSans-64" transform="translate(2207.027344 0)"/>
     <use xlink:href="#DejaVuSans-20" transform="translate(2270.503906 0)"/>
     <use xlink:href="#DejaVuSans-53" transform="translate(2302.291016 0)"/>
     <use xlink:href="#DejaVuSans-50" transform="translate(2365.767578 0)"/>
     <use xlink:href="#DejaVuSans-4c" transform="translate(2426.070312 0)"/>
     <use xlink:href="#DejaVuSans-20" transform="translate(2481.783203 0)"/>
     <use xlink:href="#DejaVuSans-28" transform="translate(2513.570312 0)"/>
     <use xlink:href="#DejaVuSans-64" transform="translate(2552.583984 0)"/>
     <use xlink:href="#DejaVuSans-42" transform="translate(2616.060547 0)"/>
     <use xlink:href="#DejaVuSans-41" transform="translate(2684.664062 0)"/>
     <use xlink:href="#DejaVuSans-29" transform="translate(2753.072266 0)"/>
    </g>
   </g>
  </g>
 </g>
 <defs>
  <clipPath id="p08811f2531">
   <rect x="48.982813" y="22.318125" width="512.215" height="272.272122"/>
  </clipPath>
 </defs>
</svg>
